<?xml version="1.0" ?><svg enable-background="new 0 0 504 504" id="Layer_1" version="1.1" viewBox="0 0 504 504" xml:space="preserve" xmlns="http://www.w3.org/2000/svg" xmlns:xlink="http://www.w3.org/1999/xlink"><path d="M457.1,260c-9.2,58.5-27.1,75.6-58.8,114.9c-31.7,33.3-77.3,88.9-141.9,85.8c-58.5-9.2-75.6-27.1-114.9-58.8  c-33.3-31.7-88.9-77.3-85.8-141.9c9.2-58.5,27.1-75.6,58.8-114.9c31.7-33.3,77.3-88.9,141.9-85.8c58.5,9.2,75.6,27.1,114.9,58.8  C404.6,149.8,460.2,195.4,457.1,260z" fill="#F87420"/><g><polygon fill="#FF5722" points="174.9,360.3 156.8,157 356,157 337.9,360.3 256.3,382.9  "/><polygon fill="#ffff" points="256.4,249 223.4,249 221.1,223.5 256.4,223.5 256.4,198.5 256.3,198.5 193.9,198.5 194.5,205.2    200.6,274 256.4,274  "/><polygon fill="#ffff" points="256.4,313.8 256.3,313.8 228.5,306.3 226.7,286.4 213.2,286.4 201.7,286.4 205.2,325.6    256.3,339.8 256.4,339.8  "/><polygon fill="#ffff" points="256.3,249 256.3,274 287,274 284.1,306.3 256.3,313.8 256.3,339.8 307.4,325.6 307.8,321.4    313.7,255.7 314.3,249 307.6,249  "/><polygon fill="#ffff" points="256.3,198.5 256.3,214 256.3,223.4 256.3,223.5 316.5,223.5 316.5,223.5 316.6,223.5 317.1,217.9    318.2,205.2 318.8,198.5  "/></g></svg>