<?xml version="1.0" standalone="no"?>
<!DOCTYPE svg PUBLIC "-//W3C//DTD SVG 20010904//EN"
 "http://www.w3.org/TR/2001/REC-SVG-20010904/DTD/svg10.dtd">
<svg version="1.0" xmlns="http://www.w3.org/2000/svg"
 width="1661.000000pt" height="968.000000pt" viewBox="0 0 1661.000000 968.000000"
 preserveAspectRatio="xMidYMid meet">

<g transform="translate(0.000000,968.000000) scale(0.100000,-0.100000)"
fill="#000000" stroke="none">
<path d="M1785 9318 c-14 -14 -25 -31 -25 -37 0 -7 44 -11 135 -11 115 0 135
2 135 15 0 9 -7 18 -15 21 -8 4 -15 12 -15 19 0 10 -24 14 -95 17 -92 3 -96 2
-120 -24z"/>
<path d="M2364 9342 c-23 -15 -31 -50 -26 -119 4 -63 7 -73 23 -73 16 0 19 8
19 59 0 41 4 60 14 64 22 9 26 -2 26 -65 0 -45 3 -58 15 -58 12 0 15 13 15 56
0 42 4 60 18 70 15 12 15 15 2 24 -13 9 -13 11 0 20 11 7 12 12 3 21 -14 14
-53 -5 -53 -26 0 -8 -9 -15 -20 -15 -11 0 -20 5 -20 10 0 6 5 10 10 10 6 0 10
7 10 15 0 16 -18 20 -36 7z"/>
<path d="M2128 9319 c-14 -8 -18 -24 -18 -77 0 -40 5 -73 12 -80 18 -18 78
-16 78 3 0 9 -9 15 -24 15 -27 0 -36 17 -36 63 0 41 14 62 34 54 11 -5 16 -1
16 13 0 22 -32 27 -62 9z"/>
<path d="M2227 9294 c-4 -4 -7 -36 -7 -70 0 -55 3 -63 21 -69 11 -4 32 -4 45
-1 24 6 25 10 22 74 l-3 67 -35 3 c-20 2 -39 0 -43 -4z m53 -69 c0 -33 -4 -45
-15 -45 -11 0 -15 12 -15 45 0 33 4 45 15 45 11 0 15 -12 15 -45z"/>
<path d="M2496 9285 c-10 -28 -7 -110 6 -123 17 -17 78 -16 78 2 0 8 -12 16
-27 18 -39 4 -42 28 -3 28 31 0 31 1 28 43 -3 40 -4 42 -39 45 -26 2 -38 -1
-43 -13z m54 -31 c0 -9 -5 -14 -12 -12 -18 6 -21 28 -4 28 9 0 16 -7 16 -16z"/>
<path d="M2609 9279 c-14 -27 -6 -109 12 -120 8 -5 26 -9 42 -9 33 0 38 27 5
32 -35 5 -34 28 1 28 27 0 31 4 31 26 0 41 -18 64 -50 64 -20 0 -33 -7 -41
-21z m61 -24 c0 -8 -7 -15 -15 -15 -8 0 -15 7 -15 15 0 8 7 15 15 15 8 0 15
-7 15 -15z"/>
<path d="M1795 9134 c4 -63 13 -134 19 -156 l13 -41 21 28 c38 48 42 112 7 99
-10 -4 -15 0 -15 14 0 12 4 23 9 26 4 3 11 18 14 33 3 16 12 37 20 48 15 19
16 18 32 -20 10 -22 21 -48 26 -57 11 -22 12 -51 1 -44 -4 2 -14 1 -22 -4 -18
-11 1 -79 29 -104 18 -17 19 -16 29 16 6 18 14 80 17 138 4 58 9 113 11 123 5
15 -5 17 -106 17 l-112 0 7 -116z"/>
<path d="M12990 9175 c-31 -32 -23 -87 19 -129 30 -30 30 -30 52 -10 27 25 49
67 49 96 0 65 -74 92 -120 43z m78 -39 c5 -25 -12 -39 -37 -31 -20 6 -28 34
-14 49 13 13 48 1 51 -18z"/>
<path d="M13770 9110 c0 -33 4 -60 10 -60 6 0 10 27 10 60 0 33 -4 60 -10 60
-6 0 -10 -27 -10 -60z"/>
<path d="M13200 9106 c0 -58 19 -80 21 -23 l1 32 13 -30 c7 -16 17 -29 21 -28
4 1 16 21 25 45 l18 43 -6 -47 c-4 -33 -2 -48 6 -48 7 0 11 21 11 56 0 67 -17
69 -38 4 l-15 -44 -17 44 c-25 64 -40 63 -40 -4z"/>
<path d="M13683 9105 c-12 -30 -17 -55 -13 -55 4 0 10 7 14 15 3 8 15 15 26
15 11 0 23 -7 26 -15 4 -8 10 -15 14 -15 4 0 -1 25 -13 55 -11 30 -23 55 -27
55 -4 0 -16 -25 -27 -55z m40 5 c4 -15 0 -20 -13 -20 -13 0 -17 5 -13 20 3 11
9 20 13 20 4 0 10 -9 13 -20z"/>
<path d="M14024 9146 c-8 -20 3 -35 32 -46 13 -5 24 -14 24 -20 0 -18 -29 -23
-47 -9 -14 12 -16 12 -11 -1 3 -9 17 -15 34 -15 22 0 30 5 32 21 2 16 -4 24
-27 32 -17 6 -31 16 -31 22 0 18 29 23 47 9 14 -12 16 -12 11 1 -6 21 -57 26
-64 6z"/>
<path d="M14111 9103 c1 -32 4 -46 6 -30 3 20 10 27 27 27 13 0 29 7 36 15 18
21 -4 45 -41 45 -29 0 -29 0 -28 -57z m59 27 c0 -15 -7 -20 -25 -20 -18 0 -25
5 -25 20 0 15 7 20 25 20 18 0 25 -5 25 -20z"/>
<path d="M13502 9134 c-7 -8 -8 -14 -2 -14 5 0 10 -16 10 -35 0 -19 3 -35 8
-35 7 0 8 88 0 95 -1 1 -9 -3 -16 -11z"/>
<path d="M13812 9134 c-7 -8 -8 -14 -2 -14 5 0 10 -16 10 -35 0 -19 3 -35 8
-35 7 0 8 88 0 95 -1 1 -9 -3 -16 -11z"/>
<path d="M13340 9115 c-26 -31 13 -82 44 -56 19 16 21 42 4 59 -16 16 -33 15
-48 -3z m45 -25 c0 -16 -6 -26 -18 -28 -19 -4 -32 20 -23 44 9 25 41 13 41
-16z"/>
<path d="M13421 9086 l2 -41 6 35 c4 22 12 35 21 35 9 0 18 -13 22 -35 l6 -35
-1 40 c-2 36 -5 40 -29 41 -26 1 -28 -1 -27 -40z"/>
<path d="M13554 9116 c-16 -41 20 -86 47 -59 6 6 1 9 -12 9 -12 -1 -24 5 -26
12 -3 7 5 12 22 12 20 0 26 4 23 18 -4 22 -46 29 -54 8z m46 -6 c0 -5 -9 -10
-21 -10 -11 0 -17 5 -14 10 3 6 13 10 21 10 8 0 14 -4 14 -10z"/>
<path d="M13870 9115 c-26 -31 13 -82 44 -56 19 16 21 42 4 59 -16 16 -33 15
-48 -3z m45 -25 c0 -16 -6 -26 -18 -28 -19 -4 -32 20 -23 44 9 25 41 13 41
-16z"/>
<path d="M2313 9015 c0 -44 2 -61 4 -37 2 23 2 59 0 80 -2 20 -4 1 -4 -43z"/>
<path d="M2143 9073 c26 -4 27 -7 27 -58 0 -39 -4 -54 -16 -59 -9 -3 -20 -4
-25 0 -5 3 -9 0 -9 -7 0 -7 9 -9 23 -5 12 3 25 6 30 6 4 0 7 29 7 65 l0 65
-32 -1 c-31 -2 -31 -2 -5 -6z"/>
<path d="M13947 9051 c-4 -17 -3 -21 5 -13 5 5 8 16 6 23 -3 8 -7 3 -11 -10z"/>
<path d="M2216 9044 c-18 -47 0 -104 32 -104 9 0 6 7 -8 18 -27 22 -19 42 16
42 14 0 24 6 24 14 0 29 -13 46 -35 46 -13 0 -26 -7 -29 -16z m52 -17 c3 -12
-3 -17 -22 -17 -25 0 -35 18 -19 34 12 12 38 2 41 -17z"/>
<path d="M2353 9005 c0 -33 2 -45 4 -27 2 18 2 45 0 60 -2 15 -4 0 -4 -33z"/>
<path d="M2390 9052 c0 -31 24 -102 34 -99 6 2 16 27 23 56 6 29 8 50 5 46 -4
-4 -12 -28 -18 -53 l-11 -47 -8 40 c-8 43 -24 80 -25 57z"/>
<path d="M2487 9053 c-12 -11 -8 -88 5 -101 7 -7 19 -12 28 -11 10 0 7 4 -7
11 -33 16 -30 46 5 51 l27 4 -28 2 c-21 1 -28 5 -25 19 2 10 12 17 26 16 12 0
22 3 22 8 0 10 -44 11 -53 1z"/>
<path d="M2582 9003 l2 -58 3 52 c3 38 8 53 21 56 12 3 11 5 -5 6 -22 1 -23
-3 -21 -56z"/>
<path d="M2631 9044 c0 -11 3 -14 6 -6 3 7 2 16 -1 19 -3 4 -6 -2 -5 -13z"/>
<path d="M2686 9052 c-3 -5 -8 -28 -12 -50 -4 -23 -10 -39 -15 -36 -11 7 -11
-17 -1 -34 5 -8 14 14 24 58 14 68 15 79 4 62z"/>
<path d="M2642 9000 c0 -14 2 -19 5 -12 2 6 2 18 0 25 -3 6 -5 1 -5 -13z"/>
<path d="M11563 7422 c-6 -4 -32 -55 -58 -114 -47 -105 -48 -107 -76 -101 -43
8 -73 -21 -66 -64 5 -29 3 -34 -21 -39 -44 -10 -72 -33 -72 -58 0 -13 6 -28
13 -33 16 -13 549 -146 872 -218 282 -63 693 -160 1020 -240 322 -79 356 -85
377 -74 29 16 23 63 -12 93 -30 25 -30 26 -15 50 24 37 16 68 -23 86 l-34 15
5 121 6 122 -57 25 c-219 97 -1307 363 -1722 422 -122 17 -121 17 -137 7z"/>
<path d="M5331 7374 c-33 -37 -35 -51 -9 -67 22 -14 88 37 88 68 0 20 -17 35
-40 35 -4 0 -22 -16 -39 -36z"/>
<path d="M6940 7376 c-34 -42 22 -94 60 -56 24 24 25 34 4 54 -19 20 -48 20
-64 2z"/>
<path d="M5064 7366 c-47 -21 -55 -54 -52 -206 l3 -135 38 -3 37 -3 0 90 0 91
44 0 c30 0 46 5 50 15 11 30 -5 45 -50 45 -37 0 -44 3 -44 20 0 25 30 41 72
38 34 -3 46 14 29 41 -12 19 -90 24 -127 7z"/>
<path d="M6484 7366 c-47 -21 -55 -54 -52 -206 l3 -135 38 -3 37 -3 0 90 0 91
44 0 c30 0 46 5 50 15 11 30 -5 45 -50 45 -37 0 -44 3 -44 20 0 25 30 41 72
38 34 -3 46 14 29 41 -12 19 -90 24 -127 7z"/>
<path d="M1812 7328 c-8 -8 -12 -56 -12 -148 0 -92 4 -140 12 -148 8 -8 47
-12 109 -12 89 0 98 2 104 20 10 33 -3 40 -76 40 l-69 0 0 35 0 35 53 0 c63 0
80 10 75 41 -3 22 -8 24 -65 27 -62 3 -63 3 -63 32 l0 30 70 0 70 0 0 30 0 30
-98 0 c-63 0 -102 -4 -110 -12z"/>
<path d="M3240 7213 c0 -70 3 -138 6 -151 13 -45 105 -69 139 -36 21 21 15 49
-10 50 -11 1 -28 2 -37 3 -15 1 -18 11 -18 65 l0 65 38 3 c32 3 37 6 37 28 0
22 -5 25 -37 28 -33 3 -37 6 -40 35 -3 29 -6 32 -40 35 l-38 3 0 -128z"/>
<path d="M7070 7213 c0 -70 3 -138 6 -151 13 -45 105 -69 139 -36 21 21 15 49
-10 50 -11 1 -28 2 -37 3 -15 1 -18 11 -18 65 l0 65 38 3 c32 3 37 6 37 28 0
22 -5 25 -37 28 -33 3 -37 6 -40 35 -3 29 -6 32 -40 35 l-38 3 0 -128z"/>
<path d="M2120 7262 l-35 -17 0 -110 0 -110 37 -3 37 -3 3 98 3 98 35 0 35 0
2 -65 c2 -36 5 -80 8 -97 5 -30 9 -33 40 -33 l35 0 0 99 c0 55 -3 107 -6 116
-17 44 -129 60 -194 27z"/>
<path d="M2445 7270 c-11 -4 -31 -20 -45 -35 -21 -23 -25 -36 -25 -90 0 -53 4
-67 24 -89 31 -33 88 -51 134 -42 42 8 61 28 52 56 -5 16 -11 19 -28 13 -59
-20 -107 9 -107 64 0 51 32 77 85 70 51 -7 66 12 35 43 -21 21 -86 26 -125 10z"/>
<path d="M2663 7247 c-31 -29 -37 -41 -40 -88 -4 -45 -1 -60 19 -89 67 -99
226 -65 243 53 14 90 -45 157 -138 157 -40 0 -53 -5 -84 -33z m125 -40 c19
-23 25 -67 12 -97 -7 -17 -16 -30 -20 -30 -5 0 -15 -3 -23 -6 -44 -17 -77 88
-40 128 19 21 56 24 71 5z"/>
<path d="M2980 7262 l-35 -17 0 -110 0 -110 37 -3 37 -3 3 98 3 98 35 0 35 0
2 -65 c2 -36 5 -80 8 -97 5 -30 9 -33 40 -33 l35 0 0 99 c0 55 -3 107 -6 116
-17 44 -129 60 -194 27z"/>
<path d="M3490 7262 l-35 -17 0 -110 0 -110 38 -3 37 -3 0 94 c0 103 2 107 60
107 31 0 42 16 28 43 -12 23 -81 23 -128 -1z"/>
<path d="M3698 7264 c-77 -41 -76 -192 1 -233 66 -36 186 -15 179 31 -3 24 -7
24 -75 12 -32 -6 -83 15 -83 35 0 5 31 12 69 16 90 9 106 20 97 68 -10 53 -55
87 -114 87 -26 -1 -59 -7 -74 -16z m111 -63 c9 -17 5 -19 -40 -25 -28 -4 -53
-5 -55 -3 -2 2 3 13 12 25 19 28 69 30 83 3z"/>
<path d="M4083 7247 c-31 -29 -37 -41 -40 -88 -4 -45 -1 -60 19 -89 67 -99
226 -65 243 53 14 90 -45 157 -138 157 -40 0 -53 -5 -84 -33z m125 -40 c19
-23 25 -67 12 -97 -7 -17 -16 -30 -20 -30 -5 0 -15 -3 -23 -6 -44 -17 -77 88
-40 128 19 21 56 24 71 5z"/>
<path d="M4535 7270 c-11 -4 -31 -20 -45 -35 -21 -23 -25 -36 -25 -90 0 -53 4
-67 24 -89 31 -33 88 -51 134 -42 42 8 61 28 52 56 -5 16 -11 19 -28 13 -59
-20 -107 9 -107 64 0 51 32 77 85 70 51 -7 66 12 35 43 -21 21 -86 26 -125 10z"/>
<path d="M4749 7262 c-14 -12 -20 -25 -16 -35 5 -13 16 -15 61 -10 38 4 61 2
71 -7 25 -21 17 -27 -46 -34 -72 -8 -99 -30 -99 -81 0 -44 30 -72 86 -81 49
-7 88 0 122 22 20 13 22 22 22 98 0 47 -3 92 -6 101 -17 44 -150 63 -195 27z
m129 -159 c-2 -22 -9 -29 -31 -31 -28 -3 -57 12 -57 30 0 11 38 27 68 27 20 1
23 -3 20 -26z"/>
<path d="M5268 7264 c-77 -41 -76 -192 1 -233 66 -36 186 -15 179 31 -3 24 -7
24 -75 12 -32 -6 -83 15 -83 35 0 5 31 12 69 16 90 9 106 20 97 68 -10 53 -55
87 -114 87 -26 -1 -59 -7 -74 -16z m111 -63 c9 -17 5 -19 -40 -25 -28 -4 -53
-5 -55 -3 -2 2 3 13 12 25 19 28 69 30 83 3z"/>
<path d="M5670 7273 c-47 -19 -50 -29 -50 -183 0 -158 4 -170 52 -170 27 0 28
2 28 50 0 49 0 49 29 44 38 -8 97 12 116 39 43 61 38 151 -10 197 -20 19 -38
25 -88 27 -34 1 -69 0 -77 -4z m100 -63 c41 -22 32 -112 -12 -129 -46 -17 -58
-4 -58 63 0 35 3 66 7 69 9 10 42 8 63 -3z"/>
<path d="M5978 7264 c-77 -41 -76 -192 1 -233 66 -36 186 -15 179 31 -3 24 -7
24 -75 12 -32 -6 -83 15 -83 35 0 5 31 12 69 16 90 9 106 20 97 68 -10 53 -55
87 -114 87 -26 -1 -59 -7 -74 -16z m111 -63 c9 -17 5 -19 -40 -25 -28 -4 -53
-5 -55 -3 -2 2 3 13 12 25 19 28 69 30 83 3z"/>
<path d="M6260 7262 l-35 -17 0 -110 0 -110 38 -3 37 -3 0 94 c0 103 2 107 60
107 31 0 42 16 28 43 -12 23 -81 23 -128 -1z"/>
<path d="M6688 7264 c-77 -41 -76 -192 1 -233 66 -36 186 -15 179 31 -3 24 -7
24 -75 12 -32 -6 -83 15 -83 35 0 5 31 12 69 16 90 9 106 20 97 68 -10 53 -55
87 -114 87 -26 -1 -59 -7 -74 -16z m111 -63 c9 -17 5 -19 -40 -25 -28 -4 -53
-5 -55 -3 -2 2 3 13 12 25 19 28 69 30 83 3z"/>
<path d="M6943 7273 c-14 -5 -19 -205 -7 -237 4 -10 18 -16 40 -16 l34 0 0
120 c0 108 -2 120 -19 130 -21 11 -29 11 -48 3z"/>
<path d="M7313 7247 c-31 -29 -37 -41 -40 -88 -4 -45 -1 -60 19 -89 67 -99
226 -65 243 53 14 90 -45 157 -138 157 -40 0 -53 -5 -84 -33z m125 -40 c19
-23 25 -67 12 -97 -7 -17 -16 -30 -20 -30 -5 0 -15 -3 -23 -6 -44 -17 -77 88
-40 128 19 21 56 24 71 5z"/>
<path d="M7750 7273 c-47 -19 -50 -29 -50 -183 0 -158 4 -170 52 -170 27 0 28
2 28 50 0 49 0 49 29 44 38 -8 97 12 116 39 43 61 38 151 -10 197 -20 19 -38
25 -88 27 -34 1 -69 0 -77 -4z m100 -63 c41 -22 32 -112 -12 -129 -46 -17 -58
-4 -58 63 0 35 3 66 7 69 9 10 42 8 63 -3z"/>
<path d="M8029 7262 c-14 -12 -20 -25 -16 -35 5 -13 16 -15 61 -10 38 4 61 2
71 -7 25 -21 17 -27 -46 -34 -72 -8 -99 -30 -99 -81 0 -44 30 -72 86 -81 49
-7 88 0 122 22 20 13 22 22 22 98 0 47 -3 92 -6 101 -17 44 -150 63 -195 27z
m129 -159 c-2 -22 -9 -29 -31 -31 -28 -3 -57 12 -57 30 0 11 38 27 68 27 20 1
23 -3 20 -26z"/>
<path d="M8330 7262 l-35 -17 0 -110 0 -110 38 -3 37 -3 0 94 c0 103 2 107 60
107 31 0 42 16 28 43 -12 23 -81 23 -128 -1z"/>
<path d="M8509 7262 c-14 -12 -20 -25 -16 -35 5 -13 16 -15 61 -10 38 4 61 2
71 -7 25 -21 17 -27 -46 -34 -72 -8 -99 -30 -99 -81 0 -44 30 -72 86 -81 49
-7 88 0 122 22 20 13 22 22 22 98 0 47 -3 92 -6 101 -17 44 -150 63 -195 27z
m129 -159 c-2 -22 -9 -29 -31 -31 -28 -3 -57 12 -57 30 0 11 38 27 68 27 20 1
23 -3 20 -26z"/>
<path d="M6310 6696 c-34 -42 22 -94 60 -56 24 24 25 34 4 54 -19 20 -48 20
-64 2z"/>
<path d="M2680 6531 c0 -87 3 -166 6 -175 4 -10 18 -16 40 -16 l34 0 -2 173
-3 172 -37 3 -38 3 0 -160z"/>
<path d="M4052 6518 l3 -173 37 -3 37 -3 3 98 3 98 29 3 c16 2 34 -1 40 -8 6
-6 13 -50 16 -98 l5 -87 39 -3 39 -3 -5 98 c-3 54 -10 108 -16 119 -15 29 -63
47 -112 42 l-40 -4 0 42 c0 44 -10 54 -56 54 l-24 0 2 -172z"/>
<path d="M5430 6643 l0 -48 -44 3 c-90 7 -142 -49 -134 -145 5 -61 31 -96 86
-114 41 -14 104 -7 138 15 l25 17 -3 157 -3 157 -32 3 -33 3 0 -48z m-2 -174
c3 -61 1 -67 -19 -72 -47 -12 -79 16 -79 72 0 43 27 73 63 69 l32 -3 3 -66z"/>
<path d="M6160 6643 l0 -48 -44 3 c-90 7 -142 -49 -134 -145 5 -61 31 -96 86
-114 41 -14 104 -7 138 15 l25 17 -3 157 -3 157 -32 3 -33 3 0 -48z m-2 -174
c3 -61 1 -67 -19 -72 -47 -12 -79 16 -79 72 0 43 27 73 63 69 l32 -3 3 -66z"/>
<path d="M1843 6584 c-65 -32 -85 -154 -33 -209 29 -30 83 -49 120 -41 28 5
29 4 32 -42 3 -45 4 -47 36 -50 l32 -3 0 166 0 166 -35 15 c-45 18 -112 18
-152 -2z m115 -115 c3 -61 1 -67 -19 -72 -47 -12 -79 16 -79 72 0 43 27 73 63
69 l32 -3 3 -66z"/>
<path d="M2107 6593 c-4 -3 -7 -48 -7 -98 0 -77 3 -96 20 -118 39 -49 138 -60
195 -23 24 16 25 21 25 126 0 109 0 110 -25 116 -50 12 -55 3 -55 -100 0 -85
-2 -95 -20 -101 -10 -3 -28 -1 -40 5 -18 9 -20 20 -20 93 0 51 -5 88 -12 95
-13 13 -50 16 -61 5z"/>
<path d="M2419 6582 c-14 -12 -20 -25 -16 -35 5 -13 16 -15 61 -10 38 4 61 2
71 -7 25 -21 17 -27 -46 -34 -72 -8 -99 -30 -99 -81 0 -44 30 -72 86 -81 49
-7 88 0 122 22 20 13 22 22 22 98 0 47 -3 92 -6 101 -17 44 -150 63 -195 27z
m129 -159 c-2 -22 -9 -29 -31 -31 -28 -3 -57 12 -57 30 0 11 38 27 68 27 20 1
23 -3 20 -26z"/>
<path d="M2883 6584 c-65 -32 -85 -154 -33 -209 29 -30 83 -49 120 -41 28 5
29 4 32 -42 3 -45 4 -47 36 -50 l32 -3 0 166 0 166 -35 15 c-45 18 -112 18
-152 -2z m115 -115 c3 -61 1 -67 -19 -72 -47 -12 -79 16 -79 72 0 43 27 73 63
69 l32 -3 3 -66z"/>
<path d="M3147 6593 c-4 -3 -7 -48 -7 -98 0 -77 3 -96 20 -118 39 -49 138 -60
195 -23 24 16 25 21 25 126 0 109 0 110 -25 116 -50 12 -55 3 -55 -100 0 -85
-2 -95 -20 -101 -10 -3 -28 -1 -40 5 -18 9 -20 20 -20 93 0 51 -5 88 -12 95
-13 13 -50 16 -61 5z"/>
<path d="M3488 6584 c-77 -41 -76 -192 1 -233 66 -36 186 -15 179 31 -3 24 -7
24 -75 12 -32 -6 -83 15 -83 35 0 5 31 12 69 16 90 9 106 20 97 68 -10 53 -55
87 -114 87 -26 -1 -59 -7 -74 -16z m111 -63 c9 -17 5 -19 -40 -25 -28 -4 -53
-5 -55 -3 -2 2 3 13 12 25 19 28 69 30 83 3z"/>
<path d="M3770 6582 l-35 -17 0 -110 0 -110 38 -3 37 -3 0 94 c0 103 2 107 60
107 31 0 42 16 28 43 -12 23 -81 23 -128 -1z"/>
<path d="M4393 6567 c-31 -29 -37 -41 -40 -88 -4 -45 -1 -60 19 -89 67 -99
226 -65 243 53 14 90 -45 157 -138 157 -40 0 -53 -5 -84 -33z m125 -40 c19
-23 25 -67 12 -97 -7 -17 -16 -30 -20 -30 -5 0 -15 -3 -23 -6 -44 -17 -77 88
-40 128 19 21 56 24 71 5z"/>
<path d="M4710 6582 l-35 -17 0 -110 0 -110 38 -3 37 -3 0 94 c0 103 2 107 60
107 31 0 42 16 28 43 -12 23 -81 23 -128 -1z"/>
<path d="M4889 6582 c-14 -12 -20 -25 -16 -35 5 -13 16 -15 61 -10 38 4 61 2
71 -7 25 -21 17 -27 -46 -34 -72 -8 -99 -30 -99 -81 0 -44 30 -72 86 -81 49
-7 88 0 122 22 20 13 22 22 22 98 0 47 -3 92 -6 101 -17 44 -150 63 -195 27z
m129 -159 c-2 -22 -9 -29 -31 -31 -28 -3 -57 12 -57 30 0 11 38 27 68 27 20 1
23 -3 20 -26z"/>
<path d="M5603 6567 c-31 -29 -37 -41 -40 -88 -4 -45 -1 -60 19 -89 67 -99
226 -65 243 53 14 90 -45 157 -138 157 -40 0 -53 -5 -84 -33z m125 -40 c19
-23 25 -67 12 -97 -7 -17 -16 -30 -20 -30 -5 0 -15 -3 -23 -6 -44 -17 -77 88
-40 128 19 21 56 24 71 5z"/>
<path d="M6313 6593 c-14 -5 -19 -205 -7 -237 4 -10 18 -16 40 -16 l34 0 0
120 c0 108 -2 120 -19 130 -21 11 -29 11 -48 3z"/>
<path d="M6459 6582 c-14 -12 -20 -25 -16 -35 5 -13 16 -15 61 -10 38 4 61 2
71 -7 25 -21 17 -27 -46 -34 -72 -8 -99 -30 -99 -81 0 -44 30 -72 86 -81 49
-7 88 0 122 22 20 13 22 22 22 98 0 47 -3 92 -6 101 -17 44 -150 63 -195 27z
m129 -159 c-2 -22 -9 -29 -31 -31 -28 -3 -57 12 -57 30 0 11 38 27 68 27 20 1
23 -3 20 -26z"/>
<path d="M11314 6429 c-8 -13 -153 -1301 -154 -1360 0 -35 3 -37 58 -62 125
-55 386 -129 762 -216 297 -68 568 -121 662 -128 43 -3 81 -9 83 -14 3 -4 -10
-47 -29 -96 -56 -147 -106 -290 -106 -302 0 -29 104 -69 235 -90 84 -14 151 0
254 54 54 28 72 33 100 27 30 -7 32 -9 17 -21 -31 -26 -17 -55 22 -44 15 3 22
13 22 29 0 13 -4 24 -10 24 -5 0 -13 12 -16 28 -4 15 -12 30 -18 34 -6 5 -1 8
12 8 18 0 22 4 18 18 -6 20 33 74 41 55 2 -7 11 -13 18 -13 9 0 13 -10 12 -27
-2 -22 3 -29 21 -31 18 -3 22 1 22 22 0 16 -6 26 -15 26 -16 0 -38 34 -28 44
4 3 -1 12 -9 19 -14 10 -15 20 -5 68 7 31 17 62 23 70 23 28 24 54 4 84 -20
30 -27 71 -11 61 5 -3 19 -25 31 -48 12 -24 35 -60 51 -80 16 -20 29 -41 29
-47 0 -5 27 -26 60 -46 33 -20 69 -49 81 -66 11 -16 37 -38 57 -48 21 -10 46
-28 56 -40 15 -16 21 -18 28 -9 13 22 9 58 -11 86 -14 19 -21 53 -26 117 -4
56 -12 96 -21 106 -17 19 -19 38 -2 21 7 -7 23 -12 35 -12 20 0 23 -5 21 -26
-2 -21 4 -31 27 -45 17 -10 40 -18 53 -18 19 -1 22 3 16 27 -4 22 -3 24 6 12
10 -13 11 -12 5 5 -4 11 -9 25 -12 31 -2 7 9 13 26 16 27 4 31 2 31 -19 0 -13
7 -26 16 -30 19 -7 44 14 28 25 -14 10 -38 71 -30 79 3 3 6 1 6 -6 0 -8 8 -6
25 5 21 14 23 19 13 32 -11 13 -10 15 4 10 29 -12 47 14 49 70 2 30 -2 57 -7
60 -15 11 -35 52 -25 52 5 0 11 -5 13 -12 5 -15 45 -21 53 -7 4 6 0 18 -9 28
-9 10 -16 23 -16 29 0 7 -7 12 -15 12 -12 0 -13 4 -3 25 6 14 17 24 24 21 8
-3 16 0 20 6 4 7 14 2 25 -13 14 -19 20 -22 30 -11 10 9 10 12 1 12 -8 0 -10
8 -6 24 7 28 -11 43 -31 26 -19 -16 -45 -6 -45 18 0 13 7 18 28 17 29 0 31 7
17 58 -5 19 -3 27 5 27 13 0 66 -53 86 -86 10 -16 15 -17 30 -6 40 26 46 25
83 -17 20 -22 40 -41 44 -41 4 0 7 15 7 34 0 19 5 38 11 42 13 8 3 70 -17 102
-8 12 -25 22 -38 22 -13 0 -37 14 -56 33 -30 31 -32 31 -45 13 -14 -18 -15
-18 -26 7 -7 15 -17 23 -25 20 -8 -3 -14 0 -14 6 0 6 -7 11 -15 11 -8 0 -15 7
-15 15 0 22 -19 18 -28 -6 -7 -18 -9 -17 -19 15 -8 24 -8 38 -1 42 6 4 13 3
17 -2 3 -5 19 -20 35 -34 28 -25 28 -25 22 -2 -8 24 8 31 18 7 3 -8 12 -15 21
-15 11 0 15 11 15 44 0 57 15 68 94 72 56 2 65 0 69 -17 3 -11 14 -19 25 -19
28 0 36 65 12 104 -17 28 -18 28 -29 8 -9 -16 -7 -22 12 -35 18 -12 20 -17 9
-28 -11 -12 -14 -11 -22 1 -5 8 -10 11 -10 5 -1 -5 -7 5 -15 23 -8 18 -19 31
-25 27 -5 -3 -10 -3 -10 0 0 11 25 32 47 39 23 7 39 39 28 56 -4 6 -19 5 -41
-5 -37 -15 -64 -11 -64 11 0 8 -7 14 -15 14 -8 0 -15 4 -15 8 0 4 -20 21 -45
36 -25 16 -45 33 -45 37 0 5 -6 6 -13 3 -8 -3 -20 12 -32 38 l-19 43 -9 -47
c-5 -27 -13 -48 -17 -48 -5 0 -5 -13 -1 -28 10 -35 -8 -60 -62 -85 -59 -27
-82 -3 -24 26 24 12 27 16 12 16 -11 1 -35 -3 -53 -8 -20 -6 -32 -6 -32 0 0 5
8 9 18 9 32 0 98 56 121 102 54 113 2 245 -116 295 -49 20 -141 17 -185 -7
-37 -20 -37 -20 -48 0 -6 11 -18 20 -27 20 -14 0 -14 2 2 20 10 11 29 20 42
20 25 0 30 12 11 28 -16 13 -60 18 -74 9 -7 -4 -44 35 -94 99 -45 58 -84 104
-86 102 -2 -2 -10 -32 -18 -66 l-14 -62 63 -75 c57 -67 64 -80 71 -131 6 -51
8 -55 20 -39 7 10 20 15 28 12 13 -5 13 -2 4 18 -6 13 -8 32 -4 41 6 15 10 13
27 -15 17 -29 22 -31 36 -19 19 15 18 11 -20 -61 -36 -68 -39 -140 -9 -203
l21 -43 -24 30 c-14 17 -28 45 -31 62 -3 18 -10 30 -15 28 -4 -3 -6 -12 -3
-20 3 -7 6 -37 7 -66 2 -52 3 -53 37 -62 35 -8 36 -8 36 -63 l1 -55 -18 31
c-21 34 -61 41 -79 13 -9 -15 -10 -13 -5 10 5 23 -2 37 -33 75 -50 60 -62 84
-62 121 0 36 -15 48 -37 29 -22 -18 -93 -167 -87 -182 3 -8 -1 -16 -10 -19 -8
-3 -19 -30 -26 -62 -10 -47 -15 -56 -31 -53 -11 2 -18 6 -17 9 2 3 -4 14 -12
24 -9 11 -10 16 -2 11 21 -12 14 15 -13 50 -14 18 -25 37 -25 42 0 6 27 84 60
174 48 133 57 165 46 176 -7 7 -230 64 -497 127 -266 62 -596 141 -734 175
-301 74 -666 160 -676 160 -4 0 -11 -5 -15 -11z m2506 -521 c0 -11 5 -16 10
-13 10 6 14 -12 10 -54 -1 -17 2 -21 12 -15 10 6 10 4 -1 -9 -21 -26 -33 -20
-26 13 5 22 3 30 -7 30 -10 0 -13 -10 -10 -35 6 -49 -15 -44 -23 5 -4 22 -11
40 -17 40 -11 0 0 42 14 51 18 12 38 5 38 -13z m-1955 -129 c-4 -5 1 -19 11
-30 16 -18 16 -19 -4 -19 -18 0 -22 6 -22 30 0 17 5 30 11 30 5 0 7 -5 4 -11z
m1982 -21 c-3 -8 -6 -5 -6 6 -1 11 2 17 5 13 3 -3 4 -12 1 -19z m-1797 -28 c0
-5 -11 -10 -25 -10 -26 0 -36 -19 -38 -81 -2 -27 2 -34 23 -39 22 -6 23 -8 7
-15 -10 -4 -30 -2 -44 4 -23 11 -25 15 -18 58 12 80 20 93 60 93 19 0 35 -4
35 -10z m181 -29 c-8 -5 -11 -16 -8 -25 4 -9 3 -16 -2 -16 -5 0 -14 -27 -21
-60 -14 -67 -37 -73 -25 -6 4 22 8 50 10 61 3 36 17 55 39 55 16 0 18 -2 7 -9z
m-91 -16 c13 -15 7 -74 -11 -107 -12 -22 -52 -23 -69 -3 -13 15 -7 74 11 107
12 22 52 23 69 3z m1900 -5 c0 -5 -2 -10 -4 -10 -3 0 -8 5 -11 10 -3 6 -1 10
4 10 6 0 11 -4 11 -10z m-655 -97 c-20 -87 -32 -110 -49 -93 -18 18 -14 58 6
63 12 4 18 15 18 36 0 17 4 31 9 31 5 0 12 12 15 26 4 15 10 24 13 21 3 -4 -3
-41 -12 -84z m707 25 c-7 -7 -12 -8 -12 -2 0 14 12 26 19 19 2 -3 -1 -11 -7
-17z m-82 2 c0 -5 -2 -10 -4 -10 -3 0 -8 5 -11 10 -3 6 -1 10 4 10 6 0 11 -4
11 -10z m25 -19 c3 -5 1 -12 -5 -16 -5 -3 -10 1 -10 9 0 18 6 21 15 7z m-1779
-59 c-11 -10 -14 3 -8 33 l7 30 3 -28 c2 -16 1 -31 -2 -35z m1854 26 c0 -13
-23 -5 -28 10 -2 7 2 10 12 6 9 -3 16 -11 16 -16z m-183 -10 c-3 -8 -6 -5 -6
6 -1 11 2 17 5 13 3 -3 4 -12 1 -19z m-247 -8 c0 -5 -6 -10 -14 -10 -8 0 -18
5 -21 10 -3 6 3 10 14 10 12 0 21 -4 21 -10z m-1693 -62 c-3 -8 -6 -5 -6 6 -1
11 2 17 5 13 3 -3 4 -12 1 -19z m1175 -180 c-10 -10 -71 118 -78 166 -2 20 12
-2 42 -63 27 -56 42 -97 36 -103z m888 177 c0 -8 -4 -15 -10 -15 -5 0 -10 7
-10 15 0 8 5 15 10 15 6 0 10 -7 10 -15z m-1933 -17 c-3 -8 -6 -5 -6 6 -1 11
2 17 5 13 3 -3 4 -12 1 -19z m2060 16 c-3 -3 -12 -4 -19 -1 -8 3 -5 6 6 6 11
1 17 -2 13 -5z m-2155 -31 c-3 -16 -7 -22 -10 -15 -4 13 4 42 11 42 2 0 2 -12
-1 -27z m-45 -15 c-3 -7 -5 -2 -5 12 0 14 2 19 5 13 2 -7 2 -19 0 -25z m130
-20 c-3 -8 -6 -5 -6 6 -1 11 2 17 5 13 3 -3 4 -12 1 -19z m-100 -20 c-3 -8 -6
-5 -6 6 -1 11 2 17 5 13 3 -3 4 -12 1 -19z m1880 -20 c-3 -7 -5 -2 -5 12 0 14
2 19 5 13 2 -7 2 -19 0 -25z m-337 18 c0 -2 3 -11 6 -20 9 -23 -13 -20 -26 4
-9 16 -8 20 5 20 8 0 15 -2 15 -4z m100 -26 c0 -5 -2 -10 -4 -10 -3 0 -8 5
-11 10 -3 6 -1 10 4 10 6 0 11 -4 11 -10z m-564 -127 c38 -46 40 -55 19 -73
-8 -7 -15 -16 -15 -21 0 -5 7 -9 15 -9 9 0 15 -9 15 -21 0 -15 -4 -19 -16 -15
-9 3 -20 6 -24 6 -17 0 -80 62 -80 78 0 9 10 26 22 39 19 20 20 23 4 23 -10 0
-20 -9 -23 -19 -5 -20 -33 -38 -33 -22 0 9 20 66 40 116 l12 30 15 -35 c8 -19
30 -54 49 -77z m244 71 c0 -8 -4 -12 -10 -9 -5 3 -10 13 -10 21 0 8 5 12 10 9
6 -3 10 -13 10 -21z m90 -10 c0 -13 -3 -24 -7 -24 -10 0 -32 47 -26 54 12 11
33 -8 33 -30z m191 23 c-1 -12 -15 -9 -19 4 -3 6 1 10 8 8 6 -3 11 -8 11 -12z
m-61 -21 c0 -8 -4 -18 -10 -21 -5 -3 -10 3 -10 14 0 12 5 21 10 21 6 0 10 -6
10 -14z m228 2 c7 -7 12 -18 12 -25 0 -8 -7 -6 -20 7 -11 11 -20 22 -20 25 0
9 16 5 28 -7z m162 2 c0 -5 -4 -10 -10 -10 -5 0 -10 5 -10 10 0 6 5 10 10 10
6 0 10 -4 10 -10z m-267 -31 c6 -24 -1 -49 -14 -49 -5 0 -9 16 -9 35 0 38 14
47 23 14z m-33 4 c0 -5 -5 -15 -10 -23 -8 -12 -10 -11 -10 8 0 12 5 22 10 22
6 0 10 -3 10 -7z m-120 -31 c0 -11 -8 -18 -20 -19 -11 -1 -20 3 -20 8 0 6 5 7
10 4 6 -3 10 3 10 15 0 12 5 18 10 15 6 -3 10 -14 10 -23z m-174 -9 c-10 -10
-19 5 -10 18 6 11 8 11 12 0 2 -7 1 -15 -2 -18z m484 -3 c0 -13 -7 -20 -20
-20 -19 0 -27 20 -13 33 13 14 33 6 33 -13z m-402 -9 c3 -8 -1 -12 -9 -9 -7 2
-15 10 -17 17 -3 8 1 12 9 9 7 -2 15 -10 17 -17z m159 -24 c2 -38 -7 -47 -25
-24 -6 7 -7 18 -2 26 4 8 6 21 2 29 -3 9 0 13 8 10 8 -2 15 -21 17 -41z m157
11 c15 -37 5 -58 -19 -38 -13 11 -13 15 -3 22 10 6 7 13 -12 28 -25 20 -25 20
-3 20 16 0 27 -9 37 -32z m226 22 c0 -5 -5 -10 -11 -10 -5 0 -7 5 -4 10 3 6 8
10 11 10 2 0 4 -4 4 -10z m-675 -30 c-5 -8 -11 -8 -17 -2 -6 6 -7 16 -3 22 5
8 11 8 17 2 6 -6 7 -16 3 -22z m-118 -40 c-6 -47 3 -130 18 -175 6 -16 5 -17
-4 -5 -20 29 -34 117 -27 174 4 31 10 56 13 56 3 0 3 -22 0 -50z m700 24 c-9
-9 -28 6 -21 18 4 6 10 6 17 -1 6 -6 8 -13 4 -17z m-374 -27 c3 -23 9 -53 13
-66 5 -17 4 -22 -4 -17 -7 4 -12 17 -12 29 0 12 -13 35 -30 50 -37 36 -37 41
-1 44 26 2 29 -1 34 -40z m-193 -3 c0 -9 -5 -14 -12 -12 -18 6 -21 28 -4 28 9
0 16 -7 16 -16z m350 -9 c0 -8 -4 -15 -10 -15 -5 0 -7 7 -4 15 4 8 8 15 10 15
2 0 4 -7 4 -15z m-206 -4 c4 -5 3 -17 0 -26 -5 -13 -8 -14 -15 -3 -5 7 -9 19
-9 26 0 14 16 16 24 3z m355 -37 c-6 -7 -8 -18 -4 -24 3 -5 2 -10 -4 -10 -6 0
-8 -8 -5 -17 5 -15 4 -16 -5 -3 -6 8 -8 23 -5 33 3 10 0 24 -6 32 -19 23 -1
39 21 19 14 -13 16 -20 8 -30z m-800 -20 c34 -20 39 -40 17 -69 -14 -19 -15
-19 -35 5 l-21 25 -23 -26 c-12 -14 -30 -24 -39 -22 -16 4 -16 8 3 56 11 29
28 60 37 70 16 17 16 17 23 -1 4 -11 21 -28 38 -38z m736 35 c8 -25 -7 -44
-29 -36 -19 8 -21 43 -3 50 21 9 26 7 32 -14z m-165 -9 c0 -5 -4 -10 -10 -10
-5 0 -10 5 -10 10 0 6 5 10 10 10 6 0 10 -4 10 -10z m-200 -10 c0 -5 -4 -10
-9 -10 -6 0 -13 5 -16 10 -3 6 1 10 9 10 9 0 16 -4 16 -10z m491 -17 c13 -17
13 -17 -5 -3 -18 14 -19 13 -13 -10 6 -24 5 -24 -8 -6 -12 16 -12 22 -2 28 6
4 13 8 13 8 1 0 8 -8 15 -17z m-243 -15 c15 -15 16 -48 2 -48 -9 0 -30 40 -30
56 0 8 16 4 28 -8z m-153 -19 c11 -17 2 -18 -19 -3 -17 12 -17 14 -4 14 9 0
20 -5 23 -11z m240 -9 c0 -22 -29 -18 -33 3 -3 14 1 18 15 15 10 -2 18 -10 18
-18z m-302 -46 c-5 -14 -25 -19 -36 -8 -3 3 -1 14 6 25 13 21 39 7 30 -17z
m-273 17 c0 -5 -7 -14 -15 -21 -22 -18 -18 -30 8 -30 17 0 28 -10 40 -35 27
-57 21 -58 -43 -9 -59 46 -61 52 -32 87 16 18 42 23 42 8z m400 -12 c0 -6 -4
-7 -10 -4 -5 3 -10 11 -10 16 0 6 5 7 10 4 6 -3 10 -11 10 -16z m-54 -6 c20
-27 16 -38 -6 -18 -20 18 -26 35 -14 35 4 0 13 -8 20 -17z m-16 -37 c0 -5 -7
-1 -15 10 -8 10 -14 24 -14 29 0 6 6 1 14 -9 8 -11 15 -24 15 -30z m180 22 c0
-19 -32 -24 -64 -12 -31 12 -16 29 24 29 31 0 40 -4 40 -17z m150 -33 c0 -8
-2 -15 -4 -15 -2 0 -6 7 -10 15 -3 8 -1 15 4 15 6 0 10 -7 10 -15z m-137 -30
c15 -22 16 -25 2 -25 -8 0 -15 4 -15 9 0 5 -15 13 -32 17 -29 6 -30 8 -13 15
31 12 39 10 58 -16z m-333 0 c0 -8 -2 -15 -4 -15 -2 0 -6 7 -10 15 -3 8 -1 15
4 15 6 0 10 -7 10 -15z m88 -30 c-3 -3 -9 2 -12 12 -6 14 -5 15 5 6 7 -7 10
-15 7 -18z m132 -21 c0 -16 -16 -19 -25 -4 -8 13 4 32 16 25 5 -4 9 -13 9 -21z
m348 -29 c-3 -3 -9 2 -12 12 -6 14 -5 15 5 6 7 -7 10 -15 7 -18z m-918 -115
c0 -13 49 -60 61 -60 5 0 9 8 10 18 0 12 3 10 11 -8 5 -14 14 -33 19 -42 12
-23 11 -38 -1 -38 -5 0 -10 9 -10 19 0 22 -20 40 -20 19 0 -8 -5 -6 -11 5 -6
9 -14 15 -20 12 -5 -4 -9 1 -9 9 0 8 -5 18 -12 22 -8 5 -9 2 -5 -9 3 -10 2
-17 -3 -17 -6 0 -10 3 -11 8 -1 15 -7 37 -14 55 -4 10 -3 17 4 17 6 0 11 -5
11 -10z m-35 -52 c-14 -11 -29 -17 -33 -13 -4 4 -1 10 6 12 6 3 12 13 12 24 0
17 3 18 21 9 20 -11 20 -12 -6 -32z m805 13 c0 -44 -45 -57 -52 -16 -5 22 -2
25 23 25 16 0 29 -4 29 -9z m-883 -36 c1 -19 -3 -32 -8 -29 -5 3 -7 9 -4 14 3
5 1 12 -5 15 -8 5 -7 11 1 21 15 19 15 19 16 -21z m633 -47 l43 -53 -47 48
c-43 44 -52 57 -42 57 2 0 23 -24 46 -52z m-600 1 c0 -6 -4 -7 -10 -4 -5 3
-10 11 -10 16 0 6 5 7 10 4 6 -3 10 -11 10 -16z m90 11 c0 -5 -2 -10 -4 -10
-3 0 -8 5 -11 10 -3 6 -1 10 4 10 6 0 11 -4 11 -10z m736 -16 c-4 -9 -9 -15
-11 -12 -3 3 -3 13 1 22 4 9 9 15 11 12 3 -3 3 -13 -1 -22z m-786 -18 c0 -8 3
-21 6 -30 4 -12 0 -16 -15 -16 -12 0 -21 6 -21 15 0 8 -8 16 -17 16 -17 1 -17
2 0 6 9 2 17 9 17 14 0 5 7 9 15 9 8 0 15 -6 15 -14z m66 -36 c1 -23 1 -23
-12 -5 -17 23 -18 38 -1 33 6 -3 13 -15 13 -28z m-42 -46 c4 -10 1 -14 -6 -12
-15 5 -23 28 -10 28 5 0 13 -7 16 -16z m84 -12 c2 -12 -1 -22 -7 -22 -16 0
-22 18 -9 23 10 4 9 8 -2 17 -13 10 -13 11 0 7 8 -2 16 -13 18 -25z m607 -104
c16 -41 12 -46 -20 -22 -13 9 -20 27 -20 49 0 41 15 31 40 -27z m-816 -149
c12 -7 4 -9 -29 -4 -25 3 -51 12 -59 20 -12 11 -7 12 29 4 24 -5 50 -14 59
-20z"/>
<path d="M12097 5673 c-12 -21 -17 -82 -7 -88 12 -7 30 35 30 71 0 23 -14 33
-23 17z"/>
<path d="M13387 6374 c-12 -13 -9 -19 64 -110 84 -105 79 -100 79 -87 0 6 -26
47 -57 91 -32 45 -63 88 -68 97 -6 9 -13 13 -18 9z"/>
<path d="M2942 5878 c-7 -7 -12 -20 -12 -29 0 -10 -6 -20 -12 -23 -10 -5 -10
-7 0 -12 7 -4 12 -27 12 -65 0 -33 4 -59 10 -59 6 0 10 27 10 60 0 47 3 60 15
60 8 0 15 5 15 10 0 6 -7 10 -15 10 -22 0 -18 31 5 37 11 3 20 9 20 14 0 13
-34 11 -48 -3z"/>
<path d="M3032 5878 c-7 -7 -12 -20 -12 -29 0 -10 -6 -20 -12 -23 -10 -5 -10
-7 0 -12 7 -4 12 -27 12 -65 0 -33 4 -59 10 -59 6 0 10 27 10 60 0 47 3 60 15
60 8 0 15 5 15 10 0 6 -7 10 -15 10 -22 0 -18 31 5 37 11 3 20 9 20 14 0 13
-34 11 -48 -3z"/>
<path d="M3750 5790 c0 -60 4 -100 10 -100 6 0 10 40 10 100 0 60 -4 100 -10
100 -6 0 -10 -40 -10 -100z"/>
<path d="M4855 5870 c-20 -22 -7 -28 14 -7 11 10 14 10 18 0 3 -7 12 -13 20
-13 14 0 14 3 -2 20 -10 11 -21 20 -25 20 -4 0 -15 -9 -25 -20z"/>
<path d="M5540 5790 c0 -60 4 -100 10 -100 6 0 10 5 10 12 0 9 3 9 12 0 17
-17 53 -15 69 4 7 9 14 33 14 54 0 21 -7 45 -14 54 -16 19 -52 21 -69 4 -9 -9
-12 -3 -12 30 0 23 -4 42 -10 42 -6 0 -10 -40 -10 -100z m86 -5 c9 -37 -3 -75
-24 -75 -25 0 -42 20 -42 50 0 50 54 71 66 25z"/>
<path d="M6662 5878 c-7 -7 -12 -20 -12 -29 0 -10 -6 -20 -12 -23 -10 -5 -10
-7 0 -12 7 -4 12 -27 12 -65 0 -33 4 -59 10 -59 6 0 10 27 10 60 0 47 3 60 15
60 8 0 15 5 15 10 0 6 -7 10 -15 10 -22 0 -18 31 5 37 11 3 20 9 20 14 0 13
-34 11 -48 -3z"/>
<path d="M6780 5875 c-21 -25 -1 -31 23 -7 17 18 18 22 5 22 -8 0 -21 -7 -28
-15z"/>
<path d="M7310 5855 c0 -32 -2 -34 -27 -29 -43 8 -68 -16 -68 -65 0 -52 15
-65 70 -67 l45 -2 0 99 c0 59 -4 99 -10 99 -5 0 -10 -16 -10 -35z m-11 -59
c17 -20 10 -67 -11 -79 -23 -15 -48 8 -48 42 0 45 35 66 59 37z"/>
<path d="M1800 5860 c-15 -15 -20 -33 -20 -75 0 -64 22 -95 69 -95 31 0 84 51
61 58 -6 2 -18 -5 -26 -17 -33 -47 -84 -14 -84 54 0 67 53 102 82 55 19 -29
42 -27 27 3 -7 12 -17 25 -23 29 -21 14 -66 8 -86 -12z"/>
<path d="M2620 5860 c-15 -15 -20 -33 -20 -75 0 -64 22 -95 69 -95 31 0 84 51
61 58 -6 2 -18 -5 -26 -17 -33 -47 -84 -14 -84 54 0 67 53 102 82 55 19 -29
42 -27 27 3 -7 12 -17 25 -23 29 -21 14 -66 8 -86 -12z"/>
<path d="M3440 5785 l0 -95 39 0 c61 0 94 34 94 95 0 61 -33 95 -94 95 l-39 0
0 -95z m92 58 c23 -21 24 -89 1 -115 -9 -10 -27 -18 -40 -18 -22 0 -23 3 -23
75 0 70 1 75 22 75 12 0 30 -7 40 -17z"/>
<path d="M3810 5865 c0 -8 5 -15 10 -15 6 0 10 7 10 15 0 8 -4 15 -10 15 -5 0
-10 -7 -10 -15z"/>
<path d="M7930 5865 c0 -8 5 -15 10 -15 6 0 10 7 10 15 0 8 -4 15 -10 15 -5 0
-10 -7 -10 -15z"/>
<path d="M7850 5845 c0 -8 -7 -15 -15 -15 -8 0 -15 -4 -15 -10 0 -5 7 -10 15
-10 10 0 15 -15 17 -57 3 -51 6 -58 26 -61 12 -2 22 1 22 7 0 6 -7 11 -15 11
-11 0 -15 12 -15 50 0 38 4 50 15 50 8 0 15 5 15 10 0 6 -7 10 -15 10 -8 0
-15 7 -15 15 0 8 -4 15 -10 15 -5 0 -10 -7 -10 -15z"/>
<path d="M13507 5845 c-4 -8 -2 -17 3 -20 6 -4 10 3 10 14 0 25 -6 27 -13 6z"/>
<path d="M14012 5818 c2 -15 11 -24 26 -26 26 -4 29 15 5 34 -26 19 -35 17
-31 -8z"/>
<path d="M1974 5822 c-40 -27 -40 -105 1 -124 71 -32 125 61 69 117 -16 16
-52 20 -70 7z m55 -26 c17 -20 10 -67 -11 -79 -23 -15 -48 8 -48 42 0 45 35
66 59 37z"/>
<path d="M2100 5758 c0 -83 18 -91 22 -10 3 53 5 57 28 57 23 0 25 -4 28 -57
2 -42 7 -58 17 -58 10 0 15 16 17 58 3 53 5 57 28 57 23 0 25 -4 28 -57 2 -32
7 -58 12 -58 14 0 12 114 -2 128 -15 15 -55 16 -63 2 -5 -8 -11 -8 -19 -1 -7
6 -31 9 -54 8 l-42 -1 0 -68z"/>
<path d="M2414 5822 c-40 -27 -40 -105 1 -124 71 -32 125 61 69 117 -16 16
-52 20 -70 7z m55 -26 c17 -20 10 -67 -11 -79 -23 -15 -48 8 -48 42 0 45 35
66 59 37z"/>
<path d="M2794 5822 c-40 -27 -40 -105 1 -124 71 -32 125 61 69 117 -16 16
-52 20 -70 7z m55 -26 c17 -20 10 -67 -11 -79 -23 -15 -48 8 -48 42 0 45 35
66 59 37z"/>
<path d="M3116 5814 c-38 -37 -26 -109 19 -120 31 -8 79 11 70 27 -5 7 -11 6
-21 -2 -18 -15 -64 -3 -64 16 0 11 12 15 45 15 36 0 45 3 45 18 0 50 -60 80
-94 46z m64 -24 c10 -18 8 -20 -25 -20 -37 0 -43 8 -23 28 18 18 36 15 48 -8z"/>
<path d="M3256 5814 c-38 -37 -26 -109 19 -120 31 -8 79 11 70 27 -5 7 -11 6
-21 -2 -18 -15 -64 -3 -64 16 0 11 12 15 45 15 36 0 45 3 45 18 0 50 -60 80
-94 46z m64 -24 c10 -18 8 -20 -25 -20 -37 0 -43 8 -23 28 18 18 36 15 48 -8z"/>
<path d="M3626 5814 c-38 -37 -26 -109 19 -120 31 -8 79 11 70 27 -5 7 -11 6
-21 -2 -18 -15 -64 -3 -64 16 0 11 12 15 45 15 36 0 45 3 45 18 0 50 -60 80
-94 46z m64 -24 c10 -18 8 -20 -25 -20 -37 0 -43 8 -23 28 18 18 36 15 48 -8z"/>
<path d="M3810 5760 c0 -40 4 -70 10 -70 6 0 10 30 10 70 0 40 -4 70 -10 70
-6 0 -10 -30 -10 -70z"/>
<path d="M3862 5819 c3 -8 14 -40 24 -71 10 -32 23 -58 29 -58 11 0 58 130 50
138 -10 11 -24 -13 -36 -60 l-13 -53 -16 55 c-10 30 -23 56 -30 58 -8 3 -11
-1 -8 -9z"/>
<path d="M4016 5814 c-38 -37 -26 -109 19 -120 31 -8 79 11 70 27 -5 7 -11 6
-21 -2 -18 -15 -64 -3 -64 16 0 11 12 15 45 15 36 0 45 3 45 18 0 50 -60 80
-94 46z m64 -24 c10 -18 8 -20 -25 -20 -37 0 -43 8 -23 28 18 18 36 15 48 -8z"/>
<path d="M4140 5758 c0 -82 18 -91 22 -11 3 52 5 57 29 64 25 6 27 3 49 -59
l23 -65 -21 -18 c-25 -20 -28 -29 -8 -29 21 0 32 19 65 108 23 60 27 82 17 82
-7 0 -19 -20 -26 -46 -14 -49 -22 -48 -40 8 -11 38 -12 38 -61 36 l-49 -2 0
-68z"/>
<path d="M4402 5819 c3 -8 14 -40 24 -71 10 -32 23 -58 29 -58 11 0 58 130 50
138 -10 11 -24 -13 -36 -60 l-13 -53 -16 55 c-10 30 -23 56 -30 58 -8 3 -11
-1 -8 -9z"/>
<path d="M4564 5822 c-40 -27 -40 -105 1 -124 71 -32 125 61 69 117 -16 16
-52 20 -70 7z m55 -26 c17 -20 10 -67 -11 -79 -23 -15 -48 8 -48 42 0 45 35
66 59 37z"/>
<path d="M4706 5814 c-32 -32 -28 -92 8 -116 20 -14 53 -8 71 12 24 26 11 39
-16 15 -28 -26 -54 -9 -54 35 0 44 26 61 54 35 27 -24 40 -11 16 15 -22 24
-58 26 -79 4z"/>
<path d="M4846 5814 c-38 -37 -26 -109 19 -120 31 -8 79 11 70 27 -5 7 -11 6
-21 -2 -18 -15 -64 -3 -64 16 0 11 12 15 45 15 36 0 45 3 45 18 0 50 -60 80
-94 46z m64 -24 c10 -18 8 -20 -25 -20 -37 0 -43 8 -23 28 18 18 36 15 48 -8z"/>
<path d="M5030 5758 c0 -83 18 -91 22 -10 3 50 6 57 26 60 35 5 26 20 -13 19
l-35 -1 0 -68z"/>
<path d="M5136 5814 c-38 -37 -26 -109 19 -120 31 -8 79 11 70 27 -5 7 -11 6
-21 -2 -18 -15 -64 -3 -64 16 0 11 12 15 45 15 36 0 45 3 45 18 0 50 -60 80
-94 46z m64 -24 c10 -18 8 -20 -25 -20 -37 0 -43 8 -23 28 18 18 36 15 48 -8z"/>
<path d="M5276 5814 c-32 -32 -28 -92 8 -116 20 -14 53 -8 71 12 24 26 11 39
-16 15 -28 -26 -54 -9 -54 35 0 44 26 61 54 35 27 -24 40 -11 16 15 -22 24
-58 26 -79 4z"/>
<path d="M5416 5814 c-38 -37 -26 -109 19 -120 31 -8 79 11 70 27 -5 7 -11 6
-21 -2 -18 -15 -64 -3 -64 16 0 11 12 15 45 15 36 0 45 3 45 18 0 50 -60 80
-94 46z m64 -24 c10 -18 8 -20 -25 -20 -37 0 -43 8 -23 28 18 18 36 15 48 -8z"/>
<path d="M5706 5814 c-38 -37 -26 -109 19 -120 31 -8 79 11 70 27 -5 7 -11 6
-21 -2 -18 -15 -64 -3 -64 16 0 11 12 15 45 15 36 0 45 3 45 18 0 50 -60 80
-94 46z m64 -24 c10 -18 8 -20 -25 -20 -37 0 -43 8 -23 28 18 18 36 15 48 -8z"/>
<path d="M5896 5811 c-17 -18 -17 -20 3 -40 12 -12 30 -21 40 -21 24 0 36 -29
15 -37 -8 -3 -26 0 -40 7 -30 16 -41 8 -19 -14 30 -30 95 -13 95 25 0 15 -11
25 -40 36 -22 9 -40 20 -40 25 0 15 30 21 45 8 22 -19 41 -7 21 13 -23 23 -59
22 -80 -2z"/>
<path d="M6036 5814 c-38 -37 -26 -109 19 -120 31 -8 79 11 70 27 -5 7 -11 6
-21 -2 -18 -15 -64 -3 -64 16 0 11 12 15 45 15 36 0 45 3 45 18 0 50 -60 80
-94 46z m64 -24 c10 -18 8 -20 -25 -20 -37 0 -43 8 -23 28 18 18 36 15 48 -8z"/>
<path d="M6160 5771 c0 -68 11 -81 63 -79 l37 1 0 69 c0 82 -18 91 -22 11 -3
-54 -5 -58 -28 -58 -23 0 -25 4 -28 58 -4 75 -22 74 -22 -2z"/>
<path d="M6376 5814 c-32 -32 -28 -92 8 -116 20 -14 53 -8 71 12 24 26 11 39
-16 15 -28 -26 -54 -9 -54 35 0 44 26 61 54 35 27 -24 40 -11 16 15 -22 24
-58 26 -79 4z"/>
<path d="M6514 5816 c-24 -18 -13 -31 14 -15 23 14 52 6 52 -16 0 -10 -10 -15
-29 -15 -28 0 -61 -22 -61 -40 0 -21 32 -38 72 -38 l43 1 -3 56 c-2 31 -9 62
-14 69 -14 16 -50 15 -74 -2z m66 -81 c0 -15 -46 -32 -57 -22 -3 4 -3 13 0 22
8 20 57 20 57 0z"/>
<path d="M6746 5814 c-38 -37 -26 -109 19 -120 31 -8 79 11 70 27 -5 7 -11 6
-21 -2 -18 -15 -64 -3 -64 16 0 11 12 15 45 15 36 0 45 3 45 18 0 50 -60 80
-94 46z m64 -24 c10 -18 8 -20 -25 -20 -37 0 -43 8 -23 28 18 18 36 15 48 -8z"/>
<path d="M6954 5822 c-40 -27 -40 -105 1 -124 71 -32 125 61 69 117 -16 16
-52 20 -70 7z m55 -26 c17 -20 10 -67 -11 -79 -23 -15 -48 8 -48 42 0 45 35
66 59 37z"/>
<path d="M7080 5758 c0 -83 18 -91 22 -10 3 53 5 57 28 57 23 0 25 -4 28 -57
4 -76 22 -75 22 1 0 68 -10 80 -62 78 l-38 -1 0 -68z"/>
<path d="M7386 5814 c-38 -37 -26 -109 19 -120 31 -8 79 11 70 27 -5 7 -11 6
-21 -2 -18 -15 -64 -3 -64 16 0 11 12 15 45 15 36 0 45 3 45 18 0 50 -60 80
-94 46z m64 -24 c10 -18 8 -20 -25 -20 -37 0 -43 8 -23 28 18 18 36 15 48 -8z"/>
<path d="M7586 5814 c-38 -37 -26 -109 19 -120 31 -8 79 11 70 27 -5 7 -11 6
-21 -2 -18 -15 -64 -3 -64 16 0 11 12 15 45 15 36 0 45 3 45 18 0 50 -60 80
-94 46z m64 -24 c10 -18 8 -20 -25 -20 -37 0 -43 8 -23 28 18 18 36 15 48 -8z"/>
<path d="M7716 5811 c-17 -18 -17 -20 3 -40 12 -12 30 -21 40 -21 24 0 36 -29
15 -37 -8 -3 -26 0 -40 7 -30 16 -41 8 -19 -14 30 -30 95 -13 95 25 0 15 -11
25 -40 36 -22 9 -40 20 -40 25 0 15 30 21 45 8 22 -19 41 -7 21 13 -23 23 -59
22 -80 -2z"/>
<path d="M7930 5760 c0 -40 4 -70 10 -70 6 0 10 30 10 70 0 40 -4 70 -10 70
-6 0 -10 -30 -10 -70z"/>
<path d="M7982 5819 c3 -8 14 -40 24 -71 10 -32 23 -58 29 -58 11 0 58 130 50
138 -10 11 -24 -13 -36 -60 l-13 -53 -16 55 c-10 30 -23 56 -30 58 -8 3 -11
-1 -8 -9z"/>
<path d="M8136 5814 c-38 -37 -26 -109 19 -120 31 -8 79 11 70 27 -5 7 -11 6
-21 -2 -18 -15 -64 -3 -64 16 0 11 12 15 45 15 36 0 45 3 45 18 0 50 -60 80
-94 46z m64 -24 c10 -18 8 -20 -25 -20 -37 0 -43 8 -23 28 18 18 36 15 48 -8z"/>
<path d="M8260 5758 c0 -83 18 -91 22 -10 3 50 6 57 26 60 35 5 26 20 -13 19
l-35 -1 0 -68z"/>
<path d="M8454 5816 c-24 -18 -13 -31 14 -15 23 14 52 6 52 -16 0 -10 -10 -15
-29 -15 -28 0 -61 -22 -61 -40 0 -21 32 -38 72 -38 l43 1 -3 56 c-2 31 -9 62
-14 69 -14 16 -50 15 -74 -2z m66 -81 c0 -15 -46 -32 -57 -22 -3 4 -3 13 0 22
8 20 57 20 57 0z"/>
<path d="M14321 5806 c-17 -20 3 -56 29 -56 26 0 26 31 1 54 -16 14 -20 15
-30 2z"/>
<path d="M14407 5783 c-13 -12 -7 -43 8 -43 8 0 15 4 15 9 0 5 3 16 6 25 6 16
-16 23 -29 9z"/>
<path d="M14555 5780 c-8 -13 13 -40 31 -40 20 0 27 19 14 35 -14 17 -36 19
-45 5z"/>
<path d="M8323 5690 c-12 -31 -6 -39 15 -18 13 13 16 48 4 48 -4 0 -13 -13
-19 -30z"/>
<path d="M14416 5605 c-8 -21 32 -61 46 -47 8 8 6 19 -6 36 -19 30 -31 33 -40
11z"/>
<path d="M2210 5450 c0 -60 4 -100 10 -100 6 0 10 40 10 100 0 60 -4 100 -10
100 -6 0 -10 -40 -10 -100z"/>
<path d="M2850 5450 c0 -107 17 -140 22 -42 3 53 5 57 28 57 23 0 25 -4 28
-57 4 -79 22 -73 22 6 0 56 -3 66 -20 71 -11 3 -29 3 -40 0 -17 -6 -20 -2 -20
29 0 20 -4 36 -10 36 -6 0 -10 -40 -10 -100z"/>
<path d="M3360 5475 c0 -37 4 -65 10 -65 6 0 10 8 10 19 0 10 3 39 6 65 6 38
4 46 -10 46 -13 0 -16 -11 -16 -65z"/>
<path d="M1789 5473 c-18 -21 -17 -86 1 -108 10 -12 23 -15 47 -12 31 5 33 4
33 -24 0 -16 5 -29 10 -29 6 0 10 38 10 93 l0 93 -44 2 c-30 1 -48 -4 -57 -15z
m70 -17 c17 -20 10 -67 -11 -79 -23 -15 -48 8 -48 42 0 45 35 66 59 37z"/>
<path d="M1930 5431 c0 -68 11 -81 63 -79 l37 1 0 69 c0 82 -18 91 -22 11 -3
-54 -5 -58 -28 -58 -23 0 -25 4 -28 58 -4 75 -22 74 -22 -2z"/>
<path d="M2084 5476 c-24 -18 -13 -31 14 -15 23 14 52 6 52 -16 0 -10 -10 -15
-29 -15 -28 0 -61 -22 -61 -40 0 -21 32 -38 72 -38 l43 1 -3 56 c-2 31 -9 62
-14 69 -14 16 -50 15 -74 -2z m66 -81 c0 -15 -46 -32 -57 -22 -3 4 -3 13 0 22
8 20 57 20 57 0z"/>
<path d="M2279 5473 c-18 -21 -17 -86 1 -108 10 -12 23 -15 47 -12 31 5 33 4
33 -24 0 -16 5 -29 10 -29 6 0 10 38 10 93 l0 93 -44 2 c-30 1 -48 -4 -57 -15z
m70 -17 c17 -20 10 -67 -11 -79 -23 -15 -48 8 -48 42 0 45 35 66 59 37z"/>
<path d="M2420 5431 c0 -68 11 -81 63 -79 l37 1 0 69 c0 82 -18 91 -22 11 -3
-54 -5 -58 -28 -58 -23 0 -25 4 -28 58 -4 75 -22 74 -22 -2z"/>
<path d="M2576 5474 c-38 -37 -26 -109 19 -120 31 -8 79 11 70 27 -5 7 -11 6
-21 -2 -18 -15 -64 -3 -64 16 0 11 12 15 45 15 36 0 45 3 45 18 0 50 -60 80
-94 46z m64 -24 c10 -18 8 -20 -25 -20 -37 0 -43 8 -23 28 18 18 36 15 48 -8z"/>
<path d="M2700 5418 c0 -83 18 -91 22 -10 3 50 6 57 26 60 35 5 26 20 -13 19
l-35 -1 0 -68z"/>
<path d="M3014 5482 c-40 -27 -40 -105 1 -124 71 -32 125 61 69 117 -16 16
-52 20 -70 7z m55 -26 c17 -20 10 -67 -11 -79 -23 -15 -48 8 -48 42 0 45 35
66 59 37z"/>
<path d="M3140 5418 c0 -83 18 -91 22 -10 3 50 6 57 26 60 35 5 26 20 -13 19
l-35 -1 0 -68z"/>
<path d="M3234 5476 c-24 -18 -13 -31 14 -15 23 14 52 6 52 -16 0 -10 -10 -15
-29 -15 -28 0 -61 -22 -61 -40 0 -21 32 -38 72 -38 l43 1 -3 56 c-2 31 -9 62
-14 69 -14 16 -50 15 -74 -2z m66 -81 c0 -15 -46 -32 -57 -22 -3 4 -3 13 0 22
8 20 57 20 57 0z"/>
<path d="M3360 5365 c0 -8 7 -15 15 -15 8 0 15 7 15 15 0 8 -7 15 -15 15 -8 0
-15 -7 -15 -15z"/>
<path d="M14360 5261 c0 -13 29 -35 37 -28 7 8 -15 37 -28 37 -5 0 -9 -4 -9
-9z"/>
<path d="M10122 5041 c4 -46 42 -73 110 -78 76 -5 102 11 105 65 2 48 13 44
-135 46 l-83 1 3 -34z m121 -3 c65 4 79 3 75 -9 -3 -8 -20 -15 -39 -16 -19 -1
-48 -4 -65 -8 -25 -6 -36 -2 -60 20 -17 15 -21 22 -10 17 11 -6 55 -7 99 -4z"/>
<path d="M10452 5008 c-31 -31 -9 -71 82 -145 36 -29 47 -29 80 3 32 33 33 46
1 70 -14 10 -25 24 -25 31 0 7 -4 13 -10 13 -5 0 -19 9 -30 20 -22 22 -79 27
-98 8z m158 -118 c0 -5 -4 -10 -10 -10 -5 0 -10 5 -10 10 0 6 5 10 10 10 6 0
10 -4 10 -10z"/>
<path d="M14053 4944 c-8 -22 33 -62 48 -47 8 8 6 18 -6 37 -20 30 -33 33 -42
10z"/>
<path d="M10320 4944 c0 -3 5 -14 11 -26 13 -24 20 -86 10 -92 -11 -7 -28 7
-34 29 -3 13 -5 8 -6 -13 -1 -25 7 -41 28 -63 35 -34 68 -37 104 -9 17 14 28
17 32 10 4 -6 -1 -17 -10 -24 -21 -15 -25 -109 -7 -143 16 -29 62 -44 91 -28
34 18 93 -1 114 -37 22 -39 77 -40 112 -2 30 32 33 55 5 29 -29 -26 -25 -5 6
28 29 31 24 49 -14 46 -15 -2 -37 3 -49 9 -27 15 -103 33 -152 37 -40 3 -64
30 -58 65 3 14 1 33 -5 43 -6 13 -6 23 3 33 9 11 8 14 -8 14 -11 0 -29 12 -39
26 -57 78 -71 85 -54 23 12 -42 13 -92 1 -85 -8 5 -15 30 -28 104 -4 26 -10
32 -29 32 -13 0 -24 -3 -24 -6z"/>
<path d="M10676 4915 c-11 -29 -6 -51 14 -70 26 -24 25 -32 -5 -39 -26 -7 -45
-40 -45 -76 0 -22 53 -41 94 -33 14 3 26 1 26 -5 0 -25 98 -44 150 -29 22 7
27 3 41 -32 15 -36 20 -39 55 -39 22 0 48 -1 59 -3 16 -3 21 2 23 28 3 26 0
32 -12 27 -9 -3 -16 -2 -16 4 0 5 7 13 16 16 16 6 16 28 -1 27 -6 0 -20 22
-32 49 -19 44 -25 49 -52 48 -39 -1 -57 -20 -36 -38 18 -15 21 -45 3 -34 -7 4
-28 10 -48 14 -26 4 -36 11 -38 27 -2 11 -12 23 -23 26 -20 5 -27 51 -9 62 18
11 -3 35 -49 56 -65 29 -107 35 -115 14z m148 -67 c-8 -13 -30 -9 -43 6 -10
12 -8 15 11 18 23 3 41 -10 32 -24z m171 -88 c3 -5 3 -15 -1 -21 -6 -11 -23 6
-24 24 0 10 18 9 25 -3z"/>
<path d="M10859 4613 c-1 -5 0 -34 1 -67 2 -63 -12 -71 -26 -13 l-8 32 -6 -35
c-3 -19 -4 -42 -2 -51 6 -29 89 -106 120 -112 16 -3 43 -17 58 -31 26 -23 27
-26 9 -27 -39 -3 -70 3 -85 16 -8 7 -25 16 -37 19 -14 5 -23 15 -23 27 0 10
-4 19 -10 19 -18 0 -11 -46 11 -69 44 -47 121 -55 163 -16 14 13 26 28 26 32
0 4 -30 24 -67 43 -76 40 -90 60 -44 60 21 0 31 5 31 15 0 14 4 14 32 -1 35
-18 98 -15 124 7 9 8 14 25 12 48 -3 32 -6 35 -38 38 -19 1 -56 6 -82 11 -33
7 -49 6 -52 -2 -2 -6 -5 -3 -5 6 -1 10 -10 22 -22 28 -20 11 -20 10 -13 -52 4
-43 3 -60 -4 -53 -6 6 -12 33 -15 61 -2 29 -8 57 -11 63 -8 12 -35 15 -37 4z
m122 -90 c1 -17 2 -17 6 0 3 13 11 16 31 11 15 -3 37 -7 50 -10 24 -5 31 -24
7 -24 -7 0 -18 -7 -23 -17 -9 -14 -10 -14 -16 5 -4 12 -12 22 -17 22 -6 0 -8
-4 -5 -9 9 -13 -19 -7 -38 8 -18 15 -21 31 -6 31 6 0 11 -8 11 -17z"/>
<path d="M13903 4583 c-18 -7 -16 -27 5 -46 24 -22 42 -21 42 1 0 23 -30 51
-47 45z"/>
<path d="M4685 4525 c-130 -46 -150 -233 -34 -304 100 -61 229 -12 259 99 22
82 -13 159 -90 198 -51 25 -79 27 -135 7z m103 -105 c29 -18 33 -25 30 -58 -3
-31 -9 -40 -41 -57 l-37 -20 -38 21 c-30 18 -38 28 -40 58 -3 31 1 38 30 56
18 11 40 20 48 20 8 0 30 -9 48 -20z"/>
<path d="M4730 4422 c0 -13 48 -33 54 -23 3 4 -6 13 -20 20 -30 13 -34 14 -34
3z"/>
<path d="M4704 4395 c11 -8 29 -15 40 -15 19 1 19 2 -4 15 -35 20 -62 19 -36
0z"/>
<path d="M4785 4378 c-12 -41 -13 -43 -14 -25 -2 30 -21 18 -21 -13 0 -28 1
-29 25 -18 18 8 25 19 25 40 0 29 -8 37 -15 16z"/>
<path d="M13302 4445 c1 -16 9 -30 16 -33 18 -6 15 33 -4 49 -14 11 -15 9 -12
-16z"/>
<path d="M13365 4460 c-3 -5 -2 -10 4 -10 5 0 13 5 16 10 3 6 2 10 -4 10 -5 0
-13 -4 -16 -10z"/>
<path d="M3020 4430 c0 -5 5 -10 10 -10 6 0 10 5 10 10 0 6 -4 10 -10 10 -5 0
-10 -4 -10 -10z"/>
<path d="M3320 4370 c0 -40 4 -70 10 -70 6 0 10 30 10 70 0 40 -4 70 -10 70
-6 0 -10 -30 -10 -70z"/>
<path d="M5320 4371 c0 -68 0 -69 28 -69 36 0 52 15 52 48 0 32 -23 55 -45 46
-11 -4 -15 1 -15 19 0 14 -4 25 -10 25 -6 0 -10 -30 -10 -69z m63 -1 c8 -31
-3 -61 -22 -58 -17 3 -27 39 -17 64 8 21 33 17 39 -6z"/>
<path d="M5520 4370 c0 -40 4 -70 10 -70 6 0 10 30 10 70 0 40 -4 70 -10 70
-6 0 -10 -30 -10 -70z"/>
<path d="M6516 4425 c-3 -8 -2 -15 3 -15 5 0 14 7 21 15 10 12 10 15 -3 15 -8
0 -17 -7 -21 -15z"/>
<path d="M7123 4423 c-4 -10 -11 -21 -17 -25 -7 -5 -7 -8 2 -8 8 0 12 -16 12
-45 0 -25 5 -45 10 -45 6 0 10 20 10 44 0 26 5 46 13 49 10 4 10 6 0 6 -7 1
-13 7 -13 15 0 8 6 17 13 19 7 3 5 6 -6 6 -10 1 -21 -7 -24 -16z"/>
<path d="M7206 4425 c-3 -8 -2 -15 3 -15 5 0 14 7 21 15 10 12 10 15 -3 15 -8
0 -17 -7 -21 -15z"/>
<path d="M7310 4430 c0 -5 5 -10 10 -10 6 0 10 5 10 10 0 6 -4 10 -10 10 -5 0
-10 -4 -10 -10z"/>
<path d="M11099 4424 c-7 -9 -13 -43 -13 -82 -1 -63 0 -67 30 -87 17 -11 38
-32 47 -47 21 -36 32 -35 91 5 59 38 77 64 57 76 -11 7 -11 9 0 14 11 3 11 8
3 16 -17 18 -94 -4 -95 -27 0 -13 -3 -12 -11 6 -9 18 -7 26 7 42 22 24 13 26
-20 4 -14 -9 -25 -15 -26 -13 0 2 -2 24 -4 48 -5 57 -37 80 -66 45z m116 -204
c3 -5 1 -10 -4 -10 -6 0 -11 5 -11 10 0 6 2 10 4 10 3 0 8 -4 11 -10z"/>
<path d="M2267 4412 c-39 -43 -5 -121 46 -108 23 5 46 36 28 36 -5 0 -11 -7
-15 -15 -7 -20 -42 -19 -50 1 -16 43 -3 94 25 94 11 0 22 -7 25 -15 4 -8 10
-15 15 -15 6 0 5 9 -1 20 -13 25 -52 26 -73 2z"/>
<path d="M5060 4365 l0 -65 48 2 c43 1 44 2 10 5 -32 4 -38 8 -38 28 0 19 6
24 33 28 l32 4 -32 1 c-28 2 -33 6 -33 26 0 21 5 25 38 29 34 3 33 4 -10 5
l-48 2 0 -65z"/>
<path d="M6422 4405 c-7 -8 -8 -15 -3 -15 5 0 11 -19 13 -42 4 -62 23 -58 21
4 -1 29 -2 56 -2 61 -1 11 -15 8 -29 -8z"/>
<path d="M7452 4405 c-7 -8 -8 -15 -3 -15 5 0 11 -19 13 -42 4 -62 23 -58 21
4 -1 29 -2 56 -2 61 -1 11 -15 8 -29 -8z"/>
<path d="M7702 4405 c-7 -8 -8 -15 -3 -15 5 0 11 -19 13 -42 4 -62 23 -58 21
4 -1 29 -2 56 -2 61 -1 11 -15 8 -29 -8z"/>
<path d="M13342 4400 c-10 -17 -10 -21 2 -26 22 -8 35 3 29 26 -7 25 -15 25
-31 0z"/>
<path d="M2381 4386 c-31 -37 9 -103 47 -80 36 23 23 94 -18 94 -10 0 -23 -6
-29 -14z m47 -8 c28 -28 -3 -83 -33 -58 -8 7 -15 20 -15 29 0 17 18 41 30 41
3 0 11 -5 18 -12z"/>
<path d="M2470 4348 c0 -59 18 -64 22 -6 2 31 8 44 21 46 14 3 17 -4 17 -42 0
-58 18 -61 22 -4 2 31 8 44 21 46 14 3 17 -4 17 -42 0 -25 5 -46 10 -46 17 0
12 76 -6 91 -12 10 -20 10 -35 1 -11 -7 -19 -8 -19 -2 0 5 -16 9 -35 8 -35 -1
-35 -1 -35 -50z"/>
<path d="M2630 4329 c0 -39 4 -69 10 -69 6 0 10 11 10 25 0 18 4 23 15 19 22
-9 45 14 45 46 0 33 -16 48 -52 48 -28 0 -28 -1 -28 -69z m60 41 c8 -14 8 -26
0 -41 -14 -25 -34 -20 -38 10 -7 47 18 68 38 31z"/>
<path d="M2730 4349 c0 -27 5 -49 10 -49 6 0 10 18 10 40 0 26 6 42 17 48 13
8 11 10 -10 10 -26 0 -27 -3 -27 -49z"/>
<path d="M2800 4385 c-14 -17 0 -21 17 -4 6 6 16 8 22 5 17 -11 13 -26 -8 -26
-24 0 -45 -25 -38 -45 4 -9 19 -14 42 -13 32 1 35 4 35 30 0 59 -40 89 -70 53z
m48 -52 c-5 -26 -38 -29 -38 -4 0 15 6 21 21 21 14 0 19 -5 17 -17z"/>
<path d="M2937 4393 c-15 -14 -5 -33 24 -49 23 -12 28 -19 20 -27 -9 -9 -17
-8 -32 2 -18 10 -20 10 -17 -1 3 -7 18 -13 34 -13 39 0 46 31 10 45 -14 5 -26
16 -26 25 0 18 26 20 33 3 2 -7 8 -10 12 -6 4 4 4 11 0 17 -7 12 -48 15 -58 4z"/>
<path d="M3020 4350 c0 -27 5 -50 10 -50 6 0 10 23 10 50 0 28 -4 50 -10 50
-5 0 -10 -22 -10 -50z"/>
<path d="M3060 4348 c0 -59 18 -64 22 -6 2 31 8 44 21 46 14 3 17 -4 17 -42 0
-58 18 -61 22 -4 2 31 8 44 21 46 14 3 17 -4 17 -42 0 -25 5 -46 10 -46 17 0
12 76 -6 91 -12 10 -20 10 -35 1 -11 -7 -19 -8 -19 -2 0 5 -16 9 -35 8 -35 -1
-35 -1 -35 -50z"/>
<path d="M3220 4329 c0 -39 4 -69 10 -69 6 0 10 11 10 25 0 18 4 23 15 19 22
-9 45 14 45 46 0 33 -16 48 -52 48 -28 0 -28 -1 -28 -69z m60 41 c8 -14 8 -26
0 -41 -14 -25 -34 -20 -38 10 -7 47 18 68 38 31z"/>
<path d="M3370 4381 c-22 -43 -5 -81 36 -81 25 0 40 15 25 24 -5 4 -11 1 -13
-6 -6 -16 -38 -2 -38 17 0 10 10 15 30 15 31 0 39 17 18 38 -18 18 -46 14 -58
-7z m50 -6 c0 -8 -9 -15 -20 -15 -20 0 -26 11 -13 23 12 13 33 7 33 -8z"/>
<path d="M3467 4393 c-15 -14 -5 -33 24 -49 23 -12 28 -19 20 -27 -9 -9 -17
-8 -32 2 -18 10 -20 10 -17 -1 3 -7 18 -13 34 -13 39 0 46 31 10 45 -14 5 -26
16 -26 25 0 18 26 20 33 3 2 -7 8 -10 12 -6 4 4 4 11 0 17 -7 12 -48 15 -58 4z"/>
<path d="M3600 4381 c-22 -43 -5 -81 36 -81 25 0 40 15 25 24 -5 4 -11 1 -13
-6 -6 -16 -38 -2 -38 17 0 10 10 15 30 15 31 0 39 17 18 38 -18 18 -46 14 -58
-7z m50 -6 c0 -8 -9 -15 -20 -15 -20 0 -26 11 -13 23 12 13 33 7 33 -8z"/>
<path d="M3737 4393 c-15 -14 -5 -33 24 -49 23 -12 28 -19 20 -27 -9 -9 -17
-8 -32 2 -18 10 -20 10 -17 -1 3 -7 18 -13 34 -13 39 0 46 31 10 45 -14 5 -26
16 -26 25 0 18 26 20 33 3 2 -7 8 -10 12 -6 4 4 4 11 0 17 -7 12 -48 15 -58 4z"/>
<path d="M3830 4381 c-22 -43 -5 -81 36 -81 25 0 40 15 25 24 -5 4 -11 1 -13
-6 -6 -16 -38 -2 -38 17 0 10 10 15 30 15 31 0 39 17 18 38 -18 18 -46 14 -58
-7z m50 -6 c0 -8 -9 -15 -20 -15 -20 0 -26 11 -13 23 12 13 33 7 33 -8z"/>
<path d="M3931 4387 c-28 -28 -1 -97 34 -83 9 3 15 0 15 -10 0 -21 -27 -29
-48 -13 -15 13 -16 12 -3 -3 16 -21 42 -23 59 -6 7 7 12 37 12 68 0 56 -1 57
-29 58 -15 0 -33 -4 -40 -11z m44 -37 c0 -39 -19 -50 -35 -21 -8 15 -8 27 0
42 16 29 35 18 35 -21z"/>
<path d="M4020 4361 c0 -44 13 -59 53 -59 26 0 27 3 27 49 0 60 -18 65 -22 7
-2 -31 -8 -44 -20 -46 -15 -3 -18 4 -18 42 0 25 -4 46 -10 46 -5 0 -10 -17
-10 -39z"/>
<path d="M4120 4349 c0 -27 5 -49 10 -49 6 0 10 18 10 40 0 26 6 42 17 48 13
8 11 10 -10 10 -26 0 -27 -3 -27 -49z"/>
<path d="M4190 4385 c-14 -17 0 -21 17 -4 6 6 16 8 22 5 17 -11 13 -26 -8 -26
-24 0 -45 -25 -38 -45 4 -9 19 -14 42 -13 32 1 35 4 35 30 0 59 -40 89 -70 53z
m48 -52 c-5 -26 -38 -29 -38 -4 0 15 6 21 21 21 14 0 19 -5 17 -17z"/>
<path d="M5160 4348 c0 -59 18 -64 22 -6 2 31 8 44 21 46 14 3 17 -4 17 -42 0
-58 18 -61 22 -4 2 31 8 44 21 46 14 3 17 -4 17 -42 0 -25 5 -46 10 -46 17 0
12 76 -6 91 -12 10 -20 10 -35 1 -11 -7 -19 -8 -19 -2 0 5 -16 9 -35 8 -35 -1
-35 -1 -35 -50z"/>
<path d="M5430 4385 c-14 -17 0 -21 17 -4 6 6 16 8 22 5 17 -11 13 -26 -8 -26
-24 0 -45 -25 -38 -45 4 -9 19 -14 42 -13 32 1 35 4 35 30 0 59 -40 89 -70 53z
m48 -52 c-5 -26 -38 -29 -38 -4 0 15 6 21 21 21 14 0 19 -5 17 -17z"/>
<path d="M5570 4385 c-14 -17 0 -21 17 -4 6 6 16 8 22 5 17 -11 13 -26 -8 -26
-24 0 -45 -25 -38 -45 4 -9 19 -14 42 -13 32 1 35 4 35 30 0 59 -40 89 -70 53z
m48 -52 c-5 -26 -38 -29 -38 -4 0 15 6 21 21 21 14 0 19 -5 17 -17z"/>
<path d="M5671 4387 c-28 -28 -1 -97 34 -83 9 3 15 0 15 -10 0 -21 -27 -29
-48 -13 -15 13 -16 12 -3 -3 16 -21 42 -23 59 -6 7 7 12 37 12 68 0 56 -1 57
-29 58 -15 0 -33 -4 -40 -11z m44 -37 c0 -39 -19 -50 -35 -21 -8 15 -8 27 0
42 16 29 35 18 35 -21z"/>
<path d="M5770 4381 c-22 -43 -5 -81 36 -81 25 0 40 15 25 24 -5 4 -11 1 -13
-6 -6 -16 -38 -2 -38 17 0 10 10 15 30 15 31 0 39 17 18 38 -18 18 -46 14 -58
-7z m50 -6 c0 -8 -9 -15 -20 -15 -20 0 -26 11 -13 23 12 13 33 7 33 -8z"/>
<path d="M5860 4348 c0 -59 18 -64 22 -6 2 31 8 44 21 46 14 3 17 -4 17 -42 0
-58 18 -61 22 -4 2 31 8 44 21 46 14 3 17 -4 17 -42 0 -25 5 -46 10 -46 17 0
12 76 -6 91 -12 10 -20 10 -35 1 -11 -7 -19 -8 -19 -2 0 5 -16 9 -35 8 -35 -1
-35 -1 -35 -50z"/>
<path d="M6060 4348 c0 -59 18 -64 22 -6 2 31 8 44 21 46 14 3 17 -4 17 -42 0
-58 18 -61 22 -4 2 31 8 44 21 46 14 3 17 -4 17 -42 0 -25 5 -46 10 -46 17 0
12 76 -6 91 -12 10 -20 10 -35 1 -11 -7 -19 -8 -19 -2 0 5 -16 9 -35 8 -35 -1
-35 -1 -35 -50z"/>
<path d="M6230 4385 c-14 -17 0 -21 17 -4 6 6 16 8 22 5 17 -11 13 -26 -8 -26
-24 0 -45 -25 -38 -45 4 -9 19 -14 42 -13 32 1 35 4 35 30 0 59 -40 89 -70 53z
m48 -52 c-5 -26 -38 -29 -38 -4 0 15 6 21 21 21 14 0 19 -5 17 -17z"/>
<path d="M6320 4348 c0 -59 18 -64 22 -6 2 31 8 44 21 46 14 3 17 -4 17 -42 0
-25 5 -46 10 -46 12 0 13 69 2 87 -4 6 -22 11 -40 11 -32 -1 -32 -2 -32 -50z"/>
<path d="M6490 4381 c-22 -43 -5 -81 36 -81 25 0 40 15 25 24 -5 4 -11 1 -13
-6 -6 -16 -38 -2 -38 17 0 10 10 15 30 15 31 0 39 17 18 38 -18 18 -46 14 -58
-7z m50 -6 c0 -8 -9 -15 -20 -15 -20 0 -26 11 -13 23 12 13 33 7 33 -8z"/>
<path d="M6580 4348 c0 -59 18 -64 22 -6 2 31 8 44 21 46 14 3 17 -4 17 -42 0
-58 18 -61 22 -4 2 31 8 44 21 46 14 3 17 -4 17 -42 0 -25 5 -46 10 -46 17 0
12 76 -6 91 -12 10 -20 10 -35 1 -11 -7 -19 -8 -19 -2 0 5 -16 9 -35 8 -35 -1
-35 -1 -35 -50z"/>
<path d="M6791 4386 c-31 -37 9 -103 47 -80 36 23 23 94 -18 94 -10 0 -23 -6
-29 -14z m47 -8 c28 -28 -3 -83 -33 -58 -8 7 -15 20 -15 29 0 17 18 41 30 41
3 0 11 -5 18 -12z"/>
<path d="M6932 4388 c-7 -7 -12 -24 -12 -38 0 -46 43 -67 70 -35 8 9 9 15 2
15 -6 0 -14 -4 -17 -10 -20 -32 -53 10 -40 50 8 25 22 25 48 3 19 -17 20 -17
8 5 -13 24 -40 29 -59 10z"/>
<path d="M7020 4385 c-14 -17 0 -21 17 -4 6 6 16 8 22 5 17 -11 13 -26 -8 -26
-24 0 -45 -25 -38 -45 4 -9 19 -14 42 -13 32 1 35 4 35 30 0 59 -40 89 -70 53z
m48 -52 c-5 -26 -38 -29 -38 -4 0 15 6 21 21 21 14 0 19 -5 17 -17z"/>
<path d="M7180 4381 c-22 -43 -5 -81 36 -81 25 0 40 15 25 24 -5 4 -11 1 -13
-6 -6 -16 -38 -2 -38 17 0 10 10 15 30 15 31 0 39 17 18 38 -18 18 -46 14 -58
-7z m50 -6 c0 -8 -9 -15 -20 -15 -20 0 -26 11 -13 23 12 13 33 7 33 -8z"/>
<path d="M7310 4350 c0 -27 5 -50 10 -50 6 0 10 23 10 50 0 28 -4 50 -10 50
-5 0 -10 -22 -10 -50z"/>
<path d="M7350 4348 c0 -59 18 -64 22 -6 2 31 8 44 21 46 14 3 17 -4 17 -42 0
-25 5 -46 10 -46 12 0 13 69 2 87 -4 6 -22 11 -40 11 -32 -1 -32 -2 -32 -50z"/>
<path d="M7520 4385 c-14 -17 0 -21 17 -4 6 6 16 8 22 5 17 -11 13 -26 -8 -26
-24 0 -45 -25 -38 -45 4 -9 19 -14 42 -13 32 1 35 4 35 30 0 59 -40 89 -70 53z
m48 -52 c-5 -26 -38 -29 -38 -4 0 15 6 21 21 21 14 0 19 -5 17 -17z"/>
<path d="M7622 4388 c-7 -7 -12 -24 -12 -38 0 -46 43 -67 70 -35 8 9 9 15 2
15 -6 0 -14 -4 -17 -10 -20 -32 -53 10 -40 50 8 25 22 25 48 3 19 -17 20 -17
8 5 -13 24 -40 29 -59 10z"/>
<path d="M7771 4386 c-31 -37 9 -103 47 -80 36 23 23 94 -18 94 -10 0 -23 -6
-29 -14z m47 -8 c28 -28 -3 -83 -33 -58 -8 7 -15 20 -15 29 0 17 18 41 30 41
3 0 11 -5 18 -12z"/>
<path d="M11381 4361 c-26 -26 -26 -63 -2 -118 21 -45 45 -63 84 -63 33 0 40
23 22 76 -8 25 -15 51 -15 59 0 8 -4 15 -9 15 -5 0 -11 10 -13 23 -4 30 -41
34 -67 8z m45 -37 c-8 -20 22 -84 40 -84 21 0 28 -21 11 -37 -22 -22 -34 -10
-51 51 -14 48 -14 86 1 86 3 0 2 -7 -1 -16z"/>
<path d="M13113 4184 c-13 -34 35 -70 60 -45 7 7 5 18 -7 35 -19 30 -44 34
-53 10z"/>
<path d="M13447 4124 c-13 -13 -7 -42 10 -48 23 -9 40 10 27 31 -12 20 -27 26
-37 17z"/>
<path d="M13618 4015 c-5 -23 12 -51 24 -40 7 7 -2 54 -12 60 -4 3 -10 -6 -12
-20z"/>
<path d="M4693 3959 c-74 -22 -133 -119 -118 -192 43 -204 339 -179 339 28 0
115 -112 197 -221 164z m27 -108 c0 -16 8 -20 46 -23 58 -4 81 -30 49 -54 -11
-8 -19 -22 -17 -30 2 -11 -11 -14 -62 -14 -55 0 -65 3 -65 18 0 9 -3 32 -7 50
-6 29 -4 32 19 32 20 0 24 4 20 20 -3 11 0 20 6 20 6 0 11 -9 11 -19z m17 -3
c-3 -8 -6 -5 -6 6 -1 11 2 17 5 13 3 -3 4 -12 1 -19z m28 13 c3 -5 1 -12 -5
-16 -5 -3 -10 1 -10 9 0 18 6 21 15 7z"/>
<path d="M3006 3855 c-3 -8 -2 -15 3 -15 5 0 14 7 21 15 10 12 10 15 -3 15 -8
0 -17 -7 -21 -15z"/>
<path d="M3170 3860 c0 -5 5 -10 10 -10 6 0 10 5 10 10 0 6 -4 10 -10 10 -5 0
-10 -4 -10 -10z"/>
<path d="M3270 3845 c0 -18 -4 -23 -15 -19 -22 9 -45 -14 -45 -46 0 -33 16
-48 53 -48 27 0 27 1 27 69 0 39 -4 69 -10 69 -5 0 -10 -11 -10 -25z m-5 -65
c0 -39 -19 -50 -35 -21 -8 15 -8 27 0 42 16 29 35 18 35 -21z"/>
<path d="M4220 3845 c0 -18 -4 -23 -15 -19 -22 9 -45 -14 -45 -46 0 -33 16
-48 53 -48 27 0 27 1 27 69 0 39 -4 69 -10 69 -5 0 -10 -11 -10 -25z m-5 -65
c0 -39 -19 -50 -35 -21 -8 15 -8 27 0 42 16 29 35 18 35 -21z"/>
<path d="M5423 3853 c-4 -10 -11 -21 -17 -25 -7 -5 -7 -8 2 -8 8 0 12 -16 12
-45 0 -25 5 -45 10 -45 6 0 10 20 10 44 0 26 5 46 13 49 10 4 10 6 0 6 -7 1
-13 7 -13 15 0 8 6 17 13 19 7 3 5 6 -6 6 -10 1 -21 -7 -24 -16z"/>
<path d="M5506 3855 c-3 -8 -2 -15 3 -15 5 0 14 7 21 15 10 12 10 15 -3 15 -8
0 -17 -7 -21 -15z"/>
<path d="M5700 3800 c0 -76 17 -97 22 -28 2 31 8 44 21 46 14 3 17 -4 17 -42
0 -25 5 -46 10 -46 12 0 13 70 1 89 -5 8 -18 12 -30 8 -17 -4 -21 -1 -21 19 0
13 -4 24 -10 24 -6 0 -10 -30 -10 -70z"/>
<path d="M6153 3853 c-4 -10 -11 -21 -17 -25 -7 -5 -7 -8 2 -8 8 0 12 -16 12
-45 0 -25 5 -45 10 -45 6 0 10 20 10 44 0 26 5 46 13 49 10 4 10 6 0 6 -7 1
-13 7 -13 15 0 8 6 17 13 19 7 3 5 6 -6 6 -10 1 -21 -7 -24 -16z"/>
<path d="M6650 3860 c0 -5 5 -10 10 -10 6 0 10 5 10 10 0 6 -4 10 -10 10 -5 0
-10 -4 -10 -10z"/>
<path d="M6790 3800 c0 -76 17 -97 22 -28 2 31 8 44 21 46 14 3 17 -4 17 -42
0 -25 5 -46 10 -46 12 0 13 70 1 89 -5 8 -18 12 -30 8 -17 -4 -21 -1 -21 19 0
13 -4 24 -10 24 -6 0 -10 -30 -10 -70z"/>
<path d="M7226 3855 c-3 -8 -2 -15 3 -15 5 0 14 7 21 15 10 12 10 15 -3 15 -8
0 -17 -7 -21 -15z"/>
<path d="M7631 3857 c-8 -11 -5 -14 19 -14 24 0 27 3 19 14 -6 7 -15 13 -19
13 -4 0 -13 -6 -19 -13z"/>
<path d="M2250 3795 l0 -65 48 2 c43 1 44 2 10 5 -32 4 -38 8 -38 28 0 19 6
24 33 28 l32 4 -32 1 c-28 2 -33 6 -33 26 0 21 5 25 38 29 34 3 33 4 -10 5
l-48 2 0 -65z"/>
<path d="M5077 3842 c-42 -46 -3 -125 51 -106 23 8 27 16 30 54 3 33 -1 47
-14 57 -25 18 -48 16 -67 -5z m65 -17 c22 -48 -27 -115 -53 -73 -10 15 -12 60
-3 82 9 25 43 19 56 -9z"/>
<path d="M2452 3835 c-7 -8 -8 -15 -3 -15 5 0 11 -19 13 -42 4 -62 23 -58 21
4 -1 29 -2 56 -2 61 -1 11 -15 8 -29 -8z"/>
<path d="M3842 3835 c-7 -8 -8 -15 -3 -15 5 0 11 -19 13 -42 4 -62 23 -58 21
4 -1 29 -2 56 -2 61 -1 11 -15 8 -29 -8z"/>
<path d="M7132 3835 c-7 -8 -8 -15 -3 -15 5 0 11 -19 13 -42 4 -62 23 -58 21
4 -1 29 -2 56 -2 61 -1 11 -15 8 -29 -8z"/>
<path d="M2350 3778 c0 -59 18 -64 22 -6 2 31 8 44 21 46 14 3 17 -4 17 -42 0
-25 5 -46 10 -46 12 0 13 69 2 87 -4 6 -22 11 -40 11 -32 -1 -32 -2 -32 -50z"/>
<path d="M2510 3779 c0 -27 5 -49 10 -49 6 0 10 18 10 40 0 26 6 42 17 48 13
8 11 10 -10 10 -26 0 -27 -3 -27 -49z"/>
<path d="M2580 3811 c-22 -43 -5 -81 36 -81 25 0 40 15 25 24 -5 4 -11 1 -13
-6 -6 -16 -38 -2 -38 17 0 10 10 15 30 15 31 0 39 17 18 38 -18 18 -46 14 -58
-7z m50 -6 c0 -8 -9 -15 -20 -15 -20 0 -26 11 -13 23 12 13 33 7 33 -8z"/>
<path d="M2681 3817 c-28 -28 -1 -97 34 -83 9 3 15 0 15 -10 0 -21 -27 -29
-48 -13 -15 13 -16 12 -3 -3 16 -21 42 -23 59 -6 7 7 12 37 12 68 0 56 -1 57
-29 58 -15 0 -33 -4 -40 -11z m44 -37 c0 -39 -19 -50 -35 -21 -8 15 -8 27 0
42 16 29 35 18 35 -21z"/>
<path d="M2780 3815 c-14 -17 0 -21 17 -4 6 6 16 8 22 5 17 -11 13 -26 -8 -26
-24 0 -45 -25 -38 -45 4 -9 19 -14 42 -13 32 1 35 4 35 30 0 59 -40 89 -70 53z
m48 -52 c-5 -26 -38 -29 -38 -4 0 15 6 21 21 21 14 0 19 -5 17 -17z"/>
<path d="M2910 3779 c0 -27 5 -49 10 -49 6 0 10 18 10 40 0 26 6 42 17 48 13
8 11 10 -10 10 -26 0 -27 -3 -27 -49z"/>
<path d="M2980 3815 c-14 -17 0 -21 17 -4 6 6 16 8 22 5 17 -11 13 -26 -8 -26
-24 0 -45 -25 -38 -45 4 -9 19 -14 42 -13 32 1 35 4 35 30 0 59 -40 89 -70 53z
m48 -52 c-5 -26 -38 -29 -38 -4 0 15 6 21 21 21 14 0 19 -5 17 -17z"/>
<path d="M3070 3759 c0 -39 4 -69 10 -69 6 0 10 11 10 25 0 18 4 23 15 19 22
-9 45 14 45 46 0 33 -16 48 -52 48 -28 0 -28 -1 -28 -69z m60 41 c8 -14 8 -26
0 -41 -14 -25 -34 -20 -38 10 -7 47 18 68 38 31z"/>
<path d="M3170 3780 c0 -27 5 -50 10 -50 6 0 10 23 10 50 0 28 -4 50 -10 50
-5 0 -10 -22 -10 -50z"/>
<path d="M3320 3815 c-14 -17 0 -21 17 -4 6 6 16 8 22 5 17 -11 13 -26 -8 -26
-24 0 -45 -25 -38 -45 4 -9 19 -14 42 -13 32 1 35 4 35 30 0 59 -40 89 -70 53z
m48 -52 c-5 -26 -38 -29 -38 -4 0 15 6 21 21 21 14 0 19 -5 17 -17z"/>
<path d="M3460 3811 c-22 -43 -5 -81 36 -81 25 0 40 15 25 24 -5 4 -11 1 -13
-6 -6 -16 -38 -2 -38 17 0 10 10 15 30 15 31 0 39 17 18 38 -18 18 -46 14 -58
-7z m50 -6 c0 -8 -9 -15 -20 -15 -20 0 -26 11 -13 23 12 13 33 7 33 -8z"/>
<path d="M3590 3779 c0 -27 5 -49 10 -49 6 0 10 18 10 40 0 26 6 42 17 48 13
8 11 10 -10 10 -26 0 -27 -3 -27 -49z"/>
<path d="M3660 3815 c-14 -17 0 -21 17 -4 6 6 16 8 22 5 17 -11 13 -26 -8 -26
-24 0 -45 -25 -38 -45 4 -9 19 -14 42 -13 32 1 35 4 35 30 0 59 -40 89 -70 53z
m48 -52 c-5 -26 -38 -29 -38 -4 0 15 6 21 21 21 14 0 19 -5 17 -17z"/>
<path d="M3757 3823 c-15 -14 -5 -33 24 -49 23 -12 28 -19 20 -27 -9 -9 -17
-8 -32 2 -18 10 -20 10 -17 -1 3 -7 18 -13 34 -13 39 0 46 31 10 45 -14 5 -26
16 -26 25 0 18 26 20 33 3 2 -7 8 -10 12 -6 4 4 4 11 0 17 -7 12 -48 15 -58 4z"/>
<path d="M3900 3779 c0 -27 5 -49 10 -49 6 0 10 18 10 40 0 26 6 42 17 48 13
8 11 10 -10 10 -26 0 -27 -3 -27 -49z"/>
<path d="M3970 3811 c-22 -43 -5 -81 36 -81 25 0 40 15 25 24 -5 4 -11 1 -13
-6 -6 -16 -38 -2 -38 17 0 10 10 15 30 15 31 0 39 17 18 38 -18 18 -46 14 -58
-7z m50 -6 c0 -8 -9 -15 -20 -15 -20 0 -26 11 -13 23 12 13 33 7 33 -8z"/>
<path d="M4070 3815 c-14 -17 0 -21 17 -4 6 6 16 8 22 5 17 -11 13 -26 -8 -26
-24 0 -45 -25 -38 -45 4 -9 19 -14 42 -13 32 1 35 4 35 30 0 59 -40 89 -70 53z
m48 -52 c-5 -26 -38 -29 -38 -4 0 15 6 21 21 21 14 0 19 -5 17 -17z"/>
<path d="M4270 3815 c-14 -17 0 -21 17 -4 6 6 16 8 22 5 17 -11 13 -26 -8 -26
-24 0 -45 -25 -38 -45 4 -9 19 -14 42 -13 32 1 35 4 35 30 0 59 -40 89 -70 53z
m48 -52 c-5 -26 -38 -29 -38 -4 0 15 6 21 21 21 14 0 19 -5 17 -17z"/>
<path d="M5232 3818 c-7 -7 -12 -24 -12 -38 0 -46 43 -67 70 -35 8 9 9 15 2
15 -6 0 -14 -4 -17 -10 -20 -32 -53 10 -40 50 8 25 22 25 48 3 19 -17 20 -17
8 5 -13 24 -40 29 -59 10z"/>
<path d="M5320 3815 c-14 -17 0 -21 17 -4 6 6 16 8 22 5 17 -11 13 -26 -8 -26
-24 0 -45 -25 -38 -45 4 -9 19 -14 42 -13 32 1 35 4 35 30 0 59 -40 89 -70 53z
m48 -52 c-5 -26 -38 -29 -38 -4 0 15 6 21 21 21 14 0 19 -5 17 -17z"/>
<path d="M5480 3811 c-22 -43 -5 -81 36 -81 25 0 40 15 25 24 -5 4 -11 1 -13
-6 -6 -16 -38 -2 -38 17 0 10 10 15 30 15 31 0 39 17 18 38 -18 18 -46 14 -58
-7z m50 -6 c0 -8 -9 -15 -20 -15 -20 0 -26 11 -13 23 12 13 33 7 33 -8z"/>
<path d="M5622 3818 c-7 -7 -12 -24 -12 -38 0 -46 43 -67 70 -35 8 9 9 15 2
15 -6 0 -14 -4 -17 -10 -20 -32 -53 10 -40 50 8 25 22 25 48 3 19 -17 20 -17
8 5 -13 24 -40 29 -59 10z"/>
<path d="M5810 3811 c-22 -43 -5 -81 36 -81 25 0 40 15 25 24 -5 4 -11 1 -13
-6 -6 -16 -38 -2 -38 17 0 10 10 15 30 15 31 0 39 17 18 38 -18 18 -46 14 -58
-7z m50 -6 c0 -8 -9 -15 -20 -15 -20 0 -26 11 -13 23 12 13 33 7 33 -8z"/>
<path d="M5911 3817 c-28 -28 -1 -97 34 -83 9 3 15 0 15 -10 0 -21 -27 -29
-48 -13 -15 13 -16 12 -3 -3 16 -21 42 -23 59 -6 7 7 12 37 12 68 0 56 -1 57
-29 58 -15 0 -33 -4 -40 -11z m44 -37 c0 -39 -19 -50 -35 -21 -8 15 -8 27 0
42 16 29 35 18 35 -21z"/>
<path d="M6010 3815 c-14 -17 0 -21 17 -4 6 6 16 8 22 5 17 -11 13 -26 -8 -26
-24 0 -45 -25 -38 -45 4 -9 19 -14 42 -13 32 1 35 4 35 30 0 59 -40 89 -70 53z
m48 -52 c-5 -26 -38 -29 -38 -4 0 15 6 21 21 21 14 0 19 -5 17 -17z"/>
<path d="M6200 3779 c0 -27 5 -49 10 -49 6 0 10 18 10 40 0 26 6 42 17 48 13
8 11 10 -10 10 -26 0 -27 -3 -27 -49z"/>
<path d="M6270 3811 c-22 -43 -5 -81 36 -81 25 0 40 15 25 24 -5 4 -11 1 -13
-6 -6 -16 -38 -2 -38 17 0 10 10 15 30 15 31 0 39 17 18 38 -18 18 -46 14 -58
-7z m50 -6 c0 -8 -9 -15 -20 -15 -20 0 -26 11 -13 23 12 13 33 7 33 -8z"/>
<path d="M6367 3823 c-15 -14 -5 -33 24 -49 23 -12 28 -19 20 -27 -9 -9 -17
-8 -32 2 -18 10 -20 10 -17 -1 3 -7 18 -13 34 -13 39 0 46 31 10 45 -14 5 -26
16 -26 25 0 18 26 20 33 3 2 -7 8 -10 12 -6 4 4 4 11 0 17 -7 12 -48 15 -58 4z"/>
<path d="M6461 3817 c-28 -28 -1 -97 34 -83 11 4 15 -1 15 -19 0 -14 5 -25 10
-25 6 0 10 29 10 68 l0 69 -29 1 c-15 0 -33 -4 -40 -11z m47 -31 c4 -36 -12
-54 -33 -36 -18 15 -20 41 -3 58 18 18 33 9 36 -22z"/>
<path d="M6550 3791 c0 -44 13 -59 53 -59 26 0 27 3 27 49 0 60 -18 65 -22 7
-2 -31 -8 -44 -20 -46 -15 -3 -18 4 -18 42 0 25 -4 46 -10 46 -5 0 -10 -17
-10 -39z"/>
<path d="M6650 3780 c0 -27 5 -50 10 -50 6 0 10 23 10 50 0 28 -4 50 -10 50
-5 0 -10 -22 -10 -50z"/>
<path d="M6690 3778 c0 -59 18 -64 22 -6 2 31 8 44 21 46 14 3 17 -4 17 -42 0
-25 5 -46 10 -46 12 0 13 69 2 87 -4 6 -22 11 -40 11 -32 -1 -32 -2 -32 -50z"/>
<path d="M6901 3816 c-31 -37 9 -103 47 -80 36 23 23 94 -18 94 -10 0 -23 -6
-29 -14z m47 -8 c28 -28 -3 -83 -33 -58 -8 7 -15 20 -15 29 0 17 18 41 30 41
3 0 11 -5 18 -12z"/>
<path d="M7040 3815 c-14 -17 0 -21 17 -4 6 6 16 8 22 5 17 -11 13 -26 -8 -26
-24 0 -45 -25 -38 -45 4 -9 19 -14 42 -13 32 1 35 4 35 30 0 59 -40 89 -70 53z
m48 -52 c-5 -26 -38 -29 -38 -4 0 15 6 21 21 21 14 0 19 -5 17 -17z"/>
<path d="M7200 3811 c-22 -43 -5 -81 36 -81 25 0 40 15 25 24 -5 4 -11 1 -13
-6 -6 -16 -38 -2 -38 17 0 10 10 15 30 15 31 0 39 17 18 38 -18 18 -46 14 -58
-7z m50 -6 c0 -8 -9 -15 -20 -15 -20 0 -26 11 -13 23 12 13 33 7 33 -8z"/>
<path d="M7339 3785 c10 -25 22 -45 27 -44 5 1 17 22 26 46 11 29 13 43 5 40
-7 -2 -17 -21 -22 -41 l-11 -38 -9 38 c-6 20 -15 39 -22 41 -7 3 -6 -12 6 -42z"/>
<path d="M7431 3816 c-31 -37 9 -103 47 -80 36 23 23 94 -18 94 -10 0 -23 -6
-29 -14z m47 -8 c28 -28 -3 -83 -33 -58 -8 7 -15 20 -15 29 0 17 18 41 30 41
3 0 11 -5 18 -12z"/>
<path d="M7532 3818 c-7 -7 -12 -24 -12 -38 0 -46 43 -67 70 -35 8 9 9 15 2
15 -6 0 -14 -4 -17 -10 -20 -32 -53 10 -40 50 8 25 22 25 48 3 19 -17 20 -17
8 5 -13 24 -40 29 -59 10z"/>
<path d="M7620 3811 c-22 -43 -5 -81 36 -81 25 0 40 15 25 24 -5 4 -11 1 -13
-6 -6 -16 -38 -2 -38 17 0 10 10 15 30 15 31 0 39 17 18 38 -18 18 -46 14 -58
-7z m50 -6 c0 -8 -9 -15 -20 -15 -20 0 -26 11 -13 23 12 13 33 7 33 -8z"/>
<path d="M3588 1915 c-20 -27 -23 -45 -8 -45 6 0 10 -4 10 -10 0 -5 -9 -10
-19 -10 -25 0 -61 -45 -61 -76 0 -43 19 -75 55 -90 46 -19 99 -7 103 24 3 19
0 20 -32 15 -44 -7 -78 3 -56 17 8 6 27 10 42 10 40 0 58 10 58 32 0 32 -18
55 -52 68 l-33 11 29 24 c19 15 27 29 23 39 -9 23 -39 19 -59 -9z m32 -114 c0
-9 -41 -23 -48 -16 -2 2 -1 8 3 14 8 13 45 15 45 2z"/>
<path d="M3415 1908 c-32 -18 -35 -28 -35 -130 l0 -98 30 0 c30 0 30 1 30 54
0 52 1 55 28 58 19 2 27 9 27 23 0 14 -8 21 -27 23 -39 5 -37 32 1 32 37 0 50
19 26 37 -23 16 -53 16 -80 1z"/>
<path d="M1797 1887 c-15 -10 -17 -27 -15 -107 l3 -95 28 -3 27 -3 0 67 0 67
33 -64 c28 -57 36 -64 65 -67 l33 -3 -3 108 c-3 100 -4 108 -23 108 -18 0 -20
-8 -23 -69 l-3 -69 -29 61 c-15 33 -37 65 -49 71 -25 14 -24 14 -44 -2z"/>
<path d="M2063 1845 c-108 -46 -37 -206 74 -164 37 14 52 38 53 85 0 67 -62
107 -127 79z m65 -78 c2 -27 -1 -39 -13 -43 -35 -14 -61 46 -33 74 23 23 43 9
46 -31z"/>
<path d="M2272 1853 c-12 -2 -30 -15 -38 -29 -15 -22 -15 -26 0 -48 8 -13 29
-27 46 -31 45 -10 38 -29 -9 -21 -29 4 -40 2 -44 -8 -9 -23 23 -41 69 -40 52
1 74 17 74 55 0 21 -7 32 -30 44 -16 8 -36 15 -45 15 -8 0 -15 5 -15 11 0 8
14 10 40 6 35 -4 40 -3 40 14 0 17 -38 42 -58 38 -4 -1 -17 -4 -30 -6z"/>
<path d="M2442 1853 c-12 -2 -30 -15 -38 -29 -15 -22 -15 -26 0 -48 8 -13 29
-27 46 -31 45 -10 38 -29 -9 -21 -29 4 -40 2 -44 -8 -9 -23 23 -41 69 -40 52
1 74 17 74 55 0 21 -7 32 -30 44 -16 8 -36 15 -45 15 -8 0 -15 5 -15 11 0 8
14 10 40 6 35 -4 40 -3 40 14 0 17 -38 42 -58 38 -4 -1 -17 -4 -30 -6z"/>
<path d="M2613 1845 c-108 -46 -37 -206 74 -164 37 14 52 38 53 85 0 67 -62
107 -127 79z m65 -78 c2 -27 -1 -39 -13 -43 -35 -14 -61 46 -33 74 23 23 43 9
46 -31z"/>
<path d="M2822 1853 c-12 -2 -30 -15 -38 -29 -15 -22 -15 -26 0 -48 8 -13 29
-27 46 -31 45 -10 38 -29 -9 -21 -29 4 -40 2 -44 -8 -9 -23 23 -41 69 -40 52
1 74 17 74 55 0 21 -7 32 -30 44 -16 8 -36 15 -45 15 -8 0 -15 5 -15 11 0 8
14 10 40 6 35 -4 40 -3 40 14 0 17 -38 42 -58 38 -4 -1 -17 -4 -30 -6z"/>
<path d="M3073 1848 c-57 -15 -82 -86 -48 -135 20 -28 78 -45 112 -32 32 12
28 45 -6 42 -34 -4 -61 15 -61 42 0 28 31 49 60 40 21 -7 33 6 24 28 -7 19
-41 25 -81 15z"/>
<path d="M3225 1851 c-21 -4 -30 -12 -30 -26 0 -17 6 -19 43 -17 54 4 55 -12
1 -24 -48 -10 -65 -30 -55 -67 10 -42 101 -58 144 -24 18 14 16 122 -4 141 -8
9 -21 16 -29 16 -7 0 -19 2 -27 4 -7 2 -26 1 -43 -3z m55 -116 c0 -8 -9 -15
-20 -15 -20 0 -26 11 -13 23 12 13 33 7 33 -8z"/>
<path d="M3752 1853 c-12 -2 -30 -15 -38 -29 -15 -22 -15 -26 0 -48 8 -13 29
-27 46 -31 45 -10 38 -29 -9 -21 -29 4 -40 2 -44 -8 -9 -23 23 -41 69 -40 52
1 74 17 74 55 0 21 -7 32 -30 44 -16 8 -36 15 -45 15 -8 0 -15 5 -15 11 0 8
14 10 40 6 35 -4 40 -3 40 14 0 17 -38 42 -58 38 -4 -1 -17 -4 -30 -6z"/>
<path d="M12550 874 c-105 -28 -181 -91 -224 -183 -17 -38 -21 -65 -21 -156 0
-100 3 -115 28 -166 34 -70 109 -142 185 -177 49 -23 70 -27 147 -27 82 0 97
3 157 33 79 39 130 92 171 179 56 121 36 282 -48 380 -94 110 -250 156 -395
117z m439 -289 c0 -5 -4 -3 -9 5 -5 8 -9 22 -9 30 0 16 17 -16 18 -35z m-2
-87 c-3 -8 -6 -5 -6 6 -1 11 2 17 5 13 3 -3 4 -12 1 -19z m0 -40 c-3 -8 -6 -5
-6 6 -1 11 2 17 5 13 3 -3 4 -12 1 -19z m-25 -70 c-7 -7 -12 -19 -12 -27 -1
-18 -67 -88 -75 -79 -3 3 9 20 25 39 17 19 35 44 40 57 5 12 15 22 22 22 9 0
9 -3 0 -12z m-192 -148 c-8 -5 -19 -10 -25 -10 -5 0 -3 5 5 10 8 5 20 10 25
10 6 0 3 -5 -5 -10z"/>
<path d="M6289 830 c-98 -16 -187 -84 -235 -177 -60 -120 -28 -278 76 -365 50
-41 136 -70 209 -69 44 0 134 26 159 46 82 65 120 135 129 238 18 206 -140
359 -338 327z m-164 -136 c-19 -26 -35 -51 -35 -57 0 -6 -3 -7 -6 -4 -7 7 18
50 49 85 34 37 30 25 -8 -24z m455 -171 c0 -67 -18 -110 -63 -155 -64 -64
-199 -111 -213 -75 -8 23 7 46 99 150 45 52 97 111 116 132 32 38 34 38 47 20
8 -10 14 -42 14 -72z"/>
<path d="M3078 795 c-66 -25 -122 -71 -157 -129 -28 -47 -33 -66 -35 -121 -1
-49 3 -68 14 -75 13 -9 13 -10 0 -10 -12 -1 -11 -3 3 -11 9 -5 17 -19 17 -29
0 -10 5 -22 10 -25 6 -3 10 -15 10 -26 0 -12 5 -19 13 -16 6 2 29 -11 51 -30
70 -63 150 -79 250 -49 94 29 154 95 177 194 5 25 15 52 21 59 26 31 -15 145
-73 201 -72 70 -212 102 -301 67z"/>
<path d="M9530 758 l25 -11 -35 -8 c-28 -7 -97 -5 -129 4 -15 4 -83 -38 -100
-62 -25 -36 -35 -71 -20 -71 6 0 17 -8 24 -17 12 -16 16 -15 50 12 56 46 78
55 144 61 56 6 66 4 128 -28 38 -20 83 -39 101 -43 l33 -7 -16 39 c-25 59 -40
78 -91 112 -37 24 -58 31 -93 30 -42 0 -44 -1 -21 -11z"/>
<path d="M3020 269 c0 -5 5 -7 10 -4 6 3 10 8 10 11 0 2 -4 4 -10 4 -5 0 -10
-5 -10 -11z"/>
<path d="M6569 192 c-31 -20 -65 -43 -75 -49 -16 -10 -14 -11 10 -2 28 9 126
76 126 85 0 6 1 6 -61 -34z"/>
<path d="M12945 220 c-3 -5 -39 -28 -78 -50 -77 -43 -84 -53 -14 -20 41 20
120 79 105 80 -4 0 -10 -4 -13 -10z"/>
</g>
</svg>
