<?xml version="1.0" standalone="no"?>
<!DOCTYPE svg PUBLIC "-//W3C//DTD SVG 20010904//EN"
 "http://www.w3.org/TR/2001/REC-SVG-20010904/DTD/svg10.dtd">
<svg version="1.0" xmlns="http://www.w3.org/2000/svg"
 width="1885.000000pt" height="930.000000pt" viewBox="0 0 1885.000000 930.000000"
 preserveAspectRatio="xMidYMid meet">

<g transform="translate(0.000000,930.000000) scale(0.100000,-0.100000)"
fill="#000000" stroke="none">
<path d="M0 8060 l0 -1240 1440 0 1440 0 0 -150 0 -150 -1440 0 -1440 0 0
-3260 0 -3260 9425 0 9425 0 0 4500 0 4501 -21 -11 c-11 -6 -24 -21 -29 -33
-6 -16 -9 -17 -9 -5 -1 9 12 28 29 41 l30 26 0 140 0 141 -9425 0 -9425 0 0
-1240z m450 946 c0 -7 -9 -16 -20 -19 -15 -4 -20 0 -20 14 0 12 7 19 20 19 11
0 20 -6 20 -14z m6195 -71 l0 -70 -70 0 -70 0 -3 59 c-4 86 -3 87 75 84 l68
-3 0 -70z m-1415 61 c0 -2 -8 -10 -17 -17 -16 -13 -17 -12 -4 4 13 16 21 21
21 13z m71 -13 c13 -16 12 -17 -3 -4 -10 7 -18 15 -18 17 0 8 8 3 21 -13z
m329 13 c0 -2 -8 -10 -17 -17 -16 -13 -17 -12 -4 4 13 16 21 21 21 13z m71
-13 c13 -16 12 -17 -3 -4 -10 7 -18 15 -18 17 0 8 8 3 21 -13z m319 2 c-14
-17 -30 -20 -30 -4 0 5 4 8 9 4 5 -3 12 -1 16 5 3 5 9 10 12 10 3 0 0 -7 -7
-15z m923 8 c-15 -3 -23 -12 -24 -26 0 -12 -3 -16 -6 -9 -9 22 5 42 29 41 l23
-2 -22 -4z m70 0 c-15 -3 -23 -12 -24 -26 0 -12 -3 -16 -6 -9 -9 22 5 42 29
41 l23 -2 -22 -4z m395 0 c-15 -2 -42 -2 -60 0 -18 2 -6 4 27 4 33 0 48 -2 33
-4z m10569 0 c-4 -3 1 -16 10 -27 18 -21 18 -21 -3 -3 -11 9 -24 14 -27 10 -4
-3 -7 1 -7 10 0 10 8 17 17 17 9 0 13 -3 10 -7z m103 -10 c0 -9 -3 -13 -7 -10
-3 4 -13 1 -22 -6 -14 -10 -14 -10 -4 4 7 9 10 19 6 22 -3 4 1 7 10 7 10 0 17
-7 17 -17z m400 0 c0 -9 -3 -13 -7 -10 -3 4 -18 -3 -32 -15 l-25 -23 25 32
c27 36 39 41 39 16z m-13555 -23 c9 -16 12 -30 7 -30 -4 0 -13 14 -19 30 -6
17 -10 30 -7 30 2 0 10 -13 19 -30z m-4521 4 c21 -20 21 -54 0 -54 -9 0 -23 8
-30 18 -12 15 -13 15 -14 1 0 -9 11 -21 25 -27 14 -7 30 -23 37 -37 26 -56
-73 -94 -108 -40 -17 26 -12 45 13 45 15 0 14 2 0 18 -22 24 -22 68 1 81 25
15 58 13 76 -5z m2746 6 c0 -5 -8 -10 -19 -10 -10 0 -24 -7 -32 -16 -16 -20
-1 -48 30 -52 29 -5 27 -22 -3 -22 -25 0 -56 32 -56 57 0 20 38 53 60 53 11 0
20 -4 20 -10z m914 -6 c35 -35 6 -94 -46 -94 -27 0 -28 1 -28 55 0 54 0 55 29
55 16 0 37 -7 45 -16z m1202 -30 c-7 -7 -14 -8 -22 0 -7 7 -8 14 0 22 7 7 14
8 22 0 7 -7 8 -14 0 -22z m2142 -11 l-1 -48 -4 42 c-4 41 -5 42 -46 46 l-42 4
48 1 47 2 -2 -47z m-6741 29 c19 -12 1 -27 -34 -27 -41 0 -40 -17 0 -30 39
-13 56 -39 41 -62 -14 -23 -105 -26 -112 -4 -4 11 3 12 29 8 32 -6 70 5 58 17
-3 3 -23 11 -44 18 -70 23 -55 88 19 88 17 0 36 -4 43 -8z m493 -17 c0 -21 4
-24 23 -20 30 8 60 -16 60 -48 0 -41 -20 -57 -69 -57 l-44 0 0 75 c0 60 3 75
15 75 9 0 15 -9 15 -25z m390 -17 l0 -41 23 21 c24 23 47 29 47 13 0 -5 -7
-14 -15 -21 -8 -7 -15 -18 -15 -25 0 -7 7 -18 15 -25 21 -17 19 -30 -4 -30
-11 0 -27 10 -35 22 l-16 22 0 -22 c0 -15 -6 -22 -20 -22 -18 0 -20 7 -20 75
0 68 2 75 20 75 17 0 20 -7 20 -42z m3767 20 c-3 -8 -6 -5 -6 6 -1 11 2 17 5
13 3 -3 4 -12 1 -19z m400 0 c-3 -8 -6 -5 -6 6 -1 11 2 17 5 13 3 -3 4 -12 1
-19z m-4964 -8 c19 -23 22 -40 7 -40 -5 0 -10 -13 -10 -30 0 -16 5 -30 10 -30
6 0 10 -4 10 -10 0 -5 -11 -10 -24 -10 -25 0 -36 16 -36 56 0 13 -4 24 -10 24
-5 0 -10 7 -10 15 0 8 5 15 10 15 6 0 10 7 10 15 0 21 22 19 43 -5z m2485 -21
c3 -34 1 -36 -27 -37 -17 0 -33 3 -36 8 -10 16 7 40 29 41 20 2 20 2 -1 6 -33
6 -28 25 5 21 23 -3 27 -8 30 -39z m94 28 c11 -18 10 -67 -2 -67 -5 0 -10 14
-10 31 0 41 -32 36 -41 -6 -6 -28 -7 -27 -8 10 -1 37 1 40 26 42 16 0 31 -4
35 -10z m52 -19 l14 -33 7 33 c4 17 11 32 16 32 12 0 11 -5 -5 -45 -18 -43
-31 -44 -45 -4 -20 57 -10 69 13 17z m124 -9 c3 -34 1 -36 -27 -37 -17 0 -33
3 -36 8 -10 16 7 40 29 41 20 2 20 2 -1 6 -33 6 -28 25 5 21 23 -3 27 -8 30
-39z m72 31 c0 -5 -8 -10 -17 -10 -16 -1 -15 -2 2 -12 29 -16 29 -16 15 -33
-14 -17 -50 -21 -50 -5 0 6 9 10 21 10 21 0 21 0 -1 18 -13 11 -20 24 -16 30
9 15 46 16 46 2z m590 -5 c26 -32 -13 -81 -47 -59 -35 22 -23 74 17 74 10 0
23 -7 30 -15z m90 5 c0 -5 -9 -10 -20 -10 -13 0 -20 -7 -20 -20 0 -13 7 -20
20 -20 11 0 20 -4 20 -10 0 -11 -20 -13 -44 -4 -19 7 -21 45 -4 62 15 15 48
16 48 2z m70 0 c0 -5 -8 -10 -17 -10 -15 0 -15 -1 2 -14 23 -16 14 -46 -15
-46 -11 0 -20 5 -20 10 0 6 8 10 17 10 15 0 15 1 -2 14 -23 16 -14 46 15 46
11 0 20 -4 20 -10z m1343 3 c-7 -2 -21 -2 -30 0 -10 3 -4 5 12 5 17 0 24 -2
18 -5z m13167 -21 c0 -15 -2 -15 -10 -2 -13 20 -13 33 0 25 6 -3 10 -14 10
-23z m-14016 -32 c10 -13 9 -13 -6 -1 -10 7 -17 23 -17 35 1 20 2 20 6 1 3
-11 10 -27 17 -35z m2554 13 c-1 -37 -1 -37 -5 -5 -4 26 -9 32 -28 32 -18 0
-25 -6 -28 -27 -4 -26 -4 -26 -6 5 -1 30 1 32 34 32 34 0 35 -1 33 -37z m399
15 c-3 -8 -6 -5 -6 6 -1 11 2 17 5 13 3 -3 4 -12 1 -19z m50 0 c-3 -8 -6 -5
-6 6 -1 11 2 17 5 13 3 -3 4 -12 1 -19z m10932 1 c-9 -17 -8 -25 4 -37 14 -14
18 -13 41 2 14 9 26 14 26 11 0 -2 -11 -11 -24 -20 -25 -17 -51 -12 -60 11 -6
15 9 54 20 54 2 0 0 -10 -7 -21z m-11816 4 c-15 -3 -23 -12 -24 -26 0 -12 -3
-16 -6 -9 -9 22 5 42 29 41 l23 -2 -22 -4z m70 0 c-15 -3 -23 -12 -24 -26 0
-12 -3 -16 -6 -9 -9 22 5 42 29 41 l23 -2 -22 -4z m765 -46 l67 -3 -72 -2 -73
-2 1 33 c2 29 2 30 6 5 4 -26 7 -27 71 -31z m-6898 23 c38 -38 15 -90 -40 -90
-33 0 -60 23 -60 51 0 25 35 59 60 59 11 0 29 -9 40 -20z m110 4 c0 -6 -9 -14
-20 -17 -15 -4 -20 -14 -20 -41 0 -29 -4 -36 -20 -36 -17 0 -20 7 -20 48 0 27
2 51 5 53 10 11 75 4 75 -7z m53 -16 l14 -33 17 33 c9 18 22 32 27 30 15 -5
14 -12 -17 -83 -20 -45 -34 -65 -46 -65 -14 0 -16 4 -9 23 7 17 4 36 -10 66
-23 52 -24 61 -4 61 8 0 21 -15 28 -32z m319 9 c12 -18 9 -62 -4 -75 -7 -7
-26 -12 -43 -12 -38 0 -55 16 -55 51 0 50 77 76 102 36z m118 3 c24 -24 26
-53 4 -74 -32 -33 -104 -8 -104 36 0 24 35 58 60 58 11 0 29 -9 40 -20z m3741
3 c13 -16 12 -17 -3 -4 -10 7 -18 15 -18 17 0 8 8 3 21 -13z m400 0 c13 -16
12 -17 -3 -4 -10 7 -18 15 -18 17 0 8 8 3 21 -13z m12366 -1 c-10 -10 -14 -22
-10 -25 3 -4 -1 -7 -10 -7 -9 0 -17 7 -17 16 0 8 4 13 9 10 5 -3 14 1 21 9 7
8 15 15 18 15 3 0 -2 -8 -11 -18z m86 -5 c4 3 7 -1 7 -10 0 -9 -7 -17 -17 -17
-9 0 -13 3 -10 7 4 3 -1 16 -10 27 -18 21 -18 21 3 3 11 -9 24 -14 27 -10z
m-11957 -8 c19 -22 19 -22 -3 -8 -13 8 -23 17 -23 21 0 12 6 9 26 -13z m851
-1 c-3 -8 -6 -5 -6 6 -1 11 2 17 5 13 3 -3 4 -12 1 -19z m-4557 -3 c0 -8 -6
-15 -14 -15 -17 0 -28 14 -19 24 12 12 33 6 33 -9z m58 -2 c2 -8 -5 -13 -17
-13 -12 0 -21 6 -21 16 0 18 31 15 38 -3z m55 2 c1 -5 -6 -11 -15 -13 -11 -2
-18 3 -18 13 0 17 30 18 33 0z m2744 -1 c-3 -3 -12 -4 -19 -1 -8 3 -5 6 6 6
11 1 17 -2 13 -5z m400 0 c-3 -3 -12 -4 -19 -1 -8 3 -5 6 6 6 11 1 17 -2 13
-5z m2573 -4 c0 -5 -5 -10 -11 -10 -5 0 -7 5 -4 10 3 6 8 10 11 10 2 0 4 -4 4
-10z m-4460 -185 c0 -13 -57 -15 -450 -15 -393 0 -450 2 -450 15 0 13 57 15
450 15 393 0 450 -2 450 -15z m-3117 -322 c-28 -5 -32 -42 -5 -44 15 -1 15 -2
0 -6 -9 -2 -19 -16 -21 -31 -2 -15 -5 -1 -6 31 -1 56 -1 57 27 56 23 -2 24 -2
5 -6z m214 -75 c-2 -18 -4 -6 -4 27 0 33 2 48 4 33 2 -15 2 -42 0 -60z m-170
-10 c-2 -13 -4 -3 -4 22 0 25 2 35 4 23 2 -13 2 -33 0 -45z m40 0 c-2 -13 -4
-3 -4 22 0 25 2 35 4 23 2 -13 2 -33 0 -45z m43 52 c0 -5 -7 -7 -15 -4 -8 4
-15 8 -15 10 0 2 7 4 15 4 8 0 15 -4 15 -10z m58 3 c-10 -2 -18 -12 -18 -20 0
-9 -3 -14 -6 -10 -12 11 5 37 23 36 17 -1 17 -2 1 -6z m135 -3 c-13 -5 -23
-15 -23 -21 0 -7 -3 -9 -6 -6 -10 10 16 37 35 36 11 0 9 -3 -6 -9z m94 -10 c4
-12 3 -13 -5 -1 -6 8 -19 12 -31 8 -12 -3 -19 -1 -15 5 9 14 47 5 51 -12z m40
-42 c-2 -13 -4 -3 -4 22 0 25 2 35 4 23 2 -13 2 -33 0 -45z m89 19 l1 -37 -4
36 c-6 47 -35 44 -44 -6 l-6 -35 -2 37 c0 20 -7 38 -13 41 -7 2 5 4 27 3 39
-1 40 -2 41 -39z m41 -39 c-2 -18 -4 -6 -4 27 0 33 2 48 4 33 2 -15 2 -42 0
-60z m49 49 c1 -24 1 -24 -3 -3 -2 14 -12 27 -21 30 -12 3 -11 4 3 3 14 -2 20
-10 21 -30z m82 21 c17 -17 15 -43 -4 -59 -31 -26 -70 25 -44 56 15 18 32 19
48 3z m44 -32 c-6 -48 -12 -46 -12 5 0 22 4 38 8 35 4 -3 6 -21 4 -40z m44 -2
c1 -37 1 -38 -3 -4 -3 19 -10 39 -16 43 -8 6 -7 7 3 4 10 -2 15 -17 16 -43z
m80 34 c4 -7 3 -8 -5 -4 -7 4 -20 4 -29 0 -14 -6 -11 -9 13 -14 l30 -8 -27 -1
c-34 -1 -36 -18 -5 -31 13 -5 16 -9 7 -9 -20 -1 -40 18 -40 39 0 32 41 53 56
28z m41 -50 c-2 -13 -4 -3 -4 22 0 25 2 35 4 23 2 -13 2 -33 0 -45z m43 52 c0
-5 -7 -7 -15 -4 -8 4 -15 8 -15 10 0 2 7 4 15 4 8 0 15 -4 15 -10z m53 3 c-7
-2 -19 -2 -25 0 -7 3 -2 5 12 5 14 0 19 -2 13 -5z m55 0 c-10 -2 -18 -8 -18
-13 0 -5 8 -14 18 -19 9 -6 13 -10 7 -11 -5 0 -16 4 -24 9 -18 12 -6 41 16 40
17 -1 17 -2 1 -6z m-941 -60 c-3 -10 -5 -4 -5 12 0 17 2 24 5 18 2 -7 2 -21 0
-30z m840 0 c-3 -10 -5 -4 -5 12 0 17 2 24 5 18 2 -7 2 -21 0 -30z m-787 -6
c11 -5 9 -6 -4 -4 -11 1 -21 9 -23 17 -3 10 -2 11 4 4 4 -6 15 -14 23 -17z
m135 0 c16 -5 15 -5 -4 -4 -14 1 -26 9 -28 17 -3 10 -2 11 4 4 4 -7 17 -14 28
-17z m90 4 c-7 -13 -42 -15 -49 -2 -3 4 6 6 19 3 16 -3 25 0 25 9 0 7 3 10 6
6 3 -3 3 -10 -1 -16z m610 -1 c3 -5 1 -10 -4 -10 -6 0 -11 5 -11 10 0 6 2 10
4 10 3 0 8 -4 11 -10z m60 0 c-3 -5 -14 -10 -23 -9 -14 0 -13 2 3 9 27 11 27
11 20 0z m-458 -6 c-3 -3 -12 -4 -19 -1 -8 3 -5 6 6 6 11 1 17 -2 13 -5z
m-942 -465 c4 -6 4 -13 0 -17 -4 -4 -10 -1 -12 6 -3 6 -20 12 -38 12 l-34 0
-4 -57 -3 -58 -2 63 -2 62 44 0 c25 0 48 -5 51 -11z m125 -18 c0 -13 8 -21 23
-23 18 -2 23 -10 25 -40 2 -22 -1 -38 -7 -38 -6 0 -11 16 -11 36 0 45 -24 42
-28 -4 -6 -56 -22 -34 -22 28 0 33 4 60 10 60 6 0 10 -9 10 -19z m-153 -17
c-3 -3 -12 -4 -19 -1 -8 3 -5 6 6 6 11 1 17 -2 13 -5z m297 -26 c15 -24 -3
-52 -37 -56 -33 -4 -53 28 -37 59 14 25 58 23 74 -3z m134 -20 c2 -22 -1 -38
-7 -38 -6 0 -11 16 -11 35 0 19 -4 35 -9 35 -11 0 -21 -25 -21 -51 0 -10 -4
-19 -10 -19 -5 0 -10 16 -10 35 0 19 -4 35 -10 35 -5 0 -10 -16 -10 -35 0 -24
-5 -35 -15 -35 -11 0 -15 11 -15 40 l0 40 58 -2 57 -3 3 -37z m90 30 c20 -20
14 -28 -19 -28 -20 0 -29 -4 -26 -12 2 -7 14 -13 26 -12 11 0 21 -3 21 -8 0
-5 -15 -8 -32 -6 -26 2 -34 8 -36 26 -6 42 37 69 66 40z m-515 -5 c-7 -2 -21
-2 -30 0 -10 3 -4 5 12 5 17 0 24 -2 18 -5z m5601 -35 c15 -25 -4 -52 -38 -56
-47 -6 -74 36 -44 66 18 18 69 11 82 -10z m-1094 -23 c0 -35 0 -35 -45 -35
-41 0 -45 -2 -45 -25 0 -22 4 -25 40 -25 39 0 40 -1 40 -35 0 -34 -1 -35 -40
-35 l-40 0 0 -45 0 -45 -45 0 -45 0 0 140 0 140 90 0 90 0 0 -35z m640 -15 c0
-23 4 -30 20 -30 16 0 20 -7 20 -30 0 -23 -4 -30 -20 -30 -16 0 -20 -7 -20
-36 0 -27 5 -37 20 -41 14 -4 20 -14 20 -34 0 -28 -2 -29 -45 -29 -62 0 -85
24 -85 90 0 38 -4 50 -15 50 -10 0 -15 10 -15 30 0 20 5 30 15 30 8 0 15 9 15
20 0 13 10 22 33 29 52 15 57 13 57 -19z m-431 -44 c28 -15 51 -53 51 -86 0
-33 -23 -71 -51 -86 -34 -17 -99 -18 -134 -2 -69 31 -71 137 -4 174 32 18 103
17 138 0z m161 4 c0 -7 6 -7 19 0 11 5 33 10 50 10 46 0 61 -30 61 -122 l0
-78 -45 0 -44 0 -3 68 c-2 52 -6 67 -18 67 -12 0 -16 -15 -18 -67 l-3 -68 -44
0 -45 0 0 100 0 100 45 0 c25 0 45 -5 45 -10z m598 -24 c3 -28 3 -28 -32 -22
-40 8 -50 -8 -13 -20 60 -18 75 -69 30 -104 -21 -17 -38 -20 -82 -18 -56 3
-56 3 -59 37 -3 28 -1 33 13 27 9 -3 28 -9 41 -12 31 -8 32 12 2 22 -59 17
-75 67 -36 104 18 17 33 20 78 18 52 -3 55 -4 58 -32z m132 -66 l0 -100 -45 0
-45 0 0 100 0 100 45 0 45 0 0 -100z m210 78 c0 -12 -18 -43 -41 -70 l-40 -48
40 0 c39 0 41 -2 41 -30 l0 -30 -100 0 c-91 0 -100 2 -100 19 0 10 21 42 46
70 l46 51 -41 0 c-39 0 -41 2 -41 30 l0 30 95 0 c91 0 95 -1 95 -22z m195 -3
c17 -16 25 -35 25 -60 l0 -35 -62 0 c-59 -1 -62 -2 -43 -16 13 -10 31 -13 53
-9 32 6 33 5 30 -22 -3 -27 -5 -28 -64 -31 -49 -2 -65 1 -87 18 -51 40 -44
135 12 165 43 24 108 19 136 -10z m205 -6 c0 -28 -2 -31 -25 -25 -45 11 -49
-6 -6 -25 37 -16 41 -22 41 -53 0 -50 -30 -68 -107 -64 -58 3 -58 3 -61 37 -3
28 -1 33 13 27 38 -14 63 -17 69 -8 3 6 -10 16 -29 22 -57 19 -69 57 -30 95
20 21 34 25 80 25 55 0 55 0 55 -31z m-6210 -309 c0 -5 -4 -10 -10 -10 -5 0
-10 -18 -10 -40 0 -29 -4 -40 -15 -40 -11 0 -15 11 -15 40 0 29 -4 40 -15 40
-8 0 -15 5 -15 10 0 6 18 10 40 10 22 0 40 -4 40 -10z m146 -15 c15 -23 15
-27 0 -50 -19 -29 -47 -32 -70 -9 -31 30 -9 84 34 84 11 0 27 -11 36 -25z
m105 3 l0 -23 11 23 c6 12 17 22 25 22 16 0 16 -5 1 -29 -9 -15 -8 -24 5 -45
16 -24 16 -26 1 -26 -9 0 -23 8 -30 18 -13 16 -13 16 -14 0 0 -10 -7 -18 -15
-18 -11 0 -15 12 -15 50 0 38 4 50 15 50 9 0 15 -9 16 -22z m169 12 c0 -5 -7
-10 -15 -10 -8 0 -15 -4 -15 -10 0 -5 7 -10 15 -10 8 0 15 -4 15 -10 0 -5 -7
-10 -15 -10 -8 0 -15 -4 -15 -10 0 -5 7 -10 15 -10 8 0 15 -4 15 -10 0 -5 -11
-10 -25 -10 -23 0 -25 3 -25 50 0 47 2 50 25 50 14 0 25 -4 25 -10z m109 -17
l20 -28 1 28 c0 17 5 27 15 27 11 0 15 -12 15 -50 0 -57 -10 -62 -45 -22 l-24
27 -1 -27 c0 -16 -4 -28 -10 -28 -5 0 -10 23 -10 50 0 57 9 62 39 23z m181 17
c0 -5 -10 -10 -22 -11 l-23 0 23 -16 c26 -18 29 -48 6 -57 -24 -9 -54 -7 -54
4 0 6 9 10 20 10 26 0 25 8 -2 30 -19 15 -20 20 -9 34 15 17 61 22 61 6z
m3855 -287 l20 -38 3 38 c2 29 7 37 23 37 17 0 19 -7 19 -75 0 -67 -2 -75 -19
-75 -12 0 -29 16 -45 43 l-25 42 -1 -42 c0 -31 -4 -43 -15 -43 -12 0 -15 15
-15 75 0 66 2 75 18 75 11 0 26 -15 37 -37z m3705 0 c18 -57 26 -59 40 -9 9
35 17 46 32 46 15 0 18 -4 13 -17 -4 -10 -16 -44 -27 -75 -29 -84 -49 -79 -81
17 -24 71 -25 75 -7 75 13 0 22 -12 30 -37z m240 -38 c0 -68 -2 -75 -20 -75
-18 0 -20 7 -20 75 0 68 2 75 20 75 18 0 20 -7 20 -75z m4738 63 c7 -7 12 -21
12 -33 0 -29 -19 -45 -52 -45 -24 0 -28 -4 -28 -30 0 -20 -5 -30 -15 -30 -12
0 -15 15 -15 75 l0 75 43 0 c24 0 48 -5 55 -12z m72 2 c0 -5 -9 -10 -20 -10
-11 0 -20 5 -20 10 0 6 9 10 20 10 11 0 20 -4 20 -10z m280 -65 c0 -68 -2 -75
-20 -75 -18 0 -20 7 -20 75 0 68 2 75 20 75 18 0 20 -7 20 -75z m-13585 34 c4
-6 4 -13 0 -17 -4 -4 -10 -1 -12 6 -3 6 -20 12 -38 12 l-34 0 -4 -57 -3 -58
-2 63 -2 62 44 0 c25 0 48 -5 51 -11z m315 -59 c0 -33 -4 -60 -10 -60 -6 0
-10 27 -10 60 0 33 4 60 10 60 6 0 10 -27 10 -60z m4410 3 l6 -53 -42 0 c-70
0 -84 48 -18 64 14 4 22 11 19 16 -4 6 -17 7 -31 4 -14 -4 -24 -2 -24 4 0 14
20 21 55 19 29 -2 30 -5 35 -54z m168 44 c6 -5 12 -29 12 -53 0 -37 -3 -44
-20 -44 -17 0 -20 7 -20 45 0 25 -4 45 -10 45 -5 0 -10 -20 -10 -45 0 -38 -3
-45 -20 -45 -17 0 -20 7 -20 45 0 45 -12 60 -24 29 -3 -9 -6 -29 -6 -45 0 -19
-5 -29 -15 -29 -11 0 -15 13 -15 54 l0 54 68 -1 c37 0 73 -4 80 -10z m110 1
c7 -7 12 -20 12 -30 0 -13 -8 -18 -31 -18 -20 0 -29 -4 -26 -12 2 -8 16 -12
32 -10 26 4 28 2 16 -12 -28 -34 -91 -9 -91 36 0 45 58 76 88 46z m3420 0 c7
-7 12 -31 12 -54 l0 -43 -47 2 c-42 2 -48 5 -51 25 -3 18 3 25 27 33 41 14 40
30 -1 22 -30 -6 -32 -5 -19 10 16 20 62 22 79 5z m122 -34 c0 -59 24 -55 28 4
3 34 7 42 23 42 16 0 19 -7 19 -55 l0 -55 -45 0 c-51 0 -65 16 -65 74 0 29 4
36 20 36 17 0 20 -7 20 -46z m170 27 c17 -32 12 -41 -25 -41 -26 0 -33 -4 -29
-15 4 -10 15 -12 37 -8 29 6 31 5 18 -10 -16 -20 -62 -22 -79 -5 -31 31 -5 98
38 98 19 0 33 -7 40 -19z m4590 -36 c0 -48 -2 -55 -20 -55 -18 0 -20 7 -20 55
0 48 2 55 20 55 18 0 20 -7 20 -55z m58 43 c9 -9 12 -9 12 0 0 7 10 12 21 12
20 0 21 -1 5 -25 -15 -23 -15 -27 0 -50 20 -31 11 -44 -19 -26 -15 10 -22 10
-25 2 -4 -11 -42 -16 -42 -6 0 3 7 16 16 30 14 22 14 26 -1 49 -17 25 -16 26
2 26 10 0 24 -5 31 -12z m152 -7 c17 -32 12 -41 -25 -41 -26 0 -33 -4 -29 -15
4 -10 15 -12 37 -8 29 6 31 5 18 -10 -16 -20 -62 -22 -79 -5 -31 31 -5 98 38
98 19 0 33 -7 40 -19z m168 0 c3 -10 -2 -12 -22 -7 -14 3 -26 2 -26 -3 0 -5
11 -12 25 -15 31 -8 42 -31 25 -51 -13 -16 -47 -20 -74 -9 -28 11 -17 26 14
19 17 -4 30 -3 30 2 0 5 -13 14 -30 20 -31 12 -42 46 -17 57 22 9 70 1 75 -13z
m-13498 0 c0 -4 -11 -6 -24 -4 -33 7 -53 -29 -37 -64 9 -20 17 -24 36 -20 14
2 25 0 25 -4 0 -15 -53 -10 -72 8 -36 32 -8 93 43 93 16 0 29 -4 29 -9z m-213
-17 c-3 -3 -12 -4 -19 -1 -8 3 -5 6 6 6 11 1 17 -2 13 -5z m307 -26 c14 -23
-3 -52 -33 -56 -42 -6 -67 38 -39 66 17 17 58 11 72 -10z m134 -15 c3 -28 -1
-33 -22 -39 -39 -9 -56 2 -56 35 0 32 12 41 50 38 20 -2 26 -8 28 -34z m132
26 c0 -6 -9 -7 -20 -4 -11 3 -20 2 -20 -4 0 -5 9 -13 21 -16 29 -10 20 -39
-14 -43 -15 -2 -27 1 -27 6 0 6 9 8 20 5 11 -3 20 -1 20 5 0 6 -9 14 -20 17
-11 3 -20 13 -20 22 0 28 -25 6 -28 -25 -5 -46 -22 -40 -22 7 l0 40 55 0 c30
0 55 -5 55 -10z m-567 -6 c-7 -2 -21 -2 -30 0 -10 3 -4 5 12 5 17 0 24 -2 18
-5z m8321 -455 c32 -45 9 -128 -34 -128 -31 0 -50 28 -50 75 0 69 51 101 84
53z m166 7 c17 -20 5 -32 -15 -15 -18 15 -45 7 -45 -14 0 -9 7 -12 20 -9 27 7
50 -14 50 -46 0 -32 -16 -51 -45 -51 -12 0 -26 5 -33 12 -15 15 -16 92 -2 119
13 23 52 25 70 4z m108 3 c20 -20 13 -51 -20 -85 l-32 -33 32 0 c18 0 32 -4
32 -10 0 -5 -20 -10 -45 -10 -55 0 -58 14 -10 60 42 40 46 70 11 70 -13 0 -26
-6 -29 -12 -2 -7 -8 -10 -12 -6 -12 12 15 38 39 38 12 0 27 -5 34 -12z m122 2
c0 -5 -13 -10 -30 -10 -20 0 -30 -5 -30 -15 0 -9 9 -15 25 -15 24 0 45 -25 45
-54 0 -39 -65 -61 -90 -31 -16 19 -5 34 12 17 28 -28 65 -3 51 34 -4 12 -14
14 -38 10 -31 -6 -32 -5 -28 21 3 16 6 34 8 41 5 14 75 17 75 2z m4500 -65 c0
-43 -4 -75 -10 -75 -5 0 -10 25 -10 56 0 49 -2 55 -15 44 -10 -9 -15 -9 -15
-1 0 12 31 49 43 50 4 1 7 -33 7 -74z m124 53 c32 -45 9 -128 -34 -128 -25 0
-50 37 -50 75 0 38 25 75 50 75 10 0 26 -10 34 -22z m-8798 -35 c12 -17 13
-17 19 0 4 9 14 17 22 17 13 0 13 -4 -2 -26 -15 -24 -15 -27 0 -51 21 -31 9
-45 -14 -17 l-16 21 -17 -21 c-22 -29 -34 -14 -13 17 15 24 15 27 0 51 -20 30
-1 38 21 9z m100 0 c12 -17 13 -17 19 0 4 9 14 17 22 17 13 0 13 -4 -2 -26
-15 -24 -15 -27 0 -51 21 -31 9 -45 -14 -17 l-16 21 -17 -21 c-22 -29 -34 -14
-13 17 15 24 15 27 0 51 -20 30 -1 38 21 9z m142 0 c2 -9 -5 -11 -27 -7 -41 9
-39 -2 4 -20 19 -8 35 -21 35 -28 0 -36 -56 -51 -80 -23 -16 19 -5 34 12 17
14 -14 48 -16 48 -2 0 5 -11 12 -25 16 -36 9 -51 30 -35 50 15 17 61 15 68 -3z
m4012 7 c0 -5 -7 -10 -15 -10 -11 0 -15 -12 -15 -45 0 -25 -4 -45 -10 -45 -5
0 -10 25 -10 55 0 52 1 55 25 55 14 0 25 -4 25 -10z m97 -20 c12 -24 12 -25
-28 -28 -26 -2 -39 -8 -36 -15 5 -17 38 -21 48 -6 4 7 11 10 15 6 11 -11 -17
-37 -40 -37 -12 0 -27 5 -34 12 -16 16 -15 71 0 86 20 20 61 10 75 -18z m161
18 c14 -12 16 -98 2 -98 -5 0 -10 18 -10 40 0 28 -5 43 -16 47 -21 8 -34 -13
-34 -54 0 -18 -4 -33 -10 -33 -5 0 -10 21 -10 46 0 38 -3 45 -17 42 -13 -2
-19 -15 -21 -46 -5 -61 -22 -52 -22 12 l0 53 63 0 c34 0 68 -4 75 -9z m4399 0
c18 -14 16 -73 -2 -88 -8 -7 -24 -10 -35 -7 -16 4 -20 0 -20 -19 0 -13 -4 -24
-10 -24 -6 0 -10 31 -10 73 l0 74 32 1 c18 0 38 -4 45 -10z m60 -3 c5 -14 8
-14 24 1 25 23 35 11 15 -17 -14 -20 -13 -24 5 -51 17 -23 18 -28 5 -28 -8 0
-20 8 -25 18 -10 16 -12 16 -25 0 -23 -31 -39 -21 -20 11 16 28 16 31 0 55
-14 23 -15 26 -1 26 9 0 18 -7 22 -15z m-13492 -46 c4 -6 4 -13 0 -17 -4 -4
-10 -1 -12 6 -3 6 -20 12 -38 12 l-34 0 -4 -57 -3 -58 -2 63 -2 62 44 0 c25 0
48 -5 51 -11z m725 -9 c0 -5 -7 -10 -15 -10 -8 0 -15 5 -15 10 0 6 7 10 15 10
8 0 15 -4 15 -10z m130 -9 c0 -13 8 -21 23 -23 18 -2 23 -10 25 -40 2 -22 -1
-38 -7 -38 -6 0 -11 16 -11 36 0 45 -24 42 -28 -4 -6 -56 -22 -34 -22 28 0 33
4 60 10 60 6 0 10 -9 10 -19z m-707 2 c-15 -3 -23 -12 -23 -24 0 -13 7 -19 23
-20 l22 -2 -22 -4 c-16 -3 -23 -11 -23 -29 0 -13 -4 -24 -10 -24 -5 0 -10 25
-10 55 l0 55 33 -1 c23 -1 26 -3 10 -6z m343 -30 l10 -38 10 34 c13 46 29 49
44 9 l13 -33 10 33 c5 17 14 32 19 32 10 0 3 -45 -13 -87 -12 -32 -25 -29 -39
10 l-13 32 -10 -32 c-5 -18 -16 -33 -23 -33 -8 0 -14 3 -14 8 0 4 -7 28 -15
55 -11 37 -11 47 -1 47 7 0 17 -17 22 -37z m-90 12 c9 -8 11 -15 5 -15 -15 0
-14 -57 2 -63 6 -3 2 -6 -10 -6 -20 -1 -23 4 -23 34 0 19 -5 35 -10 35 -6 0
-5 6 2 15 16 18 16 18 34 0z m550 0 c9 -8 11 -15 5 -15 -15 0 -14 -43 2 -59
10 -10 8 -12 -8 -9 -14 2 -22 14 -25 38 -6 34 -3 60 7 60 2 0 11 -7 19 -15z
m-979 -1 c-3 -3 -12 -4 -19 -1 -8 3 -5 6 6 6 11 1 17 -2 13 -5z m8393 -4 c0
-5 -7 -10 -15 -10 -8 0 -15 5 -15 10 0 6 7 10 15 10 8 0 15 -4 15 -10z m-8106
-22 c14 -23 -3 -52 -33 -56 -42 -6 -67 38 -39 66 17 17 58 11 72 -10z m90 6
c9 -25 7 -64 -4 -64 -5 0 -10 13 -10 29 0 17 -5 33 -11 37 -14 8 -29 -14 -29
-43 0 -13 -4 -23 -10 -23 -5 0 -10 18 -10 40 0 39 1 40 34 40 22 0 36 -6 40
-16z m334 -6 c3 -14 -3 -18 -27 -18 -24 0 -29 -4 -24 -16 4 -11 13 -14 30 -9
16 4 22 2 18 -5 -11 -18 -54 -11 -65 10 -16 31 4 62 38 58 16 -2 28 -10 30
-20z m42 -18 c0 -29 -4 -40 -15 -40 -11 0 -15 11 -15 40 0 29 4 40 15 40 11 0
15 -11 15 -40z m90 -8 c0 -26 -5 -53 -12 -60 -15 -15 -68 -16 -68 -1 0 6 9 8
21 4 14 -5 25 -2 30 6 6 10 1 15 -19 19 -19 4 -28 12 -30 28 -6 39 5 52 43 52
l35 0 0 -48z m220 37 c0 -6 -9 -8 -20 -4 -11 3 -20 2 -20 -4 0 -5 9 -13 21
-16 29 -10 20 -39 -14 -43 -15 -2 -27 1 -27 6 0 6 9 8 20 5 11 -3 20 -1 20 5
0 6 -9 14 -20 17 -20 6 -26 25 -13 38 10 11 53 8 53 -4z m-1057 -6 c-7 -2 -21
-2 -30 0 -10 3 -4 5 12 5 17 0 24 -2 18 -5z m22 -244 c4 -6 4 -13 0 -17 -4 -4
-10 -1 -12 6 -3 6 -20 12 -38 12 l-34 0 -4 -57 -3 -58 -2 63 -2 62 44 0 c25 0
48 -5 51 -11z m148 -16 c-15 -3 -23 -12 -23 -24 0 -13 7 -19 23 -20 l22 -2
-22 -4 c-16 -3 -23 -11 -23 -29 0 -13 -4 -24 -10 -24 -5 0 -10 25 -10 55 l0
55 33 -1 c23 -1 26 -3 10 -6z m253 -18 c9 -8 11 -15 5 -15 -6 0 -11 -13 -11
-28 0 -25 4 -29 30 -29 34 0 39 12 10 27 -25 14 -15 40 16 40 13 0 24 -4 24
-10 0 -5 -7 -7 -15 -4 -20 8 -19 -13 2 -24 31 -18 8 -42 -42 -42 -45 0 -45 0
-45 35 0 19 -5 35 -10 35 -6 0 -5 6 2 15 16 18 16 18 34 0z m-429 -1 c-3 -3
-12 -4 -19 -1 -8 3 -5 6 6 6 11 1 17 -2 13 -5z m287 -26 c14 -23 -3 -52 -33
-56 -42 -6 -67 38 -39 66 17 17 58 11 72 -10z m90 6 c9 -25 7 -64 -4 -64 -5 0
-10 13 -10 29 0 17 -5 33 -11 37 -14 8 -29 -14 -29 -43 0 -13 -4 -23 -10 -23
-5 0 -10 18 -10 40 0 39 1 40 34 40 22 0 36 -6 40 -16z m-371 -1 c-7 -2 -21
-2 -30 0 -10 3 -4 5 12 5 17 0 24 -2 18 -5z m8321 -95 c34 -48 9 -128 -39
-128 -29 0 -45 26 -45 75 0 20 5 45 10 56 14 26 55 24 74 -3z m176 13 c0 -6
-9 -25 -19 -43 -10 -18 -22 -48 -26 -65 -4 -18 -11 -33 -16 -33 -15 0 -10 42
11 88 l19 42 -29 0 c-17 0 -30 5 -30 10 0 6 20 10 45 10 25 0 45 -4 45 -9z
m110 -1 c0 -5 -13 -10 -30 -10 -20 0 -30 -5 -30 -15 0 -8 9 -15 20 -15 11 0
27 -11 36 -25 15 -23 15 -27 0 -50 -19 -28 -57 -33 -76 -10 -17 20 -5 32 15
15 21 -18 47 -5 43 22 -2 19 -9 23 -36 21 -30 -1 -33 1 -28 20 3 12 6 30 6 40
0 13 9 17 40 17 22 0 40 -4 40 -10z m4610 -65 c0 -43 -4 -75 -10 -75 -5 0 -10
25 -10 56 0 46 -2 54 -13 45 -8 -6 -17 -8 -20 -4 -7 6 32 50 46 52 4 1 7 -33
7 -74z m128 63 c21 -21 13 -49 -22 -84 l-34 -34 34 0 c19 0 34 -4 34 -10 0 -5
-22 -10 -50 -10 -29 0 -50 4 -50 11 0 6 16 25 35 42 40 35 48 77 15 77 -11 0
-20 -4 -20 -10 0 -5 -7 -10 -15 -10 -13 0 -14 4 -5 20 12 23 59 27 78 8z
m-8802 -45 c12 -17 13 -17 19 0 4 9 14 17 22 17 13 0 13 -4 -2 -26 -15 -24
-15 -27 0 -51 21 -31 9 -45 -14 -17 l-16 21 -17 -21 c-22 -29 -34 -14 -13 17
15 24 15 27 0 51 -20 30 -1 38 21 9z m145 1 c11 -14 9 -15 -24 -9 -47 9 -48 0
-2 -19 19 -8 35 -21 35 -28 0 -36 -56 -51 -80 -23 -16 19 -5 34 12 17 14 -14
48 -16 48 -2 0 5 -11 12 -25 16 -35 9 -51 30 -35 49 16 20 54 19 71 -1z m3999
6 c0 -5 -7 -10 -15 -10 -11 0 -15 -12 -15 -45 0 -33 -4 -45 -15 -45 -12 0 -15
13 -15 55 0 54 0 55 30 55 17 0 30 -4 30 -10z m88 -2 c7 -7 12 -20 12 -30 0
-14 -8 -18 -35 -18 -19 0 -35 -5 -35 -10 0 -17 29 -23 45 -10 20 17 31 5 15
-15 -19 -23 -62 -15 -79 16 -13 24 -13 29 2 53 19 28 54 35 75 14z m170 0 c18
-15 16 -98 -3 -98 -11 0 -15 12 -15 45 0 32 -4 45 -14 45 -17 0 -26 -22 -26
-61 0 -16 -4 -29 -10 -29 -5 0 -10 20 -10 45 0 32 -4 45 -14 45 -17 0 -26 -22
-26 -61 0 -16 -4 -29 -10 -29 -5 0 -10 24 -10 54 l0 53 63 0 c34 0 68 -4 75
-9z m4510 0 c7 -7 12 -26 12 -43 0 -37 -16 -55 -47 -55 -16 0 -23 -6 -23 -20
0 -11 -4 -20 -10 -20 -6 0 -10 32 -10 75 l0 75 33 0 c18 0 38 -5 45 -12z m59
-3 c5 -14 8 -14 24 1 25 23 35 11 15 -17 -14 -20 -13 -24 5 -51 17 -23 18 -28
5 -28 -8 0 -20 8 -25 18 -10 16 -12 16 -25 0 -23 -31 -39 -21 -20 11 16 28 16
31 0 55 -14 23 -15 26 -1 26 9 0 18 -7 22 -15z m-5127 -85 c0 -5 -7 -10 -15
-10 -8 0 -15 5 -15 10 0 6 7 10 15 10 8 0 15 -4 15 -10z m-8365 -21 c4 -6 4
-13 0 -17 -4 -4 -10 -1 -12 6 -3 6 -20 12 -38 12 l-34 0 -4 -57 -3 -58 -2 63
-2 62 44 0 c25 0 48 -5 51 -11z m205 -9 c0 -5 -7 -10 -15 -10 -8 0 -15 5 -15
10 0 6 7 10 15 10 8 0 15 -4 15 -10z m460 0 c0 -5 -7 -10 -15 -10 -8 0 -15 5
-15 10 0 6 7 10 15 10 8 0 15 -4 15 -10z m130 -9 c0 -13 8 -21 23 -23 18 -2
23 -10 25 -40 2 -22 -1 -38 -7 -38 -6 0 -11 16 -11 36 0 45 -24 42 -28 -4 -6
-56 -22 -34 -22 28 0 33 4 60 10 60 6 0 10 -9 10 -19z m-670 -41 c0 -47 2 -50
25 -50 22 0 25 4 25 35 0 24 5 35 15 35 11 0 15 -11 15 -40 l0 -40 -50 0 -50
0 0 55 c0 30 5 55 10 55 6 0 10 -22 10 -50z m340 25 c0 -20 5 -25 25 -25 20 0
25 5 25 25 0 14 5 25 10 25 6 0 10 -25 10 -55 0 -30 -4 -55 -10 -55 -5 0 -10
11 -10 25 0 20 -5 25 -25 25 -20 0 -25 -5 -25 -25 0 -14 -4 -25 -10 -25 -5 0
-10 25 -10 55 0 30 5 55 10 55 6 0 10 -11 10 -25z m432 3 c3 -7 19 -11 41 -10
20 2 37 -2 37 -7 0 -6 -6 -8 -14 -5 -8 3 -17 1 -20 -5 -4 -5 3 -13 14 -16 13
-4 20 -14 18 -23 -2 -13 -16 -18 -51 -20 l-47 -3 0 35 c0 20 -5 36 -10 36 -6
0 -5 6 2 15 16 18 25 19 30 3z m-925 -4 c-3 -3 -12 -4 -19 -1 -8 3 -5 6 6 6
11 1 17 -2 13 -5z m317 -20 c9 -25 7 -64 -4 -64 -5 0 -10 13 -10 29 0 17 -5
33 -11 37 -14 8 -29 -14 -29 -43 0 -13 -4 -23 -10 -23 -5 0 -10 18 -10 40 0
39 1 40 34 40 22 0 36 -6 40 -16z m84 4 c20 -20 14 -28 -19 -28 -20 0 -29 -4
-26 -12 2 -7 14 -13 26 -12 11 0 21 -3 21 -8 0 -5 -15 -8 -32 -6 -26 2 -34 8
-36 26 -6 42 37 69 66 40z m250 -10 c3 -14 -3 -18 -27 -18 -24 0 -29 -4 -24
-16 4 -11 13 -14 30 -9 16 4 22 2 18 -5 -11 -18 -54 -11 -65 10 -16 31 4 62
38 58 16 -2 28 -10 30 -20z m42 -18 c0 -29 -4 -40 -15 -40 -11 0 -15 11 -15
40 0 29 4 40 15 40 11 0 15 -11 15 -40z m90 -8 c0 -26 -5 -53 -12 -60 -14 -14
-54 -16 -63 -3 -3 6 7 9 21 8 36 -3 43 21 7 25 -55 6 -38 78 18 78 28 0 29 -2
29 -48z m-777 31 c-7 -2 -21 -2 -30 0 -10 3 -4 5 12 5 17 0 24 -2 18 -5z m22
-244 c4 -6 4 -13 0 -17 -4 -4 -10 -1 -12 6 -3 6 -20 12 -38 12 l-34 0 -4 -57
-3 -58 -2 63 -2 62 44 0 c25 0 48 -5 51 -11z m355 -60 l0 -60 -31 3 c-58 6
-66 68 -10 76 13 2 21 11 21 23 0 10 5 19 10 19 6 0 10 -27 10 -61z m50 51 c0
-5 -7 -10 -15 -10 -8 0 -15 5 -15 10 0 6 7 10 15 10 8 0 15 -4 15 -10z m40 0
c0 -5 -7 -10 -15 -10 -8 0 -15 5 -15 10 0 6 7 10 15 10 8 0 15 -4 15 -10z
m-272 -24 c2 -10 -1 -21 -6 -25 -7 -4 -3 -16 8 -31 16 -20 20 -22 20 -8 0 10
11 20 25 24 14 3 22 10 19 16 -3 5 -12 7 -20 4 -8 -3 -14 -1 -14 5 0 6 12 9
28 7 23 -3 27 -8 30 -40 l3 -38 -49 1 c-42 1 -52 6 -63 25 -16 31 -29 31 -29
-1 0 -14 -4 -25 -10 -25 -5 0 -10 25 -10 56 l0 55 32 -3 c23 -2 34 -9 36 -22z
m-201 -2 c-3 -3 -12 -4 -19 -1 -8 3 -5 6 6 6 11 1 17 -2 13 -5z m423 -44 c0
-22 -4 -40 -10 -40 -5 0 -10 18 -10 40 0 22 5 40 10 40 6 0 10 -18 10 -40z
m40 0 c0 -22 -4 -40 -10 -40 -5 0 -10 18 -10 40 0 22 5 40 10 40 6 0 10 -18
10 -40z m-457 23 c-7 -2 -21 -2 -30 0 -10 3 -4 5 12 5 17 0 24 -2 18 -5z
m8321 -35 c32 -45 9 -128 -34 -128 -31 0 -50 28 -50 75 0 69 51 101 84 53z
m167 6 c10 -12 10 -20 1 -34 -7 -12 -8 -21 -2 -25 14 -9 12 -49 -2 -63 -29
-29 -78 -7 -78 34 0 13 4 26 10 29 6 4 5 13 -2 25 -15 24 4 50 37 50 12 0 28
-7 36 -16z m119 7 c0 -6 -9 -25 -19 -43 -10 -18 -22 -48 -26 -65 -4 -18 -11
-33 -17 -33 -13 0 -2 64 18 102 14 28 14 28 -16 28 -16 0 -30 5 -30 10 0 6 20
10 45 10 25 0 45 -4 45 -9z m110 -1 c0 -5 -13 -10 -30 -10 -20 0 -30 -5 -30
-15 0 -9 9 -15 25 -15 24 0 45 -25 45 -54 0 -39 -65 -61 -90 -31 -16 19 -5 34
12 17 28 -28 65 -3 51 34 -4 12 -14 14 -38 10 -31 -6 -32 -5 -28 21 3 16 6 34
8 41 5 14 75 17 75 2z m4500 -65 c0 -43 -4 -75 -10 -75 -5 0 -10 25 -10 56 0
49 -2 55 -15 44 -10 -9 -15 -9 -15 -1 0 12 31 49 43 50 4 1 7 -33 7 -74z m120
25 c0 -27 4 -50 9 -50 5 0 4 -11 -2 -25 -13 -28 -27 -33 -27 -10 0 10 -10 15
-30 15 -17 0 -30 5 -30 13 0 18 58 107 70 107 6 0 10 -22 10 -50z m-8752 -7
c2 -9 -5 -11 -27 -7 -41 9 -39 -2 4 -20 19 -8 35 -21 35 -28 0 -36 -56 -51
-80 -23 -16 19 -5 34 12 17 14 -14 48 -16 48 -2 0 5 -11 12 -25 16 -36 9 -51
30 -35 50 15 17 61 15 68 -3z m170 -40 c2 -32 -1 -53 -7 -53 -6 0 -11 20 -11
45 0 38 -3 45 -20 45 -17 0 -20 -7 -20 -45 0 -25 -4 -45 -10 -45 -5 0 -10 20
-10 45 0 38 -3 45 -20 45 -17 0 -20 -7 -20 -45 0 -25 -4 -45 -10 -45 -5 0 -10
25 -10 55 l0 55 68 -3 67 -2 3 -52z m4042 47 c0 -5 -7 -10 -15 -10 -11 0 -15
-12 -15 -45 0 -25 -4 -45 -10 -45 -5 0 -10 25 -10 55 0 52 1 55 25 55 14 0 25
-4 25 -10z m97 -20 c12 -24 12 -25 -28 -28 -26 -2 -39 -8 -36 -15 5 -17 38
-21 48 -6 4 7 11 10 15 6 11 -11 -17 -37 -40 -37 -12 0 -27 5 -34 12 -16 16
-15 71 0 86 20 20 61 10 75 -18z m161 18 c14 -12 16 -98 2 -98 -5 0 -10 18
-10 40 0 28 -5 43 -16 47 -21 8 -34 -13 -34 -54 0 -18 -4 -33 -10 -33 -5 0
-10 21 -10 46 0 38 -3 45 -17 42 -13 -2 -19 -15 -21 -46 -5 -61 -22 -52 -22
12 l0 53 63 0 c34 0 68 -4 75 -9z m4399 0 c18 -14 16 -73 -2 -88 -8 -7 -24
-10 -35 -7 -16 4 -20 0 -20 -19 0 -13 -4 -24 -10 -24 -6 0 -10 31 -10 73 l0
74 32 1 c18 0 38 -4 45 -10z m60 -3 c5 -14 8 -14 24 1 25 23 35 11 15 -17 -14
-20 -13 -24 5 -51 17 -23 18 -28 5 -28 -8 0 -20 8 -25 18 -10 16 -12 16 -25 0
-23 -31 -39 -21 -20 11 16 28 16 31 0 55 -14 23 -15 26 -1 26 9 0 18 -7 22
-15z m-5127 -85 c0 -5 -7 -10 -15 -10 -8 0 -15 5 -15 10 0 6 7 10 15 10 8 0
15 -4 15 -10z m-8365 -81 c4 -6 4 -13 0 -17 -4 -4 -10 -1 -12 6 -3 6 -20 12
-38 12 l-34 0 -4 -57 -3 -58 -2 63 -2 62 44 0 c25 0 48 -5 51 -11z m165 -18
c0 -5 -8 -7 -19 -4 -32 8 -33 -14 -1 -37 33 -24 39 -45 14 -54 -25 -10 -64 -7
-64 4 0 6 10 8 24 4 24 -6 51 16 28 24 -6 2 -22 12 -34 22 -19 15 -20 20 -9
34 14 17 61 22 61 7z m-193 -17 c-3 -3 -12 -4 -19 -1 -8 3 -5 6 6 6 11 1 17
-2 13 -5z m293 -24 c14 -26 -3 -60 -30 -60 -13 0 -20 -7 -20 -20 0 -11 -7 -20
-15 -20 -12 0 -15 13 -15 60 l0 60 35 0 c24 0 37 -6 45 -20z m78 -23 c3 -38 3
-38 -30 -35 -39 4 -45 28 -10 43 28 12 29 29 1 20 -15 -5 -19 -4 -14 5 4 6 17
10 28 8 18 -2 23 -11 25 -41z m92 33 c0 -5 -10 -9 -22 -7 -24 2 -38 -27 -21
-44 14 -14 43 0 43 21 0 39 71 55 78 18 3 -14 -3 -18 -27 -18 -24 0 -29 -4
-24 -16 3 -9 13 -14 24 -11 11 3 19 1 19 -4 0 -13 -47 -11 -55 1 -5 8 -11 7
-20 0 -8 -6 -24 -10 -37 -8 -17 2 -24 11 -26 32 -2 16 2 32 10 37 18 12 58 11
58 -1z m-457 -7 c-7 -2 -21 -2 -30 0 -10 3 -4 5 12 5 17 0 24 -2 18 -5z m4767
-328 l0 -75 -33 0 c-41 0 -57 15 -57 56 0 37 21 59 50 51 16 -4 20 0 20 19 0
13 5 24 10 24 6 0 10 -32 10 -75z m3540 0 c0 -43 -4 -75 -10 -75 -5 0 -10 25
-10 56 0 49 -2 55 -15 44 -9 -7 -18 -10 -22 -6 -7 7 35 56 49 56 4 0 8 -34 8
-75z m4910 0 c0 -43 -4 -75 -10 -75 -5 0 -10 25 -10 56 0 46 -2 54 -13 45 -8
-6 -17 -8 -20 -4 -7 6 32 50 46 52 4 1 7 -33 7 -74z m130 55 c9 -16 8 -20 -5
-20 -8 0 -15 5 -15 10 0 17 -37 11 -42 -8 -4 -13 2 -17 25 -17 38 0 55 -24 41
-62 -21 -62 -94 -29 -94 42 0 63 65 102 90 55z m-8692 -77 c2 -32 -1 -53 -7
-53 -6 0 -11 20 -11 46 0 38 -3 45 -17 42 -13 -2 -19 -15 -21 -46 -4 -56 -22
-54 -22 3 0 38 -3 45 -20 45 -17 0 -20 -7 -20 -45 0 -25 -4 -45 -10 -45 -5 0
-10 25 -10 55 l0 55 68 -2 67 -3 3 -52z m3757 47 c-3 -5 -13 -10 -21 -10 -10
0 -14 -12 -14 -45 0 -25 -4 -45 -10 -45 -5 0 -10 25 -10 55 0 55 0 55 31 55
17 0 28 -4 24 -10z m89 -12 c23 -33 20 -38 -24 -38 -22 0 -40 -5 -40 -10 0
-17 29 -23 45 -10 20 17 32 5 15 -15 -29 -35 -82 -9 -82 40 0 54 57 75 86 33z
m174 -35 c2 -32 -1 -53 -7 -53 -6 0 -11 20 -11 45 0 38 -3 45 -20 45 -17 0
-20 -7 -20 -45 0 -57 -18 -59 -22 -3 -2 31 -8 44 -20 46 -15 3 -18 -4 -18 -42
0 -34 -4 -46 -15 -46 -12 0 -15 13 -15 55 l0 55 73 -2 72 -3 3 -52z m4780 45
c7 -7 12 -26 12 -43 0 -37 -16 -55 -47 -55 -16 0 -23 -6 -23 -20 0 -11 -4 -20
-10 -20 -6 0 -10 32 -10 75 l0 75 33 0 c18 0 38 -5 45 -12z m59 -3 c5 -14 8
-14 24 1 25 23 35 11 15 -17 -14 -20 -13 -24 5 -51 17 -23 18 -28 5 -28 -8 0
-20 8 -25 18 -10 16 -12 16 -25 0 -23 -31 -39 -21 -20 11 16 28 16 31 0 55
-14 23 -15 26 -1 26 9 0 18 -7 22 -15z m-13499 -147 c32 -32 1 -88 -49 -88
-28 0 -29 1 -29 50 0 50 0 50 33 50 18 0 38 -5 45 -12z m102 -38 c0 -27 -4
-50 -10 -50 -5 0 -10 23 -10 50 0 28 5 50 10 50 6 0 10 -22 10 -50z m130 40
c0 -5 -10 -10 -22 -10 l-23 0 24 -19 c31 -24 25 -55 -12 -59 -15 -2 -27 1 -27
7 0 6 10 11 23 12 l22 0 -22 16 c-22 15 -30 43 -16 56 10 11 53 8 53 -3z m138
-22 c3 -22 -2 -29 -22 -34 -14 -3 -26 -12 -26 -20 0 -8 -4 -14 -10 -14 -5 0
-10 23 -10 51 l0 50 33 -3 c26 -2 33 -8 35 -30z m92 -8 c0 -29 4 -40 15 -40 8
0 15 -4 15 -10 0 -5 -11 -10 -25 -10 -23 0 -25 3 -25 50 0 28 5 50 10 50 6 0
10 -18 10 -40z m169 -6 c7 -26 9 -49 5 -53 -4 -3 -9 0 -11 7 -5 14 -43 16 -43
2 0 -5 -7 -10 -15 -10 -18 0 -18 -3 1 53 22 64 47 64 63 1z m110 29 c9 -17 10
-17 16 0 4 9 14 17 21 17 12 0 12 -5 -1 -30 -8 -16 -15 -38 -15 -50 0 -11 -7
-20 -15 -20 -8 0 -15 9 -15 20 0 12 -7 34 -15 50 -14 26 -14 30 -1 30 8 0 19
-8 25 -17z m-557 -347 c18 -47 16 -78 -3 -43 -12 21 -48 22 -55 2 -9 -24 -26
-18 -18 7 17 53 36 89 46 86 6 -2 19 -26 30 -52z m214 29 c9 -8 11 -15 5 -15
-15 0 -14 -43 2 -59 10 -10 8 -12 -8 -9 -14 2 -22 14 -25 38 -6 34 -3 60 7 60
2 0 11 -7 19 -15z m-168 -32 l10 -28 11 28 c6 15 15 27 21 27 6 0 4 -14 -5
-36 -8 -20 -15 -38 -15 -40 0 -2 -5 -4 -11 -4 -8 0 -39 58 -39 75 0 16 20 1
28 -22z m120 -16 c3 -38 3 -38 -30 -35 -42 4 -51 34 -14 44 14 3 26 11 26 16
0 6 -9 8 -20 5 -11 -3 -20 -1 -20 5 0 5 12 8 28 6 23 -3 27 -8 30 -41z m140 0
c3 -38 3 -38 -30 -35 -42 4 -51 34 -14 44 14 3 23 10 20 16 -3 5 -12 7 -20 4
-8 -3 -14 -1 -14 5 0 6 12 9 28 7 23 -3 27 -8 30 -41z m60 32 c-11 -6 -18 -22
-18 -39 0 -17 -4 -30 -10 -30 -5 0 -10 18 -10 40 0 37 2 40 28 40 23 -1 24 -2
10 -11z m3972 -64 c0 -43 -4 -75 -10 -75 -6 0 -10 32 -10 75 0 43 4 75 10 75
6 0 10 -32 10 -75z m3770 0 c0 -43 -4 -75 -10 -75 -5 0 -10 25 -10 56 0 49 -2
55 -15 44 -26 -22 -29 -2 -4 25 13 13 27 25 32 25 4 0 7 -34 7 -75z m170 0 c0
-43 -4 -75 -10 -75 -5 0 -10 25 -10 55 0 53 -1 55 -20 45 -11 -6 -20 -7 -20
-3 0 10 42 53 52 53 4 0 8 -34 8 -75z m118 63 c20 -20 13 -51 -20 -85 l-32
-33 32 0 c18 0 32 -4 32 -10 0 -5 -20 -10 -45 -10 -55 0 -58 14 -10 60 42 40
46 70 11 70 -13 0 -26 -6 -29 -12 -2 -7 -8 -10 -12 -6 -12 12 15 38 39 38 12
0 27 -5 34 -12z m122 2 c0 -5 -13 -10 -30 -10 -20 0 -30 -5 -30 -15 0 -9 9
-15 25 -15 24 0 45 -25 45 -54 0 -39 -65 -61 -90 -31 -16 19 -5 34 12 17 28
-28 65 -3 51 34 -4 12 -14 14 -38 10 -31 -6 -32 -5 -28 21 3 16 6 34 8 41 5
14 75 17 75 2z m4500 -65 c0 -43 -4 -75 -10 -75 -5 0 -10 25 -10 56 0 49 -2
55 -15 44 -10 -9 -15 -9 -15 -1 0 12 31 49 43 50 4 1 7 -33 7 -74z m126 38 c0
-18 3 -36 7 -39 11 -11 8 -49 -5 -62 -36 -36 -98 3 -82 51 4 12 6 33 5 46 -3
28 14 42 49 39 21 -3 25 -8 26 -35z m-8696 -68 c0 -70 -12 -88 -56 -83 -40 4
-42 26 -3 25 17 -1 34 3 36 10 3 7 -3 9 -16 6 -30 -8 -51 14 -51 51 0 41 15
56 57 54 l33 -1 0 -62z m4150 55 c0 -5 -7 -10 -15 -10 -11 0 -15 -12 -15 -45
0 -25 -4 -45 -10 -45 -5 0 -10 25 -10 55 0 52 1 55 25 55 14 0 25 -4 25 -10z
m97 -20 c12 -24 12 -25 -28 -28 -26 -2 -39 -8 -36 -15 5 -17 38 -21 48 -6 4 7
11 10 15 6 11 -11 -17 -37 -40 -37 -12 0 -27 5 -34 12 -16 16 -15 71 0 86 20
20 61 10 75 -18z m161 18 c14 -12 16 -98 2 -98 -5 0 -10 18 -10 40 0 28 -5 43
-16 47 -21 8 -34 -13 -34 -54 0 -18 -4 -33 -10 -33 -5 0 -10 21 -10 46 0 38
-3 45 -17 42 -13 -2 -19 -15 -21 -46 -5 -61 -22 -52 -22 12 l0 53 63 0 c34 0
68 -4 75 -9z m4399 0 c18 -14 16 -73 -2 -88 -8 -7 -24 -10 -35 -7 -16 4 -20 0
-20 -19 0 -13 -4 -24 -10 -24 -6 0 -10 31 -10 73 l0 74 32 1 c18 0 38 -4 45
-10z m60 -3 c5 -14 8 -14 24 1 25 23 35 11 15 -17 -14 -20 -13 -24 5 -51 17
-23 18 -28 5 -28 -8 0 -20 8 -25 18 -10 16 -12 16 -25 0 -23 -31 -39 -21 -20
11 16 28 16 31 0 55 -14 23 -15 26 -1 26 9 0 18 -7 22 -15z m-5127 -85 c0 -5
-7 -10 -15 -10 -8 0 -15 5 -15 10 0 6 7 10 15 10 8 0 15 -4 15 -10z m-8170
-118 c0 -4 -15 -7 -32 -7 -31 0 -33 -2 -36 -38 -3 -34 -1 -38 16 -33 22 7 52
-2 52 -15 0 -5 -9 -4 -20 3 -15 10 -22 10 -32 0 -6 -6 -16 -12 -20 -12 -10 0
-11 94 -1 103 9 10 73 9 73 -1z m280 -2 c0 -5 -7 -10 -15 -10 -8 0 -15 5 -15
10 0 6 7 10 15 10 8 0 15 -4 15 -10z m-101 -18 c12 -23 -4 -52 -29 -52 -13 0
-20 -7 -20 -20 0 -11 -4 -20 -10 -20 -5 0 -10 25 -10 55 0 54 0 55 30 55 18 0
33 -7 39 -18z m101 -52 c0 -29 -4 -40 -15 -40 -11 0 -15 11 -15 36 0 45 -24
42 -28 -4 -5 -46 -22 -39 -22 8 l0 40 40 0 40 0 0 -40z m128 -2 c2 -22 -1 -38
-7 -38 -6 0 -11 16 -11 35 0 19 -4 35 -9 35 -11 0 -21 -25 -21 -51 0 -10 -4
-19 -10 -19 -5 0 -10 16 -10 35 0 19 -4 35 -10 35 -5 0 -10 -16 -10 -35 0 -24
-5 -35 -15 -35 -11 0 -15 11 -15 40 l0 40 58 -2 57 -3 3 -37z m90 -1 c3 -38 3
-38 -30 -35 -42 4 -51 34 -14 44 14 3 23 10 20 16 -3 5 -12 7 -20 4 -8 -3 -14
-1 -14 5 0 6 12 9 28 7 23 -3 27 -8 30 -41z m93 16 l11 -28 10 28 c12 32 32
37 22 5 -16 -54 -40 -93 -59 -96 -20 -4 -20 -4 -1 11 18 14 19 18 6 56 -15 48
-34 49 -38 3 -5 -46 -22 -39 -22 8 0 38 2 40 30 40 24 0 33 -6 41 -27z m3829
-288 c0 -43 -4 -75 -10 -75 -6 0 -10 32 -10 75 0 43 4 75 10 75 6 0 10 -32 10
-75z m3670 0 c0 -43 -4 -75 -10 -75 -5 0 -10 25 -10 56 0 49 -2 55 -15 44 -9
-7 -18 -10 -22 -6 -7 7 35 56 49 56 4 0 8 -34 8 -75z m178 63 c20 -20 13 -51
-20 -85 l-32 -33 32 0 c18 0 32 -4 32 -10 0 -5 -23 -10 -50 -10 -45 0 -50 2
-41 18 5 9 23 30 40 46 38 36 41 66 7 66 -13 0 -26 -6 -29 -12 -2 -7 -8 -10
-12 -6 -12 12 15 38 39 38 12 0 27 -5 34 -12z m122 2 c0 -5 -13 -10 -30 -10
-20 0 -30 -5 -30 -15 0 -8 9 -15 20 -15 11 0 27 -11 36 -25 15 -23 15 -27 0
-50 -19 -28 -57 -33 -76 -10 -17 20 -5 32 15 15 21 -18 47 -5 43 22 -2 19 -9
23 -36 21 -30 -1 -33 1 -28 20 3 12 6 30 6 40 0 13 9 17 40 17 22 0 40 -4 40
-10z m4628 -2 c21 -21 13 -49 -22 -84 l-34 -34 34 0 c19 0 34 -4 34 -10 0 -5
-22 -10 -50 -10 -29 0 -50 4 -50 11 0 6 16 25 35 42 40 35 48 77 15 77 -11 0
-20 -4 -20 -10 0 -5 -7 -10 -15 -10 -13 0 -14 4 -5 20 12 23 59 27 78 8z m104
-5 c12 -10 18 -30 18 -56 0 -68 -52 -102 -84 -55 -31 43 -10 128 31 128 9 0
25 -7 35 -17z m-13122 -11 c0 -4 -15 -7 -32 -7 -31 0 -33 -2 -36 -38 -3 -34
-1 -38 16 -33 22 7 52 -2 52 -15 0 -5 -9 -4 -20 3 -15 10 -22 10 -32 0 -6 -6
-16 -12 -20 -12 -10 0 -11 94 -1 103 9 10 73 9 73 -1z m770 -2 c0 -5 -4 -10
-10 -10 -5 0 -10 5 -10 10 0 6 5 10 10 10 6 0 10 -4 10 -10z m100 -9 c0 -13 8
-21 23 -23 18 -2 23 -10 25 -40 2 -21 -1 -38 -7 -38 -5 0 -11 14 -13 32 -4 46
-28 49 -28 4 0 -25 -4 -36 -15 -36 -12 0 -15 13 -15 60 0 47 3 60 15 60 8 0
15 -9 15 -19z m290 -41 c0 -33 -4 -60 -10 -60 -6 0 -10 27 -10 60 0 33 4 60
10 60 6 0 10 -27 10 -60z m40 0 c0 -33 -4 -60 -10 -60 -6 0 -10 27 -10 60 0
33 4 60 10 60 6 0 10 -27 10 -60z m40 41 c0 -12 8 -21 21 -23 56 -8 48 -70
-10 -76 l-31 -3 0 60 c0 34 4 61 10 61 6 0 10 -9 10 -19z m250 -13 c0 -25 3
-29 12 -20 7 7 19 12 27 12 11 0 10 -4 -4 -20 -17 -19 -17 -21 0 -40 14 -16
15 -20 4 -20 -8 0 -20 5 -27 12 -9 9 -12 9 -12 0 0 -7 -4 -12 -10 -12 -6 0
-10 27 -10 60 0 33 4 60 10 60 6 0 10 -14 10 -32z m-1360 -33 c0 -30 -4 -55
-10 -55 -5 0 -10 25 -10 55 0 30 5 55 10 55 6 0 10 -25 10 -55z m487 25 c3
-16 9 -30 13 -30 5 0 11 14 15 30 9 41 29 38 42 -7 l10 -38 8 33 c7 30 21 49
30 40 2 -2 -3 -27 -11 -56 -18 -62 -40 -68 -50 -14 l-7 37 -12 -35 c-16 -48
-35 -44 -51 10 -17 55 -17 60 -4 60 6 0 13 -13 17 -30z m416 23 c-15 -3 -23
-12 -23 -24 0 -13 7 -19 23 -20 l22 -2 -22 -4 c-16 -3 -23 -11 -23 -29 0 -15
-6 -24 -15 -24 -12 0 -15 13 -15 55 l0 55 38 -1 c23 -1 28 -3 15 -6z m-217
-18 c9 -8 11 -15 5 -15 -15 0 -14 -43 2 -59 10 -10 8 -12 -8 -9 -14 2 -22 14
-25 38 -6 34 -3 60 7 60 2 0 11 -7 19 -15z m3510 -2 c12 -17 13 -17 19 0 4 9
14 17 22 17 13 0 13 -4 -2 -26 -15 -24 -15 -27 0 -51 21 -31 9 -45 -14 -17
l-16 21 -17 -21 c-22 -29 -34 -14 -13 17 15 24 15 27 0 51 -20 30 -1 38 21 9z
m4144 7 c0 -5 -7 -10 -15 -10 -11 0 -15 -12 -15 -45 0 -33 -4 -45 -15 -45 -12
0 -15 13 -15 55 0 54 0 55 30 55 17 0 30 -4 30 -10z m88 -2 c7 -7 12 -20 12
-30 0 -14 -8 -18 -35 -18 -19 0 -35 -5 -35 -10 0 -17 29 -23 45 -10 20 17 31
5 15 -15 -19 -23 -62 -15 -79 16 -13 24 -13 29 2 53 19 28 54 35 75 14z m170
0 c18 -15 16 -98 -3 -98 -11 0 -15 12 -15 45 0 32 -4 45 -14 45 -17 0 -26 -22
-26 -61 0 -16 -4 -29 -10 -29 -5 0 -10 20 -10 45 0 32 -4 45 -14 45 -17 0 -26
-22 -26 -61 0 -16 -4 -29 -10 -29 -5 0 -10 24 -10 54 l0 53 63 0 c34 0 68 -4
75 -9z m4510 0 c7 -7 12 -26 12 -43 0 -37 -16 -55 -47 -55 -16 0 -23 -6 -23
-20 0 -11 -4 -20 -10 -20 -6 0 -10 32 -10 75 l0 75 33 0 c18 0 38 -5 45 -12z
m59 -3 c5 -14 8 -14 24 1 25 23 35 11 15 -17 -14 -20 -13 -24 5 -51 17 -23 18
-28 5 -28 -8 0 -20 8 -25 18 -10 16 -12 16 -25 0 -23 -31 -39 -21 -20 11 16
28 16 31 0 55 -14 23 -15 26 -1 26 9 0 18 -7 22 -15z m-13029 -47 c2 -21 -1
-38 -7 -38 -5 0 -11 15 -13 33 -2 17 -7 32 -13 32 -5 0 -11 -15 -13 -32 -2
-18 -7 -33 -12 -33 -5 0 -10 15 -12 33 -2 17 -7 32 -13 32 -5 0 -11 -15 -13
-32 -5 -47 -22 -41 -22 7 l0 40 58 -2 57 -3 3 -37z m80 -1 c3 -38 3 -38 -30
-35 -39 4 -45 28 -10 43 28 12 29 29 1 20 -15 -5 -19 -4 -14 5 4 6 17 10 28 8
18 -2 23 -11 25 -41z m102 -5 c0 -26 -5 -53 -12 -60 -15 -15 -68 -16 -68 -1 0
6 9 8 21 4 14 -5 25 -2 30 6 6 10 1 15 -19 19 -19 4 -28 12 -30 28 -6 39 5 52
43 52 l35 0 0 -48z m88 26 c3 -14 -3 -18 -27 -18 -24 0 -29 -4 -24 -16 4 -11
13 -14 30 -9 16 4 22 2 18 -5 -11 -18 -54 -11 -65 10 -16 31 4 62 38 58 16 -2
28 -10 30 -20z m232 -18 c0 -22 -4 -40 -10 -40 -5 0 -10 18 -10 40 0 22 5 40
10 40 6 0 10 -18 10 -40z m348 -3 c3 -38 3 -38 -30 -35 -42 4 -51 34 -14 44
14 3 23 10 20 16 -3 5 -12 7 -20 4 -8 -3 -14 -1 -14 5 0 6 12 9 28 7 23 -3 27
-8 30 -41z m260 1 c3 -38 3 -38 -33 -38 -32 0 -36 3 -33 22 2 14 12 24 28 28
15 4 20 9 13 13 -6 4 -19 4 -29 0 -12 -4 -15 -3 -10 6 4 7 20 11 34 9 23 -3
27 -8 30 -40z m82 32 c0 -5 -10 -9 -22 -7 -18 2 -23 -3 -23 -23 0 -20 4 -25
23 -23 13 2 21 -1 17 -7 -8 -14 -38 -13 -53 2 -27 27 -6 68 35 68 13 0 23 -4
23 -10z m6710 -70 c0 -5 -7 -10 -15 -10 -8 0 -15 5 -15 10 0 6 7 10 15 10 8 0
15 -4 15 -10z m-8390 -380 c0 -5 -7 -10 -15 -10 -21 0 -19 -13 5 -28 17 -10
18 -16 10 -32 -6 -12 -21 -20 -35 -20 -31 0 -33 20 -2 21 l22 0 -22 16 c-22
15 -30 43 -16 56 10 11 53 8 53 -3z m92 -27 c2 -26 8 -38 18 -38 10 0 16 12
18 38 2 20 8 37 13 37 6 0 9 -19 7 -41 -3 -49 -27 -71 -55 -53 -20 12 -32 94
-14 94 5 0 11 -17 13 -37z m196 13 c2 -10 -2 -22 -10 -27 -8 -5 -8 -9 -2 -9 7
0 14 -9 17 -20 7 -28 -17 -26 -31 3 l-11 22 0 -22 c-1 -14 -7 -23 -16 -23 -11
0 -15 12 -15 51 l0 50 32 -3 c23 -2 34 -9 36 -22z m132 14 c0 -5 -7 -10 -15
-10 -18 0 -20 -16 -2 -24 10 -5 10 -7 0 -12 -7 -3 -13 -14 -13 -25 0 -10 -7
-19 -15 -19 -11 0 -15 12 -15 50 0 49 1 50 30 50 17 0 30 -4 30 -10z m134 -37
c19 -56 19 -53 1 -53 -8 0 -15 5 -15 10 0 6 -9 10 -20 10 -11 0 -20 -4 -20
-10 0 -5 -5 -10 -11 -10 -7 0 -9 10 -5 25 22 88 46 98 70 28z m146 38 c0 -5
-9 -11 -20 -14 -12 -3 -20 -14 -20 -27 0 -13 8 -24 20 -27 26 -7 26 -23 1 -23
-25 0 -51 26 -51 50 0 10 7 26 16 34 17 17 54 22 54 7z m130 -1 c0 -5 -7 -10
-15 -10 -18 0 -20 -16 -2 -24 10 -5 10 -7 0 -12 -18 -8 -16 -24 2 -24 8 0 15
-4 15 -10 0 -5 -13 -10 -30 -10 -29 0 -30 1 -30 50 0 49 1 50 30 50 17 0 30
-4 30 -10z m120 0 c0 -5 -7 -10 -15 -10 -21 0 -19 -13 5 -28 17 -10 18 -16 10
-32 -6 -12 -21 -20 -35 -20 -31 0 -33 20 -2 21 l22 0 -22 16 c-22 15 -30 43
-16 56 10 11 53 8 53 -3z m3650 -29 c16 -31 12 -41 -26 -77 l-35 -34 35 0 c20
0 36 -4 36 -10 0 -5 -22 -10 -50 -10 -27 0 -50 4 -50 8 0 5 18 28 41 50 22 23
39 48 37 55 -6 15 -48 22 -48 8 0 -6 -7 -11 -15 -11 -13 0 -14 4 -5 20 14 27
65 27 80 1z m150 -56 c0 -43 -4 -75 -10 -75 -6 0 -10 32 -10 75 0 43 4 75 10
75 6 0 10 -32 10 -75z m3560 0 c0 -43 -4 -75 -10 -75 -5 0 -10 25 -10 56 0 49
-2 55 -15 44 -26 -22 -29 -2 -4 25 13 13 27 25 32 25 4 0 7 -34 7 -75z m190
65 c0 -5 -13 -10 -30 -10 -20 0 -30 -5 -30 -15 0 -8 9 -15 20 -15 11 0 27 -11
36 -25 15 -23 15 -27 0 -50 -19 -28 -57 -33 -76 -10 -17 20 -5 32 15 15 21
-18 47 -5 43 22 -2 19 -9 23 -36 21 -30 -1 -33 1 -28 20 3 12 6 30 6 40 0 13
9 17 40 17 22 0 40 -4 40 -10z m4740 -9 c16 -31 12 -41 -26 -77 l-35 -34 35 0
c20 0 36 -4 36 -10 0 -5 -22 -10 -50 -10 -27 0 -50 4 -50 8 0 5 18 28 41 50
22 23 39 48 37 55 -6 15 -48 22 -48 8 0 -6 -7 -11 -15 -11 -13 0 -14 4 -5 20
14 27 65 27 80 1z m100 -31 c0 -27 4 -50 9 -50 5 0 4 -11 -2 -25 -13 -28 -27
-33 -27 -10 0 10 -10 15 -30 15 -17 0 -30 5 -30 13 0 18 58 107 70 107 6 0 10
-22 10 -50z m-8684 -7 c12 -17 13 -17 19 0 4 9 14 17 22 17 13 0 13 -4 -2 -26
-15 -24 -15 -27 0 -51 21 -31 9 -45 -14 -17 l-16 21 -17 -21 c-22 -29 -34 -14
-13 17 15 24 15 27 0 51 -20 30 -1 38 21 9z m3924 8 c0 -5 -9 -11 -20 -14 -16
-4 -20 -14 -20 -46 0 -23 -4 -41 -10 -41 -5 0 -10 25 -10 55 0 54 0 55 30 55
17 0 30 -4 30 -9z m88 -3 c7 -7 12 -20 12 -30 0 -14 -8 -18 -35 -18 -24 0 -35
-5 -35 -15 0 -18 31 -20 48 -3 17 17 28 2 12 -17 -29 -35 -82 -9 -82 40 0 47
49 74 80 43z m170 -45 c2 -32 -1 -53 -7 -53 -6 0 -11 20 -11 46 0 38 -3 45
-17 42 -13 -2 -19 -15 -21 -46 -4 -57 -22 -54 -22 4 0 38 -3 45 -17 42 -13 -2
-19 -15 -21 -46 -5 -61 -22 -52 -22 12 l0 53 68 -1 67 -1 3 -52z m4619 45 c18
-14 16 -73 -2 -88 -8 -7 -24 -10 -35 -7 -16 4 -20 0 -20 -19 0 -13 -4 -24 -10
-24 -6 0 -10 31 -10 73 l0 74 32 1 c18 0 38 -4 45 -10z m60 -3 c5 -14 8 -14
24 1 25 23 35 11 15 -17 -14 -20 -13 -24 5 -51 17 -23 18 -28 5 -28 -8 0 -20
8 -25 18 -10 16 -12 16 -25 0 -23 -31 -39 -21 -20 11 16 28 16 31 0 55 -14 23
-15 26 -1 26 9 0 18 -7 22 -15z m-5127 -85 c0 -5 -7 -10 -15 -10 -8 0 -15 5
-15 10 0 6 7 10 15 10 8 0 15 -4 15 -10z m-8195 -205 c0 -49 -1 -50 -32 -53
l-33 -3 0 56 0 56 33 -3 c31 -3 32 -4 32 -53z m99 3 c15 -24 -3 -52 -37 -56
-33 -4 -53 28 -37 59 14 25 58 23 74 -3z m42 11 c4 -8 9 -8 17 0 18 18 28 12
15 -9 -10 -16 -10 -24 0 -40 10 -17 10 -20 -3 -20 -8 0 -15 5 -15 12 0 9 -3 9
-12 0 -7 -7 -19 -12 -27 -12 -11 0 -10 4 4 20 14 16 16 23 7 32 -7 7 -12 16
-12 20 0 12 18 10 26 -3z m4254 -248 c0 -30 5 -52 13 -55 10 -5 10 -7 0 -12
-7 -3 -13 -12 -13 -20 0 -8 -4 -14 -10 -14 -5 0 -10 7 -10 15 0 10 -10 15 -29
15 -17 0 -32 3 -34 8 -6 10 60 112 73 112 5 0 10 -22 10 -49z m160 -26 c0 -43
-4 -75 -10 -75 -6 0 -10 32 -10 75 0 43 4 75 10 75 6 0 10 -32 10 -75z m3580
54 c13 -22 -5 -58 -44 -91 -21 -17 -21 -17 11 -18 17 0 35 -4 38 -10 4 -6 -13
-10 -44 -10 -29 0 -51 5 -51 10 0 6 16 26 35 46 38 38 46 74 17 74 -10 0 -23
-5 -30 -12 -17 -17 -28 -2 -12 17 19 22 67 19 80 -6z m4900 7 c6 -8 10 -23 9
-33 -1 -10 1 -26 6 -36 4 -10 3 -29 -3 -43 -15 -31 -66 -34 -82 -4 -9 16 -8
20 5 20 8 0 15 -4 15 -10 0 -16 37 -11 44 6 8 20 -1 34 -20 34 -19 0 -18 16 1
24 22 8 18 36 -5 36 -11 0 -20 -4 -20 -10 0 -5 -7 -10 -15 -10 -13 0 -14 4 -5
20 12 23 52 27 70 6z m118 2 c21 -21 13 -49 -22 -84 l-34 -34 34 0 c19 0 34
-4 34 -10 0 -5 -22 -10 -50 -10 -29 0 -50 4 -50 11 0 6 16 25 35 42 40 35 48
77 15 77 -11 0 -20 -4 -20 -10 0 -5 -7 -10 -15 -10 -13 0 -14 4 -5 20 12 23
59 27 78 8z m-8692 -45 c12 -17 13 -17 19 0 4 9 14 17 22 17 13 0 13 -4 -2
-26 -15 -24 -15 -27 0 -51 21 -31 9 -45 -14 -17 l-16 21 -17 -21 c-22 -29 -34
-14 -13 17 15 24 15 27 0 51 -20 30 -1 38 21 9z m3759 7 c-3 -5 -13 -10 -21
-10 -10 0 -14 -12 -14 -45 0 -25 -4 -45 -10 -45 -5 0 -10 25 -10 55 0 55 0 55
31 55 17 0 28 -4 24 -10z m89 -12 c23 -33 20 -38 -24 -38 -22 0 -40 -5 -40
-10 0 -17 29 -23 45 -10 20 17 32 5 15 -15 -29 -35 -82 -9 -82 40 0 54 57 75
86 33z m174 -35 c2 -32 -1 -53 -7 -53 -6 0 -11 20 -11 45 0 38 -3 45 -20 45
-17 0 -20 -7 -20 -45 0 -57 -18 -59 -22 -3 -2 31 -8 44 -20 46 -15 3 -18 -4
-18 -42 0 -34 -4 -46 -15 -46 -12 0 -15 13 -15 55 l0 55 73 -2 72 -3 3 -52z
m4780 45 c7 -7 12 -26 12 -43 0 -37 -16 -55 -47 -55 -16 0 -23 -6 -23 -20 0
-11 -4 -20 -10 -20 -6 0 -10 32 -10 75 l0 75 33 0 c18 0 38 -5 45 -12z m59 -3
c5 -14 8 -14 24 1 25 23 35 11 15 -17 -14 -20 -13 -24 5 -51 17 -23 18 -28 5
-28 -8 0 -20 8 -25 18 -10 16 -12 16 -25 0 -23 -31 -39 -21 -20 11 16 28 16
31 0 55 -14 23 -15 26 -1 26 9 0 18 -7 22 -15z m-13517 -205 c0 -5 -7 -10 -15
-10 -8 0 -15 -4 -15 -10 0 -5 7 -10 15 -10 8 0 15 -4 15 -10 0 -5 -7 -10 -15
-10 -8 0 -15 -9 -15 -20 0 -11 -7 -20 -15 -20 -11 0 -15 12 -15 50 0 49 1 50
30 50 17 0 30 -4 30 -10z m138 -2 c7 -7 12 -24 12 -38 0 -30 -16 -50 -41 -50
-23 0 -49 27 -49 50 0 39 52 64 78 38z m150 -15 c2 -14 -2 -23 -9 -23 -10 0
-10 -3 -1 -12 7 -7 12 -18 12 -25 0 -21 -21 -15 -27 7 -3 11 -9 20 -14 20 -5
0 -9 -9 -9 -20 0 -11 -4 -20 -10 -20 -5 0 -10 23 -10 51 l0 50 33 -3 c24 -2
33 -8 35 -25z m118 2 c3 -14 10 -25 15 -25 5 0 9 11 9 25 0 18 5 25 20 25 17
0 20 -7 20 -50 0 -54 -19 -71 -21 -17 l-1 32 -10 -32 c-14 -44 -32 -42 -45 5
l-10 37 -2 -37 c-2 -57 -21 -46 -21 12 0 43 3 50 20 50 13 0 22 -9 26 -25z
m4194 -264 c0 -5 -12 -11 -27 -13 -36 -4 -41 -26 -7 -30 36 -4 51 -29 38 -65
-12 -37 -67 -46 -84 -14 -9 17 -8 21 5 21 8 0 15 -5 15 -11 0 -6 10 -9 23 -7
16 2 22 10 22 28 0 22 -4 25 -32 24 -28 -2 -33 1 -33 21 0 43 10 55 46 55 19
0 34 -4 34 -9z m150 -66 c0 -43 -4 -75 -10 -75 -6 0 -10 32 -10 75 0 43 4 75
10 75 6 0 10 -32 10 -75z m3580 56 c14 -27 14 -26 -26 -71 l-36 -40 30 0 c17
0 34 -4 37 -10 4 -6 -13 -10 -44 -10 -29 0 -51 5 -51 10 0 6 16 26 35 46 38
38 46 74 17 74 -10 0 -23 -5 -30 -12 -17 -17 -28 -2 -12 17 18 22 67 19 80 -4z
m158 7 c20 -20 13 -51 -20 -85 l-32 -33 32 0 c18 0 32 -4 32 -10 0 -5 -20 -10
-45 -10 -55 0 -58 14 -10 60 42 40 46 70 11 70 -13 0 -26 -6 -29 -12 -2 -7 -8
-10 -12 -6 -12 12 15 38 39 38 12 0 27 -5 34 -12z m122 2 c0 -5 -13 -10 -30
-10 -20 0 -30 -5 -30 -15 0 -8 9 -15 20 -15 11 0 27 -11 36 -25 15 -23 15 -27
0 -50 -19 -28 -57 -33 -76 -10 -17 20 -5 32 15 15 21 -18 47 -5 43 22 -2 19
-9 23 -36 21 -30 -1 -33 1 -28 20 3 12 6 30 6 40 0 13 9 17 40 17 22 0 40 -4
40 -10z m4620 -4 c6 -8 10 -23 9 -33 -1 -10 1 -26 6 -36 4 -10 3 -29 -3 -43
-15 -31 -66 -34 -82 -4 -12 23 -8 25 19 8 10 -6 26 -8 35 -5 22 9 20 38 -4 44
-24 6 -26 19 -5 27 8 3 15 12 15 21 0 18 -36 20 -43 3 -2 -7 -8 -10 -12 -6 -4
4 -5 14 -2 23 8 19 51 20 67 1z m120 -6 c9 -16 8 -20 -5 -20 -8 0 -15 5 -15
10 0 6 -9 10 -20 10 -11 0 -20 -2 -20 -4 0 -2 -2 -11 -5 -19 -5 -10 1 -13 24
-9 25 3 32 0 42 -22 27 -59 -39 -106 -75 -54 -34 48 -9 128 39 128 14 0 29 -9
35 -20z m-13155 -65 c0 -49 -1 -50 -32 -53 l-33 -3 0 56 0 56 33 -3 c31 -3 32
-4 32 -53z m145 35 c0 -14 28 -12 32 2 3 9 9 8 22 -5 10 -9 13 -17 7 -17 -15
0 -14 -57 2 -64 6 -3 3 -5 -8 -3 -15 2 -21 11 -23 35 -4 42 -32 44 -32 3 0
-16 6 -32 13 -34 6 -3 2 -6 -10 -6 -20 -1 -23 4 -23 34 0 19 -5 35 -10 35 -6
0 -5 6 2 15 15 17 28 19 28 5z m4316 -7 c12 -17 13 -17 19 0 4 9 14 17 22 17
13 0 13 -4 -2 -26 -15 -24 -15 -27 0 -51 21 -31 9 -45 -14 -17 l-16 21 -17
-21 c-22 -29 -34 -14 -13 17 15 24 15 27 0 51 -20 30 -1 38 21 9z m4034 7 c0
-5 -7 -10 -15 -10 -11 0 -15 -12 -15 -45 0 -25 -4 -45 -10 -45 -5 0 -10 25
-10 55 0 52 1 55 25 55 14 0 25 -4 25 -10z m88 -2 c7 -7 12 -20 12 -30 0 -14
-8 -18 -35 -18 -24 0 -35 -5 -35 -15 0 -18 31 -20 48 -3 17 17 28 2 12 -17
-29 -35 -82 -9 -82 40 0 47 49 74 80 43z m170 0 c14 -12 16 -98 2 -98 -5 0
-10 18 -10 40 0 28 -5 43 -16 47 -21 8 -34 -13 -34 -54 0 -18 -4 -33 -10 -33
-5 0 -10 21 -10 46 0 38 -3 45 -17 42 -13 -2 -19 -15 -21 -46 -5 -61 -22 -52
-22 12 l0 53 63 0 c34 0 68 -4 75 -9z m4509 0 c18 -14 16 -73 -2 -88 -8 -7
-24 -10 -35 -7 -16 4 -20 0 -20 -19 0 -13 -4 -24 -10 -24 -6 0 -10 31 -10 73
l0 74 32 1 c18 0 38 -4 45 -10z m60 -3 c5 -14 8 -14 24 1 25 23 35 11 15 -17
-14 -20 -13 -24 5 -51 17 -23 18 -28 5 -28 -8 0 -20 8 -25 18 -10 16 -12 16
-25 0 -23 -31 -39 -21 -20 11 16 28 16 31 0 55 -14 23 -15 26 -1 26 9 0 18 -7
22 -15z m-13277 -41 c0 -45 24 -42 28 4 5 46 22 39 22 -9 0 -39 -1 -40 -32
-37 -30 3 -33 6 -36 41 -2 21 1 37 7 37 6 0 11 -16 11 -36z m258 -1 c3 -28 -1
-33 -22 -39 -39 -9 -56 2 -56 35 0 32 12 41 50 38 20 -2 26 -8 28 -34z m90 -5
c2 -22 -1 -38 -7 -38 -6 0 -11 16 -11 36 0 45 -24 42 -28 -4 -5 -46 -22 -39
-22 9 0 39 1 40 33 37 29 -3 32 -6 35 -40z m7802 -38 c0 -5 -7 -10 -15 -10 -8
0 -15 5 -15 10 0 6 7 10 15 10 8 0 15 -4 15 -10z m-8140 -189 c0 -13 8 -21 23
-23 18 -2 23 -10 25 -40 2 -22 -1 -38 -7 -38 -6 0 -11 16 -11 36 0 45 -24 42
-28 -4 -6 -56 -22 -34 -22 28 0 33 4 60 10 60 6 0 10 -9 10 -19z m250 -13 c0
-25 3 -29 12 -20 7 7 19 12 27 12 11 0 10 -4 -4 -20 -17 -19 -17 -21 0 -40 14
-16 15 -20 4 -20 -8 0 -20 5 -27 12 -9 9 -12 9 -12 0 0 -7 -4 -12 -10 -12 -6
0 -10 27 -10 60 0 33 4 60 10 60 6 0 10 -14 10 -32z m80 13 c0 -14 8 -21 28
-23 54 -6 37 -78 -19 -78 -29 0 -29 1 -29 60 0 33 4 60 10 60 6 0 10 -9 10
-19z m-370 0 c0 -4 -11 -6 -24 -4 -33 7 -53 -29 -37 -64 9 -20 17 -24 36 -20
14 2 25 0 25 -4 0 -15 -53 -10 -72 8 -36 32 -8 93 43 93 16 0 29 -4 29 -9z
m178 -43 c3 -14 -3 -18 -27 -18 -24 0 -29 -4 -24 -16 4 -11 13 -14 30 -9 16 4
22 2 18 -5 -11 -18 -54 -11 -65 10 -16 31 4 62 38 58 16 -2 28 -10 30 -20z
m82 12 c0 -5 -10 -9 -22 -7 -18 2 -23 -3 -23 -23 0 -20 4 -25 23 -23 13 2 21
-1 17 -7 -3 -6 -14 -10 -24 -10 -35 0 -54 43 -29 68 14 14 58 16 58 2z m264
-12 c14 -23 -3 -52 -33 -56 -42 -6 -67 38 -39 66 17 17 58 11 72 -10z m40 10
c5 -10 7 -10 12 0 3 6 12 12 20 12 12 0 12 -4 2 -20 -10 -16 -10 -24 0 -40 10
-16 10 -20 -2 -20 -8 0 -17 6 -20 13 -5 10 -7 10 -12 0 -3 -7 -13 -13 -21 -13
-14 0 -14 2 0 18 15 16 15 20 1 40 -13 19 -13 22 0 22 8 0 17 -6 20 -12z
m3826 -188 c9 -16 8 -20 -5 -20 -8 0 -15 5 -15 10 0 17 -37 11 -42 -8 -4 -13
2 -17 25 -17 38 0 55 -24 41 -62 -21 -62 -94 -29 -94 42 0 63 65 102 90 55z
m150 -55 c0 -43 -4 -75 -10 -75 -6 0 -10 32 -10 75 0 43 4 75 10 75 6 0 10
-32 10 -75z m3570 60 c7 -8 10 -24 7 -35 -3 -11 -1 -23 4 -26 14 -8 11 -41 -7
-58 -20 -20 -58 -21 -74 -1 -16 19 -5 34 12 17 22 -22 48 -14 48 13 0 16 -6
25 -15 25 -8 0 -15 4 -15 9 0 5 7 11 15 15 22 8 18 36 -5 36 -11 0 -20 -4 -20
-10 0 -5 -7 -10 -15 -10 -13 0 -14 4 -5 20 13 24 52 26 70 5z m4910 -34 c0
-30 5 -52 13 -55 10 -5 10 -7 0 -12 -7 -3 -13 -12 -13 -20 0 -8 -4 -14 -10
-14 -5 0 -10 7 -10 15 0 10 -10 15 -29 15 -17 0 -32 3 -34 8 -6 10 60 112 73
112 5 0 10 -22 10 -49z m116 12 c0 -18 3 -36 7 -39 11 -11 8 -49 -5 -62 -36
-36 -98 3 -82 51 4 12 7 32 5 44 -4 34 7 44 42 41 29 -3 32 -7 33 -35z m-8690
-20 c12 -17 13 -17 19 0 4 9 14 17 22 17 13 0 13 -4 -2 -26 -15 -24 -15 -27 0
-51 21 -31 9 -45 -14 -17 l-16 21 -17 -21 c-22 -29 -34 -14 -13 17 15 24 15
27 0 51 -20 30 -1 38 21 9z m3759 7 c-3 -5 -13 -10 -21 -10 -10 0 -14 -12 -14
-45 0 -25 -4 -45 -10 -45 -5 0 -10 25 -10 55 0 55 0 55 31 55 17 0 28 -4 24
-10z m89 -12 c23 -33 20 -38 -24 -38 -22 0 -40 -5 -40 -10 0 -17 29 -23 45
-10 20 17 32 5 15 -15 -29 -35 -82 -9 -82 40 0 54 57 75 86 33z m174 -35 c2
-32 -1 -53 -7 -53 -6 0 -11 20 -11 45 0 38 -3 45 -20 45 -17 0 -20 -7 -20 -45
0 -57 -18 -59 -22 -3 -2 31 -8 44 -20 46 -15 3 -18 -4 -18 -42 0 -34 -4 -46
-15 -46 -12 0 -15 13 -15 55 l0 55 73 -2 72 -3 3 -52z m4780 45 c7 -7 12 -26
12 -43 0 -37 -16 -55 -47 -55 -16 0 -23 -6 -23 -20 0 -11 -4 -20 -10 -20 -6 0
-10 32 -10 75 l0 75 33 0 c18 0 38 -5 45 -12z m59 -3 c5 -14 8 -14 24 1 25 23
35 11 15 -17 -14 -20 -13 -24 5 -51 17 -23 18 -28 5 -28 -8 0 -20 8 -25 18
-10 16 -12 16 -25 0 -23 -31 -39 -21 -20 11 16 28 16 31 0 55 -14 23 -15 26
-1 26 9 0 18 -7 22 -15z m-13127 -45 c0 -22 16 -27 22 -8 3 9 9 8 22 -5 10 -9
13 -17 7 -17 -15 0 -14 -57 2 -63 6 -3 2 -6 -10 -6 -20 -1 -23 4 -23 34 0 19
-4 35 -10 35 -5 0 -10 -16 -10 -35 0 -24 -5 -35 -15 -35 -12 0 -15 13 -15 60
0 47 3 60 15 60 8 0 15 -9 15 -20z m90 10 c0 -5 -4 -10 -10 -10 -5 0 -10 5
-10 10 0 6 5 10 10 10 6 0 10 -4 10 -10z m-306 -42 l18 -43 16 43 c23 61 42
55 42 -13 0 -58 -20 -79 -21 -22 l0 32 -16 -32 c-9 -18 -19 -33 -23 -33 -4 0
-14 15 -23 33 l-16 32 0 -32 c-1 -57 -21 -36 -21 22 0 68 19 74 44 13z m396
32 c0 -6 -11 -8 -25 -4 -34 8 -33 -14 2 -42 34 -27 26 -54 -17 -54 -16 0 -30
4 -30 8 0 5 10 8 21 8 32 -1 35 22 5 35 -25 12 -34 38 -19 52 10 11 63 8 63
-3z m36 -15 c9 -8 11 -15 5 -15 -15 0 -14 -43 2 -59 10 -10 8 -12 -8 -9 -14 2
-22 14 -25 38 -6 34 -3 60 7 60 2 0 11 -7 19 -15z m-314 -37 c4 -46 28 -49 28
-4 0 25 4 36 15 36 11 0 15 -11 15 -41 l0 -40 -37 3 c-36 3 -38 5 -41 41 -2
20 1 37 7 37 5 0 11 -14 13 -32z m188 -8 c0 -22 -4 -40 -10 -40 -5 0 -10 18
-10 40 0 22 5 40 10 40 6 0 10 -18 10 -40z m218 28 c20 -20 14 -28 -19 -28
-20 0 -29 -4 -26 -12 2 -7 14 -13 26 -12 11 0 21 -3 21 -8 0 -5 -15 -8 -32 -6
-26 2 -34 8 -36 26 -6 42 37 69 66 40z m100 -16 c4 -28 -14 -52 -39 -52 -12 0
-19 -7 -19 -20 0 -11 -4 -20 -10 -20 -6 0 -10 27 -10 61 l0 60 38 -3 c30 -2
38 -7 40 -26z m-610 -239 c-14 -3 -18 -15 -18 -54 0 -27 -4 -49 -10 -49 -5 0
-10 22 -10 49 0 39 -4 51 -17 54 -10 3 2 5 27 5 25 0 37 -2 28 -5z m340 -45
c21 -55 20 -76 -2 -45 -16 21 -56 23 -56 2 0 -8 -6 -15 -14 -15 -11 0 -10 11
7 55 12 30 27 55 34 55 6 0 20 -24 31 -52z m-142 27 c9 -8 11 -15 5 -15 -15 0
-14 -57 2 -64 6 -3 3 -5 -8 -3 -15 2 -21 11 -23 35 -2 17 -8 32 -13 32 -16 0
-23 -32 -10 -51 9 -15 8 -19 -3 -19 -8 0 -17 6 -20 13 -5 10 -7 10 -12 0 -3
-7 -13 -13 -21 -13 -14 0 -14 2 0 18 15 16 15 21 2 38 -13 17 -14 17 -15 2 0
-13 -8 -18 -30 -18 -23 0 -28 -4 -23 -16 3 -9 13 -14 24 -11 11 3 19 1 19 -5
0 -16 -52 -4 -64 15 -19 29 4 52 55 53 24 1 48 -3 52 -10 6 -8 10 -8 14 2 2 6
13 12 24 12 10 0 19 5 19 10 0 14 9 12 26 -5z m212 -16 c-11 -6 -18 -22 -18
-39 0 -17 -4 -30 -10 -30 -5 0 -10 18 -10 40 0 37 2 40 28 40 23 -1 24 -2 10
-11z m90 -11 c3 -14 -3 -18 -27 -18 -24 0 -29 -4 -24 -16 3 -9 13 -14 24 -11
11 3 19 1 19 -4 0 -13 -44 -11 -58 3 -16 16 -15 41 0 56 18 18 62 11 66 -10z
m80 -20 c3 -38 3 -38 -33 -38 -32 0 -36 3 -33 22 2 14 12 24 28 28 15 4 20 9
13 13 -6 4 -19 4 -29 0 -12 -4 -15 -3 -10 6 4 7 20 11 34 9 23 -3 27 -8 30
-40z m3842 -80 c0 -2 -11 -25 -25 -52 -14 -27 -25 -60 -25 -73 0 -14 -6 -23
-15 -23 -18 0 -13 34 15 93 l17 37 -28 0 c-15 0 -31 5 -34 10 -4 6 13 10 44
10 28 0 51 -1 51 -2z m140 -73 c0 -43 -4 -75 -10 -75 -6 0 -10 32 -10 75 0 43
4 75 10 75 6 0 10 -32 10 -75z m3570 25 c0 -27 4 -50 9 -50 5 0 4 -11 -2 -25
-13 -28 -27 -33 -27 -10 0 10 -10 15 -29 15 -17 0 -32 4 -35 8 -6 11 61 112
74 112 6 0 10 -22 10 -50z m4920 30 c9 -16 8 -20 -5 -20 -8 0 -15 5 -15 10 0
6 -9 10 -20 10 -11 0 -20 -2 -20 -4 0 -2 -2 -11 -5 -19 -5 -10 1 -13 24 -9 25
3 32 0 42 -22 27 -59 -39 -106 -75 -54 -34 48 -9 128 39 128 14 0 29 -9 35
-20z m100 -30 c0 -27 4 -50 9 -50 5 0 4 -11 -2 -25 -13 -28 -27 -33 -27 -10 0
10 -10 15 -30 15 -17 0 -30 5 -30 13 0 18 58 107 70 107 6 0 10 -22 10 -50z
m-8684 -7 c12 -17 13 -17 19 0 4 9 14 17 22 17 13 0 13 -4 -2 -26 -15 -24 -15
-27 0 -51 21 -31 9 -45 -14 -17 l-16 21 -17 -21 c-22 -29 -34 -14 -13 17 15
24 15 27 0 51 -20 30 -1 38 21 9z m3754 7 c0 -5 -7 -10 -15 -10 -11 0 -15 -12
-15 -45 0 -25 -4 -45 -10 -45 -5 0 -10 25 -10 55 0 52 1 55 25 55 14 0 25 -4
25 -10z m97 -20 c12 -24 12 -25 -28 -28 -26 -2 -39 -8 -36 -15 5 -17 38 -21
48 -6 4 7 11 10 15 6 11 -11 -17 -37 -40 -37 -12 0 -27 5 -34 12 -16 16 -15
71 0 86 20 20 61 10 75 -18z m171 -27 c2 -32 -1 -53 -7 -53 -6 0 -11 20 -11
45 0 38 -3 45 -20 45 -17 0 -20 -7 -20 -45 0 -57 -18 -59 -22 -3 -2 31 -8 44
-20 46 -15 3 -18 -4 -18 -42 0 -25 -4 -46 -10 -46 -5 0 -10 24 -10 54 l0 53
68 -1 67 -1 3 -52z m4779 45 c18 -14 16 -73 -2 -88 -8 -7 -24 -10 -35 -7 -16
4 -20 0 -20 -19 0 -13 -4 -24 -10 -24 -6 0 -10 31 -10 73 l0 74 32 1 c18 0 38
-4 45 -10z m60 -3 c5 -14 8 -14 24 1 25 23 35 11 15 -17 -14 -20 -13 -24 5
-51 17 -23 18 -28 5 -28 -8 0 -20 8 -25 18 -10 16 -12 16 -25 0 -23 -31 -39
-21 -20 11 16 28 16 31 0 55 -14 23 -15 26 -1 26 9 0 18 -7 22 -15z m-13329
-102 c-14 -3 -18 -15 -18 -54 0 -27 -4 -49 -10 -49 -5 0 -10 22 -10 49 0 39
-4 51 -17 54 -10 3 2 5 27 5 25 0 37 -2 28 -5z m292 -48 c0 -30 -4 -55 -10
-55 -5 0 -10 25 -10 55 0 30 5 55 10 55 6 0 10 -25 10 -55z m-94 30 c9 -8 11
-15 5 -15 -15 0 -14 -57 2 -64 6 -3 3 -5 -8 -3 -15 2 -21 11 -23 35 -2 17 -8
32 -13 32 -16 0 -23 -32 -10 -51 9 -15 8 -19 -3 -19 -8 0 -17 6 -20 13 -5 10
-7 10 -12 0 -3 -7 -13 -13 -21 -13 -14 0 -14 2 0 18 15 16 15 21 2 38 -13 17
-14 17 -15 2 0 -13 -8 -18 -30 -18 -23 0 -28 -4 -23 -16 3 -9 13 -14 24 -11
11 3 19 1 19 -5 0 -16 -52 -4 -64 15 -19 29 4 52 55 53 24 1 48 -3 52 -10 6
-8 10 -8 14 2 2 6 13 12 24 12 10 0 19 5 19 10 0 14 9 12 26 -5z m420 0 c9 -8
11 -15 5 -15 -15 0 -14 -57 2 -64 6 -3 3 -5 -8 -3 -14 2 -22 12 -25 37 -6 34
-3 60 7 60 2 0 11 -7 19 -15z m-238 -47 c2 -22 -1 -38 -7 -38 -6 0 -11 16 -11
36 0 45 -24 42 -28 -4 -5 -46 -22 -39 -22 9 0 39 1 40 33 37 29 -3 32 -6 35
-40z m100 14 c4 -28 -14 -52 -39 -52 -12 0 -19 -7 -19 -20 0 -11 -4 -20 -10
-20 -6 0 -10 27 -10 61 l0 60 38 -3 c30 -2 38 -7 40 -26z m42 -8 c0 -45 24
-42 28 4 5 46 22 39 22 -9 0 -39 -1 -40 -32 -37 -30 3 -33 6 -36 41 -2 21 1
37 7 37 6 0 11 -16 11 -36z m3886 -351 c0 -18 3 -36 7 -39 11 -11 8 -49 -5
-62 -36 -36 -98 3 -82 51 4 12 7 32 5 44 -4 34 7 44 42 41 29 -3 32 -7 33 -35z
m154 -38 c0 -43 -4 -75 -10 -75 -6 0 -10 32 -10 75 0 43 4 75 10 75 6 0 10
-32 10 -75z m3570 25 c0 -27 4 -50 9 -50 5 0 4 -11 -2 -25 -13 -28 -27 -33
-27 -10 0 10 -10 15 -29 15 -17 0 -32 4 -35 8 -6 11 61 112 74 112 6 0 10 -22
10 -50z m180 40 c0 -5 -13 -10 -30 -10 -20 0 -30 -5 -30 -15 0 -8 9 -15 20
-15 11 0 27 -11 36 -25 15 -23 15 -27 0 -50 -19 -28 -57 -33 -76 -10 -17 20
-5 32 15 15 21 -18 47 -5 43 22 -2 19 -9 23 -36 21 -30 -1 -33 1 -28 20 3 12
6 30 6 40 0 13 9 17 40 17 22 0 40 -4 40 -10z m4750 8 c0 -2 -11 -25 -25 -52
-14 -27 -25 -60 -25 -73 0 -14 -6 -23 -16 -23 -19 0 -14 33 15 93 l18 37 -33
0 c-19 0 -34 5 -34 10 0 6 23 10 50 10 28 0 50 -1 50 -2z m98 -10 c21 -21 13
-49 -22 -84 l-34 -34 34 0 c19 0 34 -4 34 -10 0 -5 -22 -10 -50 -10 -29 0 -50
4 -50 11 0 6 16 25 35 42 40 35 48 77 15 77 -11 0 -20 -4 -20 -10 0 -5 -7 -10
-15 -10 -13 0 -14 4 -5 20 12 23 59 27 78 8z m-8692 -45 c12 -17 13 -17 19 0
4 9 14 17 22 17 13 0 13 -4 -2 -26 -15 -24 -15 -27 0 -51 21 -31 9 -45 -14
-17 l-16 21 -17 -21 c-22 -29 -34 -14 -13 17 15 24 15 27 0 51 -20 30 -1 38
21 9z m3924 8 c0 -5 -9 -11 -20 -14 -16 -4 -20 -14 -20 -46 0 -23 -4 -41 -10
-41 -5 0 -10 25 -10 55 0 54 0 55 30 55 17 0 30 -4 30 -9z m88 -3 c7 -7 12
-20 12 -30 0 -14 -8 -18 -35 -18 -19 0 -35 -5 -35 -10 0 -17 29 -23 45 -10 20
17 31 5 15 -15 -19 -23 -62 -15 -79 16 -13 24 -13 29 2 53 19 28 54 35 75 14z
m170 -45 c2 -32 -1 -53 -7 -53 -6 0 -11 20 -11 46 0 38 -3 45 -17 42 -13 -2
-19 -15 -21 -46 -4 -57 -22 -54 -22 4 0 38 -3 45 -17 42 -13 -2 -19 -15 -21
-46 -5 -61 -22 -52 -22 12 l0 53 68 -1 67 -1 3 -52z m4620 45 c7 -7 12 -26 12
-43 0 -37 -16 -55 -47 -55 -16 0 -23 -6 -23 -20 0 -11 -4 -20 -10 -20 -6 0
-10 32 -10 75 l0 75 33 0 c18 0 38 -5 45 -12z m59 -3 c5 -14 8 -14 24 1 25 23
35 11 15 -17 -14 -20 -13 -24 5 -51 17 -23 18 -28 5 -28 -8 0 -20 8 -25 18
-10 16 -12 16 -25 0 -23 -31 -39 -21 -20 11 16 28 16 31 0 55 -14 23 -15 26
-1 26 9 0 18 -7 22 -15z m-13507 -55 c0 -5 -4 -10 -10 -10 -5 0 -10 -18 -10
-40 0 -29 -4 -40 -15 -40 -11 0 -15 11 -15 40 0 29 -4 40 -15 40 -8 0 -15 5
-15 10 0 6 18 10 40 10 22 0 40 -4 40 -10z m94 -7 c6 -14 8 -14 20 3 21 29 30
10 12 -25 -9 -16 -16 -37 -16 -46 0 -26 -15 -17 -26 18 -6 17 -14 40 -19 50
-5 12 -3 17 8 17 8 0 18 -7 21 -17z m181 -13 c0 -16 -8 -28 -22 -35 -13 -5
-23 -15 -23 -22 0 -7 -4 -13 -10 -13 -5 0 -10 23 -10 51 l0 50 33 -3 c27 -2
32 -7 32 -28z m143 18 c7 -7 12 -24 12 -38 0 -30 -16 -50 -41 -50 -23 0 -49
27 -49 50 0 39 52 64 78 38z m152 3 c0 -5 -10 -11 -22 -13 -17 -2 -23 -10 -23
-27 0 -13 6 -26 13 -28 6 -3 12 0 12 6 0 6 -4 11 -10 11 -5 0 -10 5 -10 10 0
6 11 10 25 10 20 0 25 -5 25 -25 0 -29 -19 -40 -55 -31 -33 8 -44 50 -20 76
18 20 65 28 65 11z m146 -6 c4 -8 1 -22 -5 -29 -8 -10 -9 -16 -1 -21 15 -9 12
-35 -4 -35 -7 0 -17 10 -21 23 l-8 22 -4 -22 c-8 -42 -23 -24 -23 27 0 49 1
50 30 50 18 0 33 -6 36 -15z m143 -31 c7 -26 9 -49 5 -53 -4 -3 -9 0 -11 7 -5
14 -43 16 -43 2 0 -5 -7 -10 -15 -10 -18 0 -18 -3 1 53 22 64 47 64 63 1z
m149 14 c3 -22 -2 -29 -22 -34 -14 -3 -26 -12 -26 -20 0 -8 -4 -14 -10 -14 -5
0 -10 23 -10 51 l0 50 33 -3 c26 -2 33 -8 35 -30z m92 12 c0 -13 7 -20 20 -20
13 0 20 7 20 20 0 11 7 20 15 20 11 0 15 -12 15 -50 0 -38 -4 -50 -15 -50 -8
0 -15 9 -15 20 0 13 -7 20 -20 20 -13 0 -20 -7 -20 -20 0 -11 -4 -20 -10 -20
-5 0 -10 23 -10 50 0 28 5 50 10 50 6 0 10 -9 10 -20z m160 5 c0 -8 5 -15 10
-15 6 0 10 7 10 15 0 8 6 15 14 15 12 0 11 -8 -2 -50 -10 -27 -19 -50 -22 -50
-3 0 -10 15 -16 33 -6 17 -14 40 -19 50 -5 12 -3 17 9 17 9 0 16 -7 16 -15z
m7120 -25 c0 -5 -7 -10 -15 -10 -8 0 -15 5 -15 10 0 6 7 10 15 10 8 0 15 -4
15 -10z m-7900 -320 l0 -60 -34 0 c-44 0 -63 22 -48 55 7 15 20 25 32 25 13 0
20 7 20 20 0 11 7 20 15 20 12 0 15 -13 15 -60z m40 50 c0 -5 -7 -10 -15 -10
-8 0 -15 5 -15 10 0 6 7 10 15 10 8 0 15 -4 15 -10z m-380 -25 c0 -20 5 -25
25 -25 20 0 25 5 25 25 0 14 5 25 10 25 6 0 10 -25 10 -55 0 -30 -4 -55 -10
-55 -5 0 -10 11 -10 25 0 20 -5 25 -25 25 -20 0 -25 -5 -25 -25 0 -14 -4 -25
-10 -25 -5 0 -10 25 -10 55 0 30 5 55 10 55 6 0 10 -11 10 -25z m158 -27 c3
-14 -3 -18 -23 -18 -17 0 -25 -5 -22 -12 2 -7 15 -12 28 -10 17 2 21 0 12 -9
-6 -6 -21 -9 -34 -7 -25 3 -36 34 -25 64 8 21 60 14 64 -8z m80 -21 c3 -38 3
-38 -30 -35 -42 4 -51 34 -14 44 14 3 26 11 26 16 0 6 -9 8 -20 5 -11 -3 -20
-1 -20 5 0 5 12 8 28 6 23 -3 27 -8 30 -41z m142 3 c0 -29 -4 -40 -15 -40 -11
0 -15 11 -15 40 0 29 4 40 15 40 11 0 15 -11 15 -40z m88 -2 c2 -21 -1 -38 -7
-38 -5 0 -11 14 -13 32 -4 46 -28 49 -28 4 0 -25 -4 -36 -15 -36 -11 0 -15 11
-15 41 l0 40 38 -3 c35 -3 37 -5 40 -40z m90 -15 c-3 -57 -3 -58 -35 -61 -18
-2 -33 1 -33 6 0 5 10 8 21 8 12 -1 24 5 26 12 3 7 -3 12 -14 12 -37 0 -57 42
-31 68 7 7 25 12 40 12 29 0 29 0 26 -57z m3884 -50 c19 -17 24 -43 9 -43 -5
0 -13 9 -16 20 -3 11 -15 20 -25 20 -10 0 -22 -9 -25 -20 -7 -23 -25 -27 -25
-6 0 19 28 46 47 46 9 0 25 -7 35 -17z m158 -13 c0 -16 -4 -30 -10 -30 -5 0
-10 14 -10 30 0 17 5 30 10 30 6 0 10 -13 10 -30z m3577 15 c3 -9 2 -19 -2
-23 -4 -4 -10 -1 -12 6 -7 19 -41 14 -48 -8 -6 -19 -25 -28 -25 -12 0 39 74
70 87 37z m4905 -2 c19 -17 24 -43 9 -43 -5 0 -13 9 -16 20 -3 11 -15 20 -25
20 -10 0 -22 -9 -25 -20 -7 -23 -25 -27 -25 -6 0 19 28 46 47 46 9 0 25 -7 35
-17z m118 -3 c9 -16 8 -20 -5 -20 -8 0 -15 5 -15 10 0 19 -39 10 -45 -10 -3
-11 -11 -20 -16 -20 -13 0 -11 12 7 38 19 28 60 29 74 2z m-8700 -30 c0 -5 -4
-10 -9 -10 -6 0 -13 5 -16 10 -3 6 1 10 9 10 9 0 16 -4 16 -10z m55 0 c-3 -5
-10 -10 -16 -10 -5 0 -9 5 -9 10 0 6 7 10 16 10 8 0 12 -4 9 -10z m3705 0 c0
-5 -11 -10 -25 -10 -14 0 -25 5 -25 10 0 6 11 10 25 10 14 0 25 -4 25 -10z
m85 0 c4 -6 -8 -10 -30 -10 -22 0 -34 4 -30 10 3 6 17 10 30 10 13 0 27 -4 30
-10z m180 0 c4 -6 -22 -10 -64 -10 -39 0 -71 4 -71 8 0 12 128 13 135 2z
m4780 0 c4 -6 -11 -10 -34 -10 -23 0 -41 4 -41 8 0 12 68 13 75 2z m60 0 c3
-5 -1 -10 -9 -10 -8 0 -18 5 -21 10 -3 6 1 10 9 10 8 0 18 -4 21 -10z m55 0
c0 -5 -7 -10 -16 -10 -8 0 -12 5 -9 10 3 6 10 10 16 10 5 0 9 -4 9 -10z
m-5257 -7 c-7 -2 -21 -2 -30 0 -10 3 -4 5 12 5 17 0 24 -2 18 -5z m5020 0 c-7
-2 -21 -2 -30 0 -10 3 -4 5 12 5 17 0 24 -2 18 -5z"/>
<path d="M6510 8953 c0 -43 1 -45 18 -31 9 9 22 14 28 11 6 -2 17 3 24 12 12
14 15 13 37 -6 l23 -22 0 41 0 42 -65 0 -65 0 0 -47z"/>
<path d="M6580 8935 c-10 -12 -10 -18 1 -32 7 -10 2 -8 -12 5 -25 22 -26 22
-42 4 -31 -34 -21 -42 48 -42 56 0 65 2 65 18 0 10 -11 28 -23 41 -21 19 -25
20 -37 6z"/>
<path d="M350 8861 c0 -5 5 -13 10 -16 6 -3 10 -2 10 4 0 5 -4 13 -10 16 -5 3
-10 2 -10 -4z"/>
<path d="M4010 8926 c0 -39 18 -48 41 -20 15 18 2 47 -25 52 -12 3 -16 -4 -16
-32z"/>
<path d="M1164 8875 c-9 -22 22 -53 37 -38 15 15 7 47 -14 51 -9 2 -20 -4 -23
-13z"/>
<path d="M3195 8900 c-3 -5 1 -10 9 -10 9 0 16 5 16 10 0 6 -4 10 -9 10 -6 0
-13 -4 -16 -10z"/>
<path d="M3465 8900 c-3 -5 1 -10 9 -10 9 0 16 5 16 10 0 6 -4 10 -9 10 -6 0
-13 -4 -16 -10z"/>
<path d="M4120 8910 c0 -13 7 -20 20 -20 13 0 20 7 20 20 0 13 -7 20 -20 20
-13 0 -20 -7 -20 -20z"/>
<path d="M822 8863 c2 -17 9 -28 18 -28 9 0 16 11 18 28 3 22 -1 27 -18 27
-17 0 -21 -5 -18 -27z"/>
<path d="M1294 8875 c-9 -22 22 -53 37 -38 15 15 7 47 -14 51 -9 2 -20 -4 -23
-13z"/>
<path d="M1422 8863 c2 -17 9 -28 18 -28 9 0 16 11 18 28 3 22 -1 27 -18 27
-17 0 -21 -5 -18 -27z"/>
<path d="M1334 8326 c-9 -24 4 -48 23 -44 12 2 18 12 18 28 0 29 -32 41 -41
16z"/>
<path d="M560 7745 c-11 -13 -11 -19 3 -33 20 -19 41 -5 35 24 -4 24 -22 28
-38 9z"/>
<path d="M795 7750 c-3 -5 1 -10 9 -10 9 0 16 5 16 10 0 6 -4 10 -9 10 -6 0
-13 -4 -16 -10z"/>
<path d="M4952 7578 c-28 -28 3 -83 33 -58 8 7 15 20 15 29 0 17 -18 41 -30
41 -3 0 -11 -5 -18 -12z"/>
<path d="M6247 7594 c-13 -13 -7 -24 14 -24 11 0 19 5 17 12 -5 14 -22 21 -31
12z"/>
<path d="M424 7286 c-8 -22 3 -49 19 -43 6 2 12 14 12 27 0 27 -22 39 -31 16z"/>
<path d="M13510 7015 c0 -11 7 -15 23 -13 12 2 22 8 22 13 0 6 -10 11 -22 13
-16 2 -23 -2 -23 -13z"/>
<path d="M5015 6949 c-4 -6 -5 -13 -2 -16 7 -7 27 6 27 18 0 12 -17 12 -25 -2z"/>
<path d="M5300 6990 c0 -5 7 -10 16 -10 8 0 12 5 9 10 -3 6 -10 10 -16 10 -5
0 -9 -4 -9 -10z"/>
<path d="M8721 6951 c-8 -6 -9 -11 -3 -15 6 -3 14 -1 17 5 9 14 2 20 -14 10z"/>
<path d="M9005 6990 c-3 -5 3 -10 15 -10 12 0 18 5 15 10 -3 6 -10 10 -15 10
-5 0 -12 -4 -15 -10z"/>
<path d="M13805 6990 c-3 -5 3 -10 15 -10 12 0 18 5 15 10 -3 6 -10 10 -15 10
-5 0 -12 -4 -15 -10z"/>
<path d="M566 6955 c-7 -20 3 -45 19 -45 7 0 15 7 19 15 7 20 -3 45 -19 45 -7
0 -15 -7 -19 -15z"/>
<path d="M704 6956 c-8 -22 3 -49 19 -43 6 2 12 14 12 27 0 27 -22 39 -31 16z"/>
<path d="M8586 6494 c-16 -42 -3 -94 24 -94 22 0 34 44 24 84 -7 29 -38 36
-48 10z"/>
<path d="M8754 6446 c-9 -24 4 -48 23 -44 12 2 18 12 18 28 0 29 -32 41 -41
16z"/>
<path d="M13606 6484 c-10 -40 2 -84 24 -84 20 0 30 19 30 55 0 57 -42 79 -54
29z"/>
<path d="M9155 6460 c-4 -6 5 -10 19 -10 14 0 26 5 26 10 0 6 -9 10 -19 10
-11 0 -23 -4 -26 -10z"/>
<path d="M13724 6456 c-10 -26 0 -51 21 -51 16 0 20 7 20 30 0 33 -30 49 -41
21z"/>
<path d="M546 6365 c-7 -20 3 -45 19 -45 7 0 15 7 19 15 7 20 -3 45 -19 45 -7
0 -15 -7 -19 -15z"/>
<path d="M980 6370 c0 -5 7 -10 16 -10 8 0 12 5 9 10 -3 6 -10 10 -16 10 -5 0
-9 -4 -9 -10z"/>
<path d="M1104 6366 c-8 -22 3 -49 19 -43 6 2 12 14 12 27 0 27 -22 39 -31 16z"/>
<path d="M546 6065 c-7 -20 3 -45 19 -45 7 0 15 7 19 15 7 20 -3 45 -19 45 -7
0 -15 -7 -19 -15z"/>
<path d="M8586 5964 c-16 -42 -3 -94 25 -94 16 0 19 8 19 55 0 47 -3 55 -19
55 -10 0 -22 -7 -25 -16z"/>
<path d="M9040 5930 c0 -5 12 -10 26 -10 14 0 23 4 19 10 -3 6 -15 10 -26 10
-10 0 -19 -4 -19 -10z"/>
<path d="M13724 5926 c-10 -26 0 -51 21 -51 16 0 20 7 20 30 0 33 -30 49 -41
21z"/>
<path d="M1240 5762 c0 -25 4 -29 30 -29 37 0 37 3 4 33 -32 30 -34 30 -34 -4z"/>
<path d="M675 5780 c-3 -5 1 -10 9 -10 9 0 16 5 16 10 0 6 -4 10 -9 10 -6 0
-13 -4 -16 -10z"/>
<path d="M920 5780 c0 -5 7 -10 16 -10 8 0 12 5 9 10 -3 6 -10 10 -16 10 -5 0
-9 -4 -9 -10z"/>
<path d="M1044 5776 c-8 -22 3 -49 19 -43 6 2 12 14 12 27 0 27 -22 39 -31 16z"/>
<path d="M647 5475 c-8 -20 3 -47 17 -42 6 2 11 14 11 27 0 27 -20 38 -28 15z"/>
<path d="M470 5500 c0 -11 7 -20 15 -20 8 0 15 9 15 20 0 11 -7 20 -15 20 -8
0 -15 -9 -15 -20z"/>
<path d="M565 5449 c-4 -6 -5 -13 -2 -16 7 -7 27 6 27 18 0 12 -17 12 -25 -2z"/>
<path d="M8586 5434 c-16 -42 -3 -94 24 -94 22 0 34 44 24 84 -7 29 -38 36
-48 10z"/>
<path d="M8757 5443 c-3 -5 -2 -15 3 -22 10 -17 43 -6 38 12 -6 15 -34 22 -41
10z"/>
<path d="M8754 5375 c-8 -20 4 -35 27 -35 14 0 19 7 19 25 0 18 -5 25 -20 25
-11 0 -23 -7 -26 -15z"/>
<path d="M13617 5400 c-18 -29 -18 -30 2 -30 17 0 21 6 21 30 0 17 -1 30 -3
30 -1 0 -11 -13 -20 -30z"/>
<path d="M9155 5400 c-4 -6 5 -10 19 -10 14 0 26 5 26 10 0 6 -9 10 -19 10
-11 0 -23 -4 -26 -10z"/>
<path d="M13724 5396 c-10 -26 0 -51 21 -51 16 0 20 7 20 30 0 33 -30 49 -41
21z"/>
<path d="M567 5193 c-4 -3 -7 -17 -7 -30 0 -33 24 -24 28 10 3 26 -7 35 -21
20z"/>
<path d="M647 5164 c-8 -8 1 -24 14 -24 5 0 9 7 9 15 0 15 -12 20 -23 9z"/>
<path d="M805 5190 c-3 -5 3 -10 15 -10 12 0 18 5 15 10 -3 6 -10 10 -15 10
-5 0 -12 -4 -15 -10z"/>
<path d="M5024 4866 c-10 -26 0 -51 21 -51 16 0 20 7 20 30 0 33 -30 49 -41
21z"/>
<path d="M13610 4840 c0 -23 5 -30 19 -30 20 0 37 32 26 50 -3 5 -15 10 -26
10 -14 0 -19 -7 -19 -30z"/>
<path d="M8765 4870 c-4 -6 5 -10 19 -10 14 0 26 5 26 10 0 6 -9 10 -19 10
-11 0 -23 -4 -26 -10z"/>
<path d="M13724 4866 c-10 -26 0 -51 21 -51 16 0 20 7 20 30 0 33 -30 49 -41
21z"/>
<path d="M290 4700 c0 -21 4 -30 13 -27 6 2 12 14 12 27 0 13 -6 25 -12 28 -9
2 -13 -7 -13 -28z"/>
<path d="M660 4715 c0 -9 5 -15 11 -13 6 2 11 8 11 13 0 5 -5 11 -11 13 -6 2
-11 -4 -11 -13z"/>
<path d="M930 4706 c0 -9 5 -16 10 -16 6 0 10 4 10 9 0 6 -4 13 -10 16 -5 3
-10 -1 -10 -9z"/>
<path d="M476 4385 c-3 -9 0 -15 9 -15 8 0 15 7 15 15 0 8 -4 15 -9 15 -5 0
-11 -7 -15 -15z"/>
<path d="M645 4359 c-4 -6 -5 -13 -2 -16 7 -7 27 6 27 18 0 12 -17 12 -25 -2z"/>
<path d="M785 4359 c-4 -6 -5 -13 -2 -16 7 -7 27 6 27 18 0 12 -17 12 -25 -2z"/>
<path d="M13612 4373 c2 -10 10 -18 18 -18 8 0 16 8 18 18 2 12 -3 17 -18 17
-15 0 -20 -5 -18 -17z"/>
<path d="M13607 4317 c-8 -21 8 -39 29 -35 27 5 25 42 -2 46 -12 2 -24 -3 -27
-11z"/>
<path d="M4900 4315 c0 -32 3 -36 23 -33 17 2 22 10 22 33 0 23 -5 31 -22 33
-20 3 -23 -1 -23 -33z"/>
<path d="M9155 4340 c-4 -6 5 -10 19 -10 14 0 26 5 26 10 0 6 -9 10 -19 10
-11 0 -23 -4 -26 -10z"/>
<path d="M13724 4336 c-10 -26 0 -51 21 -51 16 0 20 7 20 30 0 33 -30 49 -41
21z"/>
<path d="M670 4114 c0 -31 23 -28 28 4 2 15 -2 22 -12 22 -11 0 -16 -9 -16
-26z"/>
<path d="M995 4069 c-4 -6 -5 -13 -2 -16 7 -7 27 6 27 18 0 12 -17 12 -25 -2z"/>
<path d="M13606 3834 c-10 -40 2 -84 24 -84 12 0 21 10 25 29 9 41 -4 81 -25
81 -11 0 -20 -10 -24 -26z"/>
<path d="M1784 3795 c-7 -18 2 -45 15 -45 12 0 24 37 16 50 -9 15 -25 12 -31
-5z"/>
<path d="M9040 3810 c0 -5 12 -10 26 -10 14 0 23 4 19 10 -3 6 -15 10 -26 10
-10 0 -19 -4 -19 -10z"/>
<path d="M13724 3806 c-10 -26 0 -51 21 -51 16 0 20 7 20 30 0 33 -30 49 -41
21z"/>
<path d="M847 3774 c-8 -8 1 -24 14 -24 5 0 9 7 9 15 0 15 -12 20 -23 9z"/>
<path d="M934 3796 c-8 -22 3 -49 19 -43 6 2 12 14 12 27 0 27 -22 39 -31 16z"/>
<path d="M1030 3800 c0 -5 7 -10 16 -10 8 0 12 5 9 10 -3 6 -10 10 -16 10 -5
0 -9 -4 -9 -10z"/>
<path d="M1615 3769 c-4 -6 -5 -13 -2 -16 7 -7 27 6 27 18 0 12 -17 12 -25 -2z"/>
<path d="M1875 3769 c-4 -6 -5 -13 -2 -16 7 -7 27 6 27 18 0 12 -17 12 -25 -2z"/>
<path d="M570 3340 c0 -5 5 -10 10 -10 6 0 10 5 10 10 0 6 -4 10 -10 10 -5 0
-10 -4 -10 -10z"/>
<path d="M836 3331 c-4 -7 -5 -15 -2 -18 9 -9 19 4 14 18 -4 11 -6 11 -12 0z"/>
<path d="M13617 3280 c-18 -29 -18 -30 2 -30 17 0 21 6 21 30 0 17 -1 30 -3
30 -1 0 -11 -13 -20 -30z"/>
<path d="M8930 3280 c0 -5 12 -10 26 -10 14 0 23 4 19 10 -3 6 -15 10 -26 10
-10 0 -19 -4 -19 -10z"/>
<path d="M13724 3276 c-10 -26 0 -51 21 -51 16 0 20 7 20 30 0 33 -30 49 -41
21z"/>
<path d="M470 3030 c0 -13 5 -20 13 -17 6 2 12 10 12 17 0 7 -6 15 -12 18 -8
2 -13 -5 -13 -18z"/>
<path d="M470 2980 c0 -11 7 -20 15 -20 8 0 15 9 15 20 0 11 -7 20 -15 20 -8
0 -15 -9 -15 -20z"/>
<path d="M560 3005 c-11 -13 -11 -19 3 -33 20 -19 41 -5 35 24 -4 24 -22 28
-38 9z"/>
<path d="M4867 2750 c-18 -29 -18 -30 2 -30 17 0 21 6 21 30 0 17 -1 30 -3 30
-1 0 -11 -13 -20 -30z"/>
<path d="M8765 2750 c-4 -6 5 -10 19 -10 14 0 26 5 26 10 0 6 -9 10 -19 10
-11 0 -23 -4 -26 -10z"/>
<path d="M13724 2746 c-10 -26 0 -51 21 -51 16 0 20 7 20 30 0 33 -30 49 -41
21z"/>
<path d="M410 2520 c0 -25 4 -31 18 -28 11 2 17 12 17 28 0 16 -6 26 -17 28
-14 3 -18 -3 -18 -28z"/>
<path d="M560 2540 c0 -5 5 -10 10 -10 6 0 10 5 10 10 0 6 -4 10 -10 10 -5 0
-10 -4 -10 -10z"/>
<path d="M13610 2190 c0 -27 3 -31 23 -28 16 2 22 10 22 28 0 18 -6 26 -22 28
-20 3 -23 -1 -23 -28z"/>
<path d="M470 2230 c0 -13 5 -20 13 -17 6 2 12 10 12 17 0 7 -6 15 -12 18 -8
2 -13 -5 -13 -18z"/>
<path d="M470 2180 c0 -11 7 -20 15 -20 8 0 15 9 15 20 0 11 -7 20 -15 20 -8
0 -15 -9 -15 -20z"/>
<path d="M9040 2220 c0 -5 12 -10 26 -10 14 0 23 4 19 10 -3 6 -15 10 -26 10
-10 0 -19 -4 -19 -10z"/>
<path d="M13724 2216 c-10 -26 0 -51 21 -51 16 0 20 7 20 30 0 33 -30 49 -41
21z"/>
<path d="M764 2206 c-8 -22 3 -49 19 -43 6 2 12 14 12 27 0 27 -22 39 -31 16z"/>
<path d="M904 1916 c-8 -22 3 -49 19 -43 6 2 12 14 12 27 0 27 -22 39 -31 16z"/>
<path d="M660 1920 c0 -5 7 -10 16 -10 8 0 12 5 9 10 -3 6 -10 10 -16 10 -5 0
-9 -4 -9 -10z"/>
<path d="M996 1915 c-7 -20 3 -45 19 -45 16 0 26 25 19 45 -4 8 -12 15 -19 15
-7 0 -15 -7 -19 -15z"/>
<path d="M4860 1660 c0 -23 5 -30 19 -30 20 0 37 32 26 50 -3 5 -15 10 -26 10
-14 0 -19 -7 -19 -30z"/>
<path d="M13507 1690 c-18 -29 -18 -30 2 -30 17 0 21 6 21 30 0 17 -1 30 -3
30 -1 0 -11 -13 -20 -30z"/>
<path d="M13612 1723 c2 -10 10 -18 18 -18 8 0 16 8 18 18 2 12 -3 17 -18 17
-15 0 -20 -5 -18 -17z"/>
<path d="M13607 1667 c-8 -21 8 -39 29 -35 27 5 25 42 -2 46 -12 2 -24 -3 -27
-11z"/>
<path d="M8765 1690 c-4 -6 5 -10 19 -10 14 0 26 5 26 10 0 6 -9 10 -19 10
-11 0 -23 -4 -26 -10z"/>
<path d="M13724 1686 c-10 -26 0 -51 21 -51 16 0 20 7 20 30 0 33 -30 49 -41
21z"/>
<path d="M975 1620 c-3 -5 1 -10 9 -10 9 0 16 5 16 10 0 6 -4 10 -9 10 -6 0
-13 -4 -16 -10z"/>
<path d="M1064 1616 c-8 -22 3 -49 19 -43 6 2 12 14 12 27 0 27 -22 39 -31 16z"/>
<path d="M807 1331 c-3 -14 0 -21 9 -21 16 0 18 9 5 28 -6 10 -10 9 -14 -7z"/>
<path d="M535 1330 c-3 -5 3 -10 15 -10 12 0 18 5 15 10 -3 6 -10 10 -15 10
-5 0 -12 -4 -15 -10z"/>
<path d="M955 1330 c-3 -5 3 -10 15 -10 12 0 18 5 15 10 -3 6 -10 10 -15 10
-5 0 -12 -4 -15 -10z"/>
<path d="M1045 1299 c-4 -6 -5 -13 -2 -16 7 -7 27 6 27 18 0 12 -17 12 -25 -2z"/>
<path d="M8595 1160 c-15 -29 -15 -30 5 -30 16 0 20 7 20 30 0 17 -2 30 -5 30
-2 0 -11 -13 -20 -30z"/>
<path d="M13500 1130 c0 -27 3 -31 23 -28 16 2 22 10 22 28 0 18 -6 26 -22 28
-20 3 -23 -1 -23 -28z"/>
<path d="M13617 1160 c-18 -29 -18 -30 2 -30 17 0 21 6 21 30 0 17 -1 30 -3
30 -1 0 -11 -13 -20 -30z"/>
<path d="M8765 1160 c-4 -6 5 -10 19 -10 14 0 26 5 26 10 0 6 -9 10 -19 10
-11 0 -23 -4 -26 -10z"/>
<path d="M13724 1156 c-10 -26 0 -51 21 -51 16 0 20 7 20 30 0 33 -30 49 -41
21z"/>
<path d="M535 1030 c-3 -5 3 -10 15 -10 12 0 18 5 15 10 -3 6 -10 10 -15 10
-5 0 -12 -4 -15 -10z"/>
<path d="M934 1026 c-8 -22 3 -49 19 -43 6 2 12 14 12 27 0 27 -22 39 -31 16z"/>
<path d="M4862 663 c2 -10 10 -18 18 -18 8 0 16 8 18 18 2 12 -3 17 -18 17
-15 0 -20 -5 -18 -17z"/>
<path d="M4857 607 c-8 -21 8 -39 29 -35 27 5 25 42 -2 46 -12 2 -24 -3 -27
-11z"/>
<path d="M8597 630 c-18 -29 -18 -30 2 -30 17 0 21 6 21 30 0 17 -1 30 -3 30
-1 0 -11 -13 -20 -30z"/>
<path d="M8930 630 c0 -5 12 -10 26 -10 14 0 23 4 19 10 -3 6 -15 10 -26 10
-10 0 -19 -4 -19 -10z"/>
<path d="M13724 626 c-10 -26 0 -51 21 -51 16 0 20 7 20 30 0 33 -30 49 -41
21z"/>
<path d="M560 565 c0 -8 5 -15 10 -15 6 0 10 7 10 15 0 8 -4 15 -10 15 -5 0
-10 -7 -10 -15z"/>
<path d="M700 550 c0 -25 4 -31 18 -28 11 2 17 12 17 28 0 16 -6 26 -17 28
-14 3 -18 -3 -18 -28z"/>
<path d="M1000 570 c0 -5 5 -10 10 -10 6 0 10 5 10 10 0 6 -4 10 -10 10 -5 0
-10 -4 -10 -10z"/>
<path d="M1150 556 c0 -9 5 -16 10 -16 6 0 10 4 10 9 0 6 -4 13 -10 16 -5 3
-10 -1 -10 -9z"/>
<path d="M1290 565 c0 -9 5 -15 11 -13 6 2 11 8 11 13 0 5 -5 11 -11 13 -6 2
-11 -4 -11 -13z"/>
<path d="M746 235 c-8 -21 3 -45 20 -45 9 0 14 11 14 30 0 32 -23 42 -34 15z"/>
<path d="M585 240 c-3 -5 1 -10 9 -10 9 0 16 5 16 10 0 6 -4 10 -9 10 -6 0
-13 -4 -16 -10z"/>
<path d="M665 209 c-4 -6 -5 -13 -2 -16 7 -7 27 6 27 18 0 12 -17 12 -25 -2z"/>
<path d="M977 235 c-8 -20 3 -47 17 -42 6 2 11 14 11 27 0 27 -20 38 -28 15z"/>
</g>
</svg>
