<?xml version="1.0" standalone="no"?>
<!DOCTYPE svg PUBLIC "-//W3C//DTD SVG 20010904//EN"
 "http://www.w3.org/TR/2001/REC-SVG-20010904/DTD/svg10.dtd">
<svg version="1.0" xmlns="http://www.w3.org/2000/svg"
 width="1607.000000pt" height="932.000000pt" viewBox="0 0 1607.000000 932.000000"
 preserveAspectRatio="xMidYMid meet">

<g transform="translate(0.000000,932.000000) scale(0.100000,-0.100000)"
fill="#000000" stroke="none">
<path d="M0 4660 l0 -4660 7930 0 7930 0 0 4660 0 4660 -7930 0 -7930 0 0
-4660z m7813 4312 c48 -48 87 -92 87 -97 0 -17 -174 -185 -192 -185 -36 0 -17
37 57 110 l75 75 -75 75 c-41 41 -75 83 -75 93 0 36 38 14 123 -71z m357 -262
c0 -11 -4 -20 -10 -20 -5 0 -7 7 -4 15 5 13 -13 15 -131 15 -118 0 -136 -2
-131 -15 3 -8 1 -15 -4 -15 -6 0 -10 9 -10 20 0 19 7 20 145 20 138 0 145 -1
145 -20z m-916 -396 c18 -18 21 -34 6 -34 -5 0 -10 6 -10 14 0 18 -34 30 -65
22 -19 -5 -25 -15 -30 -49 -4 -24 -3 -58 2 -77 8 -32 13 -35 51 -38 42 -3 42
-3 42 32 0 24 -5 36 -17 39 -11 3 -7 5 10 6 27 1 28 -1 25 -41 l-3 -43 -48 -3
c-68 -4 -77 6 -77 94 0 59 3 75 18 83 26 16 79 13 96 -5z m86 -79 c0 -57 -4
-95 -10 -95 -6 0 -10 38 -10 95 0 57 4 95 10 95 6 0 10 -38 10 -95z m140 85
c0 -5 -11 -10 -25 -10 -25 0 -25 -1 -27 -87 l-2 -88 -3 88 c-4 85 -4 87 -28
87 -14 0 -25 5 -25 10 0 6 25 10 55 10 30 0 55 -4 55 -10z m50 -35 l0 -45 49
0 50 0 4 48 c2 26 3 2 3 -53 0 -55 -1 -79 -3 -52 l-4 47 -50 0 -49 0 0 -45 c0
-25 -4 -45 -10 -45 -6 0 -10 38 -10 95 0 57 4 95 10 95 6 0 10 -20 10 -45z
m180 -32 c0 -43 4 -84 9 -91 5 -8 23 -12 47 -10 l39 3 3 88 c1 48 7 87 12 87
15 0 12 -164 -2 -178 -14 -14 -87 -16 -108 -2 -19 12 -29 180 -11 180 7 0 11
-28 11 -77z m264 67 c20 -7 26 -16 26 -40 0 -16 -4 -30 -10 -30 -5 0 -10 14
-10 30 0 28 -2 30 -40 30 -39 0 -40 -1 -40 -36 0 -37 0 -37 37 -31 45 8 73
-13 73 -53 0 -38 -18 -50 -77 -50 l-53 0 0 95 0 95 34 0 c19 0 46 -4 60 -10z
m215 4 c27 -6 31 -10 31 -40 0 -19 -4 -34 -10 -34 -5 0 -10 14 -10 30 0 28 -2
30 -40 30 -39 0 -40 -1 -40 -36 l0 -37 39 6 c46 6 71 -14 71 -54 0 -37 -18
-49 -77 -49 l-53 0 0 95 0 95 29 0 c16 0 43 -3 60 -6z m101 -83 l0 -90 38 -4
c34 -3 33 -4 -10 -5 l-48 -2 0 95 c0 57 4 95 10 95 6 0 10 -36 10 -89z m230
69 c22 -22 28 -99 10 -144 -8 -23 -15 -26 -58 -26 -26 0 -53 5 -60 12 -18 18
-16 143 4 162 22 23 80 20 104 -4z m178 8 c7 -7 12 -19 12 -27 0 -12 -6 -9
-19 8 -16 20 -23 23 -55 17 l-37 -7 3 -77 3 -77 45 0 c43 0 45 1 48 32 3 26
-1 32 -20 36 -20 4 -19 4 5 6 27 1 28 -1 25 -41 l-3 -43 -50 -3 c-38 -3 -52 1
-62 14 -14 19 -18 131 -5 150 16 24 90 32 110 12z m-5378 -1293 c0 -70 4 -115
10 -115 6 0 10 12 10 26 0 14 7 66 16 115 l17 89 109 0 110 0 -5 -42 c-3 -24
-9 -67 -13 -96 -3 -31 -12 -56 -20 -59 -9 -3 -11 -10 -5 -21 9 -19 2 -144 -8
-138 -3 2 -7 -38 -7 -90 -1 -52 -7 -132 -13 -179 -6 -47 -15 -122 -21 -167 -5
-46 -17 -144 -25 -218 -9 -74 -18 -143 -21 -153 -5 -16 -3 -17 16 -7 32 17 33
8 4 -31 -77 -102 -114 -348 -73 -483 11 -34 19 -73 19 -88 0 -27 -2 -28 -50
-28 l-50 0 -2 658 -3 657 -143 3 -143 3 3 208 c4 271 3 269 186 270 l102 1 0
-115z m470 109 c0 -3 -7 -12 -15 -20 -13 -14 -15 -13 -15 5 0 12 6 21 15 21 8
0 15 -3 15 -6z m650 -33 c-29 -27 -50 -38 -66 -36 -18 2 -24 -3 -24 -18 0 -19
-4 -17 -37 14 -21 20 -55 43 -75 53 -21 9 -38 19 -38 21 0 3 63 5 141 5 l141
0 -42 -39z m357 6 l28 -27 3 -210 3 -210 -135 0 c-84 0 -136 -4 -136 -10 0 -5
-7 -10 -15 -10 -8 0 -15 5 -15 11 0 5 -4 7 -10 4 -6 -3 -10 -51 -10 -109 0
-88 -6 -126 -41 -262 -23 -87 -50 -196 -61 -241 -11 -46 -24 -83 -29 -83 -6 0
-23 7 -39 15 -28 14 -42 53 -44 122 -1 12 -4 25 -8 28 -10 11 3 99 16 107 7 5
4 8 -6 8 -10 0 -18 7 -18 15 0 8 4 15 10 15 5 0 7 6 4 14 -4 10 7 15 39 20
l44 7 -3 67 c-5 78 -9 94 -26 91 -35 -4 -40 1 -34 37 9 43 38 74 69 74 28 0
66 30 60 46 -2 7 4 11 14 10 11 0 18 5 17 16 -1 10 2 15 6 13 5 -3 7 21 5 54
-3 42 0 61 9 64 10 4 14 40 15 138 l2 132 -28 -18 -28 -18 28 31 c16 16 29 33
28 36 -1 3 -1 18 -1 32 l0 26 130 -4 c126 -3 130 -4 157 -31z m8073 -191 c0
-2 -9 -6 -20 -9 -11 -3 -18 -1 -14 4 5 9 34 13 34 5z m-725 -33 c-16 -3 -33
-10 -37 -16 -5 -8 -8 -8 -8 -1 0 18 12 24 44 23 l31 -2 -30 -4z m158 0 c-13
-2 -33 -2 -45 0 -13 2 -3 4 22 4 25 0 35 -2 23 -4z m85 -35 l37 -1 -37 -4
c-31 -4 -37 -8 -41 -31 -2 -15 -4 -2 -4 28 0 30 2 45 4 33 4 -19 12 -23 41
-25z m218 2 c24 0 34 23 14 33 -6 3 -5 4 2 3 7 -1 13 -14 14 -27 1 -22 -3 -25
-28 -21 -23 4 -28 1 -28 -16 0 -13 8 -22 23 -25 19 -4 18 -4 -5 -6 -27 -1 -28
0 -27 52 1 28 4 42 6 30 3 -16 11 -23 29 -23z m286 8 c-8 -8 -9 -4 -5 13 4 13
8 18 11 10 2 -7 -1 -18 -6 -23z m-7594 -70 l3 -88 49 0 c38 0 50 -4 50 -15 0
-12 -15 -15 -75 -15 l-75 0 0 106 c0 104 0 105 23 102 21 -3 22 -8 25 -90z
m843 63 c39 -39 41 -106 5 -148 -22 -26 -30 -28 -98 -28 l-73 0 -3 89 c-2 49
-1 95 2 103 4 9 26 13 71 13 60 0 69 -3 96 -29z m749 19 c0 -6 -11 -15 -25
-20 -30 -11 -32 -26 -5 -33 11 -3 20 -10 20 -16 0 -6 -9 -11 -20 -11 -18 0
-20 -7 -20 -61 0 -57 -1 -60 -22 -57 -20 3 -23 10 -26 61 -2 31 -7 57 -12 57
-16 0 -11 27 5 34 8 3 15 12 15 20 0 8 8 20 18 25 22 14 72 14 72 1z m756 -15
c14 -21 15 -30 5 -52 -8 -18 -9 -29 -1 -37 15 -15 12 -57 -7 -78 -13 -14 -31
-18 -85 -18 l-68 0 0 105 0 105 70 0 c63 0 71 -2 86 -25z m-1086 -14 c0 -12 8
-21 22 -23 30 -4 34 -26 6 -30 -20 -3 -23 -9 -23 -43 0 -34 3 -40 23 -43 36
-5 27 -32 -11 -32 -45 0 -57 15 -57 72 0 36 -4 48 -15 48 -8 0 -15 7 -15 15 0
8 7 15 15 15 8 0 15 9 15 20 0 13 7 20 20 20 13 0 20 -7 20 -19z m6193 -31
c-3 -12 -8 -19 -11 -16 -5 6 5 36 12 36 2 0 2 -9 -1 -20z m-7299 -6 c3 -9 6
-36 6 -60 0 -37 3 -44 19 -44 23 0 31 19 31 76 0 37 3 44 20 44 18 0 20 -7 20
-74 l0 -74 -60 -1 c-71 -1 -80 10 -80 93 0 48 3 56 19 56 10 0 22 -7 25 -16z
m240 10 c9 -3 16 -13 16 -21 0 -11 -8 -12 -35 -7 -30 5 -36 3 -46 -19 -17 -38
3 -69 44 -65 23 2 32 -1 32 -12 0 -10 -13 -16 -42 -18 -53 -4 -83 22 -83 73 0
58 55 92 114 69z m148 -11 c13 -12 18 -31 18 -74 l0 -57 -57 -1 c-64 0 -83 10
-83 45 0 26 31 44 75 44 18 0 23 4 18 16 -5 13 -14 15 -44 10 -30 -5 -39 -3
-39 8 0 29 83 36 112 9z m479 -4 c11 -11 19 -30 17 -42 -3 -19 -10 -22 -51
-25 -60 -4 -59 -27 1 -27 22 0 44 -4 48 -8 14 -13 -18 -27 -63 -27 -33 0 -46
5 -63 27 -57 72 46 167 111 102z m143 15 c9 -3 16 -13 16 -21 0 -10 -8 -12
-34 -8 -43 9 -58 -11 -19 -25 63 -22 77 -45 47 -74 -22 -23 -107 -19 -112 5
-3 14 4 16 42 12 59 -7 61 10 4 29 -48 15 -61 44 -33 72 17 16 60 21 89 10z
m277 -15 c11 -11 19 -30 17 -42 -3 -19 -10 -22 -51 -25 -60 -4 -59 -27 1 -27
22 0 44 -4 48 -8 14 -13 -18 -27 -63 -27 -33 0 -46 5 -63 27 -57 72 46 167
111 102z m260 11 c16 -9 19 -22 19 -74 l0 -64 -53 -1 c-57 0 -70 5 -80 32 -9
25 26 57 64 57 43 0 32 25 -12 26 -52 1 -56 3 -35 19 23 17 69 19 97 5z m189
-10 c5 -10 10 -44 10 -74 0 -49 -2 -56 -20 -56 -17 0 -20 7 -20 48 0 59 -13
81 -37 66 -13 -8 -19 -26 -21 -63 -3 -43 -6 -51 -23 -51 -17 0 -19 7 -19 73
l0 73 60 1 c49 2 62 -1 70 -17z m169 -6 c45 -57 14 -124 -58 -124 -72 0 -106
76 -56 125 34 35 86 34 114 -1z m4786 3 c19 -4 19 -5 -1 -6 -12 0 -28 7 -35
17 -12 15 -12 16 1 6 8 -7 24 -14 35 -17z m369 12 c10 8 16 9 16 3 0 -20 -41
-25 -59 -7 -15 16 -15 16 6 4 18 -10 24 -10 37 0z m291 -39 c-3 -5 -14 -10
-23 -9 -14 0 -13 2 3 9 27 11 27 11 20 0z m-8707 -71 c2 -2 18 -6 30 -8 5 0
15 -13 22 -28 12 -26 13 -27 20 -8 7 18 10 15 25 -19 l16 -38 -35 -36 c-20
-19 -37 -42 -37 -51 -4 -41 4 -117 13 -134 15 -28 2 -67 -23 -67 -11 0 -19 -6
-18 -12 3 -27 -2 -37 -15 -32 -7 3 -16 -1 -19 -10 -7 -17 13 -27 40 -20 11 3
25 -1 31 -9 10 -12 7 -14 -15 -14 -50 0 -193 -7 -193 -10 0 -1 17 -11 38 -22
33 -17 39 -17 48 -5 7 11 16 12 43 4 19 -5 38 -7 42 -4 5 3 9 -2 9 -10 0 -19
-16 -21 -26 -5 -5 8 -10 6 -16 -5 -5 -9 -16 -16 -23 -16 -23 0 -18 -15 9 -29
19 -11 28 -10 54 3 17 9 41 15 54 14 l24 -2 -19 -55 c-10 -31 -26 -60 -35 -66
-32 -19 -114 -22 -146 -5 -86 44 -125 72 -119 86 3 8 0 14 -6 14 -6 0 -11 -6
-11 -12 0 -20 -99 88 -104 114 -3 13 -12 67 -21 120 l-17 98 27 102 c32 128
47 152 83 143 44 -11 72 -45 37 -45 -8 0 -15 -4 -15 -8 0 -10 -51 -37 -63 -33
-5 1 -6 -3 -2 -9 7 -12 45 -14 45 -2 0 13 64 47 84 43 10 -1 36 -12 57 -23 40
-21 80 -21 86 -1 3 7 -14 20 -36 30 -48 21 -51 35 -13 68 19 17 36 23 57 20
17 -2 31 -5 33 -6z m3637 -9 c0 -19 -35 -26 -46 -9 -4 7 -5 17 -2 22 8 14 48
3 48 -13z m-4118 -141 c-3 -10 -4 -19 -2 -19 2 0 11 -3 21 -7 12 -5 15 -3 9 6
-6 10 -3 11 12 3 33 -18 40 -34 47 -107 3 -38 9 -80 12 -92 5 -17 2 -23 -10
-23 -9 0 -19 7 -22 15 -12 31 -21 13 -28 -52 -4 -38 -14 -107 -22 -155 l-16
-86 -50 -17 c-28 -9 -52 -14 -55 -12 -2 3 0 22 6 43 5 22 13 66 16 99 3 33 8
74 10 90 3 17 7 58 10 93 3 35 12 92 20 126 13 55 21 99 25 141 0 6 5 2 11 -8
6 -10 9 -27 6 -38z m638 -151 c4 -10 10 -18 15 -18 13 0 5 -61 -9 -70 -7 -4
-13 -20 -15 -36 -2 -16 -4 -32 -5 -35 0 -3 -13 -11 -27 -17 -14 -7 -23 -8 -19
-2 3 5 -1 20 -9 32 -12 19 -13 37 -6 96 5 40 12 77 15 82 8 14 54 -10 60 -32z
m75 -18 c0 -5 -4 -10 -10 -10 -5 0 -10 5 -10 10 0 6 5 10 10 10 6 0 10 -4 10
-10z m927 -107 c-2 -21 -4 -4 -4 37 0 41 2 58 4 38 2 -21 2 -55 0 -75z m55 82
c-2 -14 -6 -25 -8 -25 -2 0 -4 11 -4 25 0 14 4 25 9 25 4 0 6 -11 3 -25z m466
18 c-33 -4 -38 -8 -38 -29 0 -21 5 -24 36 -24 21 0 33 -4 29 -10 -3 -5 -19
-10 -36 -10 -26 0 -29 -3 -29 -30 0 -16 -4 -30 -10 -30 -6 0 -10 30 -10 70 l0
70 48 -2 c43 -1 44 -2 10 -5z m525 0 c-38 -4 -43 -7 -43 -29 0 -21 5 -24 35
-24 19 0 35 -4 35 -10 0 -5 -16 -10 -36 -10 -31 0 -35 -3 -32 -22 2 -18 11
-24 43 -29 l40 -6 -47 -2 -48 -1 0 70 0 70 48 -2 47 -1 -42 -4z m257 -63 l0
-70 -33 0 c-40 0 -57 15 -57 51 0 32 23 53 50 46 16 -4 20 0 20 19 0 13 5 24
10 24 6 0 10 -30 10 -70z m185 50 c24 -26 23 -74 0 -100 -14 -16 -29 -20 -59
-18 l-41 3 -3 54 c-2 29 -1 60 2 67 9 22 80 18 101 -6z m375 -40 c0 -46 4 -61
18 -69 15 -9 15 -10 -4 -11 -12 0 -25 7 -28 16 -10 26 -7 124 4 124 6 0 10
-27 10 -60z m810 -8 l0 -69 -40 -1 c-45 -2 -65 21 -54 63 6 25 43 43 63 30 7
-4 11 4 11 19 0 14 5 26 10 26 6 0 10 -29 10 -68z m370 42 c0 -15 4 -23 11
-19 20 13 57 -5 63 -30 11 -42 -9 -65 -54 -63 l-40 1 0 69 c0 39 4 68 10 68 6
0 10 -12 10 -26z m510 -32 c0 -33 5 -64 13 -71 10 -10 8 -12 -8 -9 -17 3 -20
12 -23 71 -2 42 1 67 8 67 6 0 10 -24 10 -58z m60 48 c0 -5 -4 -10 -10 -10 -5
0 -10 5 -10 10 0 6 5 10 10 10 6 0 10 -4 10 -10z m310 0 c0 -5 -4 -10 -10 -10
-5 0 -10 5 -10 10 0 6 5 10 10 10 6 0 10 -4 10 -10z m416 -1 c5 -8 -1 -10 -19
-5 -34 8 -57 -2 -68 -30 -10 -29 3 -69 25 -77 9 -4 27 -2 41 3 16 6 25 6 25 0
0 -13 -45 -23 -74 -16 -45 11 -54 102 -13 128 18 12 75 9 83 -3z m144 -13 c0
-19 4 -23 20 -19 28 7 50 -14 50 -47 0 -35 -17 -49 -58 -48 l-32 1 0 69 c0 39
4 68 10 68 6 0 10 -11 10 -24z m770 14 c0 -5 -4 -10 -10 -10 -5 0 -10 5 -10
10 0 6 5 10 10 10 6 0 10 -4 10 -10z m560 -16 c0 -21 3 -24 20 -19 12 4 27 1
35 -5 17 -14 21 -90 5 -90 -5 0 -10 18 -10 41 0 36 -2 40 -22 37 -19 -2 -24
-10 -26 -40 -5 -66 -22 -41 -22 32 0 40 4 70 10 70 6 0 10 -12 10 -26z m330
16 c0 -5 -4 -10 -10 -10 -5 0 -10 5 -10 10 0 6 5 10 10 10 6 0 10 -4 10 -10z
m-5229 -30 c10 -1 9 -4 -3 -14 -10 -7 -18 -26 -18 -44 0 -20 6 -32 18 -36 10
-3 6 -4 -8 -3 -21 2 -26 8 -28 37 -2 19 -9 39 -15 43 -9 6 -9 10 1 14 6 2 12
12 12 21 1 15 2 15 14 0 7 -10 19 -18 27 -18z m2970 0 c10 -1 9 -4 -3 -14 -10
-7 -18 -26 -18 -44 0 -20 6 -32 18 -36 10 -3 6 -4 -8 -3 -21 2 -26 8 -28 37
-2 19 -9 39 -15 43 -9 6 -9 10 1 14 6 2 12 12 12 21 1 15 2 15 14 0 7 -10 19
-18 27 -18z m1419 15 c0 -8 7 -15 15 -15 8 0 15 -4 15 -10 0 -5 -7 -10 -15
-10 -26 0 -19 -59 8 -70 21 -9 21 -9 -4 -9 -28 -1 -39 14 -39 53 0 12 -5 27
-12 34 -9 9 -9 12 0 12 7 0 12 7 12 15 0 8 5 15 10 15 6 0 10 -7 10 -15z m450
0 c0 -8 8 -15 18 -15 16 -1 16 -1 0 -14 -10 -7 -18 -25 -18 -39 0 -14 8 -31
18 -37 15 -9 14 -10 -8 -8 -21 3 -26 9 -28 38 -2 19 -9 39 -15 43 -9 6 -9 10
1 14 6 2 12 11 12 19 0 8 5 14 10 14 6 0 10 -7 10 -15z m640 0 c0 -8 8 -15 18
-15 16 -1 16 -1 0 -14 -10 -7 -18 -25 -18 -39 0 -14 8 -31 18 -37 15 -9 14
-10 -8 -8 -21 3 -26 9 -28 38 -2 19 -9 39 -15 43 -9 6 -9 10 1 14 6 2 12 11
12 19 0 8 5 14 10 14 6 0 10 -7 10 -15z m-6172 -67 c2 -29 -1 -48 -7 -48 -6 0
-11 17 -11 38 0 43 -6 53 -26 45 -9 -3 -14 -20 -14 -44 0 -21 -4 -39 -10 -39
-5 0 -10 17 -10 38 0 43 -6 53 -26 45 -9 -3 -14 -20 -14 -44 0 -21 -4 -39 -10
-39 -5 0 -10 22 -10 48 l0 49 68 -1 67 -1 3 -47z m150 40 c7 -7 12 -29 12 -51
0 -38 0 -38 -37 -35 -30 2 -39 8 -41 25 -3 17 3 23 28 28 39 8 34 31 -6 27
-22 -2 -26 -1 -14 7 20 14 43 14 58 -1z m252 1 c0 -5 -7 -9 -15 -9 -11 0 -15
-11 -15 -40 0 -22 -4 -40 -10 -40 -5 0 -10 21 -10 48 0 43 2 47 25 48 14 1 25
-2 25 -7z m94 -5 c33 -32 11 -84 -35 -84 -41 0 -59 38 -35 75 19 28 47 32 70
9z m112 -39 c1 -33 0 -38 -3 -15 -9 70 -53 77 -53 9 0 -21 -4 -39 -10 -39 -5
0 -10 22 -10 49 l0 49 38 -1 37 -2 1 -50z m351 43 c15 -12 18 -88 3 -88 -5 0
-10 18 -10 41 0 36 -2 40 -22 37 -19 -2 -24 -10 -26 -40 -5 -55 -22 -46 -22
10 0 48 0 49 32 50 18 0 38 -4 45 -10z m427 -4 c25 -24 19 -34 -20 -34 -28 0
-35 -3 -32 -17 3 -14 12 -17 37 -15 20 1 30 -2 26 -8 -9 -14 -58 -13 -73 2 -7
7 -12 24 -12 38 0 47 42 66 74 34z m55 -21 l19 -38 16 39 c9 22 19 36 22 33 9
-9 -29 -97 -41 -97 -9 0 -45 74 -45 93 0 16 11 5 29 -30z m149 25 c21 -21 13
-38 -17 -38 -17 0 -32 -4 -35 -9 -10 -15 22 -33 45 -26 14 5 19 4 15 -4 -10
-16 -52 -13 -70 5 -20 19 -20 34 0 62 17 24 43 29 62 10z m170 0 c7 -7 12 -24
12 -38 0 -31 -17 -50 -45 -50 -28 0 -45 19 -45 50 0 31 17 50 45 50 12 0 26
-5 33 -12z m122 -8 c24 -38 -2 -86 -43 -78 -23 5 -27 2 -27 -19 0 -14 -4 -21
-10 -18 -10 6 -14 117 -5 127 11 11 77 1 85 -12z m98 8 c21 -21 13 -38 -17
-38 -17 0 -32 -4 -35 -9 -10 -15 22 -33 45 -26 14 5 19 4 15 -4 -10 -16 -52
-13 -70 5 -20 19 -20 34 0 62 17 24 43 29 62 10z m92 1 c0 -5 -7 -9 -15 -9
-11 0 -15 -11 -15 -40 0 -22 -4 -40 -10 -40 -5 0 -10 21 -10 48 0 43 2 47 25
48 14 1 25 -2 25 -7z m138 -1 c7 -7 12 -29 12 -49 0 -36 -1 -37 -37 -36 -31 2
-39 6 -41 25 -3 18 2 23 27 28 49 10 39 30 -13 24 -11 -1 -15 3 -12 9 9 15 49
14 64 -1z m118 -43 c1 -33 0 -38 -3 -15 -9 70 -53 77 -53 9 0 -21 -4 -39 -10
-39 -5 0 -10 22 -10 48 l0 48 38 -1 37 0 1 -50z m214 46 c0 -5 5 -22 11 -38
l11 -28 15 38 c14 34 33 50 33 28 0 -5 5 -22 11 -38 l10 -28 19 40 c22 48 26
23 5 -29 -19 -44 -27 -45 -44 -3 l-13 32 -14 -32 c-8 -18 -18 -33 -23 -33 -5
0 -16 21 -25 47 -19 55 -19 53 -6 53 6 0 10 -4 10 -9z m230 -10 c15 -29 13
-31 -26 -31 -28 0 -35 -3 -32 -17 3 -13 13 -18 36 -17 17 1 29 -2 26 -7 -8
-13 -58 -11 -72 3 -7 7 -12 24 -12 40 0 44 60 66 80 29z m268 7 c7 -7 12 -29
12 -49 0 -36 -1 -37 -37 -36 -31 2 -39 6 -41 25 -3 18 2 23 27 28 49 10 39 30
-13 24 -11 -1 -15 3 -12 9 9 15 49 14 64 -1z m122 -8 c24 -38 -2 -86 -43 -78
-23 5 -27 2 -27 -19 0 -14 -4 -21 -10 -18 -10 6 -14 117 -5 127 11 11 77 1 85
-12z m96 14 c26 -5 39 -46 23 -75 -8 -16 -18 -20 -40 -17 -25 4 -29 1 -29 -19
0 -13 -4 -23 -10 -23 -6 0 -10 30 -10 69 0 75 2 77 66 65z m134 -50 c0 -24 -4
-44 -10 -44 -5 0 -10 23 -10 51 0 31 4 48 10 44 6 -3 10 -26 10 -51z m96 45
c3 -6 -1 -10 -12 -9 -40 5 -45 0 -42 -32 3 -29 6 -33 31 -31 15 1 25 -2 22 -8
-9 -13 -49 -11 -63 3 -7 7 -12 24 -12 38 0 14 5 31 12 38 15 15 55 16 64 1z
m94 -8 c5 -11 10 -33 10 -49 0 -26 -3 -29 -34 -30 -45 -2 -69 24 -41 44 10 8
27 14 37 14 10 0 18 5 18 10 0 11 -13 14 -44 10 -11 -1 -15 3 -12 9 12 18 55
12 66 -8z m120 -31 c0 -27 -4 -50 -10 -50 -5 0 -10 23 -10 50 0 28 5 50 10 50
6 0 10 -22 10 -50z m104 34 c33 -32 11 -84 -35 -84 -41 0 -59 38 -35 75 19 28
47 32 70 9z m113 4 c15 -12 18 -88 3 -88 -5 0 -10 18 -10 41 0 36 -2 40 -22
37 -19 -2 -24 -10 -26 -40 -5 -55 -22 -46 -22 10 0 48 0 49 32 50 18 0 38 -4
45 -10z m242 -25 l19 -38 16 39 c9 22 19 36 22 33 8 -8 -46 -137 -57 -137 -5
0 -6 13 -3 29 4 17 0 41 -10 59 -16 31 -20 52 -11 52 2 0 13 -17 24 -37z m271
18 c15 -29 13 -31 -26 -31 -28 0 -35 -3 -32 -17 3 -13 13 -18 36 -17 17 1 29
-2 26 -7 -8 -13 -58 -11 -72 3 -7 7 -12 24 -12 40 0 44 60 66 80 29z m73 2
c-16 -11 -23 -25 -23 -49 0 -19 -4 -34 -10 -34 -5 0 -10 22 -10 48 0 48 0 49
33 50 32 0 32 0 10 -15z m92 7 c4 -6 -3 -9 -16 -7 -30 3 -36 -20 -7 -28 30
-10 40 -26 26 -42 -13 -16 -54 -17 -63 -3 -4 7 2 9 18 5 37 -10 44 14 8 26
-32 11 -43 43 -18 52 21 9 46 7 52 -3z m103 -2 c21 -21 13 -38 -17 -38 -17 0
-32 -4 -35 -9 -10 -15 22 -33 45 -26 14 5 19 4 15 -4 -10 -16 -52 -13 -70 5
-20 19 -20 34 0 62 17 24 43 29 62 10z m108 1 c3 -6 -1 -10 -12 -9 -40 5 -45
0 -42 -32 3 -29 6 -33 31 -31 15 1 25 -2 22 -8 -9 -13 -49 -11 -63 3 -7 7 -12
24 -12 38 0 14 5 31 12 38 15 15 55 16 64 1z m47 -75 c17 -17 37 7 37 46 0 22
5 40 10 40 6 0 10 -23 10 -51 l0 -50 -37 3 -38 3 -2 50 -1 50 7 -42 c4 -24 10
-46 14 -49z m142 75 c-4 -5 -13 -9 -21 -9 -10 0 -14 -12 -14 -40 0 -22 -4 -40
-10 -40 -5 0 -10 22 -10 48 0 48 1 49 30 50 17 0 28 -4 25 -9z m35 -39 c0 -27
-4 -50 -10 -50 -5 0 -10 23 -10 50 0 28 5 50 10 50 6 0 10 -22 10 -50z m121
12 l16 -37 18 40 c10 22 20 35 22 29 2 -7 -9 -41 -26 -75 -25 -54 -30 -59 -29
-34 0 17 -7 47 -16 67 -18 42 -19 48 -8 48 4 0 14 -17 23 -38z m209 19 c15
-29 13 -31 -26 -31 -28 0 -35 -3 -32 -17 3 -13 13 -18 36 -17 17 1 29 -2 26
-7 -8 -13 -58 -11 -72 3 -7 7 -12 24 -12 40 0 44 60 66 80 29z m106 -36 c1
-33 0 -38 -3 -15 -9 70 -53 77 -53 9 0 -21 -4 -39 -10 -39 -5 0 -10 22 -10 49
l0 49 38 -1 37 -2 1 -50z m246 5 c2 -23 8 -35 18 -35 10 0 16 12 18 35 5 57
22 60 22 3 l0 -50 -37 1 -38 1 -3 50 c-4 57 14 53 20 -5z m154 39 c3 -6 -1
-10 -12 -9 -52 6 -60 -10 -13 -27 21 -8 30 -17 27 -30 -4 -21 -54 -31 -71 -14
-8 8 -3 10 20 5 42 -8 54 13 14 27 -29 10 -41 36 -24 52 10 11 51 8 59 -4z
m54 -45 c0 -24 -4 -44 -10 -44 -5 0 -10 23 -10 51 0 31 4 48 10 44 6 -3 10
-26 10 -51z m88 44 c7 -7 12 -29 12 -51 0 -38 0 -38 -37 -35 -30 2 -39 8 -41
25 -3 17 3 23 28 28 39 8 34 31 -6 27 -22 -2 -26 -1 -14 7 20 14 43 14 58 -1z
m108 1 c3 -6 -1 -10 -12 -9 -52 6 -60 -10 -13 -27 21 -8 30 -17 27 -30 -4 -21
-54 -31 -71 -14 -8 8 -3 10 20 5 42 -8 54 13 14 27 -29 10 -41 36 -24 52 10
11 51 8 59 -4z m-7766 -262 c1 -7 44 -33 98 -59 87 -42 102 -46 148 -41 29 3
54 1 57 -4 4 -6 -3 -27 -13 -49 -34 -65 -100 -258 -100 -289 0 -5 28 -11 62
-12 85 -3 88 -5 88 -57 0 -25 4 -67 9 -93 5 -26 12 -65 15 -85 l5 -38 -370 0
c-428 0 -387 -15 -340 127 37 111 66 179 81 188 6 4 29 -5 50 -19 22 -14 42
-26 45 -26 13 0 35 66 55 170 13 63 32 135 42 159 12 30 19 69 19 118 l1 74
24 -26 c13 -14 24 -31 24 -38z m648 -166 l32 -13 0 -274 0 -274 -30 0 c-23 0
-33 7 -45 30 -30 58 -45 267 -25 353 5 23 12 77 15 120 4 43 10 76 13 74 4 -2
22 -9 40 -16z m852 -153 c15 -10 22 -10 32 0 6 6 20 12 29 12 20 0 32 -64 17
-93 -6 -12 -4 -27 6 -47 8 -17 10 -30 5 -30 -5 0 -14 11 -19 25 -5 14 -14 25
-20 25 -13 0 -13 -47 0 -53 6 -3 5 -4 -2 -3 -7 1 -14 15 -16 29 -2 15 -9 27
-17 27 -8 0 -15 -12 -17 -27 -2 -14 -9 -28 -16 -29 -7 -1 -8 0 -2 3 13 6 13
53 0 53 -6 0 -15 -11 -20 -25 -5 -14 -14 -25 -19 -25 -5 0 -3 13 5 30 10 20
12 35 6 47 -5 10 -7 35 -5 56 5 39 19 46 53 25z m210 -46 c0 -33 5 -64 13 -71
10 -10 8 -12 -8 -9 -17 3 -20 12 -23 71 -2 42 1 67 8 67 6 0 10 -24 10 -58z
m440 -10 l0 -69 -40 -1 c-45 -2 -66 22 -56 64 6 24 45 42 65 29 7 -4 11 4 11
19 0 14 5 26 10 26 6 0 10 -29 10 -68z m40 45 c0 -20 4 -23 30 -19 24 3 32 0
41 -22 9 -20 9 -32 1 -51 -10 -21 -18 -25 -52 -23 l-40 1 0 69 c0 39 4 68 10
68 6 0 10 -10 10 -23z m1048 11 c19 -19 15 -34 -19 -73 l-31 -35 25 0 c14 0
29 -4 32 -10 4 -6 -12 -10 -39 -10 -25 0 -46 4 -46 8 0 5 12 19 26 33 14 13
30 32 36 42 14 27 -8 49 -40 40 -17 -4 -23 -2 -18 6 9 15 59 14 74 -1z m127
-58 l0 -65 -36 -3 c-43 -4 -64 16 -53 50 4 13 7 33 5 45 -4 35 8 44 47 41 l37
-3 0 -65z m535 60 c0 -5 -4 -10 -10 -10 -5 0 -10 5 -10 10 0 6 5 10 10 10 6 0
10 -4 10 -10z m120 -59 l0 -69 -41 2 c-51 1 -68 22 -53 63 8 23 16 28 42 28
27 0 32 4 32 22 0 13 5 23 10 23 6 0 10 -30 10 -69z m-1040 39 c24 -24 24 -30
6 -55 -12 -17 -12 -21 5 -33 33 -23 21 -32 -46 -32 -68 0 -79 9 -44 33 13 9
16 17 10 22 -16 9 -13 51 5 69 21 21 40 20 64 -4z m76 -5 c17 -25 11 -65 -9
-65 -6 0 -1 -7 11 -16 27 -18 29 -34 4 -34 -32 0 -55 36 -57 90 -2 42 1 50 16
50 10 0 26 -11 35 -25z m-1284 -47 c4 -55 31 -61 36 -8 6 58 22 60 22 1 l0
-52 -37 3 c-38 3 -38 3 -41 51 -2 26 1 47 7 47 5 0 11 -19 13 -42z m163 32 c4
-6 -7 -10 -25 -10 -29 0 -31 -2 -28 -32 3 -29 6 -33 31 -31 15 1 25 -2 22 -8
-9 -13 -49 -11 -63 3 -7 7 -12 24 -12 38 0 14 5 31 12 38 15 15 54 16 63 2z
m93 -43 l3 -48 -38 3 c-31 2 -39 7 -41 26 -3 18 2 23 27 28 41 8 40 24 -1 24
-25 0 -30 3 -18 10 8 6 26 9 40 8 22 -3 25 -8 28 -51z m340 41 c7 -7 12 -24
12 -38 0 -31 -17 -50 -45 -50 -28 0 -45 19 -45 50 0 31 17 50 45 50 12 0 26
-5 33 -12z m112 -8 c15 -28 5 -40 -31 -40 -20 0 -29 -4 -26 -12 2 -8 18 -12
36 -10 20 1 30 -2 26 -8 -9 -14 -58 -13 -73 2 -7 7 -12 24 -12 38 0 14 5 31
12 38 19 19 56 14 68 -8z m73 3 c-16 -11 -23 -25 -23 -49 0 -19 -4 -34 -10
-34 -5 0 -10 22 -10 48 0 48 0 49 33 50 32 0 32 0 10 -15z m962 7 c4 -6 -7
-10 -24 -10 -40 0 -40 -12 0 -27 21 -8 30 -17 27 -30 -4 -21 -54 -31 -71 -14
-8 8 -3 10 21 5 25 -5 32 -3 32 10 0 9 -8 16 -20 16 -23 0 -35 22 -26 45 6 17
51 20 61 5z m105 -5 c19 -23 4 -45 -30 -45 -16 0 -30 -4 -30 -9 0 -13 25 -20
51 -14 15 4 20 3 15 -5 -9 -16 -59 -15 -74 0 -7 7 -12 24 -12 38 0 14 5 31 12
38 17 17 53 15 68 -3z m120 -41 c0 -71 -26 -97 -77 -77 -14 6 -11 9 16 13 19
3 36 10 38 16 2 7 -5 10 -20 7 -27 -5 -57 19 -57 47 0 29 28 49 65 48 l35 -1
0 -53z m58 -26 c18 -18 32 1 32 43 0 21 5 39 10 39 6 0 10 -23 10 -51 l0 -50
-37 3 -38 3 -2 50 c-1 48 -1 48 6 12 5 -21 13 -43 19 -49z m102 32 c0 -27 -4
-50 -10 -50 -5 0 -10 23 -10 50 0 28 5 50 10 50 6 0 10 -22 10 -50z m218 38
c7 -7 12 -24 12 -38 0 -31 -17 -50 -45 -50 -28 0 -45 19 -45 50 0 31 17 50 45
50 12 0 26 -5 33 -12z m92 3 c0 -5 -9 -11 -20 -14 -15 -4 -20 -14 -20 -41 0
-20 -4 -36 -10 -36 -10 0 -15 82 -6 91 9 9 56 9 56 0z m90 -6 c19 -23 4 -45
-30 -45 -16 0 -30 -4 -30 -9 0 -13 25 -20 51 -14 15 4 20 3 15 -5 -9 -16 -59
-15 -74 0 -7 7 -12 24 -12 38 0 14 5 31 12 38 17 17 53 15 68 -3z m95 5 c4 -6
-5 -10 -19 -10 -33 0 -33 -14 0 -29 34 -15 28 -45 -10 -49 -16 -2 -34 2 -40 8
-8 9 -3 10 22 5 25 -5 32 -3 32 8 0 8 -11 18 -25 21 -24 6 -34 34 -18 49 10
11 51 8 58 -3z m-4755 -1660 c9 -5 19 -5 27 2 10 8 13 6 13 -6 0 -22 -26 -31
-44 -17 -10 8 -16 9 -21 1 -12 -19 -26 -11 -15 10 12 22 18 24 40 10z m-819
-10 c22 -12 26 -59 7 -78 -7 -7 -27 -12 -45 -12 -30 0 -33 -3 -33 -30 0 -20
-5 -30 -15 -30 -12 0 -15 16 -15 80 l0 80 41 0 c22 0 49 -5 60 -10z m199 -19
c0 -25 3 -28 25 -23 34 6 55 -14 55 -53 0 -42 -16 -54 -68 -53 l-42 0 0 79 c0
64 3 79 15 79 10 0 15 -10 15 -29z m130 -30 c0 -40 5 -65 15 -75 8 -8 15 -17
15 -20 0 -11 -36 -6 -48 6 -13 13 -17 130 -5 141 17 17 23 3 23 -52z m80 50
c0 -14 -18 -23 -30 -16 -6 4 -8 11 -5 16 8 12 35 12 35 0z m9113 -8 c-28 -4
-33 -9 -33 -30 0 -19 4 -24 16 -19 39 15 73 -41 42 -72 -13 -13 -54 -16 -61
-4 -3 4 9 7 26 7 27 0 32 4 35 26 4 31 -19 44 -49 29 -17 -10 -19 -7 -19 30 0
40 0 40 38 38 36 -1 36 -1 5 -5z m368 -43 c5 0 4 -9 -3 -20 -16 -25 -1 -54 30
-58 33 -5 42 46 12 70 -12 10 -18 18 -12 18 16 0 42 -29 42 -46 0 -35 -20 -54
-55 -51 l-35 2 2 70 c0 39 3 58 5 43 2 -16 9 -28 14 -28z m126 -77 c15 -12 15
-13 1 -13 -22 0 -28 22 -26 88 l2 57 3 -60 c3 -41 9 -64 20 -72z m-9947 41 c0
-38 3 -45 18 -42 12 2 18 15 20 46 2 28 8 42 18 42 10 0 14 -14 14 -54 l0 -55
-47 2 -48 2 -3 53 c-2 42 0 52 12 52 12 0 16 -11 16 -46z m340 -9 c0 -42 -3
-55 -15 -55 -12 0 -15 13 -15 55 0 42 3 55 15 55 12 0 15 -13 15 -55z m110 41
c0 -10 -9 -14 -27 -13 -25 2 -28 -1 -28 -28 0 -26 4 -30 28 -30 15 1 27 -5 27
-12 0 -17 -62 -17 -78 -1 -7 7 -12 26 -12 43 0 17 5 36 12 43 17 17 78 16 78
-2z m108 -42 l3 -51 -39 -1 c-69 -3 -82 51 -16 64 19 3 31 11 28 16 -4 6 -19
7 -35 4 -16 -3 -29 -2 -29 3 0 16 15 22 50 19 35 -3 35 -4 38 -54z m122 42 c0
-10 -9 -14 -27 -13 -25 2 -28 -1 -28 -28 0 -27 3 -30 28 -28 18 1 27 -3 27
-13 0 -8 -8 -14 -17 -15 -11 0 -13 -3 -5 -6 24 -9 13 -33 -15 -32 -21 0 -23 2
-11 7 15 6 13 10 -12 31 -32 25 -41 76 -18 99 17 17 78 16 78 -2z m117 -12
c15 -24 15 -29 2 -53 -29 -51 -109 -33 -109 24 0 56 76 76 107 29z m123 7 c17
-33 11 -41 -31 -41 -49 0 -50 -25 -1 -26 43 0 41 -18 -2 -22 -57 -5 -89 54
-50 92 22 23 71 20 84 -3z m110 6 c0 -9 -10 -12 -30 -9 -39 6 -39 -14 -1 -23
61 -13 45 -68 -18 -63 -20 2 -35 7 -33 13 1 5 16 8 32 7 39 -4 39 14 1 23 -33
7 -47 31 -30 51 15 18 79 19 79 1z m8611 3 c35 -20 19 -91 -20 -89 -10 0 -7 4
7 9 16 7 22 18 22 39 0 29 -22 47 -42 34 -7 -3 -8 -1 -4 5 9 15 12 15 37 2z
m443 1 c4 -5 -2 -7 -12 -4 -22 5 -45 -19 -40 -44 2 -10 14 -23 28 -30 24 -12
24 -13 3 -13 -22 0 -43 26 -43 54 0 31 50 60 64 37z m94 -3 c7 -7 12 -30 12
-52 0 -50 -13 -39 -14 12 -1 35 -3 37 -31 35 -22 -2 -26 0 -15 7 20 13 34 12
48 -2z m74 0 c-18 -9 -22 -18 -20 -42 3 -26 7 -31 30 -31 14 1 24 -3 22 -7 -8
-12 -38 -10 -52 4 -28 28 -5 88 33 87 6 0 0 -5 -13 -11z m90 0 c-18 -9 -22
-18 -20 -42 2 -26 7 -31 28 -31 22 0 25 4 25 37 0 20 4 33 8 29 14 -14 3 -63
-15 -75 -25 -15 -52 4 -56 40 -4 27 18 55 42 53 6 0 1 -5 -12 -11z m149 -5
c13 -15 12 -15 -8 -3 -18 11 -24 12 -37 1 -9 -8 -17 -23 -17 -35 -1 -18 -2
-18 -6 -3 -5 20 22 57 42 57 7 0 19 -7 26 -17z m93 9 c3 -5 -5 -8 -17 -8 -15
1 -22 -5 -21 -16 1 -10 -2 -18 -7 -18 -14 0 -11 38 4 43 19 8 35 8 41 -1z
m-993 -61 c1 -28 -1 -55 -5 -58 -3 -3 -6 22 -6 57 0 75 10 76 11 1z m125 -18
c21 -8 42 14 47 50 3 25 4 22 5 -13 2 -42 0 -45 -26 -47 -38 -2 -52 14 -50 56
l1 36 4 -38 c3 -21 11 -41 19 -44z m271 10 c-2 -16 -4 -5 -4 22 0 28 2 40 4
28 2 -13 2 -35 0 -50z m600 21 c-3 -3 -12 -4 -19 -1 -8 3 -5 6 6 6 11 1 17 -2
13 -5z m3 -29 c-7 -8 -22 -14 -34 -14 -20 1 -20 2 -1 6 11 3 24 9 30 14 15 14
19 10 5 -6z m-439 -13 c-7 -2 -18 1 -23 6 -8 8 -4 9 13 5 13 -4 18 -8 10 -11z
m344 8 c-3 -5 -16 -10 -28 -9 -20 1 -20 2 3 9 14 4 26 8 28 9 2 1 0 -3 -3 -9z
m-220 -39 c-3 -6 -11 -11 -16 -11 -5 0 -4 6 3 14 14 16 24 13 13 -3z m-9967
-2043 c4 -82 -8 -108 -48 -108 -34 0 -41 19 -10 27 18 5 20 14 20 80 0 66 2
74 18 71 14 -3 18 -16 20 -70z m162 -14 c22 -47 40 -88 40 -90 0 -14 -40 0
-45 16 -5 16 -15 20 -50 20 -34 0 -44 -4 -48 -20 -5 -20 -37 -29 -37 -11 0 24
75 171 87 171 8 0 31 -38 53 -86z m119 29 l28 -57 33 57 c47 84 60 77 60 -33
0 -72 -3 -90 -14 -90 -11 0 -16 15 -18 53 l-3 52 -23 -42 c-12 -24 -26 -43
-31 -43 -5 0 -21 19 -35 43 l-25 42 -1 -52 c0 -40 -4 -53 -15 -53 -12 0 -15
17 -15 90 0 110 15 119 59 33z m659 2 l3 -48 29 28 c34 32 53 16 21 -19 l-21
-22 25 -24 c14 -13 25 -27 25 -32 0 -16 -34 -8 -57 14 l-23 21 0 -21 c0 -15
-6 -22 -20 -22 -18 0 -20 7 -20 83 0 46 3 87 7 91 16 15 28 -4 31 -49z m550
-23 c2 -55 6 -72 17 -72 8 0 15 -7 15 -15 0 -22 -47 -19 -60 4 -11 22 -14 144
-3 155 18 17 28 -7 31 -72z m220 61 c2 -8 -5 -13 -17 -13 -21 0 -35 13 -24 24
10 10 36 3 41 -11z m350 -75 l3 -86 -53 0 c-64 -1 -78 9 -78 59 0 30 6 42 25
55 14 9 32 13 45 9 17 -5 20 -2 20 25 0 25 4 31 18 28 14 -3 17 -17 20 -90z
m3613 82 c32 -18 23 -33 -16 -26 -52 10 -75 -7 -75 -53 0 -48 19 -65 64 -58
39 6 51 0 35 -20 -18 -21 -89 -16 -116 9 -33 31 -32 100 2 133 26 27 72 33
106 15z m150 0 c33 -18 22 -32 -19 -25 -28 4 -42 2 -51 -9 -14 -16 1 -28 51
-40 39 -9 54 -41 33 -72 -13 -20 -24 -24 -64 -24 -31 0 -53 5 -61 15 -14 17
-13 17 49 19 51 1 66 22 24 32 -68 16 -92 56 -56 96 18 20 64 24 94 8z m165
-5 c21 -16 17 -18 -41 -19 -29 -1 -40 -6 -43 -18 -2 -12 5 -19 25 -23 59 -13
73 -23 73 -54 0 -36 -22 -51 -74 -51 -44 0 -66 9 -66 26 0 11 9 13 40 8 78
-13 92 26 15 40 -53 10 -70 51 -35 86 24 24 78 26 106 5z m211 -45 c15 -33 29
-60 32 -60 4 0 15 23 26 51 22 55 41 78 54 63 5 -5 -7 -46 -27 -92 -47 -106
-61 -106 -108 1 -39 88 -40 97 -18 97 9 0 25 -23 41 -60z m511 43 c2 -8 -5
-13 -17 -13 -12 0 -21 6 -21 16 0 18 31 15 38 -3z m292 -72 l0 -88 -50 -2
c-42 0 -52 3 -66 24 -31 47 7 116 55 100 14 -4 20 1 24 25 4 18 13 30 22 30
12 0 15 -16 15 -89z m638 72 c2 -8 -5 -13 -17 -13 -21 0 -35 13 -24 24 10 10
36 3 41 -11z m60 -58 c2 -48 8 -72 18 -78 23 -13 16 -27 -15 -27 -36 0 -41 12
-41 107 0 66 2 74 18 71 14 -3 18 -16 20 -73z m-7101 35 c3 -11 12 -20 19 -20
8 0 14 -4 14 -10 0 -5 -7 -10 -15 -10 -25 0 -20 -66 5 -73 30 -8 24 -27 -8
-27 -38 0 -52 17 -52 60 0 37 0 37 -45 38 -53 0 -70 -16 -25 -24 68 -14 55
-78 -15 -72 -21 2 -40 9 -43 16 -2 8 5 11 25 10 32 -3 47 15 17 21 -28 5 -44
21 -44 42 0 25 45 43 79 31 34 -12 51 -5 51 19 0 25 30 25 37 -1z m6013 0 c0
-13 7 -20 20 -20 11 0 20 -4 20 -10 0 -5 -9 -10 -20 -10 -16 0 -20 -7 -20 -30
0 -24 6 -33 27 -41 34 -13 18 -32 -23 -27 -26 3 -29 7 -34 48 l-5 45 -47 2
c-56 2 -62 -11 -13 -27 27 -9 35 -17 35 -36 0 -26 -27 -38 -76 -32 -43 5 -44
30 -1 26 44 -4 49 14 8 25 -24 6 -31 13 -31 33 0 32 39 52 73 37 27 -12 57 0
57 22 0 8 7 15 15 15 8 0 15 -9 15 -20z m930 0 c0 -13 7 -20 20 -20 11 0 20
-4 20 -10 0 -5 -9 -10 -20 -10 -16 0 -20 -7 -20 -35 0 -28 4 -35 20 -35 11 0
20 -7 20 -15 0 -10 -10 -15 -30 -15 -32 0 -50 26 -50 74 0 20 -5 23 -45 24
-52 0 -58 -11 -15 -27 63 -21 45 -74 -23 -69 -22 2 -42 9 -44 15 -3 9 7 12 31
10 40 -2 50 16 11 21 -37 5 -51 36 -25 62 22 22 42 25 69 11 20 -11 35 -4 44
22 9 24 37 22 37 -3z m-6802 -26 c18 -12 22 -25 22 -64 l0 -48 -51 1 c-36 1
-55 7 -62 19 -15 23 8 48 44 48 20 0 29 5 29 16 0 13 -7 15 -35 10 -27 -5 -35
-4 -35 8 0 26 56 33 88 10z m138 1 c20 -15 17 -17 -26 -19 -21 -1 -26 -7 -28
-33 -2 -22 1 -33 10 -34 7 -1 21 -2 30 -3 32 -2 19 -21 -16 -24 -43 -4 -66 18
-66 63 0 54 54 82 96 50z m193 -21 c-9 -11 -15 -12 -25 -3 -11 9 -12 15 -3 25
9 11 15 12 25 3 11 -9 12 -15 3 -25z m219 -38 c2 -53 -1 -73 -14 -87 -26 -28
-104 -24 -104 6 0 9 11 12 39 8 28 -4 39 -1 44 10 5 13 0 15 -27 10 -27 -4
-36 -1 -50 18 -39 56 -6 109 66 105 l43 -2 3 -68z m120 58 c12 -8 22 -26 22
-40 0 -21 -4 -24 -40 -24 -22 0 -40 -4 -40 -9 0 -14 23 -20 54 -14 22 4 27 2
24 -8 -3 -8 -22 -15 -45 -17 -33 -2 -44 1 -57 20 -23 33 -20 64 10 87 32 25
43 26 72 5z m223 -5 c32 -32 21 -53 -29 -57 -37 -3 -42 -5 -31 -18 8 -10 22
-12 45 -8 20 4 34 2 34 -4 0 -22 -67 -30 -101 -12 -28 16 -27 84 3 104 30 22
54 20 79 -5z m79 -45 c0 -42 -9 -64 -26 -64 -10 0 -14 15 -14 58 0 32 3 62 7
66 12 12 33 -26 33 -60z m108 50 c18 -12 22 -25 22 -63 l0 -48 -50 -2 c-40 0
-52 3 -60 20 -15 27 3 49 41 49 20 0 29 5 29 16 0 13 -7 15 -35 10 -38 -7 -47
6 -17 23 24 15 44 13 70 -5z m362 -4 c11 -11 20 -29 20 -40 0 -17 -7 -20 -47
-20 -44 -1 -46 -2 -29 -15 12 -9 30 -12 49 -8 23 5 29 3 25 -8 -7 -21 -82 -24
-102 -4 -35 36 -5 115 44 115 11 0 29 -9 40 -20z m3877 4 c8 -21 -13 -42 -28
-27 -13 13 -5 43 11 43 6 0 13 -7 17 -16z m353 -4 c11 -11 20 -29 20 -40 0
-17 -7 -20 -47 -20 -44 -1 -46 -2 -29 -15 12 -9 30 -12 49 -8 23 5 29 3 25 -8
-7 -21 -82 -24 -102 -4 -35 36 -5 115 44 115 11 0 29 -9 40 -20z m298 -54 c-2
-39 -7 -52 -20 -54 -16 -3 -18 5 -18 56 0 64 6 78 27 60 9 -7 13 -28 11 -62z
m130 60 c19 -11 16 -116 -3 -116 -11 0 -15 11 -15 38 0 45 -13 67 -34 59 -11
-5 -16 -19 -16 -52 0 -38 -3 -45 -20 -45 -18 0 -20 7 -20 58 0 32 2 61 5 64 8
7 88 3 103 -6z m290 -2 c26 -18 30 -74 6 -98 -24 -24 -80 -20 -98 6 -22 32
-20 55 9 83 28 29 51 31 83 9z m200 -1 c12 -10 22 -27 24 -38 3 -17 -3 -20
-39 -23 -24 -2 -43 -7 -43 -12 0 -13 30 -20 57 -14 19 5 24 3 21 -7 -3 -8 -22
-15 -45 -17 -33 -2 -44 1 -57 20 -22 32 -20 55 9 83 29 30 46 31 73 8z m312
-49 c0 -42 -9 -64 -26 -64 -10 0 -14 15 -14 58 0 32 3 62 7 66 12 12 33 -26
33 -60z m198 50 c26 -18 30 -74 6 -98 -24 -24 -80 -20 -98 6 -22 32 -20 55 9
83 28 29 51 31 83 9z m120 10 c34 -10 28 -35 -7 -28 -16 4 -32 1 -35 -5 -5 -7
4 -14 24 -17 68 -14 55 -78 -15 -72 -21 2 -40 9 -43 16 -2 8 5 11 25 10 32 -3
47 15 17 21 -46 8 -61 55 -21 71 28 11 27 11 55 4z m220 -8 c19 -11 16 -116
-3 -116 -11 0 -15 11 -15 38 0 45 -13 67 -34 59 -11 -5 -16 -19 -16 -52 0 -38
-3 -45 -20 -45 -18 0 -20 7 -20 58 0 32 2 61 5 64 8 7 88 3 103 -6z m130 -2
c18 -12 22 -25 22 -63 l0 -48 -50 -2 c-40 0 -52 3 -60 20 -15 27 3 49 41 49
20 0 29 5 29 16 0 13 -7 15 -35 10 -38 -7 -47 6 -17 23 24 15 44 13 70 -5z
m-7235 -89 c7 -17 -8 -29 -28 -21 -17 6 -9 36 10 36 7 0 15 -7 18 -15z m4985
-8 c2 -12 -3 -17 -17 -17 -12 0 -21 6 -21 13 0 31 32 34 38 4z m-2554 -73 c7
-19 -4 -42 -34 -69 l-22 -20 33 -6 34 -6 -37 -2 c-21 0 -38 2 -38 5 0 4 14 22
31 41 35 41 34 56 -7 64 l-29 7 31 1 c21 1 34 -5 38 -15z m156 -45 c0 -39 -4
-58 -10 -54 -6 4 -8 16 -5 26 4 11 1 27 -7 36 -9 12 -9 15 0 9 8 -5 12 1 12
18 0 14 2 26 5 26 3 0 5 -27 5 -61z m5444 45 c7 -19 -4 -42 -34 -69 l-22 -20
33 -6 34 -6 -37 -2 c-21 0 -38 2 -38 5 0 4 14 22 31 41 35 41 34 56 -7 64
l-29 7 31 1 c21 1 34 -5 38 -15z m156 -45 c0 -39 -4 -58 -10 -54 -6 4 -8 16
-5 26 4 11 1 27 -7 36 -9 12 -9 15 0 9 8 -5 12 1 12 18 0 14 2 26 5 26 3 0 5
-27 5 -61z m-5658 9 c-19 -19 -14 -48 11 -58 15 -6 17 -9 6 -9 -9 -1 -22 6
-29 14 -14 17 -5 65 12 65 9 0 9 -3 0 -12z m147 -30 c-1 -24 -4 -33 -6 -20 -2
12 -12 23 -21 23 -14 1 -14 2 1 6 11 3 16 11 13 19 -3 8 -1 14 4 14 6 0 9 -19
9 -42z m51 -2 c0 -12 -5 -7 -19 24 -11 24 -11 24 3 6 9 -11 16 -24 16 -30z
m43 29 c-3 -9 -8 -14 -10 -11 -3 3 -2 9 2 15 9 16 15 13 8 -4z m51 -18 c7 -6
6 -7 -4 -4 -8 2 -16 12 -17 23 -2 13 -1 15 4 4 3 -8 11 -19 17 -23z m165 -9
c-1 -24 -4 -33 -6 -20 -2 12 -12 23 -21 23 -14 1 -14 2 1 6 11 3 16 11 13 19
-3 8 -1 14 4 14 6 0 9 -19 9 -42z m44 27 c-3 -9 -8 -14 -10 -11 -3 3 -2 9 2
15 9 16 15 13 8 -4z m53 -81 c-3 -8 -18 -13 -33 -13 l-28 2 28 4 c19 3 27 10
26 21 -1 9 0 33 2 52 2 33 3 32 6 -9 3 -24 2 -50 -1 -57z m56 87 c-20 -12 -11
-55 12 -59 10 -2 23 2 28 10 8 10 9 10 5 -2 -5 -20 -34 -25 -52 -10 -25 21
-18 70 9 70 6 0 5 -4 -2 -9z m4990 -3 c-19 -19 -14 -48 11 -58 15 -6 17 -9 6
-9 -9 -1 -22 6 -29 14 -14 17 -5 65 12 65 9 0 9 -3 0 -12z m147 -30 c-1 -24
-4 -33 -6 -20 -2 12 -12 23 -21 23 -14 1 -14 2 1 6 11 3 16 11 13 19 -3 8 -1
14 4 14 6 0 9 -19 9 -42z m51 -2 c0 -12 -5 -7 -19 24 -11 24 -11 24 3 6 9 -11
16 -24 16 -30z m43 29 c-3 -9 -8 -14 -10 -11 -3 3 -2 9 2 15 9 16 15 13 8 -4z
m51 -18 c7 -6 6 -7 -4 -4 -8 2 -16 12 -17 23 -2 13 -1 15 4 4 3 -8 11 -19 17
-23z m165 -9 c-1 -24 -4 -33 -6 -20 -2 12 -12 23 -21 23 -14 1 -14 2 1 6 11 3
16 11 13 19 -3 8 -1 14 4 14 6 0 9 -19 9 -42z m44 27 c-3 -9 -8 -14 -10 -11
-3 3 -2 9 2 15 9 16 15 13 8 -4z m53 -81 c-3 -8 -18 -13 -33 -13 l-28 2 28 4
c19 3 27 10 26 21 -1 9 0 33 2 52 2 33 3 32 6 -9 3 -24 2 -50 -1 -57z m56 87
c-20 -12 -11 -55 12 -59 10 -2 23 2 28 10 8 10 9 10 5 -2 -5 -20 -34 -25 -52
-10 -25 21 -18 70 9 70 6 0 5 -4 -2 -9z m-5688 -70 c-5 -6 -34 20 -34 30 0 5
8 1 18 -8 10 -10 17 -20 16 -22z m5600 0 c-5 -6 -34 20 -34 30 0 5 8 1 18 -8
10 -10 17 -20 16 -22z m-6003 1 c-7 -2 -18 1 -23 6 -8 8 -4 9 13 5 13 -4 18
-8 10 -11z m99 11 c0 -5 -5 -15 -10 -23 -8 -12 -10 -11 -10 8 0 12 5 22 10 22
6 0 10 -3 10 -7z m211 -11 c-7 -2 -18 1 -23 6 -8 8 -4 9 13 5 13 -4 18 -8 10
-11z m5290 0 c-7 -2 -18 1 -23 6 -8 8 -4 9 13 5 13 -4 18 -8 10 -11z m99 11
c0 -5 -5 -15 -10 -23 -8 -12 -10 -11 -10 8 0 12 5 22 10 22 6 0 10 -3 10 -7z
m211 -11 c-7 -2 -18 1 -23 6 -8 8 -4 9 13 5 13 -4 18 -8 10 -11z m-5718 1 c-7
-2 -21 -2 -30 0 -10 3 -4 5 12 5 17 0 24 -2 18 -5z m5600 0 c-7 -2 -21 -2 -30
0 -10 3 -4 5 12 5 17 0 24 -2 18 -5z m-9515 -85 c4 -82 -8 -108 -48 -108 -34
0 -41 19 -10 27 18 5 20 14 20 80 0 66 2 74 18 71 14 -3 18 -16 20 -70z m550
60 c21 -21 13 -27 -30 -25 -33 2 -43 -2 -46 -15 -2 -12 5 -19 25 -24 68 -16
92 -54 54 -88 -26 -24 -114 -19 -119 6 -3 15 3 16 48 11 47 -5 52 -4 48 13 -2
11 -15 21 -35 25 -61 12 -81 52 -46 91 19 21 82 25 101 6z m292 -3 c0 -8 -9
-15 -20 -15 -11 0 -20 7 -20 15 0 8 9 15 20 15 11 0 20 -7 20 -15z m540 -71
c22 -47 40 -88 40 -90 0 -14 -40 0 -45 16 -5 16 -15 20 -50 20 -34 0 -44 -4
-48 -20 -5 -20 -37 -29 -37 -11 0 24 75 171 87 171 8 0 31 -38 53 -86z m180
66 c40 -40 17 -88 -48 -97 -38 -5 -42 -8 -42 -34 0 -19 -5 -29 -15 -29 -12 0
-15 17 -15 90 l0 90 50 0 c37 0 55 -5 70 -20z m75 -3 c3 -12 5 -52 3 -87 -2
-52 -6 -65 -20 -68 -16 -3 -18 6 -18 87 0 74 3 91 15 91 8 0 17 -10 20 -23z
m369 -36 l29 -53 31 56 c46 84 66 73 66 -34 0 -67 -7 -90 -26 -90 -10 0 -14
14 -14 53 l0 52 -23 -39 c-12 -22 -27 -41 -33 -43 -6 -2 -19 13 -30 32 l-19
36 -5 -43 c-4 -30 -10 -44 -22 -46 -16 -3 -18 6 -18 81 0 117 15 127 64 38z
m420 43 c3 -9 6 -30 6 -47 l0 -30 25 23 c19 18 28 21 37 12 9 -9 7 -17 -10
-35 l-22 -24 20 -25 c11 -15 20 -29 20 -32 0 -13 -25 -5 -46 15 l-22 21 -7
-21 c-3 -12 -13 -21 -21 -21 -11 0 -14 19 -14 90 0 70 3 90 14 90 8 0 17 -7
20 -16z m3161 -44 c10 -33 22 -57 25 -53 4 4 15 32 25 61 9 28 23 52 30 52 7
0 21 -24 30 -52 10 -29 21 -56 24 -61 4 -4 15 17 25 48 17 56 31 74 46 59 12
-13 -49 -174 -66 -174 -8 0 -22 17 -30 38 -8 20 -18 46 -23 57 -6 16 -11 10
-25 -33 -19 -55 -41 -75 -57 -51 -15 25 -57 157 -51 163 16 17 31 0 47 -54z
m392 30 c4 -24 10 -29 24 -25 48 16 86 -53 55 -100 -14 -21 -24 -24 -66 -24
l-50 2 0 88 c0 73 3 89 15 89 9 0 18 -12 22 -30z m-4917 -10 c0 -13 7 -20 20
-20 11 0 20 -4 20 -10 0 -5 -9 -10 -20 -10 -16 0 -20 -7 -20 -35 0 -28 4 -35
20 -35 11 0 20 -7 20 -15 0 -18 -50 -21 -68 -3 -7 7 -12 29 -12 49 0 21 -6 40
-12 43 -10 5 -10 7 0 12 6 3 12 14 12 25 0 12 7 19 20 19 13 0 20 -7 20 -20z
m-942 -26 c18 -12 22 -25 22 -64 l0 -48 -51 1 c-36 1 -55 7 -62 19 -15 23 8
48 44 48 20 0 29 5 29 16 0 13 -7 15 -35 10 -27 -5 -35 -4 -35 8 0 26 56 33
88 10z m81 -26 l18 -43 16 36 c8 20 20 39 25 43 23 14 22 -17 -2 -70 -32 -70
-52 -69 -82 6 -12 30 -20 58 -17 63 10 17 25 4 42 -35z m182 32 c15 -9 19 -22
19 -65 l0 -53 -52 1 c-52 2 -53 3 -53 32 0 28 3 30 38 33 46 4 45 27 -1 27
-35 0 -44 15 -15 26 26 11 42 10 64 -1z m287 4 c35 -10 28 -35 -10 -32 -28 3
-34 -1 -36 -20 -5 -33 15 -53 45 -45 19 4 24 2 21 -8 -3 -9 -19 -14 -43 -14
-32 0 -42 5 -54 26 -18 32 -8 72 21 87 28 13 28 13 56 6z m119 -10 c2 -6 -8
-16 -22 -22 -21 -10 -25 -18 -25 -53 0 -33 -3 -40 -17 -37 -13 2 -19 15 -21
42 -6 68 2 83 45 82 20 -1 38 -6 40 -12z m51 -52 c3 -57 1 -62 -18 -62 -18 0
-20 6 -20 58 0 32 3 62 7 66 17 17 28 -5 31 -62z m87 60 c31 14 62 -4 70 -42
9 -43 -16 -80 -54 -80 -22 0 -30 -6 -35 -25 -4 -14 -13 -25 -21 -25 -12 0 -15
16 -15 83 0 84 6 105 23 88 6 -6 18 -6 32 1z m906 -13 c32 -32 21 -53 -29 -57
-37 -3 -42 -5 -31 -18 8 -10 22 -12 45 -8 20 4 34 2 34 -4 0 -22 -67 -30 -101
-12 -28 16 -27 84 3 104 30 22 54 20 79 -5z m414 7 c14 -10 19 -27 19 -62 l1
-49 -52 -3 c-49 -3 -53 -1 -59 22 -8 35 2 46 42 46 24 0 34 4 31 13 -2 7 -17
11 -36 9 -21 -1 -31 2 -31 12 0 25 57 33 85 12z m95 4 c21 14 30 12 30 -4 0
-8 -9 -17 -19 -21 -15 -4 -21 -17 -23 -48 -2 -30 -8 -43 -20 -45 -16 -3 -18 5
-18 56 0 62 6 78 24 62 7 -5 17 -5 26 0z m220 -44 c3 -25 8 -46 13 -46 4 0 11
0 16 0 6 0 11 21 13 48 2 34 7 47 18 47 11 0 16 -15 18 -61 l3 -61 -47 -1
c-26 -1 -54 4 -61 10 -13 11 -18 99 -6 112 15 15 28 -3 33 -48z m165 46 c31
14 62 -4 70 -42 9 -43 -16 -80 -54 -80 -22 0 -30 -6 -35 -25 -4 -14 -13 -25
-21 -25 -12 0 -15 16 -15 83 0 84 6 105 23 88 6 -6 18 -6 32 1z m3176 -13 c32
-32 21 -53 -29 -57 -37 -3 -42 -5 -31 -18 8 -10 22 -12 45 -8 20 4 34 2 34 -4
0 -22 -67 -30 -101 -12 -28 16 -27 84 3 104 30 22 54 20 79 -5z m-4747 -85 c7
-18 -10 -54 -25 -54 -6 0 -9 7 -6 15 4 8 2 17 -3 20 -13 8 -1 35 15 35 7 0 16
-7 19 -16z m1706 -465 c-7 -11 -14 -19 -16 -16 -7 7 7 37 17 37 6 0 5 -9 -1
-21z m3466 2 c-8 -12 -66 -10 -66 3 0 5 14 6 30 3 19 -4 30 -2 30 5 0 6 3 9 6
5 3 -3 3 -10 0 -16z m-6330 -21 c8 0 14 7 14 15 0 8 5 15 11 15 6 0 9 -6 6
-14 -3 -8 -1 -16 6 -19 8 -2 6 -9 -6 -21 -20 -20 -22 -36 -4 -36 8 0 9 -3 1
-8 -6 -4 -16 -16 -22 -27 -11 -19 -11 -19 -12 3 0 27 -20 29 -27 2 -3 -11 -10
-20 -15 -20 -5 0 -6 5 -3 10 4 6 1 17 -5 25 -7 9 -8 15 -2 15 15 0 24 32 11
41 -8 5 -6 12 7 26 14 13 20 15 22 6 2 -7 10 -13 18 -13z m120 0 c8 0 14 7 14
15 0 8 5 15 11 15 6 0 9 -6 6 -14 -3 -8 -1 -16 6 -19 8 -2 6 -9 -6 -21 -20
-20 -22 -36 -4 -36 8 0 9 -3 1 -8 -6 -4 -16 -16 -22 -27 -11 -19 -11 -19 -12
3 0 27 -20 29 -27 2 -3 -11 -10 -20 -15 -20 -5 0 -6 5 -3 10 4 6 1 17 -5 25
-7 9 -8 15 -2 15 15 0 24 32 11 41 -8 5 -6 12 7 26 14 13 20 15 22 6 2 -7 10
-13 18 -13z m120 0 c8 0 14 7 14 15 0 8 5 15 11 15 6 0 9 -6 6 -14 -3 -8 -1
-16 6 -19 8 -2 6 -9 -6 -21 -20 -20 -22 -36 -4 -36 8 0 9 -3 1 -8 -6 -4 -16
-16 -22 -27 -11 -19 -11 -19 -12 3 0 27 -20 29 -27 2 -3 -11 -10 -20 -15 -20
-5 0 -6 5 -3 10 4 6 1 17 -5 25 -7 9 -8 15 -2 15 15 0 24 32 11 41 -8 5 -6 12
7 26 14 13 20 15 22 6 2 -7 10 -13 18 -13z m154 19 c0 6 4 11 10 11 5 0 7 -7
4 -15 -4 -8 -1 -15 5 -15 8 0 8 -4 -1 -14 -7 -8 -15 -12 -17 -10 -2 2 -11 -2
-19 -9 -13 -10 -15 -9 -9 6 4 10 2 17 -6 17 -8 0 -8 3 2 9 8 5 10 14 5 22 -6
12 -5 12 9 0 11 -9 17 -10 17 -2z m90 0 c0 6 4 11 10 11 5 0 7 -7 4 -15 -4 -8
-1 -15 5 -15 8 0 8 -4 -1 -14 -7 -8 -15 -12 -17 -10 -2 2 -11 -2 -19 -9 -13
-10 -15 -9 -9 6 4 10 2 17 -6 17 -8 0 -8 3 2 9 8 5 10 14 5 22 -6 12 -5 12 9
0 11 -9 17 -10 17 -2z m162 -6 c22 -20 24 -71 2 -101 -35 -50 -114 -17 -114
48 0 61 68 93 112 53z m598 7 c0 -5 -4 -10 -10 -10 -5 0 -10 5 -10 10 0 6 5
10 10 10 6 0 10 -4 10 -10z m280 0 c0 -5 -4 -10 -10 -10 -5 0 -10 5 -10 10 0
6 5 10 10 10 6 0 10 -4 10 -10z m68 -1 c-26 -15 -22 -27 10 -31 25 -3 27 -7
30 -50 2 -29 -1 -48 -7 -48 -6 0 -11 18 -11 40 0 33 -3 40 -20 40 -17 0 -20
-7 -20 -40 0 -22 -4 -40 -10 -40 -5 0 -10 18 -10 39 0 22 -5 42 -12 44 -9 4
-10 8 -2 14 6 4 13 16 17 26 4 9 16 17 29 17 20 -1 21 -2 6 -11z m42 1 c0 -5
-4 -10 -10 -10 -5 0 -10 5 -10 10 0 6 5 10 10 10 6 0 10 -4 10 -10z m1760 0
c0 -5 -4 -10 -10 -10 -5 0 -10 5 -10 10 0 6 5 10 10 10 6 0 10 -4 10 -10z
m110 -58 l0 -68 -31 -2 c-40 -3 -59 13 -59 48 0 33 22 54 50 47 16 -4 20 0 20
19 0 13 5 24 10 24 6 0 10 -29 10 -68z m400 0 l0 -68 -31 -2 c-40 -3 -59 13
-59 48 0 33 22 54 50 47 16 -4 20 0 20 19 0 13 5 24 10 24 6 0 10 -29 10 -68z
m1696 38 c8 0 14 7 14 15 0 8 5 15 11 15 6 0 9 -6 6 -14 -3 -8 -1 -16 6 -19 8
-2 6 -9 -6 -21 -20 -20 -22 -36 -4 -36 8 0 9 -3 1 -8 -6 -4 -16 -16 -22 -27
-11 -19 -11 -19 -12 3 0 27 -20 29 -27 2 -3 -11 -10 -20 -15 -20 -5 0 -6 5 -3
10 4 6 1 17 -5 25 -7 9 -8 15 -2 15 15 0 24 32 11 41 -8 5 -6 12 7 26 14 13
20 15 22 6 2 -7 10 -13 18 -13z m120 0 c8 0 14 7 14 15 0 8 5 15 11 15 6 0 9
-6 6 -14 -3 -8 -1 -16 6 -19 8 -2 6 -9 -6 -21 -20 -20 -22 -36 -4 -36 8 0 9
-3 1 -8 -6 -4 -16 -16 -22 -27 -11 -19 -11 -19 -12 3 0 27 -20 29 -27 2 -3
-11 -10 -20 -15 -20 -5 0 -6 5 -3 10 4 6 1 17 -5 25 -7 9 -8 15 -2 15 15 0 24
32 11 41 -8 5 -6 12 7 26 14 13 20 15 22 6 2 -7 10 -13 18 -13z m120 0 c8 0
14 7 14 15 0 8 5 15 11 15 6 0 9 -6 6 -14 -3 -8 -1 -16 6 -19 8 -2 6 -9 -6
-21 -20 -20 -22 -36 -4 -36 8 0 9 -3 1 -8 -6 -4 -16 -16 -22 -27 -11 -19 -11
-19 -12 3 0 27 -20 29 -27 2 -3 -11 -10 -20 -15 -20 -5 0 -6 5 -3 10 4 6 1 17
-5 25 -7 9 -8 15 -2 15 15 0 24 32 11 41 -8 5 -6 12 7 26 14 13 20 15 22 6 2
-7 10 -13 18 -13z m154 19 c0 6 4 11 10 11 5 0 7 -7 4 -15 -4 -8 -1 -15 5 -15
8 0 8 -4 -1 -14 -7 -8 -15 -12 -17 -10 -2 2 -11 -2 -19 -9 -13 -10 -15 -9 -9
6 4 10 2 17 -6 17 -8 0 -8 3 2 9 8 5 10 14 5 22 -6 12 -5 12 9 0 11 -9 17 -10
17 -2z m90 0 c0 6 4 11 10 11 5 0 7 -7 4 -15 -4 -8 -1 -15 5 -15 8 0 8 -4 -1
-14 -7 -8 -15 -12 -17 -10 -2 2 -11 -2 -19 -9 -13 -10 -15 -9 -9 6 4 10 2 17
-6 17 -8 0 -8 3 2 9 8 5 10 14 5 22 -6 12 -5 12 9 0 11 -9 17 -10 17 -2z m146
0 c4 -8 -3 -9 -22 -5 -61 13 -73 -29 -13 -49 26 -9 35 -18 37 -38 3 -21 -2
-28 -21 -32 -34 -9 -70 -3 -75 13 -3 9 3 10 23 2 18 -7 33 -7 46 0 29 16 23
27 -23 42 -45 14 -59 38 -38 63 15 18 76 20 86 4z m382 -20 c2 -17 -6 -37 -22
-57 -15 -16 -26 -32 -26 -35 0 -3 15 -8 33 -10 24 -3 21 -4 -15 -5 -27 -1 -48
1 -48 4 0 3 14 22 31 44 39 49 36 76 -10 72 -21 -1 -30 2 -26 8 4 6 23 10 43
8 31 -3 37 -7 40 -29z m95 24 c-27 -3 -33 -9 -33 -28 0 -18 4 -22 20 -18 41
11 69 -49 36 -76 -19 -16 -68 -10 -74 7 -3 11 0 12 16 3 28 -15 54 -3 50 23
-2 17 -9 21 -35 20 -32 -2 -33 -1 -33 37 l0 39 43 -2 c36 -1 38 -2 10 -5z
m677 -61 l0 -69 -32 -1 c-41 -1 -58 13 -58 48 0 33 22 54 50 47 16 -4 20 0 20
19 0 13 5 24 10 24 6 0 10 -29 10 -68z m298 50 c3 -11 0 -12 -17 -2 -46 24
-91 -22 -72 -74 12 -29 34 -38 66 -26 14 5 25 6 25 1 0 -11 -25 -21 -54 -21
-24 0 -48 22 -59 53 -7 20 9 68 26 79 18 12 80 5 85 -10z m112 8 c11 -7 4 -9
-25 -7 -34 2 -40 -1 -43 -19 -2 -16 5 -22 35 -30 67 -16 51 -79 -18 -72 -18 2
-34 9 -37 16 -3 11 0 12 17 2 27 -14 63 -4 59 17 -2 9 -19 21 -38 27 -37 12
-50 37 -30 61 14 17 58 19 80 5z m126 -1 c4 -8 -3 -9 -22 -5 -61 13 -73 -29
-13 -49 26 -9 35 -18 37 -38 3 -21 -2 -28 -21 -32 -34 -9 -70 -3 -75 13 -3 9
3 10 23 2 18 -7 33 -7 46 0 29 16 23 27 -23 42 -45 14 -59 38 -38 63 15 18 76
20 86 4z m-7088 -94 c2 -32 -2 -63 -7 -68 -8 -8 -11 -3 -11 15 0 22 -3 25 -27
20 -18 -3 -30 1 -40 13 -30 42 -3 87 50 81 31 -3 32 -4 35 -61z m42 26 c0 -22
5 -43 10 -46 19 -12 40 16 40 51 0 19 5 34 10 34 6 0 10 -22 10 -48 l0 -49
-37 -1 c-20 -1 -41 4 -45 11 -11 18 -10 87 2 87 6 0 10 -18 10 -39z m168 27
c23 -23 13 -38 -24 -38 -28 0 -35 -3 -32 -17 3 -13 13 -18 36 -17 17 1 29 -2
26 -7 -8 -13 -58 -11 -72 3 -7 7 -12 22 -12 34 0 43 50 70 78 42z m147 2 c4
-6 -3 -9 -16 -7 -34 3 -34 -19 1 -31 32 -12 37 -21 18 -40 -14 -14 -54 -16
-63 -3 -3 6 7 9 21 8 15 -1 29 4 31 11 3 7 -4 12 -15 12 -29 0 -48 26 -32 45
14 17 46 20 55 5z m55 -40 c0 -27 -4 -50 -10 -50 -5 0 -10 23 -10 50 0 28 5
50 10 50 6 0 10 -22 10 -50z m110 -11 c0 -30 -5 -60 -12 -67 -15 -15 -54 -16
-63 -2 -4 6 6 10 23 10 18 0 32 6 36 16 4 12 1 14 -14 9 -30 -10 -60 12 -60
43 0 38 17 52 57 49 l33 -2 0 -56z m106 50 c16 -13 19 -89 4 -89 -5 0 -10 18
-10 41 0 36 -2 40 -22 37 -19 -2 -24 -10 -26 -40 -2 -21 -7 -38 -13 -38 -9 0
-13 82 -5 91 10 10 60 8 72 -2z m64 -45 c0 -24 -4 -44 -10 -44 -5 0 -10 23
-10 51 0 31 4 48 10 44 6 -3 10 -26 10 -51z m206 45 c3 -6 -1 -10 -12 -9 -40
5 -45 0 -42 -32 3 -29 6 -33 31 -31 15 1 25 -2 22 -8 -9 -13 -49 -11 -63 3 -7
7 -12 24 -12 38 0 14 5 31 12 38 15 15 55 16 64 1z m94 -8 c5 -11 10 -33 10
-49 0 -26 -3 -29 -34 -30 -45 -2 -69 24 -41 44 10 8 27 14 37 14 10 0 18 5 18
10 0 11 -13 14 -44 10 -11 -1 -15 3 -12 9 12 18 55 12 66 -8z m158 7 c23 -23
13 -38 -24 -38 -28 0 -35 -3 -32 -17 3 -13 13 -18 36 -17 17 1 29 -2 26 -7 -8
-13 -58 -11 -72 3 -7 7 -12 22 -12 34 0 43 50 70 78 42z m166 -4 c34 -33 8
-90 -37 -82 -23 5 -27 2 -27 -19 0 -14 -4 -21 -10 -18 -10 6 -15 117 -5 126
11 12 65 7 79 -7z m110 0 c33 -32 11 -84 -35 -84 -23 0 -32 6 -40 26 -19 53
37 96 75 58z m91 5 c-4 -5 -13 -9 -21 -9 -10 0 -14 -12 -14 -40 0 -22 -4 -40
-10 -40 -5 0 -10 22 -10 48 0 48 1 49 30 50 17 0 28 -4 25 -9z m155 -62 c0
-43 -4 -66 -10 -62 -5 3 -10 14 -10 25 0 13 -5 17 -20 13 -27 -7 -50 14 -50
46 0 37 17 51 57 48 l33 -2 0 -68z m52 31 c4 -55 31 -61 36 -8 5 57 22 60 22
3 l0 -50 -37 1 c-38 1 -38 1 -41 49 -2 26 1 47 7 47 5 0 11 -19 13 -42z m162
26 c25 -24 19 -34 -20 -34 -28 0 -35 -3 -32 -17 3 -14 12 -17 37 -15 20 1 30
-2 26 -8 -9 -14 -58 -13 -73 2 -7 7 -12 24 -12 38 0 47 42 66 74 34z m154 4
c23 -23 13 -38 -23 -38 -19 0 -35 -4 -35 -9 0 -17 29 -33 51 -26 14 5 19 4 15
-4 -8 -12 -45 -14 -62 -3 -20 14 -25 45 -9 68 17 26 44 31 63 12z m157 2 c4
-6 -5 -10 -20 -10 -29 0 -43 -25 -28 -49 6 -9 20 -16 32 -15 11 0 21 -3 21 -8
0 -4 -13 -8 -30 -8 -29 0 -50 22 -50 54 0 33 59 62 75 36z m99 -6 c33 -32 11
-84 -35 -84 -23 0 -32 6 -40 26 -19 53 37 96 75 58z m112 -39 c1 -41 0 -43 -3
-10 -8 68 -53 71 -53 4 0 -21 -4 -39 -10 -39 -5 0 -10 22 -10 49 l0 49 38 -1
37 -2 1 -50z m99 45 c4 -6 -3 -9 -16 -7 -34 3 -34 -19 1 -31 32 -12 37 -21 18
-40 -14 -14 -54 -16 -63 -3 -3 6 7 9 21 8 15 -1 29 4 31 11 3 7 -4 12 -15 12
-29 0 -48 26 -32 45 14 17 46 20 55 5z m55 -40 c0 -27 -4 -50 -10 -50 -5 0
-10 23 -10 50 0 28 5 50 10 50 6 0 10 -22 10 -50z m214 34 c25 -24 19 -34 -20
-34 -28 0 -35 -3 -32 -17 3 -14 12 -17 37 -15 20 1 30 -2 26 -8 -9 -14 -58
-13 -73 2 -7 7 -12 24 -12 38 0 47 42 66 74 34z m91 5 c-4 -5 -13 -9 -21 -9
-10 0 -14 -12 -14 -40 0 -22 -4 -40 -10 -40 -5 0 -10 22 -10 48 0 48 1 49 30
50 17 0 28 -4 25 -9z m83 -1 c7 -7 12 -29 12 -49 0 -36 -1 -37 -37 -36 -31 2
-39 6 -41 25 -3 18 2 23 27 28 49 10 39 30 -13 24 -11 -1 -15 3 -12 9 9 15 49
14 64 -1z m216 6 c11 -4 16 -19 16 -51 l0 -44 -37 3 c-30 2 -39 8 -41 25 -3
17 3 23 28 28 39 8 34 31 -6 27 -22 -2 -26 -1 -14 7 17 12 32 13 54 5z m2334
-45 l3 -46 -38 1 c-50 1 -59 32 -14 49 35 13 36 34 1 29 -14 -3 -20 0 -15 8 4
6 19 10 33 8 24 -3 27 -8 30 -49z m106 35 c33 -32 11 -84 -35 -84 -23 0 -32 6
-40 26 -19 53 37 96 75 58z m454 -35 l3 -46 -38 1 c-50 1 -59 32 -14 49 35 13
36 34 1 29 -14 -3 -20 0 -15 8 4 6 19 10 33 8 24 -3 27 -8 30 -49z m108 -4 c1
-41 0 -43 -3 -10 -8 68 -53 71 -53 4 0 -21 -4 -39 -10 -39 -5 0 -10 22 -10 49
l0 49 38 -1 37 -2 1 -50z m112 43 c7 -7 12 -24 12 -38 0 -31 -17 -50 -45 -50
-28 0 -45 19 -45 50 0 31 17 50 45 50 12 0 26 -5 33 -12z m102 2 c12 -8 8 -10
-14 -8 -40 4 -44 -17 -6 -31 22 -7 31 -16 28 -28 -4 -21 -54 -31 -71 -14 -7 7
-2 10 18 8 15 -1 30 4 32 11 3 7 -4 12 -15 12 -29 0 -48 26 -32 45 14 17 38
19 60 5z m268 -2 c23 -23 13 -38 -23 -38 -19 0 -35 -4 -35 -9 0 -17 29 -33 51
-26 14 5 19 4 15 -4 -8 -12 -45 -14 -62 -3 -20 14 -25 45 -9 68 17 26 44 31
63 12z m590 0 c23 -23 13 -38 -23 -38 -19 0 -35 -4 -35 -9 0 -18 29 -33 52
-26 18 6 20 4 12 -5 -21 -21 -68 -8 -78 22 -16 46 39 89 72 56z m216 -4 c34
-33 8 -90 -37 -82 -23 5 -27 2 -27 -19 0 -14 -4 -21 -10 -18 -10 6 -15 117 -5
126 11 12 65 7 79 -7z m106 -3 c5 -11 10 -33 10 -49 0 -26 -3 -29 -34 -30 -45
-2 -69 24 -41 44 10 8 27 14 37 14 10 0 18 5 18 10 0 11 -13 14 -44 10 -11 -1
-15 3 -12 9 12 18 55 12 66 -8z m90 10 c0 -5 -9 -11 -20 -14 -15 -4 -20 -14
-20 -42 0 -21 -4 -34 -10 -30 -10 6 -14 77 -6 86 9 9 56 9 56 0z m88 -42 l3
-46 -38 1 c-50 1 -59 32 -14 49 35 13 36 34 1 29 -14 -3 -20 0 -15 8 4 6 19
10 33 8 24 -3 27 -8 30 -49z m146 45 c11 -4 16 -19 16 -51 l0 -44 -37 3 c-30
2 -39 8 -41 25 -3 17 3 23 28 28 39 8 34 31 -6 27 -22 -2 -26 -1 -14 7 17 12
32 13 54 5z m162 -5 c4 -7 -2 -9 -16 -7 -33 4 -35 -16 -5 -30 35 -16 29 -46
-9 -50 -16 -2 -33 1 -39 7 -8 8 -3 10 20 5 42 -8 54 13 14 27 -29 10 -41 36
-24 52 10 11 51 8 59 -4z m69 -74 c16 0 21 8 23 43 4 58 22 53 22 -6 0 -49 0
-49 -35 -50 -38 -1 -55 17 -55 61 0 43 15 40 20 -5 4 -35 9 -43 25 -43z m125
74 c0 -5 -7 -9 -15 -9 -11 0 -15 -11 -15 -40 0 -22 -4 -40 -10 -40 -5 0 -10
21 -10 48 0 43 2 47 25 48 14 1 25 -2 25 -7z m97 -1 c18 -14 16 -63 -2 -78 -8
-7 -24 -10 -35 -7 -16 4 -20 0 -20 -19 0 -13 -4 -24 -10 -24 -6 0 -10 29 -10
68 l0 69 32 1 c18 0 38 -4 45 -10z m93 1 c0 -5 -7 -9 -15 -9 -11 0 -15 -11
-15 -40 0 -22 -4 -40 -10 -40 -5 0 -10 21 -10 48 0 43 2 47 25 48 14 1 25 -2
25 -7z m88 -1 c23 -23 13 -38 -23 -38 -19 0 -35 -4 -35 -9 0 -18 29 -33 52
-26 18 6 20 4 12 -5 -21 -21 -68 -8 -78 22 -16 46 39 89 72 56z m97 2 c4 -6
-3 -9 -16 -7 -34 3 -34 -19 1 -31 32 -12 37 -21 18 -40 -14 -14 -54 -16 -63
-3 -3 6 7 9 21 8 15 -1 29 4 31 11 3 7 -4 12 -15 12 -29 0 -48 26 -32 45 14
17 46 20 55 5z m103 -2 c7 -7 12 -29 12 -49 0 -36 -1 -37 -37 -36 -31 2 -39 6
-41 25 -3 18 2 23 27 28 49 10 39 30 -13 24 -11 -1 -15 3 -12 9 9 15 49 14 64
-1z m-1428 -90 c0 -19 -2 -20 -10 -8 -13 19 -13 30 0 30 6 0 10 -10 10 -22z
m-1964 -196 c-18 -16 -18 -16 -6 6 6 13 14 21 18 18 3 -4 -2 -14 -12 -24z
m3200 0 c-18 -16 -18 -16 -6 6 6 13 14 21 18 18 3 -4 -2 -14 -12 -24z m-8556
8 c0 -5 -4 -10 -10 -10 -5 0 -10 5 -10 10 0 6 5 10 10 10 6 0 10 -4 10 -10z
m990 -58 l0 -69 -40 -1 c-34 -2 -42 2 -52 23 -16 35 13 79 48 72 20 -3 24 0
24 19 0 13 5 24 10 24 6 0 10 -29 10 -68z m570 0 l0 -69 -40 -1 c-40 -2 -60
15 -60 52 0 25 31 48 56 42 21 -6 24 -3 24 19 0 14 5 25 10 25 6 0 10 -29 10
-68z m270 0 l0 -69 -40 -1 c-34 -2 -42 2 -52 23 -16 35 13 79 48 72 20 -3 24
0 24 19 0 13 5 24 10 24 6 0 10 -29 10 -68z m680 8 c0 -46 4 -61 18 -69 15 -9
15 -10 -4 -11 -12 0 -25 7 -28 16 -10 26 -7 124 4 124 6 0 10 -27 10 -60z
m160 50 c0 -5 -4 -10 -10 -10 -5 0 -10 5 -10 10 0 6 5 10 10 10 6 0 10 -4 10
-10z m2160 -58 l0 -69 -40 -1 c-34 -2 -42 2 -52 23 -16 35 13 79 48 72 20 -3
24 0 24 19 0 13 5 24 10 24 6 0 10 -29 10 -68z m790 58 c0 -5 -4 -10 -10 -10
-5 0 -10 5 -10 10 0 6 5 10 10 10 6 0 10 -4 10 -10z m470 0 c0 -5 -4 -10 -10
-10 -5 0 -10 5 -10 10 0 6 5 10 10 10 6 0 10 -4 10 -10z m220 -58 l0 -68 -31
-2 c-40 -3 -59 13 -59 48 0 33 22 54 50 47 16 -4 20 0 20 19 0 13 5 24 10 24
6 0 10 -29 10 -68z m1180 10 c0 -33 5 -64 13 -71 10 -10 8 -12 -8 -9 -17 3
-20 12 -23 71 -2 42 1 67 8 67 6 0 10 -24 10 -58z m290 48 c0 -5 -4 -10 -10
-10 -5 0 -10 5 -10 10 0 6 5 10 10 10 6 0 10 -4 10 -10z m310 0 c0 -5 -4 -10
-10 -10 -5 0 -10 5 -10 10 0 6 5 10 10 10 6 0 10 -4 10 -10z m230 -58 l0 -69
-40 -1 c-40 -2 -60 15 -60 52 0 25 31 48 56 42 21 -6 24 -3 24 19 0 14 5 25
10 25 6 0 10 -29 10 -68z m360 44 c0 -19 4 -23 20 -19 28 7 50 -14 50 -47 0
-35 -17 -49 -58 -48 l-32 1 0 69 c0 39 4 68 10 68 6 0 10 -11 10 -24z m-8599
-16 c10 -1 9 -4 -3 -14 -10 -7 -18 -26 -18 -44 0 -20 6 -32 18 -36 10 -3 6 -4
-8 -3 -21 2 -26 8 -28 37 -2 19 -9 39 -15 43 -9 6 -9 10 1 14 6 2 12 12 12 21
1 15 2 15 14 0 7 -10 19 -18 27 -18z m165 0 c8 0 14 -4 14 -10 0 -5 -7 -10
-15 -10 -26 0 -19 -59 8 -70 21 -9 21 -9 -4 -9 -28 -1 -39 14 -39 54 0 13 -4
26 -10 30 -5 3 -2 14 8 26 14 16 18 17 20 4 2 -8 10 -15 18 -15z m2880 0 c8 0
14 -4 14 -10 0 -5 -7 -10 -15 -10 -26 0 -19 -59 8 -70 22 -9 22 -9 1 -9 -27
-1 -40 15 -47 59 -5 38 14 91 21 58 2 -10 10 -18 18 -18z m3890 0 c8 0 14 -4
14 -10 0 -5 -7 -10 -15 -10 -26 0 -19 -59 8 -70 21 -9 21 -9 -4 -9 -28 -1 -39
14 -39 54 0 13 -4 26 -10 30 -5 3 -2 14 8 26 14 16 18 17 20 4 2 -8 10 -15 18
-15z m-7854 -42 c4 -55 31 -61 36 -8 5 57 22 60 22 3 l0 -50 -37 1 c-38 1 -38
1 -41 49 -2 26 1 47 7 47 5 0 11 -19 13 -42z m228 22 c13 -24 13 -80 0 -80 -5
0 -10 18 -10 41 0 36 -2 40 -22 37 -18 -2 -24 -11 -29 -43 l-6 -40 -2 36 c-2
69 -51 72 -51 3 0 -19 -4 -34 -10 -34 -10 0 -15 82 -5 91 2 3 32 6 65 6 49 1
62 -2 70 -17z m94 14 c11 -4 16 -19 16 -51 l0 -44 -37 3 c-30 2 -39 8 -41 25
-3 17 3 23 28 28 39 8 34 31 -6 27 -22 -2 -26 -1 -14 7 17 12 32 13 54 5z
m164 -6 c7 -7 12 -29 12 -49 0 -36 -1 -37 -37 -36 -31 2 -39 6 -41 25 -3 18 2
23 27 28 49 10 39 30 -13 24 -11 -1 -15 3 -12 9 9 15 49 14 64 -1z m92 1 c0
-5 -7 -9 -15 -9 -11 0 -15 -11 -15 -40 0 -22 -4 -40 -10 -40 -5 0 -10 21 -10
48 0 43 2 47 25 48 14 1 25 -2 25 -7z m108 -54 c2 -32 -2 -63 -7 -68 -8 -8
-11 -3 -11 15 0 22 -3 25 -27 20 -18 -3 -30 1 -40 13 -30 42 -3 87 50 81 31
-3 32 -4 35 -61z m67 -20 c16 0 21 8 23 43 4 58 22 53 22 -6 0 -49 0 -49 -35
-50 -38 -1 -55 17 -55 61 0 43 15 40 20 -5 4 -35 9 -43 25 -43z m85 34 c0 -31
-4 -48 -10 -44 -17 11 -12 95 7 95 2 0 3 -23 3 -51z m174 35 c25 -24 19 -34
-20 -34 -28 0 -35 -3 -32 -17 3 -14 12 -17 37 -15 20 1 30 -2 26 -8 -9 -14
-58 -13 -73 2 -7 7 -12 24 -12 38 0 47 42 66 74 34z m134 -66 c17 -17 32 1 32
37 0 19 5 37 10 40 6 4 10 -13 10 -45 l0 -51 -37 3 -38 3 -2 50 c-1 48 -1 48
6 12 5 -21 13 -43 19 -49z m137 71 c-4 -5 -13 -9 -21 -9 -10 0 -14 -12 -14
-40 0 -22 -4 -40 -10 -40 -5 0 -10 22 -10 48 0 48 1 49 30 50 17 0 28 -4 25
-9z m83 -1 c7 -7 12 -29 12 -49 0 -36 -1 -37 -37 -36 -31 2 -39 6 -41 25 -3
18 2 23 27 28 49 10 39 30 -13 24 -11 -1 -15 3 -12 9 9 15 49 14 64 -1z m157
2 c4 -6 13 -5 24 2 33 20 51 3 51 -47 0 -25 -4 -45 -10 -45 -5 0 -10 17 -10
38 0 43 -6 53 -26 45 -9 -3 -14 -20 -14 -44 0 -21 -4 -39 -10 -39 -5 0 -10 18
-10 40 0 33 -3 40 -20 40 -17 0 -20 -7 -20 -40 0 -22 -4 -40 -10 -40 -5 0 -10
21 -10 48 0 45 1 47 30 49 16 1 32 -2 35 -7z m179 -6 c33 -32 11 -84 -35 -84
-23 0 -32 6 -40 26 -19 53 37 96 75 58z m224 4 c23 -23 13 -38 -23 -38 -19 0
-35 -4 -35 -9 0 -18 29 -33 52 -26 18 6 20 4 12 -5 -21 -21 -68 -8 -78 22 -16
46 39 89 72 56z m75 -5 c-16 -11 -23 -26 -23 -49 0 -19 -4 -34 -10 -34 -10 0
-15 82 -6 91 3 3 18 5 33 6 l28 2 -22 -16z m105 5 c14 -12 16 -88 2 -88 -5 0
-10 18 -10 41 0 36 -2 40 -22 37 -19 -2 -24 -10 -26 -40 -2 -21 -7 -38 -13
-38 -9 0 -13 82 -5 91 9 9 62 7 74 -3z m110 0 c7 -7 12 -29 12 -49 0 -36 -1
-37 -37 -36 -31 2 -39 6 -41 25 -3 18 2 23 27 28 49 10 39 30 -13 24 -11 -1
-15 3 -12 9 9 15 49 14 64 -1z m276 -4 c25 -24 19 -34 -20 -34 -28 0 -35 -3
-32 -17 3 -14 12 -17 37 -15 20 1 30 -2 26 -8 -9 -14 -58 -13 -73 2 -7 7 -12
24 -12 38 0 47 42 66 74 34z m274 4 c23 -23 13 -38 -23 -38 -19 0 -35 -4 -35
-9 0 -18 29 -33 52 -26 18 6 20 4 12 -5 -21 -21 -68 -8 -78 22 -16 46 39 89
72 56z m102 2 c12 -8 8 -10 -14 -8 -40 4 -44 -17 -6 -31 22 -7 31 -16 28 -28
-4 -21 -54 -31 -71 -14 -7 7 -2 10 18 8 15 -1 30 4 32 11 3 7 -4 12 -15 12
-29 0 -48 26 -32 45 14 17 38 19 60 5z m98 -2 c23 -23 13 -38 -23 -38 -19 0
-35 -4 -35 -9 0 -17 29 -33 51 -26 14 5 19 4 15 -4 -8 -12 -45 -14 -62 -3 -20
14 -25 45 -9 68 17 26 44 31 63 12z m118 -43 c1 -33 0 -38 -3 -15 -9 70 -53
77 -53 9 0 -21 -4 -39 -10 -39 -5 0 -10 22 -10 48 l0 48 38 -1 37 0 1 -50z
m56 18 l15 -38 17 39 c10 21 20 36 23 32 8 -8 -27 -96 -38 -96 -5 0 -19 21
-29 46 -23 52 -23 54 -11 54 4 0 15 -17 23 -37z m152 21 c33 -32 11 -84 -35
-84 -23 0 -32 6 -40 26 -19 53 37 96 75 58z m118 -21 l15 -38 17 39 c10 21 20
36 23 32 8 -8 -27 -96 -38 -96 -5 0 -19 21 -29 46 -23 52 -23 54 -11 54 4 0
15 -17 23 -37z m98 -13 c0 -27 -4 -50 -10 -50 -11 0 -14 83 -3 93 12 12 13 8
13 -43z m95 40 c4 -6 13 -5 24 2 33 20 51 3 51 -47 0 -25 -4 -45 -10 -45 -5 0
-10 17 -10 38 0 43 -6 53 -26 45 -9 -3 -14 -20 -14 -44 0 -21 -4 -39 -10 -39
-5 0 -10 18 -10 40 0 33 -3 40 -20 40 -17 0 -20 -7 -20 -40 0 -22 -4 -40 -10
-40 -5 0 -10 21 -10 48 0 45 1 47 30 49 16 1 32 -2 35 -7z m173 -2 c23 -23 13
-38 -23 -38 -19 0 -35 -4 -35 -9 0 -17 29 -33 51 -26 14 5 19 4 15 -4 -8 -12
-45 -14 -62 -3 -20 14 -25 45 -9 68 17 26 44 31 63 12z m110 0 c14 -12 16 -88
2 -88 -5 0 -10 18 -10 41 0 36 -2 40 -22 37 -19 -2 -24 -10 -26 -40 -2 -21 -7
-38 -13 -38 -9 0 -13 82 -5 91 9 9 62 7 74 -3z m188 -13 c24 -37 6 -75 -35
-75 -46 0 -68 52 -35 84 23 23 51 19 70 -9z m1700 0 c24 -37 6 -75 -35 -75
-46 0 -68 52 -35 84 23 23 51 19 70 -9z m100 14 c3 -6 -1 -10 -12 -9 -52 6
-60 -10 -13 -27 21 -8 30 -17 27 -30 -4 -21 -54 -31 -71 -14 -8 8 -3 10 21 5
25 -5 32 -3 32 9 0 8 -11 18 -25 21 -24 6 -34 34 -18 49 10 11 51 8 59 -4z
m164 -9 c24 -38 -2 -86 -43 -78 -23 5 -27 2 -27 -19 0 -14 -4 -21 -10 -18 -10
6 -14 117 -5 127 11 11 77 1 85 -12z m73 3 c-16 -11 -23 -26 -23 -49 0 -19 -4
-34 -10 -34 -10 0 -15 82 -6 91 3 3 18 5 33 6 l28 2 -22 -16z m105 5 c7 -7 12
-24 12 -38 0 -31 -17 -50 -45 -50 -28 0 -45 19 -45 50 0 31 17 50 45 50 12 0
26 -5 33 -12z m116 -4 c34 -33 8 -90 -37 -82 -23 5 -27 2 -27 -19 0 -14 -4
-21 -10 -18 -10 6 -15 117 -5 126 11 12 65 7 79 -7z m91 5 c-4 -5 -13 -9 -21
-9 -10 0 -14 -12 -14 -40 0 -22 -4 -40 -10 -40 -5 0 -10 22 -10 48 0 48 1 49
30 50 17 0 28 -4 25 -9z m35 -39 c0 -27 -4 -50 -10 -50 -11 0 -14 83 -3 93 12
12 13 8 13 -43z m106 25 c24 -37 6 -75 -35 -75 -46 0 -68 52 -35 84 23 23 51
19 70 -9z m100 14 c4 -7 -2 -9 -16 -7 -33 4 -35 -16 -5 -30 35 -16 29 -46 -9
-50 -16 -2 -33 1 -39 7 -8 8 -3 10 20 5 42 -8 54 13 14 27 -29 10 -41 36 -24
52 10 11 51 8 59 -4z m149 1 c4 -6 -5 -10 -20 -10 -29 0 -43 -25 -28 -49 6 -9
20 -16 32 -15 11 0 21 -3 21 -8 0 -4 -13 -8 -30 -8 -29 0 -50 22 -50 54 0 33
59 62 75 36z m80 -1 c-4 -5 -13 -9 -21 -9 -10 0 -14 -12 -14 -40 0 -22 -4 -40
-10 -40 -5 0 -10 22 -10 48 0 48 1 49 30 50 17 0 28 -4 25 -9z m35 -39 c0 -27
-4 -50 -10 -50 -11 0 -14 83 -3 93 12 12 13 8 13 -43z m100 31 c5 -11 10 -33
10 -49 0 -26 -3 -29 -34 -30 -45 -2 -69 24 -41 44 10 8 27 14 37 14 10 0 18 5
18 10 0 11 -13 14 -44 10 -11 -1 -15 3 -12 9 12 18 55 12 66 -8z m224 3 c33
-32 11 -84 -35 -84 -23 0 -32 6 -40 26 -19 53 37 96 75 58z m79 -1 c-16 -11
-23 -26 -23 -49 0 -19 -4 -34 -10 -34 -10 0 -15 82 -6 91 3 3 18 5 33 6 l28 2
-22 -16z m101 1 c25 -24 19 -34 -20 -34 -28 0 -35 -3 -32 -17 3 -14 12 -17 37
-15 20 1 30 -2 26 -8 -9 -14 -58 -13 -73 2 -7 7 -12 24 -12 38 0 47 42 66 74
34z m102 5 c3 -6 -1 -10 -12 -9 -52 6 -60 -10 -13 -27 21 -8 30 -17 27 -30 -4
-21 -54 -31 -71 -14 -8 8 -3 10 21 5 25 -5 32 -3 32 9 0 8 -11 18 -25 21 -24
6 -34 34 -18 49 10 11 51 8 59 -4z m192 -1 c7 -7 12 -29 12 -49 0 -36 -1 -37
-37 -36 -31 2 -39 6 -41 25 -3 18 2 23 27 28 49 10 39 30 -13 24 -11 -1 -15 3
-12 9 9 15 49 14 64 -1z m230 0 c23 -23 13 -38 -23 -38 -19 0 -35 -4 -35 -9 0
-18 29 -33 52 -26 18 6 20 4 12 -5 -21 -21 -68 -8 -78 22 -16 46 39 89 72 56z
m108 1 c3 -6 -1 -10 -12 -9 -40 5 -45 0 -42 -32 3 -29 6 -33 31 -31 15 1 25
-2 22 -8 -9 -13 -49 -11 -63 3 -7 7 -12 24 -12 38 0 14 5 31 12 38 15 15 55
16 64 1z m100 -44 c1 -33 0 -38 -3 -15 -9 70 -53 77 -53 9 0 -21 -4 -39 -10
-39 -5 0 -10 22 -10 48 l0 48 38 -1 37 0 1 -50z m108 39 c33 -32 11 -84 -35
-84 -23 0 -32 6 -40 26 -19 53 37 96 75 58z m170 0 c33 -32 11 -84 -35 -84
-23 0 -32 6 -40 26 -19 53 37 96 75 58z m126 -40 c0 -71 -26 -97 -77 -77 -14
6 -11 9 16 13 19 3 36 11 39 18 3 9 -3 11 -21 7 -45 -12 -72 61 -33 87 6 4 26
7 43 6 33 -1 33 -1 33 -54z m50 0 c0 -24 -4 -44 -10 -44 -5 0 -10 23 -10 51 0
31 4 48 10 44 6 -3 10 -26 10 -51z m98 5 l3 -46 -38 1 c-50 1 -59 32 -14 49
35 13 36 34 1 29 -14 -3 -20 0 -15 8 4 6 19 10 33 8 24 -3 27 -8 30 -49z m146
45 c11 -4 16 -19 16 -51 l0 -44 -37 3 c-30 2 -39 8 -41 25 -3 17 3 23 28 28
39 8 34 31 -6 27 -22 -2 -26 -1 -14 7 17 12 32 13 54 5z m66 -50 c0 -24 -4
-44 -10 -44 -5 0 -10 23 -10 51 0 31 4 48 10 44 6 -3 10 -26 10 -51z m98 44
c14 -12 16 -88 2 -88 -5 0 -10 18 -10 41 0 36 -2 40 -22 37 -19 -2 -24 -10
-26 -40 -2 -21 -7 -38 -13 -38 -9 0 -13 82 -5 91 9 9 62 7 74 -3z m230 -39 l3
-46 -38 1 c-50 1 -59 32 -14 49 35 13 36 34 1 29 -14 -3 -20 0 -15 8 4 6 19
10 33 8 24 -3 27 -8 30 -49z m156 35 c25 -24 19 -34 -20 -34 -28 0 -35 -3 -32
-17 3 -14 12 -17 37 -15 20 1 30 -2 26 -8 -9 -14 -58 -13 -73 2 -7 7 -12 24
-12 38 0 47 42 66 74 34z m276 -3 c5 -11 10 -33 10 -49 0 -26 -3 -29 -34 -30
-45 -2 -69 24 -41 44 10 8 27 14 37 14 10 0 18 5 18 10 0 11 -13 14 -44 10
-11 -1 -15 3 -12 9 12 18 55 12 66 -8z m95 9 c4 -6 -3 -9 -16 -7 -34 3 -34
-19 1 -31 32 -12 37 -21 18 -40 -14 -14 -54 -16 -63 -3 -3 6 7 9 21 8 15 -1
29 4 31 11 3 7 -4 12 -15 12 -29 0 -48 26 -32 45 14 17 46 20 55 5z m103 -2
c23 -23 13 -38 -23 -38 -19 0 -35 -4 -35 -9 0 -17 29 -33 51 -26 14 5 19 4 15
-4 -8 -12 -45 -14 -62 -3 -20 14 -25 45 -9 68 17 26 44 31 63 12z m-2308 -88
c0 -11 -4 -20 -8 -20 -4 0 -8 9 -9 20 -1 11 2 20 8 20 5 0 9 -9 9 -20z m-7310
-206 c0 -15 4 -23 11 -19 20 13 59 -5 65 -29 10 -42 -11 -66 -56 -64 l-40 1 0
69 c0 39 4 68 10 68 6 0 10 -12 10 -26z m158 -2 c2 -12 -6 -34 -17 -48 -25
-31 -28 -14 -5 21 21 32 10 48 -28 40 -22 -5 -28 -4 -23 4 4 7 21 11 38 9 24
-2 33 -8 35 -26z m53 16 c0 -10 2 -10 6 0 2 6 9 12 14 12 6 0 7 -5 3 -11 -3
-6 0 -15 7 -20 10 -6 10 -9 2 -9 -8 0 -10 -7 -6 -17 6 -15 4 -16 -8 -6 -12 10
-18 10 -29 0 -10 -10 -12 -9 -7 6 4 10 1 17 -6 17 -8 0 -8 3 2 9 7 5 10 14 7
20 -4 6 -2 11 3 11 6 0 11 -6 12 -12z m90 0 c0 -10 2 -10 6 0 2 6 9 12 14 12
6 0 7 -5 3 -11 -3 -6 0 -15 7 -20 10 -6 10 -9 2 -9 -8 0 -10 -7 -6 -17 6 -15
4 -16 -8 -6 -12 10 -18 10 -29 0 -10 -10 -12 -9 -7 6 4 10 1 17 -6 17 -8 0 -8
3 2 9 7 5 10 14 7 20 -4 6 -2 11 3 11 6 0 11 -6 12 -12z m139 -42 c0 -59 16
-82 49 -71 20 6 25 21 34 100 2 17 5 3 6 -31 0 -35 -4 -65 -11 -72 -20 -20
-76 -15 -88 7 -13 25 -13 121 0 121 6 0 10 -24 10 -54z m870 44 c0 -5 -4 -10
-10 -10 -5 0 -10 5 -10 10 0 6 5 10 10 10 6 0 10 -4 10 -10z m990 -58 l0 -69
-40 -1 c-34 -2 -42 2 -52 23 -16 35 13 79 48 72 20 -3 24 0 24 19 0 13 5 24
10 24 6 0 10 -29 10 -68z m570 0 l0 -69 -40 -1 c-40 -2 -60 15 -60 52 0 25 31
48 56 42 21 -6 24 -3 24 19 0 14 5 25 10 25 6 0 10 -29 10 -68z m2488 61 c-21
-5 -32 -33 -13 -33 8 0 15 -4 15 -10 0 -5 -7 -10 -15 -10 -11 0 -15 -11 -15
-41 0 -52 -17 -42 -22 13 -5 51 15 89 46 87 15 -1 17 -3 4 -6z m332 -61 l0
-69 -32 -1 c-41 -1 -58 13 -58 48 0 33 22 54 50 47 16 -4 20 0 20 19 0 13 5
24 10 24 6 0 10 -29 10 -68z m720 8 c0 -46 4 -61 18 -69 15 -9 15 -10 -4 -11
-12 0 -25 7 -28 16 -10 26 -7 124 4 124 6 0 10 -27 10 -60z m630 -8 l0 -68
-31 -2 c-40 -3 -59 13 -59 48 0 33 22 54 50 47 16 -4 20 0 20 19 0 13 5 24 10
24 6 0 10 -29 10 -68z m1820 58 c0 -5 -4 -10 -10 -10 -5 0 -10 5 -10 10 0 6 5
10 10 10 6 0 10 -4 10 -10z m606 -7 c-3 -7 2 -14 12 -14 16 -1 16 -2 0 -6 -11
-3 -15 -10 -11 -21 6 -14 4 -15 -9 -4 -13 10 -17 10 -21 0 -4 -9 -6 -7 -6 4
-1 9 -7 19 -13 21 -8 3 -6 6 4 6 10 1 15 7 12 14 -3 8 3 13 16 13 13 0 19 -5
16 -13z m90 0 c-3 -7 2 -14 12 -14 16 -1 16 -2 0 -6 -11 -3 -15 -10 -11 -21 6
-14 4 -15 -9 -4 -13 10 -17 10 -21 0 -4 -9 -6 -7 -6 4 -1 9 -7 19 -13 21 -8 3
-6 6 4 6 10 1 15 7 12 14 -3 8 3 13 16 13 13 0 19 -5 16 -13z m-8165 -23 c10
-1 9 -4 -3 -14 -10 -7 -18 -26 -18 -44 0 -20 6 -32 18 -36 10 -3 6 -4 -8 -3
-21 2 -26 8 -28 37 -2 19 -9 39 -15 43 -9 6 -9 10 1 14 6 2 12 12 12 21 1 15
2 15 14 0 7 -10 19 -18 27 -18z m165 0 c8 0 14 -4 14 -10 0 -5 -7 -10 -15 -10
-26 0 -19 -59 8 -70 21 -9 21 -9 -4 -9 -28 -1 -39 14 -39 54 0 13 -4 26 -10
30 -5 3 -2 14 8 26 14 16 18 17 20 4 2 -8 10 -15 18 -15z m4684 15 c0 -8 7
-15 15 -15 8 0 15 -4 15 -10 0 -5 -7 -10 -15 -10 -22 0 -20 -56 3 -70 15 -9
14 -10 -8 -8 -21 3 -26 9 -28 38 -2 19 -9 39 -15 43 -9 6 -9 10 1 14 6 2 12
11 12 19 0 8 5 14 10 14 6 0 10 -7 10 -15z m1640 0 c0 -8 7 -15 15 -15 8 0 15
-4 15 -10 0 -5 -7 -10 -15 -10 -22 0 -20 -56 3 -70 15 -9 14 -10 -8 -8 -21 3
-26 9 -28 38 -2 19 -9 39 -15 43 -9 6 -9 10 1 14 6 2 12 11 12 19 0 8 5 14 10
14 6 0 10 -7 10 -15z m1281 -15 c10 -1 9 -4 -3 -14 -10 -7 -18 -26 -18 -44 0
-20 6 -32 18 -36 10 -3 6 -4 -8 -3 -21 2 -26 8 -28 37 -2 19 -9 39 -15 43 -9
6 -9 10 1 14 6 2 12 12 12 21 1 15 2 15 14 0 7 -10 19 -18 27 -18z m-9430 -37
l13 -38 14 38 c8 20 18 37 23 37 4 0 13 -17 20 -37 l13 -38 14 38 c8 20 19 37
24 37 5 0 7 -6 4 -12 -2 -7 -10 -30 -17 -50 -15 -46 -35 -49 -44 -8 -4 17 -10
30 -14 30 -3 0 -12 -13 -18 -30 -15 -40 -27 -38 -42 8 -7 20 -15 43 -17 50 -3
6 -1 12 4 12 6 0 16 -17 23 -37z m217 25 c23 -23 13 -38 -23 -38 -19 0 -35 -4
-35 -9 0 -18 29 -33 52 -26 18 6 20 4 12 -5 -21 -21 -68 -8 -78 22 -16 46 39
89 72 56z m752 -8 c13 -24 13 -80 0 -80 -5 0 -10 18 -10 41 0 36 -2 40 -22 37
-18 -2 -24 -11 -29 -43 l-6 -40 -2 35 c-2 70 -51 73 -51 4 0 -19 -4 -34 -10
-34 -10 0 -15 82 -5 91 2 3 32 6 65 6 49 1 62 -2 70 -17z m94 14 c11 -4 16
-19 16 -51 l0 -44 -37 3 c-30 2 -39 8 -41 25 -3 17 3 23 28 28 39 8 34 31 -6
27 -22 -2 -26 -1 -14 7 17 12 32 13 54 5z m164 -6 c7 -7 12 -29 12 -49 0 -36
-1 -37 -37 -36 -31 2 -39 6 -41 25 -3 18 2 23 27 28 49 10 39 30 -13 24 -11
-1 -15 3 -12 9 9 15 49 14 64 -1z m92 1 c0 -5 -7 -9 -15 -9 -11 0 -15 -11 -15
-40 0 -22 -4 -40 -10 -40 -5 0 -10 21 -10 48 0 43 2 47 25 48 14 1 25 -2 25
-7z m108 -54 c2 -32 -2 -63 -7 -68 -8 -8 -11 -3 -11 15 0 22 -3 25 -27 20 -18
-3 -30 1 -40 13 -30 42 -3 87 50 81 31 -3 32 -4 35 -61z m67 -20 c16 0 21 8
23 43 4 58 22 53 22 -6 0 -49 0 -49 -35 -50 -38 -1 -55 17 -55 61 0 43 15 40
20 -5 4 -35 9 -43 25 -43z m85 34 c0 -31 -4 -48 -10 -44 -17 11 -12 95 7 95 2
0 3 -23 3 -51z m174 35 c25 -24 19 -34 -20 -34 -28 0 -35 -3 -32 -17 3 -14 12
-17 37 -15 20 1 30 -2 26 -8 -9 -14 -58 -13 -73 2 -7 7 -12 24 -12 38 0 47 42
66 74 34z m134 -66 c17 -17 32 1 32 37 0 19 5 37 10 40 6 4 10 -13 10 -45 l0
-51 -37 3 -38 3 -2 50 c-1 48 -1 48 6 12 5 -21 13 -43 19 -49z m137 71 c-4 -5
-13 -9 -21 -9 -10 0 -14 -12 -14 -40 0 -22 -4 -40 -10 -40 -5 0 -10 22 -10 48
0 48 1 49 30 50 17 0 28 -4 25 -9z m83 -1 c7 -7 12 -29 12 -49 0 -36 -1 -37
-37 -36 -31 2 -39 6 -41 25 -3 18 2 23 27 28 49 10 39 30 -13 24 -11 -1 -15 3
-12 9 9 15 49 14 64 -1z m157 2 c4 -6 13 -5 24 2 33 20 51 3 51 -47 0 -25 -4
-45 -10 -45 -5 0 -10 17 -10 38 0 43 -6 53 -26 45 -9 -3 -14 -20 -14 -44 0
-21 -4 -39 -10 -39 -5 0 -10 18 -10 40 0 33 -3 40 -20 40 -17 0 -20 -7 -20
-40 0 -22 -4 -40 -10 -40 -5 0 -10 21 -10 48 0 45 1 47 30 49 16 1 32 -2 35
-7z m179 -6 c33 -32 11 -84 -35 -84 -23 0 -32 6 -40 26 -19 53 37 96 75 58z
m224 4 c23 -23 13 -38 -23 -38 -19 0 -35 -4 -35 -9 0 -18 29 -33 52 -26 18 6
20 4 12 -5 -21 -21 -68 -8 -78 22 -16 46 39 89 72 56z m75 -5 c-16 -11 -23
-26 -23 -49 0 -19 -4 -34 -10 -34 -10 0 -15 82 -6 91 3 3 18 5 33 6 l28 2 -22
-16z m105 5 c14 -12 16 -88 2 -88 -5 0 -10 18 -10 41 0 36 -2 40 -22 37 -19
-2 -24 -10 -26 -40 -2 -21 -7 -38 -13 -38 -9 0 -13 82 -5 91 9 9 62 7 74 -3z
m110 0 c7 -7 12 -29 12 -49 0 -36 -1 -37 -37 -36 -31 2 -39 6 -41 25 -3 18 2
23 27 28 49 10 39 30 -13 24 -11 -1 -15 3 -12 9 9 15 49 14 64 -1z m276 -4
c25 -24 19 -34 -20 -34 -28 0 -35 -3 -32 -17 3 -14 12 -17 37 -15 20 1 30 -2
26 -8 -9 -14 -58 -13 -73 2 -7 7 -12 24 -12 38 0 47 42 66 74 34z m2444 -66
c17 -17 32 1 32 37 0 19 5 37 10 40 6 4 10 -13 10 -45 l0 -51 -37 3 -38 3 -2
50 c-1 48 -1 48 6 12 5 -21 13 -43 19 -49z m158 27 c1 -41 0 -43 -3 -10 -8 68
-53 71 -53 4 0 -21 -4 -39 -10 -39 -5 0 -10 22 -10 49 l0 49 38 -1 37 -2 1
-50z m222 43 c7 -7 12 -29 12 -49 0 -36 -1 -37 -37 -36 -31 2 -39 6 -41 25 -3
18 2 23 27 28 49 10 39 30 -13 24 -11 -1 -15 3 -12 9 9 15 49 14 64 -1z m170
-1 c14 -10 17 -87 2 -87 -5 0 -10 18 -10 40 0 33 -3 40 -20 40 -12 0 -21 -8
-24 -22 -3 -13 -7 -32 -9 -43 -3 -11 -5 -1 -6 21 -2 69 -51 65 -51 -4 0 -19
-4 -31 -10 -27 -10 6 -14 77 -5 87 8 8 119 4 133 -5z m110 1 c23 -23 13 -38
-24 -38 -28 0 -35 -3 -32 -17 3 -13 13 -18 36 -17 17 1 29 -2 26 -7 -8 -13
-58 -11 -72 3 -7 7 -12 22 -12 34 0 43 50 70 78 42z m108 1 c16 -13 19 -89 4
-89 -5 0 -10 18 -10 41 0 36 -2 40 -22 37 -19 -2 -24 -10 -26 -40 -2 -21 -7
-38 -13 -38 -9 0 -13 82 -5 91 10 10 60 8 72 -2z m182 -40 l3 -46 -38 1 c-50
1 -59 32 -14 49 35 13 36 34 1 29 -14 -3 -20 0 -15 8 4 6 19 10 33 8 24 -3 27
-8 30 -49z m226 35 c34 -33 8 -90 -37 -82 -23 5 -27 2 -27 -19 0 -14 -4 -21
-10 -18 -10 6 -15 117 -5 126 11 12 65 7 79 -7z m104 4 c7 -7 12 -29 12 -49 0
-36 -1 -37 -37 -36 -31 2 -39 6 -41 25 -3 18 2 23 27 28 49 10 39 30 -13 24
-11 -1 -15 3 -12 9 9 15 49 14 64 -1z m92 3 c0 -5 -9 -11 -20 -14 -15 -4 -20
-14 -20 -42 0 -21 -4 -34 -10 -30 -10 6 -14 77 -6 86 9 9 56 9 56 0z m88 -42
l3 -46 -38 1 c-50 1 -59 32 -14 49 35 13 36 34 1 29 -14 -3 -20 0 -15 8 4 6
19 10 33 8 24 -3 27 -8 30 -49z m270 39 c23 -23 13 -38 -23 -38 -19 0 -35 -4
-35 -9 0 -17 29 -33 51 -26 14 5 19 4 15 -4 -8 -12 -45 -14 -62 -3 -20 14 -25
45 -9 68 17 26 44 31 63 12z m58 -25 l16 -38 16 35 c20 44 21 44 27 38 8 -8
-33 -98 -44 -98 -9 0 -41 71 -41 90 0 20 10 9 26 -27z m150 26 c3 -6 -1 -10
-12 -9 -52 6 -60 -10 -13 -27 21 -8 30 -17 27 -30 -4 -21 -54 -31 -71 -14 -8
8 -3 10 21 5 25 -5 32 -3 32 9 0 8 -11 18 -25 21 -24 6 -34 34 -18 49 10 11
51 8 59 -4z m152 -1 c14 -12 16 -88 2 -88 -5 0 -10 18 -10 41 0 36 -2 40 -22
37 -19 -2 -24 -10 -26 -40 -2 -21 -7 -38 -13 -38 -9 0 -13 82 -5 91 9 9 62 7
74 -3z m118 -13 c24 -37 6 -75 -35 -75 -46 0 -68 52 -35 84 23 23 51 19 70 -9z
m53 -12 l19 -38 16 39 c9 22 19 36 22 33 9 -9 -29 -97 -41 -97 -9 0 -45 74
-45 93 0 16 11 5 29 -30z m151 18 c5 -11 10 -33 10 -49 0 -26 -3 -29 -34 -30
-45 -2 -69 24 -41 44 10 8 27 14 37 14 10 0 18 5 18 10 0 11 -13 14 -44 10
-11 -1 -15 3 -12 9 12 18 55 12 66 -8z m178 7 c7 -7 12 -24 12 -38 0 -31 -17
-50 -45 -50 -28 0 -45 19 -45 50 0 31 17 50 45 50 12 0 26 -5 33 -12z m102 2
c12 -8 8 -10 -14 -8 -40 4 -44 -17 -6 -31 22 -7 31 -16 28 -28 -4 -21 -54 -31
-71 -14 -7 7 -2 10 18 8 15 -1 30 4 32 11 3 7 -4 12 -15 12 -29 0 -48 26 -32
45 14 17 38 19 60 5z m154 -6 c25 -24 19 -34 -20 -34 -28 0 -35 -3 -32 -17 3
-14 12 -17 37 -15 20 1 30 -2 26 -8 -9 -14 -58 -13 -73 2 -7 7 -12 24 -12 38
0 47 42 66 74 34z m154 4 c23 -23 13 -38 -23 -38 -19 0 -35 -4 -35 -9 0 -17
29 -33 51 -26 14 5 19 4 15 -4 -8 -12 -45 -14 -62 -3 -20 14 -25 45 -9 68 17
26 44 31 63 12z m57 -5 c12 -17 14 -17 34 1 23 21 27 16 9 -13 -9 -15 -8 -24
5 -45 20 -30 12 -34 -16 -9 -18 17 -19 17 -33 -1 -7 -11 -17 -17 -21 -13 -3 4
2 16 12 27 17 19 17 21 2 38 -10 10 -17 22 -17 25 0 13 13 7 25 -10z m162 5
c18 -14 16 -63 -2 -78 -8 -7 -24 -10 -35 -7 -16 4 -20 0 -20 -19 0 -13 -4 -24
-10 -24 -6 0 -10 29 -10 68 l0 69 32 1 c18 0 38 -4 45 -10z m111 0 c23 -23 13
-38 -23 -38 -19 0 -35 -4 -35 -9 0 -18 29 -33 52 -26 18 6 20 4 12 -5 -21 -21
-68 -8 -78 22 -16 46 39 89 72 56z m92 3 c0 -5 -9 -11 -20 -14 -15 -4 -20 -14
-20 -42 0 -21 -4 -34 -10 -30 -10 6 -14 77 -6 86 9 9 56 9 56 0z m30 -42 c0
-31 -4 -48 -10 -44 -17 11 -12 95 7 95 2 0 3 -23 3 -51z m104 35 c25 -24 19
-34 -20 -34 -28 0 -35 -3 -32 -17 3 -14 12 -17 37 -15 20 1 30 -2 26 -8 -9
-14 -58 -13 -73 2 -7 7 -12 24 -12 38 0 47 42 66 74 34z m112 -39 c1 -33 0
-38 -3 -15 -9 70 -53 77 -53 9 0 -21 -4 -39 -10 -39 -5 0 -10 22 -10 48 l0 48
38 -1 37 0 1 -50z m172 43 c23 -23 13 -38 -23 -38 -19 0 -35 -4 -35 -9 0 -17
29 -33 51 -26 14 5 19 4 15 -4 -8 -12 -45 -14 -62 -3 -20 14 -25 45 -9 68 17
26 44 31 63 12z m108 1 c3 -6 -1 -10 -12 -9 -52 6 -60 -10 -13 -27 21 -8 30
-17 27 -30 -4 -21 -54 -31 -71 -14 -8 8 -3 10 21 5 25 -5 32 -3 32 9 0 8 -11
18 -25 21 -24 6 -34 34 -18 49 10 11 51 8 59 -4z m-9226 -79 c0 -5 -4 -10 -10
-10 -5 0 -10 5 -10 10 0 6 5 10 10 10 6 0 10 -4 10 -10z m9270 0 c0 -5 -4 -10
-10 -10 -5 0 -10 5 -10 10 0 6 5 10 10 10 6 0 10 -4 10 -10z"/>
<path d="M7700 9038 c0 -7 34 -47 75 -88 l75 -75 -75 -75 c-72 -71 -90 -100
-62 -100 15 0 177 161 177 175 0 15 -163 175 -178 175 -6 0 -12 -6 -12 -12z"/>
<path d="M7900 8190 c0 -38 2 -40 29 -40 49 0 61 9 61 46 0 34 -1 34 -45 34
l-45 0 0 -40z"/>
<path d="M8120 8189 l0 -40 43 3 c41 3 42 4 45 41 l3 37 -45 0 -46 0 0 -41z"/>
<path d="M8432 8311 c-9 -5 -12 -29 -10 -82 l3 -74 39 -3 c49 -4 56 6 56 85 0
51 -3 64 -19 73 -23 12 -51 13 -69 1z"/>
<path d="M3461 6928 c-1 -30 3 -38 17 -38 11 0 13 3 5 8 -6 4 -13 21 -16 37
-4 27 -4 27 -6 -7z"/>
<path d="M3518 6883 c7 -3 16 -2 19 1 4 3 -2 6 -13 5 -11 0 -14 -3 -6 -6z"/>
<path d="M4511 6684 c0 -11 3 -14 6 -6 3 7 2 16 -1 19 -3 4 -6 -2 -5 -13z"/>
<path d="M4360 6106 c0 -10 9 -16 21 -16 24 0 21 23 -4 28 -10 2 -17 -3 -17
-12z"/>
<path d="M6020 6774 l0 -77 36 6 c51 9 64 23 64 73 0 49 -24 74 -72 74 l-28 0
0 -76z"/>
<path d="M7530 6821 c0 -27 3 -31 28 -31 36 0 55 13 50 36 -2 14 -13 20 -41
22 -35 3 -37 2 -37 -27z"/>
<path d="M7530 6731 c0 -28 3 -31 33 -31 41 0 60 12 55 36 -2 14 -13 20 -46
22 -41 3 -42 2 -42 -27z"/>
<path d="M5766 6721 c-3 -5 0 -14 8 -20 11 -9 18 -8 30 4 9 9 16 18 16 21 0 8
-49 4 -54 -5z"/>
<path d="M6247 6784 c-15 -15 -6 -24 24 -24 20 0 29 4 27 13 -5 14 -40 21 -51
11z"/>
<path d="M6667 6784 c-15 -15 -6 -24 24 -24 20 0 29 4 27 13 -5 14 -40 21 -51
11z"/>
<path d="M6930 6714 c0 -10 7 -14 22 -12 32 5 35 28 4 28 -17 0 -26 -5 -26
-16z"/>
<path d="M7281 6776 c-7 -8 -11 -27 -9 -43 2 -22 8 -28 28 -28 22 0 25 4 25
40 0 43 -21 58 -44 31z"/>
<path d="M3868 6549 c-27 -15 -22 -38 10 -45 15 -4 32 -10 37 -14 22 -16 56
-18 62 -4 3 8 12 14 20 14 8 0 11 5 8 10 -3 6 0 10 8 10 10 0 13 7 10 20 -5
18 -14 20 -72 20 -36 0 -74 -5 -83 -11z"/>
<path d="M4046 6322 c-3 -6 8 -12 24 -14 19 -3 29 -1 27 6 -5 14 -43 20 -51 8z"/>
<path d="M4010 6311 c0 -6 4 -13 10 -16 6 -3 7 1 4 9 -7 18 -14 21 -14 7z"/>
<path d="M6501 6320 c-7 -4 -11 -20 -9 -36 2 -21 8 -29 23 -29 15 0 21 8 23
31 3 33 -14 49 -37 34z"/>
<path d="M6662 6313 c3 -58 3 -58 33 -56 32 3 55 25 55 55 0 26 -36 58 -65 58
-25 0 -26 -2 -23 -57z"/>
<path d="M7857 6314 c-12 -12 -8 -41 8 -54 20 -17 47 5 43 34 -3 21 -37 34
-51 20z"/>
<path d="M8307 6314 c-12 -12 -8 -41 8 -54 20 -17 47 5 43 34 -3 21 -37 34
-51 20z"/>
<path d="M9753 6323 c-19 -7 -16 -62 3 -70 21 -8 44 21 37 47 -5 21 -21 29
-40 23z"/>
<path d="M5593 6283 c-7 -2 -13 -11 -13 -20 0 -20 34 -12 38 10 3 17 -3 20
-25 10z"/>
<path d="M5917 6314 c-12 -12 -8 -41 8 -54 20 -17 47 5 43 34 -3 21 -37 34
-51 20z"/>
<path d="M6823 6323 c-22 -8 -14 -23 12 -23 14 0 25 4 25 9 0 11 -21 19 -37
14z"/>
<path d="M7020 6315 c-11 -13 -8 -15 20 -15 28 0 31 2 20 15 -7 8 -16 15 -20
15 -4 0 -13 -7 -20 -15z"/>
<path d="M7193 6322 c-17 -12 -22 -40 -9 -58 19 -25 46 -11 46 25 0 29 -18 45
-37 33z"/>
<path d="M7297 6314 c-12 -12 -8 -41 8 -54 20 -17 47 5 43 34 -3 21 -37 34
-51 20z"/>
<path d="M7410 6315 c-11 -13 -8 -15 20 -15 28 0 31 2 20 15 -7 8 -16 15 -20
15 -4 0 -13 -7 -20 -15z"/>
<path d="M7648 6283 c-10 -3 -18 -9 -18 -14 0 -15 30 -23 43 -10 14 14 -2 29
-25 24z"/>
<path d="M8203 6323 c-22 -8 -14 -23 12 -23 14 0 25 4 25 9 0 11 -21 19 -37
14z"/>
<path d="M8478 6283 c-10 -3 -18 -9 -18 -14 0 -15 30 -23 43 -10 14 14 -2 29
-25 24z"/>
<path d="M8577 6314 c-12 -12 -8 -41 8 -54 20 -17 47 5 43 34 -3 21 -37 34
-51 20z"/>
<path d="M8697 6314 c-12 -12 -8 -41 8 -54 20 -17 47 5 43 34 -3 21 -37 34
-51 20z"/>
<path d="M9017 6282 c-10 -2 -16 -9 -14 -15 6 -18 34 -20 40 -3 7 18 -1 24
-26 18z"/>
<path d="M9227 6314 c-12 -12 -8 -41 8 -54 20 -17 47 5 43 34 -3 21 -37 34
-51 20z"/>
<path d="M9863 6323 c-22 -8 -14 -23 12 -23 14 0 25 4 25 9 0 11 -21 19 -37
14z"/>
<path d="M10130 6315 c-11 -13 -8 -15 20 -15 28 0 31 2 20 15 -7 8 -16 15 -20
15 -4 0 -13 -7 -20 -15z"/>
<path d="M10793 6323 c-22 -8 -14 -23 12 -23 14 0 25 4 25 9 0 11 -21 19 -37
14z"/>
<path d="M11453 6283 c-7 -2 -13 -11 -13 -20 0 -20 34 -12 38 10 3 17 -3 20
-25 10z"/>
<path d="M3720 5750 c1 -8 7 -24 15 -34 19 -25 19 -16 0 20 -8 16 -15 22 -15
14z"/>
<path d="M3821 5570 c14 -31 19 -36 19 -24 0 6 -7 19 -16 30 -14 18 -14 18 -3
-6z"/>
<path d="M3848 5504 c5 -27 28 -42 42 -28 4 5 -5 19 -20 31 l-27 22 5 -25z"/>
<path d="M5907 5694 c-12 -12 -8 -41 8 -54 20 -17 47 5 43 34 -3 21 -37 34
-51 20z"/>
<path d="M6027 5694 c-12 -12 -8 -41 8 -54 20 -17 47 5 43 34 -3 21 -37 34
-51 20z"/>
<path d="M7132 5738 c-15 -18 1 -41 24 -36 23 4 26 41 3 46 -9 1 -21 -3 -27
-10z"/>
<path d="M7123 5664 c-6 -16 11 -34 33 -34 17 0 37 27 29 40 -10 16 -55 12
-62 -6z"/>
<path d="M7777 5694 c-12 -12 -8 -41 8 -54 20 -17 47 5 43 34 -3 21 -37 34
-51 20z"/>
<path d="M5800 5644 c0 -9 7 -14 17 -12 25 5 28 28 4 28 -12 0 -21 -6 -21 -16z"/>
<path d="M6142 5668 c2 -25 8 -33 23 -33 16 0 20 7 20 30 0 24 -5 31 -23 33
-21 3 -23 0 -20 -30z"/>
<path d="M6263 5703 c-22 -8 -14 -23 12 -23 14 0 25 4 25 9 0 11 -21 19 -37
14z"/>
<path d="M7403 5703 c-22 -8 -14 -23 12 -23 14 0 25 4 25 9 0 11 -21 19 -37
14z"/>
<path d="M7494 5686 c-10 -26 4 -48 28 -44 17 2 23 10 23 28 0 18 -6 26 -23
28 -13 2 -25 -3 -28 -12z"/>
<path d="M7892 5668 c2 -25 8 -33 23 -33 16 0 20 7 20 30 0 24 -5 31 -23 33
-21 3 -23 0 -20 -30z"/>
<path d="M8083 5703 c-22 -8 -14 -23 12 -23 14 0 25 4 25 9 0 11 -21 19 -37
14z"/>
<path d="M2580 3995 c0 -15 6 -25 14 -25 28 0 46 12 46 31 0 14 -7 19 -30 19
-25 0 -30 -4 -30 -25z"/>
<path d="M2854 3966 c-10 -26 0 -51 21 -51 16 0 20 7 20 30 0 33 -30 49 -41
21z"/>
<path d="M3217 3934 c-4 -4 -4 -11 -1 -15 8 -14 31 -10 38 6 5 15 -24 22 -37
9z"/>
<path d="M3445 3961 c-7 -24 3 -51 21 -51 20 0 34 32 23 53 -13 22 -36 22 -44
-2z"/>
<path d="M3575 3970 c-4 -6 5 -10 20 -10 15 0 24 4 20 10 -3 6 -12 10 -20 10
-8 0 -17 -4 -20 -10z"/>
<path d="M3122 1821 c-10 -29 -10 -31 14 -31 22 0 24 3 19 23 -12 37 -22 40
-33 8z"/>
<path d="M5007 1814 c-11 -11 -8 -62 3 -69 18 -11 41 17 38 44 -3 25 -27 39
-41 25z"/>
<path d="M9947 1813 c-11 -11 -8 -48 5 -61 17 -17 26 -15 38 8 18 34 -18 78
-43 53z"/>
<path d="M3710 1754 c0 -9 7 -14 17 -12 25 5 28 28 4 28 -12 0 -21 -6 -21 -16z"/>
<path d="M4234 1806 c-10 -26 0 -51 21 -51 16 0 20 7 20 30 0 33 -30 49 -41
21z"/>
<path d="M4387 1814 c-14 -14 -6 -24 19 -24 16 0 24 5 22 13 -5 14 -31 21 -41
11z"/>
<path d="M4597 1813 c-14 -13 -6 -23 18 -23 16 0 25 6 25 15 0 15 -31 21 -43
8z"/>
<path d="M4793 1758 c2 -7 10 -13 17 -13 7 0 15 6 18 13 2 7 -5 12 -18 12 -13
0 -20 -5 -17 -12z"/>
<path d="M5147 1806 c-5 -12 1 -16 24 -16 20 0 29 4 27 13 -7 18 -45 20 -51 3z"/>
<path d="M9377 1806 c-5 -12 1 -16 24 -16 20 0 29 4 27 13 -7 18 -45 20 -51 3z"/>
<path d="M10097 1813 c-11 -11 -8 -48 5 -61 17 -17 26 -15 38 8 18 34 -18 78
-43 53z"/>
<path d="M10307 1813 c-14 -13 -6 -23 18 -23 16 0 25 6 25 15 0 15 -31 21 -43
8z"/>
<path d="M10807 1813 c-11 -11 -8 -48 5 -61 17 -17 26 -15 38 8 18 34 -18 78
-43 53z"/>
<path d="M11283 1758 c2 -7 10 -13 17 -13 7 0 15 6 18 13 2 7 -5 12 -18 12
-13 0 -20 -5 -17 -12z"/>
<path d="M4342 1471 c-10 -29 -10 -31 14 -31 22 0 24 3 19 23 -12 37 -22 40
-33 8z"/>
<path d="M4500 1491 c0 -26 4 -31 23 -31 57 1 66 53 9 58 -30 3 -32 1 -32 -27z"/>
<path d="M9010 1451 c-11 -22 1 -61 19 -61 16 0 33 29 29 52 -4 30 -34 35 -48
9z"/>
<path d="M3090 1404 c0 -9 7 -14 17 -12 25 5 28 28 4 28 -12 0 -21 -6 -21 -16z"/>
<path d="M3357 1414 c-4 -4 -4 -11 -1 -15 8 -14 31 -10 38 6 5 15 -24 22 -37
9z"/>
<path d="M3940 1451 c-11 -22 1 -61 19 -61 16 0 33 29 29 52 -4 30 -34 35 -48
9z"/>
<path d="M4797 1463 c-14 -13 -6 -23 18 -23 16 0 25 6 25 15 0 15 -31 21 -43
8z"/>
<path d="M5220 1404 c0 -9 7 -14 17 -12 25 5 28 28 4 28 -12 0 -21 -6 -21 -16z"/>
<path d="M5740 1451 c-11 -22 1 -61 19 -61 16 0 33 29 29 52 -4 30 -34 35 -48
9z"/>
<path d="M8867 1463 c-14 -13 -6 -23 18 -23 16 0 25 6 25 15 0 15 -31 21 -43
8z"/>
<path d="M3000 870 c0 -11 7 -20 15 -20 8 0 15 9 15 20 0 11 -7 20 -15 20 -8
0 -15 -9 -15 -20z"/>
<path d="M3120 870 c0 -11 7 -20 15 -20 8 0 15 9 15 20 0 11 -7 20 -15 20 -8
0 -15 -9 -15 -20z"/>
<path d="M3240 870 c0 -11 7 -20 15 -20 8 0 15 9 15 20 0 11 -7 20 -15 20 -8
0 -15 -9 -15 -20z"/>
<path d="M3596 914 c-31 -31 -11 -104 29 -104 43 0 63 89 26 110 -27 14 -37
13 -55 -6z"/>
<path d="M6471 880 c-7 -4 -11 -20 -9 -36 2 -21 8 -29 23 -29 15 0 21 8 23 31
3 33 -14 49 -37 34z"/>
<path d="M6871 880 c-7 -4 -11 -20 -9 -36 2 -21 8 -29 23 -29 15 0 21 8 23 31
3 33 -14 49 -37 34z"/>
<path d="M8600 870 c0 -11 7 -20 15 -20 8 0 15 9 15 20 0 11 -7 20 -15 20 -8
0 -15 -9 -15 -20z"/>
<path d="M8720 870 c0 -11 7 -20 15 -20 8 0 15 9 15 20 0 11 -7 20 -15 20 -8
0 -15 -9 -15 -20z"/>
<path d="M8840 870 c0 -11 7 -20 15 -20 8 0 15 9 15 20 0 11 -7 20 -15 20 -8
0 -15 -9 -15 -20z"/>
<path d="M10351 880 c-7 -4 -11 -20 -9 -36 2 -21 8 -29 23 -29 15 0 21 8 23
31 3 33 -14 49 -37 34z"/>
<path d="M3787 874 c-12 -12 -8 -41 8 -54 20 -17 47 5 43 34 -3 21 -37 34 -51
20z"/>
<path d="M4023 883 c-22 -8 -14 -23 13 -23 15 0 24 5 22 12 -5 14 -18 18 -35
11z"/>
<path d="M4321 880 c-7 -4 -11 -18 -9 -31 4 -28 42 -39 51 -15 13 32 -16 63
-42 46z"/>
<path d="M4808 843 c-10 -3 -18 -9 -18 -14 0 -15 30 -23 43 -10 14 14 -2 29
-25 24z"/>
<path d="M4963 883 c-22 -8 -14 -23 13 -23 15 0 24 5 22 12 -5 14 -18 18 -35
11z"/>
<path d="M5117 874 c-12 -12 -8 -41 8 -54 20 -17 47 5 43 34 -3 21 -37 34 -51
20z"/>
<path d="M5227 874 c-12 -12 -8 -41 8 -54 20 -17 47 5 43 34 -3 21 -37 34 -51
20z"/>
<path d="M5471 880 c-7 -4 -11 -20 -9 -36 2 -21 8 -29 23 -29 15 0 21 8 23 31
3 33 -14 49 -37 34z"/>
<path d="M5703 883 c-22 -8 -14 -23 12 -23 14 0 25 4 25 9 0 11 -21 19 -37 14z"/>
<path d="M5850 875 c-11 -13 -8 -15 20 -15 28 0 31 2 20 15 -7 8 -16 15 -20
15 -4 0 -13 -7 -20 -15z"/>
<path d="M6097 874 c-12 -12 -8 -41 8 -54 20 -17 47 5 43 34 -3 21 -37 34 -51
20z"/>
<path d="M6593 883 c-22 -8 -14 -23 12 -23 14 0 25 4 25 9 0 11 -21 19 -37 14z"/>
<path d="M6767 843 c-10 -3 -16 -10 -14 -16 6 -19 41 -14 45 6 4 17 1 18 -31
10z"/>
<path d="M6993 843 c-7 -2 -13 -11 -13 -20 0 -20 34 -12 38 10 3 17 -3 20 -25
10z"/>
<path d="M9310 840 c-11 -7 -12 -12 -3 -21 13 -13 33 -4 33 17 0 16 -9 18 -30
4z"/>
<path d="M9407 874 c-12 -12 -8 -41 8 -54 20 -17 47 5 43 34 -3 21 -37 34 -51
20z"/>
<path d="M9870 840 c-11 -7 -12 -12 -3 -21 13 -13 33 -4 33 17 0 16 -9 18 -30
4z"/>
<path d="M10091 880 c-7 -4 -11 -20 -9 -36 2 -21 8 -29 23 -29 15 0 21 8 23
31 3 33 -14 49 -37 34z"/>
<path d="M10460 875 c-11 -13 -8 -15 20 -15 28 0 31 2 20 15 -7 8 -16 15 -20
15 -4 0 -13 -7 -20 -15z"/>
<path d="M11050 875 c-11 -13 -8 -15 20 -15 28 0 31 2 20 15 -7 8 -16 15 -20
15 -4 0 -13 -7 -20 -15z"/>
<path d="M11257 874 c-12 -12 -8 -41 8 -54 20 -17 47 5 43 34 -3 21 -37 34
-51 20z"/>
<path d="M11378 843 c-10 -3 -18 -9 -18 -14 0 -15 30 -23 43 -10 14 14 -2 29
-25 24z"/>
<path d="M11550 840 c-11 -7 -12 -12 -3 -21 13 -13 33 -4 33 17 0 16 -9 18
-30 4z"/>
<path d="M11713 843 c-7 -2 -13 -11 -13 -20 0 -20 34 -12 38 10 3 17 -3 20
-25 10z"/>
<path d="M12153 883 c-19 -7 -16 -62 3 -70 21 -8 44 21 37 47 -5 21 -21 29
-40 23z"/>
<path d="M12330 875 c-11 -13 -8 -15 20 -15 28 0 31 2 20 15 -7 8 -16 15 -20
15 -4 0 -13 -7 -20 -15z"/>
<path d="M12537 843 c-10 -3 -16 -10 -14 -16 6 -19 41 -14 45 6 4 17 1 18 -31
10z"/>
<path d="M4747 554 c-12 -12 -8 -41 8 -54 20 -17 47 5 43 34 -3 21 -37 34 -51
20z"/>
<path d="M5317 554 c-12 -12 -8 -41 8 -54 20 -17 47 5 43 34 -3 21 -37 34 -51
20z"/>
<path d="M5587 554 c-12 -12 -8 -41 8 -54 20 -17 47 5 43 34 -3 21 -37 34 -51
20z"/>
<path d="M8587 554 c-12 -12 -8 -41 8 -54 20 -17 47 5 43 34 -3 21 -37 34 -51
20z"/>
<path d="M10081 560 c-7 -4 -11 -20 -9 -36 2 -21 8 -29 23 -29 15 0 21 8 23
31 3 33 -14 49 -37 34z"/>
<path d="M12077 554 c-12 -12 -8 -41 8 -54 20 -17 47 5 43 34 -3 21 -37 34
-51 20z"/>
<path d="M12523 563 c-19 -7 -16 -62 3 -70 21 -8 44 21 37 47 -5 21 -21 29
-40 23z"/>
<path d="M3283 523 c-7 -2 -13 -11 -13 -20 0 -20 34 -12 38 10 3 17 -3 20 -25
10z"/>
<path d="M3437 523 c-10 -3 -16 -10 -14 -16 6 -19 41 -14 45 6 4 17 1 18 -31
10z"/>
<path d="M3607 554 c-12 -12 -8 -41 8 -54 20 -17 47 5 43 34 -3 21 -37 34 -51
20z"/>
<path d="M3963 563 c-22 -8 -14 -23 12 -23 14 0 25 4 25 9 0 11 -21 19 -37 14z"/>
<path d="M4317 523 c-10 -3 -16 -10 -14 -16 6 -19 41 -14 45 6 4 17 1 18 -31
10z"/>
<path d="M4637 554 c-12 -12 -8 -41 8 -54 20 -17 47 5 43 34 -3 21 -37 34 -51
20z"/>
<path d="M4870 555 c-11 -13 -8 -15 20 -15 28 0 31 2 20 15 -7 8 -16 15 -20
15 -4 0 -13 -7 -20 -15z"/>
<path d="M5167 523 c-10 -3 -16 -10 -14 -16 6 -19 41 -14 45 6 4 17 1 18 -31
10z"/>
<path d="M5443 563 c-22 -8 -14 -23 12 -23 14 0 25 4 25 9 0 11 -21 19 -37 14z"/>
<path d="M5710 555 c-11 -13 -8 -15 20 -15 28 0 31 2 20 15 -7 8 -16 15 -20
15 -4 0 -13 -7 -20 -15z"/>
<path d="M5910 555 c-11 -13 -8 -15 20 -15 28 0 31 2 20 15 -7 8 -16 15 -20
15 -4 0 -13 -7 -20 -15z"/>
<path d="M6227 554 c-12 -12 -8 -41 8 -54 20 -17 47 5 43 34 -3 21 -37 34 -51
20z"/>
<path d="M6720 555 c-11 -13 -8 -15 20 -15 28 0 31 2 20 15 -7 8 -16 15 -20
15 -4 0 -13 -7 -20 -15z"/>
<path d="M7007 554 c-12 -12 -8 -41 8 -54 20 -17 47 5 43 34 -3 21 -37 34 -51
20z"/>
<path d="M8707 554 c-12 -12 -8 -41 8 -54 20 -17 47 5 43 34 -3 21 -37 34 -51
20z"/>
<path d="M8967 554 c-23 -23 7 -69 37 -58 25 10 17 58 -9 62 -12 2 -24 0 -28
-4z"/>
<path d="M9161 560 c-7 -4 -11 -20 -9 -36 2 -21 8 -29 23 -29 15 0 21 8 23 31
3 33 -14 49 -37 34z"/>
<path d="M9267 554 c-12 -12 -8 -41 8 -54 20 -17 47 5 43 34 -3 21 -37 34 -51
20z"/>
<path d="M9497 554 c-12 -12 -8 -41 8 -54 20 -17 47 5 43 34 -3 21 -37 34 -51
20z"/>
<path d="M9978 523 c-10 -3 -18 -9 -18 -14 0 -15 30 -23 43 -10 14 14 -2 29
-25 24z"/>
<path d="M10187 554 c-12 -12 -8 -41 8 -54 20 -17 47 5 43 34 -3 21 -37 34
-51 20z"/>
<path d="M10383 563 c-22 -8 -14 -23 12 -23 14 0 25 4 25 9 0 11 -21 19 -37
14z"/>
<path d="M10677 523 c-10 -3 -16 -10 -14 -16 6 -19 41 -14 45 6 4 17 1 18 -31
10z"/>
<path d="M10900 555 c-11 -13 -8 -15 20 -15 28 0 31 2 20 15 -7 8 -16 15 -20
15 -4 0 -13 -7 -20 -15z"/>
<path d="M11207 554 c-12 -12 -8 -41 8 -54 20 -17 47 5 43 34 -3 21 -37 34
-51 20z"/>
<path d="M11377 554 c-12 -12 -8 -41 8 -54 20 -17 47 5 43 34 -3 21 -37 34
-51 20z"/>
<path d="M11484 546 c-10 -26 4 -48 28 -44 17 2 23 10 23 28 0 18 -6 26 -23
28 -13 2 -25 -3 -28 -12z"/>
<path d="M11660 520 c-11 -7 -12 -12 -3 -21 13 -13 33 -4 33 17 0 16 -9 18
-30 4z"/>
<path d="M11823 523 c-7 -2 -13 -11 -13 -20 0 -20 34 -12 38 10 3 17 -3 20
-25 10z"/>
<path d="M12200 520 c-11 -7 -12 -12 -3 -21 13 -13 33 -4 33 17 0 16 -9 18
-30 4z"/>
<path d="M12363 563 c-22 -8 -14 -23 12 -23 14 0 25 4 25 9 0 11 -21 19 -37
14z"/>
<path d="M12638 523 c-10 -3 -18 -9 -18 -14 0 -15 30 -23 43 -10 14 14 -2 29
-25 24z"/>
<path d="M12830 555 c-11 -13 -8 -15 20 -15 28 0 31 2 20 15 -7 8 -16 15 -20
15 -4 0 -13 -7 -20 -15z"/>
<path d="M3267 234 c-12 -12 -8 -41 8 -54 20 -17 47 5 43 34 -3 21 -37 34 -51
20z"/>
<path d="M5487 234 c-12 -12 -8 -41 8 -54 20 -17 47 5 43 34 -3 21 -37 34 -51
20z"/>
<path d="M6057 234 c-12 -12 -8 -41 8 -54 20 -17 47 5 43 34 -3 21 -37 34 -51
20z"/>
<path d="M8891 240 c-7 -4 -11 -20 -9 -36 2 -21 8 -29 23 -29 15 0 21 8 23 31
3 33 -14 49 -37 34z"/>
<path d="M10241 240 c-7 -4 -11 -20 -9 -36 2 -21 8 -29 23 -29 15 0 21 8 23
31 3 33 -14 49 -37 34z"/>
<path d="M3160 235 c-11 -13 -8 -15 20 -15 28 0 31 2 20 15 -7 8 -16 15 -20
15 -4 0 -13 -7 -20 -15z"/>
<path d="M4023 203 c-7 -2 -13 -11 -13 -20 0 -20 34 -12 38 10 3 17 -3 20 -25
10z"/>
<path d="M4177 203 c-10 -3 -16 -10 -14 -16 6 -19 41 -14 45 6 4 17 1 18 -31
10z"/>
<path d="M4347 234 c-12 -12 -8 -41 8 -54 20 -17 47 5 43 34 -3 21 -37 34 -51
20z"/>
<path d="M4703 243 c-22 -8 -14 -23 12 -23 14 0 25 4 25 9 0 11 -21 19 -37 14z"/>
<path d="M5057 203 c-10 -3 -16 -10 -14 -16 6 -19 41 -14 45 6 4 17 1 18 -31
10z"/>
<path d="M5377 234 c-12 -12 -8 -41 8 -54 20 -17 47 5 43 34 -3 21 -37 34 -51
20z"/>
<path d="M5610 235 c-11 -13 -8 -15 20 -15 28 0 31 2 20 15 -7 8 -16 15 -20
15 -4 0 -13 -7 -20 -15z"/>
<path d="M5907 203 c-10 -3 -16 -10 -14 -16 6 -19 41 -14 45 6 4 17 1 18 -31
10z"/>
<path d="M6183 243 c-22 -8 -14 -23 12 -23 14 0 25 4 25 9 0 11 -21 19 -37 14z"/>
<path d="M9007 203 c-10 -3 -16 -10 -14 -16 6 -19 41 -14 45 6 4 17 1 18 -31
10z"/>
<path d="M9283 243 c-22 -8 -14 -23 13 -23 15 0 24 5 22 12 -5 14 -18 18 -35
11z"/>
<path d="M9570 200 c-11 -7 -12 -12 -3 -21 13 -13 33 -4 33 17 0 16 -9 18 -30
4z"/>
<path d="M9787 234 c-12 -12 -8 -41 8 -54 20 -17 47 5 43 34 -3 21 -37 34 -51
20z"/>
<path d="M9907 203 c-10 -3 -16 -10 -14 -16 6 -19 41 -14 45 6 4 17 1 18 -31
10z"/>
<path d="M10080 200 c-11 -7 -12 -12 -3 -21 13 -13 33 -4 33 17 0 16 -9 18
-30 4z"/>
<path d="M10350 235 c-11 -13 -8 -15 20 -15 28 0 31 2 20 15 -7 8 -16 15 -20
15 -4 0 -13 -7 -20 -15z"/>
<path d="M10817 234 c-12 -12 -8 -41 8 -54 20 -17 47 5 43 34 -3 21 -37 34
-51 20z"/>
<path d="M11038 203 c-10 -3 -18 -9 -18 -14 0 -15 30 -23 43 -10 14 14 -2 29
-25 24z"/>
<path d="M11211 240 c-7 -4 -11 -20 -9 -36 2 -21 8 -29 23 -29 15 0 21 8 23
31 3 33 -14 49 -37 34z"/>
<path d="M11473 243 c-22 -8 -14 -23 12 -23 14 0 25 4 25 9 0 11 -21 19 -37
14z"/>
<path d="M11620 235 c-11 -13 -8 -15 20 -15 28 0 31 2 20 15 -7 8 -16 15 -20
15 -4 0 -13 -7 -20 -15z"/>
<path d="M11843 243 c-19 -7 -16 -62 3 -70 21 -8 44 21 37 47 -5 21 -21 29
-40 23z"/>
<path d="M11950 235 c-11 -13 -8 -15 20 -15 28 0 31 2 20 15 -7 8 -16 15 -20
15 -4 0 -13 -7 -20 -15z"/>
<path d="M12183 243 c-22 -8 -14 -23 12 -23 14 0 25 4 25 9 0 11 -21 19 -37
14z"/>
<path d="M12460 235 c-11 -13 -8 -15 20 -15 28 0 31 2 20 15 -7 8 -16 15 -20
15 -4 0 -13 -7 -20 -15z"/>
<path d="M15940 9205 l-23 -25 48 0 48 0 -23 25 c-13 14 -24 25 -25 25 -1 0
-12 -11 -25 -25z"/>
<path d="M15940 115 l24 -25 23 22 c13 12 23 23 23 25 0 2 -21 3 -47 3 l-46 0
23 -25z"/>
</g>
</svg>
