<?xml version="1.0" standalone="no"?>
<!DOCTYPE svg PUBLIC "-//W3C//DTD SVG 20010904//EN"
 "http://www.w3.org/TR/2001/REC-SVG-20010904/DTD/svg10.dtd">
<svg version="1.0" xmlns="http://www.w3.org/2000/svg"
 width="1895.000000pt" height="929.000000pt" viewBox="0 0 1895.000000 929.000000"
 preserveAspectRatio="xMidYMid meet">

<g transform="translate(0.000000,929.000000) scale(0.100000,-0.100000)"
fill="#000000" stroke="none">
<path d="M0 4645 l0 -4645 2400 0 2399 0 3 128 3 127 51 3 52 3 12 -88 c19
-130 24 -137 39 -42 20 136 16 129 72 129 l49 0 0 -130 c0 -101 3 -130 13
-130 9 0 19 39 33 128 l19 127 55 0 55 0 19 -128 c11 -70 23 -127 27 -127 5 0
10 57 11 127 l3 128 60 0 c47 0 67 -5 93 -23 l32 -23 0 25 c0 23 4 26 39 26
45 0 44 4 62 -147 7 -56 15 -101 17 -99 2 3 11 58 21 123 l16 118 160 0 160 0
3 -127 3 -128 424 0 424 0 3 128 3 127 50 0 50 0 12 -65 c29 -163 24 -154 39
-70 27 156 18 140 74 140 l50 0 0 -130 c0 -101 3 -130 13 -130 9 0 19 39 33
128 l19 127 55 0 54 0 7 -40 c4 -22 12 -79 19 -127 7 -49 16 -88 21 -88 5 0
10 57 11 128 l3 127 60 0 c47 0 67 -5 93 -23 l32 -23 0 25 c0 23 4 26 39 26
45 0 44 4 62 -148 7 -56 14 -100 16 -98 3 2 12 58 22 123 l16 118 160 0 160 0
3 -127 3 -128 429 0 429 0 3 128 3 127 50 0 50 0 12 -65 c29 -163 24 -154 39
-70 27 156 18 140 74 140 l50 0 0 -130 c0 -101 3 -130 13 -130 9 0 19 39 33
128 l19 127 55 0 54 0 7 -40 c4 -22 12 -79 19 -127 7 -49 16 -88 21 -88 5 0
10 57 11 128 l3 127 60 0 c47 0 67 -5 93 -23 l32 -23 0 25 c0 23 4 26 39 26
45 0 44 4 62 -148 7 -56 14 -100 16 -98 3 2 12 58 22 123 l16 118 160 0 160 0
3 -127 3 -128 429 0 429 0 3 128 3 127 51 3 52 3 12 -88 c19 -130 24 -137 39
-42 20 136 16 129 72 129 l49 0 0 -130 c0 -101 3 -130 13 -130 9 0 19 39 33
128 l19 127 55 0 55 0 19 -128 c11 -70 23 -127 27 -127 5 0 10 57 11 128 l3
127 60 0 c47 0 67 -5 93 -23 l32 -23 0 25 c0 23 4 26 39 26 45 0 44 4 62 -147
7 -56 15 -101 17 -99 2 3 11 58 21 123 l16 118 160 0 160 0 3 -127 3 -128 429
0 429 0 3 128 3 127 51 3 52 3 12 -88 c19 -130 24 -137 39 -42 20 136 16 129
72 129 l49 0 0 -130 c0 -101 3 -130 13 -130 9 0 19 39 33 128 l19 127 55 0 55
0 19 -127 c11 -71 23 -128 27 -128 5 0 10 57 11 128 l3 127 60 0 c47 0 67 -5
93 -23 l32 -23 0 25 c0 23 4 26 39 26 45 0 44 4 62 -147 7 -56 15 -101 17 -99
2 3 11 58 21 123 l16 118 160 0 160 0 3 -127 3 -128 183 0 c138 0 185 3 189
13 3 9 9 9 26 -1 35 -21 385 -15 426 7 48 26 95 64 95 76 0 16 45 39 63 32 9
-3 18 1 21 9 3 9 10 13 15 10 5 -3 14 1 21 9 6 8 27 19 46 25 19 6 34 16 34
21 0 5 7 9 15 9 24 0 17 -15 -12 -28 -32 -14 -86 -44 -93 -53 -6 -7 -132 -100
-156 -116 -15 -9 296 -12 1388 -12 l1407 -1 4 22 4 23 2 -23 1 -22 515 0 c445
1 515 3 515 15 0 8 4 15 8 15 12 0 75 80 68 87 -3 3 -13 0 -23 -8 -10 -8 -2
14 20 54 l37 68 0 4529 0 4530 -2257 0 c-1777 -1 -2255 -3 -2243 -13 50 -39
50 -38 50 -420 0 -397 0 -398 -64 -432 -28 -14 -453 -16 -4948 -13 l-4918 3
-32 33 -33 32 0 375 0 374 29 30 30 31 -2282 0 -2282 0 0 -4645z m6605 2962
l0 -428 -25 -19 c-17 -13 -28 -16 -35 -9 -6 6 -11 86 -13 184 -3 155 -2 174
12 169 13 -5 16 1 17 27 6 305 4 365 -13 399 -21 40 -22 51 -6 48 6 -2 14 5
16 15 2 10 -2 17 -12 17 -9 0 -16 7 -16 16 0 12 9 14 38 12 l37 -3 0 -428z
m298 426 c3 -5 8 -279 12 -609 7 -592 7 -602 -12 -608 -11 -3 -46 -22 -79 -42
-43 -26 -63 -33 -74 -26 -18 11 -21 91 -23 759 l-2 473 35 29 c29 25 44 30 87
31 28 0 54 -3 56 -7z m513 -8 c-11 -8 -23 -15 -28 -15 -22 0 1 -30 90 -116 84
-81 102 -94 132 -94 48 0 73 -16 38 -25 -30 -8 -127 19 -160 44 -40 30 -55 32
-67 5 -6 -14 -11 -32 -11 -40 0 -8 -7 -17 -15 -21 -14 -5 -14 -7 0 -23 23 -25
11 -110 -15 -110 -20 0 -45 56 -32 74 4 6 7 18 7 26 0 21 -51 101 -95 150 -14
15 -33 42 -43 59 l-18 31 26 10 c14 6 35 10 46 10 10 0 29 11 41 25 18 21 30
25 72 25 47 -1 49 -2 32 -15z m5267 -19 c-2 -23 0 -26 13 -15 19 15 37 -1 28
-24 -9 -25 -30 -21 -53 12 -26 36 -28 64 -3 59 12 -3 16 -12 15 -32z m1197
-151 l0 -184 33 -47 32 -46 6 55 c8 67 12 75 42 70 20 -4 27 2 41 32 10 20 24
38 32 41 8 2 22 7 32 11 9 3 20 5 25 5 11 -3 9 16 -3 23 -19 12 -11 63 10 70
11 4 31 31 47 65 26 57 28 59 46 43 18 -17 20 -16 38 7 10 14 19 28 19 33 0 4
50 7 110 7 l110 0 0 -655 0 -655 -30 0 c-16 0 -30 -4 -30 -10 0 -5 14 -10 30
-10 l30 0 0 -153 0 -153 -66 1 c-36 1 -69 6 -72 12 -4 6 -21 15 -37 19 -17 4
-45 20 -63 36 -47 41 -156 93 -236 112 -130 33 -142 49 -101 133 14 29 25 57
25 63 0 5 7 10 15 10 11 0 15 -13 15 -53 0 -42 4 -55 20 -65 12 -7 25 -10 30
-7 15 9 12 43 -4 52 -7 4 -15 21 -18 36 -5 23 -3 27 11 22 9 -4 49 -12 89 -18
66 -9 72 -12 72 -34 0 -12 5 -23 10 -23 6 0 10 -5 10 -11 0 -5 -4 -7 -10 -4
-6 4 -10 -8 -10 -29 l0 -36 -62 0 c-45 0 -59 -3 -48 -10 8 -6 41 -9 72 -8 45
2 58 6 62 20 2 10 9 18 15 18 6 0 7 -8 4 -17 -5 -13 1 -11 20 7 27 25 36 64
17 75 -5 3 -12 28 -16 55 -6 42 -10 50 -34 59 -31 10 -40 6 -40 -20 0 -22 -13
-31 -34 -23 -9 4 -16 18 -16 34 0 16 -7 30 -16 34 -12 5 -13 10 -6 19 7 8 8
26 2 52 -14 58 -12 108 4 130 15 22 29 295 16 316 -5 8 -17 6 -39 -6 -18 -9
-44 -15 -59 -13 -22 2 -28 9 -33 38 -4 19 -7 28 -8 20 -2 -26 -17 -41 -35 -34
-13 5 -14 9 -5 20 13 16 7 112 -7 123 -5 3 -10 11 -11 18 -5 25 -50 79 -62 75
-8 -3 -11 0 -8 5 4 6 -8 23 -26 39 -35 31 -41 34 -58 34 -5 0 -7 5 -4 10 5 9
1 11 -20 10 -3 0 -19 7 -37 16 -39 20 -160 30 -196 15 -15 -5 -43 -12 -63 -15
-49 -7 -70 -16 -96 -39 -12 -11 -27 -16 -34 -12 -8 5 -10 4 -5 -3 5 -8 0 -12
-13 -12 -12 0 -21 -7 -21 -15 0 -8 -4 -15 -10 -15 -5 0 -21 -22 -35 -50 -14
-27 -30 -50 -35 -50 -5 0 -10 18 -12 40 l-3 39 -53 -40 c-29 -23 -52 -42 -50
-44 2 -2 27 -5 56 -6 56 -3 57 -4 42 -45 -10 -25 -11 -26 -29 -10 -15 14 -20
14 -24 4 -7 -15 -87 68 -87 90 0 7 13 12 29 12 18 0 41 10 58 25 l28 25 -62
-2 c-55 -1 -65 2 -85 23 -13 13 -41 38 -63 54 -51 38 -104 96 -105 113 0 7 -4
11 -8 8 -9 -5 -82 66 -82 80 0 4 -7 12 -17 19 -20 15 -9 35 18 35 16 0 19 -6
17 -27 -3 -24 0 -28 21 -25 20 3 23 0 18 -17 -3 -11 -2 -20 2 -19 25 3 41 -5
42 -19 1 -20 14 25 30 100 7 33 7 52 0 61 -6 7 -8 16 -4 19 11 12 23 8 23 -8
0 -8 13 -24 29 -36 17 -12 52 -49 80 -83 27 -34 89 -101 136 -150 63 -65 85
-94 81 -108 -3 -12 14 -1 42 29 69 71 170 120 284 138 l37 6 3 107 3 107 44 3
43 3 -6 -95 c-4 -53 -9 -103 -13 -112 -7 -18 12 -34 43 -34 18 0 21 6 22 43 0
23 1 47 2 52 2 6 4 30 5 55 1 25 2 60 3 78 l2 32 70 0 70 0 0 -185z m-6725 66
c9 -44 -4 -103 -23 -99 -30 6 -38 36 -19 69 9 17 17 37 17 45 0 26 18 15 25
-15z m47 -13 c23 -35 77 -181 84 -226 5 -31 2 -45 -10 -57 -9 -9 -14 -21 -11
-25 11 -17 -53 11 -72 32 -15 17 -19 41 -21 159 -4 141 1 161 30 117z m5474
-46 c-9 -8 -26 10 -26 26 1 15 2 15 15 -2 8 -11 13 -21 11 -24z m-4951 -27
c-8 -21 -18 -36 -21 -33 -2 3 3 22 12 42 23 47 30 39 9 -9z m4995 -26 c0 -10
-7 -11 -37 -3 -34 9 -28 21 7 16 17 -2 30 -8 30 -13z m79 -63 c18 -26 31 -49
29 -51 -6 -7 -58 18 -58 28 0 4 -11 12 -24 17 -22 8 -23 11 -13 34 15 33 25
29 66 -28z m-124 24 c3 -5 -1 -10 -9 -10 -9 0 -16 5 -16 10 0 6 4 10 9 10 6 0
13 -4 16 -10z m-4527 -113 c-2 -23 -7 -41 -13 -40 -18 3 -27 56 -15 88 10 26
13 28 21 12 6 -9 9 -36 7 -60z m-421 24 c13 -28 -6 -84 -31 -89 -13 -3 -16 6
-16 41 0 77 21 98 47 48z m5048 -11 c-3 -5 -11 -10 -16 -10 -6 0 -7 5 -4 10 3
6 11 10 16 10 6 0 7 -4 4 -10z m90 -1 c4 -6 5 -12 3 -14 -7 -7 -48 7 -48 16 0
13 37 11 45 -2z m35 -51 c0 -6 -7 -8 -15 -4 -9 3 -19 -3 -25 -14 -6 -11 -15
-20 -21 -20 -5 0 -3 13 6 29 11 22 20 28 35 24 11 -3 20 -10 20 -15z m30 -39
c0 -4 -7 -6 -15 -3 -8 4 -15 10 -15 15 0 4 7 6 15 3 8 -4 15 -10 15 -15z
m-5438 -25 c33 -7 39 -14 32 -41 -5 -18 -16 -22 -72 -28 -90 -9 -144 9 -149
48 -3 21 1 29 18 35 20 8 102 1 171 -14z m2003 -14 c3 -5 14 -10 24 -10 33 0
146 -41 185 -68 57 -39 107 -109 100 -138 -8 -31 4 -96 17 -89 14 9 29 -40 29
-96 0 -58 -19 -73 -53 -41 -38 36 -87 51 -147 45 l-55 -5 37 21 c21 12 43 20
50 19 14 -3 40 130 35 182 -2 28 -4 23 -11 -25 -10 -77 -13 -88 -27 -80 -9 6
-5 92 7 137 3 10 -4 25 -17 35 -12 10 -39 33 -59 51 -45 39 -110 46 -110 13 0
-11 -4 -23 -10 -26 -5 -3 -10 1 -10 9 0 9 -5 16 -11 16 -7 0 -17 7 -24 16 -11
15 -14 15 -36 1 -15 -10 -29 -13 -38 -8 -8 5 -20 7 -28 4 -7 -3 -13 0 -13 6 0
6 6 11 14 11 7 0 30 13 51 30 35 28 39 29 65 15 16 -8 32 -19 35 -25z m-1617
-2 c-3 -31 -5 -33 -47 -36 -41 -3 -81 16 -81 39 0 11 56 27 98 28 32 1 33 -1
30 -31z m822 22 c0 -5 -4 -10 -10 -10 -5 0 -10 5 -10 10 0 6 5 10 10 10 6 0
10 -4 10 -10z m1136 -26 c13 -14 31 -38 39 -54 18 -35 41 -168 55 -320 6 -63
13 -141 16 -174 4 -41 3 -56 -5 -52 -6 4 -12 31 -12 59 -1 43 -3 38 -10 -30
-4 -47 -22 -123 -41 -180 -33 -97 -33 -98 -68 -101 -37 -4 -33 13 5 20 14 2
27 27 53 103 33 97 34 105 33 254 0 157 -4 213 -23 335 -9 60 -16 75 -49 110
-22 22 -39 44 -39 48 0 16 23 7 46 -18z m3130 11 c4 -8 15 -15 25 -15 10 0 19
-7 19 -14 0 -8 11 -27 25 -42 31 -34 33 -52 3 -31 -13 8 -22 20 -20 26 3 14
-14 14 -39 1 -13 -8 -19 -7 -19 0 0 6 7 13 15 16 19 8 20 24 1 24 -8 0 -17 8
-20 17 -5 12 -9 14 -18 5 -25 -25 -40 -11 -29 26 3 10 53 -1 57 -13z m-247
-49 c19 -14 40 -26 47 -26 7 0 26 -16 43 -35 17 -19 32 -35 35 -35 2 0 19 -14
37 -32 19 -17 28 -28 22 -24 -17 9 -17 -16 -1 -32 44 -44 -101 28 -160 79 -18
16 -37 29 -43 29 -5 0 -19 9 -31 20 -27 25 -9 26 23 1 13 -10 35 -22 49 -26
21 -7 23 -6 12 7 -6 8 -32 28 -57 44 -32 20 -45 35 -45 51 0 27 9 24 69 -21z
m-5458 24 c17 -10 28 -60 13 -60 -11 0 -30 25 -36 48 -7 25 -5 26 23 12z m471
-2 c45 -13 48 -37 5 -52 -31 -11 -42 -4 -52 37 -8 31 -7 31 47 15z m348 -23
c0 -8 9 -24 20 -35 11 -11 20 -27 20 -36 0 -14 -6 -15 -32 -8 -18 4 -63 8
-100 9 l-68 0 0 37 0 37 53 4 c28 2 64 4 80 5 18 1 27 -3 27 -13z m1010 8 c-1
-23 -13 -52 -21 -47 -5 3 -9 -4 -9 -15 0 -24 -12 -27 -28 -8 -8 9 -4 21 14 45
24 30 44 41 44 25z m179 -49 c-68 -71 -161 -100 -96 -30 25 27 117 79 125 71
3 -3 -10 -21 -29 -41z m230 -111 c-2 -154 -16 -178 -18 -30 -1 79 3 127 9 127
6 0 10 -38 9 -97z m3641 52 c0 -8 -2 -15 -4 -15 -2 0 -6 7 -10 15 -3 8 -1 15
4 15 6 0 10 -7 10 -15z m-4073 -22 c-9 -9 -19 -14 -23 -11 -10 10 6 28 24 28
15 0 15 -1 -1 -17z m-1050 -39 c3 -8 16 -20 29 -25 23 -8 32 -33 17 -42 -9 -6
-193 -18 -193 -14 0 2 7 24 16 50 l16 47 54 0 c41 0 56 -4 61 -16z m5110 -31
c-3 -10 -5 -2 -5 17 0 19 2 27 5 18 2 -10 2 -26 0 -35z m839 -37 c-3 -88 -17
-125 -55 -145 -17 -9 -19 -4 -24 77 -7 86 -7 87 21 109 15 13 33 23 40 23 7 0
10 5 7 10 -3 6 -2 10 3 10 6 0 9 -36 8 -84z m-5808 17 c-2 -22 -9 -29 -29 -31
-14 -2 -31 4 -39 12 -18 22 4 46 42 46 26 0 29 -3 26 -27z m1665 2 c4 -8 2
-17 -3 -20 -6 -4 -10 3 -10 14 0 25 6 27 13 6z m3585 0 c53 -16 162 -104 162
-130 0 -8 -14 -23 -30 -35 -99 -71 -229 4 -230 131 0 55 11 59 98 34z m-4338
-32 c0 -14 -19 -38 -25 -32 -8 8 5 39 16 39 5 0 9 -3 9 -7z m3694 -70 c3 -4 6
6 6 20 0 27 10 34 24 20 4 -5 13 -8 19 -8 8 0 13 -30 14 -93 1 -103 13 -140
14 -46 0 54 6 104 12 110 1 2 13 -6 27 -16 20 -15 23 -21 13 -31 -11 -11 -13
-9 -14 7 0 17 -1 16 -9 -4 -12 -28 -6 -85 9 -90 16 -5 13 -49 -4 -56 -8 -3
-15 -16 -15 -30 0 -28 -20 -47 -20 -19 -1 12 -5 8 -15 -12 -7 -16 -14 -24 -14
-17 -2 20 -18 14 -26 -10 -7 -20 -9 -18 -12 15 -2 20 -8 37 -12 37 -14 0 -21
-86 -14 -165 4 -53 3 -75 -6 -75 -8 0 -11 71 -11 258 0 243 6 315 21 242 4
-17 9 -34 13 -37z m-67 15 c-3 -7 -5 -2 -5 12 0 14 2 19 5 13 2 -7 2 -19 0
-25z m-7782 -20 c3 -13 10 -54 15 -93 6 -38 13 -71 14 -73 2 -2 10 39 18 90
l13 93 53 3 52 3 2 -188 3 -188 13 80 c7 44 20 128 28 188 l17 107 52 0 c33 0
55 -5 58 -12 2 -7 15 -85 28 -173 l24 -160 3 173 2 172 59 0 c45 0 66 -5 95
-25 l36 -24 0 24 c0 23 4 25 44 25 l44 0 13 -106 c6 -58 15 -100 19 -92 6 11
30 162 30 190 0 4 52 8 115 8 l115 0 0 -45 c0 -45 0 -45 -35 -45 -35 0 -35 0
-35 -45 0 -45 0 -45 35 -45 35 0 35 0 35 -45 0 -45 0 -45 -35 -45 -35 0 -35 0
-35 -45 0 -45 0 -45 35 -45 35 0 35 0 35 -45 l0 -45 -75 0 -75 0 -1 173 -1
172 -24 -140 c-38 -231 -27 -205 -84 -205 -43 0 -50 3 -55 23 -7 31 -35 200
-35 211 0 5 -11 -7 -24 -27 l-25 -36 24 -78 c14 -43 25 -82 25 -86 0 -5 -19
-7 -42 -5 l-42 3 -16 64 c-22 91 -40 92 -40 2 l0 -71 -74 0 c-77 0 -86 5 -86
51 0 14 -7 19 -29 19 -29 0 -41 -14 -41 -51 0 -17 -8 -19 -80 -19 l-80 0 -1
78 c-1 82 -1 83 -24 -45 -5 -27 -11 -33 -30 -33 -26 0 -27 2 -44 95 l-9 50 -1
-72 -1 -73 -45 0 -45 0 0 225 0 225 55 0 c48 0 55 -3 60 -22z m1065 -157 l0
-180 33 -3 c30 -3 32 -6 35 -45 l3 -43 -75 0 -76 0 -1 108 c0 59 -1 160 -2
225 l-2 117 43 0 42 0 0 -179z m5045 157 c3 -13 10 -54 15 -93 6 -38 13 -71
14 -73 2 -2 10 39 18 90 l13 93 53 3 52 3 2 -188 3 -188 13 80 c7 44 20 128
28 188 l17 107 52 0 c33 0 55 -5 58 -12 2 -7 15 -85 28 -173 l24 -160 3 173 2
172 59 0 c45 0 66 -5 95 -25 l36 -24 0 24 c0 23 4 25 44 25 l44 0 13 -106 c6
-58 15 -100 19 -92 6 11 30 162 30 190 0 4 52 8 115 8 l115 0 0 -45 c0 -45 0
-45 -35 -45 -35 0 -35 0 -35 -45 0 -45 0 -45 35 -45 35 0 35 0 35 -45 0 -45 0
-45 -35 -45 -35 0 -35 0 -35 -45 0 -45 0 -45 35 -45 35 0 35 0 35 -45 l0 -45
-75 0 -75 0 -1 173 -1 172 -24 -140 c-38 -231 -27 -205 -84 -205 -43 0 -50 3
-55 23 -7 31 -35 200 -35 211 0 5 -11 -7 -24 -27 l-25 -36 24 -78 c14 -43 25
-82 25 -86 0 -5 -19 -7 -42 -5 l-42 3 -16 64 c-22 91 -40 92 -40 2 l0 -71 -74
0 c-77 0 -86 5 -86 51 0 14 -7 19 -29 19 -29 0 -41 -14 -41 -51 0 -17 -8 -19
-80 -19 l-80 0 -1 78 c-1 82 -1 83 -24 -45 -5 -27 -11 -33 -30 -33 -26 0 -27
2 -44 95 l-9 50 -1 -72 -1 -73 -45 0 -45 0 0 225 0 225 55 0 c48 0 55 -3 60
-22z m1065 -157 l0 -180 33 -3 c30 -3 32 -6 35 -45 l3 -43 -75 0 -76 0 -1 108
c0 59 -1 160 -2 225 l-2 117 43 0 42 0 0 -179z m-2392 70 c12 -11 22 -26 22
-35 0 -8 5 -18 10 -21 6 -3 10 1 10 9 0 8 4 17 10 21 10 6 49 -63 44 -80 -1
-5 -5 -22 -8 -37 -4 -16 -13 -28 -20 -28 -19 0 -24 -26 -14 -74 7 -29 5 -48
-7 -73 -20 -41 -35 -43 -35 -3 0 17 -7 42 -16 55 -9 13 -14 37 -13 52 3 36
-10 93 -21 93 -5 0 -14 9 -20 21 -10 17 -8 21 9 26 26 7 27 19 4 32 -17 10
-17 10 -1 11 9 0 20 -4 23 -10 9 -14 37 -12 33 2 -3 7 -15 15 -29 18 -13 3
-25 14 -27 23 -4 22 17 21 46 -2z m-111 -6 c0 -9 -11 -18 -24 -21 -24 -6 -53
-39 -53 -60 0 -7 16 -21 35 -33 31 -18 34 -24 25 -41 -14 -27 -3 -69 29 -103
l25 -28 -22 -6 c-26 -6 -27 -10 -6 -31 11 -10 13 -17 5 -20 -6 -2 -11 -11 -11
-20 0 -8 -7 -23 -16 -33 -14 -16 -14 -18 5 -24 12 -3 21 -10 21 -15 0 -15 -43
-40 -68 -40 -24 0 -44 31 -24 38 25 8 11 24 -18 20 -18 -3 -35 1 -41 9 -6 7
-18 13 -25 13 -8 0 -14 4 -14 10 0 5 7 7 15 4 8 -4 15 -1 15 5 0 6 6 8 14 5 8
-3 17 -1 21 5 3 6 17 11 31 11 15 0 23 4 19 11 -4 6 2 13 14 16 17 4 20 10 14
32 -8 35 -8 35 -48 34 -38 -1 -39 0 -49 119 -3 41 -1 58 9 61 7 3 11 16 9 29
-6 30 6 47 36 53 12 2 25 7 28 10 12 12 49 4 49 -10z m-2974 -25 c3 -13 0 -20
-9 -20 -8 0 -14 9 -14 20 0 11 4 20 9 20 5 0 11 -9 14 -20z m1542 -20 c0 -24
-3 -25 -52 -25 -56 1 -79 14 -70 38 4 11 21 15 64 13 55 -1 58 -2 58 -26z
m875 -4 c0 -3 -4 -8 -10 -11 -5 -3 -10 -1 -10 4 0 6 5 11 10 11 6 0 10 -2 10
-4z m-2465 -16 c3 -6 -1 -7 -9 -4 -18 7 -21 14 -7 14 6 0 13 -4 16 -10z m2429
-156 c3 -9 6 -29 6 -46 l0 -31 -20 26 c-11 14 -20 30 -20 36 0 17 -9 13 -42
-14 -16 -14 -35 -25 -41 -25 -7 1 6 16 28 35 43 37 79 45 89 19z m3809 -44 c3
8 8 22 10 30 3 8 6 -8 6 -37 1 -40 -2 -51 -13 -47 -15 6 -26 -24 -26 -75 0
-19 -2 -32 -4 -30 -11 11 -17 98 -10 158 l7 66 12 -40 c8 -25 14 -34 18 -25z
m57 6 c0 -19 -4 -38 -10 -41 -6 -4 -10 10 -10 34 0 23 5 41 10 41 6 0 10 -15
10 -34z m17 2 c-3 -8 -6 -5 -6 6 -1 11 2 17 5 13 3 -3 4 -12 1 -19z m73 12 c0
-5 -4 -10 -10 -10 -5 0 -10 5 -10 10 0 6 5 10 10 10 6 0 10 -4 10 -10z m-4997
-39 c26 -31 64 -169 50 -182 -5 -3 -20 -9 -34 -12 -25 -6 -26 -5 -47 93 -28
130 -19 160 31 101z m6097 9 c0 -11 -4 -20 -10 -20 -5 0 -10 9 -10 20 0 11 5
20 10 20 6 0 10 -9 10 -20z m-4277 -55 c-3 -9 -8 -14 -10 -11 -3 3 -2 9 2 15
9 16 15 13 8 -4z m2964 -77 c-3 -7 -5 -2 -5 12 0 14 2 19 5 13 2 -7 2 -19 0
-25z m-5597 -30 c0 -16 -3 -19 -11 -11 -6 6 -8 16 -5 22 11 17 16 13 16 -11z
m-306 -5 c51 -24 54 -43 8 -44 -23 -1 -29 -3 -14 -6 12 -2 22 -8 22 -13 0 -7
-99 -60 -113 -60 -4 0 -15 -7 -24 -16 -10 -9 -40 -31 -66 -49 l-49 -34 29 -15
c24 -13 25 -15 8 -16 -12 0 -28 -12 -37 -27 -9 -16 -28 -39 -42 -52 l-26 -24
0 25 c0 14 14 44 31 68 29 40 25 45 -13 12 -17 -14 -18 -10 -18 81 l0 96 38
10 c20 6 48 11 61 11 14 0 32 7 42 16 28 26 82 53 106 53 12 1 38 -6 57 -16z
m1406 2 c17 -9 30 -22 30 -30 0 -8 7 -15 15 -15 10 0 15 -10 15 -29 0 -27 -3
-29 -41 -33 -32 -3 -51 2 -80 21 -24 16 -37 31 -34 39 3 8 -3 16 -15 19 -31 8
-24 20 18 31 53 14 59 14 92 -3z m1526 -22 c-8 -15 -15 -25 -16 -21 0 12 23
58 27 54 3 -2 -2 -17 -11 -33z m6324 13 c0 -3 -4 -8 -10 -11 -5 -3 -10 -1 -10
4 0 6 5 11 10 11 6 0 10 -2 10 -4z m-8968 -41 c-2 -14 -8 -23 -12 -20 -10 6
-1 45 10 45 4 0 5 -11 2 -25z m63 -15 c3 -5 2 -10 -4 -10 -5 0 -13 5 -16 10
-3 6 -2 10 4 10 5 0 13 -4 16 -10z m2684 -53 c-2 -36 -3 -37 -7 -12 l-5 30 -7
-25 c-7 -22 -8 -21 -9 11 -1 20 2 39 5 42 14 14 24 -6 23 -46z m-162 -60 c-17
-48 -35 -87 -39 -87 -8 0 8 49 42 128 34 80 33 57 -3 -41z m-1574 71 c12 -6
36 -11 52 -11 21 0 24 -1 7 -4 -12 -2 -20 -8 -17 -13 3 -5 3 -20 -1 -34 l-6
-24 -64 31 c-35 18 -64 35 -64 38 0 3 15 11 33 17 17 5 33 10 35 11 2 1 13 -4
25 -11z m-968 -74 c19 -3 36 -13 38 -23 3 -9 5 -1 6 17 1 43 15 40 43 -10 31
-56 45 -58 58 -9 6 23 14 41 18 41 18 -1 28 -18 28 -50 -1 -31 2 -35 27 -38
23 -3 27 -8 28 -35 l0 -32 16 23 c17 25 53 30 53 7 0 -8 -16 -32 -35 -54 -19
-21 -35 -44 -35 -50 0 -33 -172 -36 -197 -3 -12 14 -13 14 -13 -2 0 -21 -43
-66 -64 -66 -8 0 -17 13 -21 30 -8 36 -11 38 -66 45 -47 6 -112 50 -117 79 -7
34 8 64 34 70 30 8 64 -1 64 -16 0 -20 32 -48 55 -48 17 0 22 5 21 23 -1 12 1
27 6 33 4 5 1 23 -7 38 -20 37 -19 76 0 76 8 0 16 6 17 13 0 6 3 -2 5 -20 4
-28 9 -33 38 -39z m1155 28 c0 -16 -7 -37 -16 -48 -15 -18 -15 -17 -10 15 3
18 6 40 6 47 0 8 5 14 10 14 6 0 10 -13 10 -28z m4660 13 c-55 -33 -90 -43
-122 -38 -18 3 -64 6 -103 6 l-70 0 40 14 c22 8 85 18 140 22 154 12 144 13
115 -4z m-3054 -40 c9 -39 0 -30 -15 15 -6 19 -7 30 -2 25 5 -6 13 -23 17 -40z
m-56 7 c0 -5 -7 -17 -15 -28 -14 -18 -14 -17 -4 9 12 27 19 34 19 19z m5727
-23 c6 -6 9 -18 6 -25 -3 -8 0 -14 6 -14 6 0 8 -7 4 -16 -5 -14 -2 -14 32 0
36 16 39 15 83 -9 24 -14 55 -25 69 -25 44 0 121 -108 153 -217 7 -24 29 -56
50 -77 25 -23 41 -51 50 -83 7 -26 28 -76 46 -110 50 -90 45 -173 -12 -225
-37 -33 -133 -61 -205 -59 -67 2 -69 1 -109 -39 -23 -23 -44 -40 -46 -37 -2 2
2 21 9 43 12 34 19 40 53 47 21 5 70 10 108 11 57 1 71 5 80 21 6 11 25 34 42
51 39 37 37 75 -4 91 l-27 11 30 2 c26 1 27 3 10 10 -43 19 -256 3 -263 -20
-2 -5 -10 -10 -17 -10 -8 0 -31 -21 -52 -46 -21 -25 -63 -64 -93 -86 -72 -54
-83 -67 -134 -170 -40 -78 -43 -89 -31 -111 7 -15 10 -37 6 -55 -8 -36 -98
-142 -122 -142 -9 0 -19 -7 -23 -15 -3 -8 -12 -12 -20 -9 -7 3 -20 -3 -27 -13
-8 -11 -21 -22 -29 -26 -8 -4 -26 -15 -40 -24 l-25 -17 20 22 19 23 -29 -11
c-16 -6 -50 -23 -76 -38 -47 -26 -48 -26 -101 -10 -104 32 -177 42 -214 29
-39 -14 -79 0 -98 34 -25 46 -60 46 -116 0 -23 -19 -46 -35 -51 -35 -5 0 -9
138 -9 325 l0 325 -111 0 c-75 0 -108 3 -104 11 4 6 14 8 22 5 11 -5 13 -2 9
10 -6 17 11 47 23 40 3 -2 29 16 56 40 28 24 77 58 110 76 59 31 158 106 182
137 11 14 18 51 11 51 -43 -1 -131 -26 -160 -45 -34 -23 -38 -24 -38 -7 0 24
25 46 145 126 55 36 128 86 162 110 76 55 154 84 255 97 46 6 93 18 114 31 25
15 54 21 95 22 32 1 59 -1 59 -2 0 -2 -17 -19 -37 -38 -21 -18 -35 -34 -31
-34 4 0 37 16 73 36 100 55 237 88 262 63z m178 -9 c11 -18 -26 -23 -43 -6
-15 15 -14 16 10 16 15 0 30 -5 33 -10z m-7400 -21 c-3 -8 -18 -23 -32 -33
l-27 -20 29 37 c29 36 41 42 30 16z m792 -10 c-6 -10 -13 -15 -15 -9 -6 17 7
42 18 35 6 -4 5 -13 -3 -26z m790 -11 c-3 -8 -6 -5 -6 6 -1 11 2 17 5 13 3 -3
4 -12 1 -19z m-839 -14 c-2 -10 -47 -40 -104 -69 -56 -29 -127 -66 -158 -84
-35 -20 -63 -30 -75 -26 -21 6 -81 -46 -81 -72 0 -8 -6 -13 -12 -10 -7 2 -21
-2 -30 -11 -16 -14 -18 -13 -18 7 0 13 9 25 23 30 13 5 43 27 67 50 26 25 64
47 94 56 28 9 103 45 166 79 63 35 119 64 123 65 5 1 7 -6 5 -15z m-2428 -43
c-1 -13 -4 -12 -15 3 -8 11 -15 27 -15 35 1 13 4 12 15 -3 8 -11 15 -27 15
-35z m3043 17 c-13 -12 -26 -18 -30 -14 -4 4 1 14 11 22 31 22 43 17 19 -8z
m5027 -77 c0 -13 -29 -35 -37 -28 -7 8 15 37 28 37 5 0 9 -4 9 -9z m-8005 -21
c3 -5 1 -10 -4 -10 -6 0 -11 5 -11 10 0 6 2 10 4 10 3 0 8 -4 11 -10z m7943
-14 c-10 -7 -18 -17 -18 -22 0 -10 -51 -36 -58 -30 -7 8 61 66 77 66 14 -1 14
-2 -1 -14z m-7301 -48 c-3 -8 -6 -5 -6 6 -1 11 2 17 5 13 3 -3 4 -12 1 -19z
m-839 -25 c2 -11 -4 -26 -13 -33 -13 -11 -15 -8 -15 25 0 39 22 46 28 8z m809
-60 c-3 -10 -5 -4 -5 12 0 17 2 24 5 18 2 -7 2 -21 0 -30z m-727 -68 c37 -38
36 -41 -7 -23 -33 14 -63 38 -63 50 0 20 39 5 70 -27z m2338 -6 c30 -29 40
-49 26 -49 -10 0 -34 28 -34 39 0 6 -7 11 -16 11 -8 0 -13 4 -10 9 4 5 0 12
-6 14 -7 3 -8 6 -2 6 5 1 25 -13 42 -30z m5712 23 c0 -5 -9 -17 -20 -27 -23
-21 -26 -14 -8 15 13 20 28 27 28 12z m-5640 -72 c0 -5 -4 -10 -10 -10 -5 0
-10 5 -10 10 0 6 5 10 10 10 6 0 10 -4 10 -10z m1106 -17 c-10 -10 -19 5 -10
18 6 11 8 11 12 0 2 -7 1 -15 -2 -18z m-106 8 c0 -14 -18 -23 -30 -16 -6 4 -8
11 -5 16 8 12 35 12 35 0z m50 -6 c0 -8 -7 -15 -15 -15 -16 0 -20 12 -8 23 11
12 23 8 23 -8z m6140 -25 c0 -5 -4 -10 -10 -10 -5 0 -10 5 -10 10 0 6 5 10 10
10 6 0 10 -4 10 -10z m-9096 -16 c31 -12 15 -24 -31 -23 l-48 1 30 13 c17 8
31 14 32 15 1 0 8 -3 17 -6z m79 -1 c-7 -2 -19 -2 -25 0 -7 3 -2 5 12 5 14 0
19 -2 13 -5z m120 -10 c-7 -2 -19 -2 -25 0 -7 3 -2 5 12 5 14 0 19 -2 13 -5z
m75 -10 c-10 -2 -26 -2 -35 0 -10 3 -2 5 17 5 19 0 27 -2 18 -5z m6974 -23
c-19 -18 -42 -27 -42 -16 0 20 17 36 38 36 l26 0 -22 -20z m1908 -70 c0 -5 -4
-10 -10 -10 -5 0 -10 5 -10 10 0 6 5 10 10 10 6 0 10 -4 10 -10z m190 -48 c0
-9 9 -28 20 -42 23 -30 26 -48 4 -30 -26 22 -57 109 -34 95 6 -3 10 -14 10
-23z m-685 -2 c-10 -16 -65 -42 -65 -31 0 13 40 41 58 41 7 0 10 -5 7 -10z
m-11230 -483 l0 -428 -25 -19 c-17 -13 -28 -16 -35 -9 -6 6 -11 86 -13 184 -3
155 -2 174 12 169 13 -5 16 1 17 27 6 305 4 365 -13 399 -21 40 -22 51 -6 48
6 -2 14 5 16 15 2 10 -2 17 -12 17 -9 0 -16 7 -16 16 0 12 9 14 38 12 l37 -3
0 -428z m298 426 c3 -5 8 -279 12 -609 7 -592 7 -602 -12 -608 -11 -3 -46 -22
-79 -42 -43 -26 -63 -33 -74 -26 -18 11 -21 91 -23 759 l-2 473 35 29 c29 25
44 30 87 31 28 0 54 -3 56 -7z m513 -8 c-11 -8 -23 -15 -28 -15 -22 0 1 -30
90 -116 84 -81 102 -94 132 -94 48 0 73 -16 38 -25 -30 -8 -127 19 -160 44
-40 30 -55 32 -67 5 -6 -14 -11 -32 -11 -40 0 -8 -7 -17 -15 -21 -14 -5 -14
-7 0 -23 23 -25 11 -110 -15 -110 -20 0 -45 56 -32 74 4 6 7 18 7 26 0 21 -51
101 -95 150 -14 15 -33 42 -43 59 l-18 31 26 10 c14 6 35 10 46 10 10 0 29 11
41 25 18 21 30 25 72 25 47 -1 49 -2 32 -15z m5257 -19 c-2 -23 0 -26 13 -15
19 15 37 -1 28 -24 -9 -25 -30 -21 -53 12 -26 36 -28 64 -3 59 12 -3 16 -12
15 -32z m1197 -151 l0 -184 33 -47 32 -46 6 55 c8 67 12 75 42 70 20 -4 27 2
41 32 10 20 24 38 32 41 8 2 22 7 32 11 9 3 20 5 25 5 11 -3 9 16 -3 23 -19
12 -11 63 10 70 11 4 31 31 47 65 26 57 28 59 46 43 18 -17 20 -16 38 7 10 14
19 28 19 33 0 4 50 7 110 7 l110 0 0 -655 0 -655 -30 0 c-16 0 -30 -4 -30 -10
0 -5 14 -10 30 -10 l30 0 0 -153 0 -153 -66 1 c-36 1 -69 6 -72 12 -4 6 -21
15 -37 19 -17 4 -45 20 -63 36 -47 41 -156 93 -236 112 -130 33 -142 49 -101
133 14 29 25 57 25 63 0 5 7 10 15 10 11 0 15 -13 15 -53 0 -42 4 -55 20 -65
12 -7 25 -10 30 -7 15 9 12 43 -4 52 -7 4 -15 21 -18 36 -5 23 -3 27 11 22 9
-4 49 -12 89 -18 66 -9 72 -12 72 -34 0 -12 5 -23 10 -23 6 0 10 -5 10 -11 0
-5 -4 -7 -10 -4 -6 4 -10 -8 -10 -29 l0 -36 -62 0 c-45 0 -59 -3 -48 -10 8 -6
41 -9 72 -8 45 2 58 6 62 20 2 10 9 18 15 18 6 0 7 -8 4 -17 -5 -13 1 -11 20
7 27 25 36 64 17 75 -5 3 -12 28 -16 55 -6 42 -10 50 -34 59 -31 10 -40 6 -40
-20 0 -22 -13 -31 -34 -23 -9 4 -16 18 -16 34 0 16 -7 30 -16 34 -12 5 -13 10
-6 19 7 8 8 26 2 52 -14 58 -12 108 4 130 15 22 29 295 16 316 -5 8 -17 6 -39
-6 -18 -9 -44 -15 -59 -13 -22 2 -28 9 -33 38 -4 19 -7 28 -8 20 -2 -26 -17
-41 -35 -34 -13 5 -14 9 -5 20 13 16 7 112 -7 123 -5 3 -10 11 -11 18 -5 25
-50 79 -62 75 -8 -3 -11 0 -8 5 4 6 -8 23 -26 39 -35 31 -41 34 -58 34 -5 0
-7 5 -4 10 5 9 1 11 -20 10 -3 0 -19 7 -37 16 -39 20 -160 30 -196 15 -15 -5
-43 -12 -63 -15 -49 -7 -70 -16 -96 -39 -12 -11 -27 -16 -34 -12 -8 5 -10 4
-5 -3 5 -8 0 -12 -13 -12 -12 0 -21 -7 -21 -15 0 -8 -4 -15 -10 -15 -5 0 -21
-22 -35 -50 -14 -27 -30 -50 -35 -50 -5 0 -10 18 -12 40 l-3 39 -53 -40 c-29
-23 -52 -42 -50 -44 2 -2 27 -5 56 -6 56 -3 57 -4 42 -45 -10 -25 -11 -26 -29
-10 -15 14 -20 14 -24 4 -7 -15 -87 68 -87 90 0 7 13 12 29 12 18 0 41 10 58
25 l28 25 -62 -2 c-55 -1 -65 2 -85 23 -13 13 -41 38 -63 54 -51 38 -104 96
-105 113 0 7 -4 11 -8 8 -9 -5 -82 66 -82 80 0 4 -7 12 -17 19 -20 15 -9 35
18 35 16 0 19 -6 17 -27 -3 -24 0 -28 21 -25 20 3 23 0 18 -17 -3 -11 -2 -20
2 -19 25 3 41 -5 42 -19 1 -20 14 25 30 100 7 33 7 52 0 61 -6 7 -8 16 -4 19
11 12 23 8 23 -8 0 -8 13 -24 29 -36 17 -12 52 -49 80 -83 27 -34 89 -101 136
-150 63 -65 85 -94 81 -108 -3 -12 14 -1 42 29 69 71 170 120 284 138 l37 6 3
107 3 107 44 3 43 3 -6 -95 c-4 -53 -9 -103 -13 -112 -7 -18 12 -34 43 -34 18
0 21 6 22 43 0 23 1 47 2 52 2 6 4 30 5 55 1 25 2 60 3 78 l2 32 70 0 70 0 0
-185z m-6715 66 c9 -44 -4 -103 -23 -99 -30 6 -38 36 -19 69 9 17 17 37 17 45
0 26 18 15 25 -15z m47 -13 c23 -35 77 -181 84 -226 5 -31 2 -45 -10 -57 -9
-9 -14 -21 -11 -25 11 -17 -53 11 -72 32 -15 17 -19 41 -21 159 -4 141 1 161
30 117z m10466 5 c-3 -18 -65 -59 -74 -50 -7 6 56 66 69 67 5 0 7 -8 5 -17z
m-5002 -51 c-9 -8 -26 10 -26 26 1 15 2 15 15 -2 8 -11 13 -21 11 -24z m-4941
-27 c-8 -21 -18 -36 -21 -33 -2 3 3 22 12 42 23 47 30 39 9 -9z m10109 20 c-9
-14 -19 -24 -21 -21 -7 7 16 46 28 46 5 0 2 -11 -7 -25z m-254 -15 c0 -5 -10
-15 -22 -21 -23 -12 -23 -12 -4 10 21 23 26 26 26 11z m-4870 -31 c0 -10 -7
-11 -37 -3 -34 9 -28 21 7 16 17 -2 30 -8 30 -13z m79 -63 c18 -26 31 -49 29
-51 -6 -7 -58 18 -58 28 0 4 -11 12 -24 17 -22 8 -23 11 -13 34 15 33 25 29
66 -28z m-124 24 c3 -5 -1 -10 -9 -10 -9 0 -16 5 -16 10 0 6 4 10 9 10 6 0 13
-4 16 -10z m4845 -54 c-6 -6 -10 -19 -10 -30 -1 -18 -2 -19 -10 -5 -11 20 10
75 22 56 4 -7 3 -16 -2 -21z m410 14 c0 -5 -4 -10 -10 -10 -5 0 -10 5 -10 10
0 6 5 10 10 10 6 0 10 -4 10 -10z m-9772 -73 c-2 -23 -7 -41 -13 -40 -18 3
-27 56 -15 88 10 26 13 28 21 12 6 -9 9 -36 7 -60z m-421 24 c13 -28 -6 -84
-31 -89 -13 -3 -16 6 -16 41 0 77 21 98 47 48z m10826 -19 c-3 -12 -9 -19 -14
-16 -5 3 -4 14 2 25 13 26 20 21 12 -9z m-5788 8 c-3 -5 -11 -10 -16 -10 -6 0
-7 5 -4 10 3 6 11 10 16 10 6 0 7 -4 4 -10z m90 -1 c4 -6 5 -12 3 -14 -7 -7
-48 7 -48 16 0 13 37 11 45 -2z m5565 -27 c0 -14 -39 -46 -47 -39 -3 4 2 16
12 27 19 21 35 26 35 12z m-5530 -24 c0 -6 -7 -8 -15 -4 -9 3 -19 -3 -25 -14
-6 -11 -15 -20 -21 -20 -5 0 -3 13 6 29 11 22 20 28 35 24 11 -3 20 -10 20
-15z m30 -39 c0 -4 -7 -6 -15 -3 -8 4 -15 10 -15 15 0 4 7 6 15 3 8 -4 15 -10
15 -15z m-5428 -25 c33 -7 39 -14 32 -41 -5 -18 -16 -22 -72 -28 -90 -9 -144
9 -149 48 -3 21 1 29 18 35 20 8 102 1 171 -14z m386 -16 c-3 -31 -5 -33 -47
-36 -41 -3 -81 16 -81 39 0 11 56 27 98 28 32 1 33 -1 30 -31z m5078 7 c4 -8
15 -15 25 -15 10 0 19 -7 19 -14 0 -8 11 -27 25 -42 31 -34 33 -52 3 -31 -13
8 -22 20 -20 26 3 14 -14 14 -39 1 -13 -8 -19 -7 -19 0 0 6 7 13 15 16 19 8
20 24 1 24 -8 0 -17 8 -20 17 -5 12 -9 14 -18 5 -25 -25 -40 -11 -29 26 3 10
53 -1 57 -13z m-247 -49 c19 -14 40 -26 47 -26 7 0 26 -16 43 -35 17 -19 32
-35 35 -35 2 0 19 -14 37 -32 19 -17 28 -28 22 -24 -17 9 -17 -16 -1 -32 44
-44 -101 28 -160 79 -18 16 -37 29 -43 29 -5 0 -19 9 -31 20 -27 25 -9 26 23
1 13 -10 35 -22 49 -26 21 -7 23 -6 12 7 -6 8 -32 28 -57 44 -32 20 -45 35
-45 51 0 27 9 24 69 -21z m-5448 24 c17 -10 28 -60 13 -60 -11 0 -30 25 -36
48 -7 25 -5 26 23 12z m471 -2 c45 -13 48 -37 5 -52 -31 -11 -42 -4 -52 37 -8
31 -7 31 47 15z m348 -23 c0 -8 9 -24 20 -35 11 -11 20 -27 20 -36 0 -14 -6
-15 -32 -8 -18 4 -63 8 -100 9 l-68 0 0 37 0 37 53 4 c28 2 64 4 80 5 18 1 27
-3 27 -13z m8580 -55 c0 -5 -4 -10 -10 -10 -5 0 -10 5 -10 10 0 6 5 10 10 10
6 0 10 -4 10 -10z m-3530 -45 c0 -8 -2 -15 -4 -15 -2 0 -6 7 -10 15 -3 8 -1
15 4 15 6 0 10 -7 10 -15z m4350 11 c0 -2 -7 -7 -16 -10 -8 -3 -12 -2 -9 4 6
10 25 14 25 6z m-9463 -72 c3 -8 16 -20 29 -25 23 -8 32 -33 17 -42 -9 -6
-193 -18 -193 -14 0 2 7 24 16 50 l16 47 54 0 c41 0 56 -4 61 -16z m5100 -31
c-3 -10 -5 -2 -5 17 0 19 2 27 5 18 2 -10 2 -26 0 -35z m839 -37 c-3 -88 -17
-125 -55 -145 -17 -9 -19 -4 -24 77 -7 86 -7 87 21 109 15 13 33 23 40 23 7 0
10 5 7 10 -3 6 -2 10 3 10 6 0 9 -36 8 -84z m3588 47 c4 -4 15 -8 24 -8 14 0
17 -10 17 -47 0 -35 -3 -44 -12 -36 -7 5 -17 7 -23 3 -15 -10 -39 24 -40 56 0
35 16 50 34 32z m-9386 -30 c-2 -22 -9 -29 -29 -31 -14 -2 -31 4 -39 12 -18
22 4 46 42 46 26 0 29 -3 26 -27z m5240 2 c53 -16 162 -104 162 -130 0 -8 -14
-23 -30 -35 -99 -71 -229 4 -230 131 0 55 11 59 98 34z m3912 2 c0 -2 -10 -12
-22 -23 l-23 -19 19 23 c18 21 26 27 26 19z m-4556 -104 c3 -4 6 6 6 20 0 27
10 34 24 20 4 -5 13 -8 19 -8 8 0 13 -30 14 -93 1 -103 13 -140 14 -46 0 54 6
104 12 110 1 2 13 -6 27 -16 20 -15 23 -21 13 -31 -11 -11 -13 -9 -14 7 0 17
-1 16 -9 -4 -12 -28 -6 -85 9 -90 16 -5 13 -49 -4 -56 -8 -3 -15 -16 -15 -30
0 -28 -20 -47 -20 -19 -1 12 -5 8 -15 -12 -7 -16 -14 -24 -14 -17 -2 20 -18
14 -26 -10 -7 -20 -9 -18 -12 15 -2 20 -8 37 -12 37 -14 0 -21 -86 -14 -165 4
-53 3 -75 -6 -75 -8 0 -11 71 -11 258 0 243 6 315 21 242 4 -17 9 -34 13 -37z
m5320 52 c-4 -8 -10 -15 -15 -15 -4 0 -6 7 -3 15 4 8 10 15 15 15 4 0 6 -7 3
-15z m-5387 -37 c-3 -7 -5 -2 -5 12 0 14 2 19 5 13 2 -7 2 -19 0 -25z m-3710
-58 c29 -163 24 -154 39 -70 27 156 19 140 74 140 l50 0 2 -197 3 -198 30 195
30 195 55 0 55 0 25 -165 25 -165 5 165 5 165 60 0 c47 0 67 -5 93 -23 l32
-23 0 25 c0 23 4 26 39 26 45 0 44 4 62 -148 7 -56 14 -100 16 -98 3 2 12 58
22 123 l16 118 160 0 160 0 3 -182 2 -183 36 0 35 0 -3 -42 -3 -43 -157 -2
-158 -3 -2 183 -3 182 -30 -180 -30 -180 -47 -3 -46 -3 -12 73 c-7 40 -17 98
-24 128 l-11 55 -21 -42 c-20 -42 -20 -42 -2 -114 10 -39 20 -76 21 -83 1 -7
-14 -11 -38 -11 l-40 0 -20 75 -20 75 -5 -75 -5 -75 -77 -3 -77 -3 -7 36 c-5
30 -10 35 -34 35 -28 0 -40 -15 -40 -51 0 -17 -8 -19 -80 -19 l-80 0 -1 93 -1
92 -17 -90 c-12 -68 -20 -91 -33 -93 -22 -4 -34 21 -44 93 l-9 60 -5 -75 -5
-75 -40 0 -40 0 -3 215 c-1 118 0 220 3 228 3 9 20 12 52 10 l48 -3 12 -65z
m2040 0 c29 -163 24 -154 39 -70 27 156 19 140 74 140 l50 0 2 -197 3 -198 30
195 30 195 55 0 55 0 25 -165 25 -165 5 165 5 165 60 0 c47 0 67 -5 93 -23
l32 -23 0 25 c0 23 4 26 39 26 45 0 44 4 62 -148 7 -56 14 -100 16 -98 3 2 12
58 22 123 l16 118 160 0 160 0 3 -182 2 -183 36 0 35 0 -3 -42 -3 -43 -157 -2
-158 -3 -2 183 -3 182 -30 -180 -30 -180 -47 -3 -46 -3 -12 73 c-7 40 -17 98
-24 128 l-11 55 -21 -42 c-20 -42 -20 -42 -2 -114 10 -39 20 -76 21 -83 1 -7
-14 -11 -38 -11 l-40 0 -20 75 -20 75 -5 -75 -5 -75 -77 -3 -77 -3 -7 36 c-5
30 -10 35 -34 35 -28 0 -40 -15 -40 -51 0 -17 -8 -19 -80 -19 l-80 0 -1 93 -1
92 -17 -90 c-12 -68 -20 -91 -33 -93 -22 -4 -34 21 -44 93 l-9 60 -5 -75 -5
-75 -40 0 -40 0 -3 215 c-1 118 0 220 3 228 3 9 20 12 52 10 l48 -3 12 -65z
m4083 -17 c19 -130 24 -137 39 -42 20 136 16 129 72 129 l49 0 2 -197 3 -198
30 195 30 195 55 0 55 0 25 -165 25 -165 5 165 5 165 60 0 c47 0 67 -5 93 -23
l32 -23 0 25 c0 23 4 26 39 26 45 0 44 4 62 -147 7 -56 15 -101 17 -99 2 3 11
58 21 123 l16 118 160 0 160 0 3 -182 2 -183 35 0 c32 0 35 -3 35 -29 0 -61 2
-60 -166 -60 l-154 0 -1 182 -1 182 -32 -180 -31 -180 -47 -3 c-27 -2 -48 0
-48 4 0 4 -10 63 -21 130 l-22 122 -23 -46 -23 -46 24 -79 c26 -85 24 -92 -32
-85 -26 3 -30 9 -48 78 l-20 75 -5 -75 -5 -75 -77 -3 -77 -3 -7 36 c-5 30 -10
35 -34 35 -28 0 -40 -15 -40 -51 0 -17 -8 -19 -80 -19 l-80 0 -1 93 -1 92 -17
-90 c-12 -68 -20 -91 -33 -93 -22 -4 -34 21 -44 93 l-9 60 -5 -75 -5 -75 -40
0 -40 0 -3 215 c-1 118 0 220 2 227 4 8 24 13 55 13 l49 0 12 -87z m2460 46
c0 -10 -4 -20 -9 -23 -10 -7 -29 35 -24 52 7 18 33 -5 33 -29z m-9 -72 c-8 -8
-11 -7 -11 4 0 20 13 34 18 19 3 -7 -1 -17 -7 -23z m-441 2 c0 -5 -7 -9 -15
-9 -15 0 -20 12 -9 23 8 8 24 -1 24 -14z m595 -35 c-14 -27 -23 -38 -19 -24 9
34 34 83 40 77 3 -2 -7 -26 -21 -53z m-528 10 c5 -14 -56 -96 -66 -89 -10 5 6
72 22 93 11 15 39 12 44 -4z m-10564 -14 c3 -13 0 -20 -9 -20 -8 0 -14 9 -14
20 0 11 4 20 9 20 5 0 11 -9 14 -20z m10372 10 c-3 -5 -11 -10 -16 -10 -6 0
-7 5 -4 10 3 6 11 10 16 10 6 0 7 -4 4 -10z m-8830 -30 c0 -24 -3 -25 -52 -25
-56 1 -79 14 -70 38 4 11 21 15 64 13 55 -1 58 -2 58 -26z m8500 10 c-3 -5
-10 -10 -16 -10 -5 0 -9 5 -9 10 0 6 7 10 16 10 8 0 12 -4 9 -10z m397 -40 c7
-50 1 -100 -13 -100 -9 0 -41 59 -54 98 -8 29 11 54 39 50 16 -2 22 -13 28
-48z m-103 12 c9 -16 6 -18 -20 -14 -16 2 -29 10 -29 18 0 20 38 17 49 -4z
m-10384 -2 c3 -6 -1 -7 -9 -4 -18 7 -21 14 -7 14 6 0 13 -4 16 -10z m10102 -2
c13 -17 16 -36 16 -128 1 -58 -4 -87 -22 -127 -25 -56 -41 -68 -42 -30 0 12
-4 31 -8 41 -6 16 -13 10 -39 -37 -18 -32 -34 -57 -37 -57 -3 0 -4 46 -4 103
1 56 4 92 6 80 4 -23 23 -32 23 -12 0 6 9 24 20 39 11 16 23 42 26 59 4 17 13
31 21 31 8 0 13 8 12 18 -3 35 9 44 28 20z m1243 -38 c0 -22 -4 -40 -10 -40
-11 0 -13 39 -4 64 10 26 14 19 14 -24z m-1373 -67 c-2 -16 -4 -5 -4 22 0 28
2 40 4 28 2 -13 2 -35 0 -50z m271 55 c8 -8 15 -8 26 1 12 10 21 8 46 -10 17
-13 33 -35 36 -49 3 -14 10 -38 15 -54 12 -38 12 -106 0 -106 -5 0 -13 9 -16
21 -5 16 -10 18 -21 8 -11 -9 -14 -7 -14 12 0 13 -4 30 -9 37 -11 19 -86 -32
-102 -69 -6 -16 -15 -27 -19 -24 -12 7 -2 215 11 231 14 17 31 18 47 2z m1023
-41 c-8 -8 -11 -3 -11 19 1 25 2 27 11 11 8 -14 8 -22 0 -30z m84 -42 c0 -16
-5 -30 -12 -32 -14 -5 -28 40 -18 57 12 19 30 4 30 -25z m-5122 -65 c3 8 8 22
10 30 3 8 6 -8 6 -37 1 -40 -2 -51 -13 -47 -15 6 -26 -24 -26 -75 0 -19 -2
-32 -4 -30 -11 11 -17 98 -10 158 l7 66 12 -40 c8 -25 14 -34 18 -25z m5287
40 c0 -5 -5 -10 -11 -10 -5 0 -7 5 -4 10 3 6 8 10 11 10 2 0 4 -4 4 -10z m309
-34 c-9 -8 -10 -7 -5 7 3 10 7 24 7 30 1 7 3 4 6 -7 3 -10 -1 -23 -8 -30z
m-5539 0 c0 -19 -4 -38 -10 -41 -6 -4 -10 10 -10 34 0 23 5 41 10 41 6 0 10
-15 10 -34z m17 2 c-3 -8 -6 -5 -6 6 -1 11 2 17 5 13 3 -3 4 -12 1 -19z m73
12 c0 -5 -4 -10 -10 -10 -5 0 -10 5 -10 10 0 6 5 10 10 10 6 0 10 -4 10 -10z
m-4987 -39 c26 -31 64 -169 50 -182 -5 -3 -20 -9 -34 -12 -25 -6 -26 -5 -47
93 -28 130 -19 160 31 101z m6087 9 c0 -11 -4 -20 -10 -20 -5 0 -10 9 -10 20
0 11 5 20 10 20 6 0 10 -9 10 -20z m3645 -37 c-12 -95 -16 -113 -27 -113 -6 0
-8 14 -4 38 4 20 9 56 12 80 4 23 10 42 16 42 5 0 7 -20 3 -47z m398 12 c-3
-9 -8 -14 -10 -11 -3 3 -2 9 2 15 9 16 15 13 8 -4z m300 -26 c-8 -28 -12 -23
-11 12 1 17 4 25 8 18 4 -6 5 -20 3 -30z m-1195 -1 c11 -18 25 -51 32 -73 7
-22 19 -55 27 -74 7 -18 12 -36 9 -38 -3 -3 -23 33 -45 80 -22 47 -45 88 -51
92 -12 8 -13 45 -1 45 5 0 18 -15 29 -32z m381 -140 c1 -32 -2 -58 -6 -58 -5
0 -9 -23 -10 -50 -2 -37 1 -52 12 -56 8 -4 12 -10 9 -15 -3 -5 -9 -7 -13 -4
-5 2 -6 -7 -3 -20 2 -14 7 -27 11 -30 9 -5 1 -75 -9 -75 -17 0 -21 85 -14 280
6 156 10 191 15 145 4 -33 7 -86 8 -117z m-4842 60 c-3 -7 -5 -2 -5 12 0 14 2
19 5 13 2 -7 2 -19 0 -25z m3891 -87 c-2 -20 -7 -13 -22 34 -29 92 -29 93 -1
41 14 -27 25 -61 23 -75z m1756 67 c-3 -18 -10 -51 -15 -73 -13 -52 -28 -137
-35 -199 -3 -27 -12 -72 -20 -100 -16 -54 -18 -129 -5 -155 5 -9 14 -44 22
-78 7 -35 16 -63 19 -63 10 0 33 -81 25 -88 -3 -3 -8 4 -12 16 -3 12 -9 22
-14 22 -5 0 -9 9 -9 20 0 11 -4 20 -9 20 -5 0 -12 10 -16 23 -3 12 -8 17 -11
11 -2 -6 5 -33 17 -60 13 -27 24 -58 25 -69 8 -55 17 -85 26 -85 6 0 7 9 3 23
-11 34 -11 56 -1 59 17 5 29 -62 14 -79 -11 -13 -11 -17 1 -21 11 -4 11 -6 0
-13 -11 -6 -11 -11 -1 -21 6 -6 12 -18 12 -25 0 -57 -73 95 -90 187 -6 36 -22
90 -36 121 -23 56 -23 58 -8 145 9 49 20 94 26 101 5 7 7 16 4 21 -3 5 1 32 9
61 7 29 11 59 8 67 -3 8 0 20 5 27 6 7 14 33 17 57 4 25 13 62 21 83 8 20 14
51 14 67 0 17 4 30 10 30 5 0 7 -14 4 -32z m-11234 -10 c0 -16 -3 -19 -11 -11
-6 6 -8 16 -5 22 11 17 16 13 16 -11z m10789 -10 c-8 -14 -14 -18 -17 -10 -4
13 17 46 25 38 3 -2 -1 -15 -8 -28z m-11095 5 c51 -24 54 -43 8 -44 -23 -1
-29 -3 -14 -6 12 -2 22 -8 22 -13 0 -7 -99 -60 -113 -60 -4 0 -15 -7 -24 -16
-10 -9 -40 -31 -66 -49 l-49 -34 29 -15 c24 -13 25 -15 8 -16 -12 0 -28 -12
-37 -27 -9 -16 -28 -39 -42 -52 l-26 -24 0 25 c0 14 14 44 31 68 29 40 25 45
-13 12 -17 -14 -18 -10 -18 81 l0 96 38 10 c20 6 48 11 61 11 14 0 32 7 42 16
28 26 82 53 106 53 12 1 38 -6 57 -16z m1406 2 c17 -9 30 -22 30 -30 0 -8 7
-15 15 -15 10 0 15 -10 15 -29 0 -27 -3 -29 -41 -33 -32 -3 -51 2 -80 21 -24
16 -37 31 -34 39 3 8 -3 16 -15 19 -31 8 -24 20 18 31 53 14 59 14 92 -3z
m-1118 -50 c-2 -14 -8 -23 -12 -20 -10 6 -1 45 10 45 4 0 5 -11 2 -25z m10141
-97 c31 -60 54 -108 51 -108 -2 0 7 -25 21 -56 14 -31 25 -64 24 -73 0 -9 -11
8 -25 37 -13 29 -31 55 -40 59 -10 4 -14 13 -10 27 3 13 -14 63 -45 131 -62
135 -50 127 24 -17z m-10078 82 c3 -5 2 -10 -4 -10 -5 0 -13 5 -16 10 -3 6 -2
10 4 10 5 0 13 -4 16 -10z m948 -42 c12 -6 36 -11 52 -11 21 0 24 -1 7 -4 -12
-2 -20 -8 -17 -13 3 -5 3 -20 -1 -34 l-6 -24 -64 31 c-35 18 -64 35 -64 38 0
3 15 11 33 17 17 5 33 10 35 11 2 1 13 -4 25 -11z m-968 -74 c19 -3 36 -13 38
-23 3 -9 5 -1 6 17 1 43 15 40 43 -10 31 -56 45 -58 58 -9 6 23 14 41 18 41
18 -1 28 -18 28 -50 -1 -31 2 -35 27 -38 23 -3 27 -8 28 -35 l0 -32 16 23 c17
25 53 30 53 7 0 -8 -16 -32 -35 -54 -19 -21 -35 -44 -35 -50 0 -33 -172 -36
-197 -3 -12 14 -13 14 -13 -2 0 -21 -43 -66 -64 -66 -8 0 -17 13 -21 30 -8 36
-11 38 -66 45 -47 6 -112 50 -117 79 -7 34 8 64 34 70 30 8 64 -1 64 -16 0
-20 32 -48 55 -48 17 0 22 5 21 23 -1 12 1 27 6 33 4 5 1 23 -7 38 -20 37 -19
76 0 76 8 0 16 6 17 13 0 6 3 -2 5 -20 4 -28 9 -33 38 -39z m9562 34 c-3 -7
-5 -2 -5 12 0 14 2 19 5 13 2 -7 2 -19 0 -25z m-8407 -6 c0 -16 -7 -37 -16
-48 -15 -18 -15 -17 -10 15 3 18 6 40 6 47 0 8 5 14 10 14 6 0 10 -13 10 -28z
m4650 13 c-55 -33 -90 -43 -122 -38 -18 3 -64 6 -103 6 l-70 0 40 14 c22 8 85
18 140 22 154 12 144 13 115 -4z m4677 -17 c-3 -8 -6 -5 -6 6 -1 11 2 17 5 13
3 -3 4 -12 1 -19z m472 -93 c0 -31 -2 -36 -9 -20 -5 11 -9 38 -9 60 0 31 2 36
9 20 5 -11 9 -38 9 -60z m-1423 -42 c3 -26 8 -51 11 -56 7 -11 16 -73 10 -67
-7 6 -43 151 -51 200 l-6 35 15 -32 c8 -18 17 -54 21 -80z m958 12 l-8 -50 -6
43 c-4 23 -4 57 -2 75 5 31 5 31 14 7 5 -14 6 -47 2 -75z m-9279 54 c-3 -8
-18 -23 -32 -33 l-27 -20 29 37 c29 36 41 42 30 16z m-1685 -78 c-1 -13 -4
-12 -15 3 -8 11 -15 27 -15 35 1 13 4 12 15 -3 8 -11 15 -27 15 -35z m10670 9
c0 -5 -2 -10 -4 -10 -3 0 -8 5 -11 10 -3 6 -1 10 4 10 6 0 11 -4 11 -10z m17
-92 c-3 -7 -5 -2 -5 12 0 14 2 19 5 13 2 -7 2 -19 0 -25z m203 22 c0 -5 -2
-10 -4 -10 -3 0 -8 5 -11 10 -3 6 -1 10 4 10 6 0 11 -4 11 -10z m2685 -28 c-7
-8 -35 7 -35 18 0 6 7 6 20 -2 10 -7 17 -14 15 -16z m-13510 8 c3 -5 1 -10 -4
-10 -6 0 -11 5 -11 10 0 6 2 10 4 10 3 0 8 -4 11 -10z m10654 -50 c4 0 7 -16
8 -36 2 -52 -19 -27 -22 28 -1 24 -1 35 2 26 2 -10 8 -18 12 -18z m296 10 c3
-5 1 -10 -4 -10 -6 0 -11 5 -11 10 0 6 2 10 4 10 3 0 8 -4 11 -10z m-10308
-22 c-3 -8 -6 -5 -6 6 -1 11 2 17 5 13 3 -3 4 -12 1 -19z m-839 -25 c2 -11 -4
-26 -13 -33 -13 -11 -15 -8 -15 25 0 39 22 46 28 8z m11127 -32 c-4 -28 -12
-54 -17 -57 -7 -5 -9 2 -5 17 3 13 9 41 13 62 10 55 17 37 9 -22z m-105 -66
c10 -95 12 -158 3 -120 -3 11 -10 26 -15 33 -6 6 -11 45 -12 85 -1 39 -5 77
-9 83 -8 14 4 27 14 17 5 -5 13 -49 19 -98z m-239 84 c19 -7 44 -21 57 -32 16
-15 22 -17 22 -6 1 8 8 1 17 -16 9 -16 19 -32 22 -35 20 -16 50 -101 49 -139
l0 -44 -31 53 c-17 30 -40 77 -52 106 -27 67 -66 99 -117 98 -26 -1 -38 3 -38
12 0 17 26 18 71 3z m-9974 -46 c-3 -10 -5 -4 -5 12 0 17 2 24 5 18 2 -7 2
-21 0 -30z m10256 -56 c-1 -15 3 -30 10 -33 15 -5 22 -140 7 -149 -5 -3 -7
-19 -4 -34 4 -16 1 -32 -5 -35 -8 -5 -11 12 -10 56 0 35 -4 95 -10 133 -6 39
-10 88 -10 110 l0 40 13 -30 c7 -16 11 -43 9 -58z m-2958 47 c-11 -8 -41 -23
-68 -32 -26 -9 -46 -21 -44 -26 2 -5 31 -18 65 -29 34 -12 62 -26 62 -33 0 -8
-8 -10 -22 -7 l-23 6 23 -25 c12 -13 22 -30 22 -36 0 -7 12 -12 26 -12 14 0
23 -4 19 -10 -3 -5 -2 -10 4 -10 11 0 58 -30 104 -67 29 -22 36 -60 15 -81
-17 -17 -26 -15 -33 8 -3 11 -11 20 -16 20 -6 0 -7 -9 -4 -20 6 -18 2 -20 -44
-20 -28 0 -51 4 -51 9 0 5 -8 7 -18 4 -14 -3 -18 2 -17 24 0 20 -7 31 -27 41
-16 7 -28 17 -28 22 0 5 -7 7 -15 4 -8 -4 -15 -1 -15 6 0 7 -8 9 -20 5 -12 -4
-20 -2 -20 5 0 6 -4 9 -9 5 -6 -3 -14 3 -20 12 -6 11 -11 13 -11 5 0 -9 -7
-11 -21 -7 -51 16 -229 26 -229 13 0 -4 -7 -5 -15 -2 -9 4 -15 0 -15 -9 0 -8
6 -18 13 -20 6 -3 -13 -6 -44 -6 -52 -1 -157 -29 -183 -50 -6 -4 -27 -14 -48
-20 -20 -7 -39 -18 -42 -26 -4 -12 -30 -15 -128 -15 l-123 0 70 65 c38 36 72
65 76 65 3 0 18 11 31 25 l26 25 278 0 c154 -1 294 -1 312 0 l32 0 0 65 c0 50
3 65 14 65 8 0 18 5 22 11 4 8 -1 9 -16 4 -16 -5 -21 -3 -18 6 2 7 29 18 59
24 30 6 70 18 89 27 40 18 54 13 25 -8z m3525 10 c0 -8 -4 -12 -10 -9 -5 3
-10 10 -10 16 0 5 5 9 10 9 6 0 10 -7 10 -16z m-1420 -30 c0 -14 -3 -14 -15
-4 -8 7 -15 14 -15 16 0 2 7 4 15 4 8 0 15 -7 15 -16z m-10130 -39 c37 -38 36
-41 -7 -23 -33 14 -63 38 -63 50 0 20 39 5 70 -27z m10737 -17 c-2 -13 -4 -5
-4 17 -1 22 1 32 4 23 2 -10 2 -28 0 -40z m-577 -33 c0 -11 5 -27 11 -35 8
-11 9 -7 5 18 -6 36 3 42 22 12 6 -11 18 -17 26 -14 12 5 15 -16 7 -68 -2 -14
-24 -8 -37 10 -13 16 -13 16 -14 -3 0 -11 9 -53 20 -93 21 -77 26 -122 11
-107 -9 10 -81 314 -81 338 1 20 29 -36 30 -58z m110 -42 c0 -24 -3 -33 -9
-25 -7 12 -4 62 5 62 2 0 4 -17 4 -37z m-9766 -19 c31 -12 15 -24 -31 -23
l-48 1 30 13 c17 8 31 14 32 15 1 0 8 -3 17 -6z m79 -1 c-7 -2 -19 -2 -25 0
-7 3 -2 5 12 5 14 0 19 -2 13 -5z m120 -10 c-7 -2 -19 -2 -25 0 -7 3 -2 5 12
5 14 0 19 -2 13 -5z m75 -10 c-10 -2 -26 -2 -35 0 -10 3 -2 5 17 5 19 0 27 -2
18 -5z m1555 0 c-23 -2 -64 -2 -90 0 -26 2 -7 3 42 3 50 0 71 -1 48 -3z m1180
0 c-40 -2 -107 -2 -150 0 -43 1 -10 3 72 3 83 0 118 -2 78 -3z m4699 -21 c7
-10 20 -23 29 -28 28 -16 154 -134 143 -134 -6 0 -24 14 -40 30 -16 17 -60 54
-99 82 -93 68 -92 68 -68 68 12 0 28 -8 35 -18z m2085 -99 c26 -185 33 -329
36 -740 1 -227 6 -413 10 -413 5 0 1 -10 -7 -22 -9 -12 -17 -36 -17 -53 -1
-27 -2 -26 -9 10 -5 22 -7 49 -5 60 9 47 14 431 6 444 -8 12 -13 12 -35 -3
-14 -9 -26 -26 -26 -37 0 -25 -29 -71 -41 -63 -5 3 -9 -11 -9 -30 0 -19 -4
-38 -10 -41 -5 -3 -10 3 -10 14 0 29 -34 63 -49 48 -16 -16 -14 -26 20 -79 17
-26 39 -74 49 -106 14 -43 22 -56 35 -54 14 3 17 -2 13 -30 -5 -33 8 -78 23
-78 4 0 5 -9 2 -20 -6 -24 -4 -23 -37 -7 -14 8 -23 17 -20 20 9 9 -4 57 -15
57 -5 0 -9 -20 -8 -45 1 -24 -2 -44 -8 -44 -6 -1 -10 32 -10 77 0 93 -8 118
-44 137 -21 10 -187 35 -237 35 -2 0 -4 6 -4 14 0 21 150 8 236 -20 11 -3 15
-2 9 3 -18 15 -41 47 -27 39 19 -12 14 5 -10 31 -32 34 -58 30 -27 -4 13 -15
17 -22 9 -16 -32 24 -123 33 -156 15 -29 -15 -34 -7 -34 55 0 40 4 55 16 60 9
3 19 0 24 -6 5 -9 21 -11 53 -6 41 6 45 9 34 26 -17 28 0 35 27 10 l23 -22 57
21 c48 19 56 25 56 48 0 23 1 24 13 9 11 -16 15 -16 62 -1 28 9 52 19 54 21
15 12 -13 548 -30 568 -4 6 -8 20 -7 30 0 11 -3 63 -7 115 -10 129 12 110 32
-27z m583 49 c0 -36 75 -164 134 -230 37 -40 63 -78 60 -85 -3 -8 12 -36 34
-63 83 -107 142 -212 97 -174 -8 6 -17 22 -21 33 -9 29 -58 101 -106 156 -21
24 -38 48 -38 54 0 18 -85 137 -102 142 -21 7 -41 39 -61 99 -19 55 -24 122
-7 96 5 -8 10 -21 10 -28z m-85 18 c3 -5 -3 -10 -15 -10 -12 0 -18 5 -15 10 3
6 10 10 15 10 5 0 12 -4 15 -10z m475 -19 c12 -24 13 -41 1 -41 -5 0 -14 14
-20 30 -11 33 2 41 19 11z m-1481 -66 l33 -47 -28 4 c-24 2 -30 9 -34 38 -4
20 -10 42 -15 49 -19 32 13 -1 44 -44z m1910 -22 c-1 -16 -2 -16 -6 -1 -2 10
-10 15 -19 11 -10 -4 -14 3 -14 23 l0 28 20 -22 c11 -12 19 -29 19 -39z
m-1539 -22 c0 -33 -4 -39 -35 -51 -39 -15 -44 -26 -17 -34 25 -8 72 -54 72
-71 0 -23 -15 -18 -30 10 -7 14 -30 33 -51 42 -21 10 -39 21 -39 25 0 3 18 21
40 38 31 24 40 39 40 61 0 18 4 28 10 24 6 -3 10 -23 10 -44z m1478 -44 c2
-20 -1 -44 -6 -54 -8 -14 -12 -10 -21 24 -12 43 -6 76 13 70 6 -2 12 -20 14
-40z m50 18 c-3 -3 -9 2 -12 12 -6 14 -5 15 5 6 7 -7 10 -15 7 -18z m-1670
-32 c52 -9 39 -27 -14 -19 -26 3 -62 6 -80 6 -25 0 -34 4 -34 16 0 17 19 16
128 -3z m1335 -33 c-3 -11 -9 -20 -13 -20 -10 0 -18 41 -12 60 7 21 31 -17 25
-40z m407 5 c9 -40 1 -37 -17 7 -7 14 -9 29 -6 32 9 9 14 1 23 -39z m-64 -21
c-4 -13 -2 -26 4 -29 5 -3 10 -25 10 -48 0 -23 4 -48 9 -55 14 -22 1 -57 -26
-69 -32 -15 -44 -8 -19 10 17 12 17 19 3 112 -16 109 -14 133 10 113 9 -7 12
-21 9 -34z m98 -59 c-3 -14 1 -38 10 -56 11 -22 13 -36 6 -44 -6 -8 -7 -27 -2
-51 12 -57 -25 -173 -41 -130 -4 9 -2 16 3 16 5 0 7 7 4 15 -4 8 -1 15 5 15 6
0 11 10 11 23 -1 18 -5 15 -25 -18 -14 -22 -27 -44 -29 -50 -2 -5 -6 -7 -10
-4 -4 4 5 33 20 65 24 54 26 66 20 152 -4 64 -2 99 7 112 11 19 12 19 19 -1 5
-11 5 -31 2 -44z m704 -14 c3 -8 -1 -12 -9 -9 -7 2 -15 10 -17 17 -3 8 1 12 9
9 7 -2 15 -10 17 -17z m-4492 -63 c8 2 14 -4 14 -13 0 -10 -9 -15 -26 -15 -19
0 -25 4 -21 15 4 8 2 17 -3 20 -6 4 -10 12 -10 18 0 7 7 3 16 -8 8 -11 22 -19
30 -17z m3654 -28 c0 -5 -5 -10 -11 -10 -5 0 -7 5 -4 10 3 6 8 10 11 10 2 0 4
-4 4 -10z m-1725 -114 c27 -96 30 -116 15 -116 -5 0 -12 17 -15 38 -4 20 -13
60 -20 87 -36 140 -22 133 20 -9z m555 105 c0 -5 -6 -14 -14 -20 -16 -13 -32
2 -21 19 8 12 35 13 35 1z m514 -61 c4 -24 4 -41 0 -37 -4 4 -10 27 -14 52 -4
25 -4 42 0 38 4 -4 10 -28 14 -53z m106 -71 c0 -9 -3 -19 -7 -22 -9 -9 -33 61
-32 93 1 22 3 20 20 -15 10 -22 19 -47 19 -56z m560 68 c0 -8 -11 -12 -27 -11
-38 2 -41 4 -18 14 30 13 45 12 45 -3z m-2 -75 c2 -7 -5 -12 -17 -12 -14 0
-19 5 -14 15 6 17 25 15 31 -3z m-8823 -82 c3 -5 14 -10 24 -10 33 0 146 -41
185 -68 57 -39 107 -109 100 -138 -8 -31 4 -96 17 -89 14 9 29 -40 29 -96 0
-58 -19 -73 -53 -41 -38 36 -87 51 -147 45 l-55 -5 37 21 c21 12 43 20 50 19
14 -3 40 130 35 182 -2 28 -4 23 -11 -25 -10 -77 -13 -88 -27 -80 -9 6 -5 92
7 137 3 10 -4 25 -17 35 -12 10 -39 33 -59 51 -45 39 -110 46 -110 13 0 -11
-4 -23 -10 -26 -5 -3 -10 1 -10 9 0 9 -5 16 -11 16 -7 0 -17 7 -24 16 -11 15
-14 15 -36 1 -15 -10 -29 -13 -38 -8 -8 5 -20 7 -28 4 -7 -3 -13 0 -13 6 0 6
6 11 14 11 7 0 30 13 51 30 35 28 39 29 65 15 16 -8 32 -19 35 -25z m-795 20
c0 -5 -4 -10 -10 -10 -5 0 -10 5 -10 10 0 6 5 10 10 10 6 0 10 -4 10 -10z
m9699 -50 c-13 -27 -29 -50 -36 -50 -7 0 -3 16 10 43 31 59 38 69 45 62 3 -3
-5 -28 -19 -55z m-8563 24 c13 -14 31 -38 39 -54 18 -35 41 -168 55 -320 6
-63 13 -141 16 -174 4 -41 3 -56 -5 -52 -6 4 -12 31 -12 59 -1 43 -3 38 -10
-30 -4 -47 -22 -123 -41 -180 -33 -97 -33 -98 -68 -101 -37 -4 -33 13 5 20 14
2 27 27 53 103 33 97 34 105 33 254 0 157 -4 213 -23 335 -9 60 -16 75 -49
110 -22 22 -39 44 -39 48 0 16 23 7 46 -18z m-746 -31 c-1 -23 -13 -52 -21
-47 -5 3 -9 -4 -9 -15 0 -24 -12 -27 -28 -8 -8 9 -4 21 14 45 24 30 44 41 44
25z m179 -49 c-68 -71 -161 -100 -96 -30 25 27 117 79 125 71 3 -3 -10 -21
-29 -41z m9088 -20 c2 -5 -3 -19 -12 -29 -14 -19 -14 -18 -15 13 0 31 18 42
27 16z m-8858 -91 c-2 -154 -16 -178 -18 -30 -1 79 3 127 9 127 6 0 10 -38 9
-97z m8817 48 c-4 -5 -1 -11 5 -13 8 -3 7 -14 -5 -36 -15 -29 -36 -43 -36 -24
0 23 22 82 31 82 6 0 8 -4 5 -9z m-9249 -18 c-9 -9 -19 -14 -23 -11 -10 10 6
28 24 28 15 0 15 -1 -1 -17z m7543 1 c0 -8 -4 -12 -10 -9 -5 3 -10 10 -10 16
0 5 5 9 10 9 6 0 10 -7 10 -16z m1374 -16 c-9 -18 -21 -36 -26 -39 -5 -3 -16
-24 -23 -45 l-14 -39 -1 33 c0 24 10 46 36 78 43 52 50 55 28 12z m-3299 -48
c-3 -5 -13 -10 -21 -10 -8 0 -14 5 -14 10 0 6 9 10 21 10 11 0 17 -4 14 -10z
m3475 -1 c0 -9 -61 -208 -76 -244 -2 -5 -1 13 2 40 8 65 53 215 65 215 5 0 9
-5 9 -11z m-3540 -9 c0 -5 -18 -10 -40 -10 -22 0 -40 5 -40 10 0 6 18 10 40
10 22 0 40 -4 40 -10z m3651 -3 c-1 -12 -15 -9 -19 4 -3 6 1 10 8 8 6 -3 11
-8 11 -12z m-8448 -12 c4 -8 2 -17 -3 -20 -6 -4 -10 3 -10 14 0 25 6 27 13 6z
m4867 -9 c0 -9 -18 -15 -52 -20 -78 -9 -138 -7 -138 4 0 14 33 20 163 28 17 1
27 -3 27 -12z m-5620 -23 c0 -14 -19 -38 -25 -32 -8 8 5 39 16 39 5 0 9 -3 9
-7z m9175 -3 c3 -5 1 -10 -4 -10 -6 0 -11 5 -11 10 0 6 2 10 4 10 3 0 8 -4 11
-10z m-20 -65 c-2 -25 -8 -60 -14 -78 -5 -17 -13 -52 -16 -77 -4 -25 -10 -58
-15 -75 -5 -16 -17 -70 -26 -118 -24 -124 -38 -96 -19 37 8 59 17 111 19 115
3 4 8 32 11 62 4 29 11 57 17 60 6 4 8 18 4 33 -3 14 -2 26 3 26 5 0 12 14 16
30 10 46 24 36 20 -15z m-308 3 c-3 -7 -5 -2 -5 12 0 14 2 19 5 13 2 -7 2 -19
0 -25z m-10962 -10 c3 -13 10 -54 15 -93 6 -38 13 -71 14 -73 2 -2 10 39 18
90 l13 93 53 3 52 3 2 -188 3 -188 13 80 c7 44 20 128 28 188 l17 107 52 0
c33 0 55 -5 58 -12 2 -7 15 -85 28 -173 l24 -160 3 173 2 172 59 0 c45 0 66
-5 95 -25 l36 -24 0 24 c0 23 4 25 44 25 l44 0 13 -106 c6 -58 15 -100 19 -92
6 11 30 162 30 190 0 4 52 8 115 8 l115 0 0 -45 c0 -45 0 -45 -35 -45 -35 0
-35 0 -35 -45 0 -45 0 -45 35 -45 35 0 35 0 35 -45 0 -45 0 -45 -35 -45 -35 0
-35 0 -35 -45 0 -45 0 -45 35 -45 35 0 35 0 35 -45 l0 -45 -75 0 -75 0 -1 173
-1 172 -24 -140 c-38 -231 -27 -205 -84 -205 -43 0 -50 3 -55 23 -7 31 -35
200 -35 211 0 5 -11 -7 -24 -27 l-25 -36 24 -78 c14 -43 25 -82 25 -86 0 -5
-19 -7 -42 -5 l-42 3 -16 64 c-22 91 -40 92 -40 2 l0 -71 -74 0 c-77 0 -86 5
-86 51 0 14 -7 19 -29 19 -29 0 -41 -14 -41 -51 0 -17 -8 -19 -80 -19 l-80 0
-1 78 c-1 82 -1 83 -24 -45 -5 -27 -11 -33 -30 -33 -26 0 -27 2 -44 95 l-9 50
-1 -72 -1 -73 -45 0 -45 0 0 225 0 225 55 0 c48 0 55 -3 60 -22z m1065 -157
l0 -180 33 -3 c30 -3 32 -6 35 -45 l3 -43 -75 0 -76 0 -1 108 c0 59 -1 160 -2
225 l-2 117 43 0 42 0 0 -179z m3005 157 c3 -13 10 -54 15 -93 6 -38 13 -71
14 -73 2 -2 10 39 18 90 l13 93 53 3 52 3 2 -188 3 -188 13 80 c7 44 20 128
28 188 l17 107 52 0 c33 0 55 -5 58 -12 2 -7 15 -85 28 -173 l24 -160 3 173 2
172 59 0 c45 0 66 -5 95 -25 l36 -24 0 24 c0 23 4 25 44 25 l44 0 13 -107 c14
-121 21 -117 39 20 l12 87 114 0 114 0 0 -45 c0 -45 0 -45 -35 -45 -35 0 -35
0 -35 -45 0 -45 0 -45 35 -45 35 0 35 0 35 -45 0 -45 0 -45 -35 -45 -35 0 -35
0 -35 -45 0 -45 0 -45 35 -45 35 0 35 0 35 -45 l0 -45 -75 0 -75 0 -2 168 -3
167 -23 -145 c-33 -207 -26 -190 -83 -190 -42 0 -49 3 -54 23 -7 31 -35 200
-35 211 0 5 -11 -7 -24 -27 l-25 -36 24 -78 c14 -43 25 -82 25 -86 0 -5 -19
-7 -42 -5 l-42 3 -16 64 c-22 91 -40 92 -40 2 l0 -71 -74 0 c-77 0 -86 5 -86
51 0 14 -7 19 -29 19 -29 0 -41 -14 -41 -51 0 -17 -8 -19 -80 -19 l-80 0 -1
78 c-1 82 -1 83 -24 -45 -5 -27 -11 -33 -30 -33 -26 0 -27 2 -44 95 l-9 50 -1
-72 -1 -73 -45 0 -45 0 0 225 0 225 55 0 c48 0 55 -3 60 -22z m1065 -157 l0
-180 33 -3 c30 -3 32 -6 35 -46 l3 -43 -78 3 -78 3 -3 223 -2 222 45 0 45 0 0
-179z m975 157 c3 -13 10 -54 15 -93 6 -38 13 -71 14 -73 2 -2 10 39 18 90
l13 93 53 3 52 3 2 -188 3 -188 13 80 c7 44 20 128 28 188 l17 107 52 0 c33 0
55 -5 58 -12 2 -7 15 -85 28 -173 l24 -160 3 173 2 172 59 0 c45 0 66 -5 95
-25 l36 -24 0 24 c0 23 4 25 44 25 l44 0 13 -106 c6 -58 15 -100 19 -92 6 11
30 162 30 190 0 4 52 8 115 8 l115 0 0 -45 c0 -45 0 -45 -35 -45 -35 0 -35 0
-35 -45 0 -45 0 -45 35 -45 35 0 35 0 35 -45 0 -45 0 -45 -35 -45 -35 0 -35 0
-35 -45 0 -45 0 -45 35 -45 35 0 35 0 35 -45 l0 -45 -75 0 -75 0 -1 173 -1
172 -24 -140 c-38 -231 -27 -205 -84 -205 -43 0 -50 3 -55 23 -7 31 -35 200
-35 211 0 5 -11 -7 -24 -27 l-25 -36 24 -78 c14 -43 25 -82 25 -86 0 -5 -19
-7 -42 -5 l-42 3 -16 64 c-22 91 -40 92 -40 2 l0 -71 -74 0 c-77 0 -86 5 -86
51 0 14 -7 19 -29 19 -29 0 -41 -14 -41 -51 0 -17 -8 -19 -80 -19 l-80 0 -1
78 c-1 82 -1 83 -24 -45 -5 -27 -11 -33 -30 -33 -26 0 -27 2 -44 95 l-9 50 -1
-72 -1 -73 -45 0 -45 0 0 225 0 225 55 0 c48 0 55 -3 60 -22z m1065 -157 l0
-180 33 -3 c30 -3 32 -6 35 -45 l3 -43 -75 0 -76 0 -1 108 c0 59 -1 160 -2
225 l-2 117 43 0 42 0 0 -179z m975 157 c3 -13 10 -54 15 -93 6 -38 13 -71 14
-73 2 -2 10 39 18 90 l13 93 53 3 52 3 2 -188 3 -188 13 80 c7 44 20 128 28
188 l17 107 52 0 c33 0 55 -5 58 -12 2 -7 15 -85 28 -173 l24 -160 3 173 2
172 59 0 c45 0 66 -5 95 -25 l36 -24 0 24 c0 23 4 25 44 25 l44 0 13 -106 c6
-58 15 -100 19 -92 6 11 30 162 30 190 0 4 52 8 115 8 l115 0 0 -45 c0 -45 0
-45 -35 -45 -35 0 -35 0 -35 -45 0 -45 0 -45 35 -45 35 0 35 0 35 -45 0 -45 0
-45 -35 -45 -35 0 -35 0 -35 -45 0 -45 0 -45 35 -45 35 0 35 0 35 -45 l0 -45
-75 0 -75 0 -1 173 -1 172 -24 -140 c-38 -231 -27 -205 -84 -205 -43 0 -50 3
-55 23 -7 31 -35 200 -35 211 0 5 -11 -7 -24 -27 l-25 -36 24 -78 c14 -43 25
-82 25 -86 0 -5 -19 -7 -42 -5 l-42 3 -16 64 c-22 91 -40 92 -40 2 l0 -71 -74
0 c-77 0 -86 5 -86 51 0 14 -7 19 -29 19 -29 0 -41 -14 -41 -51 0 -17 -8 -19
-80 -19 l-80 0 -1 78 c-1 82 -1 83 -24 -45 -5 -27 -11 -33 -30 -33 -26 0 -27
2 -44 95 l-9 50 -1 -72 -1 -73 -45 0 -45 0 0 225 0 225 55 0 c48 0 55 -3 60
-22z m1065 -157 l0 -180 33 -3 c30 -3 32 -6 35 -45 l3 -43 -75 0 -76 0 -1 108
c0 59 -1 160 -2 225 l-2 117 43 0 42 0 0 -179z m-6472 70 c12 -11 22 -26 22
-35 0 -8 5 -18 10 -21 6 -3 10 1 10 9 0 8 4 17 10 21 10 6 49 -63 44 -80 -1
-5 -5 -22 -8 -37 -4 -16 -13 -28 -20 -28 -19 0 -24 -26 -14 -74 7 -29 5 -48
-7 -73 -20 -41 -35 -43 -35 -3 0 17 -7 42 -16 55 -9 13 -14 37 -13 52 3 36
-10 93 -21 93 -5 0 -14 9 -20 21 -10 17 -8 21 9 26 26 7 27 19 4 32 -17 10
-17 10 -1 11 9 0 20 -4 23 -10 9 -14 37 -12 33 2 -3 7 -15 15 -29 18 -13 3
-25 14 -27 23 -4 22 17 21 46 -2z m7198 -29 c-12 -11 -18 7 -10 30 l8 23 4
-23 c2 -13 1 -26 -2 -30z m-7309 23 c0 -9 -11 -18 -24 -21 -24 -6 -53 -39 -53
-60 0 -7 16 -21 35 -33 31 -18 34 -24 25 -41 -14 -27 -3 -69 29 -103 l25 -28
-22 -6 c-26 -6 -27 -10 -6 -31 11 -10 13 -17 5 -20 -6 -2 -11 -11 -11 -20 0
-8 -7 -23 -16 -33 -14 -16 -14 -18 5 -24 12 -3 21 -10 21 -15 0 -15 -43 -40
-68 -40 -24 0 -44 31 -24 38 25 8 11 24 -18 20 -18 -3 -35 1 -41 9 -6 7 -18
13 -25 13 -8 0 -14 4 -14 10 0 5 7 7 15 4 8 -4 15 -1 15 5 0 6 6 8 14 5 8 -3
17 -1 21 5 3 6 17 11 31 11 15 0 23 4 19 11 -4 6 2 13 14 16 17 4 20 10 14 32
-8 35 -8 35 -48 34 -38 -1 -39 0 -49 119 -3 41 -1 58 9 61 7 3 11 16 9 29 -6
30 6 47 36 53 12 2 25 7 28 10 12 12 49 4 49 -10z m7053 -25 c0 -5 -4 -10 -10
-10 -5 0 -10 5 -10 10 0 6 5 10 10 10 6 0 10 -4 10 -10z m-7610 -24 c0 -3 -4
-8 -10 -11 -5 -3 -10 -1 -10 4 0 6 5 11 10 11 6 0 10 -2 10 -4z m8706 -53 c19
-20 27 -24 33 -14 6 10 12 9 25 -4 25 -26 18 -85 -10 -85 -11 0 -13 7 -8 28 6
23 5 25 -8 14 -13 -10 -17 -8 -28 18 -7 16 -18 35 -26 41 -14 11 -19 29 -9 29
3 0 17 -12 31 -27z m-96 -3 c46 -53 50 -117 8 -105 -22 7 -22 6 -4 -7 30 -23
10 -38 -52 -39 -90 -1 -157 -13 -154 -27 3 -17 -17 -15 -24 2 -4 11 -21 13
-75 9 -56 -4 -69 -2 -69 10 0 8 6 19 13 24 12 10 212 99 277 123 19 7 39 17
45 22 13 11 15 11 35 -12z m-1030 -40 c19 -6 62 -11 95 -11 65 0 95 -6 95 -18
0 -15 -76 -21 -158 -11 -96 11 -110 17 -85 36 10 7 18 14 18 14 0 0 16 -5 35
-10z m2270 -10 c0 -5 -5 -10 -11 -10 -5 0 -7 5 -4 10 3 6 8 10 11 10 2 0 4 -4
4 -10z m-9886 -66 c3 -9 6 -29 6 -46 l0 -31 -20 26 c-11 14 -20 30 -20 36 0
17 -9 13 -42 -14 -16 -14 -35 -25 -41 -25 -7 1 6 16 28 35 43 37 79 45 89 19z
m7976 -73 c0 -45 -12 -74 -23 -54 -7 14 5 103 14 103 5 0 9 -22 9 -49z m-2380
6 c0 -19 -37 -50 -49 -42 -25 15 -2 55 31 55 10 0 18 -6 18 -13z m-4817 -42
c-3 -9 -8 -14 -10 -11 -3 3 -2 9 2 15 9 16 15 13 8 -4z m7147 -5 c0 -5 -2 -10
-4 -10 -3 0 -8 5 -11 10 -3 6 -1 10 4 10 6 0 11 -4 11 -10z m738 -2 c-2 -7 4
-12 13 -10 24 4 32 -27 14 -54 -13 -20 -24 -24 -70 -24 -59 0 -155 18 -155 28
1 13 49 42 54 33 6 -8 119 18 132 32 11 10 14 9 12 -5z m129 -14 c4 -11 -1
-22 -12 -30 -25 -19 -35 -17 -35 4 0 10 -5 23 -12 30 -9 9 -5 12 20 12 21 0
35 -6 39 -16z m342 -44 c-12 -22 -26 -37 -31 -34 -13 8 -10 18 12 42 12 12 18
22 15 22 -3 0 -3 5 0 10 4 6 11 8 16 4 5 -3 0 -22 -12 -44z m-1441 -31 c96
-58 131 -83 126 -90 -6 -11 -84 0 -102 14 -7 6 -49 12 -93 15 -43 3 -79 8 -79
12 0 16 97 20 146 6 l49 -15 -35 29 c-19 17 -52 35 -72 40 -21 6 -38 13 -38
15 0 11 65 -6 98 -26z m-6922 -36 c-8 -15 -15 -25 -16 -21 0 12 23 58 27 54 3
-2 -2 -17 -11 -33z m7455 -10 c13 -16 12 -17 -3 -4 -17 13 -22 21 -14 21 2 0
10 -8 17 -17z m483 11 c21 -8 20 -41 -1 -52 -24 -12 -222 -22 -228 -12 -8 12
10 21 94 46 80 24 109 28 135 18z m76 -15 c0 -6 -4 -7 -10 -4 -5 3 -10 11 -10
16 0 6 5 7 10 4 6 -3 10 -11 10 -16z m310 -10 c0 -11 -4 -18 -10 -14 -5 3 -7
12 -3 20 7 21 13 19 13 -6z m-8221 -72 c-2 -36 -3 -37 -7 -12 l-5 30 -7 -25
c-7 -22 -8 -21 -9 11 -1 20 2 39 5 42 14 14 24 -6 23 -46z m7014 21 c18 -13
34 -24 36 -25 2 -2 2 -5 -1 -8 -7 -7 -63 22 -78 40 -19 23 5 19 43 -7z m1188
-29 c-6 -17 -11 -41 -11 -53 0 -24 -16 -53 -24 -45 -3 3 -1 21 4 40 5 18 12
51 15 73 5 27 10 35 17 28 7 -7 7 -20 -1 -43z m-8364 -52 c-17 -48 -35 -87
-39 -87 -8 0 8 49 42 128 34 80 33 57 -3 -41z m8001 71 c29 -29 14 -46 -51
-57 -78 -14 -117 -14 -117 -1 0 12 28 27 94 50 63 23 60 22 74 8z m32 2 c0 -5
-2 -10 -4 -10 -3 0 -8 5 -11 10 -3 6 -1 10 4 10 6 0 11 -4 11 -10z m-7814 -75
c9 -39 0 -30 -15 15 -6 19 -7 30 -2 25 5 -6 13 -23 17 -40z m7039 35 c3 -5 2
-10 -4 -10 -5 0 -13 5 -16 10 -3 6 -2 10 4 10 5 0 13 -4 16 -10z m865 -39
c-20 -30 -40 -44 -23 -18 27 42 38 56 41 52 2 -2 -6 -18 -18 -34z m-7960 11
c0 -5 -7 -17 -15 -28 -14 -18 -14 -17 -4 9 12 27 19 34 19 19z m7058 -43 c23
-22 42 -46 42 -52 0 -6 17 -28 37 -49 20 -21 32 -38 27 -38 -6 0 -21 11 -34
25 -25 27 -53 34 -44 11 3 -8 0 -17 -7 -22 -9 -5 -10 1 -6 25 6 28 1 38 -33
75 -37 40 -50 66 -32 66 4 0 26 -19 50 -41z m782 7 c0 -29 -21 -36 -108 -36
-80 0 -79 17 4 41 85 25 104 24 104 -5z m-8543 -27 c-6 -10 -13 -15 -15 -9 -6
17 7 42 18 35 6 -4 5 -13 -3 -26z m790 -11 c-3 -8 -6 -5 -6 6 -1 11 2 17 5 13
3 -3 4 -12 1 -19z m8291 10 c-2 -6 -10 -14 -16 -16 -7 -2 -10 2 -6 12 7 18 28
22 22 4z m-3690 -4 c12 -4 22 -11 22 -16 0 -5 -4 -6 -10 -3 -5 3 -10 2 -10 -2
0 -5 9 -14 19 -20 15 -10 21 -10 25 0 5 9 7 9 12 0 3 -6 19 -30 35 -53 16 -22
32 -55 36 -73 l6 -32 -30 40 c-35 48 -92 99 -133 120 -53 28 -34 55 28 39z
m3487 -64 c-1 -30 -9 -57 -23 -77 -12 -17 -22 -36 -22 -41 0 -6 -5 -14 -12
-18 -8 -5 -9 2 -4 27 11 50 11 51 26 82 12 24 12 30 -1 38 -10 6 -10 9 -1 9 6
0 12 11 12 25 0 21 3 23 13 14 7 -7 13 -32 12 -59z m-8927 44 c-2 -10 -47 -40
-104 -69 -56 -29 -127 -66 -158 -84 -35 -20 -63 -30 -75 -26 -21 6 -81 -46
-81 -72 0 -8 -6 -13 -12 -10 -7 2 -21 -2 -30 -11 -16 -14 -18 -13 -18 7 0 13
9 25 23 30 13 5 43 27 67 50 26 25 64 47 94 56 28 9 103 45 166 79 63 35 119
64 123 65 5 1 7 -6 5 -15z m8637 -10 c-28 -22 -55 -36 -55 -29 0 9 23 31 40
38 28 11 35 6 15 -9z m-8022 -16 c-13 -12 -26 -18 -30 -14 -4 4 1 14 11 22 31
22 43 17 19 -8z m7921 2 c16 0 26 -3 23 -7 -4 -3 -2 -12 5 -20 6 -7 8 -16 4
-20 -7 -8 -132 15 -159 29 -33 17 -7 31 47 24 28 -3 64 -6 80 -6z m100 -24
c-3 -8 -12 -17 -20 -20 -11 -4 -12 -2 -1 14 14 23 29 27 21 6z m-1149 -136
c86 -139 97 -159 144 -263 34 -74 35 -77 23 -77 -9 0 -52 97 -52 116 0 6 -9
22 -20 35 -12 12 -31 39 -43 59 -11 19 -43 65 -69 101 -35 49 -48 76 -48 100
l0 34 22 -35 c11 -19 31 -51 43 -70z m72 20 c-2 -58 -2 -59 -20 -42 -16 17
-16 21 -2 48 8 16 15 35 15 42 0 6 2 12 4 12 2 0 3 -27 3 -60z m1013 39 c9
-15 8 -24 0 -34 -9 -11 -9 -23 -2 -45 9 -25 8 -31 -8 -40 -28 -15 -96 -12
-110 5 -10 12 -8 16 11 24 13 5 36 12 52 15 15 4 27 11 27 16 0 6 -29 7 -75 3
-64 -5 -75 -4 -75 10 0 15 44 35 120 56 49 13 48 13 60 -10z m-730 -30 c0 -5
-4 -9 -10 -9 -5 0 -10 7 -10 16 0 8 5 12 10 9 6 -3 10 -10 10 -16z m855 -21
c5 4 -2 -8 -14 -25 -23 -34 -38 -38 -58 -13 -19 23 -16 42 6 35 11 -3 22 -1
26 5 5 8 11 8 19 1 7 -6 17 -7 21 -3z m-617 -96 c-2 -12 -10 -5 -26 21 -28 49
-28 52 4 21 14 -14 24 -33 22 -42z m2482 -49 c-1 -10 -39 39 -40 51 0 5 9 -3
20 -17 11 -14 20 -29 20 -34z m-5007 -55 c-21 -36 -94 -78 -207 -120 -85 -31
-209 -61 -201 -48 3 5 20 11 38 15 50 11 191 59 203 70 6 6 37 24 69 40 41 21
66 42 84 71 21 33 27 38 29 23 2 -11 -5 -34 -15 -51z m3130 52 c17 -20 16 -22
-21 -58 l-39 -37 -1 44 c-1 31 3 48 16 57 23 18 25 17 45 -6z m-8825 -21 c30
-29 40 -49 26 -49 -10 0 -34 28 -34 39 0 6 -7 11 -16 11 -8 0 -13 4 -10 9 4 5
0 12 -6 14 -7 3 -8 6 -2 6 5 1 25 -13 42 -30z m8706 -17 l2 -42 -113 0 c-62 0
-113 2 -113 5 0 12 194 87 214 82 4 -2 9 -22 10 -45z m-8634 -32 c0 -5 -4 -10
-10 -10 -5 0 -10 5 -10 10 0 6 5 10 10 10 6 0 10 -4 10 -10z m1106 -17 c-10
-10 -19 5 -10 18 6 11 8 11 12 0 2 -7 1 -15 -2 -18z m6824 8 c15 -29 12 -50
-4 -28 -7 9 -18 17 -25 17 -6 0 -11 7 -11 15 0 22 27 19 40 -4z m-6930 0 c0
-14 -18 -23 -30 -16 -6 4 -8 11 -5 16 8 12 35 12 35 0z m50 -6 c0 -8 -7 -15
-15 -15 -16 0 -20 12 -8 23 11 12 23 8 23 -8z m6785 5 c3 -5 2 -10 -4 -10 -5
0 -13 5 -16 10 -3 6 -2 10 4 10 5 0 13 -4 16 -10z m849 -39 c4 -5 24 -12 46
-16 22 -4 40 -11 40 -15 0 -18 -32 -40 -58 -40 -15 0 -36 -7 -46 -15 -16 -12
-17 -17 -6 -30 7 -8 23 -15 36 -15 25 0 28 -3 37 -40 5 -22 2 -28 -23 -37 -24
-9 -30 -9 -30 2 0 8 5 17 10 20 6 3 10 14 9 23 0 13 -2 12 -9 -4 -14 -34 -27
-37 -73 -15 -45 22 -159 115 -151 124 2 2 26 1 52 -4 106 -19 117 -20 102 -10
-8 6 -40 15 -70 21 -30 6 -68 13 -83 17 -54 10 -10 28 86 34 51 3 100 6 109 7
9 1 19 -2 22 -7z m-173 -139 c14 -9 49 -32 77 -51 51 -33 63 -53 41 -67 -6 -3
-9 -15 -6 -25 4 -15 2 -17 -12 -9 -17 9 -141 153 -141 164 0 10 14 6 41 -12z
m314 -12 c-4 -12 -2 -27 5 -35 8 -9 8 -15 0 -20 -8 -5 -8 -10 0 -20 8 -9 8
-15 0 -20 -19 -12 -28 5 -25 48 2 23 4 48 4 55 1 6 6 12 12 12 6 0 8 -9 4 -20z
m-330 -97 c28 -31 69 -78 93 -103 44 -49 51 -63 28 -54 -8 3 -17 1 -21 -5 -24
-39 -109 42 -144 137 -36 101 -27 106 44 25z m-689 -9 c7 -39 -7 -150 -28
-222 -11 -39 -11 -43 10 -58 12 -8 22 -26 22 -38 0 -24 22 -51 33 -40 3 3 8
-3 11 -13 4 -11 27 -35 52 -54 47 -35 69 -63 60 -77 -3 -4 11 -28 30 -51 19
-24 34 -45 34 -46 0 -1 -22 -1 -49 -1 -42 1 -55 7 -107 50 -32 27 -73 65 -89
84 -39 43 -69 41 -73 -5 -3 -26 2 -35 25 -50 94 -59 127 -104 84 -116 -16 -4
-18 -10 -12 -33 5 -21 2 -33 -12 -47 -10 -10 -16 -25 -13 -32 12 -32 -69 21
-216 143 -53 43 -61 41 -53 -10 4 -32 3 -39 -4 -28 -6 8 -11 31 -12 50 0 19
-3 70 -5 113 -3 45 -2 77 4 77 5 0 49 -18 97 -40 48 -23 88 -40 89 -38 10 14
28 70 23 74 -3 3 -18 -2 -34 -12 l-28 -18 23 25 c12 14 22 31 22 38 0 13 -59
103 -122 186 -21 28 -38 53 -38 58 0 15 22 6 53 -22 67 -60 141 -121 147 -121
16 0 52 156 54 231 1 84 11 102 22 43z m591 -41 c80 -94 104 -130 118 -178 14
-44 14 -46 -8 -54 -13 -5 -27 -5 -34 1 -9 7 -13 7 -13 0 0 -6 4 -13 9 -16 12
-8 -10 -54 -28 -61 -18 -7 -74 46 -112 104 -54 83 -35 87 57 12 27 -23 50 -37
52 -32 2 6 -13 37 -32 71 -44 75 -89 187 -81 200 11 18 21 11 72 -47z m309 8
c9 -21 8 -36 -2 -61 -13 -30 -43 -38 -35 -9 2 8 4 30 3 49 0 58 17 68 34 21z
m114 -52 c0 -6 -7 -9 -14 -6 -10 4 -13 1 -9 -9 3 -7 10 -14 16 -14 6 0 8 -3 4
-6 -3 -3 -15 -3 -26 1 -23 7 -28 30 -8 38 21 9 37 7 37 -4z m-28 -106 c-1 -21
-6 -39 -11 -41 -5 -2 -7 -11 -4 -21 5 -21 -18 -70 -58 -121 -15 -19 -30 -45
-34 -58 -5 -16 -12 -22 -23 -17 -8 3 -19 0 -23 -6 -4 -7 -15 -9 -25 -5 -16 6
-15 10 12 34 17 15 46 50 65 77 19 28 38 53 43 56 5 4 5 12 1 18 -4 7 -1 18 5
26 6 8 9 19 5 25 -10 16 5 50 23 50 12 0 13 3 4 12 -7 7 -12 19 -12 27 0 13 2
13 17 -1 10 -11 16 -31 15 -55z m-672 -71 c180 -121 190 -132 176 -186 -3 -11
-19 -29 -36 -39 l-30 -18 -69 73 c-38 40 -95 107 -128 148 -33 41 -72 86 -86
99 -24 21 -28 42 -9 41 4 -1 86 -54 182 -118z m2855 76 c-7 -31 -34 -73 -42
-64 -2 2 3 16 11 32 8 16 17 37 20 47 9 30 18 18 11 -15z m-2305 -12 c0 -13 3
-33 6 -43 5 -15 4 -16 -5 -3 -8 11 -13 12 -19 3 -4 -6 -19 -9 -34 -6 l-27 5
32 34 c38 40 47 42 47 10z m2241 -122 c0 -23 -8 -61 -16 -85 -25 -70 -45 -167
-45 -217 0 -26 -5 -54 -10 -62 -26 -40 -2 162 27 229 9 19 17 83 21 155 6 112
7 117 15 71 5 -27 9 -69 8 -91z m-2611 41 c104 -82 115 -97 98 -125 -21 -34
-19 -35 -155 118 -35 39 -63 73 -63 77 0 17 39 -6 120 -70z m-321 -59 c92 -74
181 -167 181 -188 0 -52 -114 24 -178 120 -22 32 -47 64 -56 72 -10 7 -22 22
-27 32 -18 33 11 20 80 -36z m538 17 c-15 -16 -17 -16 -17 -1 0 9 6 18 13 21
20 7 22 -2 4 -20z m123 -13 c-6 -12 -14 -19 -17 -17 -2 3 1 15 7 27 6 12 14
19 17 17 2 -3 -1 -15 -7 -27z m-135 -40 c-3 -5 -10 -10 -16 -10 -5 0 -9 5 -9
10 0 6 7 10 16 10 8 0 12 -4 9 -10z m85 -20 c0 -5 -5 -10 -11 -10 -5 0 -7 5
-4 10 3 6 8 10 11 10 2 0 4 -4 4 -10z m-160 -56 c0 -16 -2 -16 -24 -8 -13 5
-14 9 -5 20 13 16 29 9 29 -12z m44 -29 c-7 -17 -51 -31 -62 -20 -9 9 27 35
50 35 11 0 15 -5 12 -15z m164 -25 c-13 -20 -28 -27 -28 -12 0 10 22 32 32 32
5 0 3 -9 -4 -20z m-303 -55 c-37 -30 -55 -31 -55 -4 0 11 4 17 10 14 5 -3 18
-1 27 4 36 21 48 11 18 -14z m-142 -20 c-5 -16 -33 -21 -33 -7 0 13 22 32 31
26 5 -2 6 -11 2 -19z m41 -32 c-13 -4 -7 -43 7 -43 5 0 9 -4 9 -10 0 -5 -20
-10 -45 -10 -28 0 -65 -10 -100 -27 -42 -21 -60 -25 -72 -17 -24 15 -27 31 -6
37 10 4 29 14 43 24 23 17 24 17 17 1 -7 -19 17 -26 28 -8 3 6 19 10 35 10 22
0 29 5 32 23 2 14 9 21 20 19 9 -1 20 2 23 8 4 6 10 8 14 4 3 -4 1 -9 -5 -11z
m-697 -86 c6 -13 45 -45 87 -72 42 -27 76 -53 76 -57 0 -4 -29 -8 -65 -8 -37
0 -65 4 -65 10 0 6 8 10 18 11 9 0 -4 7 -29 14 -26 7 -52 15 -58 19 -12 8 -15
88 -4 99 13 14 30 7 40 -16z m953 4 c0 -5 -7 -14 -15 -21 -12 -10 -15 -10 -15
2 0 8 3 18 7 21 9 10 23 9 23 -2z m-503 -29 c-10 -10 -17 -23 -17 -29 0 -12
-23 -23 -46 -23 -19 0 46 68 65 69 11 1 11 -3 -2 -17z m-138 -93 c-8 -16 -8
-20 1 -14 20 12 60 -4 60 -25 0 -11 -5 -20 -12 -20 -6 0 -4 -7 5 -18 10 -10
17 -22 17 -25 0 -15 -20 -5 -63 33 -25 22 -52 40 -61 40 -29 0 -17 29 17 39
47 14 49 13 36 -10z m515 -4 c-10 -8 -27 -15 -36 -15 -9 0 -20 -4 -23 -10 -3
-5 -12 -10 -18 -10 -23 1 48 50 72 50 24 0 24 0 5 -15z m-214 -35 c0 -5 -4
-10 -10 -10 -5 0 -10 5 -10 10 0 6 5 10 10 10 6 0 10 -4 10 -10z m-425 -43 c6
0 18 4 28 8 14 6 17 2 17 -19 0 -20 -4 -24 -17 -19 -13 5 -15 2 -10 -11 4 -10
4 -16 0 -14 -16 8 -59 26 -86 37 -39 16 -24 33 21 25 20 -4 42 -7 47 -7z
m-124 -41 c-9 -11 -6 -18 15 -35 40 -31 24 -35 -19 -4 -43 31 -44 35 -14 49
27 12 34 9 18 -10z m-97 -72 c3 -8 2 -12 -4 -9 -6 3 -10 10 -10 16 0 14 7 11
14 -7z"/>
<path d="M14357 7943 c-4 -3 -7 -15 -7 -26 0 -16 3 -17 15 -7 8 7 15 19 15 26
0 15 -12 19 -23 7z"/>
<path d="M12919 7918 c-5 -41 5 -176 13 -191 6 -12 16 -16 28 -12 10 3 21 2
24 -3 3 -5 17 -7 31 -4 22 4 25 1 25 -25 0 -28 2 -29 47 -32 29 -1 49 3 55 11
6 11 10 11 17 -1 5 -7 11 -9 14 -4 10 16 -94 131 -173 191 -16 13 -30 29 -30
37 0 18 -50 50 -51 33z"/>
<path d="M14234 7908 c3 -13 6 -26 6 -30 0 -17 18 -6 28 17 16 35 16 35 -14
35 -22 0 -25 -3 -20 -22z"/>
<path d="M14395 7830 c-3 -5 1 -10 9 -10 9 0 16 5 16 10 0 6 -4 10 -9 10 -6 0
-13 -4 -16 -10z"/>
<path d="M14234 7815 c-7 -17 14 -48 27 -40 4 3 14 -5 21 -17 l12 -23 7 30
c13 60 12 65 -26 65 -23 0 -38 -6 -41 -15z"/>
<path d="M14242 7729 c1 -13 8 -23 13 -21 15 3 12 35 -3 40 -9 3 -13 -3 -10
-19z"/>
<path d="M14080 7690 c0 -5 9 -10 20 -10 11 0 20 5 20 10 0 6 -9 10 -20 10
-11 0 -20 -4 -20 -10z"/>
<path d="M14232 7638 c2 -13 10 -23 18 -23 8 0 16 10 18 23 3 17 -2 22 -18 22
-16 0 -21 -5 -18 -22z"/>
<path d="M13979 7629 c-8 -77 -5 -98 15 -103 34 -9 36 -8 36 27 0 33 -49 105
-51 76z"/>
<path d="M14085 7590 c-3 -5 3 -10 14 -10 12 0 21 5 21 10 0 6 -6 10 -14 10
-8 0 -18 -4 -21 -10z"/>
<path d="M14237 7574 c-4 -4 -7 -17 -7 -28 1 -19 1 -20 11 -3 11 19 8 43 -4
31z"/>
<path d="M13050 7540 c0 -5 5 -10 10 -10 6 0 10 5 10 10 0 6 -4 10 -10 10 -5
0 -10 -4 -10 -10z"/>
<path d="M13160 7479 c0 -5 5 -7 10 -4 6 3 10 8 10 11 0 2 -4 4 -10 4 -5 0
-10 -5 -10 -11z"/>
<path d="M14231 7453 c0 -25 1 -26 9 -8 12 27 12 35 0 35 -5 0 -10 -12 -9 -27z"/>
<path d="M13960 7461 c0 -5 5 -13 10 -16 6 -3 10 -2 10 4 0 5 -4 13 -10 16 -5
3 -10 2 -10 -4z"/>
<path d="M14230 7371 c0 -25 6 -27 13 -6 4 8 2 17 -3 20 -6 4 -10 -3 -10 -14z"/>
<path d="M14230 7280 c0 -19 3 -21 12 -12 9 9 9 15 0 24 -9 9 -12 7 -12 -12z"/>
<path d="M14227 7201 c-3 -12 -1 -24 4 -27 13 -8 24 25 12 37 -7 7 -12 3 -16
-10z"/>
<path d="M14227 7123 c-3 -5 -1 -17 4 -28 7 -17 8 -17 8 8 1 27 -4 34 -12 20z"/>
<path d="M14224 7029 c-3 -6 -1 -16 5 -22 8 -8 11 -5 11 11 0 24 -5 28 -16 11z"/>
<path d="M14190 6925 c0 -14 2 -25 4 -25 2 0 6 11 8 25 3 14 1 25 -3 25 -5 0
-9 -11 -9 -25z"/>
<path d="M14220 6931 c0 -12 5 -21 10 -21 6 0 10 6 10 14 0 8 -4 18 -10 21 -5
3 -10 -3 -10 -14z"/>
<path d="M14195 6870 c-3 -5 -1 -10 4 -10 6 0 11 5 11 10 0 6 -2 10 -4 10 -3
0 -8 -4 -11 -10z"/>
<path d="M14338 6758 c7 -7 12 -24 12 -40 0 -17 7 -31 21 -38 15 -9 18 -15 9
-24 -5 -8 -7 -21 -4 -31 7 -17 8 -17 21 1 7 10 13 37 13 61 0 24 5 43 11 43 6
0 9 6 6 13 -2 6 -14 11 -25 9 -12 -2 -22 2 -22 7 0 6 -12 11 -27 11 -21 0 -24
-3 -15 -12z"/>
<path d="M13925 6640 c3 -5 10 -10 16 -10 5 0 9 5 9 10 0 6 -7 10 -16 10 -8 0
-12 -4 -9 -10z"/>
<path d="M14256 6621 c-11 -18 7 -41 24 -31 13 8 13 11 -1 26 -11 11 -19 12
-23 5z"/>
<path d="M14305 6620 c-3 -5 -1 -10 4 -10 6 0 11 5 11 10 0 6 -2 10 -4 10 -3
0 -8 -4 -11 -10z"/>
<path d="M14430 6612 c0 -4 -10 -8 -21 -9 -24 -2 -52 -23 -31 -23 7 0 12 -14
12 -32 0 -18 4 -28 8 -22 4 6 22 15 40 19 24 5 32 11 28 22 -3 8 -6 23 -6 34
0 10 -7 19 -15 19 -8 0 -15 -4 -15 -8z"/>
<path d="M14300 6581 c-14 -4 -20 -10 -14 -13 13 -9 54 1 54 13 0 10 -4 10
-40 0z"/>
<path d="M14443 6500 c-12 -28 -8 -39 8 -23 6 6 9 19 6 29 -3 17 -5 16 -14 -6z"/>
<path d="M14350 6475 c0 -8 7 -15 15 -15 9 0 12 6 9 15 -4 8 -10 15 -15 15 -5
0 -9 -7 -9 -15z"/>
<path d="M12790 7050 c0 -5 5 -10 10 -10 6 0 10 5 10 10 0 6 -4 10 -10 10 -5
0 -10 -4 -10 -10z"/>
<path d="M5390 7046 c0 -36 3 -66 8 -66 16 0 31 17 41 44 13 33 -4 79 -32 84
-15 3 -17 -5 -17 -62z"/>
<path d="M5191 7024 c-1 -17 -4 -52 -7 -78 -6 -42 -5 -46 14 -46 19 0 21 4 15
53 -3 28 -10 63 -14 77 -7 24 -7 24 -8 -6z"/>
<path d="M11500 7046 c0 -36 3 -66 8 -66 16 0 31 17 41 44 13 33 -4 79 -32 84
-15 3 -17 -5 -17 -62z"/>
<path d="M11301 7024 c-1 -17 -4 -52 -7 -78 -6 -42 -5 -46 14 -46 19 0 21 4
15 53 -3 28 -10 63 -14 77 -7 24 -7 24 -8 -6z"/>
<path d="M9495 6850 c-7 -12 2 -12 30 0 19 8 19 9 -2 9 -12 1 -25 -3 -28 -9z"/>
<path d="M7140 6336 c0 -7 8 -31 17 -52 15 -35 17 -36 21 -16 4 27 -16 82 -29
82 -5 0 -9 -6 -9 -14z"/>
<path d="M15658 6285 c-6 -14 -19 -25 -28 -25 -24 0 -31 -10 -20 -30 10 -18
54 -17 66 1 3 5 18 9 34 9 41 0 60 10 60 31 0 23 -29 39 -70 39 -23 0 -33 -6
-42 -25z"/>
<path d="M14844 6260 c-29 -11 -40 -30 -23 -40 22 -14 75 22 63 42 -6 10 -13
9 -40 -2z"/>
<path d="M15655 6200 c3 -5 13 -10 21 -10 8 0 14 5 14 10 0 6 -9 10 -21 10
-11 0 -17 -4 -14 -10z"/>
<path d="M15792 6158 c3 -7 15 -15 27 -16 16 -3 22 1 19 10 -3 7 -15 15 -27
16 -16 3 -22 -1 -19 -10z"/>
<path d="M15962 5928 c6 -18 28 -21 28 -4 0 9 -7 16 -16 16 -9 0 -14 -5 -12
-12z"/>
<path d="M16005 5890 c-9 -15 14 -40 36 -40 21 0 25 20 7 38 -15 15 -35 15
-43 2z"/>
<path d="M14875 5160 c-13 -20 17 -41 54 -38 28 2 36 7 36 23 0 16 -8 21 -42
23 -22 2 -44 -2 -48 -8z"/>
<path d="M12317 5623 c-4 -3 -7 -15 -7 -26 0 -16 3 -17 15 -7 8 7 15 19 15 26
0 15 -12 19 -23 7z"/>
<path d="M10879 5598 c-5 -41 5 -176 13 -191 6 -12 16 -16 28 -12 10 3 21 2
24 -3 3 -5 17 -7 31 -4 22 4 25 1 25 -25 0 -28 2 -29 47 -32 29 -1 49 3 55 11
6 11 10 11 17 -1 5 -7 11 -9 14 -4 10 16 -94 131 -173 191 -16 13 -30 29 -30
37 0 18 -50 50 -51 33z"/>
<path d="M12194 5588 c3 -13 6 -26 6 -30 0 -17 18 -6 28 17 16 35 16 35 -14
35 -22 0 -25 -3 -20 -22z"/>
<path d="M12355 5510 c-3 -5 1 -10 9 -10 9 0 16 5 16 10 0 6 -4 10 -9 10 -6 0
-13 -4 -16 -10z"/>
<path d="M12194 5495 c-7 -17 14 -48 27 -40 4 3 14 -5 21 -17 l12 -23 7 30
c13 60 12 65 -26 65 -23 0 -38 -6 -41 -15z"/>
<path d="M12202 5409 c1 -13 8 -23 13 -21 15 3 12 35 -3 40 -9 3 -13 -3 -10
-19z"/>
<path d="M12040 5370 c0 -5 9 -10 20 -10 11 0 20 5 20 10 0 6 -9 10 -20 10
-11 0 -20 -4 -20 -10z"/>
<path d="M12192 5318 c2 -13 10 -23 18 -23 8 0 16 10 18 23 3 17 -2 22 -18 22
-16 0 -21 -5 -18 -22z"/>
<path d="M11939 5309 c-8 -77 -5 -98 15 -103 34 -9 36 -8 36 27 0 33 -49 105
-51 76z"/>
<path d="M12045 5270 c-3 -5 3 -10 14 -10 12 0 21 5 21 10 0 6 -6 10 -14 10
-8 0 -18 -4 -21 -10z"/>
<path d="M12197 5254 c-4 -4 -7 -17 -7 -28 1 -19 1 -20 11 -3 11 19 8 43 -4
31z"/>
<path d="M11010 5220 c0 -5 5 -10 10 -10 6 0 10 5 10 10 0 6 -4 10 -10 10 -5
0 -10 -4 -10 -10z"/>
<path d="M11120 5159 c0 -5 5 -7 10 -4 6 3 10 8 10 11 0 2 -4 4 -10 4 -5 0
-10 -5 -10 -11z"/>
<path d="M12191 5133 c0 -25 1 -26 9 -8 12 27 12 35 0 35 -5 0 -10 -12 -9 -27z"/>
<path d="M11920 5141 c0 -5 5 -13 10 -16 6 -3 10 -2 10 4 0 5 -4 13 -10 16 -5
3 -10 2 -10 -4z"/>
<path d="M12190 5051 c0 -25 6 -27 13 -6 4 8 2 17 -3 20 -6 4 -10 -3 -10 -14z"/>
<path d="M12190 4960 c0 -19 3 -21 12 -12 9 9 9 15 0 24 -9 9 -12 7 -12 -12z"/>
<path d="M12187 4881 c-3 -12 -1 -24 4 -27 13 -8 24 25 12 37 -7 7 -12 3 -16
-10z"/>
<path d="M12187 4803 c-3 -5 -1 -17 4 -28 7 -17 8 -17 8 8 1 27 -4 34 -12 20z"/>
<path d="M12184 4709 c-3 -6 -1 -16 5 -22 8 -8 11 -5 11 11 0 24 -5 28 -16 11z"/>
<path d="M12150 4605 c0 -14 2 -25 4 -25 2 0 6 11 8 25 3 14 1 25 -3 25 -5 0
-9 -11 -9 -25z"/>
<path d="M12180 4611 c0 -12 5 -21 10 -21 6 0 10 6 10 14 0 8 -4 18 -10 21 -5
3 -10 -3 -10 -14z"/>
<path d="M12155 4550 c-3 -5 -1 -10 4 -10 6 0 11 5 11 10 0 6 -2 10 -4 10 -3
0 -8 -4 -11 -10z"/>
<path d="M12298 4438 c7 -7 12 -24 12 -40 0 -17 7 -31 21 -38 15 -9 18 -15 9
-24 -5 -8 -7 -21 -4 -31 7 -17 8 -17 21 1 7 10 13 37 13 61 0 24 5 43 11 43 6
0 9 6 6 13 -2 6 -14 11 -25 9 -12 -2 -22 2 -22 7 0 6 -12 11 -27 11 -21 0 -24
-3 -15 -12z"/>
<path d="M11885 4320 c3 -5 10 -10 16 -10 5 0 9 5 9 10 0 6 -7 10 -16 10 -8 0
-12 -4 -9 -10z"/>
<path d="M12216 4301 c-11 -18 7 -41 24 -31 13 8 13 11 -1 26 -11 11 -19 12
-23 5z"/>
<path d="M12265 4300 c-3 -5 -1 -10 4 -10 6 0 11 5 11 10 0 6 -2 10 -4 10 -3
0 -8 -4 -11 -10z"/>
<path d="M12390 4292 c0 -4 -10 -8 -21 -9 -24 -2 -52 -23 -31 -23 7 0 12 -14
12 -32 0 -18 4 -28 8 -22 4 6 22 15 40 19 24 5 32 11 28 22 -3 8 -6 23 -6 34
0 10 -7 19 -15 19 -8 0 -15 -4 -15 -8z"/>
<path d="M12260 4261 c-14 -4 -20 -10 -14 -13 13 -9 54 1 54 13 0 10 -4 10
-40 0z"/>
<path d="M12403 4180 c-12 -28 -8 -39 8 -23 6 6 9 19 6 29 -3 17 -5 16 -14 -6z"/>
<path d="M12310 4155 c0 -8 7 -15 15 -15 9 0 12 6 9 15 -4 8 -10 15 -15 15 -5
0 -9 -7 -9 -15z"/>
<path d="M10750 4730 c0 -5 5 -10 10 -10 6 0 10 5 10 10 0 6 -4 10 -10 10 -5
0 -10 -4 -10 -10z"/>
<path d="M7430 4735 c0 -65 10 -81 30 -46 15 29 12 77 -6 95 -8 9 -17 16 -20
16 -2 0 -4 -29 -4 -65z"/>
<path d="M7840 4750 l0 -50 40 0 40 0 0 50 0 50 -40 0 -40 0 0 -50z"/>
<path d="M7220 4690 c0 -19 -3 -52 -6 -72 -6 -34 -4 -38 15 -38 19 0 20 4 15
63 -7 69 -24 102 -24 47z"/>
<path d="M7840 4570 l0 -50 40 0 40 0 0 50 0 50 -40 0 -40 0 0 -50z"/>
<path d="M9470 4735 c0 -65 10 -81 30 -46 15 29 12 77 -6 95 -8 9 -17 16 -20
16 -2 0 -4 -29 -4 -65z"/>
<path d="M9880 4750 l0 -50 40 0 40 0 0 50 0 50 -40 0 -40 0 0 -50z"/>
<path d="M9260 4690 c0 -19 -3 -52 -6 -72 -6 -34 -4 -38 15 -38 19 0 20 4 15
63 -7 69 -24 102 -24 47z"/>
<path d="M9880 4570 l0 -50 40 0 40 0 0 50 0 50 -40 0 -40 0 0 -50z"/>
<path d="M13550 4735 c0 -65 10 -81 30 -46 15 29 12 77 -6 95 -8 9 -17 16 -20
16 -2 0 -4 -29 -4 -65z"/>
<path d="M13960 4750 l0 -50 40 0 40 0 0 50 0 50 -40 0 -40 0 0 -50z"/>
<path d="M13340 4683 c0 -16 -3 -45 -6 -65 -6 -35 -5 -38 16 -38 20 0 22 4 16
31 -3 17 -6 47 -6 65 0 19 -4 34 -10 34 -5 0 -10 -12 -10 -27z"/>
<path d="M13960 4570 l0 -50 40 0 40 0 0 50 0 50 -40 0 -40 0 0 -50z"/>
<path d="M5110 4016 c0 -7 8 -31 17 -52 15 -35 17 -36 21 -16 4 27 -16 82 -29
82 -5 0 -9 -6 -9 -14z"/>
<path d="M12528 3673 c7 -3 16 -2 19 1 4 3 -2 6 -13 5 -11 0 -14 -3 -6 -6z"/>
<path d="M12526 3622 c-6 -10 22 -47 30 -40 3 4 3 16 -1 27 -6 21 -20 27 -29
13z"/>
<path d="M5390 2416 c0 -36 3 -66 8 -66 16 0 31 17 41 44 13 33 -4 79 -32 84
-15 3 -17 -5 -17 -62z"/>
<path d="M5191 2394 c-1 -17 -4 -52 -7 -78 -6 -42 -5 -46 14 -46 19 0 21 4 15
53 -3 28 -10 63 -14 77 -7 24 -7 24 -8 -6z"/>
<path d="M9460 2416 c0 -36 3 -66 8 -66 16 0 31 17 41 44 13 33 -4 79 -32 84
-15 3 -17 -5 -17 -62z"/>
<path d="M9261 2394 c-1 -17 -4 -52 -7 -78 -6 -42 -5 -46 14 -46 19 0 21 4 15
53 -3 28 -10 63 -14 77 -7 24 -7 24 -8 -6z"/>
<path d="M11500 2416 c0 -36 3 -66 8 -66 16 0 31 17 41 44 13 33 -4 79 -32 84
-15 3 -17 -5 -17 -62z"/>
<path d="M11301 2394 c-1 -17 -4 -52 -7 -78 -6 -42 -5 -46 14 -46 19 0 21 4
15 53 -3 28 -10 63 -14 77 -7 24 -7 24 -8 -6z"/>
<path d="M13540 2416 c0 -36 3 -66 8 -66 16 0 31 17 41 44 13 33 -4 79 -32 84
-15 3 -17 -5 -17 -62z"/>
<path d="M13341 2394 c-1 -17 -4 -52 -7 -78 -6 -42 -5 -46 14 -46 19 0 21 4
15 53 -3 28 -10 63 -14 77 -7 24 -7 24 -8 -6z"/>
<path d="M7455 2220 c-7 -12 2 -12 30 0 19 8 19 9 -2 9 -12 1 -25 -3 -28 -9z"/>
<path d="M4568 9274 c-56 -30 -58 -42 -58 -414 0 -381 2 -394 65 -424 30 -15
485 -16 4939 -14 l4906 3 32 33 33 32 0 365 0 365 -33 32 -32 33 -4913 2
c-4331 2 -4915 0 -4939 -13z m402 -384 l0 -90 30 0 c20 0 30 -5 30 -15 0 -12
-17 -15 -90 -15 -73 0 -90 3 -90 15 0 10 10 15 30 15 l30 0 0 75 c0 60 -3 75
-15 75 -8 0 -15 7 -15 15 0 11 12 15 45 15 l45 0 0 -90z m7220 75 c0 -8 7 -15
15 -15 8 0 15 -7 15 -15 0 -10 -10 -15 -30 -15 -20 0 -30 5 -30 15 0 11 -12
15 -45 15 -43 0 -45 -1 -45 -30 l0 -30 60 0 c47 0 60 -3 60 -15 0 -8 7 -15 15
-15 10 0 15 -10 15 -30 0 -20 -5 -30 -15 -30 -8 0 -15 -7 -15 -15 0 -12 -15
-15 -75 -15 -60 0 -75 3 -75 15 0 8 -7 15 -15 15 -8 0 -15 7 -15 15 0 10 10
15 30 15 20 0 30 -5 30 -15 0 -11 12 -15 45 -15 43 0 45 1 45 30 l0 30 -60 0
c-47 0 -60 3 -60 15 0 8 -7 15 -15 15 -10 0 -15 10 -15 30 0 20 5 30 15 30 8
0 15 7 15 15 0 12 15 15 75 15 60 0 75 -3 75 -15z m1680 0 c0 -12 -13 -15 -60
-15 -47 0 -60 -3 -60 -15 0 -12 13 -15 60 -15 47 0 60 -3 60 -15 0 -8 7 -15
15 -15 11 0 15 -12 15 -45 0 -33 -4 -45 -15 -45 -8 0 -15 -7 -15 -15 0 -12
-15 -15 -75 -15 -60 0 -75 3 -75 15 0 8 -7 15 -15 15 -8 0 -15 7 -15 15 0 10
10 15 30 15 20 0 30 -5 30 -15 0 -11 12 -15 45 -15 l45 0 0 45 0 45 -75 0 -75
0 0 45 0 45 90 0 c73 0 90 -3 90 -15z m240 0 c0 -8 7 -15 15 -15 10 0 15 -10
15 -30 0 -20 -5 -30 -15 -30 -8 0 -15 -7 -15 -15 0 -8 -7 -15 -15 -15 -8 0
-15 -7 -15 -15 0 -10 -10 -15 -30 -15 -20 0 -30 -5 -30 -15 0 -12 13 -15 60
-15 47 0 60 -3 60 -15 0 -12 -18 -15 -105 -15 l-105 0 0 30 c0 20 5 30 15 30
8 0 15 7 15 15 0 8 7 15 15 15 8 0 15 7 15 15 0 10 10 15 30 15 20 0 30 5 30
15 0 8 7 15 15 15 8 0 15 7 15 15 0 11 -12 15 -45 15 -33 0 -45 -4 -45 -15 0
-10 -10 -15 -30 -15 -20 0 -30 5 -30 15 0 8 7 15 15 15 8 0 15 7 15 15 0 12
15 15 75 15 60 0 75 -3 75 -15z m-780 -45 c0 -27 -3 -30 -30 -30 -27 0 -30 3
-30 30 0 27 3 30 30 30 27 0 30 -3 30 -30z m-8210 -60 l0 -60 45 0 45 0 0 60
0 60 30 0 30 0 0 -75 0 -75 -90 0 c-73 0 -90 3 -90 15 0 8 -7 15 -15 15 -12 0
-15 13 -15 60 l0 60 30 0 30 0 0 -60z m390 45 c0 -12 -15 -15 -75 -15 l-75 0
0 -45 0 -45 75 0 c60 0 75 -3 75 -15 0 -12 -17 -15 -90 -15 -73 0 -90 3 -90
15 0 8 -7 15 -15 15 -11 0 -15 12 -15 45 0 33 4 45 15 45 8 0 15 7 15 15 0 12
17 15 90 15 73 0 90 -3 90 -15z m210 0 c0 -8 7 -15 15 -15 12 0 15 -13 15 -60
l0 -60 -90 0 c-73 0 -90 3 -90 15 0 8 -7 15 -15 15 -8 0 -15 7 -15 15 0 8 7
15 15 15 8 0 15 7 15 15 0 12 13 15 60 15 47 0 60 3 60 15 0 12 -13 15 -60 15
-47 0 -60 3 -60 15 0 12 15 15 75 15 60 0 75 -3 75 -15z m6740 0 c0 -12 -15
-15 -75 -15 l-75 0 0 -45 0 -45 75 0 c60 0 75 -3 75 -15 0 -12 -17 -15 -90
-15 -73 0 -90 3 -90 15 0 8 -7 15 -15 15 -11 0 -15 12 -15 45 0 33 4 45 15 45
8 0 15 7 15 15 0 12 17 15 90 15 73 0 90 -3 90 -15z m210 0 c0 -8 7 -15 15
-15 11 0 15 -12 15 -45 0 -33 -4 -45 -15 -45 -8 0 -15 -7 -15 -15 0 -12 -15
-15 -75 -15 -60 0 -75 3 -75 15 0 8 -7 15 -15 15 -11 0 -15 12 -15 45 0 33 4
45 15 45 8 0 15 7 15 15 0 12 15 15 75 15 60 0 75 -3 75 -15z m150 0 c0 -8 7
-15 15 -15 8 0 15 7 15 15 0 11 12 15 45 15 33 0 45 -4 45 -15 0 -11 -12 -15
-45 -15 -33 0 -45 -4 -45 -15 0 -8 -7 -15 -15 -15 -11 0 -15 -12 -15 -45 0
-43 -1 -45 -30 -45 l-30 0 0 75 0 75 30 0 c20 0 30 -5 30 -15z m330 0 c0 -8 7
-15 15 -15 10 0 15 -10 15 -30 l0 -30 -75 0 c-60 0 -75 -3 -75 -15 0 -12 13
-15 60 -15 47 0 60 -3 60 -15 0 -12 -15 -15 -75 -15 -60 0 -75 3 -75 15 0 8
-7 15 -15 15 -11 0 -15 12 -15 45 0 33 4 45 15 45 8 0 15 7 15 15 0 12 15 15
75 15 60 0 75 -3 75 -15z m180 -75 c0 -27 -3 -30 -30 -30 -27 0 -30 3 -30 30
0 27 3 30 30 30 27 0 30 -3 30 -30z"/>
<path d="M5600 8815 c0 -11 12 -15 45 -15 33 0 45 4 45 15 0 11 -12 15 -45 15
-33 0 -45 -4 -45 -15z"/>
<path d="M12550 8845 l0 -45 45 0 45 0 0 45 0 45 -45 0 -45 0 0 -45z"/>
<path d="M13030 8875 c0 -11 12 -15 45 -15 33 0 45 4 45 15 0 11 -12 15 -45
15 -33 0 -45 -4 -45 -15z"/>
<path d="M5400 105 c0 -65 10 -81 30 -46 15 29 12 77 -6 95 -8 9 -17 16 -20
16 -2 0 -4 -29 -4 -65z"/>
<path d="M5810 120 l0 -50 40 0 40 0 0 50 0 50 -40 0 -40 0 0 -50z"/>
<path d="M7430 105 c0 -65 10 -81 30 -46 15 29 12 77 -6 95 -8 9 -17 16 -20
16 -2 0 -4 -29 -4 -65z"/>
<path d="M7840 120 l0 -50 40 0 40 0 0 50 0 50 -40 0 -40 0 0 -50z"/>
<path d="M9470 105 c0 -65 10 -81 30 -46 15 29 12 77 -6 95 -8 9 -17 16 -20
16 -2 0 -4 -29 -4 -65z"/>
<path d="M9880 120 l0 -50 40 0 40 0 0 50 0 50 -40 0 -40 0 0 -50z"/>
<path d="M11510 105 c0 -65 10 -81 30 -46 15 29 12 77 -6 95 -8 9 -17 16 -20
16 -2 0 -4 -29 -4 -65z"/>
<path d="M11920 120 l0 -50 40 0 40 0 0 50 0 50 -40 0 -40 0 0 -50z"/>
<path d="M13550 105 c0 -65 10 -81 30 -46 15 29 12 77 -6 95 -8 9 -17 16 -20
16 -2 0 -4 -29 -4 -65z"/>
<path d="M13960 120 l0 -50 40 0 40 0 0 50 0 50 -40 0 -40 0 0 -50z"/>
<path d="M5716 109 c-4 -29 -10 -65 -13 -80 -4 -22 -2 -29 11 -29 13 0 16 13
16 80 0 44 -2 80 -4 80 -2 0 -6 -23 -10 -51z"/>
<path d="M7746 113 c-4 -27 -10 -63 -13 -81 -4 -25 -2 -32 11 -32 13 0 16 13
16 80 0 44 -2 80 -4 80 -2 0 -7 -21 -10 -47z"/>
<path d="M9786 113 c-4 -27 -10 -63 -13 -81 -4 -25 -2 -32 11 -32 13 0 16 13
16 80 0 44 -2 80 -4 80 -2 0 -7 -21 -10 -47z"/>
<path d="M11826 109 c-4 -29 -10 -65 -13 -80 -4 -22 -2 -29 11 -29 13 0 16 13
16 80 0 44 -2 80 -4 80 -2 0 -6 -23 -10 -51z"/>
<path d="M13866 109 c-4 -29 -10 -65 -13 -80 -4 -22 -2 -29 11 -29 13 0 16 13
16 80 0 44 -2 80 -4 80 -2 0 -6 -23 -10 -51z"/>
<path d="M7220 46 c0 -25 5 -46 10 -46 6 0 10 18 10 39 0 22 -4 43 -10 46 -6
4 -10 -12 -10 -39z"/>
<path d="M9260 46 c0 -25 5 -46 10 -46 6 0 10 18 10 39 0 22 -4 43 -10 46 -6
4 -10 -12 -10 -39z"/>
<path d="M5190 40 c0 -22 5 -40 10 -40 6 0 10 18 10 40 0 22 -4 40 -10 40 -5
0 -10 -18 -10 -40z"/>
<path d="M11300 40 c0 -22 5 -40 10 -40 6 0 10 18 10 40 0 22 -4 40 -10 40 -5
0 -10 -18 -10 -40z"/>
<path d="M13340 40 c0 -22 5 -40 10 -40 6 0 10 18 10 40 0 22 -4 40 -10 40 -5
0 -10 -18 -10 -40z"/>
<path d="M5513 30 c-10 -26 -9 -30 6 -30 14 0 17 6 13 30 -2 17 -5 30 -6 30
-1 0 -7 -13 -13 -30z"/>
<path d="M7543 30 c-10 -26 -9 -30 6 -30 14 0 17 6 13 30 -2 17 -5 30 -6 30
-1 0 -7 -13 -13 -30z"/>
<path d="M9583 30 c-10 -26 -9 -30 6 -30 14 0 17 6 13 30 -2 17 -5 30 -6 30
-1 0 -7 -13 -13 -30z"/>
<path d="M11623 30 c-10 -26 -9 -30 6 -30 14 0 17 6 13 30 -2 17 -5 30 -6 30
-1 0 -7 -13 -13 -30z"/>
<path d="M13663 30 c-10 -26 -9 -30 6 -30 14 0 17 6 13 30 -2 17 -5 30 -6 30
-1 0 -7 -13 -13 -30z"/>
</g>
</svg>
