<?xml version="1.0" standalone="no"?>
<!DOCTYPE svg PUBLIC "-//W3C//DTD SVG 20010904//EN"
 "http://www.w3.org/TR/2001/REC-SVG-20010904/DTD/svg10.dtd">
<svg version="1.0" xmlns="http://www.w3.org/2000/svg"
 width="1899.000000pt" height="926.000000pt" viewBox="0 0 1899.000000 926.000000"
 preserveAspectRatio="xMidYMid meet">

<g transform="translate(0.000000,926.000000) scale(0.100000,-0.100000)"
fill="#000000" stroke="none">
<path d="M0 7090 l0 -2170 9495 0 9495 0 0 2170 0 2170 -9495 0 -9495 0 0
-2170z m14174 1629 c-3 -5 -10 -7 -15 -3 -5 3 -7 10 -3 15 3 5 10 7 15 3 5 -3
7 -10 3 -15z m846 6 c-7 -8 -17 -15 -22 -15 -6 0 -5 7 2 15 7 8 17 15 22 15 6
0 5 -7 -2 -15z m126 -12 c-10 -10 -19 5 -10 18 6 11 8 11 12 0 2 -7 1 -15 -2
-18z m2414 -48 c0 -43 -4 -75 -10 -75 -6 0 -10 32 -10 75 0 43 4 75 10 75 6 0
10 -32 10 -75z m-3810 45 c14 -27 -2 -58 -35 -66 -18 -4 -25 -13 -25 -30 0
-15 -6 -24 -15 -24 -12 0 -15 14 -15 70 l0 70 40 0 c29 0 42 -5 50 -20z m3667
5 c9 -24 -5 -31 -21 -10 -7 10 -18 15 -24 11 -20 -12 -13 -34 16 -48 20 -10
27 -20 27 -43 0 -26 -4 -30 -32 -33 -24 -2 -34 2 -43 17 -11 21 3 31 15 11 10
-16 45 -12 45 5 0 8 -13 21 -30 30 -29 15 -41 51 -23 68 13 13 64 7 70 -8z
m373 5 c0 -5 -4 -10 -10 -10 -5 0 -10 5 -10 10 0 6 5 10 10 10 6 0 10 -4 10
-10z m-2829 -7 c6 -59 2 -123 -8 -123 -9 0 -13 16 -13 44 0 26 -5 46 -12 48
-9 3 -8 9 2 21 16 17 29 22 31 10z m-1123 -25 c7 -7 12 -20 12 -30 0 -13 -8
-18 -30 -18 -20 0 -30 -5 -30 -15 0 -10 10 -15 32 -15 23 0 29 -3 21 -11 -6
-6 -23 -9 -39 -7 -26 3 -29 7 -32 41 -5 57 33 88 66 55z m91 -1 c14 -18 2 -30
-16 -15 -7 6 -17 8 -20 4 -4 -4 6 -17 22 -30 19 -15 26 -28 22 -39 -8 -21 -63
-23 -70 -2 -5 11 1 13 26 9 l32 -5 -27 23 c-27 23 -35 47 -21 61 11 12 40 8
52 -6z m101 -62 c0 -43 -4 -75 -10 -75 -5 0 -10 9 -10 19 0 13 -8 21 -22 23
-30 4 -46 48 -30 83 9 19 19 25 42 25 l30 0 0 -75z m50 30 c0 -33 4 -45 15
-45 11 0 15 12 15 45 0 25 5 45 10 45 6 0 10 -25 10 -56 l0 -55 -32 3 c-32 3
-33 4 -36 56 -2 31 1 52 7 52 6 0 11 -20 11 -45z m90 -10 c0 -30 -4 -55 -10
-55 -5 0 -10 25 -10 55 0 30 5 55 10 55 6 0 10 -25 10 -55z m84 49 c17 -7 22
-34 6 -34 -5 0 -10 5 -10 10 0 6 -7 10 -15 10 -24 0 -17 -20 11 -30 19 -7 25
-16 22 -33 -3 -24 -43 -36 -61 -18 -15 15 0 26 16 13 13 -11 27 -7 27 8 0 4
-11 12 -25 18 -49 22 -21 75 29 56z m106 -13 c16 -32 12 -41 -20 -41 -20 0
-30 -5 -30 -15 0 -9 9 -15 25 -15 14 0 25 -5 25 -11 0 -6 -14 -9 -32 -7 -30 3
-33 6 -36 41 -2 21 2 45 9 53 16 20 46 17 59 -5z m138 7 c13 -11 16 -55 6 -82
-3 -9 -17 -16 -30 -16 -17 0 -24 -6 -24 -20 0 -11 -4 -20 -10 -20 -6 0 -10 31
-10 74 l0 74 28 0 c15 0 33 -5 40 -10z m96 -4 c19 -18 21 -65 4 -82 -31 -31
-78 -3 -78 47 0 22 25 51 45 51 7 0 21 -7 29 -16z m86 7 c0 -5 -7 -11 -15 -15
-10 -3 -15 -19 -15 -46 0 -22 -4 -40 -10 -40 -5 0 -10 25 -10 55 0 52 1 55 25
55 14 0 25 -4 25 -9z m122 -3 c11 -19 10 -98 -2 -98 -5 0 -10 20 -10 45 0 33
-4 45 -15 45 -11 0 -15 -12 -15 -45 0 -25 -4 -45 -10 -45 -5 0 -10 24 -10 53
0 50 1 53 27 55 15 1 30 -4 35 -10z m97 -2 c7 -8 11 -32 9 -53 -2 -31 -7 -39
-26 -41 -32 -5 -52 15 -52 52 0 50 42 75 69 42z m111 -41 c0 -30 -4 -55 -10
-55 -5 0 -10 25 -10 55 0 30 5 55 10 55 6 0 10 -25 10 -55z m90 40 c7 -9 9
-19 5 -23 -4 -4 -10 -1 -12 6 -3 6 -11 12 -19 12 -19 0 -29 -47 -14 -65 11
-14 15 -13 33 2 19 17 19 17 16 -2 -3 -15 -12 -20 -34 -20 -23 0 -32 6 -39 27
-19 55 31 103 64 63z m50 -40 c0 -30 -4 -55 -10 -55 -5 0 -10 25 -10 55 0 30
5 55 10 55 6 0 10 -25 10 -55z m88 43 c7 -7 12 -31 12 -55 0 -42 0 -43 -35
-43 -31 0 -35 3 -35 25 0 17 8 29 25 37 14 6 25 15 25 20 0 12 -24 10 -38 -4
-9 -9 -12 -8 -12 4 0 26 38 36 58 16z m100 -13 c3 -16 1 -18 -9 -7 -15 14 -39
16 -39 4 0 -5 12 -14 26 -20 18 -9 24 -19 22 -35 -3 -24 -43 -36 -61 -18 -15
15 0 26 16 13 13 -11 27 -7 27 8 0 4 -11 12 -25 18 -27 13 -32 31 -13 50 18
18 52 10 56 -13z m2172 6 c16 -32 12 -41 -21 -41 -24 0 -30 -4 -27 -17 3 -12
12 -17 26 -16 12 2 22 -2 22 -7 0 -14 -44 -12 -58 2 -7 7 -12 26 -12 43 0 52
48 76 70 36z m140 0 c16 -32 12 -41 -21 -41 -24 0 -30 -4 -27 -17 3 -12 12
-17 26 -16 12 2 22 -2 22 -7 0 -14 -44 -12 -58 2 -7 7 -12 26 -12 43 0 52 48
76 70 36z m90 4 c7 -9 10 -19 6 -22 -4 -4 -11 -1 -16 6 -13 23 -40 5 -40 -28
0 -31 21 -46 39 -28 6 6 14 8 18 4 12 -12 -13 -29 -38 -25 -15 2 -27 13 -33
30 -19 55 31 103 64 63z m50 -40 c0 -30 -4 -55 -10 -55 -5 0 -10 25 -10 55 0
30 5 55 10 55 6 0 10 -25 10 -55z m89 41 c17 -20 10 -77 -11 -90 -26 -16 -52
4 -56 43 -4 36 12 61 38 61 10 0 23 -6 29 -14z m98 1 c10 -16 12 -97 2 -97 -4
0 -9 19 -11 43 -2 29 -8 42 -18 42 -10 0 -16 -13 -18 -42 -5 -62 -22 -53 -22
10 0 53 1 54 30 55 16 0 33 -5 37 -11z m104 -19 c7 -26 5 -28 -23 -28 -23 0
-29 -4 -26 -17 3 -12 12 -17 26 -16 12 2 22 -2 22 -8 0 -6 -14 -9 -32 -7 -30
3 -33 6 -36 41 -2 21 2 45 9 53 19 23 52 13 60 -18z m231 -5 l28 -27 30 29
c16 16 32 26 35 24 2 -3 -11 -21 -30 -39 l-35 -34 -38 37 c-42 42 -33 51 10
10z m-16500 -28 c0 -5 -5 -11 -11 -13 -6 -2 -11 4 -11 13 0 9 5 15 11 13 6 -2
11 -8 11 -13z m10168 -35 c0 -5 -4 -10 -10 -10 -5 0 -10 5 -10 10 0 6 5 10 10
10 6 0 10 -4 10 -10z m-8990 -30 c0 -5 -4 -10 -10 -10 -5 0 -10 5 -10 10 0 6
5 10 10 10 6 0 10 -4 10 -10z m-2685 -30 c0 -8 -8 -16 -17 -18 -13 -2 -18 3
-18 18 0 15 5 20 18 18 9 -2 17 -10 17 -18z m13325 -330 c0 -5 -2 -10 -4 -10
-3 0 -8 5 -11 10 -3 6 -1 10 4 10 6 0 11 -4 11 -10z m-3160 -159 c0 -6 -4 -13
-10 -16 -5 -3 -10 1 -10 9 0 9 5 16 10 16 6 0 10 -4 10 -9z m-4060 -57 c0 -8
-4 -12 -10 -9 -5 3 -10 10 -10 16 0 5 5 9 10 9 6 0 10 -7 10 -16z m1074 -25
c-3 -5 -10 -7 -15 -3 -5 3 -7 10 -3 15 3 5 10 7 15 3 5 -3 7 -10 3 -15z
m-6124 -129 c0 -5 -5 -10 -11 -10 -5 0 -7 5 -4 10 3 6 8 10 11 10 2 0 4 -4 4
-10z m10570 -260 c0 -5 -4 -10 -10 -10 -5 0 -10 5 -10 10 0 6 5 10 10 10 6 0
10 -4 10 -10z m-2310 -88 c0 -5 -13 -21 -30 -37 l-30 -29 0 30 c0 17 3 34 7
37 9 10 53 9 53 -1z m-7130 -36 c0 -3 -4 -8 -10 -11 -5 -3 -10 -1 -10 4 0 6 5
11 10 11 6 0 10 -2 10 -4z m6960 -134 c0 -5 -13 -21 -30 -37 l-30 -29 0 30 c0
17 3 34 7 37 9 10 53 9 53 -1z m2400 -96 c0 -8 -4 -17 -9 -21 -12 -7 -24 12
-16 25 9 15 25 12 25 -4z m-2585 -96 c-35 -36 -45 -38 -45 -7 0 31 7 37 44 37
l30 0 -29 -30z m-7775 -70 c0 -5 -4 -10 -10 -10 -5 0 -10 5 -10 10 0 6 5 10
10 10 6 0 10 -4 10 -10z m4820 -20 c0 -5 -2 -10 -4 -10 -3 0 -8 5 -11 10 -3 6
-1 10 4 10 6 0 11 -4 11 -10z m-2670 -90 c0 -5 -4 -10 -10 -10 -5 0 -10 5 -10
10 0 6 5 10 10 10 6 0 10 -4 10 -10z m5424 -99 l28 -29 -46 -31 c-57 -39 -144
-81 -171 -81 -14 0 3 22 65 85 47 47 87 85 90 85 4 0 19 -13 34 -29z m-4204
-221 c0 -5 -2 -10 -4 -10 -3 0 -8 5 -11 10 -3 6 -1 10 4 10 6 0 11 -4 11 -10z
m1621 -53 c-13 -13 -26 -3 -16 12 3 6 11 8 17 5 6 -4 6 -10 -1 -17z m7359 2
c0 -5 -4 -9 -10 -9 -5 0 -10 7 -10 16 0 8 5 12 10 9 6 -3 10 -10 10 -16z
m-4550 -634 l0 -225 -30 0 -30 0 0 225 0 225 30 0 30 0 0 -225z m560 150 c0
-73 5 -86 27 -64 5 5 30 9 53 7 33 -2 48 -9 64 -31 18 -25 21 -45 25 -158 l3
-129 -31 0 -31 0 -1 108 c-1 139 -6 156 -45 160 -54 5 -62 -15 -63 -165 l-1
-103 -30 0 -30 0 0 225 0 225 30 0 30 0 0 -75z m-2309 38 c29 -17 59 -67 59
-97 0 -11 -9 -16 -29 -16 -24 0 -31 5 -36 29 -9 40 -27 53 -72 49 -30 -2 -41
-9 -51 -30 -22 -47 -2 -74 82 -112 80 -37 106 -67 106 -126 0 -65 -57 -120
-124 -120 -64 0 -135 54 -139 106 -2 25 2 29 25 32 22 3 27 -2 33 -27 8 -37
24 -50 68 -58 27 -4 39 -1 56 16 44 44 22 93 -57 128 -101 44 -136 96 -112
168 17 51 53 75 112 75 29 0 62 -7 79 -17z m1629 -8 c0 -25 -1 -25 -85 -25
l-85 0 0 -70 0 -69 73 -3 c66 -3 72 -5 75 -25 3 -21 -1 -22 -70 -25 l-73 -3
-3 -92 -3 -93 -29 0 -30 0 0 215 0 215 115 0 115 0 0 -25z m254 10 c9 -25 -5
-45 -30 -45 -14 0 -27 7 -30 15 -10 25 4 45 30 45 13 0 26 -7 30 -15z m1123
-142 l83 -158 0 158 0 157 30 0 30 0 0 -216 0 -215 -31 3 c-29 3 -36 13 -110
153 l-79 150 0 -152 0 -153 -30 0 -30 0 0 215 0 215 28 0 c25 0 34 -12 109
-157z m3333 133 c0 -3 -4 -8 -10 -11 -5 -3 -10 -1 -10 4 0 6 5 11 10 11 6 0
10 -2 10 -4z m-3722 -48 c3 -33 7 -38 28 -38 21 0 25 -4 22 -22 -2 -15 -11
-24 -26 -26 -22 -3 -23 -6 -20 -115 3 -108 4 -112 26 -115 26 -4 30 -37 6 -46
-28 -11 -44 -6 -69 19 -24 23 -25 30 -25 140 l0 115 -25 0 c-20 0 -25 5 -25
25 0 20 5 25 25 25 23 0 25 4 25 41 0 38 1 40 28 37 23 -3 27 -8 30 -40z
m-2445 -50 c4 -10 7 -10 18 0 22 21 95 15 124 -10 54 -48 55 -223 0 -277 -25
-26 -81 -34 -117 -17 -16 7 -18 1 -18 -58 l0 -66 -30 0 -30 0 0 220 0 220 24
0 c13 0 26 -6 29 -12z m425 -8 c28 -27 31 -42 34 -183 l3 -117 -32 0 c-18 0
-33 5 -33 11 0 5 -10 3 -22 -5 -33 -23 -72 -19 -107 10 -25 21 -31 33 -31 66
0 21 5 48 10 59 15 27 63 49 110 49 37 0 40 2 40 28 0 34 -9 47 -37 56 -17 6
-29 1 -47 -18 -20 -23 -76 -37 -76 -20 0 14 24 51 44 66 31 26 116 24 144 -2z
m293 -9 c38 -38 40 -81 4 -81 -18 0 -26 7 -31 26 -8 31 -47 49 -74 34 -31 -17
-40 -44 -40 -119 0 -58 4 -75 20 -91 30 -30 68 -26 88 10 11 19 25 30 40 30
32 0 29 -32 -7 -72 -26 -29 -35 -33 -80 -33 -43 0 -55 4 -82 32 -29 28 -32 39
-37 106 -8 131 28 187 120 187 41 0 54 -5 79 -29z m274 7 c19 -17 28 -38 35
-82 5 -32 7 -63 4 -67 -3 -5 -43 -9 -90 -9 l-84 0 0 -30 c0 -60 67 -90 119
-54 20 15 24 15 38 1 19 -19 9 -35 -33 -53 -43 -18 -78 -18 -119 2 -45 21 -65
67 -65 148 0 117 36 166 122 166 34 0 54 -6 73 -22z m715 -138 l0 -160 -30 0
-30 0 0 160 0 160 30 0 30 0 0 -160z m231 150 c13 -7 19 -7 19 0 0 5 11 10 25
10 l25 0 0 -191 0 -191 -28 -28 c-39 -39 -90 -47 -139 -24 -40 21 -47 32 -34
52 7 12 14 11 39 -2 17 -9 39 -16 48 -16 27 0 54 30 54 60 0 27 -1 27 -38 17
-83 -22 -132 37 -132 161 0 78 17 134 47 151 23 13 89 14 114 1z m1304 -12
c26 -23 44 -77 45 -130 l0 -28 -90 0 c-88 0 -90 -1 -90 -24 0 -61 68 -95 119
-60 21 15 24 15 39 1 21 -21 3 -43 -48 -58 -99 -30 -170 31 -170 144 0 80 9
114 40 147 24 26 35 30 78 30 38 0 57 -6 77 -22z m150 -70 c11 -48 22 -89 25
-92 4 -3 17 37 30 90 23 90 26 95 50 92 23 -3 27 -11 49 -95 13 -51 27 -93 30
-93 4 0 15 43 26 95 18 93 19 95 47 95 15 0 28 -3 28 -7 0 -5 -16 -77 -37
-160 -36 -148 -38 -153 -63 -153 -24 0 -27 6 -49 93 -13 50 -26 96 -29 101 -3
5 -17 -35 -32 -90 -24 -91 -28 -99 -52 -102 -26 -3 -26 -1 -62 148 -20 83 -36
156 -36 161 0 6 12 9 27 7 26 -3 29 -8 48 -90z m516 63 c39 -40 39 -71 -1 -71
-20 0 -30 5 -30 15 0 8 -11 22 -24 30 -32 21 -66 5 -66 -31 0 -21 9 -29 55
-49 74 -33 95 -56 95 -103 0 -97 -145 -125 -204 -40 -26 37 -21 58 14 58 17 0
30 -5 30 -12 0 -36 62 -62 88 -36 28 28 14 56 -44 83 -72 34 -94 57 -94 99 0
52 40 86 102 86 41 0 54 -5 79 -29z m-8061 -231 c0 -5 -4 -10 -10 -10 -5 0
-10 5 -10 10 0 6 5 10 10 10 6 0 10 -4 10 -10z m6920 -165 c0 -8 -4 -15 -10
-15 -5 0 -10 7 -10 15 0 8 5 15 10 15 6 0 10 -7 10 -15z m-4810 -135 c0 -5 -4
-10 -10 -10 -5 0 -10 5 -10 10 0 6 5 10 10 10 6 0 10 -4 10 -10z m-4100 -20
c0 -5 -4 -10 -10 -10 -5 0 -10 5 -10 10 0 6 5 10 10 10 6 0 10 -4 10 -10z
m3370 -430 c0 -5 -4 -10 -10 -10 -5 0 -10 5 -10 10 0 6 5 10 10 10 6 0 10 -4
10 -10z m-4150 -25 c0 -8 -4 -15 -10 -15 -5 0 -10 7 -10 15 0 8 5 15 10 15 6
0 10 -7 10 -15z"/>
<path d="M13690 8684 c0 -33 33 -30 38 4 3 17 -2 22 -17 22 -16 0 -21 -6 -21
-26z"/>
<path d="M13795 8669 c-10 -15 1 -23 20 -15 9 3 13 10 10 16 -8 13 -22 13 -30
-1z"/>
<path d="M13975 8660 c-7 -23 12 -63 26 -55 15 10 11 75 -5 75 -8 0 -17 -9
-21 -20z"/>
<path d="M14310 8665 c0 -8 7 -15 15 -15 8 0 15 7 15 15 0 8 -7 15 -15 15 -8
0 -15 -7 -15 -15z"/>
<path d="M14457 8674 c-4 -4 -7 -20 -7 -36 0 -22 5 -28 21 -28 17 0 20 5 17
32 -3 31 -17 45 -31 32z"/>
<path d="M14545 8660 c-3 -10 -1 -29 5 -41 11 -19 14 -20 27 -6 10 10 13 24 9
41 -8 31 -32 34 -41 6z"/>
<path d="M14857 8674 c-4 -4 -7 -20 -7 -36 0 -22 5 -28 21 -28 17 0 20 5 17
32 -3 31 -17 45 -31 32z"/>
<path d="M15200 8625 c0 -8 7 -15 15 -15 8 0 15 7 15 15 0 8 -7 15 -15 15 -8
0 -15 -7 -15 -15z"/>
<path d="M17460 8666 c0 -10 9 -16 21 -16 24 0 21 23 -4 28 -10 2 -17 -3 -17
-12z"/>
<path d="M17600 8666 c0 -10 9 -16 21 -16 24 0 21 23 -4 28 -10 2 -17 -3 -17
-12z"/>
<path d="M17834 8666 c-9 -25 0 -61 16 -61 10 0 16 12 18 38 2 28 0 37 -13 37
-8 0 -18 -6 -21 -14z"/>
<path d="M18030 8666 c0 -10 9 -16 21 -16 24 0 21 23 -4 28 -10 2 -17 -3 -17
-12z"/>
<path d="M7732 5978 c-8 -8 -12 -46 -12 -105 0 -81 2 -94 19 -103 60 -31 96
11 95 110 0 84 -14 110 -57 110 -18 0 -38 -5 -45 -12z"/>
<path d="M8027 5852 c-42 -46 -4 -106 51 -80 22 11 28 21 30 56 3 42 3 42 -31
42 -20 0 -41 -7 -50 -18z"/>
<path d="M8609 5993 c-17 -4 -39 -43 -39 -68 0 -11 14 -15 55 -15 54 0 55 0
55 29 0 26 -31 64 -50 60 -3 -1 -12 -3 -21 -6z"/>
<path d="M9566 5968 c-11 -15 -16 -46 -16 -95 0 -60 4 -77 20 -93 22 -22 42
-25 71 -10 17 9 19 22 19 103 0 59 -4 97 -12 105 -20 20 -65 14 -82 -10z"/>
<path d="M10845 5975 c-14 -13 -25 -33 -25 -45 0 -18 6 -20 60 -20 l60 0 -6
28 c-6 27 -37 62 -56 62 -5 0 -20 -11 -33 -25z"/>
<path d="M11492 4234 c-14 -10 -22 -25 -22 -45 0 -19 -5 -29 -15 -29 -8 0 -15
-9 -15 -20 0 -11 7 -20 15 -20 12 0 15 -16 15 -80 0 -79 0 -80 25 -80 25 0 25
1 25 80 0 64 3 80 15 80 8 0 15 9 15 20 0 11 -7 20 -15 20 -8 0 -15 9 -15 20
0 11 7 23 15 26 8 4 15 15 15 25 0 23 -27 25 -58 3z"/>
<path d="M10212 4228 c-15 -18 1 -41 24 -36 23 4 26 41 3 46 -9 1 -21 -3 -27
-10z"/>
<path d="M10300 4100 l0 -140 25 0 25 0 0 140 0 140 -25 0 -25 0 0 -140z"/>
<path d="M10400 4100 l0 -140 25 0 25 0 0 140 0 140 -25 0 -25 0 0 -140z"/>
<path d="M11770 4100 l0 -140 25 0 25 0 0 140 0 140 -25 0 -25 0 0 -140z"/>
<path d="M11860 4100 l0 -140 25 0 25 0 0 140 0 140 -25 0 -25 0 0 -140z"/>
<path d="M13340 4196 c0 -45 0 -45 -32 -40 -43 6 -58 -5 -68 -52 -11 -47 -3
-102 18 -126 17 -21 53 -23 70 -6 9 9 12 9 12 0 0 -7 11 -12 25 -12 l25 0 0
140 0 140 -25 0 c-23 0 -25 -4 -25 -44z m-2 -134 c2 -42 0 -54 -14 -59 -34
-13 -57 54 -33 98 20 38 44 19 47 -39z"/>
<path d="M8780 4210 c-12 -12 -20 -33 -20 -54 0 -36 15 -53 80 -88 23 -13 31
-24 28 -40 -4 -31 -43 -36 -60 -9 -15 25 -58 29 -58 6 0 -31 47 -65 90 -65 50
0 80 27 80 73 0 37 -24 65 -75 88 -38 18 -43 62 -7 67 17 3 25 -2 29 -17 7
-27 53 -30 53 -3 0 54 -99 83 -140 42z"/>
<path d="M9692 4165 c16 -36 28 -71 25 -78 -3 -6 -17 -38 -31 -69 l-26 -58 29
0 c25 0 32 6 46 45 10 24 21 43 25 40 3 -2 12 -22 20 -44 11 -35 17 -41 42
-41 15 0 28 2 28 4 0 2 -14 33 -30 70 l-30 66 30 60 c16 33 30 62 30 65 0 3
-13 5 -28 5 -25 0 -31 -6 -42 -41 -8 -22 -17 -42 -20 -44 -4 -3 -15 16 -25 40
-14 39 -21 45 -45 45 l-29 0 31 -65z"/>
<path d="M10580 4185 c0 -14 -4 -25 -10 -25 -5 0 -10 -9 -10 -20 0 -11 5 -20
10 -20 6 0 10 -24 10 -54 0 -79 13 -106 50 -106 23 0 30 5 30 19 0 10 -7 21
-15 25 -11 4 -15 21 -15 61 0 42 3 55 15 55 8 0 15 9 15 20 0 11 -7 20 -15 20
-9 0 -15 9 -15 25 0 20 -5 25 -25 25 -20 0 -25 -5 -25 -25z"/>
<path d="M11080 4185 c0 -14 -4 -25 -10 -25 -5 0 -10 -9 -10 -20 0 -11 5 -20
10 -20 6 0 10 -29 10 -68 0 -75 9 -92 52 -92 21 0 28 5 28 20 0 11 -7 20 -15
20 -12 0 -15 13 -15 59 0 43 4 60 15 65 8 3 15 12 15 21 0 8 -7 15 -15 15 -9
0 -15 9 -15 25 0 20 -5 25 -25 25 -20 0 -25 -5 -25 -25z"/>
<path d="M8960 4018 c0 -139 0 -139 23 -136 18 2 23 10 25 43 3 40 4 41 37 37
29 -3 36 0 49 26 19 37 21 107 3 142 -11 22 -19 25 -75 27 l-62 1 0 -140z m95
42 c0 -49 -2 -55 -22 -58 -22 -3 -23 0 -23 58 0 58 1 61 23 58 20 -3 22 -9 22
-58z"/>
<path d="M9157 4142 c-24 -26 -21 -42 8 -42 14 0 25 5 25 10 0 6 9 10 20 10
13 0 20 -7 20 -20 0 -15 -7 -20 -28 -20 -36 0 -62 -28 -62 -67 0 -42 16 -51
83 -51 l57 1 0 76 c0 96 -14 121 -69 121 -24 0 -44 -7 -54 -18z m73 -117 c0
-18 -5 -25 -20 -25 -15 0 -20 7 -20 25 0 18 5 25 20 25 15 0 20 -7 20 -25z"/>
<path d="M9334 4139 c-14 -15 -19 -36 -19 -81 0 -51 4 -63 24 -79 30 -25 76
-24 101 1 26 26 26 50 0 50 -11 0 -23 -7 -26 -15 -8 -20 -40 -19 -48 1 -3 9
-6 28 -6 44 0 16 3 35 6 44 8 20 40 21 48 1 7 -18 46 -20 46 -2 0 7 -7 23 -16
35 -21 30 -83 31 -110 1z"/>
<path d="M9510 4140 c-30 -30 -29 -129 3 -158 36 -34 127 -26 115 9 -3 9 -20
14 -44 14 -29 0 -39 4 -42 18 -3 14 4 17 47 17 50 0 51 0 51 31 0 32 -15 69
-34 81 -22 15 -76 8 -96 -12z m78 -43 c3 -12 -3 -17 -22 -17 -25 0 -35 18 -19
34 12 12 38 2 41 -17z"/>
<path d="M9974 4060 c18 -89 23 -100 42 -100 17 0 23 10 34 57 13 62 23 58 35
-14 6 -36 11 -43 29 -43 21 0 25 9 43 100 l20 100 -23 0 c-20 0 -24 -6 -30
-50 -8 -58 -19 -57 -29 1 -6 36 -27 60 -41 46 -3 -3 -11 -27 -19 -54 -13 -50
-19 -46 -30 20 -5 30 -10 37 -28 37 l-23 0 20 -100z"/>
<path d="M10210 4060 l0 -100 25 0 25 0 0 100 0 100 -25 0 -25 0 0 -100z"/>
<path d="M10690 4059 c0 -98 0 -99 25 -99 23 0 24 3 27 73 3 66 5 72 26 75 15
2 22 10 22 27 0 21 -4 23 -50 23 l-50 1 0 -100z"/>
<path d="M10800 4158 c0 -2 14 -48 30 -102 21 -72 26 -105 19 -118 -5 -10 -14
-18 -19 -18 -6 0 -10 -9 -10 -20 0 -26 31 -26 54 -1 9 10 30 63 45 119 16 55
32 110 36 122 6 19 4 21 -22 18 -25 -3 -29 -8 -37 -50 -5 -27 -13 -48 -17 -48
-4 0 -11 21 -15 48 -8 41 -12 47 -37 50 -15 2 -27 2 -27 0z"/>
<path d="M11200 4140 c-16 -16 -20 -33 -20 -80 0 -72 21 -100 75 -100 52 0 75
30 75 100 0 43 -5 61 -20 78 -27 29 -83 29 -110 2z m81 -47 c14 -38 -1 -88
-26 -88 -13 0 -22 10 -28 30 -10 36 6 85 28 85 9 0 20 -12 26 -27z"/>
<path d="M11594 4139 c-14 -16 -19 -36 -19 -79 0 -72 21 -100 75 -100 54 0 75
28 75 100 0 72 -21 100 -75 100 -25 0 -43 -7 -56 -21z m80 -35 c3 -9 6 -28 6
-44 0 -41 -10 -60 -30 -60 -20 0 -30 19 -30 60 0 41 10 60 30 60 10 0 21 -7
24 -16z"/>
<path d="M11970 4140 c-16 -16 -20 -33 -20 -80 0 -72 21 -100 75 -100 52 0 75
30 75 100 0 43 -5 61 -20 78 -27 29 -83 29 -110 2z m81 -47 c14 -38 -1 -88
-26 -88 -13 0 -22 10 -28 30 -10 36 6 85 28 85 9 0 20 -12 26 -27z"/>
<path d="M12130 4148 c0 -11 8 -46 35 -165 3 -14 13 -23 24 -23 15 0 22 13 34
58 15 59 18 58 37 -15 8 -32 16 -43 30 -43 15 0 21 12 30 58 6 31 16 73 21 92
12 48 12 50 -15 50 -21 0 -24 -6 -30 -52 -8 -57 -20 -52 -31 14 -10 59 -38 51
-57 -14 l-15 -53 -7 40 c-11 61 -14 65 -36 65 -11 0 -20 -6 -20 -12z"/>
<path d="M12460 4060 c0 -100 0 -100 25 -100 23 0 24 3 27 73 3 66 5 72 26 75
29 4 32 52 3 52 -11 0 -22 -6 -24 -12 -4 -10 -6 -10 -6 0 -1 6 -12 12 -26 12
l-25 0 0 -100z"/>
<path d="M12601 4134 c-31 -39 -29 -117 4 -149 26 -27 72 -33 105 -15 32 17
14 39 -27 33 -24 -4 -38 -2 -44 8 -16 25 -10 29 41 29 l50 0 0 38 c0 55 -23
82 -70 82 -30 0 -43 -6 -59 -26z m82 -34 c4 -17 0 -20 -24 -20 -17 0 -29 5
-29 13 0 32 45 38 53 7z"/>
<path d="M12780 4140 c-16 -16 -20 -33 -20 -80 0 -47 4 -64 20 -80 39 -39 120
-16 120 33 0 21 -36 23 -44 2 -3 -8 -14 -15 -25 -15 -23 0 -36 44 -26 90 7 32
38 42 49 15 8 -22 46 -19 46 3 0 48 -82 70 -120 32z"/>
<path d="M12951 4134 c-47 -60 -15 -174 49 -174 42 0 59 9 75 41 27 52 10 137
-30 153 -37 14 -74 6 -94 -20z m83 -30 c9 -23 7 -77 -3 -92 -5 -8 -17 -12 -27
-10 -15 2 -20 13 -22 47 -2 24 -1 50 2 57 7 19 42 18 50 -2z"/>
<path d="M13120 4060 c0 -100 0 -100 25 -100 23 0 24 3 27 73 3 66 5 72 26 75
29 4 32 52 3 52 -11 0 -22 -6 -24 -12 -4 -10 -6 -10 -6 0 -1 6 -12 12 -26 12
l-25 0 0 -100z"/>
<path d="M13437 4093 c-20 -19 -5 -33 38 -33 38 0 45 3 45 20 0 17 -7 20 -38
20 -21 0 -42 -3 -45 -7z"/>
<path d="M5010 2790 c0 -900 2 -1020 15 -1020 9 0 15 10 16 23 0 12 3 16 6 10
8 -20 30 -15 50 10 10 13 32 27 48 31 17 3 37 8 45 10 8 3 21 5 28 5 16 1 11
22 -8 38 -13 10 -11 12 13 13 22 0 27 4 27 25 0 23 3 25 50 25 28 0 50 5 50
10 0 6 -23 10 -51 10 -66 0 -62 24 4 28 45 3 59 13 37 27 -6 4 -8 10 -6 13 2
4 -13 6 -35 4 -37 -4 -39 -2 -39 23 0 23 4 26 28 25 49 -4 62 0 62 15 0 8 7
15 15 15 8 0 15 7 15 15 0 13 24 15 155 15 l155 0 0 25 c0 24 2 25 58 24 93
-3 192 12 192 27 0 8 5 14 10 14 6 0 10 7 10 15 0 8 7 15 15 15 9 0 15 9 15
23 0 36 39 140 55 150 8 4 15 19 15 32 0 18 5 25 19 25 30 0 51 11 51 26 0 8
6 14 14 14 7 0 19 7 26 15 10 12 16 11 38 -11 l27 -24 -3 -288 c-5 -625 -10
-792 -21 -806 -6 -7 -24 -16 -39 -19 -24 -5 -30 -13 -41 -58 -12 -47 -12 -54
3 -64 26 -19 19 -35 -17 -35 -30 0 -34 4 -49 48 -10 27 -27 59 -39 73 l-21 24
7 -67 c4 -46 3 -68 -4 -68 -6 0 -11 5 -11 10 0 21 -30 9 -36 -15 -3 -14 -13
-25 -21 -25 -11 0 -13 7 -9 25 5 18 2 25 -8 25 -8 0 -17 15 -21 38 -4 21 -10
30 -13 22 -7 -22 -39 -50 -55 -50 -8 0 -17 9 -20 20 -6 22 -37 18 -37 -5 0
-23 -34 -26 -232 -24 -106 1 -271 2 -365 1 l-173 -2 0 -40 0 -40 1561 0 1561
0 -4 100 c-2 67 -7 103 -17 112 -11 11 -13 9 -9 -15 6 -30 -9 -47 -23 -26 -6
10 -9 3 -10 -21 l-1 -35 -10 35 c-9 33 -11 34 -24 15 -8 -10 -14 -24 -15 -29
0 -6 -4 -1 -9 11 -14 34 -1 63 27 63 22 0 24 3 18 23 -15 44 -2 152 19 160 8
3 23 -3 35 -14 l21 -20 0 171 c0 188 2 184 -65 150 -31 -16 -46 -18 -67 -11
-17 6 -30 6 -33 0 -4 -5 -15 -9 -25 -9 -40 0 -53 -28 -46 -104 17 -193 17
-192 39 -202 28 -12 47 -88 27 -107 -10 -9 -14 -9 -17 1 -7 19 -23 14 -23 -8
0 -11 6 -21 13 -21 6 -1 18 -2 26 -3 23 -2 25 -26 2 -26 -25 0 -26 -8 -4 -32
16 -18 16 -18 -3 -12 -33 12 -44 26 -44 55 0 17 -8 34 -22 43 -31 22 -35 11
-11 -32 19 -33 20 -39 7 -56 -8 -11 -14 -14 -14 -8 0 20 -26 13 -38 -10 -7
-13 -11 -16 -11 -8 3 46 -16 57 -27 15 -7 -29 -16 -31 -34 -10 -17 20 -30 19
-31 -2 0 -13 -3 -12 -10 6 -8 20 -14 22 -39 17 -20 -4 -30 -1 -30 7 -1 38 -30
275 -35 290 -4 10 -13 16 -19 14 -11 -4 -12 -177 -1 -268 5 -46 5 -47 -27 -51
-25 -4 -36 0 -54 21 -18 21 -25 24 -35 14 -18 -18 -29 -16 -29 5 0 9 -5 24
-11 32 -8 11 -9 3 -6 -31 l4 -46 -66 -1 c-36 -1 -97 -4 -134 -6 l-68 -4 -26
39 c-32 49 -42 43 -18 -11 17 -37 17 -42 3 -57 -32 -31 -74 -4 -84 55 -4 22
-14 27 -33 15 -24 -15 -31 -9 -76 65 -21 34 -40 62 -42 62 -3 0 11 -28 62
-119 44 -79 25 -87 -29 -12 -19 28 -18 19 9 -42 15 -37 15 -38 -2 -35 -10 3
-30 -1 -45 -9 -15 -7 -29 -10 -31 -5 -3 4 -8 42 -12 84 -8 89 -29 97 -23 9 3
-54 2 -56 -23 -59 -23 -3 -28 2 -37 40 -20 78 -26 196 -12 213 11 13 11 20 -1
41 -10 20 -11 29 -1 44 17 27 16 29 -15 27 l-28 -2 -8 210 c-9 256 -16 672
-10 627 2 -18 9 -30 14 -26 5 3 7 21 3 40 -4 22 -2 34 5 34 6 0 11 -4 11 -10
0 -5 9 -10 20 -10 11 0 20 -7 20 -15 0 -8 9 -15 20 -15 15 0 20 -7 20 -29 0
-16 6 -31 15 -35 8 -3 15 -10 15 -16 0 -6 5 -16 10 -23 23 -27 60 -84 70 -107
13 -29 50 -66 50 -50 0 18 26 -12 49 -59 12 -23 30 -45 39 -48 9 -3 24 -11 32
-18 48 -38 341 -48 558 -19 215 29 231 30 294 22 77 -11 145 -24 176 -33 l22
-7 0 856 0 856 -1560 0 -1560 0 0 -1020z m1400 680 c0 -5 -2 -10 -4 -10 -3 0
-8 5 -11 10 -3 6 -1 10 4 10 6 0 11 -4 11 -10z m-60 -66 c0 -8 -5 -12 -10 -9
-6 4 -8 11 -5 16 9 14 15 11 15 -7z m170 -288 c0 -3 -4 -8 -10 -11 -5 -3 -10
-1 -10 4 0 6 5 11 10 11 6 0 10 -2 10 -4z m-34 -184 c16 -15 18 -32 5 -32 -5
0 -14 -13 -20 -30 -5 -16 -11 -30 -13 -30 -2 0 -1 33 1 72 2 40 6 64 9 54 2
-11 10 -26 18 -34z m60 -194 c-4 -28 -7 -256 -7 -507 1 -279 -3 -462 -9 -471
-12 -19 -12 -20 -11 128 2 131 5 123 -51 126 -9 1 -18 3 -21 6 -3 3 -2 167 2
364 5 330 7 359 23 362 10 1 29 12 44 23 15 12 29 21 32 21 2 0 1 -23 -2 -52z
m-216 -82 c0 -3 -4 -8 -10 -11 -5 -3 -10 -1 -10 4 0 6 5 11 10 11 6 0 10 -2
10 -4z m-10 -36 c0 -5 -2 -10 -4 -10 -3 0 -8 5 -11 10 -3 6 -1 10 4 10 6 0 11
-4 11 -10z m-80 -61 c0 -6 -4 -7 -10 -4 -5 3 -10 11 -10 16 0 6 5 7 10 4 6 -3
10 -11 10 -16z m142 -401 c-7 -7 -12 -8 -12 -2 0 14 12 26 19 19 2 -3 -1 -11
-7 -17z m-1068 -16 c3 -5 -8 -6 -25 -4 -16 2 -29 6 -29 8 0 8 49 4 54 -4z
m1016 -62 c0 -5 -4 -10 -10 -10 -5 0 -10 5 -10 10 0 6 5 10 10 10 6 0 10 -4
10 -10z m-1137 -17 c-7 -2 -19 -2 -25 0 -7 3 -2 5 12 5 14 0 19 -2 13 -5z
m1145 -81 c3 -9 -2 -13 -14 -10 -9 1 -19 9 -22 16 -3 9 2 13 14 10 9 -1 19 -9
22 -16z m36 -17 c-4 -8 -8 -15 -10 -15 -2 0 -4 7 -4 15 0 8 4 15 10 15 5 0 7
-7 4 -15z m-49 -75 c-3 -5 -10 -10 -16 -10 -5 0 -9 5 -9 10 0 6 7 10 16 10 8
0 12 -4 9 -10z m9 -88 c8 -13 -11 -35 -23 -28 -16 10 -14 36 3 36 8 0 17 -4
20 -8z m-27 -48 c-9 -9 -28 6 -21 18 4 6 10 6 17 -1 6 -6 8 -13 4 -17z m21
-62 c2 -12 -1 -22 -7 -22 -13 0 -32 35 -24 44 12 12 28 0 31 -22z m42 -22 c0
-5 -5 -10 -11 -10 -5 0 -7 5 -4 10 3 6 8 10 11 10 2 0 4 -4 4 -10z m-65 -10
c3 -5 -1 -10 -9 -10 -9 0 -16 5 -16 10 0 6 4 10 9 10 6 0 13 -4 16 -10z m243
-12 c-5 -32 -28 -35 -28 -4 0 17 5 26 16 26 10 0 14 -7 12 -22z m82 18 c0 -3
-4 -8 -10 -11 -5 -3 -10 -1 -10 4 0 6 5 11 10 11 6 0 10 -2 10 -4z m88 -20 c3
-12 -1 -17 -10 -14 -7 3 -15 13 -16 22 -3 12 1 17 10 14 7 -3 15 -13 16 -22z
m-228 -6 c0 -11 -4 -20 -10 -20 -5 0 -10 9 -10 20 0 11 5 20 10 20 6 0 10 -9
10 -20z m127 -66 c3 -8 11 -13 17 -11 8 3 11 -32 12 -119 l1 -124 -33 0 c-23
0 -34 -5 -37 -17 -3 -10 -5 41 -6 112 0 72 2 140 5 153 7 25 32 30 41 6z m86
-1 c3 -5 1 -37 -3 -73 -6 -51 -8 -56 -9 -24 0 23 -4 56 -7 73 -6 28 7 44 19
24z m-173 -37 c0 -3 -4 -8 -10 -11 -5 -3 -10 -1 -10 4 0 6 5 11 10 11 6 0 10
-2 10 -4z m-197 -46 c-6 -24 -26 -21 -31 3 -2 11 3 17 16 17 15 0 19 -5 15
-20z m31 5 c-4 -8 -8 -15 -10 -15 -2 0 -4 7 -4 15 0 8 4 15 10 15 5 0 7 -7 4
-15z m343 -107 c-3 -8 -6 -5 -6 6 -1 11 2 17 5 13 3 -3 4 -12 1 -19z m-97
-103 c0 -8 -2 -15 -4 -15 -2 0 -6 7 -10 15 -3 8 -1 15 4 15 6 0 10 -7 10 -15z
m-952 -42 c-5 -25 -28 -28 -28 -4 0 12 6 21 16 21 9 0 14 -7 12 -17z"/>
<path d="M8750 3650 l0 -140 25 0 c14 0 25 5 25 12 0 9 3 9 12 0 7 -7 25 -12
41 -12 50 0 73 92 42 167 -14 34 -17 35 -55 30 l-40 -5 0 44 c0 40 -2 44 -25
44 l-25 0 0 -140z m106 -4 c3 -13 4 -38 2 -57 -2 -29 -7 -34 -28 -34 -22 0
-25 5 -28 44 -4 55 2 71 27 71 13 0 23 -9 27 -24z"/>
<path d="M9420 3650 l0 -140 25 0 c22 0 25 4 25 35 0 19 4 35 8 35 5 0 16 -16
25 -35 13 -26 23 -35 42 -35 14 0 25 3 25 7 0 3 -13 30 -30 59 l-29 52 29 41
30 41 -29 0 c-22 0 -34 -8 -50 -32 l-21 -33 0 73 c0 70 -1 72 -25 72 l-25 0 0
-140z"/>
<path d="M9607 3784 c-4 -4 -7 -16 -7 -26 0 -14 6 -19 23 -16 14 2 22 10 22
23 0 20 -25 32 -38 19z"/>
<path d="M11234 3775 c-8 -19 3 -35 26 -35 22 0 33 23 17 39 -15 15 -37 14
-43 -4z"/>
<path d="M11440 3650 l0 -140 25 0 c23 0 24 3 27 78 3 69 5 77 23 77 18 0 20
-8 23 -77 3 -75 4 -78 27 -78 24 0 25 2 25 73 0 95 -14 122 -63 121 l-37 -1 0
43 c0 40 -2 44 -25 44 l-25 0 0 -140z"/>
<path d="M11710 3650 l0 -140 25 0 c14 0 25 5 25 12 0 9 3 9 12 0 7 -7 25 -12
41 -12 50 0 73 92 42 167 -14 34 -17 35 -55 30 l-40 -5 0 44 c0 40 -2 44 -25
44 l-25 0 0 -140z m106 -4 c3 -13 4 -38 2 -57 -2 -29 -7 -34 -28 -34 -22 0
-25 5 -28 44 -4 55 2 71 27 71 13 0 23 -9 27 -24z"/>
<path d="M12262 3778 c-15 -18 1 -41 24 -36 23 4 26 41 3 46 -9 1 -21 -3 -27
-10z"/>
<path d="M10177 3768 c-9 -7 -21 -25 -26 -40 -10 -26 -9 -28 14 -28 14 0 29 8
35 20 15 27 38 25 46 -4 7 -29 -6 -56 -57 -117 -22 -26 -39 -56 -39 -68 0 -19
5 -21 75 -21 68 0 75 2 75 20 0 17 -7 20 -40 20 -22 0 -40 3 -40 6 0 4 18 33
40 66 22 33 40 69 40 80 0 22 -18 60 -34 70 -18 12 -71 9 -89 -4z"/>
<path d="M10364 3759 c-16 -18 -19 -37 -19 -114 0 -107 14 -135 70 -135 56 0
70 28 70 135 0 107 -14 135 -70 135 -20 0 -39 -8 -51 -21z m71 -114 c0 -83 -1
-90 -20 -90 -18 0 -20 8 -23 79 -3 91 1 109 25 104 16 -3 18 -15 18 -93z"/>
<path d="M10557 3768 c-9 -7 -21 -25 -26 -40 -10 -26 -9 -28 14 -28 14 0 29 8
35 20 15 27 38 25 46 -4 7 -29 -6 -56 -57 -117 -22 -26 -39 -56 -39 -68 0 -19
5 -21 75 -21 68 0 75 2 75 20 0 17 -7 20 -40 20 -22 0 -40 3 -40 6 0 4 18 33
40 66 22 33 40 69 40 80 0 22 -18 60 -34 70 -18 12 -71 9 -89 -4z"/>
<path d="M10747 3768 c-9 -7 -21 -25 -26 -40 -10 -26 -9 -28 14 -28 14 0 29 8
35 20 15 27 38 25 46 -4 7 -29 -6 -56 -57 -117 -22 -26 -39 -56 -39 -68 0 -19
5 -21 75 -21 68 0 75 2 75 20 0 17 -7 20 -40 20 -22 0 -40 3 -40 6 0 4 18 33
40 66 22 33 40 69 40 80 0 22 -18 60 -34 70 -18 12 -71 9 -89 -4z"/>
<path d="M12767 3768 c-9 -7 -21 -25 -26 -40 -10 -26 -9 -28 14 -28 14 0 29 8
35 20 15 27 38 25 46 -4 7 -29 -6 -56 -57 -117 -22 -26 -39 -56 -39 -68 0 -19
5 -21 75 -21 68 0 75 2 75 20 0 17 -7 20 -40 20 -22 0 -40 3 -40 6 0 4 18 33
40 66 22 33 40 69 40 80 0 22 -18 60 -34 70 -18 12 -71 9 -89 -4z"/>
<path d="M12954 3759 c-16 -18 -19 -37 -19 -114 0 -107 14 -135 70 -135 56 0
70 28 70 135 0 107 -14 135 -70 135 -20 0 -39 -8 -51 -21z m71 -114 c0 -83 -1
-90 -20 -90 -18 0 -20 8 -23 79 -3 91 1 109 25 104 16 -3 18 -15 18 -93z"/>
<path d="M13147 3768 c-9 -7 -21 -25 -26 -40 -10 -26 -9 -28 14 -28 14 0 29 8
35 20 15 27 38 25 46 -4 7 -29 -6 -56 -57 -117 -22 -26 -39 -56 -39 -68 0 -19
5 -21 75 -21 68 0 75 2 75 20 0 17 -7 20 -40 20 -22 0 -40 3 -40 6 0 4 18 33
40 66 22 33 40 69 40 80 0 22 -18 60 -34 70 -18 12 -71 9 -89 -4z"/>
<path d="M13321 3754 c-12 -15 -21 -31 -21 -35 0 -15 48 -10 54 6 8 21 44 19
48 -2 7 -33 -4 -53 -28 -53 -17 0 -24 -6 -24 -20 0 -13 7 -20 19 -20 27 0 44
-26 37 -55 -7 -28 -43 -35 -52 -10 -7 19 -54 20 -54 2 0 -23 45 -57 76 -57 64
0 103 65 69 116 -12 19 -14 29 -6 37 20 20 13 84 -11 101 -35 25 -83 20 -107
-10z"/>
<path d="M11340 3735 c0 -16 -6 -25 -15 -25 -8 0 -15 -9 -15 -20 0 -11 7 -20
15 -20 12 0 15 -14 15 -68 0 -73 10 -92 47 -92 27 0 33 34 8 44 -11 4 -15 21
-15 61 0 42 3 55 15 55 8 0 15 9 15 20 0 11 -7 20 -15 20 -9 0 -15 9 -15 25 0
18 -5 25 -20 25 -15 0 -20 -7 -20 -25z"/>
<path d="M8940 3609 c0 -98 0 -99 25 -99 23 0 24 3 27 73 3 66 5 72 26 75 15
2 22 10 22 27 0 21 -4 23 -50 23 l-50 1 0 -100z"/>
<path d="M9080 3690 c-30 -30 -29 -129 3 -158 36 -34 127 -26 115 9 -3 9 -20
14 -44 14 -29 0 -39 4 -42 18 -3 14 4 17 47 17 50 0 51 0 51 31 0 32 -15 69
-34 81 -22 15 -76 8 -96 -12z m78 -43 c3 -12 -3 -17 -22 -17 -25 0 -35 18 -19
34 12 12 38 2 41 -17z"/>
<path d="M9257 3692 c-10 -10 -17 -24 -17 -30 0 -17 47 -15 54 3 7 20 36 8 36
-15 0 -14 -9 -20 -32 -22 -20 -2 -38 -13 -51 -29 -17 -24 -18 -30 -5 -55 12
-27 18 -29 76 -31 l62 -2 0 77 c0 97 -14 122 -69 122 -24 0 -44 -7 -54 -18z
m73 -112 c0 -23 -26 -38 -41 -23 -14 14 0 43 22 43 12 0 19 -7 19 -20z"/>
<path d="M9600 3610 l0 -100 25 0 25 0 0 100 0 100 -25 0 -25 0 0 -100z"/>
<path d="M9690 3609 c0 -98 0 -99 25 -99 23 0 24 3 27 78 3 69 5 77 23 77 18
0 20 -8 23 -77 3 -75 4 -78 27 -78 24 0 25 2 25 78 0 106 -11 120 -90 120
l-60 0 0 -99z"/>
<path d="M9885 3687 c-18 -26 -20 -112 -2 -147 11 -21 20 -25 55 -24 47 1 46
1 31 -28 -9 -16 -17 -19 -44 -14 -23 5 -34 2 -38 -8 -7 -19 44 -40 77 -32 50
12 56 28 56 155 l0 118 -60 1 c-50 1 -62 -2 -75 -21z m90 -77 c0 -52 -1 -55
-25 -55 -22 0 -25 5 -28 44 -4 57 3 73 30 69 21 -3 23 -9 23 -58z"/>
<path d="M11003 3610 c18 -91 22 -101 40 -98 16 2 24 15 33 51 7 27 15 51 17
54 3 2 11 -21 18 -51 10 -47 16 -56 34 -56 19 0 23 10 38 88 21 111 21 112 -3
112 -14 0 -21 -9 -25 -37 -11 -66 -17 -70 -30 -20 -8 27 -16 51 -19 54 -14 14
-35 -10 -41 -46 -10 -58 -21 -59 -29 -1 -6 44 -10 50 -30 50 l-23 0 20 -100z"/>
<path d="M11230 3610 l0 -100 25 0 25 0 0 100 0 100 -25 0 -25 0 0 -100z"/>
<path d="M11900 3626 c0 -64 4 -88 16 -100 18 -19 55 -21 72 -4 9 9 12 9 12 0
0 -7 11 -12 25 -12 l25 0 0 100 c0 100 0 100 -25 100 -23 0 -24 -3 -27 -77 -3
-72 -5 -78 -25 -81 -22 -3 -23 -1 -23 77 0 80 0 81 -25 81 -25 0 -25 -1 -25
-84z"/>
<path d="M12094 3685 c-22 -34 -7 -69 41 -92 35 -17 45 -36 24 -48 -5 -4 -18
0 -28 9 -21 19 -51 21 -51 3 0 -43 92 -64 123 -29 34 37 17 77 -42 102 -32 13
-40 33 -19 46 6 4 16 0 23 -9 15 -20 55 -23 55 -4 0 24 -36 47 -73 47 -28 0
-40 -6 -53 -25z"/>
<path d="M12260 3610 l0 -100 25 0 25 0 0 100 0 100 -25 0 -25 0 0 -100z"/>
<path d="M12370 3690 c-16 -16 -20 -33 -20 -80 0 -47 4 -64 20 -80 24 -24 91
-27 110 -5 18 22 3 34 -34 28 -28 -4 -36 -1 -45 16 -11 20 -10 21 45 21 l57 0
-6 41 c-3 22 -13 49 -23 60 -23 25 -78 25 -104 -1z m78 -43 c3 -13 -3 -17 -28
-17 -28 0 -30 2 -20 21 13 24 43 22 48 -4z"/>
<path d="M12530 3610 l0 -100 25 0 c24 0 25 2 25 75 0 68 2 75 20 75 15 0 20
7 20 25 0 27 -18 33 -38 13 -9 -9 -12 -9 -12 0 0 7 -9 12 -20 12 -19 0 -20 -7
-20 -100z"/>
<path d="M12822 3213 c201 -2 534 -2 740 0 205 1 40 2 -367 2 -407 0 -575 -1
-373 -2z"/>
<path d="M12414 3010 c0 -91 2 -128 3 -82 2 45 2 119 0 165 -1 45 -3 8 -3 -83z"/>
<path d="M13974 3010 c0 -91 2 -128 3 -82 2 45 2 119 0 165 -1 45 -3 8 -3 -83z"/>
<path d="M13522 3084 c14 -4 18 -20 21 -77 l4 -72 -1 75 c-1 67 -3 75 -21 77
-15 1 -16 1 -3 -3z"/>
<path d="M13733 3015 c0 -44 2 -61 4 -37 2 23 2 59 0 80 -2 20 -4 1 -4 -43z"/>
<path d="M8870 3070 c-9 -6 -10 -10 -3 -10 8 0 13 -23 16 -62 l3 -63 2 73 c1
39 1 72 0 72 -2 0 -10 -5 -18 -10z"/>
<path d="M9038 3073 c6 -2 18 -2 25 0 6 3 1 5 -13 5 -14 0 -19 -2 -12 -5z"/>
<path d="M9418 3073 c7 -3 16 -2 19 1 4 3 -2 6 -13 5 -11 0 -14 -3 -6 -6z"/>
<path d="M9506 3071 c-4 -5 3 -7 14 -4 23 6 26 13 6 13 -8 0 -17 -4 -20 -9z"/>
<path d="M9610 3076 c0 -2 9 -6 20 -9 11 -3 18 -1 14 4 -5 9 -34 13 -34 5z"/>
<path d="M9710 3076 c0 -2 9 -6 20 -9 11 -3 18 -1 14 4 -5 9 -34 13 -34 5z"/>
<path d="M12618 3018 c-2 -35 0 -67 4 -72 4 -6 8 22 8 62 0 40 -2 72 -4 72 -2
0 -6 -28 -8 -62z"/>
<path d="M12700 3071 c0 -6 4 -13 10 -16 6 -3 7 1 4 9 -7 18 -14 21 -14 7z"/>
<path d="M12797 3073 c-3 -5 8 -8 23 -8 15 0 26 3 23 8 -2 4 -13 7 -23 7 -10
0 -21 -3 -23 -7z"/>
<path d="M12920 3071 c0 -6 4 -13 10 -16 6 -3 7 1 4 9 -7 18 -14 21 -14 7z"/>
<path d="M13028 3073 c7 -3 16 -2 19 1 4 3 -2 6 -13 5 -11 0 -14 -3 -6 -6z"/>
<path d="M13831 3013 c0 -34 2 -64 7 -66 4 -3 6 16 4 41 -5 80 -9 90 -11 25z"/>
<path d="M13003 3046 c1 -11 18 -28 37 -39 24 -13 29 -14 16 -3 -11 9 -24 16
-28 16 -5 0 -13 10 -18 23 -8 18 -10 18 -7 3z"/>
<path d="M9093 3015 c0 -22 2 -30 4 -17 2 12 2 30 0 40 -3 9 -5 -1 -4 -23z"/>
<path d="M9553 3010 c0 -25 2 -35 4 -22 2 12 2 32 0 45 -2 12 -4 2 -4 -23z"/>
<path d="M13635 3029 c-4 -6 -5 -12 -2 -15 2 -3 7 2 10 11 7 17 1 20 -8 4z"/>
<path d="M9131 2985 c0 -11 3 -14 6 -7 2 6 18 12 34 12 16 0 29 3 29 8 0 4
-16 7 -35 7 -29 0 -35 -4 -34 -20z"/>
<path d="M13403 2993 c9 -2 25 -2 35 0 9 3 1 5 -18 5 -19 0 -27 -2 -17 -5z"/>
<path d="M12688 2983 c12 -2 30 -2 40 0 9 3 -1 5 -23 4 -22 0 -30 -2 -17 -4z"/>
<path d="M12908 2983 c12 -2 30 -2 40 0 9 3 -1 5 -23 4 -22 0 -30 -2 -17 -4z"/>
<path d="M9148 2948 c5 -5 16 -8 23 -6 8 3 3 7 -10 11 -17 4 -21 3 -13 -5z"/>
<path d="M9530 2950 c-9 -6 -10 -10 -3 -10 6 0 15 5 18 10 8 12 4 12 -15 0z"/>
<path d="M9038 2943 c7 -3 16 -2 19 1 4 3 -2 6 -13 5 -11 0 -14 -3 -6 -6z"/>
<path d="M9413 2943 c9 -2 25 -2 35 0 9 3 1 5 -18 5 -19 0 -27 -2 -17 -5z"/>
<path d="M9608 2943 c12 -2 30 -2 40 0 9 3 -1 5 -23 4 -22 0 -30 -2 -17 -4z"/>
<path d="M9708 2943 c12 -2 30 -2 40 0 9 3 -1 5 -23 4 -22 0 -30 -2 -17 -4z"/>
<path d="M13028 2943 c7 -3 16 -2 19 1 4 3 -2 6 -13 5 -11 0 -14 -3 -6 -6z"/>
<path d="M13418 2943 c7 -3 16 -2 19 1 4 3 -2 6 -13 5 -11 0 -14 -3 -6 -6z"/>
<path d="M12822 2803 c201 -2 534 -2 740 0 205 1 40 2 -367 2 -407 0 -575 -1
-373 -2z"/>
<path d="M9393 2445 c0 -61 1 -69 6 -35 4 32 11 46 24 48 14 3 17 -4 17 -42 0
-25 5 -46 10 -46 13 0 13 66 -1 91 -7 13 -16 18 -29 14 -15 -5 -19 0 -23 22
-2 15 -4 -8 -4 -52z"/>
<path d="M9813 2445 c0 -61 1 -69 6 -35 4 32 11 46 24 48 14 3 17 -4 17 -42 0
-25 5 -46 10 -46 13 0 13 66 -1 91 -7 13 -16 18 -29 14 -15 -5 -19 0 -23 22
-2 15 -4 -8 -4 -52z"/>
<path d="M10420 2494 c0 -19 -4 -25 -15 -20 -21 8 -45 -21 -45 -53 0 -33 17
-51 48 -48 21 1 22 6 22 74 0 40 -2 73 -5 73 -3 0 -5 -12 -5 -26z m-2 -71 c-2
-26 -8 -38 -18 -38 -10 0 -16 12 -18 38 -3 32 0 37 18 37 18 0 21 -5 18 -37z"/>
<path d="M10573 2445 c0 -61 1 -69 6 -35 4 32 11 46 24 48 14 3 17 -4 17 -42
0 -25 5 -46 10 -46 15 0 12 86 -4 99 -7 6 -20 9 -29 5 -11 -4 -17 2 -20 23 -2
15 -4 -8 -4 -52z"/>
<path d="M11270 2494 c0 -20 -4 -24 -19 -19 -26 8 -43 -17 -39 -62 3 -35 5
-38 36 -39 l32 -1 0 74 c0 40 -2 73 -5 73 -3 0 -5 -12 -5 -26z m-2 -64 c3 -33
-12 -55 -32 -47 -16 6 -23 57 -9 71 14 14 38 0 41 -24z"/>
<path d="M11363 2493 c-10 -35 -5 -123 8 -123 8 0 14 69 9 114 -1 10 4 23 12
27 10 7 9 9 -4 9 -9 0 -20 -12 -25 -27z"/>
<path d="M11633 2445 c0 -44 2 -61 4 -37 2 23 2 59 0 80 -2 20 -4 1 -4 -43z"/>
<path d="M12050 2445 c0 -43 4 -75 10 -75 6 0 10 21 10 46 0 38 3 45 18 42 12
-2 19 -16 23 -48 l6 -45 1 53 c2 51 -2 57 -35 53 -8 -1 -13 9 -13 24 0 14 -4
25 -10 25 -6 0 -10 -32 -10 -75z"/>
<path d="M12903 2445 c0 -44 2 -61 4 -37 2 23 2 59 0 80 -2 20 -4 1 -4 -43z"/>
<path d="M13190 2494 c0 -20 -4 -25 -16 -20 -25 9 -44 -12 -44 -49 0 -37 16
-55 48 -52 21 1 22 6 22 74 0 40 -2 73 -5 73 -3 0 -5 -12 -5 -26z m0 -68 c0
-41 -16 -55 -37 -33 -21 21 -9 67 17 67 16 0 20 -7 20 -34z"/>
<path d="M13810 2447 l0 -74 30 -1 c32 -1 50 20 50 57 0 26 -26 52 -45 45 -11
-5 -15 1 -15 20 0 14 -4 26 -10 26 -6 0 -10 -31 -10 -73z m58 -24 c-2 -26 -8
-38 -18 -38 -10 0 -16 12 -18 38 -3 32 0 37 18 37 18 0 21 -5 18 -37z"/>
<path d="M8757 2503 c-18 -17 -6 -53 23 -68 33 -17 39 -42 14 -52 -10 -4 -22
1 -30 12 -8 10 -16 16 -19 13 -9 -9 25 -38 44 -38 25 0 44 25 37 47 -3 10 -19
26 -36 35 -33 19 -38 35 -14 45 10 4 22 -1 30 -12 8 -10 17 -16 20 -12 4 4 1
13 -6 22 -13 15 -51 20 -63 8z"/>
<path d="M9247 2475 c16 -33 16 -37 0 -70 -9 -19 -12 -35 -7 -35 6 0 10 4 10
8 0 5 6 17 14 27 14 19 15 19 27 -8 7 -15 16 -27 21 -27 5 0 0 17 -10 37 -19
36 -19 37 0 70 11 18 15 33 9 33 -6 0 -17 -12 -25 -27 l-14 -28 -13 28 c-7 15
-16 27 -20 27 -5 0 -1 -16 8 -35z"/>
<path d="M10002 2480 c-7 -12 -8 -20 -2 -20 5 0 10 -20 10 -45 0 -36 3 -45 18
-45 12 0 14 2 4 8 -8 6 -12 27 -11 60 2 60 -2 69 -19 42z"/>
<path d="M10062 2480 c-7 -12 -8 -20 -2 -20 5 0 10 -20 10 -45 0 -36 3 -45 18
-45 12 0 14 2 4 8 -8 6 -12 27 -11 60 2 60 -2 69 -19 42z"/>
<path d="M10512 2480 c-7 -12 -8 -20 -2 -20 5 0 10 -20 10 -45 0 -36 3 -45 18
-45 12 0 14 2 4 8 -8 6 -12 27 -11 60 2 60 -2 69 -19 42z"/>
<path d="M8868 2473 c-15 -4 -18 -16 -17 -76 1 -42 4 -62 8 -47 4 18 13 25 31
25 22 0 25 5 28 38 3 35 -11 69 -27 66 -3 -1 -14 -3 -23 -6z m37 -53 c0 -28
-4 -35 -20 -35 -13 0 -21 8 -23 23 -5 34 5 54 25 50 13 -2 18 -13 18 -38z"/>
<path d="M8964 2465 c-18 -15 -18 -15 9 -9 20 5 27 2 27 -9 0 -9 -10 -17 -22
-19 -17 -2 -23 -10 -23 -28 0 -21 5 -25 33 -27 31 -1 32 0 32 37 0 22 -7 45
-16 54 -19 19 -16 19 -40 1z m36 -59 c0 -8 -5 -18 -11 -22 -14 -8 -33 11 -25
25 10 16 36 13 36 -3z"/>
<path d="M9056 2464 c-20 -19 -21 -68 -1 -84 18 -15 47 -10 53 10 4 13 3 13
-11 2 -23 -19 -37 -6 -37 34 0 27 4 34 20 34 11 0 20 -5 20 -12 0 -6 3 -8 6
-5 8 7 -14 37 -27 37 -4 0 -15 -7 -23 -16z"/>
<path d="M9151 2466 c-7 -8 -11 -32 -9 -53 3 -33 7 -38 31 -41 15 -2 27 1 27
6 0 5 -10 8 -22 8 -14 -1 -24 6 -26 17 -3 13 3 17 27 17 35 0 41 19 15 44 -19
20 -28 20 -43 2z m39 -21 c0 -8 -9 -15 -20 -15 -11 0 -20 7 -20 15 0 8 9 15
20 15 11 0 20 -7 20 -15z"/>
<path d="M9503 2473 c-23 -9 -14 -20 12 -15 18 3 25 0 25 -12 0 -9 -8 -16 -19
-16 -24 0 -43 -23 -35 -44 4 -11 16 -15 35 -14 27 2 29 5 29 43 0 23 -5 46
-12 53 -13 13 -16 13 -35 5z m35 -70 c-5 -26 -38 -29 -38 -4 0 15 6 21 21 21
14 0 19 -5 17 -17z"/>
<path d="M9592 2468 c-19 -19 -14 -37 13 -50 14 -6 25 -15 25 -19 0 -16 -21
-20 -37 -7 -14 11 -15 11 -11 -2 6 -19 35 -25 53 -10 18 15 10 35 -21 49 -28
12 -22 35 7 28 23 -6 26 8 3 17 -20 8 -18 8 -32 -6z"/>
<path d="M9733 2473 c-22 -8 -14 -43 12 -55 14 -6 25 -15 25 -19 0 -16 -21
-20 -37 -7 -14 11 -15 11 -11 -2 2 -8 16 -15 29 -15 35 0 38 38 4 53 -33 15
-33 36 0 30 28 -6 34 6 9 16 -9 3 -16 6 -17 5 -1 0 -8 -3 -14 -6z"/>
<path d="M9923 2473 c-23 -9 -14 -20 12 -15 18 3 25 0 25 -12 0 -9 -8 -16 -19
-16 -24 0 -43 -23 -35 -44 4 -11 16 -15 35 -14 27 2 29 5 29 43 0 23 -5 46
-12 53 -13 13 -16 13 -35 5z m35 -70 c-5 -26 -38 -29 -38 -4 0 15 6 21 21 21
14 0 19 -5 17 -17z"/>
<path d="M10131 2466 c-7 -8 -11 -32 -9 -53 3 -33 7 -38 31 -41 15 -2 27 1 27
6 0 5 -10 8 -22 8 -14 -1 -24 6 -26 17 -3 13 3 17 27 17 35 0 41 19 15 44 -19
20 -28 20 -43 2z m39 -21 c0 -8 -9 -15 -20 -15 -11 0 -20 7 -20 15 0 8 9 15
20 15 11 0 20 -7 20 -15z"/>
<path d="M10228 2472 c-14 -3 -18 -14 -18 -53 0 -27 5 -49 10 -49 6 0 10 20
10 44 0 26 5 46 13 49 17 6 5 14 -15 9z"/>
<path d="M10286 2467 c-13 -9 -17 -24 -14 -52 2 -33 7 -41 27 -43 13 -2 28 1
34 7 7 7 1 10 -19 8 -20 -1 -29 3 -32 16 -3 13 3 17 27 17 24 0 31 4 31 20 0
27 -32 43 -54 27z m38 -22 c4 -11 -1 -15 -19 -15 -24 0 -32 10 -18 23 11 12
31 8 37 -8z"/>
<path d="M10676 2464 c-19 -18 -21 -65 -4 -82 14 -14 44 -16 52 -4 3 5 -5 8
-17 8 -13 -1 -23 6 -25 17 -3 13 3 17 22 17 28 0 36 26 14 48 -16 16 -23 15
-42 -4z m44 -19 c0 -8 -9 -15 -20 -15 -11 0 -20 7 -20 15 0 8 9 15 20 15 11 0
20 -7 20 -15z"/>
<path d="M10823 2473 c-9 -3 -12 -23 -11 -56 l2 -52 3 47 c3 34 9 48 21 50 9
2 13 6 7 9 -5 4 -16 4 -22 2z"/>
<path d="M10876 2464 c-19 -18 -21 -65 -4 -82 14 -14 44 -16 52 -4 3 5 -5 8
-17 8 -13 -1 -23 6 -25 17 -3 13 3 17 22 17 28 0 36 26 14 48 -16 16 -23 15
-42 -4z m44 -19 c0 -8 -9 -15 -20 -15 -11 0 -20 7 -20 15 0 8 9 15 20 15 11 0
20 -7 20 -15z"/>
<path d="M10971 2466 c-7 -8 -11 -32 -9 -53 2 -30 8 -39 24 -41 11 -2 27 4 34
13 7 9 8 15 2 15 -6 0 -12 -5 -14 -12 -9 -26 -38 2 -38 37 0 28 4 35 19 35 11
0 21 -6 24 -12 2 -7 7 -10 11 -7 7 7 -20 39 -33 39 -5 0 -14 -6 -20 -14z"/>
<path d="M11068 2469 c-21 -12 -24 -69 -6 -87 36 -36 80 16 56 66 -15 30 -27
35 -50 21z m37 -49 c0 -28 -4 -35 -20 -35 -13 0 -21 8 -23 23 -5 34 5 54 25
50 13 -2 18 -13 18 -38z"/>
<path d="M11168 2472 c-15 -3 -18 -13 -16 -55 1 -47 2 -48 5 -12 2 22 11 46
20 52 19 15 15 21 -9 15z"/>
<path d="M11437 2469 c-23 -13 -24 -87 -1 -96 27 -10 49 11 52 50 4 41 -20 63
-51 46z m38 -49 c0 -28 -4 -35 -20 -35 -13 0 -21 8 -23 23 -5 34 5 54 25 50
13 -2 18 -13 18 -38z"/>
<path d="M11538 2472 c-15 -3 -18 -13 -16 -55 1 -47 2 -48 5 -12 2 22 11 46
20 52 19 15 15 21 -9 15z"/>
<path d="M11684 2465 c-18 -15 -18 -15 9 -9 20 5 27 2 27 -9 0 -9 -10 -17 -22
-19 -17 -2 -23 -10 -23 -28 0 -21 5 -25 33 -27 31 -1 32 0 32 37 0 22 -7 45
-16 54 -19 19 -16 19 -40 1z m36 -59 c0 -8 -5 -18 -11 -22 -14 -8 -33 11 -25
25 10 16 36 13 36 -3z"/>
<path d="M11883 2472 c-20 -3 -23 -9 -23 -53 0 -27 5 -49 10 -49 6 0 10 21 10
46 0 38 3 45 18 42 12 -2 19 -16 23 -48 l6 -45 1 51 c2 55 -5 63 -45 56z"/>
<path d="M11976 2467 c-26 -19 -18 -91 10 -95 11 -2 27 4 34 13 7 9 8 15 2 15
-6 0 -12 -5 -14 -12 -8 -24 -38 1 -38 32 0 34 22 49 45 30 10 -8 15 -9 15 -2
0 20 -36 32 -54 19z"/>
<path d="M12161 2466 c-7 -8 -11 -32 -9 -53 3 -33 7 -38 31 -41 15 -2 27 1 27
6 0 5 -10 8 -22 8 -14 -1 -24 6 -26 17 -3 13 3 17 27 17 35 0 41 19 15 44 -19
20 -28 20 -43 2z m39 -21 c0 -8 -9 -15 -20 -15 -11 0 -20 7 -20 15 0 8 9 15
20 15 11 0 20 -7 20 -15z"/>
<path d="M12254 2465 c-19 -15 -18 -16 9 -38 15 -12 27 -28 27 -35 0 -16 -27
-16 -33 1 -2 6 -8 8 -13 4 -10 -10 14 -27 39 -27 31 0 33 31 4 54 -34 28 -34
40 0 31 23 -5 25 -4 14 9 -17 20 -22 20 -47 1z"/>
<path d="M12448 2472 c-15 -3 -18 -13 -16 -55 l2 -52 3 48 c3 38 8 47 23 47
15 0 20 -9 23 -47 l3 -48 2 51 c2 53 -6 64 -40 56z"/>
<path d="M12581 2466 c-9 -11 -6 -12 14 -8 18 3 25 0 25 -11 0 -9 -10 -17 -22
-19 -17 -2 -23 -10 -23 -28 0 -21 5 -25 30 -27 30 -1 30 -1 26 45 -4 57 -25
78 -50 48z m39 -60 c0 -8 -5 -18 -11 -22 -14 -8 -33 11 -25 25 10 16 36 13 36
-3z"/>
<path d="M12726 2467 c-26 -19 -18 -91 10 -95 11 -2 27 4 34 13 7 9 8 15 2 15
-6 0 -12 -5 -14 -12 -8 -24 -38 1 -38 32 0 34 22 49 45 30 10 -8 15 -9 15 -2
0 20 -36 32 -54 19z"/>
<path d="M12823 2473 c-19 -7 -16 -20 5 -19 24 1 27 -18 3 -22 -21 -3 -37 -35
-26 -52 3 -6 20 -9 36 -8 27 2 29 5 29 43 0 23 -5 46 -12 53 -13 13 -16 13
-35 5z m37 -61 c0 -10 -22 -32 -32 -32 -4 0 -8 9 -8 20 0 13 7 20 20 20 11 0
20 -4 20 -8z"/>
<path d="M12956 2464 c-19 -18 -21 -65 -4 -82 15 -15 45 -15 54 0 5 8 2 9 -11
5 -18 -7 -45 8 -45 24 0 5 14 9 30 9 22 0 30 5 30 18 0 18 -18 42 -31 42 -4 0
-15 -7 -23 -16z m42 -21 c2 -8 -6 -13 -22 -13 -19 0 -24 4 -19 15 6 18 34 16
41 -2z"/>
<path d="M13058 2473 c-15 -4 -18 -15 -16 -56 l1 -52 6 45 c4 32 11 46 24 48
14 3 17 -4 17 -42 0 -25 5 -46 10 -46 13 0 13 66 0 91 -11 19 -13 20 -42 12z"/>
<path d="M13253 2473 c-19 -7 -16 -20 5 -19 24 1 27 -18 3 -22 -21 -3 -37 -35
-26 -52 3 -6 20 -9 36 -8 27 2 29 5 29 43 0 23 -5 46 -12 53 -13 13 -16 13
-35 5z m37 -61 c0 -10 -22 -32 -32 -32 -4 0 -8 9 -8 20 0 13 7 20 20 20 11 0
20 -4 20 -8z"/>
<path d="M13348 2472 c-15 -3 -18 -13 -16 -55 1 -47 2 -48 5 -12 2 22 11 46
20 52 19 15 15 21 -9 15z"/>
<path d="M13531 2466 c-7 -8 -11 -32 -9 -53 3 -33 7 -38 31 -41 15 -2 27 1 27
6 0 5 -10 8 -22 8 -14 -1 -24 6 -26 17 -3 13 3 17 27 17 35 0 41 19 15 44 -19
20 -28 20 -43 2z m39 -21 c0 -8 -9 -15 -20 -15 -11 0 -20 7 -20 15 0 8 9 15
20 15 11 0 20 -7 20 -15z"/>
<path d="M13624 2465 c-18 -15 -18 -15 9 -9 20 5 27 2 27 -9 0 -9 -10 -17 -22
-19 -17 -2 -23 -10 -23 -28 0 -21 5 -25 33 -27 31 -1 32 0 32 37 0 22 -7 45
-16 54 -19 19 -16 19 -40 1z m36 -59 c0 -8 -5 -18 -11 -22 -14 -8 -33 11 -25
25 10 16 36 13 36 -3z"/>
<path d="M13728 2472 c-15 -3 -18 -13 -16 -55 1 -47 2 -48 5 -12 2 22 11 46
20 52 19 15 15 21 -9 15z"/>
<path d="M11774 2425 c1 -49 2 -50 34 -52 32 -1 32 -1 32 48 0 60 -18 65 -22
7 -4 -61 -31 -59 -39 2 l-7 45 2 -50z"/>
<path d="M12380 2420 c0 -27 5 -50 10 -50 6 0 10 23 10 50 0 28 -4 50 -10 50
-5 0 -10 -22 -10 -50z"/>
<path d="M13436 2443 c4 -15 11 -39 16 -52 6 -18 4 -29 -9 -44 -14 -15 -15
-19 -3 -15 8 2 23 27 32 54 19 56 23 108 4 56 -12 -33 -26 -34 -26 -1 0 10 -5
21 -10 24 -7 4 -8 -3 -4 -22z"/>
<path d="M13917 2418 c12 -39 13 -56 4 -70 -6 -10 -7 -18 -1 -18 10 0 53 130
45 138 -2 3 -7 -3 -10 -12 -16 -51 -18 -52 -28 -18 -5 17 -13 32 -17 32 -4 0
-1 -23 7 -52z"/>
<path d="M9233 2115 c0 -44 2 -61 4 -37 2 23 2 59 0 80 -2 20 -4 1 -4 -43z"/>
<path d="M9663 2115 c0 -44 1 -71 4 -60 8 33 19 37 33 10 7 -14 17 -25 22 -25
4 0 -1 14 -12 32 -18 30 -18 34 -3 50 9 10 11 18 5 18 -6 0 -17 -10 -24 -22
-12 -22 -13 -20 -19 27 -5 42 -6 38 -6 -30z"/>
<path d="M10463 2115 c0 -45 2 -59 4 -32 3 38 8 47 23 47 15 0 20 -9 23 -47
l3 -48 2 53 c2 51 -2 57 -35 53 -6 -1 -14 11 -16 26 -2 15 -4 -8 -4 -52z"/>
<path d="M10603 2115 c0 -44 2 -61 4 -37 2 23 2 59 0 80 -2 20 -4 1 -4 -43z"/>
<path d="M11033 2115 c0 -44 1 -71 4 -60 8 33 19 37 33 10 7 -14 17 -25 22
-25 5 0 1 14 -9 30 -14 25 -15 34 -5 50 7 11 8 20 3 20 -5 0 -11 -7 -15 -15
-11 -28 -25 -15 -29 28 -2 23 -4 6 -4 -38z"/>
<path d="M11413 2115 c0 -44 2 -61 4 -37 2 23 2 59 0 80 -2 20 -4 1 -4 -43z"/>
<path d="M12160 2164 c0 -20 -4 -25 -16 -20 -25 9 -44 -12 -44 -49 0 -37 16
-55 48 -52 21 1 22 6 22 74 0 40 -2 73 -5 73 -3 0 -5 -12 -5 -26z m0 -68 c0
-41 -16 -55 -37 -33 -21 21 -9 67 17 67 16 0 20 -7 20 -34z"/>
<path d="M12930 2164 c0 -19 -4 -25 -15 -20 -21 8 -45 -21 -45 -53 0 -33 17
-51 48 -48 21 1 22 6 22 74 0 40 -2 73 -5 73 -3 0 -5 -12 -5 -26z m-2 -71 c-2
-26 -8 -38 -18 -38 -10 0 -16 12 -18 38 -3 32 0 37 18 37 18 0 21 -5 18 -37z"/>
<path d="M13683 2115 c0 -45 2 -59 4 -32 3 38 8 47 23 47 15 0 20 -9 23 -47
l3 -48 2 53 c2 51 -2 57 -35 53 -6 -1 -14 11 -16 26 -2 15 -4 -8 -4 -52z"/>
<path d="M5790 2170 c0 -5 5 -10 11 -10 5 0 7 5 4 10 -3 6 -8 10 -11 10 -2 0
-4 -4 -4 -10z"/>
<path d="M9842 2150 c-7 -12 -8 -20 -2 -20 5 0 10 -20 10 -45 0 -36 3 -45 18
-45 12 0 14 2 4 8 -8 6 -12 27 -11 60 2 60 -2 69 -19 42z"/>
<path d="M9949 2153 c-8 -35 6 -106 21 -111 12 -4 13 -2 3 9 -15 15 -17 76 -4
81 5 2 4 11 -3 21 -13 17 -14 17 -17 0z"/>
<path d="M11939 2153 c-8 -35 6 -106 21 -111 12 -4 13 -2 3 9 -15 15 -17 76
-4 81 5 2 4 11 -3 21 -13 17 -14 17 -17 0z"/>
<path d="M12432 2149 c-7 -10 -8 -19 -3 -19 6 0 11 -19 13 -42 2 -26 9 -43 18
-46 12 -4 13 -2 3 9 -15 15 -17 76 -4 81 5 2 4 11 -3 20 -11 15 -13 15 -24 -3z"/>
<path d="M13212 2150 c-7 -12 -8 -20 -2 -20 5 0 10 -20 10 -45 0 -36 3 -45 18
-45 12 0 14 2 4 8 -8 6 -12 27 -11 60 2 60 -2 69 -19 42z"/>
<path d="M13272 2150 c-7 -12 -8 -20 -2 -20 5 0 10 -20 10 -45 0 -36 3 -45 18
-45 12 0 14 2 4 8 -8 6 -12 27 -11 60 2 60 -2 69 -19 42z"/>
<path d="M13619 2153 c-8 -35 6 -106 21 -111 12 -4 13 -2 3 9 -15 15 -17 76
-4 81 5 2 4 11 -3 21 -13 17 -14 17 -17 0z"/>
<path d="M8761 2136 c-9 -11 -6 -12 14 -8 18 3 25 0 25 -11 0 -9 -10 -17 -22
-19 -17 -2 -23 -10 -23 -28 0 -21 5 -25 30 -27 30 -1 30 -1 26 45 -4 57 -25
78 -50 48z m39 -60 c0 -8 -5 -18 -11 -22 -14 -8 -33 11 -25 25 10 16 36 13 36
-3z"/>
<path d="M8902 2138 c-19 -19 -14 -37 13 -50 14 -6 25 -15 25 -19 0 -16 -21
-20 -37 -7 -14 11 -15 11 -11 -2 6 -19 35 -25 53 -10 18 15 10 35 -21 49 -28
12 -22 35 7 28 23 -6 26 8 3 17 -20 8 -18 8 -32 -6z"/>
<path d="M9048 2142 c-15 -3 -18 -13 -16 -55 l2 -52 3 48 c3 38 8 47 23 47 15
0 20 -9 23 -47 l3 -48 2 51 c2 53 -6 64 -40 56z"/>
<path d="M9132 2138 c-17 -17 -15 -73 3 -88 8 -7 22 -9 31 -6 11 4 14 1 12
-12 -2 -10 -12 -17 -26 -16 -14 0 -19 -3 -13 -9 5 -5 17 -7 27 -5 16 3 19 14
22 71 2 38 -1 67 -7 67 -5 0 -15 2 -23 5 -7 3 -19 0 -26 -7z m48 -42 c0 -41
-16 -55 -37 -33 -21 21 -9 67 17 67 16 0 20 -7 20 -34z"/>
<path d="M9281 2136 c-7 -8 -11 -32 -9 -53 3 -33 7 -38 31 -41 15 -2 27 1 27
6 0 5 -10 8 -22 8 -14 -1 -24 6 -26 17 -3 13 3 17 27 17 35 0 41 19 15 44 -19
20 -28 20 -43 2z m39 -21 c0 -8 -9 -15 -20 -15 -11 0 -20 7 -20 15 0 8 9 15
20 15 11 0 20 -7 20 -15z"/>
<path d="M9428 2142 c-15 -3 -18 -13 -16 -55 1 -47 2 -48 5 -12 2 22 11 46 20
52 19 15 15 21 -9 15z"/>
<path d="M9476 2134 c-29 -28 -13 -94 22 -94 26 0 42 20 42 51 0 27 -22 59
-40 59 -5 0 -16 -7 -24 -16z m50 -30 c4 -17 1 -31 -9 -41 -21 -22 -37 -8 -37
33 0 27 4 34 20 34 13 0 22 -9 26 -26z"/>
<path d="M9576 2134 c-20 -19 -21 -68 -1 -84 18 -15 47 -10 53 10 4 13 3 13
-11 2 -23 -19 -37 -6 -37 34 0 27 4 34 20 34 11 0 20 -5 20 -12 0 -6 3 -8 6
-5 8 7 -14 37 -27 37 -4 0 -15 -7 -23 -16z"/>
<path d="M9761 2136 c-7 -8 -11 -32 -9 -53 3 -33 7 -38 31 -41 15 -2 27 1 27
6 0 5 -10 8 -22 8 -14 -1 -24 6 -26 17 -3 13 3 17 27 17 35 0 41 19 15 44 -19
20 -28 20 -43 2z m39 -21 c0 -8 -9 -15 -20 -15 -11 0 -20 7 -20 15 0 8 9 15
20 15 11 0 20 -7 20 -15z"/>
<path d="M10108 2143 c-15 -4 -18 -16 -17 -76 1 -40 4 -60 6 -46 3 21 8 26 25
21 24 -6 38 12 38 54 0 27 -16 56 -29 53 -4 -1 -14 -3 -23 -6z m40 -43 c3 -33
-12 -55 -32 -47 -16 6 -23 57 -9 71 14 14 38 0 41 -24z"/>
<path d="M10196 2134 c-19 -18 -21 -65 -4 -82 14 -14 44 -16 52 -4 3 5 -5 8
-17 8 -13 -1 -23 6 -25 17 -3 13 3 17 22 17 28 0 36 26 14 48 -16 16 -23 15
-42 -4z m44 -19 c0 -8 -9 -15 -20 -15 -11 0 -20 7 -20 15 0 8 9 15 20 15 11 0
20 -7 20 -15z"/>
<path d="M10656 2134 c-19 -18 -21 -65 -4 -82 15 -15 45 -15 54 0 5 8 2 9 -11
5 -18 -7 -45 8 -45 24 0 5 14 9 30 9 22 0 30 5 30 18 0 18 -18 42 -31 42 -4 0
-15 -7 -23 -16z m42 -21 c2 -8 -6 -13 -22 -13 -19 0 -24 4 -19 15 6 18 34 16
41 -2z"/>
<path d="M10803 2142 c-20 -3 -23 -9 -23 -53 0 -27 5 -49 10 -49 6 0 10 21 10
46 0 38 3 45 18 42 12 -2 19 -16 23 -48 l5 -45 5 45 c3 32 9 46 21 48 14 3 18
-6 21 -45 4 -46 4 -46 3 7 l-1 55 -35 0 c-19 0 -45 -1 -57 -3z"/>
<path d="M10953 2143 c-19 -7 -16 -20 5 -19 24 1 27 -18 3 -22 -21 -3 -37 -35
-26 -52 3 -6 20 -9 36 -8 27 2 29 5 29 43 0 23 -5 46 -12 53 -13 13 -16 13
-35 5z m37 -61 c0 -10 -22 -32 -32 -32 -4 0 -8 9 -8 20 0 13 7 20 20 20 11 0
20 -4 20 -8z"/>
<path d="M11188 2142 c-15 -3 -18 -13 -16 -55 l2 -52 3 48 c3 38 8 47 23 47
15 0 20 -9 23 -47 l3 -48 2 51 c2 53 -6 64 -40 56z"/>
<path d="M11272 2138 c-17 -17 -15 -73 3 -88 8 -7 22 -9 31 -6 11 4 14 1 12
-12 -2 -10 -12 -17 -26 -16 -14 0 -19 -3 -13 -9 5 -5 17 -7 27 -5 16 3 19 14
22 71 2 38 -1 67 -7 67 -5 0 -15 2 -23 5 -7 3 -19 0 -26 -7z m48 -42 c0 -41
-16 -55 -37 -33 -21 21 -9 67 17 67 16 0 20 -7 20 -34z"/>
<path d="M11473 2143 c-19 -7 -16 -20 5 -19 24 1 27 -18 3 -22 -21 -3 -37 -35
-26 -52 3 -6 20 -9 36 -8 27 2 29 5 29 43 0 23 -5 46 -12 53 -13 13 -16 13
-35 5z m37 -61 c0 -10 -22 -32 -32 -32 -4 0 -8 9 -8 20 0 13 7 20 20 20 11 0
20 -4 20 -8z"/>
<path d="M11568 2142 c-15 -3 -18 -13 -16 -55 1 -47 2 -48 5 -12 2 22 11 46
20 52 19 15 15 21 -9 15z"/>
<path d="M11622 2141 c-9 -5 -12 -24 -10 -52 3 -39 6 -44 26 -43 16 0 22 -4
20 -15 -3 -10 -12 -15 -26 -14 -14 2 -21 -1 -17 -7 8 -14 38 -13 53 2 14 14
16 128 3 128 -5 0 -15 2 -23 5 -7 3 -19 1 -26 -4z m36 -48 c-2 -26 -8 -38 -18
-38 -10 0 -16 12 -18 38 -3 32 0 37 18 37 18 0 21 -5 18 -37z"/>
<path d="M11716 2134 c-19 -18 -21 -65 -4 -82 14 -14 44 -16 52 -4 3 5 -5 8
-17 8 -13 -1 -23 6 -25 17 -3 13 3 17 22 17 28 0 36 26 14 48 -16 16 -23 15
-42 -4z m44 -19 c0 -8 -9 -15 -20 -15 -11 0 -20 7 -20 15 0 8 9 15 20 15 11 0
20 -7 20 -15z"/>
<path d="M11863 2143 c-22 -8 -14 -36 15 -59 25 -21 26 -23 8 -30 -12 -5 -21
-3 -24 4 -2 7 -8 12 -14 12 -6 0 -6 -6 2 -15 17 -20 49 -19 57 2 4 11 -3 23
-20 37 -34 28 -34 40 0 31 23 -5 25 -4 14 9 -14 17 -18 18 -38 9z"/>
<path d="M12013 2143 c-9 -3 -12 -23 -11 -56 l2 -52 3 47 c3 34 9 48 21 50 9
2 13 6 7 9 -5 4 -16 4 -22 2z"/>
<path d="M12216 2137 c-13 -9 -17 -24 -14 -52 2 -33 7 -41 27 -43 13 -2 28 1
34 7 7 7 1 10 -19 8 -20 -1 -29 3 -32 16 -3 13 3 17 27 17 24 0 31 4 31 20 0
27 -32 43 -54 27z m38 -22 c4 -11 -1 -15 -19 -15 -24 0 -32 10 -18 23 11 12
31 8 37 -8z"/>
<path d="M12313 2143 c-22 -8 -14 -36 15 -59 25 -21 26 -23 8 -30 -12 -5 -21
-3 -24 4 -2 7 -8 12 -14 12 -6 0 -6 -6 2 -15 17 -20 49 -19 57 2 4 11 -3 23
-20 37 -34 28 -34 40 0 31 23 -5 25 -4 14 9 -14 17 -18 18 -38 9z"/>
<path d="M12507 2139 c-23 -13 -24 -87 -1 -96 27 -10 49 11 52 50 4 41 -20 63
-51 46z m38 -49 c0 -28 -4 -35 -20 -35 -13 0 -21 8 -23 23 -5 34 5 54 25 50
13 -2 18 -13 18 -38z"/>
<path d="M12734 2135 c-18 -15 -18 -15 9 -9 20 5 27 2 27 -9 0 -9 -10 -17 -22
-19 -17 -2 -23 -10 -23 -28 0 -21 5 -25 33 -27 31 -1 32 0 32 37 0 22 -7 45
-16 54 -19 19 -16 19 -40 1z m36 -59 c0 -8 -5 -18 -11 -22 -14 -8 -33 11 -25
25 10 16 36 13 36 -3z"/>
<path d="M12833 2143 c-9 -3 -12 -23 -11 -56 l2 -52 3 47 c3 34 9 48 21 50 9
2 13 6 7 9 -5 4 -16 4 -22 2z"/>
<path d="M13031 2136 c-7 -8 -11 -32 -9 -53 3 -34 6 -38 31 -38 15 1 27 -2 27
-6 0 -15 -29 -29 -45 -22 -13 4 -16 3 -11 -5 9 -15 39 -15 54 0 14 14 16 128
3 128 -5 0 -16 2 -24 5 -7 3 -19 -1 -26 -9z m47 -36 c3 -33 -12 -55 -32 -47
-16 6 -23 57 -9 71 14 14 38 0 41 -24z"/>
<path d="M13131 2136 c-7 -8 -11 -32 -9 -53 3 -33 7 -38 31 -41 15 -2 27 1 27
6 0 5 -10 8 -22 8 -14 -1 -24 6 -26 17 -3 13 3 17 27 17 35 0 41 19 15 44 -19
20 -28 20 -43 2z m39 -21 c0 -8 -9 -15 -20 -15 -11 0 -20 7 -20 15 0 8 9 15
20 15 11 0 20 -7 20 -15z"/>
<path d="M13398 2142 c-15 -3 -18 -13 -16 -55 l2 -52 3 48 c3 38 8 47 23 47
15 0 20 -9 23 -47 l3 -48 2 51 c2 53 -6 64 -40 56z"/>
<path d="M13482 2138 c-17 -17 -15 -73 3 -88 8 -7 22 -9 31 -6 11 4 14 1 12
-12 -2 -10 -12 -17 -26 -16 -14 0 -19 -3 -13 -9 5 -5 17 -7 27 -5 16 3 19 14
22 71 2 38 -1 67 -7 67 -5 0 -15 2 -23 5 -7 3 -19 0 -26 -7z m48 -42 c0 -41
-16 -55 -37 -33 -21 21 -9 67 17 67 16 0 20 -7 20 -34z"/>
<path d="M13786 2134 c-19 -18 -21 -65 -4 -82 15 -15 45 -15 54 0 5 8 2 9 -11
5 -18 -7 -45 8 -45 24 0 5 14 9 30 9 22 0 30 5 30 18 0 18 -18 42 -31 42 -4 0
-15 -7 -23 -16z m42 -21 c2 -8 -6 -13 -22 -13 -19 0 -24 4 -19 15 6 18 34 16
41 -2z"/>
<path d="M8980 2090 c0 -27 5 -50 10 -50 6 0 10 23 10 50 0 28 -4 50 -10 50
-5 0 -10 -22 -10 -50z"/>
<path d="M10006 2113 c4 -15 11 -39 16 -52 6 -18 4 -29 -9 -44 -14 -15 -15
-19 -3 -15 8 2 23 27 32 54 19 56 23 108 4 56 -12 -33 -26 -34 -26 -1 0 10 -5
21 -10 24 -7 4 -8 -3 -4 -22z"/>
<path d="M10325 2109 c4 -19 11 -43 15 -54 8 -21 8 -22 33 45 3 9 8 3 12 -18
11 -48 21 -47 34 4 14 53 7 73 -7 23 -9 -33 -11 -32 -26 14 -7 22 -26 13 -26
-13 0 -10 -4 -22 -10 -25 -6 -3 -10 5 -10 19 0 14 -5 28 -11 32 -8 4 -9 -4 -4
-27z"/>
<path d="M10563 2090 c0 -30 2 -43 4 -27 2 15 2 39 0 55 -2 15 -4 2 -4 -28z"/>
<path d="M11120 2090 c0 -27 5 -50 10 -50 6 0 10 23 10 50 0 28 -4 50 -10 50
-5 0 -10 -22 -10 -50z"/>
<path d="M12063 2090 c0 -30 2 -43 4 -27 2 15 2 39 0 55 -2 15 -4 2 -4 -28z"/>
<path d="M12592 2098 c14 -57 25 -66 33 -29 4 17 10 31 15 31 5 0 11 -14 15
-31 4 -17 10 -27 15 -22 11 12 29 93 20 93 -4 0 -11 -15 -15 -32 l-7 -33 -11
33 c-5 17 -13 32 -17 32 -4 0 -12 -15 -17 -32 l-11 -33 -7 33 c-4 17 -11 32
-15 32 -4 0 -3 -19 2 -42z"/>
<path d="M13330 2090 c0 -27 5 -50 10 -50 6 0 10 23 10 50 0 28 -4 50 -10 50
-5 0 -10 -22 -10 -50z"/>
<path d="M5278 2068 c6 -6 18 -8 28 -6 14 3 12 5 -9 10 -19 3 -25 2 -19 -4z"/>
<path d="M9783 1795 c0 -61 1 -69 6 -35 4 32 11 46 24 48 14 3 17 -4 17 -42 0
-25 5 -46 10 -46 15 0 12 86 -4 99 -7 6 -20 9 -29 5 -11 -4 -17 2 -20 23 -2
15 -4 -8 -4 -52z"/>
<path d="M10023 1795 c0 -44 2 -61 4 -37 2 23 2 59 0 80 -2 20 -4 1 -4 -43z"/>
<path d="M10314 1859 c-7 -12 -7 -130 1 -137 11 -11 15 7 16 69 1 35 7 67 13
71 7 5 5 8 -6 8 -9 0 -20 -5 -24 -11z"/>
<path d="M10373 1843 c-10 -35 -5 -123 8 -123 8 0 14 69 9 114 -1 10 4 23 12
27 10 7 9 9 -4 9 -9 0 -20 -12 -25 -27z"/>
<path d="M10530 1795 c0 -43 4 -75 10 -75 6 0 10 21 10 46 0 38 3 45 18 42 12
-2 19 -16 23 -48 l6 -45 1 53 c2 51 -2 57 -35 53 -8 -1 -13 9 -13 24 0 14 -4
25 -10 25 -6 0 -10 -32 -10 -75z"/>
<path d="M11280 1844 c0 -20 -4 -24 -19 -19 -26 8 -43 -17 -39 -62 3 -35 5
-38 36 -39 l32 -1 0 74 c0 40 -2 73 -5 73 -3 0 -5 -12 -5 -26z m-2 -64 c3 -33
-12 -55 -32 -47 -16 6 -23 57 -9 71 14 14 38 0 41 -24z"/>
<path d="M11460 1844 c0 -19 -4 -25 -15 -20 -21 8 -45 -21 -45 -53 0 -33 17
-51 48 -48 21 1 22 6 22 74 0 40 -2 73 -5 73 -3 0 -5 -12 -5 -26z m-2 -71 c-2
-26 -8 -38 -18 -38 -10 0 -16 12 -18 38 -3 32 0 37 18 37 18 0 21 -5 18 -37z"/>
<path d="M12184 1859 c-7 -12 -7 -130 1 -137 11 -11 15 7 16 69 1 35 7 67 13
71 7 5 5 8 -6 8 -9 0 -20 -5 -24 -11z"/>
<path d="M13013 1795 c0 -44 2 -61 4 -37 2 23 2 59 0 80 -2 20 -4 1 -4 -43z"/>
<path d="M13523 1795 c0 -61 1 -69 6 -35 4 32 11 46 24 48 14 3 17 -4 17 -42
0 -25 5 -46 10 -46 15 0 12 86 -4 99 -7 6 -20 9 -29 5 -11 -4 -17 2 -20 23 -2
15 -4 -8 -4 -52z"/>
<path d="M10472 1829 c-7 -10 -8 -19 -3 -19 6 0 11 -19 13 -42 2 -26 9 -43 18
-46 12 -4 13 -2 3 9 -15 15 -17 76 -4 81 5 2 4 11 -3 20 -11 15 -13 15 -24 -3z"/>
<path d="M11832 1829 c-7 -10 -8 -19 -3 -19 6 0 11 -19 13 -42 2 -26 9 -43 18
-46 12 -4 13 -2 3 9 -15 15 -17 76 -4 81 5 2 4 11 -3 20 -11 15 -13 15 -24 -3z"/>
<path d="M12599 1833 c-8 -35 6 -106 21 -111 12 -4 13 -2 3 9 -15 15 -17 76
-4 81 5 2 4 11 -3 21 -13 17 -14 17 -17 0z"/>
<path d="M13462 1830 c-7 -12 -8 -20 -2 -20 5 0 10 -20 10 -45 0 -36 3 -45 18
-45 12 0 14 2 4 8 -8 6 -12 27 -11 60 2 60 -2 69 -19 42z"/>
<path d="M8763 1823 c-22 -8 -14 -43 12 -55 14 -6 25 -15 25 -19 0 -16 -21
-20 -37 -7 -14 11 -15 11 -11 -2 2 -8 16 -15 29 -15 35 0 38 38 4 53 -33 15
-33 36 0 30 28 -6 34 6 9 16 -9 3 -16 6 -17 5 -1 0 -8 -3 -14 -6z"/>
<path d="M8946 1814 c-20 -19 -21 -68 -1 -84 18 -15 47 -10 53 10 4 13 3 13
-11 2 -23 -19 -37 -6 -37 34 0 27 4 34 20 34 11 0 20 -5 20 -12 0 -6 3 -8 6
-5 8 7 -14 37 -27 37 -4 0 -15 -7 -23 -16z"/>
<path d="M9041 1816 c-7 -8 -11 -32 -9 -53 2 -30 8 -39 24 -41 11 -2 27 4 34
13 7 9 8 15 2 15 -6 0 -12 -5 -14 -12 -9 -26 -38 2 -38 37 0 28 4 35 19 35 11
0 21 -6 24 -12 2 -7 7 -10 11 -7 7 7 -20 39 -33 39 -5 0 -14 -6 -20 -14z"/>
<path d="M9136 1817 c-13 -9 -17 -24 -14 -52 2 -33 7 -41 27 -43 13 -2 28 1
34 7 7 7 1 10 -19 8 -20 -1 -29 3 -32 16 -3 13 3 17 27 17 24 0 31 4 31 20 0
27 -32 43 -54 27z m38 -22 c4 -11 -1 -15 -19 -15 -24 0 -32 10 -18 23 11 12
31 8 37 -8z"/>
<path d="M9224 1815 c-19 -15 -18 -16 9 -38 15 -12 27 -28 27 -35 0 -16 -27
-16 -33 1 -2 6 -8 8 -13 4 -10 -10 14 -27 39 -27 31 0 33 31 4 54 -34 28 -34
40 0 31 23 -5 25 -4 14 9 -17 20 -22 20 -47 1z"/>
<path d="M9323 1823 c-22 -8 -14 -36 15 -59 25 -21 26 -23 8 -30 -12 -5 -21
-3 -24 4 -2 7 -8 12 -14 12 -6 0 -6 -6 2 -15 17 -20 49 -19 57 2 4 11 -3 23
-20 37 -34 28 -34 40 0 31 23 -5 25 -4 14 9 -14 17 -18 18 -38 9z"/>
<path d="M9406 1814 c-29 -28 -13 -94 22 -94 26 0 42 20 42 51 0 27 -22 59
-40 59 -5 0 -16 -7 -24 -16z m50 -30 c4 -17 1 -31 -9 -41 -21 -22 -37 -8 -37
33 0 27 4 34 20 34 13 0 22 -9 26 -26z"/>
<path d="M9518 1822 c-15 -3 -18 -13 -16 -55 1 -47 2 -48 5 -12 2 22 11 46 20
52 19 15 15 21 -9 15z"/>
<path d="M9701 1816 c-7 -8 -11 -32 -9 -53 3 -33 7 -38 31 -41 15 -2 27 1 27
6 0 5 -10 8 -22 8 -14 -1 -24 6 -26 17 -3 13 3 17 27 17 35 0 41 19 15 44 -19
20 -28 20 -43 2z m39 -21 c0 -8 -9 -15 -20 -15 -11 0 -20 7 -20 15 0 8 9 15
20 15 11 0 20 -7 20 -15z"/>
<path d="M9938 1819 c-22 -12 -24 -71 -3 -89 18 -15 47 -10 53 10 4 12 2 13
-9 3 -29 -28 -58 3 -44 47 7 21 45 28 45 8 0 -6 3 -8 6 -5 7 7 -14 37 -25 37
-3 0 -14 -5 -23 -11z"/>
<path d="M10076 1814 c-19 -18 -21 -65 -4 -82 15 -15 45 -15 54 0 5 8 2 9 -11
5 -18 -7 -45 8 -45 24 0 5 14 9 30 9 22 0 30 5 30 18 0 18 -18 42 -31 42 -4 0
-15 -7 -23 -16z m42 -21 c2 -8 -6 -13 -22 -13 -19 0 -24 4 -19 15 6 18 34 16
41 -2z"/>
<path d="M10218 1819 c-21 -12 -24 -69 -6 -87 36 -36 80 16 56 66 -15 30 -27
35 -50 21z m37 -49 c0 -28 -4 -35 -20 -35 -13 0 -21 8 -23 23 -5 34 5 54 25
50 13 -2 18 -13 18 -38z"/>
<path d="M10646 1817 c-13 -9 -17 -24 -14 -52 2 -33 7 -41 27 -43 13 -2 28 1
34 7 7 7 1 10 -19 8 -20 -1 -29 3 -32 16 -3 13 3 17 27 17 24 0 31 4 31 20 0
27 -32 43 -54 27z m38 -22 c4 -11 -1 -15 -19 -15 -24 0 -32 10 -18 23 11 12
31 8 37 -8z"/>
<path d="M10781 1816 c-7 -8 -11 -32 -9 -53 3 -34 6 -38 31 -38 15 1 27 -2 27
-6 0 -15 -29 -29 -45 -22 -13 4 -16 3 -11 -5 9 -15 39 -15 54 0 14 14 16 128
3 128 -5 0 -16 2 -24 5 -7 3 -19 -1 -26 -9z m47 -36 c3 -33 -12 -55 -32 -47
-16 6 -23 57 -9 71 14 14 38 0 41 -24z"/>
<path d="M10888 1822 c-15 -3 -18 -13 -16 -55 1 -47 2 -48 5 -12 2 22 11 46
20 52 19 15 15 21 -9 15z"/>
<path d="M10936 1814 c-29 -28 -13 -94 22 -94 26 0 42 20 42 51 0 27 -22 59
-40 59 -5 0 -16 -7 -24 -16z m50 -30 c4 -17 1 -31 -9 -41 -21 -22 -37 -8 -37
33 0 27 4 34 20 34 13 0 22 -9 26 -26z"/>
<path d="M11143 1822 c-20 -3 -23 -9 -23 -53 0 -27 5 -49 10 -49 6 0 10 21 10
46 0 38 3 45 18 42 12 -2 19 -16 23 -48 l6 -45 1 51 c2 55 -5 63 -45 56z"/>
<path d="M11516 1814 c-19 -18 -21 -65 -4 -82 15 -15 45 -15 54 0 5 8 2 9 -11
5 -18 -7 -45 8 -45 24 0 5 14 9 30 9 22 0 30 5 30 18 0 18 -18 42 -31 42 -4 0
-15 -7 -23 -16z m42 -21 c2 -8 -6 -13 -22 -13 -19 0 -24 4 -19 15 6 18 34 16
41 -2z"/>
<path d="M11613 1823 c-22 -8 -14 -43 12 -55 14 -6 25 -15 25 -19 0 -16 -21
-20 -37 -7 -14 11 -15 11 -11 -2 2 -8 16 -15 29 -15 35 0 38 38 4 53 -33 15
-33 36 0 30 28 -6 34 6 9 16 -9 3 -16 6 -17 5 -1 0 -8 -3 -14 -6z"/>
<path d="M11708 1823 c-15 -4 -18 -16 -17 -76 1 -40 4 -60 6 -46 3 21 8 26 25
21 24 -6 38 12 38 54 0 27 -16 56 -29 53 -4 -1 -14 -3 -23 -6z m40 -43 c3 -33
-12 -55 -32 -47 -16 6 -23 57 -9 71 14 14 38 0 41 -24z"/>
<path d="M11906 1814 c-19 -18 -21 -65 -4 -82 15 -15 45 -15 54 0 5 8 2 9 -11
5 -18 -7 -45 8 -45 24 0 5 14 9 30 9 22 0 30 5 30 18 0 18 -18 42 -31 42 -4 0
-15 -7 -23 -16z m42 -21 c2 -8 -6 -13 -22 -13 -19 0 -24 4 -19 15 6 18 34 16
41 -2z"/>
<path d="M12053 1823 c-19 -7 -16 -20 5 -19 24 1 27 -18 3 -22 -21 -3 -37 -35
-26 -52 3 -6 20 -9 36 -8 27 2 29 5 29 43 0 23 -5 46 -12 53 -13 13 -16 13
-35 5z m37 -61 c0 -10 -22 -32 -32 -32 -4 0 -8 9 -8 20 0 13 7 20 20 20 11 0
20 -4 20 -8z"/>
<path d="M12246 1814 c-19 -18 -21 -65 -4 -82 14 -14 44 -16 52 -4 3 5 -5 8
-17 8 -13 -1 -23 6 -25 17 -3 13 3 17 22 17 28 0 36 26 14 48 -16 16 -23 15
-42 -4z m44 -19 c0 -8 -9 -15 -20 -15 -11 0 -20 7 -20 15 0 8 9 15 20 15 11 0
20 -7 20 -15z"/>
<path d="M12514 1815 c-19 -15 -18 -16 9 -38 15 -12 27 -28 27 -35 0 -16 -27
-16 -33 1 -2 6 -8 8 -13 4 -10 -10 14 -27 39 -27 31 0 33 31 4 54 -34 28 -34
40 0 31 23 -5 25 -4 14 9 -17 20 -22 20 -47 1z"/>
<path d="M12668 1822 c-14 -3 -18 -14 -18 -53 0 -27 5 -49 10 -49 6 0 10 20
10 44 0 26 5 46 13 49 17 6 5 14 -15 9z"/>
<path d="M12821 1816 c-7 -8 -11 -32 -9 -53 3 -34 6 -38 31 -38 15 1 27 -2 27
-6 0 -15 -29 -29 -45 -22 -13 4 -16 3 -11 -5 9 -15 39 -15 54 0 14 14 16 128
3 128 -5 0 -16 2 -24 5 -7 3 -19 -1 -26 -9z m47 -36 c3 -33 -12 -55 -32 -47
-16 6 -23 57 -9 71 14 14 38 0 41 -24z"/>
<path d="M12921 1816 c-7 -8 -11 -32 -9 -53 3 -34 6 -38 31 -38 15 1 27 -2 27
-6 0 -15 -29 -29 -45 -22 -13 4 -16 3 -11 -5 9 -15 39 -15 54 0 14 14 16 128
3 128 -5 0 -16 2 -24 5 -7 3 -19 -1 -26 -9z m47 -36 c3 -33 -12 -55 -32 -47
-16 6 -23 57 -9 71 14 14 38 0 41 -24z"/>
<path d="M13066 1814 c-19 -18 -21 -65 -4 -82 14 -14 44 -16 52 -4 3 5 -5 8
-17 8 -13 -1 -23 6 -25 17 -3 13 3 17 22 17 28 0 36 26 14 48 -16 16 -23 15
-42 -4z m44 -19 c0 -8 -9 -15 -20 -15 -11 0 -20 7 -20 15 0 8 9 15 20 15 11 0
20 -7 20 -15z"/>
<path d="M13163 1823 c-22 -8 -14 -43 12 -55 14 -6 25 -15 25 -19 0 -16 -21
-20 -37 -7 -14 11 -15 11 -11 -2 2 -8 16 -15 29 -15 35 0 38 38 4 53 -33 15
-33 36 0 30 28 -6 34 6 9 16 -9 3 -16 6 -17 5 -1 0 -8 -3 -14 -6z"/>
<path d="M8844 1775 c1 -49 2 -50 34 -52 32 -1 32 -1 32 48 0 60 -18 65 -22 7
-4 -61 -31 -59 -39 2 l-7 45 2 -50z"/>
<path d="M9605 1798 c3 -15 10 -40 16 -55 l11 -28 13 35 c8 19 13 44 13 55 0
11 -6 2 -13 -20 -11 -34 -14 -37 -20 -20 -4 11 -11 29 -16 40 -8 17 -9 15 -4
-7z"/>
<path d="M9883 1770 c0 -30 2 -43 4 -27 2 15 2 39 0 55 -2 15 -4 2 -4 -28z"/>
<path d="M11034 1775 c1 -49 2 -50 34 -52 32 -1 32 -1 32 48 0 60 -18 65 -22
7 -4 -61 -31 -59 -39 2 l-7 45 2 -50z"/>
<path d="M11793 1770 c0 -30 2 -43 4 -27 2 15 2 39 0 55 -2 15 -4 2 -4 -28z"/>
<path d="M12332 1778 c15 -59 25 -67 33 -24 8 42 20 40 29 -6 8 -40 21 -24 30
37 l6 40 -14 -35 -14 -35 -7 33 c-4 17 -11 32 -15 32 -4 0 -12 -15 -17 -32
l-11 -33 -7 33 c-4 17 -11 32 -15 32 -4 0 -3 -19 2 -42z"/>
<path d="M12724 1775 c1 -47 2 -50 29 -51 26 -1 27 0 25 50 l-1 51 -6 -45 c-4
-31 -11 -45 -21 -45 -10 0 -17 14 -21 45 l-7 45 2 -50z"/>
<path d="M13285 1789 c4 -19 11 -43 15 -54 8 -21 8 -22 33 45 3 9 8 3 12 -18
11 -48 21 -47 34 4 14 53 7 73 -7 23 -9 -33 -11 -32 -26 14 -7 22 -26 13 -26
-13 0 -10 -4 -22 -10 -25 -6 -3 -10 5 -10 19 0 14 -5 28 -11 32 -8 4 -9 -4 -4
-27z"/>
<path d="M13423 1770 c0 -30 2 -43 4 -27 2 15 2 39 0 55 -2 15 -4 2 -4 -28z"/>
<path d="M11317 1720 c-3 -11 -1 -20 4 -20 5 0 9 9 9 20 0 11 -2 20 -4 20 -2
0 -6 -9 -9 -20z"/>
<path d="M7714 1573 c14 -104 19 -132 34 -175 9 -27 20 -48 25 -48 4 0 6 8 3
18 -2 9 -8 52 -12 95 -4 56 -10 77 -20 77 -9 0 -14 12 -14 35 0 19 -5 35 -10
35 -7 0 -9 -15 -6 -37z"/>
<path d="M6840 1591 c0 -6 4 -13 10 -16 6 -3 7 1 4 9 -7 18 -14 21 -14 7z"/>
<path d="M7406 1550 c4 -25 11 -52 16 -60 6 -10 7 0 3 29 -3 24 -10 51 -15 60
-7 11 -8 2 -4 -29z"/>
<path d="M6820 1536 c0 -9 5 -16 10 -16 6 0 10 4 10 9 0 6 -4 13 -10 16 -5 3
-10 -1 -10 -9z"/>
<path d="M8943 1465 c0 -44 2 -61 4 -37 2 23 2 59 0 80 -2 20 -4 1 -4 -43z"/>
<path d="M9473 1465 c0 -44 2 -61 4 -37 2 23 2 59 0 80 -2 20 -4 1 -4 -43z"/>
<path d="M9893 1465 c0 -61 1 -69 6 -35 4 32 11 46 24 48 14 3 17 -4 17 -42 0
-25 5 -46 10 -46 15 0 12 86 -4 99 -7 6 -20 9 -29 5 -11 -4 -17 2 -20 23 -2
15 -4 -8 -4 -52z"/>
<path d="M10090 1514 c0 -20 -4 -25 -16 -20 -25 9 -44 -12 -44 -49 0 -37 16
-55 48 -52 21 1 22 6 22 74 0 40 -2 73 -5 73 -3 0 -5 -12 -5 -26z m0 -68 c0
-41 -16 -55 -37 -33 -21 21 -9 67 17 67 16 0 20 -7 20 -34z"/>
<path d="M10233 1465 c0 -44 2 -61 4 -37 2 23 2 59 0 80 -2 20 -4 1 -4 -43z"/>
<path d="M10830 1515 c0 -15 -5 -23 -12 -20 -26 10 -39 -11 -36 -56 3 -42 4
-44 36 -44 l32 -1 0 73 c0 42 -4 73 -10 73 -5 0 -10 -11 -10 -25z m-2 -72 c-2
-26 -8 -38 -18 -38 -10 0 -16 12 -18 38 -3 32 0 37 18 37 18 0 21 -5 18 -37z"/>
<path d="M11330 1465 c0 -43 4 -75 10 -75 6 0 10 21 10 46 0 38 3 45 18 42 12
-2 19 -16 23 -48 l6 -45 1 53 c2 51 -2 57 -35 53 -8 -1 -13 9 -13 24 0 14 -4
25 -10 25 -6 0 -10 -32 -10 -75z"/>
<path d="M12503 1465 c0 -61 1 -69 6 -35 4 32 11 46 24 48 14 3 17 -4 17 -42
0 -25 5 -46 10 -46 13 0 13 66 -1 91 -7 13 -16 18 -29 14 -15 -5 -19 0 -23 22
-2 15 -4 -8 -4 -52z"/>
<path d="M8750 1460 c0 -40 4 -70 10 -70 6 0 10 14 10 30 0 23 4 30 20 30 11
0 20 5 20 10 0 6 -9 10 -20 10 -15 0 -20 7 -20 24 0 19 6 26 28 29 22 3 20 4
-10 6 l-38 1 0 -70z"/>
<path d="M9324 1516 c-3 -8 -4 -27 -2 -43 2 -22 8 -28 26 -27 28 1 28 -20 0
-40 -25 -18 -17 -21 12 -6 24 13 36 74 21 106 -12 26 -48 33 -57 10z m41 -32
c0 -19 -5 -29 -15 -29 -16 0 -25 28 -16 51 10 25 31 10 31 -22z"/>
<path d="M10932 1518 c-20 -20 -14 -38 23 -59 19 -12 35 -27 35 -35 0 -23 -29
-28 -50 -9 -11 10 -20 13 -20 8 0 -18 28 -35 52 -31 16 2 24 11 26 30 3 21 -3
30 -27 43 -34 17 -41 42 -15 52 11 4 22 -1 31 -13 14 -19 15 -19 11 1 -4 24
-47 32 -66 13z"/>
<path d="M11029 1503 c-8 -35 6 -106 21 -111 12 -4 13 -2 3 9 -15 15 -17 76
-4 81 5 2 4 11 -3 21 -13 17 -14 17 -17 0z"/>
<path d="M11622 1500 c-7 -12 -8 -20 -2 -20 5 0 10 -20 10 -45 0 -36 3 -45 18
-45 12 0 14 2 4 8 -8 6 -12 27 -11 60 2 60 -2 69 -19 42z"/>
<path d="M11862 1499 c-7 -10 -8 -19 -3 -19 6 0 11 -19 13 -42 2 -26 9 -43 18
-46 12 -4 13 -2 3 9 -15 15 -17 76 -4 81 5 2 4 11 -3 20 -11 15 -13 15 -24 -3z"/>
<path d="M6850 1491 c0 -6 4 -13 10 -16 6 -3 7 1 4 9 -7 18 -14 21 -14 7z"/>
<path d="M8854 1485 c-18 -15 -18 -15 9 -9 20 5 27 2 27 -9 0 -9 -10 -17 -22
-19 -17 -2 -23 -10 -23 -28 0 -21 5 -25 33 -27 31 -1 32 0 32 37 0 22 -7 45
-16 54 -19 19 -16 19 -40 1z m36 -59 c0 -8 -5 -18 -11 -22 -14 -8 -33 11 -25
25 10 16 36 13 36 -3z"/>
<path d="M8998 1489 c-22 -12 -24 -71 -3 -89 18 -15 47 -10 53 10 4 12 2 13
-9 3 -29 -28 -58 3 -44 47 7 21 45 28 45 8 0 -6 3 -8 6 -5 7 7 -14 37 -25 37
-3 0 -14 -5 -23 -11z"/>
<path d="M9086 1484 c-29 -28 -13 -94 22 -94 26 0 42 20 42 51 0 27 -22 59
-40 59 -5 0 -16 -7 -24 -16z m50 -30 c4 -17 1 -31 -9 -41 -21 -22 -37 -8 -37
33 0 27 4 34 20 34 13 0 22 -9 26 -26z"/>
<path d="M9198 1492 c-15 -3 -18 -13 -16 -55 l2 -52 3 48 c3 38 8 47 23 47 15
0 20 -9 23 -47 l3 -48 2 51 c2 53 -6 64 -40 56z"/>
<path d="M9521 1486 c-9 -11 -6 -12 14 -8 18 3 25 0 25 -11 0 -9 -10 -17 -22
-19 -17 -2 -23 -10 -23 -28 0 -21 5 -25 30 -27 30 -1 30 -1 26 45 -4 57 -25
78 -50 48z m39 -60 c0 -8 -5 -18 -11 -22 -14 -8 -33 11 -25 25 10 16 36 13 36
-3z"/>
<path d="M9718 1493 c-15 -4 -18 -15 -16 -56 l1 -52 6 45 c4 32 11 46 24 48
14 3 17 -4 17 -42 0 -25 5 -46 10 -46 14 0 12 84 -2 98 -7 7 -14 11 -17 11 -4
-1 -14 -3 -23 -6z"/>
<path d="M9811 1486 c-7 -8 -11 -32 -9 -53 2 -30 8 -39 24 -41 11 -2 27 4 34
13 7 9 8 15 2 15 -6 0 -12 -5 -14 -12 -9 -26 -38 2 -38 37 0 28 4 35 19 35 11
0 21 -6 24 -12 2 -7 7 -10 11 -7 7 7 -20 39 -33 39 -5 0 -14 -6 -20 -14z"/>
<path d="M10146 1487 c-13 -9 -17 -24 -14 -52 2 -33 7 -41 27 -43 13 -2 28 1
34 7 7 7 1 10 -19 8 -20 -1 -29 3 -32 16 -3 13 3 17 27 17 24 0 31 4 31 20 0
27 -32 43 -54 27z m38 -22 c4 -11 -1 -15 -19 -15 -24 0 -32 10 -18 23 11 12
31 8 37 -8z"/>
<path d="M10284 1485 c-18 -15 -18 -15 9 -9 20 5 27 2 27 -9 0 -9 -10 -17 -22
-19 -17 -2 -23 -10 -23 -28 0 -21 5 -25 33 -27 31 -1 32 0 32 37 0 22 -7 45
-16 54 -19 19 -16 19 -40 1z m36 -59 c0 -8 -5 -18 -11 -22 -14 -8 -33 11 -25
25 10 16 36 13 36 -3z"/>
<path d="M10463 1493 c-22 -8 -14 -43 12 -55 14 -6 25 -15 25 -19 0 -16 -21
-20 -37 -7 -14 11 -15 11 -11 -2 2 -8 16 -15 29 -15 35 0 38 38 4 53 -33 15
-33 36 0 30 28 -6 34 6 9 16 -9 3 -16 6 -17 5 -1 0 -8 -3 -14 -6z"/>
<path d="M10603 1493 c-23 -9 -14 -20 12 -15 18 3 25 0 25 -12 0 -9 -8 -16
-19 -16 -24 0 -43 -23 -35 -44 4 -11 16 -15 35 -14 27 2 29 5 29 43 0 23 -5
46 -12 53 -13 13 -16 13 -35 5z m35 -70 c-5 -26 -38 -29 -38 -4 0 15 6 21 21
21 14 0 19 -5 17 -17z"/>
<path d="M10698 1493 c-15 -4 -18 -15 -16 -56 l1 -52 6 45 c4 32 11 46 24 48
14 3 17 -4 17 -42 0 -25 5 -46 10 -46 14 0 12 84 -2 98 -7 7 -14 11 -17 11 -4
-1 -14 -3 -23 -6z"/>
<path d="M11103 1493 c-23 -9 -14 -20 12 -15 18 3 25 0 25 -12 0 -9 -8 -16
-19 -16 -24 0 -43 -23 -35 -44 4 -11 16 -15 35 -14 27 2 29 5 29 43 0 23 -5
46 -12 53 -13 13 -16 13 -35 5z m35 -70 c-5 -26 -38 -29 -38 -4 0 15 6 21 21
21 14 0 19 -5 17 -17z"/>
<path d="M11198 1492 c-15 -3 -18 -13 -16 -55 1 -47 2 -48 5 -12 2 22 11 46
20 52 19 15 15 21 -9 15z"/>
<path d="M11254 1485 c-19 -15 -18 -16 9 -38 15 -12 27 -28 27 -35 0 -16 -27
-16 -33 1 -2 6 -8 8 -13 4 -10 -10 14 -27 39 -27 31 0 33 31 4 54 -34 28 -34
40 0 31 23 -5 25 -4 14 9 -17 20 -22 20 -47 1z"/>
<path d="M11498 1493 c-15 -4 -18 -16 -17 -76 1 -40 4 -60 6 -45 3 19 9 25 19
21 38 -14 61 59 28 91 -8 9 -16 15 -17 15 -1 -1 -10 -3 -19 -6z m30 -50 c-2
-26 -8 -38 -18 -38 -10 0 -16 12 -18 38 -3 32 0 37 18 37 18 0 21 -5 18 -37z"/>
<path d="M11696 1487 c-13 -9 -17 -24 -14 -52 2 -33 7 -41 27 -43 13 -2 28 1
34 7 7 7 1 10 -19 8 -20 -1 -29 3 -32 16 -3 13 3 17 27 17 24 0 31 4 31 20 0
27 -32 43 -54 27z m38 -22 c4 -11 -1 -15 -19 -15 -24 0 -32 10 -18 23 11 12
31 8 37 -8z"/>
<path d="M11784 1485 c-19 -15 -18 -16 9 -38 15 -12 27 -28 27 -35 0 -16 -27
-16 -33 1 -2 6 -8 8 -13 4 -10 -10 14 -27 39 -27 31 0 33 31 4 54 -34 28 -34
40 0 31 23 -5 25 -4 14 9 -17 20 -22 20 -47 1z"/>
<path d="M11988 1493 c-15 -4 -18 -15 -16 -56 l1 -52 6 45 c4 32 11 46 24 48
14 3 17 -4 17 -42 0 -25 5 -46 10 -46 13 0 13 66 0 91 -11 19 -13 20 -42 12z"/>
<path d="M12075 1483 c-32 -32 -8 -104 31 -89 11 4 14 1 12 -12 -2 -10 -12
-17 -26 -16 -14 0 -19 -3 -13 -9 5 -5 17 -7 27 -5 16 3 19 14 22 69 3 60 1 67
-18 72 -11 3 -27 -1 -35 -10z m43 -40 c-2 -26 -8 -38 -18 -38 -10 0 -16 12
-18 38 -3 32 0 37 18 37 18 0 21 -5 18 -37z"/>
<path d="M12228 1493 c-15 -4 -18 -15 -16 -56 l1 -52 6 45 c4 32 11 46 24 48
14 3 17 -4 17 -42 0 -25 5 -46 10 -46 6 0 10 21 10 46 0 38 3 45 18 42 12 -2
19 -16 23 -48 l6 -45 1 51 c2 55 -16 76 -43 54 -9 -8 -15 -8 -20 0 -6 10 -9
11 -37 3z"/>
<path d="M12423 1493 c-22 -8 -14 -36 15 -59 25 -21 26 -23 8 -30 -12 -5 -21
-3 -24 4 -2 7 -8 12 -14 12 -6 0 -6 -6 2 -15 17 -20 49 -19 57 2 4 11 -3 23
-20 37 -34 28 -34 40 0 31 23 -5 25 -4 14 9 -14 17 -18 18 -38 9z"/>
<path d="M12613 1493 c-19 -7 -16 -20 5 -19 24 1 27 -18 3 -22 -21 -3 -37 -35
-26 -52 3 -6 20 -9 36 -8 27 2 29 5 29 43 0 23 -5 46 -12 53 -13 13 -16 13
-35 5z m37 -61 c0 -10 -22 -32 -32 -32 -4 0 -8 9 -8 20 0 13 7 20 20 20 11 0
20 -4 20 -8z"/>
<path d="M12708 1493 c-15 -4 -18 -16 -17 -76 1 -42 4 -62 8 -47 4 18 13 25
31 25 22 0 25 5 28 38 3 35 -11 69 -27 66 -3 -1 -14 -3 -23 -6z m37 -53 c0
-28 -4 -35 -20 -35 -13 0 -21 8 -23 23 -5 34 5 54 25 50 13 -2 18 -13 18 -38z"/>
<path d="M12803 1493 c-22 -8 -14 -43 12 -55 14 -6 25 -15 25 -19 0 -16 -21
-20 -37 -7 -14 11 -15 11 -11 -2 2 -8 16 -15 29 -15 35 0 38 38 4 53 -33 15
-33 36 0 30 28 -6 34 6 9 16 -9 3 -16 6 -17 5 -1 0 -8 -3 -14 -6z"/>
<path d="M9600 1453 c0 -50 10 -64 43 -61 26 2 27 5 25 53 l-1 50 -6 -45 c-4
-32 -11 -46 -23 -48 -15 -3 -18 4 -18 42 0 25 -4 46 -10 46 -5 0 -10 -17 -10
-37z"/>
<path d="M10366 1463 c4 -15 11 -39 16 -52 6 -18 4 -29 -9 -44 -14 -15 -15
-19 -3 -15 8 2 23 27 32 54 19 56 23 108 4 56 -12 -33 -26 -34 -26 -1 0 10 -5
21 -10 24 -7 4 -8 -3 -4 -22z"/>
<path d="M11430 1440 c0 -27 5 -50 10 -50 6 0 10 23 10 50 0 28 -4 50 -10 50
-5 0 -10 -22 -10 -50z"/>
<path d="M11933 1440 c0 -30 2 -43 4 -27 2 15 2 39 0 55 -2 15 -4 2 -4 -28z"/>
<path d="M12360 1440 c0 -27 5 -50 10 -50 6 0 10 23 10 50 0 28 -4 50 -10 50
-5 0 -10 -22 -10 -50z"/>
<path d="M7700 1453 c0 -13 5 -23 10 -23 13 0 13 11 0 30 -8 12 -10 11 -10 -7z"/>
<path d="M12880 1400 c0 -5 5 -10 10 -10 6 0 10 5 10 10 0 6 -4 10 -10 10 -5
0 -10 -4 -10 -10z"/>
<path d="M8763 1090 c-30 -12 -35 -49 -31 -218 2 -99 7 -145 16 -154 19 -19
935 -19 954 0 19 19 19 345 0 364 -10 10 -110 13 -465 15 -250 1 -462 -2 -474
-7z m163 -155 l12 -40 11 28 c6 16 11 35 11 43 0 8 9 14 21 14 13 0 19 -5 16
-13 -3 -7 -13 -41 -22 -75 -24 -85 -44 -84 -73 6 -26 82 -27 84 -5 80 10 -2
22 -19 29 -43z m552 27 c2 -7 -6 -12 -17 -12 -21 0 -27 11 -14 24 9 9 26 2 31
-12z m-400 -59 c3 -30 1 -33 -22 -33 -14 0 -26 -5 -26 -11 0 -6 8 -8 19 -4 23
7 39 -14 20 -26 -53 -33 -101 32 -68 92 8 15 19 19 42 17 28 -3 32 -7 35 -35z
m72 28 c0 -5 -7 -11 -15 -15 -10 -3 -15 -19 -15 -46 0 -29 -4 -40 -15 -40 -12
0 -15 13 -15 55 0 54 0 55 30 55 17 0 30 -4 30 -9z m178 -48 c2 -43 0 -53 -12
-53 -12 0 -16 11 -16 46 0 27 -4 43 -10 39 -5 -3 -10 -24 -10 -46 0 -28 -4
-39 -15 -39 -11 0 -15 11 -15 39 0 22 -4 43 -10 46 -6 4 -10 -12 -10 -39 0
-34 -4 -46 -15 -46 -12 0 -15 13 -15 55 l0 56 63 -3 62 -3 3 -52z m100 1 c3
-49 2 -52 -25 -57 -52 -10 -81 24 -48 56 10 11 11 17 3 19 -7 3 -9 12 -5 22 5
13 16 16 39 14 32 -3 33 -4 36 -54z m52 1 c0 -42 -3 -55 -15 -55 -12 0 -15 13
-15 55 0 42 3 55 15 55 12 0 15 -13 15 -55z m87 40 c8 -23 -5 -31 -27 -17 -11
7 -20 8 -20 4 0 -5 11 -14 25 -20 47 -22 21 -81 -30 -68 -16 4 -25 13 -25 26
0 11 5 20 10 20 6 0 6 7 -1 19 -7 10 -9 26 -6 35 8 21 65 22 74 1z"/>
<path d="M9030 910 c0 -5 5 -10 11 -10 5 0 7 5 4 10 -3 6 -8 10 -11 10 -2 0
-4 -4 -4 -10z"/>
<path d="M9380 910 c0 -5 5 -10 11 -10 5 0 7 5 4 10 -3 6 -8 10 -11 10 -2 0
-4 -4 -4 -10z"/>
<path d="M9387 873 c-4 -3 -7 -11 -7 -17 0 -6 5 -5 12 2 6 6 9 14 7 17 -3 3
-9 2 -12 -2z"/>
<path d="M9520 860 c0 -5 5 -10 11 -10 5 0 7 5 4 10 -3 6 -8 10 -11 10 -2 0
-4 -4 -4 -10z"/>
</g>
</svg>
