<?xml version="1.0" standalone="no"?>
<!DOCTYPE svg PUBLIC "-//W3C//DTD SVG 20010904//EN"
 "http://www.w3.org/TR/2001/REC-SVG-20010904/DTD/svg10.dtd">
<svg version="1.0" xmlns="http://www.w3.org/2000/svg"
 width="1893.000000pt" height="925.000000pt" viewBox="0 0 1893.000000 925.000000"
 preserveAspectRatio="xMidYMid meet">

<g transform="translate(0.000000,925.000000) scale(0.100000,-0.100000)"
fill="#000000" stroke="none">
<path d="M0 4625 l0 -4625 9465 0 9465 0 0 2026 0 2025 -212 -5 c-117 -2 -231
-7 -253 -11 -37 -5 -44 -2 -87 35 l-48 41 53 101 c90 174 103 199 123 226 18
26 114 132 162 181 15 15 20 27 14 33 -14 14 -125 4 -201 -17 -73 -20 -111
-10 -111 31 0 33 30 57 102 81 54 18 90 22 247 24 170 3 184 2 197 -16 12 -16
14 8 14 177 l0 196 -87 9 -88 10 88 2 87 1 0 155 0 155 -37 -20 c-21 -11 -43
-20 -50 -20 -8 0 -21 -4 -31 -9 -9 -5 -29 -14 -44 -22 -25 -11 -28 -17 -28
-66 0 -29 -4 -53 -8 -53 -18 0 -52 38 -52 58 0 12 -10 27 -22 33 -22 12 -143
111 -203 167 -38 35 -59 106 -60 197 0 68 1 72 46 130 25 33 58 81 73 107 17
29 46 59 77 79 49 31 52 32 137 26 54 -3 107 -13 140 -26 29 -11 55 -21 57
-21 3 0 5 727 5 1615 l0 1615 -9465 0 -9465 0 0 -4625z m18020 2918 c40 -8 42
-10 22 -17 -20 -7 -23 -13 -17 -34 14 -59 16 -90 6 -96 -6 -4 -11 -14 -11 -23
0 -30 -31 -53 -72 -53 -33 0 -41 5 -58 33 -22 35 -27 106 -9 138 16 30 -7 52
-48 47 -32 -4 -40 1 -26 16 9 9 150 2 213 -11z m110 -18 c7 -8 9 -15 6 -15 -4
0 -14 7 -22 15 -9 8 -11 15 -6 15 5 0 15 -7 22 -15z m160 -20 c0 -8 -3 -15 -6
-15 -3 0 -12 7 -20 15 -14 13 -13 15 5 15 12 0 21 -6 21 -15z m-685 -35 c3 -5
-7 -12 -22 -16 -15 -3 -34 -7 -40 -10 -25 -7 -12 12 15 23 36 14 40 15 47 3z
m862 4 c-3 -3 -12 -4 -19 -1 -8 3 -5 6 6 6 11 1 17 -2 13 -5z m98 -35 c16 -16
-50 -10 -71 7 -18 14 -16 15 21 9 22 -4 44 -11 50 -16z m-1095 -19 c0 -5 -4
-10 -10 -10 -5 0 -10 5 -10 10 0 6 5 10 10 10 6 0 10 -4 10 -10z m1246 -12
c38 -18 28 -27 -13 -12 -21 7 -46 13 -55 14 -9 0 -20 5 -24 11 -8 14 53 5 92
-13z m-1281 -8 c-3 -5 -15 -10 -26 -10 -11 0 -17 5 -14 10 3 6 15 10 26 10 11
0 17 -4 14 -10z m868 -43 c16 -34 22 -153 11 -235 -4 -27 -2 -48 6 -57 10 -12
10 -21 0 -45 -10 -24 -10 -33 0 -45 8 -9 9 -21 4 -32 -5 -10 -9 -65 -9 -122
l0 -104 -42 -12 c-38 -11 -45 -11 -63 5 -21 18 -27 46 -10 52 11 4 14 39 12
124 -2 70 -3 71 -93 81 -58 6 -115 -8 -131 -31 -4 -6 -8 -37 -8 -69 0 -31 -4
-65 -9 -75 -5 -9 -16 -34 -25 -55 -28 -66 -60 -57 -87 23 -7 19 -16 38 -21 41
-5 3 -10 21 -11 40 -2 19 -11 47 -22 62 -16 25 -18 46 -17 165 2 160 10 185
59 200 57 18 74 1 67 -68 -6 -52 -5 -56 25 -82 28 -25 37 -27 110 -26 43 0 84
-3 90 -6 6 -4 20 -4 31 -1 18 6 20 15 20 94 0 49 -5 92 -11 98 -6 6 -9 25 -7
43 2 25 11 38 33 51 49 29 80 24 98 -14z m487 18 c7 -9 11 -18 8 -20 -9 -10
-38 7 -38 21 0 18 14 18 30 -1z m-1435 -15 c-7 -12 -85 -33 -93 -26 -9 9 4 18
40 26 47 11 60 11 53 0z m-131 -45 c11 -8 14 -15 8 -15 -20 0 -13 -23 16 -55
15 -16 32 -43 37 -60 7 -21 17 -30 33 -31 32 -2 41 -14 35 -51 l-5 -33 -64 0
c-36 0 -64 -4 -64 -10 0 -5 -6 -10 -13 -10 -22 0 -77 -125 -76 -173 1 -65 26
-100 84 -114 53 -13 114 -3 136 24 9 11 2 13 -41 13 -64 0 -90 19 -90 64 1 43
19 62 65 70 22 3 59 9 83 12 l42 7 0 -45 c0 -30 6 -51 20 -66 11 -12 20 -32
20 -46 0 -14 -9 -41 -20 -61 -11 -20 -20 -44 -20 -55 0 -13 -7 -20 -20 -20
-11 0 -42 -12 -69 -27 -46 -26 -52 -27 -96 -15 -26 7 -65 21 -88 32 -22 11
-46 20 -53 20 -14 0 -104 116 -104 133 0 23 30 111 48 142 10 17 22 43 26 58
3 15 10 27 15 27 10 0 81 64 81 73 0 4 -7 7 -15 7 -12 0 -13 9 -8 45 8 64 -4
74 -80 68 -56 -4 -60 -3 -43 11 10 8 15 19 12 24 -3 5 11 15 32 21 20 7 57 21
82 31 56 22 70 23 94 5z m1669 8 c-7 -2 -19 -2 -25 0 -7 3 -2 5 12 5 14 0 19
-2 13 -5z m-4528 -78 c6 -2 -11 -4 -37 -4 -60 -1 -62 -17 -9 -63 38 -32 38
-34 31 -83 -12 -84 -20 -92 -84 -85 -44 4 -76 68 -76 150 l0 60 -40 0 c-22 0
-40 -4 -40 -10 0 -5 -7 -10 -16 -10 -8 0 -22 -7 -30 -15 -9 -8 -24 -15 -35
-15 -19 0 -19 1 4 24 25 24 53 33 154 44 34 4 64 10 68 13 5 6 88 1 110 -6z
m1195 4 c10 -5 -40 -8 -135 -8 -83 1 -134 5 -115 8 54 11 234 11 250 0z m233
-18 c8 -8 7 -15 -1 -23 -7 -7 -12 -34 -12 -60 0 -38 -16 -91 -34 -115 0 0 -17
-4 -36 -8 -27 -5 -40 -2 -55 12 -35 31 -58 124 -35 138 19 12 11 45 -10 45
-11 0 -20 4 -20 9 0 21 183 22 203 2z m1165 1 c-11 -56 -292 -71 -330 -17 -14
20 8 24 52 9 32 -11 62 -14 103 -9 37 4 57 2 57 -5 0 -5 9 -10 20 -10 13 0 20
7 20 19 0 22 12 28 53 28 19 0 27 -5 25 -15z m-1708 1 c0 -3 -7 -14 -15 -23
-14 -15 -12 -20 12 -47 44 -47 53 -69 53 -133 0 -54 -3 -62 -33 -92 l-33 -33
21 -23 c11 -12 28 -22 37 -22 10 0 29 -5 43 -12 23 -10 26 -16 21 -43 -4 -20
-1 -38 9 -50 16 -23 20 -111 5 -120 -5 -3 -10 -17 -10 -31 0 -37 -45 -104 -70
-104 -5 0 -10 -4 -10 -10 0 -5 -6 -10 -14 -10 -8 0 -16 -3 -18 -7 -1 -5 -16
-15 -33 -24 -16 -10 -34 -26 -40 -38 -5 -12 -13 -21 -17 -21 -14 0 -78 -62
-78 -75 0 -23 -16 -25 -37 -5 -18 16 -19 25 -12 62 9 48 -5 252 -21 293 -5 14
-10 37 -10 50 0 30 -16 35 -64 18 -24 -8 -43 -10 -49 -4 -15 15 2 48 32 61 18
7 34 25 43 49 17 42 20 43 155 59 34 4 65 10 69 14 3 4 -10 26 -30 49 -20 24
-36 50 -36 59 0 9 -4 20 -9 26 -5 5 -5 32 2 66 6 32 7 61 3 65 -12 12 -123 16
-130 4 -11 -17 -36 -13 -30 4 5 12 26 15 98 15 73 0 97 4 121 19 29 19 75 28
75 14z m1350 -48 c-9 -11 -17 -12 -31 -4 -14 7 -27 6 -47 -5 -40 -22 -232 -56
-351 -63 l-104 -6 20 20 c23 23 74 43 110 43 13 0 32 5 42 12 15 9 28 8 65 -6
25 -10 50 -14 56 -11 27 17 111 33 179 34 64 1 72 -1 61 -14z m-1993 -11 c-3
-3 -12 -4 -19 -1 -8 3 -5 6 6 6 11 1 17 -2 13 -5z m250 0 c-3 -3 -12 -4 -19
-1 -8 3 -5 6 6 6 11 1 17 -2 13 -5z m1176 -1 c-7 -2 -19 -2 -25 0 -7 3 -2 5
12 5 14 0 19 -2 13 -5z m637 -34 c0 -12 -7 -19 -19 -19 -26 0 -31 10 -20 39 8
19 12 21 24 11 8 -7 15 -21 15 -31z m375 18 c23 -36 3 -87 -35 -87 -28 0 -40
15 -40 50 0 11 -10 20 -27 25 l-28 7 35 13 c54 20 78 18 95 -8z m-3055 -2 c0
-16 -46 -32 -58 -20 -8 8 26 35 45 35 7 0 13 -7 13 -15z m-1500 -32 c0 -11 -5
-13 -17 -8 -10 4 -28 10 -40 12 -36 8 -18 20 21 15 24 -3 36 -9 36 -19z m1421
17 c12 -7 19 -21 19 -40 0 -17 5 -30 10 -30 6 0 10 -13 10 -30 0 -36 -15 -38
-42 -8 -16 19 -21 20 -28 8 -8 -12 -10 -11 -10 7 0 12 -6 28 -13 35 -13 12
-13 20 -2 56 5 15 30 16 56 2z m-261 -10 c0 -5 -22 -7 -52 -3 -72 8 -73 13 -5
13 32 0 57 -4 57 -10z m-120 -16 c0 -2 -12 -4 -27 -4 -21 0 -24 3 -14 9 13 8
41 5 41 -5z m-994 -18 c8 -8 14 -21 14 -28 -1 -9 -5 -7 -14 5 -7 9 -19 17 -25
17 -7 0 -9 5 -6 10 8 13 14 13 31 -4z m929 4 c3 -5 -3 -10 -15 -10 -12 0 -18
5 -15 10 3 6 10 10 15 10 5 0 12 -4 15 -10z m-85 -47 c0 -26 -16 -47 -29 -39
-12 8 -15 39 -4 49 13 13 33 7 33 -10z m-674 -3 c48 0 73 -4 77 -12 8 -21
-168 -11 -185 9 -11 15 -10 16 12 10 14 -4 57 -7 96 -7z m557 3 c-7 -2 -19 -2
-25 0 -7 3 -2 5 12 5 14 0 19 -2 13 -5z m-63 -27 c0 -3 -4 -8 -10 -11 -5 -3
-10 -1 -10 4 0 6 5 11 10 11 6 0 10 -2 10 -4z m2835 -26 c3 -5 14 -10 24 -10
10 0 21 -9 24 -20 3 -14 14 -20 31 -20 21 0 26 -5 26 -24 0 -37 -38 -46 -62
-13 -16 22 -22 24 -60 16 -24 -4 -56 -12 -71 -18 -16 -6 -39 -11 -52 -11 -52
0 -90 -106 -46 -129 10 -6 21 -8 24 -5 9 9 95 -7 114 -21 14 -11 15 -15 4 -28
-7 -9 -26 -19 -43 -22 -42 -10 -134 -53 -148 -70 -6 -7 -14 -39 -17 -69 -5
-48 -3 -56 11 -56 9 0 16 4 16 10 0 5 10 18 22 30 18 16 35 20 97 20 41 0 114
-5 163 -11 74 -10 88 -15 88 -29 0 -10 -6 -21 -12 -23 -10 -4 -10 -8 1 -15 12
-9 12 -13 -2 -26 -13 -13 -44 -16 -185 -17 -153 0 -171 -2 -190 -20 -22 -20
-57 -25 -66 -10 -3 5 -6 49 -7 97 -1 91 -7 113 -41 150 -22 25 -16 46 18 64
15 8 24 22 24 37 0 28 19 112 31 135 5 10 9 26 9 36 0 24 19 42 46 42 13 0 26
5 29 10 3 6 42 10 85 10 43 0 82 5 85 10 3 6 10 10 15 10 5 0 12 -4 15 -10z
m495 -8 c0 -10 7 -28 16 -40 19 -28 72 -30 105 -3 36 28 169 34 169 7 0 -14
-20 -19 -133 -32 -65 -7 -112 -36 -101 -63 3 -9 7 -25 9 -36 1 -17 10 -20 68
-23 49 -2 67 -7 67 -17 0 -13 -82 -75 -99 -75 -19 0 -34 -34 -37 -83 -1 -29
-3 -55 -3 -59 -2 -12 -63 -20 -73 -10 -12 12 -30 151 -33 247 -1 33 -3 65 -4
71 0 6 -19 18 -41 27 -47 18 -51 38 -12 58 15 7 34 22 42 31 20 24 60 24 60 0z
m-1955 -23 c38 -18 45 -26 45 -50 0 -15 -4 -31 -10 -34 -5 -3 -10 -15 -10 -26
0 -10 -4 -19 -10 -19 -5 0 -10 3 -10 8 0 4 -13 13 -29 20 -27 12 -69 10 -124
-5 -30 -8 -74 -89 -93 -169 -16 -69 -17 -75 0 -111 20 -45 86 -123 104 -123 6
0 12 -4 12 -8 0 -14 92 -34 104 -22 14 14 71 13 84 -3 19 -23 1 -57 -41 -77
-22 -11 -47 -20 -56 -20 -17 0 -161 69 -176 85 -6 5 -24 31 -40 57 -17 27 -33
48 -37 48 -5 0 -8 9 -8 19 0 11 -5 23 -11 27 -20 12 -6 191 20 247 38 83 119
157 172 157 10 0 21 5 24 10 10 16 41 12 90 -11z m-715 -19 c0 -6 11 -8 25 -4
33 8 33 -15 -1 -39 -24 -18 -26 -18 -45 -1 -22 20 -25 40 -6 47 20 9 27 8 27
-3z m126 -62 c33 -16 44 -27 44 -44 0 -13 5 -26 10 -29 15 -9 12 -54 -4 -70
-7 -8 -22 -11 -34 -9 -11 3 -23 1 -26 -4 -10 -17 4 -40 30 -46 40 -10 117 -97
132 -148 12 -42 11 -49 -12 -99 -23 -52 -74 -109 -96 -109 -6 0 -30 -10 -55
-21 -39 -19 -49 -20 -76 -9 -22 9 -36 10 -52 2 -42 -20 -57 -21 -73 -5 -12 12
-14 25 -8 52 10 52 6 105 -15 191 -11 41 -22 95 -25 120 -4 24 -14 52 -22 61
-13 14 -12 20 1 50 30 69 86 109 154 109 20 0 45 7 55 15 25 19 21 19 72 -7z
m-697 -183 c9 -16 23 -48 30 -70 8 -22 27 -60 44 -84 28 -41 34 -59 52 -146 4
-16 11 -41 17 -55 6 -14 15 -36 21 -50 5 -14 13 -33 18 -42 15 -29 10 -39 -17
-36 -22 3 -29 13 -53 83 -44 128 -73 174 -92 144 -5 -8 -9 -200 -9 -426 l0
-413 45 22 c45 22 54 35 35 54 -5 5 -10 36 -11 69 -1 33 -6 66 -12 73 -13 17
-6 23 41 29 34 5 43 2 63 -21 16 -18 33 -26 58 -27 20 -1 28 -3 17 -6 -15 -4
-17 -12 -13 -45 6 -48 21 -68 39 -50 11 11 98 18 98 8 0 -16 -79 -81 -125
-102 -30 -15 -55 -31 -56 -38 -4 -40 4 -153 12 -161 13 -13 12 -245 -1 -245
-5 0 -10 -11 -10 -25 0 -14 -4 -25 -10 -25 -5 0 -10 -7 -10 -15 0 -8 -4 -15
-10 -15 -5 0 -10 -9 -10 -21 0 -14 -5 -19 -15 -16 -8 4 -17 2 -20 -3 -5 -8
-82 -26 -97 -22 -4 1 -7 -197 -7 -441 -1 -375 1 -446 14 -471 17 -32 20 -72 6
-81 -5 -3 -12 5 -14 17 -2 13 -5 -228 -6 -534 l-1 -558 -1800 0 -1800 0 0
1800 0 1800 1728 0 1727 0 18 43 c9 23 17 50 17 60 0 10 7 32 16 48 20 40 60
37 83 -6z m5252 -114 c10 -3 -37 -5 -104 -5 -67 1 -123 6 -124 10 -3 10 201 6
228 -5z m-434 -7 c-3 -3 -12 -4 -19 -1 -8 3 -5 6 6 6 11 1 17 -2 13 -5z m56
-1 c-7 -2 -19 -2 -25 0 -7 3 -2 5 12 5 14 0 19 -2 13 -5z m-113 -35 c8 -13 13
-28 12 -35 -1 -6 2 -14 8 -18 18 -11 11 -98 -10 -132 -18 -30 -25 -33 -65 -33
-45 0 -47 1 -67 46 -12 29 -18 57 -14 75 3 17 1 29 -7 32 -8 3 -4 11 11 24 12
11 22 25 22 31 0 7 12 14 28 18 15 3 32 7 37 9 22 7 31 4 45 -17z m590 7 c7
-8 24 -15 39 -15 15 0 32 -5 38 -11 7 -7 43 -11 87 -10 45 1 76 -3 76 -9 0 -6
-27 -10 -60 -10 -33 0 -60 -4 -60 -10 0 -5 3 -10 8 -10 14 0 32 -55 32 -99 0
-76 -48 -104 -104 -60 -45 36 -59 75 -53 146 5 55 4 65 -11 70 -9 4 -23 13
-30 20 -11 11 -10 13 6 13 11 0 25 -7 32 -15z m-12990 -1795 l0 -1800 -1800 0
-1800 0 0 1800 0 1800 1800 0 1800 0 0 -1800z m3820 0 l0 -1800 -1800 0 -1800
0 0 1800 0 1800 1800 0 1800 0 0 -1800z m8400 1730 c0 -5 -9 -10 -19 -10 -11
0 -23 -4 -26 -10 -3 -5 -15 -10 -26 -10 -10 0 -19 5 -19 10 0 6 9 10 19 10 11
0 23 5 26 10 3 6 15 10 26 10 10 0 19 -4 19 -10z m-625 -40 c-8 -13 -45 -13
-65 0 -11 7 -3 10 28 10 26 0 41 -4 37 -10z m345 0 c0 -5 -7 -10 -15 -10 -8 0
-15 5 -15 10 0 6 7 10 15 10 8 0 15 -4 15 -10z m150 1 c0 -7 -23 -11 -55 -11
-30 0 -55 4 -55 8 0 5 25 10 55 11 33 1 55 -2 55 -8z m-426 -53 c43 -1 45 -2
14 -5 -42 -5 -48 -20 -20 -47 17 -15 47 -108 42 -131 -5 -25 2 -33 37 -40 58
-11 127 -50 176 -101 25 -25 56 -51 68 -58 22 -11 33 -51 20 -71 -4 -5 -13
-30 -20 -55 -7 -25 -26 -60 -43 -78 -16 -19 -31 -46 -34 -60 -5 -26 -41 -52
-71 -52 -7 0 -13 -5 -13 -11 0 -6 -7 -8 -16 -5 -15 6 -75 -21 -82 -36 -2 -5
-9 -8 -16 -8 -7 0 -22 -9 -34 -20 -33 -31 -31 -131 4 -198 l26 -50 -23 -31
-23 -31 -23 25 c-13 14 -32 25 -41 25 -10 0 -23 5 -30 12 -17 17 -15 86 2 104
15 14 13 73 -5 128 -5 16 -9 40 -9 53 0 13 -7 34 -14 46 -8 12 -15 36 -14 52
1 38 -26 103 -47 111 -8 4 -15 18 -15 34 0 19 -6 29 -20 33 -14 4 -20 14 -20
35 0 17 -8 44 -17 60 -22 39 -7 76 42 99 24 11 35 24 35 38 0 11 6 27 13 34 6
6 12 38 13 69 0 31 3 66 5 76 3 14 -3 22 -21 27 l-25 7 28 1 c15 1 27 5 27 10
0 13 30 20 64 15 16 -2 52 -5 80 -6z m-711 -5 c-7 -2 -21 -2 -30 0 -10 3 -4 5
12 5 17 0 24 -2 18 -5z m800 0 c-7 -2 -19 -2 -25 0 -7 3 -2 5 12 5 14 0 19 -2
13 -5z m-870 -20 c-7 -2 -21 -2 -30 0 -10 3 -4 5 12 5 17 0 24 -2 18 -5z m-57
-28 c-3 -10 3 -17 18 -21 39 -9 65 -154 35 -191 -6 -7 -25 -13 -42 -13 -41 0
-97 59 -97 104 0 17 -5 37 -11 43 -8 8 -7 17 3 32 11 18 11 23 -1 30 -10 6 -6
11 15 19 45 16 87 15 80 -3z m-296 -60 c0 -8 -8 -15 -19 -15 -10 0 -34 -3 -52
-6 l-34 -6 27 15 c24 14 48 22 71 26 4 0 7 -6 7 -14z m-110 -25 c0 -6 -12 -16
-27 -23 -16 -6 -37 -20 -47 -29 -11 -10 -25 -18 -32 -18 -7 0 -19 -6 -27 -14
-12 -13 -20 -13 -53 -1 -28 10 -33 14 -16 15 12 0 22 5 22 10 0 6 6 10 14 10
8 0 23 11 33 24 14 18 26 22 50 19 17 -3 34 0 37 6 9 14 46 14 46 1z m-244
-105 c-20 -15 -12 -40 10 -31 10 4 14 -2 14 -19 0 -14 4 -25 9 -25 14 0 23
-93 12 -122 -12 -32 -46 -43 -83 -29 -36 14 -71 83 -74 147 -4 72 11 83 116
92 11 1 10 -2 -4 -13z m828 -71 c16 -6 23 -44 8 -44 -22 0 -67 -58 -127 -163
-46 -82 -62 -152 -73 -312 -4 -55 -11 -105 -15 -112 -12 -19 11 -61 43 -78 25
-13 38 -14 63 -5 49 16 117 87 117 120 0 6 9 30 20 52 11 23 20 54 20 69 0 15
5 31 10 34 6 3 10 22 10 41 0 19 4 34 9 34 8 0 22 78 23 133 1 15 -7 36 -18
48 -16 17 -16 22 -4 29 12 8 13 13 3 30 -20 31 -16 50 10 50 31 -1 53 -36 62
-100 3 -30 11 -69 17 -85 15 -43 -13 -177 -53 -262 -18 -38 -36 -69 -41 -71
-4 -2 -8 -14 -8 -26 0 -12 -9 -32 -20 -44 -11 -12 -20 -25 -20 -29 0 -4 -19
-25 -43 -48 -53 -49 -127 -77 -181 -68 -27 4 -40 2 -47 -8 -6 -10 -9 -7 -9 11
0 14 -13 41 -28 60 -51 61 -55 77 -43 139 5 31 13 70 15 86 6 34 20 102 35
160 5 22 15 60 20 85 13 53 51 140 62 140 4 0 10 9 14 19 9 29 65 88 100 106
33 16 45 18 69 9z m-581 -24 l26 -21 -1 -156 c-1 -112 2 -158 10 -161 7 -2 12
-21 12 -43 0 -21 5 -39 10 -39 6 0 10 -16 10 -35 0 -19 5 -35 10 -35 6 0 10
-18 10 -39 0 -22 5 -43 10 -46 6 -3 10 -30 10 -60 0 -30 -4 -57 -10 -60 -5 -3
-10 -15 -10 -26 0 -10 -2 -19 -4 -19 -2 0 -11 -2 -18 -5 -16 -6 -58 26 -58 44
0 6 -29 40 -65 76 -36 36 -65 70 -65 76 0 15 -81 99 -96 99 -18 0 -26 -63 -23
-193 3 -108 2 -120 -16 -133 -32 -24 -55 -18 -55 14 0 15 5 33 11 39 12 12 9
100 -10 292 -7 68 -10 134 -7 147 8 29 42 33 50 6 4 -11 17 -25 31 -32 14 -7
27 -21 31 -32 3 -10 11 -18 17 -18 7 -1 21 -14 32 -30 56 -81 122 -160 134
-160 11 0 12 13 7 68 -4 37 -12 114 -16 172 -5 58 -14 125 -19 150 -12 52 -14
163 -4 173 11 12 30 8 56 -13z m-666 -46 c-3 -3 -12 -4 -19 -1 -8 3 -5 6 6 6
11 1 17 -2 13 -5z m-233 -69 c4 -12 -4 -15 -42 -15 -43 1 -46 2 -28 15 26 19
62 19 70 0z m104 -13 c15 -10 5 -42 -13 -42 -18 0 -28 17 -21 35 6 17 15 18
34 7z m-218 -12 c0 -5 -7 -10 -16 -10 -8 0 -12 5 -9 10 3 6 10 10 16 10 5 0 9
-4 9 -10z m-40 -20 c0 -5 -9 -10 -20 -10 -11 0 -20 5 -20 10 0 6 9 10 20 10
11 0 20 -4 20 -10z m-55 -20 c-3 -5 -10 -10 -16 -10 -5 0 -9 5 -9 10 0 6 7 10
16 10 8 0 12 -4 9 -10z m-60 -10 c-3 -5 -37 -8 -74 -6 -87 4 -161 -12 -161
-35 0 -9 6 -19 14 -22 24 -9 46 -68 46 -124 0 -29 -4 -53 -9 -53 -5 0 -11 -9
-14 -20 -5 -20 -11 -24 -61 -35 l-29 -6 7 -174 c3 -96 9 -182 12 -190 4 -8 14
-15 24 -15 11 0 22 -4 25 -10 3 -5 24 -10 45 -10 21 0 42 -4 45 -10 3 -5 22
-10 41 -10 19 0 34 -4 34 -10 0 -5 11 -10 24 -10 22 0 51 -12 86 -35 21 -14
-141 -23 -201 -11 -58 12 -95 2 -104 -26 -6 -19 -8 -20 -12 -5 -10 37 -83 9
-83 -32 0 -20 -1 -20 -22 -3 -44 35 -68 61 -68 75 0 17 34 57 48 57 22 0 25
28 23 231 -2 182 0 210 13 215 21 8 20 22 -5 74 -16 32 -19 53 -15 83 8 46 -5
66 -43 68 -20 1 -21 2 -6 6 11 2 35 11 54 20 21 10 50 13 77 10 24 -2 44 -1
44 4 0 11 40 16 153 18 61 0 96 -3 92 -9z m-893 -60 c2 -6 82 -6 218 -1 123 5
219 5 224 0 6 -5 -14 -9 -46 -9 -31 0 -60 -5 -63 -11 -7 -11 -122 -8 -141 4
-6 3 -14 4 -18 0 -3 -3 -34 -8 -68 -11 -35 -2 -66 -8 -69 -14 -3 -5 -4 -31 -1
-59 3 -32 1 -49 -7 -49 -6 0 -11 -7 -11 -16 0 -26 -40 -54 -77 -54 -50 0 -75
45 -71 128 l4 62 -61 2 -60 2 58 3 c31 2 57 9 57 15 0 5 6 8 13 5 8 -3 20 -1
28 4 19 12 86 11 91 -1z m-415 -6 c-3 -3 -12 -4 -19 -1 -8 3 -5 6 6 6 11 1 17
-2 13 -5z m70 -20 c-3 -3 -12 -4 -19 -1 -8 3 -5 6 6 6 11 1 17 -2 13 -5z
m1773 -43 c0 -11 5 -21 11 -23 9 -3 31 -58 73 -175 6 -18 14 -33 18 -33 5 0 8
-15 8 -34 0 -19 5 -38 10 -41 6 -3 10 -19 10 -36 0 -27 16 -67 31 -79 4 -3 9
-22 13 -42 16 -96 19 -109 27 -114 24 -14 -10 -74 -42 -74 -4 0 -13 38 -20 85
-7 47 -16 85 -21 85 -4 0 -8 7 -8 15 0 8 -9 29 -20 47 -11 18 -20 46 -20 61 0
33 -46 155 -66 177 -12 12 -16 12 -29 -5 -8 -11 -15 -28 -15 -37 0 -9 -4 -20
-10 -23 -5 -3 -10 -15 -10 -26 0 -10 -4 -19 -10 -19 -5 0 -10 -9 -10 -20 0
-11 -4 -20 -10 -20 -5 0 -10 -30 -12 -67 -3 -64 -4 -68 -27 -68 -26 0 -61 52
-61 91 0 24 -34 59 -48 50 -11 -6 -14 -21 -38 -153 -14 -76 -20 -92 -37 -97
-43 -11 -68 48 -45 105 8 19 15 66 17 104 1 39 7 98 12 130 6 33 12 74 13 90
3 27 7 31 36 27 13 -3 88 -115 95 -145 4 -14 17 -35 31 -48 19 -18 26 -20 39
-9 8 7 15 25 15 41 0 16 5 29 10 29 6 0 10 9 10 20 0 11 5 20 10 20 6 0 10 10
10 23 0 13 5 28 11 34 6 6 12 46 13 89 4 91 2 84 21 84 8 0 15 -9 15 -19z
m-1197 -133 c7 -19 -39 -98 -57 -98 -5 0 -61 -34 -120 -72 -35 -23 -76 -65
-76 -78 0 -7 16 -29 35 -49 60 -63 123 -125 164 -163 23 -21 41 -44 41 -52 0
-33 -24 -27 -65 15 -53 55 -103 99 -113 99 -5 0 -17 8 -28 19 -11 10 -30 24
-42 30 -20 11 -23 9 -33 -16 -5 -15 -8 -37 -4 -50 6 -25 -23 -153 -35 -153
-20 0 -29 35 -34 135 -16 332 -17 370 -2 389 8 10 19 15 24 12 11 -6 42 -96
42 -120 0 -8 6 -16 13 -19 13 -4 57 12 57 22 0 4 18 17 40 31 22 14 40 28 40
32 0 8 130 98 142 98 3 0 8 -6 11 -12z m4325 -415 c-32 -2 -58 -8 -58 -13 0
-9 23 -35 44 -47 6 -5 17 -30 23 -58 9 -39 8 -57 -2 -82 -12 -29 -18 -33 -53
-33 -38 0 -65 20 -90 67 -12 22 -19 110 -9 119 17 17 6 43 -20 47 -16 2 28 4
97 4 69 -1 99 -2 68 -4z m-353 -53 c-3 -5 -15 -10 -26 -10 -10 0 -19 5 -19 10
0 6 12 10 26 10 14 0 23 -4 19 -10z m-55 -18 c0 -12 -49 -37 -56 -29 -9 9 19
36 39 37 9 0 17 -4 17 -8z m-3036 -31 c3 -5 -1 -14 -9 -21 -13 -10 -15 -9 -15
9 0 21 14 28 24 12z m2951 -1 c25 -6 -94 -17 -125 -11 l-35 5 35 6 c33 5 103
5 125 0z m-165 -20 c0 -5 -7 -10 -15 -10 -8 0 -15 5 -15 10 0 6 7 10 15 10 8
0 15 -4 15 -10z m-461 -21 c25 -1 37 -3 26 -6 -11 -2 -31 -6 -44 -9 l-24 -5
32 -26 c29 -24 31 -30 31 -90 0 -69 -13 -93 -50 -93 -48 0 -99 55 -105 113 -1
17 -6 40 -10 50 -4 11 -3 17 5 17 10 0 10 3 1 14 -18 21 25 49 63 42 16 -4 49
-7 75 -7z m-464 -40 c44 1 66 -1 60 -7 -14 -13 -165 -23 -165 -11 0 5 -18 9
-40 9 -24 0 -40 -5 -40 -12 0 -6 -3 -9 -6 -5 -4 3 -4 14 0 23 5 14 15 16 64 9
31 -5 89 -7 127 -6z m-508 -5 c-3 -3 -12 -4 -19 -1 -8 3 -5 6 6 6 11 1 17 -2
13 -5z m177 -26 c-9 -30 -8 -30 -28 -22 -9 3 -16 15 -16 25 0 14 7 19 26 19
22 0 24 -3 18 -22z m-249 -8 c-3 -5 -17 -10 -31 -10 -13 0 -24 5 -24 10 0 6
14 10 31 10 17 0 28 -4 24 -10z m-165 -16 c0 -11 -26 -31 -50 -37 -43 -11 -57
-24 -42 -39 15 -15 17 -158 2 -158 -5 0 -10 -6 -10 -14 0 -25 -64 -36 -100
-16 -21 11 -40 67 -40 118 0 36 -4 38 -53 17 -39 -16 -102 -20 -93 -6 3 4 17
6 31 3 14 -2 25 0 25 6 0 6 18 16 39 23 21 6 54 24 72 40 19 16 42 29 52 29 9
0 17 5 17 10 0 13 67 13 72 -1 2 -5 12 -1 23 10 18 18 55 29 55 15z m60 -4 c0
-5 -7 -10 -15 -10 -8 0 -15 5 -15 10 0 6 7 10 15 10 8 0 15 -4 15 -10z m1608
-128 c5 -30 -40 -124 -70 -148 -13 -11 -31 -31 -41 -46 -10 -16 -23 -28 -30
-28 -23 -1 -127 -114 -127 -139 0 -6 -3 -11 -7 -11 -5 0 -19 -17 -33 -38 -13
-20 -35 -49 -50 -63 -57 -59 -80 -90 -80 -108 0 -23 -17 -55 -52 -102 -16 -20
-28 -40 -28 -46 0 -23 -39 -50 -64 -46 -35 7 -33 27 9 76 19 22 35 49 35 59 0
10 3 18 8 18 4 0 18 18 32 40 14 22 28 40 32 40 5 0 8 7 8 15 0 8 5 15 10 15
6 0 10 6 10 14 0 7 14 27 30 44 54 57 43 79 -85 163 -106 70 -160 128 -150
160 4 10 15 19 26 19 20 0 138 -78 169 -110 20 -22 106 -80 118 -80 5 0 22 17
38 38 15 20 32 39 36 40 4 2 8 10 8 18 0 8 4 14 8 14 4 0 15 12 24 28 9 15 27
38 40 52 13 14 37 43 53 64 33 43 82 78 105 74 8 -2 16 -14 18 -26z m-4533 8
c3 -5 18 -10 33 -10 15 -1 38 -7 52 -15 22 -13 23 -14 5 -15 -43 0 -92 13
-116 31 -24 18 -24 19 -2 19 12 0 25 -4 28 -10z m2445 -30 c0 -5 -20 -10 -44
-10 -25 0 -48 -4 -51 -10 -3 -5 -30 -10 -60 -10 -30 0 -56 -4 -59 -9 -3 -4
-23 -11 -43 -15 -61 -10 -68 -18 -49 -56 35 -71 11 -150 -45 -150 -49 0 -86
45 -101 123 -12 63 -14 67 -40 67 -16 0 -28 5 -28 10 0 6 14 10 30 10 17 0 41
7 55 16 21 14 26 14 54 0 33 -18 77 -21 85 -7 6 9 26 14 140 30 38 6 71 13 74
16 10 9 82 5 82 -5z m-2276 -6 c10 -4 16 -18 16 -35 0 -16 5 -29 10 -29 6 0
10 -16 10 -35 0 -41 -6 -43 -31 -10 -12 14 -26 22 -34 18 -9 -3 -15 1 -15 11
0 9 -4 16 -10 16 -14 0 -13 43 2 58 13 13 28 15 52 6z m192 -24 c43 0 74 -4
74 -10 0 -6 -43 -10 -109 -10 -89 0 -111 3 -122 17 -13 15 -10 16 35 10 27 -4
82 -7 122 -7z m174 -30 c0 -5 -16 -10 -35 -10 -19 0 -35 5 -35 10 0 6 16 10
35 10 19 0 35 -4 35 -10z m912 -7 c21 -3 51 0 67 5 29 10 94 1 76 -10 -6 -3
-41 -9 -79 -12 -38 -3 -72 -8 -75 -11 -3 -3 0 -15 7 -25 15 -24 16 -86 2 -95
-5 -3 -10 -13 -10 -22 0 -21 -38 -53 -62 -53 -53 0 -80 39 -88 125 -4 53 -8
60 -30 66 -17 4 -20 8 -10 11 8 3 35 12 60 21 25 8 59 13 75 11 17 -3 47 -8
67 -11z m-826 -18 c16 -16 5 -22 -11 -6 -6 5 -21 11 -35 14 -24 4 -24 4 3 6
16 0 35 -6 43 -14z m97 -18 c8 -20 -9 -41 -27 -34 -23 9 -21 47 3 47 10 0 21
-6 24 -13z m123 -23 c29 -16 29 -16 -21 -10 -58 7 -86 26 -38 26 17 0 44 -7
59 -16z m238 1 c-5 -12 -25 -15 -97 -15 -109 0 -112 8 -4 11 42 2 83 6 90 11
17 11 17 10 11 -7z m2656 -11 c0 -24 -96 -194 -121 -214 -4 -3 -17 -26 -29
-52 -12 -27 -26 -48 -31 -48 -11 0 -12 -47 -1 -52 4 -1 20 -28 35 -58 16 -30
40 -72 54 -92 14 -21 23 -44 19 -53 -5 -14 -10 -13 -43 4 -35 18 -73 53 -73
67 0 3 -14 19 -32 35 -25 24 -37 29 -60 24 -25 -6 -28 -4 -28 20 0 42 -25 89
-74 141 -50 51 -73 108 -54 131 9 11 18 5 49 -27 21 -22 45 -40 53 -40 8 0 16
-4 18 -8 6 -15 68 -53 68 -43 0 6 7 11 15 11 8 0 15 4 15 9 0 5 18 28 41 52
22 24 47 58 56 74 9 17 29 48 46 70 48 63 77 82 77 49z m-3570 -78 c0 -22 -28
-39 -55 -32 -16 4 -25 13 -25 26 0 17 7 20 40 20 27 0 40 -4 40 -14z m1765
-46 c7 -19 16 -47 19 -62 3 -15 12 -33 19 -40 15 -17 37 -78 37 -106 0 -12 5
-22 10 -22 6 0 10 -14 10 -30 0 -17 4 -38 9 -48 5 -9 14 -29 22 -44 18 -40 43
-35 64 12 10 22 22 40 27 40 4 0 8 6 8 13 0 7 9 23 20 35 11 12 20 26 20 32 0
5 4 10 9 10 5 0 11 13 14 29 3 16 12 35 20 43 8 8 25 34 37 59 38 76 90 117
90 70 0 -39 -112 -230 -162 -277 -51 -47 -83 -99 -108 -174 -8 -25 -22 -46
-30 -48 -16 -2 -40 39 -40 69 0 10 -4 21 -10 24 -5 3 -10 17 -10 31 0 13 -4
24 -10 24 -5 0 -10 9 -10 20 0 11 -4 20 -10 20 -5 0 -10 7 -10 15 0 8 -4 23
-9 33 -71 144 -96 245 -71 291 15 29 30 23 45 -19z m-1515 8 c0 -6 -10 -22
-22 -35 -16 -17 -32 -23 -65 -23 -44 0 -93 -23 -93 -44 0 -6 12 -20 27 -31 15
-11 40 -35 56 -52 17 -18 35 -33 42 -33 16 0 95 -86 121 -130 11 -20 23 -58
27 -86 6 -50 5 -52 -38 -94 -24 -24 -61 -50 -82 -57 -66 -25 -183 -10 -203 27
-5 10 -17 26 -26 35 -9 9 -13 19 -9 23 3 4 11 -1 16 -11 28 -50 164 -66 222
-25 46 32 56 48 57 87 0 38 -20 101 -31 101 -4 0 -27 20 -51 44 -24 24 -64 54
-90 66 -57 26 -108 76 -108 104 0 30 77 101 125 116 22 7 44 16 50 21 14 13
75 11 75 -3z m1234 -44 c22 -8 23 -94 1 -94 -15 0 -20 -14 -29 -80 -5 -37 -13
-74 -41 -205 -31 -148 -86 -205 -197 -205 -33 0 -41 5 -64 39 -35 53 -54 155
-54 288 0 124 4 143 30 143 21 0 30 -52 30 -184 0 -79 4 -99 26 -144 31 -62
61 -75 102 -45 35 26 56 66 71 138 7 33 19 78 27 100 8 24 14 80 14 134 0 78
3 96 18 107 19 15 42 17 66 8z m1196 -52 c0 -40 11 -90 34 -158 18 -54 39
-130 45 -169 7 -38 17 -80 23 -92 13 -27 36 -30 45 -5 3 9 14 28 23 42 20 30
27 62 40 190 17 169 46 256 79 236 24 -15 3 -189 -30 -244 -13 -22 -19 -52
-19 -89 0 -54 -27 -144 -65 -216 -8 -16 -15 -37 -15 -48 0 -20 -24 -26 -35 -9
-3 6 -16 10 -29 10 -26 0 -38 21 -57 95 -7 28 -22 73 -35 100 -12 28 -28 71
-35 98 -10 33 -18 47 -31 47 -11 0 -18 -7 -18 -20 0 -11 -4 -20 -10 -20 -5 0
-10 -11 -10 -24 0 -14 -4 -28 -10 -31 -5 -3 -10 -15 -10 -27 0 -33 -42 -147
-62 -168 -35 -38 -48 -26 -48 44 0 35 -7 83 -16 107 -45 121 -68 379 -34 379
14 0 40 -30 54 -63 7 -18 16 -69 19 -115 4 -45 11 -90 16 -100 8 -15 11 -13
20 11 6 16 11 41 11 57 0 16 5 32 10 35 6 3 10 15 10 26 0 10 5 19 10 19 6 0
10 14 10 30 0 17 5 30 10 30 6 0 10 8 10 18 0 19 67 82 87 82 9 0 13 -18 13
-58z m-1945 -90 c48 -22 77 -32 95 -32 14 0 20 -7 20 -22 0 -30 -39 -48 -102
-48 -46 0 -48 -1 -48 -28 0 -27 -15 -52 -32 -52 -4 0 -8 18 -8 41 0 33 -3 40
-17 37 -15 -3 -19 -20 -26 -123 -11 -180 -32 -255 -69 -255 -17 0 -18 16 -18
194 0 212 2 206 -61 206 -22 0 -32 6 -38 23 -13 33 5 47 63 48 28 0 71 4 96 7
78 12 124 13 145 4z m2505 -168 c0 -10 -43 -45 -48 -39 -6 6 28 45 40 45 4 0
8 -3 8 -6z m-70 -83 c0 -6 -4 -13 -10 -16 -5 -3 -10 1 -10 9 0 9 5 16 10 16 6
0 10 -4 10 -9z m-72 -102 c-18 -12 -23 8 -6 28 12 15 13 15 16 -2 2 -10 -2
-21 -10 -26z"/>
<path d="M17882 6848 c-16 -16 -16 -68 1 -68 21 0 58 40 55 58 -4 21 -39 27
-56 10z"/>
<path d="M17220 7210 c0 -5 5 -10 10 -10 6 0 10 5 10 10 0 6 -4 10 -10 10 -5
0 -10 -4 -10 -10z"/>
<path d="M14280 7156 c0 -9 5 -16 10 -16 6 0 10 4 10 9 0 6 -4 13 -10 16 -5 3
-10 -1 -10 -9z"/>
<path d="M15136 7075 c-7 -34 4 -66 30 -93 10 -10 18 -10 36 -1 13 7 30 15 38
19 21 10 25 57 6 75 -8 8 -26 15 -40 15 -14 0 -26 5 -26 10 0 6 -8 10 -19 10
-14 0 -21 -10 -25 -35z"/>
<path d="M15155 6788 c-67 -17 -70 -20 -67 -74 2 -27 12 -92 23 -144 10 -52
19 -98 19 -102 0 -5 11 -8 25 -8 14 0 25 5 25 10 0 6 7 10 15 10 8 0 15 5 15
10 0 6 5 10 11 10 16 0 67 58 83 95 36 80 39 93 25 139 -19 65 -68 80 -174 54z"/>
<path d="M13910 6822 c-8 -3 -25 -14 -38 -26 -13 -11 -42 -28 -65 -36 -25 -9
-43 -23 -45 -34 -4 -17 2 -18 57 -14 47 3 71 11 104 34 49 35 60 69 25 76 -13
2 -30 2 -38 0z"/>
<path d="M13836 6575 c-21 -7 -43 -20 -47 -27 -11 -16 -12 -125 -1 -130 4 -1
16 -21 27 -43 23 -46 59 -59 68 -25 4 17 13 20 49 19 76 -2 138 24 138 58 0 7
5 13 10 13 14 0 13 46 -2 87 -9 23 -20 35 -38 39 -14 3 -41 9 -61 14 -50 13
-97 12 -143 -5z"/>
<path d="M13250 6576 c0 -10 9 -16 21 -16 24 0 21 23 -4 28 -10 2 -17 -3 -17
-12z"/>
<path d="M13302 6520 c0 -14 2 -19 5 -12 2 6 2 18 0 25 -3 6 -5 1 -5 -13z"/>
<path d="M9900 4760 l0 -1600 1600 0 1600 0 0 1600 0 1600 -1600 0 -1600 0 0
-1600z m3161 858 c2 -721 2 -909 0 -1865 l-1 -553 -1560 0 -1560 0 0 1560 0
1560 1560 0 1560 0 1 -702z"/>
<path d="M10000 4760 l0 -1500 368 0 c280 0 371 3 380 12 10 10 14 10 21 0 8
-13 41 -6 41 9 0 4 -6 28 -13 51 -16 50 -17 142 -1 158 7 7 57 10 140 8 l129
-3 8 -55 c4 -30 8 -59 8 -65 -2 -33 -9 -59 -18 -62 -5 -2 -8 -15 -5 -28 l4
-25 309 0 309 0 1 88 c1 48 1 95 0 105 -2 13 6 17 36 18 21 0 78 3 126 5 107
5 103 10 106 -143 l1 -73 525 0 525 0 0 856 c0 681 -3 854 -12 848 -10 -6 -10
-5 -1 7 10 12 13 162 13 652 l0 637 -476 0 c-419 0 -475 -2 -470 -15 3 -8 2
-15 -3 -15 -13 0 -21 -84 -9 -91 6 -4 7 -12 3 -19 -6 -9 -10 -9 -17 1 -7 10
-8 8 -2 -6 10 -29 12 -81 4 -153 -3 -35 -2 -66 2 -68 5 -3 6 -40 2 -82 -8 -83
-8 -101 1 -177 8 -77 10 -87 24 -128 15 -43 7 -110 -15 -128 -12 -10 -14 -3
-14 45 0 31 4 56 8 56 4 0 8 10 9 22 2 17 -4 12 -22 -18 l-24 -39 -2 35 c-2
33 -2 33 -9 -10 -6 -36 -7 -39 -8 -14 -2 28 -5 31 -37 32 -42 2 -58 9 -49 24
4 6 2 13 -4 17 -6 4 -5 11 4 19 8 7 14 8 14 2 0 -5 5 -10 10 -10 6 0 10 9 10
20 0 15 -7 20 -25 20 -21 0 -25 4 -24 28 2 23 2 24 6 5 5 -26 43 -33 43 -9 0
8 9 21 21 29 19 14 20 19 9 73 -17 84 -13 127 21 250 23 80 31 135 33 207 3
99 -10 136 -17 50 l-3 -48 -2 48 -2 47 -64 0 c-36 0 -68 -5 -71 -10 -5 -8 -11
-8 -19 -1 -7 6 -16 8 -19 4 -15 -14 -6 -23 23 -23 24 0 30 -4 30 -22 0 -17 -3
-19 -9 -10 -11 18 -17 -8 -17 -71 1 -26 -3 -47 -9 -47 -5 0 -4 -4 4 -9 9 -6
11 -15 6 -27 -5 -11 -10 -32 -11 -49 -8 -78 -7 -97 7 -107 11 -8 10 -9 -4 -4
-18 6 -18 -3 -15 -163 3 -153 1 -171 -15 -189 -22 -24 -86 -57 -104 -54 -13 3
-27 -33 -18 -47 3 -6 -1 -13 -8 -18 -8 -4 -17 -15 -20 -23 -3 -8 -6 4 -6 26
-1 29 4 44 14 48 20 7 19 26 -2 26 -15 0 -15 2 1 19 11 12 14 21 7 26 -10 6
-15 -1 -12 -17 0 -5 -2 -8 -7 -8 -10 0 -55 212 -50 236 2 10 9 18 15 17 7 -2
10 23 9 73 -1 42 2 78 6 80 4 3 8 -3 8 -13 1 -17 2 -16 16 2 12 16 12 22 1 30
-7 5 -11 18 -9 27 2 9 -2 26 -8 38 -20 37 -31 133 -17 142 9 6 9 8 0 8 -7 0
-15 17 -18 38 -4 20 -9 45 -12 55 -4 16 -51 17 -799 17 l-794 0 0 -1500z
m1300 1463 c0 -28 -4 -44 -39 -153 -12 -36 -21 -73 -21 -82 0 -10 -4 -18 -10
-18 -5 0 -10 11 -10 24 0 14 -4 27 -9 30 -5 4 -3 30 5 64 9 31 18 67 21 79 3
13 10 20 16 16 5 -3 7 -1 3 5 -9 15 14 62 31 62 7 0 13 -11 13 -27z m60 13 c0
8 25 12 69 13 61 1 69 -1 66 -17 -2 -9 -4 -72 -4 -139 -1 -68 -5 -123 -10
-123 -4 0 -6 11 -4 24 7 35 -14 41 -22 6 -5 -25 -11 -30 -36 -30 -16 0 -29 4
-29 8 0 5 -7 17 -15 28 -14 18 -14 18 -15 -4 0 -13 4 -20 10 -17 6 3 10 2 10
-3 0 -16 -54 -10 -67 7 -11 14 -13 14 -13 1 -1 -10 -4 -9 -10 5 -8 19 -9 19
-9 -2 -1 -13 -6 -23 -11 -23 -23 0 -20 30 10 105 17 43 29 83 27 89 -2 6 5 28
16 49 14 28 22 35 28 25 6 -8 9 -9 9 -2z m1297 -28 c-3 -7 -5 -2 -5 12 0 14 2
19 5 13 2 -7 2 -19 0 -25z m-680 -155 c-3 -10 -5 -4 -5 12 0 17 2 24 5 18 2
-7 2 -21 0 -30z m-810 -65 c-3 -7 -5 -2 -5 12 0 14 2 19 5 13 2 -7 2 -19 0
-25z m803 -22 c-4 -12 -16 -22 -26 -23 -16 -2 -16 -1 -1 3 9 3 17 12 17 20 0
8 -8 15 -17 15 -17 1 -17 2 0 6 9 2 17 10 17 16 0 8 4 7 9 -2 5 -8 6 -24 1
-35z m-53 -13 c-3 -10 -5 -4 -5 12 0 17 2 24 5 18 2 -7 2 -21 0 -30z m26 -60
c-7 -2 -19 -2 -25 0 -7 3 -2 5 12 5 14 0 19 -2 13 -5z m-590 -20 c-7 -2 -19
-2 -25 0 -7 3 -2 5 12 5 14 0 19 -2 13 -5z m0 -20 c-7 -2 -19 -2 -25 0 -7 3
-2 5 12 5 14 0 19 -2 13 -5z m60 0 c-7 -2 -19 -2 -25 0 -7 3 -2 5 12 5 14 0
19 -2 13 -5z m524 -9 c-3 -3 -12 -4 -19 -1 -8 3 -5 6 6 6 11 1 17 -2 13 -5z
m351 -30 c-3 -14 -5 -12 -10 9 -3 19 -2 25 4 19 6 -6 8 -18 6 -28z m352 16 c0
-11 -4 -20 -10 -20 -5 0 -10 9 -10 20 0 11 5 20 10 20 6 0 10 -9 10 -20z
m-1897 -65 c4 -8 2 -17 -3 -20 -6 -4 -10 3 -10 14 0 25 6 27 13 6z m525 5 c24
0 24 -1 18 -52 -8 -63 -26 -128 -39 -145 -12 -16 -57 23 -57 50 0 9 -6 16 -12
15 -9 -2 -14 17 -16 66 -3 62 -1 68 13 56 13 -11 14 -10 9 5 -7 16 -3 17 26
12 18 -4 44 -7 58 -7z m147 -9 c-3 -5 -10 -31 -15 -58 -18 -85 -21 -96 -30
-113 -5 -9 -11 -29 -14 -45 -7 -38 -14 -42 -25 -12 -5 14 -15 28 -22 33 -9 5
-10 2 -4 -12 4 -10 10 -37 13 -58 4 -34 2 -38 -13 -33 -9 4 -22 7 -30 7 -19 0
-25 51 -8 76 8 13 19 68 25 123 l11 101 59 0 c34 0 57 -4 53 -9z m505 -16 c0
-8 -4 -15 -10 -15 -5 0 -7 7 -4 15 4 8 8 15 10 15 2 0 4 -7 4 -15z m-36 -22
c-5 -5 -12 -12 -16 -18 -4 -6 -8 -2 -8 8 0 9 7 17 17 17 9 0 12 -3 7 -7z m23
-25 c-3 -8 -6 -5 -6 6 -1 11 2 17 5 13 3 -3 4 -12 1 -19z m172 -43 c0 -5 -4
-3 -9 5 -5 8 -9 22 -9 30 0 16 17 -16 18 -35z m211 13 c0 -36 -12 -31 -16 7
-1 14 2 25 7 25 5 0 9 -14 9 -32z m-335 12 c3 -5 2 -10 -4 -10 -5 0 -13 5 -16
10 -3 6 -2 10 4 10 5 0 13 -4 16 -10z m-76 -28 c-10 -2 -20 -13 -24 -25 -6
-19 -8 -20 -12 -4 -8 31 3 46 29 39 17 -5 19 -7 7 -10z m48 12 c-3 -3 -12 -4
-19 -1 -8 3 -5 6 6 6 11 1 17 -2 13 -5z m-1227 -18 c0 -3 -4 -8 -10 -11 -5 -3
-10 -1 -10 4 0 6 5 11 10 11 6 0 10 -2 10 -4z m-68 -68 c-21 -21 -28 -2 -13
32 l15 35 4 -29 c2 -16 -1 -33 -6 -38z m1731 37 c-7 -21 -12 -19 -10 4 0 11 5
18 9 15 4 -3 5 -11 1 -19z m381 7 c2 -4 -4 -9 -15 -9 -11 -1 -17 2 -14 8 7 11
22 12 29 1z m-824 -12 c0 -5 -2 -10 -4 -10 -3 0 -8 5 -11 10 -3 6 -1 10 4 10
6 0 11 -4 11 -10z m-53 -22 c-3 -8 -6 -5 -6 6 -1 11 2 17 5 13 3 -3 4 -12 1
-19z m-10 -50 c-3 -8 -6 -5 -6 6 -1 11 2 17 5 13 3 -3 4 -12 1 -19z m-5 -44
c-2 -14 -7 -22 -11 -17 -3 6 -15 15 -26 22 -19 11 -19 12 3 6 13 -4 22 -2 22
4 0 6 4 11 9 11 4 0 6 -12 3 -26z m498 17 c0 -24 -13 -70 -19 -66 -10 6 -1 75
10 75 5 0 9 -4 9 -9z m460 -6 c0 -8 -4 -15 -10 -15 -5 0 -7 7 -4 15 4 8 8 15
10 15 2 0 4 -7 4 -15z m-2085 -5 c3 -5 1 -10 -4 -10 -6 0 -11 5 -11 10 0 6 2
10 4 10 3 0 8 -4 11 -10z m1465 -22 c0 -36 -4 -35 -14 5 -4 16 -2 27 4 27 5 0
10 -14 10 -32z m647 0 c-3 -7 -5 -2 -5 12 0 14 2 19 5 13 2 -7 2 -19 0 -25z
m-2239 8 c-22 -16 -12 -29 12 -16 17 9 30 4 30 -12 0 -4 -3 -7 -7 -7 -21 3
-33 -2 -27 -13 4 -7 3 -8 -4 -4 -7 4 -12 3 -12 -2 0 -6 -7 -12 -15 -16 -10 -4
-15 1 -15 14 0 12 7 20 16 20 14 0 14 3 3 16 -10 13 -10 17 2 25 22 14 36 10
17 -5z m2022 -6 c0 -11 -4 -20 -10 -20 -5 0 -10 2 -10 4 0 2 -3 11 -6 20 -4
11 -1 16 10 16 9 0 16 -8 16 -20z m270 0 c0 -11 -4 -20 -10 -20 -5 0 -10 9
-10 20 0 11 5 20 10 20 6 0 10 -9 10 -20z m-1085 -58 c-4 -36 -9 -73 -12 -81
-4 -14 -4 -14 6 -1 9 12 11 11 11 -8 0 -13 -4 -21 -9 -18 -5 4 -7 -3 -4 -13 3
-11 10 -18 16 -17 7 2 9 1 5 -1 -5 -3 -8 -11 -8 -19 0 -8 -6 -11 -15 -8 -8 4
-12 10 -9 15 2 5 0 18 -6 29 -6 11 -14 39 -19 62 -5 24 -12 50 -15 59 -8 19
27 66 49 66 15 0 16 -9 10 -65z m108 41 c-7 -2 -19 -2 -25 0 -7 3 -2 5 12 5
14 0 19 -2 13 -5z m52 -58 c-4 -31 -10 -54 -12 -51 -3 3 -2 30 2 61 3 31 9 54
12 52 2 -3 1 -31 -2 -62z m-373 36 c-5 -3 -12 -13 -15 -21 -3 -8 -5 -3 -4 11
1 18 6 25 15 21 7 -2 9 -8 4 -11z m1028 -1 c0 -5 -6 -10 -14 -10 -8 0 -18 5
-21 10 -3 6 3 10 14 10 12 0 21 -4 21 -10z m270 0 c0 -5 -4 -10 -9 -10 -6 0
-13 5 -16 10 -3 6 1 10 9 10 9 0 16 -4 16 -10z m-1326 -22 c6 -22 7 -22 21 -4
13 17 15 18 21 2 3 -9 3 -42 -2 -74 -4 -31 -7 -74 -6 -95 1 -21 -2 -36 -6 -33
-5 3 -22 10 -38 16 -23 9 -25 13 -14 20 10 7 11 10 3 10 -20 0 -15 20 5 21 16
1 16 2 0 6 -27 7 -23 43 5 44 19 2 20 2 2 6 -17 3 -20 10 -17 53 4 53 15 65
26 28z m448 -54 c-8 -14 -10 -14 -15 5 -3 11 -1 21 5 21 5 0 7 4 4 9 -4 5 -3
17 1 28 6 14 9 11 11 -14 2 -18 -1 -40 -6 -49z m-86 57 c-5 -8 -56 -3 -56 5 0
2 14 4 31 4 16 0 28 -4 25 -9z m153 -97 c-6 -7 -8 -17 -5 -23 3 -5 -2 -8 -11
-6 -21 3 -19 22 5 49 9 11 11 16 5 12 -15 -8 -17 12 -6 41 5 14 9 9 15 -21 5
-25 4 -43 -3 -52z m528 80 c-3 -3 -12 -4 -19 -1 -8 3 -5 6 6 6 11 1 17 -2 13
-5z m135 -14 c12 -11 19 -22 16 -25 -2 -3 -15 6 -28 20 -28 30 -18 34 12 5z
m-1063 -21 c-5 -11 -8 -32 -6 -48 3 -16 1 -34 -3 -41 -5 -8 -10 3 -15 30 -7
43 9 95 27 84 4 -3 3 -14 -3 -25z m1043 4 c22 -20 23 -29 2 -37 -20 -8 -58 35
-41 46 16 11 18 10 39 -9z m-2066 -35 c-19 -27 -21 -19 -4 18 7 14 14 21 16
15 2 -6 -4 -21 -12 -33z m1049 21 c-4 -12 -3 -19 2 -16 5 3 8 -12 8 -34 0 -62
-20 -50 -22 14 -2 34 2 57 8 57 6 0 8 -9 4 -21z m-955 -26 c-11 -17 -11 -17
-6 0 3 10 6 24 7 30 0 9 2 9 5 0 3 -7 0 -20 -6 -30z m1140 11 l45 -13 -50 5
c-64 7 -75 11 -75 25 0 7 7 8 18 4 9 -4 37 -13 62 -21z m433 -11 c-7 -45 -23
-68 -23 -32 0 34 11 69 21 69 4 0 5 -17 2 -37z m-282 4 c-10 -9 -11 -8 -5 6 3
10 9 15 12 12 3 -3 0 -11 -7 -18z m564 13 c3 -6 -1 -7 -9 -4 -18 7 -21 14 -7
14 6 0 13 -4 16 -10z m-495 -36 c0 -8 -5 -12 -10 -9 -6 4 -8 11 -5 16 9 14 15
11 15 -7z m500 -24 c0 -29 -4 -40 -15 -40 -18 0 -21 50 -2 51 10 0 10 2 0 6
-18 7 -16 23 2 23 11 0 15 -11 15 -40z m-1955 -20 c-5 -8 -11 -6 -20 7 -17 23
-7 39 12 20 9 -8 12 -20 8 -27z m1582 -19 c3 -24 2 -41 -4 -41 -11 0 -23 46
-23 83 0 36 21 3 27 -42z m330 17 c-3 -7 -5 -2 -5 12 0 14 2 19 5 13 2 -7 2
-19 0 -25z m-482 2 c-3 -5 -10 -10 -16 -10 -5 0 -9 5 -9 10 0 6 7 10 16 10 8
0 12 -4 9 -10z m-1395 -14 c0 -3 -4 -8 -10 -11 -5 -3 -10 -1 -10 4 0 6 5 11
10 11 6 0 10 -2 10 -4z m1410 -27 c0 -20 -4 -28 -12 -23 -6 4 -8 3 -5 -4 10
-14 -3 -43 -15 -36 -9 6 -3 68 8 86 11 18 24 6 24 -23z m100 9 c0 -12 -3 -18
-7 -14 -11 10 -12 36 -2 36 5 0 9 -10 9 -22z m99 -41 c1 -5 -3 -5 -9 -2 -5 3
-10 16 -9 28 0 21 1 21 9 2 5 -11 9 -24 9 -28z m-129 -12 c0 -5 -5 -3 -10 5
-5 8 -10 20 -10 25 0 6 5 3 10 -5 5 -8 10 -19 10 -25z m-640 -2 c0 -42 -12
-61 -41 -65 -38 -6 -38 14 -1 52 31 34 42 37 42 13z m613 -23 c3 -11 3 -20 1
-20 -2 0 -8 9 -14 20 -6 11 -7 20 -2 20 6 0 12 -9 15 -20z m-35 -27 c1 -16 6
-89 12 -163 5 -74 10 -143 10 -152 0 -17 -29 -34 -89 -53 -20 -6 -22 -5 -13
11 7 13 6 24 -5 41 -8 13 -11 23 -7 23 5 0 15 10 23 21 11 19 11 21 -3 16 -9
-4 -16 -3 -16 2 0 17 39 19 42 2 3 -11 6 -12 11 -4 4 7 -2 21 -15 33 -20 18
-21 23 -9 43 8 12 13 44 12 75 -1 31 2 51 8 48 5 -3 7 3 4 14 -4 14 0 20 11
20 13 0 15 4 6 19 -7 14 -6 21 3 24 6 3 12 6 12 6 1 1 2 -11 3 -26z m112 -15
c0 -18 -2 -20 -9 -8 -6 8 -7 18 -5 22 9 14 14 9 14 -14z m377 6 c-3 -3 -12 -4
-19 -1 -8 3 -5 6 6 6 11 1 17 -2 13 -5z m3 -24 c0 -5 -7 -10 -15 -10 -8 0 -15
5 -15 10 0 6 7 10 15 10 8 0 15 -4 15 -10z m-340 -52 c0 -28 -3 -39 -10 -32
-9 9 -3 74 6 74 2 0 4 -19 4 -42z m-55 -10 c5 -21 3 -33 -6 -39 -18 -11 -29
-11 -29 0 0 5 -3 22 -6 38 -5 24 -2 29 15 30 14 1 21 -6 26 -29z m-755 -58 c5
0 7 8 3 18 -6 15 -3 14 17 -3 l23 -20 -14 23 c-8 12 -17 22 -21 22 -5 0 -8 4
-8 8 0 4 11 8 24 8 14 0 23 -3 20 -7 -2 -4 0 -9 5 -11 5 -2 5 -13 0 -25 -11
-30 -74 -33 -84 -4 -7 23 -3 44 10 53 6 5 11 -6 13 -27 2 -19 7 -35 12 -35z
m1504 49 c-3 -5 0 -9 6 -9 6 0 8 -5 4 -11 -4 -8 -9 -8 -17 0 -16 16 -17 40 -1
34 8 -3 11 -9 8 -14z m-677 -21 c-3 -7 -5 -2 -5 12 0 14 2 19 5 13 2 -7 2 -19
0 -25z m654 -15 c13 -16 12 -17 -3 -4 -17 13 -22 21 -14 21 2 0 10 -8 17 -17z
m-541 -38 c-6 -16 -6 -25 0 -25 6 0 10 -4 10 -10 0 -5 -9 -10 -20 -10 -15 0
-19 6 -18 28 2 35 6 42 23 42 11 0 12 -6 5 -25z m117 -17 c-3 -8 -6 -5 -6 6
-1 11 2 17 5 13 3 -3 4 -12 1 -19z m29 -15 c-11 -11 -19 6 -11 24 8 17 8 17
12 0 3 -10 2 -21 -1 -24z m105 14 c-10 -9 -11 -8 -5 6 3 10 9 15 12 12 3 -3 0
-11 -7 -18z m220 -4 c-12 -20 -14 -14 -5 12 4 9 9 14 11 11 3 -2 0 -13 -6 -23z
m29 6 c0 -11 -4 -18 -10 -14 -5 3 -7 12 -3 20 7 21 13 19 13 -6z m48 -14 c-1
-27 -6 -35 -20 -35 -20 0 -25 20 -5 21 10 0 10 2 0 6 -21 8 -15 43 7 43 16 0
19 -6 18 -35z m-358 5 c0 -11 -7 -20 -15 -20 -8 0 -15 9 -15 20 0 11 7 20 15
20 8 0 15 -9 15 -20z m237 -27 c-3 -10 -5 -2 -5 17 0 19 2 27 5 18 2 -10 2
-26 0 -35z m-577 30 c0 -10 -32 -43 -42 -43 -13 0 -9 38 5 43 18 8 37 8 37 0z
m525 -12 c3 -5 1 -12 -5 -16 -5 -3 -10 1 -10 9 0 18 6 21 15 7z m-87 -44 c-18
-15 -19 -20 -8 -27 8 -5 11 -12 6 -17 -4 -4 -12 0 -17 10 -6 9 -15 15 -21 11
-10 -7 7 31 24 53 8 10 13 10 23 0 12 -10 11 -15 -7 -30z m-1161 -19 c3 -7 -8
-2 -25 10 -17 13 -35 28 -39 34 -3 7 8 2 25 -10 17 -13 35 -28 39 -34z m1373
42 c0 -5 -4 -10 -10 -10 -5 0 -10 5 -10 10 0 6 5 10 10 10 6 0 10 -4 10 -10z
m-888 -27 c-3 -16 -7 -22 -10 -15 -4 13 4 42 11 42 2 0 2 -12 -1 -27z m578 17
c0 -12 -17 -12 -45 0 -17 7 -15 9 13 9 17 1 32 -3 32 -9z m140 -19 c0 -12 -20
-25 -27 -18 -7 7 6 27 18 27 5 0 9 -4 9 -9z m170 5 c0 -3 -4 -8 -10 -11 -5 -3
-10 -1 -10 4 0 6 5 11 10 11 6 0 10 -2 10 -4z m37 -12 c-3 -3 -12 -4 -19 -1
-8 3 -5 6 6 6 11 1 17 -2 13 -5z m-1547 -19 c14 -17 9 -70 -12 -111 -15 -32
-38 -44 -33 -17 2 10 4 18 5 18 3 0 9 69 10 98 0 30 11 35 30 12z m1350 -10
c-7 -9 -15 -13 -17 -11 -7 7 7 26 19 26 6 0 6 -6 -2 -15z m-76 -11 c3 -8 2
-12 -4 -9 -6 3 -10 10 -10 16 0 14 7 11 14 -7z m-264 -20 c0 -7 -8 -10 -20 -7
-11 3 -20 9 -20 14 0 4 9 7 20 6 11 -1 20 -7 20 -13z m533 9 c-7 -2 -19 -2
-25 0 -7 3 -2 5 12 5 14 0 19 -2 13 -5z m-736 -35 c-3 -7 -5 -2 -5 12 0 14 2
19 5 13 2 -7 2 -19 0 -25z m577 26 c23 -9 20 -23 -4 -17 -11 3 -20 9 -20 14 0
11 3 11 24 3z m-277 -26 c-3 -8 -6 -5 -6 6 -1 11 2 17 5 13 3 -3 4 -12 1 -19z
m360 -40 c-2 -13 -4 -3 -4 22 0 25 2 35 4 23 2 -13 2 -33 0 -45z m42 40 c1 17
6 22 19 20 9 -2 16 -7 15 -11 -2 -4 -3 -20 -3 -37 0 -26 -3 -29 -30 -27 -26 2
-30 6 -30 33 0 39 13 53 21 22 l7 -23 1 23z m-509 -8 c0 -13 -7 -20 -19 -20
-14 0 -18 5 -14 20 3 11 12 20 19 20 8 0 14 -9 14 -20z m170 10 c0 -5 -4 -10
-10 -10 -5 0 -10 5 -10 10 0 6 5 10 10 10 6 0 10 -4 10 -10z m-140 -21 c0 -11
-4 -18 -10 -14 -5 3 -7 12 -3 20 7 21 13 19 13 -6z m368 -9 c2 -24 2 -24 -13
-6 -8 11 -15 14 -15 7 0 -7 -4 -10 -10 -6 -15 9 1 36 19 33 9 -2 17 -14 19
-28z m-258 -10 c0 -11 -4 -20 -10 -20 -5 0 -10 9 -10 20 0 11 5 20 10 20 6 0
10 -9 10 -20z m44 -6 c3 -9 -1 -14 -14 -14 -13 0 -20 7 -20 20 0 22 25 18 34
-6z m-501 -1 c-7 -2 -19 -2 -25 0 -7 3 -2 5 12 5 14 0 19 -2 13 -5z m844 -59
c-3 -3 -12 -4 -19 -1 -8 3 -5 6 6 6 11 1 17 -2 13 -5z m0 -20 c-3 -3 -12 -4
-19 -1 -8 3 -5 6 6 6 11 1 17 -2 13 -5z m-40 -81 c-3 -10 -5 -4 -5 12 0 17 2
24 5 18 2 -7 2 -21 0 -30z m43 12 c0 -15 -6 -25 -15 -25 -10 0 -14 9 -13 25 1
14 8 25 15 25 7 0 13 -11 13 -25z m-130 5 c0 -5 -4 -10 -10 -10 -5 0 -10 5
-10 10 0 6 5 10 10 10 6 0 10 -4 10 -10z m-1145 -15 c6 -5 21 -27 34 -48 12
-20 26 -35 31 -32 4 3 11 -2 14 -11 4 -10 2 -13 -7 -8 -6 4 -2 -4 10 -17 29
-32 43 -72 36 -99 -5 -17 -3 -21 7 -15 10 6 11 2 6 -19 -3 -14 -2 -26 2 -26
15 0 42 -113 42 -176 l0 -59 -18 30 c-26 43 -45 56 -88 61 -38 5 -64 -13 -41
-28 9 -6 9 -8 -1 -8 -8 0 -10 -5 -6 -12 6 -9 3 -9 -9 1 -15 12 -16 11 -6 -19
7 -17 18 -34 25 -37 8 -3 12 -8 9 -12 -2 -4 15 -9 38 -10 71 -5 86 -7 93 -14
7 -6 1 -8 -34 -11 -7 -1 -22 -12 -32 -26 -17 -22 -21 -24 -41 -12 -18 12 -23
12 -30 0 -7 -10 -9 -8 -9 6 0 13 -5 17 -20 13 -11 -3 -20 -1 -20 4 0 5 -7 9
-15 9 -8 0 -15 5 -15 11 0 6 -13 1 -29 -10 l-30 -21 -6 21 c-8 24 -5 28 25 34
37 7 43 20 41 83 -1 32 2 69 7 83 6 14 6 34 1 48 -11 28 17 69 35 51 13 -13
26 -13 26 0 0 5 -16 16 -35 24 -19 8 -35 21 -35 29 0 8 -8 14 -17 13 -10 0
-18 6 -18 14 0 11 17 17 59 22 62 8 77 15 60 26 -6 4 -16 17 -23 30 -9 17 -9
22 1 23 10 0 10 2 0 6 -6 2 -10 9 -6 14 6 10 -12 13 -73 9 -36 -1 -43 1 -44
17 0 10 -2 26 -4 36 -2 10 3 17 11 17 9 0 12 -4 9 -10 -10 -16 11 -12 25 5 13
16 49 16 65 0z m1008 -29 c11 12 96 -67 106 -99 5 -18 11 -76 14 -129 4 -89 3
-96 -13 -88 -9 5 -22 16 -29 24 -7 8 -36 22 -64 32 -64 20 -72 27 -58 51 7 15
6 25 -5 41 -12 17 -12 26 -4 42 8 16 8 25 0 35 -8 10 -8 19 -1 34 6 11 11 22
11 24 0 10 -40 15 -46 6 -3 -5 -14 -4 -27 2 l-21 12 22 8 c12 5 22 13 22 18 0
18 45 17 66 -1 11 -10 23 -15 27 -12z m-2176 -33 c-10 -3 -14 -9 -10 -16 4 -7
-1 -6 -10 2 -23 18 -22 21 11 20 17 -1 20 -3 9 -6z m1969 -55 c4 -7 3 -8 -4
-4 -7 4 -12 2 -12 -3 0 -6 -4 -11 -10 -11 -5 0 -7 7 -4 15 7 18 20 19 30 3z
m484 -21 c0 -2 -11 -17 -25 -33 -27 -32 -31 -29 -13 11 6 14 17 25 25 25 7 0
13 -2 13 -3z m-2537 -22 c4 -8 2 -17 -3 -20 -6 -4 -10 3 -10 14 0 25 6 27 13
6z m1108 -49 c15 9 10 -23 -6 -36 -17 -14 -20 -41 -5 -56 6 -6 13 -22 15 -36
4 -21 0 -27 -22 -33 l-28 -7 25 -18 c14 -10 21 -22 17 -26 -4 -4 -7 -2 -7 4 0
13 -69 34 -83 25 -5 -3 -7 3 -5 13 2 11 12 19 23 19 17 0 20 6 19 40 -1 22 -4
55 -8 74 -6 31 -5 33 14 28 14 -4 23 0 27 11 4 10 8 12 11 4 2 -7 8 -10 13 -6z
m1343 -71 c-16 -25 -42 -36 -28 -12 14 23 27 37 35 37 5 0 2 -11 -7 -25z m-84
-76 c34 -23 69 -96 77 -158 3 -28 9 -49 12 -46 17 10 32 -16 36 -66 2 -30 2
-45 -1 -34 -15 51 -21 28 -17 -59 3 -66 1 -96 -7 -96 -6 0 -24 -10 -40 -21
-27 -21 -33 -21 -107 -10 -136 22 -148 28 -93 52 23 11 28 18 24 35 -3 12 0
33 8 46 7 12 13 43 14 68 1 25 2 50 3 56 1 7 12 9 29 6 24 -5 25 -3 14 11 -8
9 -20 13 -28 10 -10 -4 -14 3 -14 26 0 17 3 31 8 32 17 2 45 8 59 13 13 5 11
11 -11 33 -14 14 -26 30 -26 34 0 5 -7 9 -15 9 -9 0 -19 8 -22 18 -4 9 -11 20
-17 24 -11 7 12 41 23 34 4 -3 13 -1 21 4 15 9 35 4 70 -21z m-2256 -134 c-21
-16 -36 -15 -42 3 -5 15 40 33 52 21 6 -6 2 -15 -10 -24z m986 11 c0 -24 -17
-28 -23 -6 -3 13 0 20 9 20 8 0 14 -6 14 -14z m1165 -36 c-3 -5 -11 -10 -16
-10 -6 0 -7 5 -4 10 3 6 11 10 16 10 6 0 7 -4 4 -10z m-460 -50 c0 -26 -5 -45
-12 -47 -9 -3 -13 10 -13 47 0 37 4 50 13 48 7 -3 12 -22 12 -48z m-1795 36
c0 -11 -19 -15 -25 -6 -3 5 1 10 9 10 9 0 16 -2 16 -4z m1100 -42 c0 -8 -4
-12 -10 -9 -5 3 -10 10 -10 16 0 5 5 9 10 9 6 0 10 -7 10 -16z m615 -23 c3 -5
2 -12 -3 -15 -5 -3 -9 1 -9 9 0 17 3 19 12 6z m-178 -33 c-3 -8 -6 -5 -6 6 -1
11 2 17 5 13 3 -3 4 -12 1 -19z m-1547 2 c0 -5 -7 -10 -16 -10 -8 0 -12 5 -9
10 3 6 10 10 16 10 5 0 9 -4 9 -10z m-10 -55 c-9 -11 -16 -13 -23 -6 -7 7 -6
15 3 26 9 11 16 13 23 6 7 -7 6 -15 -3 -26z m484 28 c4 -5 12 -8 18 -8 6 0 12
-9 14 -20 2 -11 8 -51 13 -88 5 -38 12 -71 15 -74 2 -3 8 17 11 44 6 41 12 78
14 92 2 7 39 -45 79 -113 36 -60 42 -78 42 -127 0 -79 -9 -84 -133 -82 -133 2
-132 1 -131 151 1 77 7 137 18 175 16 55 24 65 40 50z m1073 -55 c-3 -8 -6 -5
-6 6 -1 11 2 17 5 13 3 -3 4 -12 1 -19z m623 -3 c0 -8 -2 -15 -4 -15 -2 0 -6
7 -10 15 -3 8 -1 15 4 15 6 0 10 -7 10 -15z m-614 -157 l-1 -143 -55 3 c-30 1
-80 2 -110 3 -30 0 -49 3 -41 6 7 3 21 13 30 22 9 9 32 29 51 45 19 15 28 25
20 21 -8 -3 -6 1 4 9 11 9 23 16 27 16 4 0 5 8 2 18 -2 11 7 29 23 45 15 15
24 30 21 33 -6 6 19 64 27 64 2 0 3 -64 2 -142z m-799 -114 c3 -7 9 -12 13 -9
5 3 12 0 16 -7 4 -7 4 -10 -1 -6 -4 4 -17 3 -27 -3 -23 -13 -33 -5 -42 34 -6
26 -5 27 14 17 12 -6 24 -18 27 -26z m-27 -225 c0 -5 -4 -9 -8 -9 -5 0 -9 7
-9 15 0 8 4 12 9 9 4 -3 8 -9 8 -15z"/>
<path d="M11773 5458 c-9 -16 -16 -54 -7 -46 3 3 6 12 8 20 1 7 5 19 9 26 5 6
6 12 3 12 -3 0 -8 -6 -13 -12z"/>
<path d="M12722 3892 c-16 -2 -30 -18 -45 -49 -21 -44 -21 -45 -3 -58 18 -14
113 -19 149 -9 9 3 17 12 17 20 0 12 -8 13 -35 8 -37 -7 -50 10 -15 19 11 3
20 14 20 24 0 23 -54 51 -88 45z"/>
<path d="M11760 3589 c0 -5 5 -7 10 -4 6 3 10 8 10 11 0 2 -4 4 -10 4 -5 0
-10 -5 -10 -11z"/>
<path d="M11943 5613 c-4 -10 -1 -19 6 -21 8 -3 9 -7 4 -11 -6 -3 -13 -23 -16
-43 -5 -35 -4 -38 17 -38 15 0 26 7 29 20 3 11 1 20 -4 20 -5 0 -9 20 -9 45 0
45 -15 60 -27 28z"/>
<path d="M11776 5573 c-6 -14 -5 -15 5 -6 7 7 10 15 7 18 -3 3 -9 -2 -12 -12z"/>
<path d="M11690 5546 c5 -5 10 -21 10 -34 0 -27 23 -25 28 3 3 10 0 15 -7 11
-9 -6 -15 5 -13 25 1 3 -6 6 -14 6 -10 0 -11 -4 -4 -11z"/>
<path d="M11752 5530 c0 -14 2 -19 5 -12 2 6 2 18 0 25 -3 6 -5 1 -5 -13z"/>
<path d="M11911 5514 c0 -11 3 -14 6 -6 3 7 2 16 -1 19 -3 4 -6 -2 -5 -13z"/>
<path d="M13445 5790 c-3 -5 -1 -10 4 -10 6 0 11 5 11 10 0 6 -2 10 -4 10 -3
0 -8 -4 -11 -10z"/>
<path d="M13328 5537 l-28 -11 0 -224 0 -225 37 6 c25 4 49 18 70 41 l33 35 0
110 c0 60 -4 112 -9 115 -5 3 -11 23 -14 43 -18 123 -27 135 -89 110z"/>
<path d="M18020 6450 c0 -5 5 -10 10 -10 6 0 10 5 10 10 0 6 -4 10 -10 10 -5
0 -10 -4 -10 -10z"/>
<path d="M18731 6454 c0 -11 3 -14 6 -6 3 7 2 16 -1 19 -3 4 -6 -2 -5 -13z"/>
<path d="M2250 4760 l0 -1600 1600 0 1600 0 0 1600 0 1600 -1600 0 -1600 0 0
-1600z m3160 0 l0 -1560 -1560 0 -1560 0 0 1560 0 1560 1560 0 1560 0 0 -1560z"/>
<path d="M2350 6010 c0 -160 4 -250 10 -250 6 0 10 4 10 9 0 5 11 11 24 13 19
4 30 -2 48 -26 12 -17 23 -34 24 -38 1 -5 2 -12 3 -16 0 -4 10 -8 22 -9 29 -3
66 -53 39 -53 -5 0 -10 -11 -10 -24 0 -14 -4 -27 -9 -31 -6 -3 -44 28 -85 68
l-76 73 0 -1233 0 -1233 1500 0 1500 0 0 1500 0 1500 -1500 0 -1500 0 0 -250z
m349 -405 c8 0 16 -7 19 -15 3 -12 2 -12 -8 -3 -7 6 -18 9 -25 7 -16 -7 -29
12 -19 28 5 9 9 8 13 -3 3 -8 12 -14 20 -14z m-127 -20 c1 -6 7 -15 15 -20 10
-7 12 -17 5 -34 l-8 -23 -30 27 c-20 19 -23 25 -10 21 14 -5 16 -3 9 6 -5 7
-13 21 -16 30 -5 14 -2 16 14 9 11 -4 21 -11 21 -16z m164 -29 c22 -23 17 -42
-6 -21 -19 17 -26 35 -14 35 3 0 12 -6 20 -14z m1769 -36 c3 -5 1 -10 -4 -10
-6 0 -11 5 -11 10 0 6 2 10 4 10 3 0 8 -4 11 -10z m-1941 -51 c10 -10 24 -16
29 -12 6 3 7 1 3 -5 -7 -11 30 -28 52 -23 7 1 15 -5 18 -13 3 -9 10 -13 15
-10 5 3 9 0 9 -6 0 -8 -7 -9 -17 -5 -10 4 -27 10 -38 13 -11 3 -32 13 -46 23
-14 10 -29 16 -33 14 -3 -3 -4 -2 -2 1 5 7 -42 54 -54 54 -6 0 -10 5 -10 11 0
12 40 -11 74 -42z m74 39 c7 -7 12 -18 12 -25 0 -10 -6 -10 -25 3 -14 9 -25
20 -25 25 0 13 24 11 38 -3z m144 -2 c5 3 12 -3 15 -15 3 -11 10 -18 16 -14 6
4 8 0 4 -10 -4 -10 -1 -17 6 -17 16 0 68 -56 60 -64 -10 -9 -123 105 -122 124
0 10 2 11 6 2 2 -6 9 -9 15 -6z m-27 -106 c3 -6 -1 -7 -9 -4 -18 7 -21 14 -7
14 6 0 13 -4 16 -10z m-25 -14 c6 -8 26 -20 44 -26 29 -9 50 -31 110 -109 6
-8 -7 -3 -29 11 -22 14 -66 36 -97 49 -32 13 -60 30 -62 37 -7 16 21 16 31 -1
7 -11 34 -27 53 -31 3 -1 10 -5 17 -9 6 -4 15 -3 18 3 4 6 2 9 -3 8 -12 -4
-112 61 -112 73 0 14 16 11 30 -5z m2164 -35 c3 -5 -8 -14 -25 -21 -22 -10
-29 -18 -26 -32 6 -23 -2 -28 -55 -34 -24 -3 -70 -12 -103 -21 -103 -27 -108
-27 -103 -12 3 8 13 13 22 13 9 -1 16 4 16 11 0 9 11 13 30 13 21 -1 36 6 46
21 13 17 22 21 44 16 30 -7 70 12 70 32 0 9 10 11 30 7 19 -4 30 -2 30 5 0 13
17 15 24 2z m180 -27 c4 -10 -30 -31 -60 -38 -8 -1 -15 34 -9 43 7 12 64 8 69
-5z m-87 -17 c3 -4 3 -13 0 -20 -7 -18 -60 -33 -65 -18 -2 6 -8 9 -12 6 -5 -3
-12 0 -16 6 -4 7 -3 9 2 6 13 -7 41 10 31 19 -4 4 -18 2 -32 -4 -28 -13 -33
-5 -9 13 16 11 87 6 101 -8z m-454 -10 c3 -7 -3 -31 -14 -53 -10 -21 -18 -33
-19 -25 0 8 -3 11 -6 8 -4 -4 -1 -14 7 -23 11 -14 10 -16 -11 -12 -23 3 -25 0
-26 -44 -1 -35 2 -48 12 -48 12 0 12 -4 -2 -25 -18 -28 -44 -33 -44 -10 0 8
-4 15 -9 15 -5 0 -11 6 -14 14 -4 10 0 12 14 9 11 -3 19 0 19 6 0 7 -4 10 -9
6 -14 -8 -1 68 14 80 7 6 15 20 19 33 4 12 14 22 22 22 8 0 14 5 14 11 0 5 5
7 10 4 6 -4 10 5 10 19 0 28 5 33 13 13z m-568 -27 c3 -5 1 -10 -4 -10 -6 0
-11 5 -11 10 0 6 2 10 4 10 3 0 8 -4 11 -10z m904 -16 c-6 -7 -15 -11 -21 -8
-5 3 -4 12 3 20 6 7 15 11 21 8 5 -3 4 -12 -3 -20z m-1049 -14 c0 -5 -2 -10
-4 -10 -3 0 -8 5 -11 10 -3 6 -1 10 4 10 6 0 11 -4 11 -10z m949 -16 c-6 -7
-15 -11 -21 -8 -5 3 -4 12 3 20 6 7 15 11 21 8 5 -3 4 -12 -3 -20z m-59 -34
c0 -5 -7 -10 -15 -10 -8 0 -15 5 -15 10 0 6 7 10 15 10 8 0 15 -4 15 -10z
m-1815 -10 c-3 -5 -21 -14 -40 -20 -23 -8 -32 -16 -28 -26 7 -18 -8 -18 -33 0
-18 14 -18 15 13 26 18 7 31 16 28 20 -3 4 11 8 30 8 19 0 33 -4 30 -8z m-205
-34 c0 -3 -4 -8 -10 -11 -5 -3 -10 -1 -10 4 0 6 5 11 10 11 6 0 10 -2 10 -4z
m1817 -2 c-3 -3 -12 -4 -19 -1 -8 3 -5 6 6 6 11 1 17 -2 13 -5z m-1737 -28 c0
-8 -4 -17 -9 -21 -12 -7 -24 12 -16 25 9 15 25 12 25 -4z m-50 -25 c0 -6 -4
-13 -10 -16 -5 -3 -10 1 -10 9 0 9 5 16 10 16 6 0 10 -4 10 -9z m534 -28 c4
-10 0 -14 -16 -11 -13 2 -24 11 -26 20 -4 21 34 13 42 -9z m-609 -3 c3 -5 -1
-10 -9 -10 -9 0 -16 5 -16 10 0 6 4 10 9 10 6 0 13 -4 16 -10z m-60 -20 c-3
-5 -18 -10 -33 -9 -24 0 -25 1 -7 9 28 12 47 12 40 0z m-166 -20 c15 -13 21
-26 17 -37 -5 -11 -10 -14 -14 -7 -4 6 -17 14 -29 18 -22 7 -30 26 -16 39 10
10 16 8 42 -13z m2062 -41 c-12 -19 -21 -30 -21 -26 0 12 33 67 38 63 1 -2 -6
-19 -17 -37z m-51 24 c0 -5 -5 -15 -10 -23 -8 -12 -10 -11 -10 8 0 12 5 22 10
22 6 0 10 -3 10 -7z m-476 -78 c11 -8 15 -15 10 -15 -6 0 -19 7 -30 15 -10 8
-14 14 -9 14 6 0 19 -6 29 -14z m480 -30 c-7 -16 -24 -21 -24 -6 0 8 7 13 27
20 1 1 0 -6 -3 -14z m-1214 -57 c0 -18 -2 -20 -9 -8 -6 8 -7 18 -5 22 9 14 14
9 14 -14z m-89 -132 c16 -14 25 -28 19 -31 -5 -3 -10 -1 -10 4 0 6 -10 10 -22
8 -17 -1 -24 4 -26 21 -4 28 3 28 39 -2z m61 -24 c14 6 39 -42 33 -62 -7 -21
-35 -28 -35 -9 0 5 5 7 10 4 6 -3 10 3 10 14 0 20 -24 29 -33 14 -2 -5 -2 -3
-1 4 2 6 -1 13 -6 15 -4 2 -6 17 -2 33 5 28 6 28 11 7 3 -13 9 -22 13 -20z
m621 -7 c-3 -9 -8 -14 -10 -11 -3 3 -2 9 2 15 9 16 15 13 8 -4z m-653 -50 c0
-9 -7 -18 -15 -21 -10 -4 -13 -14 -9 -30 4 -15 2 -24 -6 -24 -7 0 -10 6 -7 13
3 8 2 20 -3 27 -4 7 -1 20 9 30 20 23 31 24 31 5z m1190 -25 c0 -5 -4 -10 -10
-10 -5 0 -10 5 -10 10 0 6 5 10 10 10 6 0 10 -4 10 -10z m-1137 -45 c7 -18 -6
-27 -27 -19 -19 7 -21 20 -3 27 20 9 25 8 30 -8z m-49 -13 c3 -5 2 -19 -1 -31
l-6 -22 -12 23 c-6 13 -10 26 -8 31 5 9 21 9 27 -1z m1111 -22 c3 -5 1 -10 -4
-10 -6 0 -11 5 -11 10 0 6 2 10 4 10 3 0 8 -4 11 -10z m-21 -76 c3 -8 2 -12
-4 -9 -6 3 -10 10 -10 16 0 14 7 11 14 -7z m-1104 -10 c0 -8 -4 -12 -10 -9 -5
3 -10 10 -10 16 0 5 5 9 10 9 6 0 10 -7 10 -16z m582 -56 c-7 -7 -12 -8 -12
-2 0 6 3 14 7 17 3 4 9 5 12 2 2 -3 -1 -11 -7 -17z m-692 -42 c0 7 11 14 25
16 19 4 25 1 25 -13 0 -17 11 -24 33 -20 5 1 1 -9 -7 -21 -20 -29 -20 -39 0
-31 13 5 15 2 10 -14 -5 -16 -1 -22 19 -27 14 -4 25 -12 25 -18 0 -9 -3 -9
-12 0 -20 20 -34 14 -33 -14 2 -32 28 -50 44 -30 9 11 19 12 44 3 18 -5 38
-12 45 -13 9 -3 7 -10 -8 -26 -19 -21 -21 -21 -33 -4 -12 16 -13 16 -13 -3 0
-12 5 -21 10 -21 6 0 24 -14 42 -31 29 -28 32 -29 48 -14 9 9 19 34 22 56 4
21 10 36 15 33 4 -2 4 -16 -1 -29 -5 -13 -10 -43 -12 -65 -1 -23 -5 -43 -10
-46 -13 -8 4 -35 18 -30 8 3 14 0 15 -7 0 -9 2 -9 6 0 5 15 37 -1 65 -32 12
-14 17 -16 18 -6 0 29 49 -31 55 -68 4 -26 13 -39 32 -48 44 -21 58 -15 23 10
-19 12 -35 29 -37 37 -4 13 -3 13 6 0 9 -13 11 -12 11 3 0 15 3 16 20 7 11 -6
18 -15 15 -20 -3 -4 3 -7 12 -6 18 3 65 -56 60 -77 -1 -6 13 -18 30 -26 18 -8
35 -23 39 -33 4 -15 9 -16 19 -8 8 7 15 7 19 1 4 -5 2 -12 -4 -16 -16 -10 -2
-25 23 -25 18 0 19 -2 7 -10 -11 -7 -11 -10 -2 -10 7 0 10 -4 7 -10 -3 -5 1
-10 9 -10 9 0 16 5 16 10 0 6 7 10 16 10 8 0 12 -5 9 -11 -4 -6 1 -17 11 -25
14 -11 15 -17 7 -20 -7 -3 -13 -10 -13 -15 0 -6 6 -7 13 -4 6 4 5 1 -3 -7 -26
-23 -24 -41 5 -36 25 5 25 5 7 -11 -78 -68 -202 -82 -327 -36 -99 35 -167 84
-282 200 -88 89 -103 110 -116 156 -14 51 -70 208 -96 273 -10 26 -10 28 4 16
8 -7 19 -10 23 -6 4 4 -2 14 -12 22 -11 8 -16 14 -12 14 5 0 3 7 -4 15 -9 10
-9 15 -1 15 6 0 11 8 11 19 0 10 6 24 14 30 8 6 16 21 19 32 4 16 2 19 -13 14
-17 -5 -36 18 -31 38 0 4 -6 21 -14 37 -22 42 -18 51 5 10 11 -19 19 -30 20
-24z m149 42 c4 7 13 5 26 -5 19 -14 19 -14 -9 -11 -16 2 -31 9 -32 16 -2 8 0
8 3 1 4 -7 8 -8 12 -1z m599 -16 c6 -18 -15 -14 -22 4 -4 10 -1 14 6 12 6 -2
14 -10 16 -16z m392 8 c0 -5 -2 -10 -4 -10 -3 0 -8 5 -11 10 -3 6 -1 10 4 10
6 0 11 -4 11 -10z m50 -5 c0 -8 -4 -15 -10 -15 -5 0 -7 7 -4 15 4 8 8 15 10
15 2 0 4 -7 4 -15z m-350 -30 c13 4 20 0 25 -15 4 -11 11 -17 17 -14 6 4 9 1
6 -7 -2 -8 -14 -18 -26 -24 -29 -13 -30 -45 -2 -38 11 3 20 12 20 20 0 8 5 11
10 8 6 -4 8 -15 5 -26 -5 -14 0 -21 17 -28 13 -5 26 -7 31 -4 4 2 7 -1 7 -7 0
-7 8 -24 19 -38 10 -15 21 -36 23 -47 2 -11 10 -19 16 -17 18 3 15 -13 -8 -39
-17 -21 -19 -22 -20 -6 0 25 -20 11 -20 -15 0 -15 4 -18 17 -14 9 4 20 1 25
-6 6 -9 7 -6 3 8 -6 24 19 53 30 34 3 -5 -1 -10 -9 -10 -11 0 -14 -9 -10 -37
3 -21 2 -33 -3 -28 -11 13 -33 17 -33 6 0 -17 24 -76 33 -83 6 -3 16 -4 24 -1
11 4 12 1 2 -21 -19 -40 -69 -29 -69 16 0 26 -38 61 -58 54 -9 -3 -5 5 11 18
15 14 27 28 27 31 0 6 -37 -14 -62 -33 -9 -8 -18 -9 -22 -4 -3 6 1 13 10 16
13 5 14 9 4 21 -16 20 -41 20 -34 0 4 -9 1 -15 -7 -15 -7 0 -23 -9 -35 -21
l-22 -20 -21 22 c-15 17 -21 36 -21 71 0 28 -7 59 -16 73 -9 14 -14 31 -11 39
3 8 -1 20 -9 27 -8 6 -21 32 -28 58 -11 33 -15 39 -15 21 -1 -19 -4 -21 -10
-11 -10 16 8 53 21 45 4 -3 8 2 8 11 0 9 5 13 10 10 6 -3 10 -17 10 -29 0 -13
7 -29 15 -36 10 -8 13 -21 8 -38 -4 -17 -2 -23 6 -18 6 4 11 20 11 36 0 16 5
32 12 36 7 4 8 3 4 -4 -4 -7 -2 -12 3 -12 6 0 11 -5 11 -11 0 -5 -4 -7 -10 -4
-5 3 -10 1 -10 -4 0 -14 17 -14 25 -1 9 15 -14 51 -32 48 -11 -2 -17 6 -20 24
-2 19 0 26 9 24 7 -3 26 -7 41 -10 18 -4 25 -11 21 -19 -4 -7 -4 -9 1 -5 4 4
16 3 26 -3 28 -15 24 7 -6 36 -18 16 -22 24 -13 27 7 3 14 -1 16 -9 2 -8 11
-12 22 -8z m190 4 c0 -6 -4 -7 -10 -4 -5 3 -10 11 -10 16 0 6 5 7 10 4 6 -3
10 -11 10 -16z m130 -3 c0 -2 -7 -9 -15 -16 -13 -11 -14 -10 -9 4 5 14 24 23
24 12z m129 -41 c0 -18 -1 -17 -13 5 -8 14 -12 29 -9 33 8 12 23 -14 22 -38z
m-87 21 c6 4 8 -2 3 -16 -5 -15 -4 -20 4 -16 6 4 11 1 11 -7 0 -24 -13 -28
-27 -7 -8 11 -21 20 -29 20 -8 0 -14 5 -14 11 0 6 7 9 15 5 10 -3 15 1 16 12
0 10 3 12 6 4 2 -6 9 -9 15 -6z m-1007 -35 c3 -8 -1 -21 -8 -29 -12 -12 -17
-10 -33 11 -23 28 -49 26 -34 -4 6 -10 8 -19 6 -19 -13 0 -23 37 -16 56 8 20
12 21 44 10 20 -6 38 -17 41 -25z m99 -16 c-6 -16 -24 -21 -24 -7 0 11 11 22
21 22 5 0 6 -7 3 -15z m301 5 c3 -5 1 -10 -4 -10 -6 0 -11 5 -11 10 0 6 2 10
4 10 3 0 8 -4 11 -10z m444 -24 c-3 -3 -11 5 -18 17 -13 21 -12 21 5 5 10 -10
16 -20 13 -22z m-49 -30 c0 -14 -18 -5 -24 12 -3 9 -9 24 -12 32 -4 8 3 3 15
-12 11 -14 21 -29 21 -32z m197 -30 c4 -28 2 -46 -5 -46 -12 0 -27 31 -31 63
-1 8 -4 7 -11 -3 -7 -10 -10 -11 -10 -2 0 7 7 15 15 18 8 4 15 13 15 22 0 35
22 -8 27 -52z m-599 38 c-2 -9 -12 -23 -24 -30 -18 -12 -21 -12 -21 0 0 9 4
13 8 11 3 -3 9 4 12 15 6 24 30 27 25 4z m641 -64 c0 -20 -3 -17 -14 15 -18
50 -18 53 0 29 8 -10 14 -30 14 -44z m-919 25 c0 -14 -4 -25 -10 -25 -5 0 -10
11 -10 25 0 14 5 25 10 25 6 0 10 -11 10 -25z m377 -82 c-4 -3 -2 -12 5 -20 8
-10 8 -12 -3 -8 -10 4 -15 -2 -17 -15 -1 -11 -2 -27 -3 -35 -2 -9 -12 -15 -26
-15 -23 0 -23 0 -6 31 10 17 22 40 28 50 5 11 14 19 19 19 5 0 6 -3 3 -7z
m147 -149 c8 -21 8 -21 -9 -28 -11 -4 -14 1 -13 19 3 28 13 33 22 9z m-204
-14 c0 -5 -4 -10 -10 -10 -5 0 -10 5 -10 10 0 6 5 10 10 10 6 0 10 -4 10 -10z
m210 -40 c0 -5 -5 -10 -11 -10 -5 0 -7 5 -4 10 3 6 8 10 11 10 2 0 4 -4 4 -10z
m225 -61 c-4 -5 1 -9 9 -9 26 0 18 -24 -11 -37 -32 -15 -77 -17 -68 -3 3 5 12
7 20 4 8 -3 22 1 30 10 15 15 12 20 -8 17 -4 -1 -2 8 5 18 7 11 16 17 20 15 5
-3 6 -10 3 -15z m-94 -54 c5 4 9 2 9 -2 0 -11 -42 -38 -54 -35 -4 2 -5 -9 -2
-23 4 -14 2 -25 -3 -25 -5 0 -17 -3 -26 -6 -10 -4 -15 -2 -13 6 2 7 -4 15 -12
17 -9 3 -11 1 -5 -4 13 -10 16 -43 4 -43 -5 0 -9 9 -9 20 0 11 -5 20 -11 20
-7 0 5 12 26 26 52 35 62 47 57 64 -4 11 -1 10 12 -3 10 -9 22 -15 27 -12z
m-1 -55 c-12 -23 -16 -24 -26 -8 -4 6 -3 8 3 5 6 -4 13 0 17 8 3 8 8 15 11 15
3 0 1 -9 -5 -20z m-127 -46 c-5 -14 -63 -13 -63 1 0 6 15 11 34 11 21 0 32 -5
29 -12z"/>
<path d="M3065 4320 c3 -5 8 -10 11 -10 2 0 4 5 4 10 0 6 -5 10 -11 10 -5 0
-7 -4 -4 -10z"/>
<path d="M3170 4124 c0 -8 5 -12 10 -9 6 3 10 10 10 16 0 5 -4 9 -10 9 -5 0
-10 -7 -10 -16z"/>
<path d="M3785 4300 c-3 -5 -1 -10 4 -10 6 0 11 5 11 10 0 6 -2 10 -4 10 -3 0
-8 -4 -11 -10z"/>
<path d="M3970 4104 c0 -2 9 -8 19 -13 14 -8 20 -7 24 3 4 9 -3 14 -19 14 -13
0 -24 -2 -24 -4z"/>
<path d="M6070 4760 l0 -1600 1600 0 1600 0 0 1600 0 1600 -1600 0 -1600 0 0
-1600z m3160 0 l0 -1560 -1560 0 -1560 0 0 1560 0 1560 1560 0 1560 0 0 -1560z"/>
<path d="M6170 6241 c0 -12 3 -13 8 -4 9 14 52 6 52 -9 0 -6 -7 -8 -15 -4 -30
11 -45 -5 -45 -50 0 -24 3 -43 8 -43 18 3 32 -2 32 -12 0 -6 -9 -9 -20 -6 -18
5 -20 0 -20 -45 0 -30 4 -47 10 -43 6 3 10 -3 10 -14 0 -12 -4 -21 -10 -21 -7
0 -10 -170 -10 -491 l0 -490 31 21 c34 25 35 25 44 -12 6 -25 3 -29 -34 -44
l-41 -16 0 -849 0 -849 1500 0 1500 0 -1 945 c0 520 -4 943 -8 941 -13 -8 -29
9 -34 34 -2 14 -2 20 0 15 2 -6 12 -16 23 -23 18 -11 19 -7 19 103 0 82 -3
115 -11 115 -9 0 -9 3 0 12 16 16 15 45 0 52 -10 5 -10 7 0 12 8 4 12 31 12
81 0 60 -4 79 -17 89 -17 13 -17 15 0 28 19 14 23 36 7 36 -5 0 -10 7 -10 15
0 8 5 15 10 15 6 0 10 95 10 265 l0 264 -360 1 -360 0 -1 -27 c0 -29 -6 -92
-14 -151 -2 -18 0 -30 4 -27 14 8 19 -43 10 -86 -5 -22 -7 -44 -4 -49 11 -17
-27 -225 -43 -237 -13 -11 -13 -13 1 -19 9 -3 14 -10 11 -16 -3 -5 -14 1 -25
13 -13 15 -23 19 -30 12 -13 -13 0 -46 16 -39 21 7 25 -4 11 -28 -13 -21 -14
-115 -1 -136 3 -5 -5 -38 -18 -72 -13 -35 -30 -82 -36 -106 -7 -24 -19 -46
-27 -49 -8 -3 -14 -15 -14 -27 0 -11 -7 -30 -15 -40 -8 -11 -15 -26 -15 -33 0
-21 28 -27 45 -9 9 9 11 16 5 16 -7 0 -6 5 2 14 7 7 19 11 26 8 10 -3 11 2 7
21 -4 14 -2 34 4 44 8 14 11 15 12 3 0 -8 3 -26 5 -40 3 -14 9 -72 13 -130 4
-58 8 -88 9 -68 2 35 16 57 29 44 3 -3 7 -38 9 -78 1 -40 9 -95 18 -123 9 -27
16 -66 16 -85 0 -23 9 -45 26 -65 14 -16 22 -24 18 -16 -7 15 -11 51 -19 176
-2 44 -12 138 -21 208 -15 124 -15 129 3 142 17 14 17 14 0 15 -10 0 -15 5
-12 10 3 6 2 10 -3 10 -18 0 -21 54 -4 73 16 18 16 20 -1 32 -19 14 -23 40 -7
50 6 3 12 0 14 -7 2 -7 14 -47 27 -88 12 -41 25 -79 30 -84 4 -5 5 -15 2 -23
-3 -8 -1 -18 4 -22 13 -8 34 -71 27 -82 -3 -5 2 -16 10 -25 14 -14 22 -56 16
-93 -1 -8 3 -17 9 -21 6 -3 13 -30 15 -58 3 -29 8 -57 11 -62 3 -6 -1 -47 -10
-91 -17 -84 -16 -95 9 -86 11 5 14 15 10 35 -4 19 -1 32 10 41 9 7 13 17 10
23 -3 5 1 19 9 32 10 15 13 36 10 61 -3 25 -1 40 9 46 11 8 11 10 -1 18 -18
12 -6 47 19 54 25 7 26 27 1 34 -16 4 -19 17 -23 106 -3 81 -1 104 10 113 13
9 12 14 -3 38 -19 28 -24 131 -10 194 l6 31 90 0 c49 -1 87 -5 84 -9 -3 -5 -1
-10 5 -12 14 -4 0 -48 -15 -48 -19 0 -26 -27 -9 -40 19 -16 18 -50 -1 -50 -8
0 -15 -5 -15 -11 0 -5 5 -7 11 -3 18 11 -1 -38 -22 -59 -13 -12 -17 -26 -13
-46 4 -16 1 -32 -5 -35 -6 -4 -11 -20 -11 -35 0 -15 -5 -32 -11 -38 -15 -15
-29 -85 -20 -98 11 -14 21 -55 12 -52 -3 1 -6 -2 -6 -8 0 -5 3 -9 6 -8 13 4
-4 -42 -18 -50 -15 -9 -18 -47 -3 -47 5 0 13 6 17 13 8 14 43 31 43 21 0 -3
-7 -19 -16 -35 -8 -17 -19 -49 -22 -72 -4 -23 -13 -42 -19 -42 -17 0 -35 -21
-38 -42 -5 -47 -42 -104 -84 -128 -10 -6 -12 -4 -6 5 5 8 3 11 -4 9 -7 -3 -12
-9 -11 -14 0 -6 -14 -12 -32 -15 -19 -3 -32 -11 -30 -18 1 -8 -5 -12 -15 -10
-13 2 -17 -3 -15 -17 2 -17 -2 -15 -22 9 -22 26 -28 28 -66 22 -36 -6 -45 -4
-57 14 -17 24 -39 26 -47 4 -8 -20 -9 -18 29 -32 29 -10 29 -10 5 -12 -24 -1
-25 -1 -5 -16 18 -13 21 -13 32 2 10 14 17 14 47 4 49 -16 50 -22 10 -48 -20
-13 -33 -17 -32 -10 2 8 -5 12 -17 10 -11 -2 -22 -4 -25 -5 -3 0 -18 6 -33 13
-27 13 -28 17 -25 74 2 46 6 60 17 58 8 -2 21 0 29 3 12 4 12 8 1 22 -13 16
-11 16 15 -1 21 -13 31 -15 40 -6 8 8 7 10 -7 4 -13 -5 -16 -2 -11 10 5 13 9
14 20 5 8 -6 14 -9 14 -5 0 4 14 -1 32 -10 23 -12 33 -13 36 -5 2 7 15 17 29
22 25 9 27 34 2 34 -17 0 -79 113 -72 132 3 7 1 13 -5 13 -14 0 -54 123 -46
143 3 9 -1 23 -9 31 -20 20 -31 100 -18 125 14 25 14 44 1 36 -5 -3 -10 -15
-10 -26 0 -10 -6 -19 -13 -19 -9 0 -12 -18 -9 -72 2 -40 8 -77 13 -83 5 -5 9
-15 9 -23 0 -7 12 -43 26 -78 19 -48 23 -68 15 -78 -6 -7 -8 -17 -3 -22 4 -5
-8 4 -26 20 -17 17 -32 36 -32 43 0 7 -4 13 -8 13 -5 0 -8 12 -7 28 1 15 0 19
-2 9 -3 -12 -10 -16 -20 -13 -8 3 -18 6 -21 6 -4 0 0 5 8 10 12 7 12 12 2 22
-6 6 -12 25 -12 41 0 16 -10 43 -22 60 -13 18 -21 32 -19 32 2 0 -1 16 -7 35
-5 19 -13 51 -16 72 -11 63 -43 57 -37 -7 1 -15 -1 -17 -10 -8 -15 15 -53 -2
-43 -19 5 -7 11 -6 19 6 11 14 14 14 24 2 7 -8 11 -20 10 -28 -1 -7 19 -57 45
-111 26 -54 46 -100 44 -102 -2 -2 -21 12 -42 31 -21 19 -33 34 -26 34 6 0 10
6 8 13 -3 6 -11 12 -19 12 -8 0 -27 16 -44 35 -16 19 -36 41 -42 48 -7 7 -13
23 -13 36 0 26 -17 46 -34 40 -6 -2 -17 9 -24 26 -8 17 -17 28 -22 25 -4 -3
-10 2 -14 10 -7 20 -25 19 -50 -2 -12 -10 -18 -14 -14 -9 4 5 1 15 -7 22 -10
10 -11 22 -5 44 5 16 6 38 3 50 -4 14 -1 20 11 20 24 0 32 29 12 43 -16 12
-16 18 5 92 12 44 24 90 27 103 2 12 13 27 24 33 14 8 18 17 14 32 -7 26 32
147 53 163 8 6 11 16 7 22 -11 18 43 140 66 148 16 5 19 12 14 36 -3 17 -2 36
2 42 5 6 17 34 27 61 10 28 24 54 32 58 7 5 11 12 8 17 -3 5 -2 17 3 27 6 10
16 32 23 48 8 17 23 38 34 47 19 17 18 17 -37 18 -53 0 -58 -2 -64 -24 -6 -27
-26 -39 -48 -30 -8 3 -17 1 -21 -5 -3 -6 -13 -11 -21 -11 -9 0 -22 -7 -30 -15
-19 -19 -38 -19 -57 0 -8 8 -17 11 -21 8 -3 -4 -6 4 -6 17 l0 23 -23 -26 c-12
-15 -31 -27 -41 -27 -10 0 -31 -13 -47 -29 -24 -26 -28 -27 -32 -11 -3 10 1
30 8 44 11 21 11 27 -1 37 -8 6 -14 20 -14 30 0 18 -9 19 -129 19 l-129 0 -4
-54 c-3 -53 -2 -55 26 -60 15 -3 32 -3 37 0 5 3 22 -3 39 -13 23 -13 32 -15
42 -5 7 7 21 12 32 12 19 0 19 -1 -2 -20 -12 -11 -32 -20 -46 -20 -29 0 -44
-18 -22 -26 9 -3 13 -10 10 -16 -3 -5 -12 -7 -20 -4 -8 3 -14 -1 -14 -9 0 -8
-12 -17 -27 -21 -53 -11 -60 -15 -39 -23 13 -5 16 -10 9 -14 -7 -4 -14 -3 -18
2 -8 14 -128 6 -133 -8 -2 -6 -8 -8 -14 -5 -7 4 -9 -6 -6 -29 3 -29 1 -34 -9
-25 -7 6 -13 8 -13 5 0 -3 -13 -2 -30 3 -22 6 -30 5 -30 -4 0 -8 -7 -19 -15
-26 -11 -9 -15 -9 -15 -1 0 8 -15 10 -49 5 l-48 -6 -6 36 c-6 39 -38 79 -179
227 -43 45 -78 86 -78 90 0 5 -4 9 -10 9 -5 0 -10 -5 -10 -11 0 -8 -4 -8 -13
0 -8 6 -30 10 -50 9 -33 -1 -35 -3 -25 -22 6 -12 25 -40 41 -63 17 -24 27 -46
24 -49 -4 -4 -11 4 -16 17 -7 18 -10 20 -10 6 -1 -14 -5 -16 -18 -9 -20 10
-46 5 -39 -7 3 -4 -2 -8 -10 -8 -28 0 -64 55 -64 98 0 28 -4 39 -15 39 -9 0
-15 -9 -15 -25 0 -23 -2 -24 -20 -15 -17 9 -20 8 -21 -12 0 -18 -3 -15 -16 15
-15 37 -37 48 -46 25 -4 -10 -6 -10 -6 0 -1 6 -8 12 -16 12 -13 0 -21 -25 -16
-53 1 -4 -26 6 -59 23 -74 37 -115 39 -142 5 -23 -30 -98 -69 -98 -52 1 7 7
23 14 36 9 17 15 20 21 11 6 -9 9 -9 16 1 16 26 9 29 -66 27 -61 -1 -75 -5
-75 -17z m318 -51 c-12 -19 -18 -21 -50 -24 -7 -1 -16 -8 -21 -16 -4 -8 -5 3
-2 25 3 22 5 48 6 57 0 16 3 16 40 -2 35 -18 38 -22 27 -40z m387 46 c14 -8
34 -22 44 -33 16 -17 16 -19 0 -36 -17 -18 -18 -18 -28 1 -6 12 -11 29 -12 39
0 11 -3 13 -6 5 -4 -10 -8 -9 -19 5 -25 34 -19 40 21 19z m2051 -23 c-10 -10
-19 5 -10 18 6 11 8 11 12 0 2 -7 1 -15 -2 -18z m81 -5 c-3 -8 -6 -5 -6 6 -1
11 2 17 5 13 3 -3 4 -12 1 -19z m29 -5 c-10 -10 -19 5 -10 18 6 11 8 11 12 0
2 -7 1 -15 -2 -18z m-2809 -15 c-3 -8 -6 -5 -6 6 -1 11 2 17 5 13 3 -3 4 -12
1 -19z m2898 12 c3 -5 1 -10 -4 -10 -6 0 -11 5 -11 10 0 6 2 10 4 10 3 0 8 -4
11 -10z m-2747 -25 c-6 -14 -16 -24 -22 -22 -11 5 -36 -17 -36 -30 0 -5 -22
-8 -48 -8 -42 0 -48 2 -44 18 3 10 8 14 11 9 9 -15 54 -9 73 11 10 9 24 17 32
17 8 0 16 7 20 15 3 8 10 15 15 15 7 0 6 -9 -1 -25z m176 -8 c0 -9 -1 -30 -2
-47 -3 -51 -22 -33 -22 21 0 36 4 49 13 47 6 -3 12 -12 11 -21z m578 -189 c-5
-19 -5 -20 -15 -2 -21 38 -79 103 -98 109 -11 4 -16 11 -13 17 5 7 1 9 -9 5
-11 -4 -17 -1 -17 9 0 8 5 12 10 9 6 -3 10 -2 10 3 0 15 -30 23 -31 9 0 -7 -4
-3 -9 8 -23 54 -1 41 84 -48 71 -75 92 -104 88 -119z m1898 187 c0 -6 -7 -12
-15 -12 -8 0 -15 6 -15 12 0 6 7 12 15 12 8 0 15 -6 15 -12z m-2822 -14 c3 -8
-1 -12 -9 -9 -7 2 -15 10 -17 17 -3 8 1 12 9 9 7 -2 15 -10 17 -17z m735 -1
c3 -12 0 -20 -8 -20 -8 0 -11 8 -8 20 3 11 7 20 8 20 1 0 5 -9 8 -20z m2127
10 c0 -5 -4 -10 -10 -10 -5 0 -10 5 -10 10 0 6 5 10 10 10 6 0 10 -4 10 -10z
m51 -3 c-1 -12 -15 -9 -19 4 -3 6 1 10 8 8 6 -3 11 -8 11 -12z m-91 -32 c0 -8
-8 -15 -18 -15 -10 0 -19 7 -19 15 0 8 9 15 19 15 10 0 18 -7 18 -15z m43 -11
c-6 -17 -23 -9 -23 11 0 8 6 12 14 9 8 -3 12 -12 9 -20z m47 1 c0 -8 -4 -15
-9 -15 -5 0 -11 7 -15 15 -3 9 0 15 9 15 8 0 15 -7 15 -15z m-2077 -63 c9 -8
17 -19 17 -25 0 -5 11 -18 25 -28 20 -17 23 -24 15 -44 -12 -33 3 -32 29 1 18
23 20 24 29 7 17 -32 19 -93 2 -93 -5 0 -7 7 -4 15 9 21 -2 19 -26 -7 -22 -23
-50 -30 -61 -14 -13 17 -41 -3 -34 -24 4 -11 2 -20 -4 -20 -6 0 -8 -7 -4 -16
4 -10 0 -20 -10 -26 -18 -9 -24 -48 -8 -48 17 0 -1 -38 -20 -43 -11 -3 -19
-14 -19 -26 0 -12 -3 -21 -7 -21 -27 0 -35 -89 -9 -91 6 0 1 -4 -11 -9 -15 -6
-20 -15 -16 -29 3 -12 11 -21 17 -21 15 0 15 -38 0 -44 -8 -3 -10 3 -6 17 5
19 4 19 -11 6 -15 -13 -15 -15 2 -29 15 -13 16 -18 4 -29 -8 -7 -12 -19 -9
-27 3 -8 -1 -14 -9 -14 -8 0 -15 -5 -15 -11 0 -5 -4 -7 -10 -4 -5 3 -10 4 -10
1 0 -2 -3 -12 -7 -22 -5 -14 -2 -16 15 -12 12 4 22 2 22 -3 0 -5 -11 -9 -25
-9 -14 0 -25 5 -25 10 0 6 -5 10 -10 10 -6 0 -8 -10 -4 -24 4 -18 -1 -30 -22
-49 -20 -19 -25 -32 -22 -51 4 -17 1 -26 -8 -26 -13 0 -30 -36 -26 -57 2 -7
-10 -19 -26 -27 -37 -19 -166 -150 -152 -154 6 -2 36 11 68 30 31 19 82 43
112 54 30 10 57 21 60 24 5 5 109 56 175 85 17 8 41 16 55 20 25 6 -110 -70
-142 -81 -10 -3 -18 -9 -18 -14 0 -5 14 -2 31 7 16 8 33 12 37 8 4 -4 1 -10
-6 -12 -7 -3 -21 -13 -30 -23 -9 -10 -29 -21 -44 -25 -16 -4 -28 -11 -28 -16
0 -5 -6 -9 -12 -9 -7 0 -38 -13 -68 -28 -37 -19 -56 -35 -58 -49 -2 -14 -12
-22 -32 -25 -16 -2 -27 -2 -25 1 1 3 -30 6 -70 6 -54 1 -76 5 -89 18 -20 19
-31 23 -20 6 4 -7 -1 -9 -12 -7 -12 2 -18 11 -16 23 3 16 2 17 -12 6 -10 -8
-16 -9 -16 -3 0 6 9 14 20 17 24 8 57 51 96 125 16 30 57 98 90 150 34 53 79
127 100 165 20 39 45 79 55 90 32 37 130 249 134 293 3 24 14 56 25 72 11 15
17 35 14 44 -3 9 -2 16 3 16 5 0 8 14 5 30 -2 17 -1 55 3 85 6 51 8 55 28 49
12 -3 30 -13 40 -22z m-498 -14 c-6 -30 -51 -264 -59 -305 -3 -21 0 -35 9 -43
13 -10 18 -6 31 26 l17 39 8 -30 c10 -35 -2 -78 -84 -320 -30 -88 -62 -195
-72 -237 -12 -55 -21 -78 -32 -78 -12 0 -13 6 -8 28 40 150 66 282 71 352 3
47 12 108 19 135 8 28 21 100 30 160 18 126 22 144 41 204 8 24 12 46 9 49 -3
3 -27 -5 -53 -18 -26 -13 -53 -23 -60 -21 -7 1 -15 -5 -18 -14 -3 -8 -11 -15
-18 -15 -6 0 -24 -13 -41 -28 l-30 -29 -10 31 c-10 29 -8 33 24 59 23 18 44
27 62 25 14 -1 33 2 40 8 14 11 86 29 102 26 4 -1 7 3 7 8 0 6 5 10 10 10 6 0
8 -10 5 -22z m2525 -9 c0 -6 -4 -7 -10 -4 -5 3 -10 11 -10 16 0 6 5 7 10 4 6
-3 10 -11 10 -16z m58 -6 c2 -8 -5 -13 -17 -13 -21 0 -35 13 -24 24 10 10 36
3 41 -11z m-168 -13 c0 -5 -4 -10 -9 -10 -6 0 -13 5 -16 10 -3 6 1 10 9 10 9
0 16 -4 16 -10z m-981 -27 c1 10 6 15 12 12 12 -8 -13 -50 -45 -77 -17 -14
-18 -19 -7 -27 11 -7 11 -14 -3 -41 -9 -18 -16 -46 -16 -62 0 -30 -6 -33 -29
-19 -12 8 -12 12 -2 24 8 10 9 17 1 22 -16 10 -13 45 4 39 7 -3 16 2 20 11 3
9 2 13 -4 10 -12 -8 -13 5 -1 24 5 7 5 28 1 47 -7 31 3 50 12 22 7 -20 38 0
39 24 1 22 1 22 9 -2 6 -18 8 -20 9 -7z m1001 -8 c10 -13 9 -15 -9 -15 -12 0
-21 6 -21 15 0 8 4 15 9 15 5 0 14 -7 21 -15z m85 5 c3 -5 2 -10 -4 -10 -5 0
-13 5 -16 10 -3 6 -2 10 4 10 5 0 13 -4 16 -10z m72 -86 c1 -18 0 -22 -4 -9
-3 11 -10 26 -17 34 -9 11 -8 13 4 9 8 -2 16 -18 17 -34z m-1857 2 c0 -3 -4
-8 -10 -11 -5 -3 -10 -1 -10 4 0 6 5 11 10 11 6 0 10 -2 10 -4z m1840 -6 c0
-5 -4 -10 -9 -10 -6 0 -13 5 -16 10 -3 6 1 10 9 10 9 0 16 -4 16 -10z m-2037
-96 c-5 -15 -43 -6 -43 10 0 21 11 25 30 14 10 -7 16 -17 13 -24z m1997 9 c0
-7 -7 -13 -15 -13 -8 0 -15 6 -15 13 0 8 7 14 15 14 8 0 15 -6 15 -14z m70
-58 c0 -8 -7 -15 -15 -15 -8 0 -15 7 -15 15 0 8 7 15 15 15 8 0 15 -7 15 -15z
m-2096 -10 c3 -9 0 -15 -10 -15 -8 0 -13 4 -9 9 3 5 -3 12 -12 14 -14 4 -14 5
3 6 12 0 24 -6 28 -14z m1966 11 c0 -3 -4 -8 -10 -11 -5 -3 -10 -1 -10 4 0 6
5 11 10 11 6 0 10 -2 10 -4z m82 -31 c0 -5 -5 -11 -11 -13 -6 -2 -11 4 -11 13
0 9 5 15 11 13 6 -2 11 -8 11 -13z m-2062 -31 c0 -8 -4 -12 -10 -9 -5 3 -10
10 -10 16 0 5 5 9 10 9 6 0 10 -7 10 -16z m2025 -4 c3 -5 1 -10 -4 -10 -6 0
-11 5 -11 10 0 6 2 10 4 10 3 0 8 -4 11 -10z m-71 -90 c-5 -5 -10 8 -11 33
l-1 42 10 -33 c7 -20 7 -36 2 -42z m-2775 37 c8 -10 7 -14 -4 -14 -8 0 -15 6
-15 14 0 7 2 13 4 13 2 0 9 -6 15 -13z m2922 -20 c-13 -13 -31 0 -24 19 4 11
8 12 20 3 9 -8 10 -16 4 -22z m-2915 -16 c-16 -6 -17 -9 -4 -13 11 -5 17 -29
22 -93 3 -48 10 -92 14 -99 4 -6 7 -77 7 -158 0 -80 -3 -141 -6 -135 -4 7 -12
62 -18 122 -18 190 -32 309 -37 314 -2 2 1 10 7 18 9 9 8 13 0 13 -6 0 -11 9
-11 20 0 14 6 20 23 19 20 0 20 -1 3 -8z m795 -14 c-10 -9 -11 -8 -5 6 3 10 9
15 12 12 3 -3 0 -11 -7 -18z m2024 14 c3 -5 1 -12 -5 -16 -5 -3 -10 1 -10 9 0
18 6 21 15 7z m-445 -47 c0 -14 -4 -23 -10 -19 -5 3 -10 15 -10 26 0 10 5 19
10 19 6 0 10 -12 10 -26z m478 9 c-4 -22 -22 -20 -26 1 -2 10 3 16 13 16 10 0
15 -7 13 -17z m-68 -3 c0 -5 -4 -10 -10 -10 -5 0 -10 5 -10 10 0 6 5 10 10 10
6 0 10 -4 10 -10z m-33 -36 c-9 -9 -28 6 -21 18 4 6 10 6 17 -1 6 -6 8 -13 4
-17z m-2022 6 c3 -5 2 -10 -4 -10 -5 0 -13 5 -16 10 -3 6 -2 10 4 10 5 0 13
-4 16 -10z m2075 -36 c0 -6 -6 -17 -14 -23 -11 -9 -15 -7 -20 11 -3 13 -6 31
-6 40 0 17 1 17 20 1 11 -10 20 -23 20 -29z m80 36 c0 -5 -2 -10 -4 -10 -3 0
-8 5 -11 10 -3 6 -1 10 4 10 6 0 11 -4 11 -10z m43 -17 c9 -9 -13 -34 -24 -27
-14 8 -11 34 4 34 8 0 17 -3 20 -7z m-2593 -80 c-10 -16 -11 -15 -6 7 3 14 7
36 7 50 2 19 3 18 6 -7 2 -18 -1 -41 -7 -50z m2080 32 c0 -14 -4 -25 -10 -25
-11 0 -14 33 -3 43 11 11 13 8 13 -18z m472 0 c0 -5 -5 -11 -11 -13 -6 -2 -11
4 -11 13 0 9 5 15 11 13 6 -2 11 -8 11 -13z m-1825 -27 c-3 -7 -5 -2 -5 12 0
14 2 19 5 13 2 -7 2 -19 0 -25z m1703 -10 c0 -5 -4 -8 -10 -8 -5 0 -10 10 -10
23 0 18 2 19 10 7 5 -8 10 -18 10 -22z m95 -8 c-5 -8 -11 -8 -17 -2 -6 6 -7
16 -3 22 5 8 11 8 17 2 6 -6 7 -16 3 -22z m60 20 c3 -5 -1 -10 -10 -10 -9 0
-13 5 -10 10 3 6 8 10 10 10 2 0 7 -4 10 -10z m-30 -49 c-3 -6 -11 -8 -17 -5
-6 4 -5 9 3 15 16 10 23 4 14 -10z m-2554 -40 c-11 -20 -22 -58 -26 -84 -7
-47 -106 -228 -139 -256 -14 -12 -16 -10 -16 17 0 17 4 32 9 34 5 2 27 41 50
88 22 47 49 101 60 120 11 19 27 56 36 82 11 33 21 45 30 41 12 -4 11 -11 -4
-42z m2464 -10 c-4 -17 -2 -32 5 -36 5 -3 8 -11 5 -16 -4 -5 1 -12 9 -15 22
-8 20 -36 -1 -32 -21 4 -31 37 -32 108 0 43 2 51 10 37 6 -10 8 -31 4 -46z
m130 39 c9 -15 -3 -30 -20 -24 -7 3 -11 12 -8 20 6 16 19 18 28 4z m-1875 -55
c0 -30 -3 -55 -7 -55 -5 0 -6 25 -5 55 5 71 12 71 12 0z m-350 20 c0 -8 -2
-15 -4 -15 -2 0 -6 7 -10 15 -3 8 -1 15 4 15 6 0 10 -7 10 -15z m2070 5 c0 -5
-7 -10 -15 -10 -8 0 -15 5 -15 10 0 6 7 10 15 10 8 0 15 -4 15 -10z m60 -10
c0 -5 -5 -10 -11 -10 -5 0 -7 5 -4 10 3 6 8 10 11 10 2 0 4 -4 4 -10z m-103
-42 c-3 -8 -6 -5 -6 6 -1 11 2 17 5 13 3 -3 4 -12 1 -19z m43 8 c0 -3 -4 -8
-10 -11 -5 -3 -10 -1 -10 4 0 6 5 11 10 11 6 0 10 -2 10 -4z m90 -6 c0 -5 -4
-10 -10 -10 -5 0 -10 5 -10 10 0 6 5 10 10 10 6 0 10 -4 10 -10z m-2160 -17
c0 -14 2 -15 9 -4 5 7 11 9 14 5 3 -5 -1 -14 -8 -21 -16 -15 -52 8 -41 25 11
18 26 14 26 -5z m2217 11 c-3 -3 -12 -4 -19 -1 -8 3 -5 6 6 6 11 1 17 -2 13
-5z m-179 -32 c2 -7 -3 -12 -12 -12 -9 0 -16 7 -16 16 0 17 22 14 28 -4z m32
-3 c0 -6 -4 -7 -10 -4 -5 3 -10 11 -10 16 0 6 5 7 10 4 6 -3 10 -11 10 -16z
m150 -9 c0 -13 -5 -17 -20 -13 -19 5 -26 23 -14 36 11 11 34 -5 34 -23z
m-2250 -1 c0 -14 -17 -10 -23 5 -4 10 -1 13 9 9 7 -3 14 -9 14 -14z m-45 -10
c10 -14 1 -21 -19 -13 -9 3 -13 10 -10 15 7 12 21 11 29 -2z m301 -131 c-20
-28 -20 -42 -1 -34 8 3 15 1 15 -4 0 -6 -4 -10 -9 -10 -5 0 -17 -7 -25 -16
-11 -11 -16 -12 -16 -3 0 7 -13 -2 -29 -20 -16 -18 -28 -38 -26 -45 3 -6 -6
-19 -19 -28 -36 -26 -42 3 -9 43 l27 31 -44 -22 c-24 -12 -50 -29 -58 -36 -17
-18 -19 -17 -26 2 -3 8 -2 13 2 11 4 -2 34 13 67 34 33 21 76 47 97 58 34 19
37 25 50 93 l13 73 3 -53 c2 -35 -2 -59 -12 -74z m111 100 c-3 -8 -6 -5 -6 6
-1 11 2 17 5 13 3 -3 4 -12 1 -19z m1811 -34 c-10 -10 -28 6 -28 24 0 15 1 15
17 -1 9 -9 14 -19 11 -23z m-161 0 c-9 -9 -28 6 -21 18 4 6 10 6 17 -1 6 -6 8
-13 4 -17z m73 9 c0 -7 -7 -13 -15 -13 -8 0 -15 6 -15 13 0 8 7 14 15 14 8 0
15 -6 15 -14z m44 2 c3 -9 0 -15 -9 -15 -8 0 -15 7 -15 15 0 8 4 15 9 15 5 0
11 -7 15 -15z m-2173 -19 c4 -4 16 -3 28 3 17 10 20 9 15 -4 -4 -9 -9 -14 -11
-11 -4 4 -28 -13 -60 -43 -12 -12 -17 -12 -30 1 -13 14 -13 18 1 41 16 24 45
31 57 13z m2237 -23 c2 -8 -5 -13 -17 -13 -12 0 -21 6 -21 16 0 18 31 15 38
-3z m-98 -5 c0 -7 3 -23 6 -35 5 -17 2 -23 -11 -23 -12 0 -16 6 -12 20 3 11 2
20 -3 20 -4 0 -10 7 -14 15 -4 10 1 15 14 15 11 0 20 -6 20 -12z m35 2 c3 -5
1 -10 -4 -10 -6 0 -11 5 -11 10 0 6 2 10 4 10 3 0 8 -4 11 -10z m-2545 -27
c-21 -68 -35 -100 -57 -126 -20 -25 -23 -26 -23 -8 0 11 5 23 10 26 6 4 24 35
40 71 30 66 45 84 30 37z m2283 -30 c-12 -27 -19 -33 -21 -21 -2 10 4 25 12
34 9 8 16 23 17 32 0 10 3 12 5 5 3 -7 -3 -29 -13 -50z m-819 5 c7 -5 7 -8 -2
-8 -7 0 -15 7 -18 15 -4 8 -10 12 -15 9 -11 -6 -12 9 -2 20 4 3 11 -1 17 -11
5 -10 14 -21 20 -25z m1146 28 c0 -2 3 -11 6 -20 4 -12 0 -16 -15 -16 -14 0
-21 6 -21 20 0 11 7 20 15 20 8 0 15 -2 15 -4z m-50 -21 c0 -8 -7 -15 -15 -15
-8 0 -15 7 -15 15 0 8 7 15 15 15 8 0 15 -7 15 -15z m-130 -4 c0 -17 -18 -21
-24 -6 -3 9 0 15 9 15 8 0 15 -4 15 -9z m30 -32 c0 -20 -15 -26 -25 -9 -9 15
3 43 15 35 5 -3 10 -15 10 -26z m79 -45 c1 -15 -27 -13 -33 3 -3 7 -1 13 4 13
6 0 10 10 11 23 1 21 1 21 9 -3 4 -14 8 -30 9 -36z m-2665 -23 c-9 -11 -24 15
-23 42 l1 32 12 -35 c8 -19 12 -37 10 -39z m2410 37 c-3 -4 -9 -8 -15 -8 -5 0
-9 4 -9 8 0 5 7 9 15 9 8 0 12 -4 9 -9z m354 -15 c2 -8 -5 -13 -17 -13 -12 0
-21 6 -21 16 0 18 31 15 38 -3z m-2014 -17 c-3 -9 -10 -16 -15 -16 -5 0 -4 9
3 20 14 22 21 20 12 -4z m122 -29 c6 -18 16 -32 22 -32 5 0 14 -4 19 -9 4 -5
4 -7 -2 -4 -5 3 -16 0 -23 -8 -7 -8 -9 -14 -4 -14 8 0 32 -42 32 -55 0 -3 -7
-5 -15 -5 -9 0 -22 15 -30 33 l-14 32 -1 -27 c0 -15 12 -53 26 -85 15 -32 28
-67 30 -78 11 -63 43 -146 73 -187 38 -51 83 -169 80 -208 -1 -14 -3 -40 -3
-57 -1 -38 -3 -39 -27 -17 -15 13 -23 14 -54 4 -21 -7 -41 -22 -47 -36 -6 -13
-14 -21 -19 -19 -13 8 -17 -9 -8 -32 5 -15 19 -24 46 -28 21 -3 54 -8 73 -11
33 -6 34 -6 15 -21 -16 -12 -40 -14 -112 -10 -62 3 -93 1 -96 -7 -2 -7 -13 -7
-33 3 l-29 14 32 11 c54 18 58 29 58 131 0 101 11 129 40 105 8 -7 15 -9 15
-4 0 17 -15 30 -55 49 -43 20 -39 25 28 40 15 3 38 16 50 28 12 12 26 22 31
22 19 0 15 21 -9 50 l-25 30 6 -42 c6 -48 -11 -59 -34 -23 -10 16 -23 20 -71
20 -77 0 -85 14 -35 57 39 34 45 35 109 16 17 -5 18 -4 4 10 -9 8 -24 40 -33
71 -18 57 -32 76 -24 31 3 -14 1 -25 -3 -25 -5 0 -8 -10 -6 -21 1 -13 -4 -23
-14 -24 -12 -2 -14 4 -11 28 4 27 2 29 -17 24 -17 -4 -25 1 -37 25 -21 41 -4
62 46 54 24 -4 30 -3 20 4 -37 24 -122 -5 -151 -51 -13 -21 -29 0 -19 26 15
40 -5 37 -50 -8 -49 -49 -37 -20 15 37 35 39 41 52 27 58 -14 5 -65 78 -59 84
3 3 23 -20 45 -50 25 -36 42 -51 45 -43 3 8 27 20 54 27 60 16 78 36 94 105
13 59 18 61 35 12z m1894 8 c0 -8 -4 -15 -10 -15 -5 0 -10 7 -10 15 0 8 5 15
10 15 6 0 10 -7 10 -15z m-140 -20 c13 -14 21 -25 18 -25 -2 0 -15 11 -28 25
-13 14 -21 25 -18 25 2 0 15 -11 28 -25z m-2095 -15 c-10 -11 -20 -18 -23 -16
-2 3 -22 -6 -43 -20 -21 -13 -43 -24 -49 -24 -18 0 -11 16 13 29 12 6 42 22
67 35 50 28 62 26 35 -4z m513 -21 c-3 -8 -7 -3 -11 10 -4 17 -3 21 5 13 5 -5
8 -16 6 -23z m1729 5 c-3 -3 -12 -4 -19 -1 -8 3 -5 6 6 6 11 1 17 -2 13 -5z
m11 -63 c5 -16 -25 -14 -35 3 -4 8 -19 16 -32 18 -14 1 -26 9 -29 16 -3 9 10
7 44 -6 27 -11 50 -24 52 -31z m-144 23 c8 -21 8 -24 -3 -24 -5 0 -11 9 -14
20 -6 24 8 27 17 4z m-2631 -18 c3 3 24 -5 47 -19 l41 -24 -53 5 c-55 5 -68
14 -68 47 1 19 2 19 14 3 7 -10 16 -15 19 -12z m1082 2 c-9 -28 -55 -101 -61
-96 -5 5 55 118 62 118 3 0 2 -10 -1 -22z m1605 -44 c0 -4 -63 7 -70 13 -2 2
2 8 9 13 12 7 61 -14 61 -26z m80 6 c0 -5 -2 -10 -4 -10 -3 0 -8 5 -11 10 -3
6 -1 10 4 10 6 0 11 -4 11 -10z m-1066 -16 c3 -8 2 -12 -4 -9 -6 3 -10 10 -10
16 0 14 7 11 14 -7z m1076 -55 c0 -6 -4 -7 -10 -4 -5 3 -10 11 -10 16 0 6 5 7
10 4 6 -3 10 -11 10 -16z m-1042 -39 c8 -17 20 -30 28 -30 8 0 13 -3 13 -7 -5
-33 3 -62 20 -68 11 -3 24 -19 30 -36 12 -34 36 -30 27 5 -5 19 -3 19 14 -4
19 -25 19 -25 -1 -32 -10 -4 -19 -11 -19 -15 0 -4 -11 -8 -23 -8 -17 0 -23 5
-20 16 5 18 -40 56 -45 39 -5 -13 -43 -13 -62 1 -11 8 -7 9 18 4 20 -4 32 -3
32 4 0 6 -4 11 -10 11 -5 0 -10 5 -10 11 0 5 4 8 9 5 5 -3 14 1 21 9 8 9 8 15
2 15 -6 0 -18 21 -28 48 -10 26 -22 53 -27 60 -7 9 -6 11 4 7 8 -3 20 -19 27
-35z m997 30 c3 -5 1 -10 -4 -10 -6 0 -11 5 -11 10 0 6 2 10 4 10 3 0 8 -4 11
-10z m-58 -21 c3 -11 11 -18 18 -16 12 5 14 -20 3 -38 -3 -6 -2 -34 4 -64 5
-29 7 -55 5 -57 -2 -2 -17 8 -34 23 -16 16 -51 45 -76 66 -26 21 -47 43 -47
48 0 6 5 7 10 4 6 -3 14 4 19 17 6 13 10 18 10 11 1 -8 10 -9 29 -4 15 5 26
13 25 20 -5 20 29 11 34 -10z m-604 -49 l22 -35 -42 34 c-49 39 -51 44 -23 39
12 -2 31 -19 43 -38z m282 1 c-3 -12 -10 -21 -15 -21 -5 0 -4 11 2 25 13 29
23 26 13 -4z m-2235 9 c29 -19 -25 -39 -64 -24 -15 6 -15 8 1 20 21 16 43 17
63 4z m1853 -44 c4 -10 1 -13 -9 -9 -7 3 -14 9 -14 14 0 14 17 10 23 -5z m-33
-17 c0 -5 -4 -9 -10 -9 -5 0 -10 7 -10 16 0 8 5 12 10 9 6 -3 10 -10 10 -16z
m-1820 -3 c0 -2 -11 -6 -25 -8 -13 -3 -22 -1 -19 3 5 9 44 13 44 5z m42 -38
c-7 -7 -12 -8 -12 -2 0 14 12 26 19 19 2 -3 -1 -11 -7 -17z m631 15 c-7 -2
-21 -2 -30 0 -10 3 -4 5 12 5 17 0 24 -2 18 -5z m1767 -33 c4 -7 12 -10 18 -6
10 6 62 -47 62 -63 0 -4 -6 -13 -12 -20 -11 -10 -9 -12 6 -9 10 1 21 -3 23 -9
3 -8 -4 -13 -16 -13 -14 0 -19 -6 -18 -20 1 -14 6 -19 17 -15 11 4 10 1 -2 -9
-10 -7 -18 -20 -18 -29 0 -25 11 -47 21 -41 8 4 13 -11 7 -18 -2 -2 10 -24 25
-50 20 -34 27 -60 27 -97 0 -28 -4 -51 -10 -51 -5 0 -10 3 -10 8 0 14 -57 73
-85 88 -21 11 -30 11 -35 3 -5 -7 -10 -8 -14 -1 -3 6 0 12 6 15 20 7 -42 28
-64 21 -11 -3 -24 -18 -31 -32 -14 -33 -46 -64 -58 -56 -5 3 -9 17 -9 31 0 15
-5 53 -12 85 -11 54 -10 60 10 87 12 17 22 35 22 40 0 9 43 24 94 33 33 5 31
28 -2 28 -17 0 -38 3 -47 6 -14 6 -11 10 15 20 35 15 32 34 -6 34 -29 0 -42
24 -24 45 16 19 108 14 120 -5z m-2594 -35 c3 -14 3 -32 0 -41 -3 -9 3 -28 14
-44 11 -15 20 -36 19 -47 0 -15 -2 -14 -9 5 -5 12 -17 25 -25 28 -25 10 -36
41 -29 84 7 45 21 52 30 15z m1752 15 c1 -1 5 -3 10 -4 18 -5 87 -42 90 -48 2
-5 9 -8 16 -8 7 0 25 -14 41 -30 21 -21 31 -27 36 -18 6 9 16 7 38 -10 17 -12
36 -22 43 -23 7 0 -2 -7 -21 -15 -33 -15 -35 -14 -115 34 -44 28 -106 63 -138
78 -55 27 -69 54 -25 49 12 -1 23 -4 25 -5z m1059 -42 c-3 -7 -5 -2 -5 12 0
14 2 19 5 13 2 -7 2 -19 0 -25z m-2654 15 c4 -3 3 -11 -2 -17 -5 -6 -19 -39
-31 -74 -26 -72 -39 -79 -15 -8 9 26 15 55 14 64 -3 31 1 42 14 42 8 0 17 -3
20 -7z m767 -49 c0 -2 -9 -4 -20 -4 -11 0 -20 4 -20 9 0 5 9 7 20 4 11 -3 20
-7 20 -9z m-50 -3 c0 -6 -9 -9 -20 -8 -11 1 -20 5 -20 9 0 4 9 8 20 8 11 0 20
-4 20 -9z m-649 -38 c-12 -20 -14 -14 -5 12 4 9 9 14 11 11 3 -2 0 -13 -6 -23z
m1600 -79 c22 -81 23 -94 6 -94 -17 0 -79 64 -71 73 4 4 3 7 -3 7 -14 0 -9 61
8 88 20 31 37 10 60 -74z m969 33 c0 -16 -4 -26 -10 -22 -5 3 -10 23 -10 43 0
28 3 33 10 22 5 -8 10 -28 10 -43z m-2806 27 c20 -8 21 -24 2 -24 -8 0 -16 7
-20 15 -6 17 -4 18 18 9z m2436 2 c0 -3 -4 -8 -10 -11 -5 -3 -10 -1 -10 4 0 6
5 11 10 11 6 0 10 -2 10 -4z m-1625 -76 c3 -25 8 -61 10 -81 l5 -35 -65 0
c-54 1 -66 4 -71 19 -3 10 0 24 6 32 7 8 9 15 4 15 -5 0 -2 6 7 13 8 7 24 25
35 42 47 73 59 72 69 -5z m-585 50 c0 -5 -4 -10 -10 -10 -5 0 -10 5 -10 10 0
6 5 10 10 10 6 0 10 -4 10 -10z m1481 -70 c61 -40 122 -101 142 -142 13 -25
17 -28 17 -13 1 17 3 17 12 -5 5 -14 17 -40 24 -59 16 -36 11 -52 -8 -33 -16
16 -28 15 -28 -2 0 -16 25 -29 55 -30 11 -1 21 -9 23 -21 4 -17 2 -18 -12 -6
-10 9 -16 10 -16 2 0 -6 9 -16 20 -23 11 -7 20 -20 21 -28 0 -10 2 -11 6 -2
10 25 23 0 23 -44 0 -28 -4 -43 -10 -39 -5 3 -10 17 -10 31 0 14 -4 23 -9 20
-5 -3 -12 5 -15 19 -4 14 -10 25 -15 25 -17 0 -25 -46 -29 -152 -1 -43 -7 -63
-22 -78 -11 -11 -19 -23 -18 -28 1 -4 -4 -28 -11 -54 -15 -55 -43 -88 -74 -88
-35 0 -250 28 -267 34 -24 10 -45 66 -47 129 -1 54 0 59 24 68 59 22 73 71 53
178 -11 61 0 97 27 83 18 -11 53 -4 53 9 0 5 -14 9 -31 9 -29 0 -30 2 -24 30
6 29 -8 43 -18 18 -3 -8 -6 -6 -6 5 -1 11 6 17 22 17 33 0 110 25 115 38 1 5
-6 13 -17 17 -23 7 -28 31 -9 37 23 8 -4 28 -38 28 -41 0 -44 15 -9 53 33 34
51 34 106 -3z m1126 14 c-3 -3 -12 -4 -19 -1 -8 3 -5 6 6 6 11 1 17 -2 13 -5z
m-2689 -26 c22 1 32 -2 32 -12 0 -16 -26 -46 -41 -46 -5 0 -9 -11 -9 -24 0
-14 -14 -47 -31 -75 -25 -40 -35 -49 -45 -40 -8 6 -11 15 -8 20 3 5 -4 21 -15
35 -26 33 -26 54 -1 81 16 18 17 22 4 27 -39 15 19 50 61 38 11 -3 35 -5 53
-4z m99 -51 c-3 -19 -15 -49 -27 -68 l-22 -34 7 30 c3 17 7 39 8 51 2 20 24
54 35 54 2 0 2 -15 -1 -33z m1660 -4 c-3 -10 -5 -4 -5 12 0 17 2 24 5 18 2 -7
2 -21 0 -30z m920 -5 c-3 -7 -5 -2 -5 12 0 14 2 19 5 13 2 -7 2 -19 0 -25z
m-1772 -38 c3 -5 2 -10 -4 -10 -5 0 -13 5 -16 10 -3 6 -2 10 4 10 5 0 13 -4
16 -10z m1501 -17 c-10 -10 -19 5 -10 18 6 11 8 11 12 0 2 -7 1 -15 -2 -18z
m-1747 -19 c3 -16 1 -17 -13 -5 -19 16 -21 34 -3 29 6 -3 14 -13 16 -24z
m1796 -4 c-4 -6 9 -10 32 -10 28 0 34 -3 23 -10 -17 -11 -63 -13 -73 -4 -8 8
3 34 15 34 5 0 6 -4 3 -10z m102 -55 c8 -23 -21 -50 -70 -64 -23 -7 -48 -18
-54 -23 -9 -7 -13 -7 -13 0 0 6 -7 9 -15 6 -8 -4 -17 1 -21 9 -3 8 -16 18 -29
21 -24 6 -55 31 -55 45 0 4 39 7 88 6 48 -1 98 2 112 6 39 11 50 10 57 -6z
m130 -122 c-3 -10 -5 -4 -5 12 0 17 2 24 5 18 2 -7 2 -21 0 -30z m-107 -337
c0 -11 -19 -15 -25 -6 -3 5 1 10 9 10 9 0 16 -2 16 -4z m-2552 -131 c-3 -3 -9
2 -12 12 -6 14 -5 15 5 6 7 -7 10 -15 7 -18z m2167 5 c3 -5 -1 -10 -10 -10 -9
0 -13 5 -10 10 3 6 8 10 10 10 2 0 7 -4 10 -10z m105 -170 c0 -5 -5 -10 -11
-10 -5 0 -7 5 -4 10 3 6 8 10 11 10 2 0 4 -4 4 -10z"/>
<path d="M7145 5940 c-3 -5 -1 -10 4 -10 6 0 11 5 11 10 0 6 -2 10 -4 10 -3 0
-8 -4 -11 -10z"/>
<path d="M6880 5396 c0 -8 4 -17 9 -20 10 -7 23 19 14 28 -11 11 -23 6 -23 -8z"/>
<path d="M7346 4430 c7 -25 64 -98 64 -82 0 22 -31 82 -40 77 -5 -3 -14 3 -20
12 -9 15 -10 14 -4 -7z"/>
<path d="M8782 4353 c-29 -6 -19 -23 14 -23 15 0 24 6 24 15 0 8 -3 14 -7 14
-5 -1 -18 -4 -31 -6z"/>
<path d="M7964 4055 c-9 -14 -15 -28 -12 -30 8 -8 48 26 48 41 0 22 -18 17
-36 -11z"/>
<path d="M7964 3905 c-3 -8 -3 -18 0 -23 3 -6 -1 -12 -8 -15 -8 -3 -14 -14
-14 -24 0 -10 -2 -25 -6 -35 -6 -14 4 -17 79 -23 58 -5 94 -4 108 4 19 9 16
10 -18 6 -22 -4 -51 -2 -65 3 -23 9 -23 9 12 16 38 7 73 35 47 37 -8 1 -19 1
-25 0 -11 -1 -26 22 -28 42 -3 26 -73 37 -82 12z m40 -40 c-4 -8 -8 -15 -10
-15 -2 0 -4 7 -4 15 0 8 4 15 10 15 5 0 7 -7 4 -15z"/>
<path d="M7171 6257 c2 -1 11 -8 20 -15 13 -10 19 -9 29 3 11 13 8 15 -20 15
-19 0 -31 -1 -29 -3z"/>
<path d="M7916 6245 c5 -11 15 -14 39 -9 24 4 34 2 38 -10 7 -17 57 -23 57 -7
0 5 -8 8 -17 7 -11 0 -17 6 -17 17 2 14 -7 17 -52 17 -44 0 -52 -3 -48 -15z"/>
<path d="M8306 6234 c-4 -9 -4 -19 -1 -22 2 -3 7 3 11 12 4 9 4 19 1 22 -2 3
-7 -3 -11 -12z"/>
<path d="M8256 6223 c-11 -11 -6 -23 9 -23 8 0 15 4 15 9 0 13 -16 22 -24 14z"/>
<path d="M8347 6184 c-15 -15 -7 -45 11 -42 9 2 17 12 17 22 0 20 -16 31 -28
20z"/>
<path d="M8285 6150 c3 -5 8 -10 11 -10 2 0 4 5 4 10 0 6 -5 10 -11 10 -5 0
-7 -4 -4 -10z"/>
<path d="M8246 6134 c-9 -22 3 -32 14 -14 12 19 12 30 1 30 -5 0 -12 -7 -15
-16z"/>
<path d="M8397 6113 c-4 -3 -7 -15 -7 -25 0 -22 26 -24 34 -2 10 25 -10 45
-27 27z"/>
<path d="M8271 6077 c-12 -15 -5 -27 16 -27 7 0 13 9 13 20 0 23 -13 26 -29 7z"/>
<path d="M8174 6035 c-7 -16 3 -35 18 -35 5 0 7 7 4 16 -3 8 -2 12 4 9 6 -3
10 1 10 9 0 20 -29 21 -36 1z"/>
<path d="M8338 6031 c-22 -21 -24 -61 -4 -61 19 0 30 18 32 53 2 31 -4 33 -28
8z"/>
<path d="M8265 5990 c-3 -5 -1 -10 4 -10 6 0 11 5 11 10 0 6 -2 10 -4 10 -3 0
-8 -4 -11 -10z"/>
<path d="M8217 5983 c-4 -3 -7 -13 -7 -22 1 -13 3 -13 11 2 11 19 8 33 -4 20z"/>
<path d="M8293 5953 c-3 -10 -12 -22 -20 -26 -14 -9 -18 -43 -5 -50 15 -10 50
30 50 56 0 33 -16 45 -25 20z"/>
<path d="M8390 5925 c0 -28 19 -35 21 -7 1 11 4 9 9 -8 7 -21 8 -22 9 -4 1 20
-16 44 -31 44 -4 0 -8 -11 -8 -25z"/>
<path d="M8340 5920 c0 -5 5 -10 11 -10 5 0 7 5 4 10 -3 6 -8 10 -11 10 -2 0
-4 -4 -4 -10z"/>
<path d="M8200 5890 c0 -5 5 -10 10 -10 6 0 10 5 10 10 0 6 -4 10 -10 10 -5 0
-10 -4 -10 -10z"/>
<path d="M8167 5884 c-4 -4 -7 -14 -7 -23 0 -11 3 -12 11 -4 6 6 10 16 7 23
-2 6 -7 8 -11 4z"/>
<path d="M8298 5853 c-33 -9 -34 -54 0 -49 11 2 17 12 17 29 1 15 1 26 0 26 0
-1 -7 -3 -17 -6z"/>
<path d="M8110 5840 c0 -5 5 -10 10 -10 6 0 10 5 10 10 0 6 -4 10 -10 10 -5 0
-10 -4 -10 -10z"/>
<path d="M8233 5839 c4 -11 0 -16 -11 -15 -10 1 -18 -8 -20 -21 -5 -33 26 -30
39 4 7 19 6 29 -2 37 -9 8 -10 7 -6 -5z"/>
<path d="M8340 5830 c0 -11 5 -20 10 -20 6 0 10 9 10 20 0 11 -4 20 -10 20 -5
0 -10 -9 -10 -20z"/>
<path d="M8390 5839 c0 -5 5 -7 10 -4 6 3 10 8 10 11 0 2 -4 4 -10 4 -5 0 -10
-5 -10 -11z"/>
<path d="M8415 5820 c-3 -5 -1 -10 4 -10 6 0 11 5 11 10 0 6 -2 10 -4 10 -3 0
-8 -4 -11 -10z"/>
<path d="M8103 5765 c-9 -25 4 -29 17 -6 7 15 7 21 0 21 -6 0 -13 -7 -17 -15z"/>
<path d="M8390 5761 c0 -11 5 -23 10 -26 6 -4 10 5 10 19 0 14 -4 26 -10 26
-5 0 -10 -9 -10 -19z"/>
<path d="M8274 5745 c-4 -9 -2 -21 4 -27 15 -15 44 -1 40 19 -4 23 -36 29 -44
8z"/>
<path d="M8355 5750 c-3 -5 -1 -10 4 -10 6 0 11 5 11 10 0 6 -2 10 -4 10 -3 0
-8 -4 -11 -10z"/>
<path d="M8240 5743 c0 -7 -7 -13 -15 -13 -8 0 -15 -4 -15 -10 0 -12 37 -14
44 -2 2 4 1 14 -5 22 -6 10 -9 11 -9 3z"/>
<path d="M8147 5723 c-13 -12 -7 -43 7 -43 19 0 28 14 20 34 -7 17 -16 20 -27
9z"/>
<path d="M8033 5665 c-8 -22 6 -33 17 -15 13 20 12 30 0 30 -6 0 -13 -7 -17
-15z"/>
<path d="M8220 5635 c0 -20 4 -26 18 -23 9 2 17 12 17 23 0 11 -8 21 -17 23
-14 3 -18 -3 -18 -23z"/>
<path d="M8300 5650 c0 -5 5 -10 10 -10 6 0 10 5 10 10 0 6 -4 10 -10 10 -5 0
-10 -4 -10 -10z"/>
<path d="M8150 5620 c0 -5 7 -10 15 -10 8 0 15 5 15 10 0 6 -7 10 -15 10 -8 0
-15 -4 -15 -10z"/>
<path d="M8084 5605 c-4 -9 -4 -18 -2 -21 9 -8 39 8 35 19 -6 18 -27 20 -33 2z"/>
<path d="M8307 5584 c-4 -4 -7 -16 -7 -26 0 -20 25 -25 36 -7 8 13 -19 43 -29
33z"/>
<path d="M8121 5557 c-6 -8 -8 -17 -4 -20 3 -4 1 -7 -5 -7 -17 0 -15 -27 3
-34 15 -5 25 19 23 57 -2 21 -2 21 -17 4z"/>
<path d="M8161 5551 c-19 -12 -6 -43 16 -39 10 2 18 12 18 22 0 22 -14 29 -34
17z"/>
<path d="M8240 5545 c0 -8 5 -15 10 -15 6 0 10 7 10 15 0 8 -4 15 -10 15 -5 0
-10 -7 -10 -15z"/>
<path d="M8026 5504 c-8 -21 -1 -28 19 -20 9 3 15 11 13 18 -7 19 -25 20 -32
2z"/>
<path d="M7970 5480 c0 -5 5 -10 10 -10 6 0 10 5 10 10 0 6 -4 10 -10 10 -5 0
-10 -4 -10 -10z"/>
<path d="M8247 5484 c-9 -10 -9 -44 1 -44 4 0 14 5 22 10 13 8 13 11 -1 25 -8
8 -18 12 -22 9z"/>
<path d="M8320 5480 c0 -5 5 -10 11 -10 5 0 7 5 4 10 -3 6 -8 10 -11 10 -2 0
-4 -4 -4 -10z"/>
<path d="M8099 5478 c-9 -21 -5 -60 7 -65 21 -8 38 12 29 34 -5 10 -7 21 -7
26 2 6 -26 11 -29 5z"/>
<path d="M8180 5450 c0 -5 5 -10 10 -10 6 0 10 5 10 10 0 6 -4 10 -10 10 -5 0
-10 -4 -10 -10z"/>
<path d="M8040 5413 c0 -10 6 -13 16 -9 10 4 13 2 8 -6 -4 -7 -3 -8 4 -4 19
11 14 32 -8 33 -12 1 -20 -4 -20 -14z"/>
<path d="M8666 5405 c-3 -9 1 -18 10 -22 19 -7 39 11 30 26 -10 16 -33 13 -40
-4z"/>
<path d="M7976 5394 c-4 -9 -4 -19 -1 -22 3 -3 11 0 17 6 9 9 9 15 1 23 -7 7
-12 5 -17 -7z"/>
<path d="M8320 5390 c0 -11 4 -20 8 -20 4 0 8 9 9 20 1 11 -2 20 -8 20 -5 0
-9 -9 -9 -20z"/>
<path d="M8750 5390 c0 -5 5 -10 10 -10 6 0 10 5 10 10 0 6 -4 10 -10 10 -5 0
-10 -4 -10 -10z"/>
<path d="M8037 5376 c-4 -9 -3 -16 2 -16 4 0 6 -11 4 -24 -6 -27 15 -45 28
-25 13 20 11 31 -10 58 -15 20 -19 21 -24 7z"/>
<path d="M8260 5374 c0 -8 5 -12 10 -9 6 3 10 10 10 16 0 5 -4 9 -10 9 -5 0
-10 -7 -10 -16z"/>
<path d="M8183 5365 c-3 -9 -3 -18 0 -22 10 -10 37 6 37 22 0 20 -29 20 -37 0z"/>
<path d="M8120 5351 c0 -6 5 -13 10 -16 6 -3 10 1 10 9 0 9 -4 16 -10 16 -5 0
-10 -4 -10 -9z"/>
<path d="M8240 5336 c0 -14 4 -26 8 -26 11 0 12 39 1 45 -5 4 -9 -5 -9 -19z"/>
<path d="M7960 5321 c-5 -11 -10 -28 -9 -38 0 -12 5 -9 13 11 9 19 15 24 18
15 3 -8 9 -11 13 -7 10 9 -1 38 -14 38 -6 0 -15 -9 -21 -19z"/>
<path d="M8006 5325 c4 -8 8 -15 10 -15 2 0 4 7 4 15 0 8 -4 15 -10 15 -5 0
-7 -7 -4 -15z"/>
<path d="M8660 5320 c0 -5 5 -10 10 -10 6 0 10 5 10 10 0 6 -4 10 -10 10 -5 0
-10 -4 -10 -10z"/>
<path d="M8723 5314 c-8 -20 8 -36 26 -25 15 10 8 41 -9 41 -6 0 -13 -7 -17
-16z"/>
<path d="M8197 5304 c-9 -10 4 -34 19 -34 16 0 16 2 8 24 -6 17 -16 20 -27 10z"/>
<path d="M8270 5289 c0 -11 5 -17 10 -14 6 3 10 13 10 21 0 8 -4 14 -10 14 -5
0 -10 -9 -10 -21z"/>
<path d="M8130 5275 c-11 -13 -10 -19 5 -33 13 -13 19 -14 22 -4 3 6 9 12 15
12 6 0 8 -6 5 -14 -3 -8 -1 -17 6 -20 7 -2 1 -5 -12 -5 -13 -1 -21 -4 -18 -8
4 -3 2 -12 -4 -19 -8 -9 -5 -16 11 -24 22 -12 28 -5 31 40 4 49 -1 81 -11 75
-6 -4 -17 -2 -24 4 -10 8 -17 7 -26 -4z"/>
<path d="M8065 5249 c-10 -15 3 -25 16 -12 7 7 7 13 1 17 -6 3 -14 1 -17 -5z"/>
<path d="M7983 5234 c-8 -21 13 -42 28 -27 13 13 5 43 -11 43 -6 0 -13 -7 -17
-16z"/>
<path d="M7926 5223 c-11 -11 -6 -23 9 -23 8 0 15 4 15 9 0 13 -16 22 -24 14z"/>
<path d="M8210 5195 c0 -8 5 -15 10 -15 6 0 10 7 10 15 0 8 -4 15 -10 15 -5 0
-10 -7 -10 -15z"/>
<path d="M8077 5183 c-11 -10 -8 -41 3 -48 19 -12 41 15 29 36 -10 20 -21 24
-32 12z"/>
<path d="M8700 5154 c-9 -10 -10 -18 -2 -26 12 -12 32 -2 32 17 0 21 -16 26
-30 9z m20 -8 c0 -3 -4 -8 -10 -11 -5 -3 -10 -1 -10 4 0 6 5 11 10 11 6 0 10
-2 10 -4z"/>
<path d="M8016 5152 c-3 -6 -1 -14 5 -17 15 -10 25 3 12 16 -7 7 -13 7 -17 1z"/>
<path d="M8472 5113 c3 -19 28 -31 28 -13 0 6 -5 8 -12 4 -8 -5 -9 -2 -5 9 3
10 2 17 -4 17 -6 0 -9 -8 -7 -17z"/>
<path d="M8280 5066 c0 -11 -5 -16 -14 -13 -20 8 -27 -3 -15 -24 9 -18 30 -27
28 -11 -3 19 2 33 11 27 13 -8 13 5 0 25 -8 13 -10 12 -10 -4z"/>
<path d="M8124 5005 c-7 -18 3 -35 21 -35 21 0 28 19 15 35 -16 19 -29 19 -36
0z"/>
<path d="M8500 5000 c0 -13 5 -20 13 -17 6 2 12 10 12 17 0 7 -6 15 -12 18 -8
2 -13 -5 -13 -18z"/>
<path d="M8295 4960 c-3 -5 -1 -10 4 -10 6 0 11 5 11 10 0 6 -2 10 -4 10 -3 0
-8 -4 -11 -10z"/>
<path d="M8697 4916 c-4 -10 -7 -25 -6 -34 0 -11 4 -9 10 7 5 13 8 29 6 35 -2
5 -6 2 -10 -8z"/>
<path d="M8530 4886 c0 -19 4 -24 15 -19 18 6 16 34 -2 41 -8 2 -13 -6 -13
-22z"/>
<path d="M8311 4884 c0 -11 3 -14 6 -6 3 7 2 16 -1 19 -3 4 -6 -2 -5 -13z"/>
<path d="M8682 4840 c0 -14 2 -19 5 -12 2 6 2 18 0 25 -3 6 -5 1 -5 -13z"/>
<path d="M8500 4810 c0 -5 5 -10 10 -10 6 0 10 5 10 10 0 6 -4 10 -10 10 -5 0
-10 -4 -10 -10z"/>
<path d="M8335 4791 c-3 -5 -1 -12 5 -16 5 -3 10 1 10 9 0 18 -6 21 -15 7z"/>
<path d="M8553 4784 c-9 -23 11 -38 26 -20 13 16 7 36 -10 36 -5 0 -12 -7 -16
-16z"/>
<path d="M8668 4774 c-5 -4 -8 -16 -8 -28 0 -14 3 -17 11 -9 6 6 9 19 7 28 -1
9 -6 13 -10 9z"/>
<path d="M8710 4764 c0 -8 5 -12 10 -9 6 3 10 10 10 16 0 5 -4 9 -10 9 -5 0
-10 -7 -10 -16z"/>
<path d="M8525 4700 c-3 -5 -1 -10 4 -10 6 0 11 5 11 10 0 6 -2 10 -4 10 -3 0
-8 -4 -11 -10z"/>
<path d="M8645 4670 c-3 -5 -1 -10 4 -10 6 0 11 5 11 10 0 6 -2 10 -4 10 -3 0
-8 -4 -11 -10z"/>
<path d="M8617 4609 c-20 -12 -23 -29 -3 -29 17 0 40 26 29 33 -5 3 -16 1 -26
-4z"/>
<path d="M8550 4600 c0 -5 5 -10 10 -10 6 0 10 5 10 10 0 6 -4 10 -10 10 -5 0
-10 -4 -10 -10z"/>
<path d="M8396 4583 c-7 -17 9 -33 32 -33 19 0 14 24 -7 37 -16 10 -20 9 -25
-4z"/>
<path d="M8500 4561 c0 -5 7 -12 16 -15 22 -9 24 -8 24 9 0 8 -9 15 -20 15
-11 0 -20 -4 -20 -9z"/>
<path d="M8360 4550 c0 -5 7 -10 16 -10 8 0 12 5 9 10 -3 6 -10 10 -16 10 -5
0 -9 -4 -9 -10z"/>
<path d="M8465 4530 c3 -5 10 -10 16 -10 5 0 9 5 9 10 0 6 -7 10 -16 10 -8 0
-12 -4 -9 -10z"/>
<path d="M8395 4459 c-10 -15 3 -25 16 -12 7 7 7 13 1 17 -6 3 -14 1 -17 -5z"/>
<path d="M8328 4448 c5 -5 16 -8 23 -6 8 3 3 7 -10 11 -17 4 -21 3 -13 -5z"/>
<path d="M17187 6303 c-12 -11 -7 -77 7 -96 11 -14 25 -17 58 -15 41 3 43 5
46 36 4 41 -14 65 -44 59 -14 -2 -25 2 -28 9 -6 15 -28 19 -39 7z"/>
<path d="M17238 6064 c-26 -8 -50 -19 -53 -24 -3 -5 2 -35 10 -67 9 -32 21
-76 25 -98 21 -94 28 -122 40 -147 14 -29 25 -35 35 -18 3 6 15 10 26 10 10 0
19 5 19 10 0 6 7 10 15 10 8 0 15 5 15 10 0 6 7 10 15 10 15 0 55 19 65 31 3
4 28 18 56 32 61 31 76 59 62 115 -12 48 -67 109 -105 117 -16 4 -36 10 -45
16 -26 13 -126 10 -180 -7z"/>
<path d="M16470 6282 c0 -5 7 -15 15 -22 8 -7 15 -9 15 -6 0 4 -7 14 -15 22
-8 9 -15 11 -15 6z"/>
<path d="M15812 6066 c7 -8 15 -12 17 -11 5 6 -10 25 -20 25 -5 0 -4 -6 3 -14z"/>
<path d="M14560 5720 c0 -22 5 -40 10 -40 6 0 10 -9 10 -19 0 -24 28 -35 48
-19 8 7 16 12 16 10 1 -2 9 0 18 3 42 17 24 85 -24 85 -15 0 -28 5 -28 10 0 6
-11 10 -25 10 -22 0 -25 -4 -25 -40z"/>
<path d="M18515 5100 c3 -5 8 -10 11 -10 2 0 4 5 4 10 0 6 -5 10 -11 10 -5 0
-7 -4 -4 -10z"/>
<path d="M17400 4970 c0 -5 5 -10 10 -10 6 0 10 5 10 10 0 6 -4 10 -10 10 -5
0 -10 -4 -10 -10z"/>
<path d="M16105 4810 c3 -5 8 -10 11 -10 2 0 4 5 4 10 0 6 -5 10 -11 10 -5 0
-7 -4 -4 -10z"/>
<path d="M15460 4690 c0 -5 5 -10 11 -10 5 0 7 5 4 10 -3 6 -8 10 -11 10 -2 0
-4 -4 -4 -10z"/>
<path d="M18666 5990 c-45 -14 -96 -70 -144 -157 -19 -34 -18 -160 2 -207 9
-21 16 -46 16 -56 0 -26 30 -54 78 -73 56 -22 82 -22 82 1 0 11 8 26 18 35 17
16 19 16 32 -8 7 -13 22 -27 32 -31 25 -8 78 14 78 32 0 16 -40 34 -76 34 -13
0 -24 5 -24 10 0 6 -10 21 -22 34 -31 31 -68 79 -68 87 0 3 8 16 19 27 24 29
81 30 101 2 8 -11 22 -20 32 -20 10 0 18 -4 18 -10 0 -5 11 -10 24 -10 14 0
28 -4 31 -10 3 -5 13 -10 21 -10 11 0 14 22 14 118 l0 118 -37 36 c-21 20 -47
40 -58 46 -30 15 -135 23 -169 12z"/>
<path d="M18888 4661 c-20 -10 -113 -94 -206 -187 -137 -137 -174 -180 -195
-228 -44 -97 -51 -92 131 -92 86 1 192 -3 235 -8 l77 -9 0 272 c0 149 -1 271
-2 271 -2 -1 -20 -9 -40 -19z"/>
</g>
</svg>
