<?xml version="1.0" standalone="no"?>
<!DOCTYPE svg PUBLIC "-//W3C//DTD SVG 20010904//EN"
 "http://www.w3.org/TR/2001/REC-SVG-20010904/DTD/svg10.dtd">
<svg version="1.0" xmlns="http://www.w3.org/2000/svg"
 width="1227.000000pt" height="860.000000pt" viewBox="0 0 1227.000000 860.000000"
 preserveAspectRatio="xMidYMid meet">

<g transform="translate(0.000000,860.000000) scale(0.100000,-0.100000)"
fill="#000000" stroke="none">
<path d="M0 4300 l0 -4300 6135 0 6135 0 0 4300 0 4300 -6135 0 -6135 0 0
-4300z m5518 3186 c24 -36 52 -115 52 -149 0 -10 11 -32 25 -49 16 -19 25 -42
25 -65 l0 -36 -27 28 c-23 22 -29 24 -31 11 -5 -24 -137 -23 -146 0 -6 15 -9
14 -30 -5 -45 -42 -46 11 -1 79 13 19 26 56 29 81 6 44 57 139 73 139 5 0 18
-15 31 -34z m392 -21 c0 -31 3 -35 25 -35 21 0 25 -5 25 -30 0 -25 -4 -30 -25
-30 -24 0 -25 -2 -25 -66 0 -56 3 -67 19 -71 24 -6 37 -52 19 -65 -7 -5 -31
-7 -53 -4 -60 7 -75 32 -75 127 0 64 -3 79 -15 79 -10 0 -15 10 -15 30 0 20 5
30 15 30 10 0 15 11 15 35 0 35 0 35 45 35 45 0 45 0 45 -35z m316 -69 c34
-34 40 -55 35 -121 -6 -73 -69 -121 -147 -112 -85 9 -131 68 -121 156 4 36 13
52 41 78 32 30 42 33 97 33 56 0 64 -3 95 -34z m4074 -1232 c18 -18 25 -35 25
-64 0 -126 -185 -127 -189 -2 -2 90 98 129 164 66z m-572 -10 c12 -8 22 -22
22 -30 0 -16 -26 -19 -35 -4 -10 16 -33 12 -44 -9 -7 -13 -6 -24 4 -37 12 -16
17 -17 34 -6 12 6 25 12 31 12 19 0 10 -30 -15 -46 -43 -28 -95 4 -95 59 0 37
7 49 35 65 27 15 37 15 63 -4z m142 1 c0 -8 -6 -15 -14 -15 -17 0 -28 14 -19
24 12 12 33 6 33 -9z m-40 -40 c0 -8 -7 -15 -15 -15 -10 0 -15 -11 -15 -35 0
-28 -4 -35 -20 -35 -17 0 -20 7 -20 50 l0 50 35 0 c24 0 35 -5 35 -15z m40
-35 c0 -38 -4 -50 -15 -50 -11 0 -15 12 -15 50 0 38 4 50 15 50 11 0 15 -12
15 -50z m98 -1 c3 -44 2 -47 -27 -52 -17 -4 -38 -4 -46 -1 -18 7 -20 45 -3 62
9 9 9 12 -1 12 -11 0 -11 3 -1 16 8 9 25 14 44 12 29 -3 31 -6 34 -49z m82 36
c0 -8 -7 -15 -15 -15 -10 0 -15 -11 -15 -35 0 -28 -4 -35 -20 -35 -17 0 -20 7
-20 50 l0 50 35 0 c24 0 35 -5 35 -15z m-6303 -17 c-3 -8 -6 -5 -6 6 -1 11 2
17 5 13 3 -3 4 -12 1 -19z m-1703 -26 c2 -4 -11 -6 -30 -4 -19 2 -34 6 -34 8
0 8 59 4 64 -4z m77 -40 c-7 -2 -18 1 -23 6 -8 8 -4 9 13 5 13 -4 18 -8 10
-11z m1340 0 c-7 -2 -18 1 -23 6 -8 8 -4 9 13 5 13 -4 18 -8 10 -11z m-834 2
c-3 -3 -12 -4 -19 -1 -8 3 -5 6 6 6 11 1 17 -2 13 -5z m-456 -1154 c-7 -3 -9
-14 -5 -23 3 -10 1 -17 -5 -17 -6 0 -11 -17 -11 -40 0 -22 -4 -40 -10 -40 -5
0 -10 15 -10 34 0 19 -3 41 -6 49 -7 19 32 60 47 51 8 -5 8 -9 0 -14z m453 -1
c-3 -5 -10 -7 -15 -3 -5 3 -7 10 -3 15 3 5 10 7 15 3 5 -3 7 -10 3 -15z m6760
6 c-4 -8 -10 -15 -15 -15 -4 0 -6 7 -3 15 4 8 10 15 15 15 4 0 6 -7 3 -15z
m-7534 -5 c0 -5 -9 -10 -20 -10 -18 0 -20 -7 -20 -55 0 -42 -3 -55 -15 -55
-12 0 -15 13 -15 55 0 48 -2 55 -20 55 -11 0 -20 5 -20 10 0 6 25 10 55 10 30
0 55 -4 55 -10z m990 -53 l0 -64 -32 0 c-42 0 -58 13 -58 47 0 34 22 54 50 45
16 -5 20 -2 20 14 0 12 5 21 10 21 6 0 10 -28 10 -63z m6005 43 c16 -18 16
-20 2 -20 -10 0 -17 5 -17 10 0 14 -33 13 -48 -2 -32 -32 2 -93 39 -70 30 19
44 14 24 -8 -36 -40 -95 -13 -95 43 0 59 58 88 95 47z m375 -45 c0 -37 -4 -65
-10 -65 -6 0 -10 28 -10 65 0 37 4 65 10 65 6 0 10 -28 10 -65z m270 0 c0 -37
-4 -65 -10 -65 -5 0 -10 5 -10 12 0 9 -3 9 -12 0 -18 -18 -36 -15 -48 9 -23
42 13 95 46 68 11 -9 14 -6 14 15 0 14 5 26 10 26 6 0 10 -28 10 -65z m-6084
25 c0 -14 4 -31 8 -38 21 -34 -49 -57 -75 -26 -12 15 -10 16 19 10 33 -8 47 9
17 20 -8 4 -15 10 -15 15 0 5 7 9 15 9 8 0 15 5 15 11 0 7 -11 8 -32 3 -30 -6
-31 -5 -19 10 8 10 25 16 40 14 20 -2 26 -9 27 -28z m6652 7 c2 -11 -6 -30
-19 -43 l-22 -24 21 0 c12 0 22 -4 22 -10 0 -5 -18 -10 -40 -10 -22 0 -40 4
-40 8 0 5 14 21 30 37 19 19 27 32 20 39 -6 6 -14 5 -23 -2 -18 -15 -30 -3
-15 15 16 20 62 12 66 -10z m132 -33 l0 -55 -37 3 c-36 3 -38 5 -38 38 0 31 3
35 28 38 15 2 27 9 27 18 0 8 5 14 10 14 6 0 10 -25 10 -56z m216 26 c0 -14 4
-31 8 -38 4 -7 2 -20 -5 -28 -15 -18 -71 -15 -77 5 -3 10 3 11 27 6 32 -7 44
8 16 19 -20 7 -19 26 1 26 8 0 12 5 9 10 -3 6 -18 7 -33 3 -25 -6 -26 -5 -13
11 9 10 25 16 40 14 20 -2 26 -9 27 -28z m-8492 4 c11 -4 16 -19 16 -49 l0
-43 -37 1 c-31 2 -39 6 -41 24 -2 17 3 23 27 28 17 4 31 11 31 17 0 6 -13 7
-32 2 -29 -6 -31 -5 -19 10 14 17 29 20 55 10z m96 -5 c0 -4 -7 -9 -15 -13 -9
-3 -15 -19 -15 -41 0 -24 -4 -35 -15 -35 -11 0 -15 12 -15 48 0 47 1 49 30 49
17 0 30 -4 30 -8z m84 -5 c27 -27 20 -44 -20 -44 -23 0 -33 -4 -28 -11 3 -6
17 -8 31 -4 18 4 24 2 21 -7 -6 -18 -46 -22 -64 -8 -20 17 -18 67 4 79 24 15
38 13 56 -5z m164 4 c7 -7 12 -28 12 -48 0 -35 -1 -36 -39 -37 -28 -1 -41 3
-46 15 -6 17 18 42 42 42 7 0 13 5 13 11 0 7 -10 9 -25 5 -25 -6 -36 8 -12 17
22 9 43 7 55 -5z m102 -3 c11 -13 8 -14 -19 -9 -40 8 -40 -4 -1 -17 38 -14 41
-46 5 -55 -28 -7 -55 0 -55 15 0 6 13 8 30 5 17 -4 30 -3 30 0 0 4 -13 12 -30
17 -19 7 -30 18 -30 29 0 30 49 41 70 15z m134 9 c9 -3 16 -12 16 -20 0 -17
-17 -19 -22 -2 -7 21 -40 0 -36 -24 2 -18 9 -23 31 -21 34 2 32 -20 -2 -25
-30 -5 -51 15 -51 49 0 36 29 56 64 43z m96 -5 c0 -4 -7 -9 -15 -13 -9 -3 -15
-19 -15 -41 0 -24 -4 -35 -15 -35 -11 0 -15 12 -15 48 0 47 1 49 30 49 17 0
30 -4 30 -8z m40 -39 c0 -38 -4 -50 -15 -50 -11 0 -15 12 -15 50 0 38 4 50 15
50 11 0 15 -12 15 -50z m88 38 c7 -7 12 -29 12 -49 0 -36 -1 -37 -37 -36 -31
2 -39 6 -41 24 -2 17 3 23 28 28 16 4 28 11 24 16 -3 5 -17 6 -32 2 -24 -6
-26 -5 -13 10 16 20 42 22 59 5z m216 -4 c9 -8 16 -31 16 -49 0 -33 -1 -34
-42 -32 -55 3 -66 32 -19 50 37 14 42 32 6 23 -25 -6 -36 8 -12 17 22 10 35 7
51 -9z m90 10 c26 -10 18 -25 -9 -18 -15 4 -25 2 -25 -5 0 -6 6 -11 13 -11 7
0 22 -6 32 -14 16 -12 17 -16 6 -30 -17 -21 -55 -21 -72 0 -12 15 -10 16 19
10 21 -5 32 -4 32 3 0 6 -9 11 -20 11 -23 0 -35 22 -26 45 6 16 24 19 50 9z
m5930 -10 c9 -8 16 -24 16 -34 0 -39 -52 -64 -78 -38 -26 26 -3 88 33 88 7 0
21 -7 29 -16z m56 5 c0 -8 4 -8 14 0 26 22 46 2 46 -45 0 -24 -4 -44 -10 -44
-5 0 -10 18 -10 41 0 33 -3 40 -17 37 -13 -2 -19 -14 -21 -41 -5 -55 -22 -45
-22 13 0 28 5 50 10 50 6 0 10 -5 10 -11z m156 -3 c10 -8 15 -18 11 -22 -4 -5
-12 -2 -17 5 -13 22 -40 5 -40 -25 0 -24 3 -26 31 -20 27 5 30 4 19 -9 -15
-18 -42 -19 -58 -3 -18 18 -15 65 6 77 23 14 25 13 48 -3z m104 -21 c0 -22 6
-37 18 -44 16 -9 16 -10 0 -16 -9 -4 -22 -4 -28 0 -13 8 -13 95 0 95 6 0 10
-16 10 -35z m60 -15 c0 -27 -4 -50 -10 -50 -5 0 -10 23 -10 50 0 28 5 50 10
50 6 0 10 -22 10 -50z m50 0 c0 -27 -4 -50 -10 -50 -5 0 -10 23 -10 50 0 28 5
50 10 50 6 0 10 -22 10 -50z m194 44 c11 -4 16 -19 16 -48 0 -38 -2 -41 -28
-43 -53 -3 -69 32 -22 48 36 13 41 34 5 25 -25 -6 -36 8 -12 17 18 8 23 8 41
1z m100 0 c26 -10 18 -25 -9 -18 -14 3 -25 2 -25 -4 0 -5 12 -13 26 -16 19 -5
25 -12 22 -29 -2 -17 -10 -22 -32 -22 -16 0 -31 5 -33 11 -2 7 6 10 22 7 32
-7 33 13 0 21 -37 9 -32 51 7 55 3 1 13 -2 22 -5z m605 -18 c19 -22 -3 -66
-33 -66 -32 0 -51 32 -36 60 12 23 52 27 69 6z m-65 -692 c9 -3 16 -15 16 -25
0 -13 7 -19 23 -19 23 0 23 -1 16 -72 -5 -40 -14 -75 -21 -79 -7 -5 -31 -9
-53 -9 -22 0 -46 4 -53 9 -7 4 -16 39 -21 79 -7 71 -7 72 16 72 16 0 23 6 23
19 0 25 24 36 54 25z m-8128 -29 c77 -32 77 -138 -1 -170 -31 -14 -39 -14 -70
0 -50 20 -71 71 -51 120 10 23 27 41 48 50 41 18 33 18 74 0z m292 -22 c-10
-2 -28 -2 -40 0 -13 2 -5 4 17 4 22 1 32 -1 23 -4z m629 -15 c-3 -8 -6 -5 -6
6 -1 11 2 17 5 13 3 -3 4 -12 1 -19z m591 -43 c-5 -5 -1097 -8 -1233 -3 -38 1
31 5 155 8 261 6 1085 2 1078 -5z m-1220 -62 c-10 -2 -28 -2 -40 0 -13 2 -5 4
17 4 22 1 32 -1 23 -4z m799 1 c-3 -3 -12 -4 -19 -1 -8 3 -5 6 6 6 11 1 17 -2
13 -5z m7037 -690 c9 -3 16 -15 16 -25 0 -13 7 -19 23 -19 23 0 23 -1 16 -72
-5 -40 -14 -75 -21 -79 -7 -5 -31 -9 -53 -9 -22 0 -46 4 -53 9 -7 4 -16 39
-21 79 -7 71 -7 72 16 72 16 0 23 6 23 19 0 25 24 36 54 25z m-8094 -59 c35
-36 34 -95 -3 -132 -60 -61 -162 -19 -162 66 0 89 101 130 165 66z m210 -50
c0 -54 0 -55 29 -55 17 0 33 -4 36 -10 4 -6 -12 -10 -39 -10 l-46 0 0 65 c0
37 4 65 10 65 6 0 10 -25 10 -55z m320 25 c0 -27 3 -30 30 -30 27 0 30 3 30
30 0 17 5 30 10 30 6 0 10 -28 10 -65 0 -37 -4 -65 -10 -65 -5 0 -10 14 -10
30 0 27 -3 30 -30 30 -27 0 -30 -3 -30 -30 0 -16 -4 -30 -10 -30 -6 0 -10 28
-10 65 0 37 4 65 10 65 6 0 10 -13 10 -30z m574 8 c15 -25 -3 -52 -38 -56 -20
-3 -26 -9 -26 -28 0 -15 -6 -24 -15 -24 -12 0 -15 14 -15 66 l0 65 41 -3 c27
-2 46 -9 53 -20z m146 2 c0 -14 48 -12 52 2 3 9 10 7 24 -6 13 -14 15 -21 6
-24 -15 -5 -16 -54 0 -70 9 -9 7 -12 -10 -12 -19 0 -22 5 -22 39 0 38 -12 53
-37 44 -19 -7 -16 -54 5 -70 16 -12 15 -13 -8 -11 -21 3 -26 9 -31 48 -3 25
-4 51 -2 58 6 14 23 16 23 2z m-892 -22 c7 -7 12 -20 12 -30 0 -14 -8 -18 -37
-18 -35 0 -36 -1 -21 -17 14 -14 20 -14 33 -3 17 14 31 8 20 -9 -3 -6 -20 -11
-36 -11 -38 0 -58 37 -41 75 13 27 49 34 70 13z m75 -5 c-16 -11 -23 -26 -23
-49 0 -19 -4 -34 -10 -34 -5 0 -10 23 -10 50 0 50 0 50 33 49 32 0 32 0 10
-16z m277 -2 c5 -11 10 -33 10 -50 0 -29 -2 -31 -40 -31 -27 0 -43 5 -46 15
-8 20 13 45 37 45 11 0 19 5 19 11 0 7 -10 9 -25 5 -14 -4 -25 -3 -25 2 0 28
55 30 70 3z m80 10 c0 -5 -9 -11 -20 -14 -15 -4 -20 -14 -20 -41 0 -20 -4 -36
-10 -36 -5 0 -10 23 -10 50 0 49 1 50 30 50 17 0 30 -4 30 -9z m60 -1 c0 -5
-7 -10 -15 -10 -11 0 -15 -11 -15 -40 0 -22 -4 -40 -10 -40 -5 0 -10 23 -10
50 0 47 2 50 25 50 14 0 25 -4 25 -10z m41 -27 l12 -38 12 34 c6 19 17 37 23
39 15 5 16 7 -9 -58 -24 -65 -36 -80 -58 -80 -13 1 -13 3 3 15 17 13 18 19 7
56 -7 23 -15 47 -18 55 -3 8 -1 14 5 14 6 0 16 -17 23 -37z m307 25 c7 -7 12
-24 12 -38 0 -31 -17 -50 -45 -50 -28 0 -45 19 -45 50 0 31 17 50 45 50 12 0
26 -5 33 -12z m232 -7 c17 -32 12 -41 -25 -41 -19 0 -35 -4 -35 -9 0 -14 23
-19 43 -9 12 6 17 5 17 -7 0 -10 -9 -15 -28 -15 -35 0 -52 16 -52 50 0 14 5
31 12 38 18 18 56 14 68 -7z m80 9 c0 -5 -7 -10 -15 -10 -11 0 -15 -11 -15
-40 0 -29 -4 -40 -15 -40 -11 0 -15 12 -15 50 0 49 1 50 30 50 17 0 30 -4 30
-10z m6584 -776 c9 -3 16 -15 16 -25 0 -13 7 -19 23 -19 23 0 23 -1 16 -72 -5
-40 -14 -75 -21 -79 -7 -5 -31 -9 -53 -9 -22 0 -46 4 -53 9 -7 4 -16 39 -21
79 -7 71 -7 72 16 72 16 0 23 6 23 19 0 25 24 36 54 25z m-8128 -29 c77 -32
77 -138 -1 -170 -31 -14 -39 -14 -70 0 -50 20 -71 71 -51 120 10 23 27 41 48
50 41 18 33 18 74 0z m440 -74 c116 -1 154 2 155 12 0 9 2 9 6 -1 4 -9 184
-12 861 -12 1163 1 1136 1 1130 -5 -3 -3 -464 -6 -1024 -6 -1097 0 -1377 2
-1326 8 17 2 32 10 33 16 0 9 2 9 5 0 4 -9 49 -12 160 -12z m1245 -69 c-7 -2
-18 1 -23 6 -8 8 -4 9 13 5 13 -4 18 -8 10 -11z m560 0 c-7 -2 -18 1 -23 6 -8
8 -4 9 13 5 13 -4 18 -8 10 -11z m-1144 2 c-3 -3 -12 -4 -19 -1 -8 3 -5 6 6 6
11 1 17 -2 13 -5z m310 0 c-3 -3 -12 -4 -19 -1 -8 3 -5 6 6 6 11 1 17 -2 13
-5z m440 0 c-3 -3 -12 -4 -19 -1 -8 3 -5 6 6 6 11 1 17 -2 13 -5z m110 0 c-3
-3 -12 -4 -19 -1 -8 3 -5 6 6 6 11 1 17 -2 13 -5z"/>
<path d="M5460 7450 c-11 -22 -25 -64 -30 -92 -6 -29 -19 -61 -30 -73 -25 -27
-26 -39 -1 -25 27 14 29 13 33 -12 3 -20 10 -23 51 -26 43 -3 48 -1 57 23 8
22 13 24 30 15 25 -13 26 1 1 24 -11 10 -21 36 -24 66 -6 48 -37 123 -56 135
-6 3 -20 -13 -31 -35z m50 -75 c17 -20 5 -45 -20 -45 -23 0 -35 22 -26 45 7
19 30 19 46 0z"/>
<path d="M6099 7354 c-7 -9 -14 -33 -14 -54 0 -42 18 -70 46 -70 23 0 39 29
39 70 0 62 -40 92 -71 54z"/>
<path d="M10198 6169 c-34 -13 -51 -58 -37 -98 13 -37 56 -54 98 -40 61 21 60
117 -1 138 -17 6 -31 11 -32 10 -1 0 -13 -5 -28 -10z m42 -44 c0 -8 9 -15 20
-15 11 0 20 -4 20 -10 0 -5 -9 -10 -20 -10 -13 0 -20 -7 -20 -20 0 -11 -4 -20
-10 -20 -5 0 -10 9 -10 20 0 11 -7 20 -15 20 -8 0 -15 5 -15 10 0 6 7 10 15
10 8 0 15 7 15 15 0 8 5 15 10 15 6 0 10 -7 10 -15z"/>
<path d="M9915 6100 c-3 -5 1 -10 10 -10 9 0 13 5 10 10 -3 6 -8 10 -10 10 -2
0 -7 -4 -10 -10z"/>
<path d="M9915 6060 c-3 -5 -2 -10 4 -10 5 0 13 5 16 10 3 6 2 10 -4 10 -5 0
-13 -4 -16 -10z"/>
<path d="M2777 4825 c-9 -22 3 -46 22 -43 10 2 16 13 16 28 0 28 -29 40 -38
15z"/>
<path d="M9424 4826 c-9 -24 4 -48 23 -44 12 2 18 12 18 28 0 29 -32 41 -41
16z"/>
<path d="M10140 4810 c0 -11 4 -20 9 -20 11 0 22 26 14 34 -12 12 -23 5 -23
-14z"/>
<path d="M1870 4790 c0 -5 9 -10 20 -10 11 0 20 5 20 10 0 6 -9 10 -20 10 -11
0 -20 -4 -20 -10z"/>
<path d="M2045 4830 c-4 -6 5 -10 20 -10 15 0 24 4 20 10 -3 6 -12 10 -20 10
-8 0 -17 -4 -20 -10z"/>
<path d="M2210 4790 c0 -5 7 -10 15 -10 8 0 15 5 15 10 0 6 -7 10 -15 10 -8 0
-15 -4 -15 -10z"/>
<path d="M2670 4790 c0 -5 6 -10 14 -10 8 0 18 5 21 10 3 6 -3 10 -14 10 -12
0 -21 -4 -21 -10z"/>
<path d="M2885 4790 c-3 -5 3 -10 14 -10 12 0 21 5 21 10 0 6 -6 10 -14 10 -8
0 -18 -4 -21 -10z"/>
<path d="M8904 4826 c-9 -24 4 -48 23 -44 12 2 18 12 18 28 0 29 -32 41 -41
16z"/>
<path d="M9548 4802 c-22 -4 -23 -18 -3 -26 9 -3 18 1 22 10 7 18 3 21 -19 16z"/>
<path d="M10238 4823 c7 -3 16 -2 19 1 4 3 -2 6 -13 5 -11 0 -14 -3 -6 -6z"/>
<path d="M10238 4793 c7 -3 16 -2 19 1 4 3 -2 6 -13 5 -11 0 -14 -3 -6 -6z"/>
<path d="M10170 4115 c0 -9 9 -15 25 -15 16 0 25 6 25 15 0 9 -9 15 -25 15
-16 0 -25 -6 -25 -15z"/>
<path d="M10130 4071 c0 -10 3 -39 6 -65 l7 -46 52 0 52 0 7 46 c12 87 14 84
-59 84 -57 0 -65 -2 -65 -19z m47 -63 c-2 -13 -4 -5 -4 17 -1 22 1 32 4 23 2
-10 2 -28 0 -40z m40 0 c-2 -13 -4 -5 -4 17 -1 22 1 32 4 23 2 -10 2 -28 0
-40z"/>
<path d="M2064 4045 c-13 -20 -19 -22 -34 -12 -11 6 -22 8 -26 4 -9 -8 25 -47
41 -47 13 0 55 53 55 70 0 18 -19 11 -36 -15z"/>
<path d="M10170 3255 c0 -9 9 -15 25 -15 16 0 25 6 25 15 0 9 -9 15 -25 15
-16 0 -25 -6 -25 -15z"/>
<path d="M10130 3211 c0 -10 3 -39 6 -65 l7 -46 52 0 52 0 7 46 c12 87 14 84
-59 84 -57 0 -65 -2 -65 -19z m47 -63 c-2 -13 -4 -5 -4 17 -1 22 1 32 4 23 2
-10 2 -28 0 -40z m40 0 c-2 -13 -4 -5 -4 17 -1 22 1 32 4 23 2 -10 2 -28 0
-40z"/>
<path d="M1992 3217 c-50 -53 -13 -137 59 -137 47 0 79 34 79 81 0 71 -90 107
-138 56z"/>
<path d="M3160 3185 c0 -28 21 -33 40 -10 15 18 5 35 -21 35 -14 0 -19 -7 -19
-25z"/>
<path d="M2425 3170 c-4 -6 5 -10 19 -10 14 0 26 5 26 10 0 6 -9 10 -19 10
-11 0 -23 -4 -26 -10z"/>
<path d="M2773 3128 c2 -7 10 -13 17 -13 7 0 15 6 18 13 2 7 -5 12 -18 12 -13
0 -20 -5 -17 -12z"/>
<path d="M3267 3174 c-12 -13 -7 -52 7 -57 18 -7 39 17 34 40 -3 18 -29 29
-41 17z"/>
<path d="M3495 3170 c-4 -6 5 -10 20 -10 15 0 24 4 20 10 -3 6 -12 10 -20 10
-8 0 -17 -4 -20 -10z"/>
<path d="M10170 2385 c0 -9 9 -15 25 -15 16 0 25 6 25 15 0 9 -9 15 -25 15
-16 0 -25 -6 -25 -15z"/>
<path d="M10130 2341 c0 -10 3 -39 6 -65 l7 -46 52 0 52 0 7 46 c12 87 14 84
-59 84 -57 0 -65 -2 -65 -19z m47 -63 c-2 -13 -4 -5 -4 17 -1 22 1 32 4 23 2
-10 2 -28 0 -40z m40 0 c-2 -13 -4 -5 -4 17 -1 22 1 32 4 23 2 -10 2 -28 0
-40z"/>
<path d="M2064 2315 c-13 -20 -19 -22 -34 -12 -11 6 -22 8 -26 4 -9 -8 25 -47
41 -47 13 0 55 53 55 70 0 18 -19 11 -36 -15z"/>
</g>
</svg>
