<svg width="25" height="24" viewBox="0 0 25 24" fill="none" xmlns="http://www.w3.org/2000/svg">
<path d="M12.25 1.5C6.45156 1.5 1.75 6.32344 1.75 12.2672C1.75 17.025 4.75937 21.0562 8.93125 22.4812C8.98977 22.494 9.04949 22.5002 9.10938 22.5C9.49844 22.5 9.64844 22.2141 9.64844 21.9656C9.64844 21.7078 9.63906 21.0328 9.63437 20.1328C9.28705 20.2142 8.93173 20.2567 8.575 20.2594C6.55469 20.2594 6.09531 18.6891 6.09531 18.6891C5.61719 17.4469 4.92813 17.1141 4.92813 17.1141C4.01406 16.4719 4.92344 16.4531 4.99375 16.4531H4.99844C6.05313 16.5469 6.60625 17.5687 6.60625 17.5687C7.13125 18.4875 7.83437 18.7453 8.4625 18.7453C8.87783 18.737 9.28673 18.6412 9.6625 18.4641C9.75625 17.7703 10.0281 17.2969 10.3281 17.025C7.99844 16.7531 5.54688 15.8297 5.54688 11.7047C5.54688 10.5281 5.95469 9.56719 6.625 8.81719C6.51719 8.54531 6.15625 7.44844 6.72812 5.96719C6.80483 5.94883 6.88368 5.94095 6.9625 5.94375C7.34219 5.94375 8.2 6.08906 9.61563 7.07344C11.3357 6.59218 13.1549 6.59218 14.875 7.07344C16.2906 6.08906 17.1484 5.94375 17.5281 5.94375C17.607 5.94095 17.6858 5.94883 17.7625 5.96719C18.3344 7.44844 17.9734 8.54531 17.8656 8.81719C18.5359 9.57187 18.9437 10.5328 18.9437 11.7047C18.9437 15.8391 16.4875 16.7484 14.1484 17.0156C14.5234 17.3484 14.8609 18.0047 14.8609 19.0078C14.8609 20.4469 14.8469 21.6094 14.8469 21.9609C14.8469 22.2141 14.9922 22.5 15.3812 22.5C15.4442 22.5003 15.5071 22.494 15.5687 22.4812C19.7453 21.0562 22.75 17.0203 22.75 12.2672C22.75 6.32344 18.0484 1.5 12.25 1.5Z" fill="white"/>
</svg>
