<?xml version="1.0" standalone="no"?>
<!DOCTYPE svg PUBLIC "-//W3C//DTD SVG 20010904//EN"
 "http://www.w3.org/TR/2001/REC-SVG-20010904/DTD/svg10.dtd">
<svg version="1.0" xmlns="http://www.w3.org/2000/svg"
 width="1783.000000pt" height="895.000000pt" viewBox="0 0 1783.000000 895.000000"
 preserveAspectRatio="xMidYMid meet">

<g transform="translate(0.000000,895.000000) scale(0.100000,-0.100000)"
fill="#000000" stroke="none">
<path d="M0 4475 l0 -4475 8915 0 8915 0 0 2835 0 2835 -28 1 -27 1 30 8 c17
4 -325 8 -760 9 -448 1 -784 5 -776 10 11 7 11 9 0 14 -10 4 -9 6 4 6 9 1 17
-3 17 -9 0 -5 8 -10 18 -10 14 0 15 2 2 10 -13 8 -12 10 3 10 9 0 17 -4 17
-10 0 -5 8 -10 18 -10 14 0 15 2 2 10 -13 8 -12 10 3 10 9 0 17 -4 17 -10 0
-5 8 -10 18 -10 14 0 15 2 2 10 -13 8 -12 10 3 10 9 0 17 -4 17 -10 0 -5 8
-10 18 -10 14 0 15 2 2 10 -13 8 -12 10 3 10 9 0 17 -4 17 -10 0 -5 8 -10 18
-10 14 0 15 2 2 10 -13 8 -12 10 3 10 9 0 17 -4 17 -10 0 -5 8 -10 18 -10 14
0 15 2 2 10 -13 8 -12 10 3 10 9 0 17 -4 17 -10 0 -5 8 -10 18 -10 14 0 15 2
2 10 -13 8 -12 10 3 10 9 0 17 -4 17 -10 0 -5 8 -10 18 -10 14 0 15 2 2 10
-13 8 -12 10 3 10 9 0 17 -4 17 -10 0 -5 8 -10 18 -10 14 0 15 2 2 10 -13 8
-12 10 3 10 9 0 17 -4 17 -10 0 -5 8 -10 18 -10 14 0 15 2 2 10 -13 8 -12 10
3 10 9 0 17 -4 17 -10 0 -5 8 -10 18 -10 14 0 15 2 2 10 -13 8 -12 10 3 10 9
0 17 -4 17 -10 0 -5 8 -10 18 -10 14 0 15 2 2 10 -13 8 -12 10 3 10 9 0 17 -4
17 -10 0 -5 8 -10 18 -10 14 0 15 2 2 10 -13 8 -12 10 3 10 9 0 17 -4 17 -10
0 -5 8 -10 18 -10 14 0 15 2 2 10 -13 8 -12 10 3 10 9 0 17 -4 17 -10 0 -5 8
-10 18 -10 14 0 15 2 2 10 -13 8 -12 10 3 10 9 0 17 -4 17 -10 0 -5 8 -10 18
-10 14 0 15 2 2 10 -13 8 -12 10 3 10 9 0 17 -4 17 -10 0 -5 8 -10 18 -10 14
0 15 2 2 10 -13 8 -12 10 3 10 9 0 17 -4 17 -10 0 -5 8 -10 18 -10 14 0 15 2
2 10 -13 8 -12 10 3 10 9 0 17 -4 17 -10 0 -5 8 -10 18 -10 14 0 15 2 2 10
-13 8 -12 10 3 10 9 0 17 -4 17 -10 0 -5 8 -10 18 -10 14 0 15 2 2 10 -13 8
-12 10 3 10 9 0 17 -4 17 -10 0 -5 8 -10 18 -10 14 0 15 2 2 10 -13 8 -12 10
3 10 9 0 17 -4 17 -10 0 -5 8 -10 18 -10 14 0 15 2 2 10 -13 8 -12 10 3 10 9
0 17 -4 17 -10 0 -5 8 -10 18 -10 14 0 15 2 2 10 -13 8 -12 10 3 10 9 0 17 -4
17 -10 0 -5 8 -10 18 -10 14 0 15 2 2 10 -13 8 -12 10 3 10 9 0 17 -4 17 -10
0 -5 8 -10 18 -10 14 0 15 2 2 10 -13 8 -12 10 3 10 9 0 17 -4 17 -10 0 -5 8
-10 18 -10 14 0 15 2 2 10 -13 8 -12 10 3 10 9 0 17 -4 17 -10 0 -5 8 -10 18
-10 14 0 15 2 2 10 -13 8 -12 10 3 10 9 0 17 -4 17 -10 0 -5 8 -10 18 -10 14
0 15 2 2 10 -13 8 -12 10 3 10 9 0 17 -4 17 -10 0 -5 8 -10 18 -10 14 0 15 2
2 10 -13 8 -12 10 3 10 9 0 17 -4 17 -10 0 -5 8 -10 18 -10 14 0 15 2 2 10
-13 8 -12 10 3 10 9 0 17 -4 17 -10 0 -5 8 -10 18 -10 14 0 15 2 2 10 -13 8
-12 10 3 10 9 0 17 -4 17 -10 0 -5 8 -10 18 -10 14 0 15 2 2 10 -13 8 -12 10
3 10 9 0 17 -4 17 -10 0 -5 8 -10 18 -10 14 0 15 2 2 10 -13 8 -12 10 3 10 9
0 17 -4 17 -10 0 -5 8 -10 18 -10 14 0 15 2 2 10 -13 8 -12 10 3 10 9 0 17 -4
17 -10 0 -5 8 -10 18 -10 14 0 15 2 2 10 -13 8 -12 10 3 10 9 0 17 -4 17 -10
0 -5 8 -10 18 -10 14 0 15 2 2 10 -13 8 -12 10 3 10 9 0 17 -4 17 -10 0 -5 8
-10 18 -10 14 0 15 2 2 10 -13 8 -12 10 3 10 9 0 17 -4 17 -10 0 -5 8 -10 18
-10 14 0 15 2 2 10 -13 8 -12 10 3 10 9 0 17 -4 17 -10 0 -5 3 -10 8 -10 4 0
8 16 9 35 l2 35 -787 2 -787 3 790 5 790 5 -790 5 -790 5 790 5 790 5 -787 3
-788 2 0 890 c0 759 2 896 15 926 27 66 2 64 820 64 l735 0 0 630 0 630 -8915
0 -8915 0 0 -4475z m2210 4236 c0 -20 -25 -35 -41 -25 -5 3 -9 14 -9 25 0 14
7 19 25 19 18 0 25 -5 25 -19z m476 8 c3 -6 -1 -18 -10 -27 -15 -15 -17 -15
-32 0 -19 19 -11 38 16 38 10 0 22 -5 26 -11z m94 -34 c0 -16 6 -25 15 -25 8
0 15 -9 15 -20 0 -11 -7 -20 -15 -20 -11 0 -15 -12 -15 -51 0 -43 3 -52 20
-56 29 -8 21 -37 -11 -41 -42 -5 -59 21 -59 88 0 42 -4 59 -15 64 -8 3 -15 12
-15 21 0 8 7 15 15 15 9 0 15 9 15 25 0 20 5 25 25 25 20 0 25 -5 25 -25z
m-570 -120 c0 -95 0 -95 -25 -95 -25 0 -25 0 -25 95 0 95 0 95 25 95 25 0 25
0 25 -95z m200 0 c0 -52 -5 -105 -11 -118 -19 -42 -74 -58 -124 -35 -29 13
-31 21 -11 37 10 8 16 9 21 1 11 -17 54 -11 65 9 9 18 7 19 -24 14 -49 -8 -86
30 -86 87 0 42 14 79 34 92 6 4 39 7 73 7 l63 -1 0 -93z m180 75 c5 -10 10
-53 10 -94 0 -74 -1 -76 -25 -76 -23 0 -24 3 -27 73 -3 69 -4 72 -28 72 -24 0
-25 -3 -28 -72 -3 -70 -4 -73 -27 -73 -25 0 -25 1 -25 94 l0 94 70 0 c59 1 72
-2 80 -18z m98 -72 c-3 -92 -3 -93 -28 -93 -25 0 -25 1 -28 93 l-3 92 31 0 31
0 -3 -92z m286 73 c9 -10 20 -35 23 -55 l6 -36 -62 0 c-65 0 -79 -12 -35 -32
19 -9 30 -9 44 0 14 9 21 8 30 -3 8 -10 6 -17 -12 -29 -27 -19 -61 -20 -91 -4
-35 18 -46 40 -47 86 0 32 6 49 25 67 30 31 93 34 119 6z m-1147 -68 c-2 -10
-19 -73 -37 -140 -18 -68 -36 -123 -39 -123 -4 0 -52 46 -109 103 l-102 103
132 36 c157 43 162 44 155 21z m453 -257 c0 -20 4 -23 21 -19 28 8 49 -20 49
-63 0 -49 -18 -51 -22 -2 -2 35 -7 43 -23 43 -16 0 -21 -8 -23 -42 -5 -72 -22
-48 -22 32 0 43 4 75 10 75 6 0 10 -11 10 -24z m-52 -28 c7 -7 12 -16 12 -22
0 -6 -5 -5 -12 2 -14 14 -48 16 -48 3 0 -5 14 -14 30 -20 38 -13 41 -48 5 -57
-26 -6 -55 9 -55 29 0 7 4 7 12 -1 15 -15 48 -16 48 -2 0 6 -11 15 -24 20 -32
12 -41 28 -26 45 15 18 42 19 58 3z m216 -4 c31 -30 12 -94 -27 -94 -31 0 -47
18 -47 55 0 51 41 73 74 39z m113 4 c18 -14 16 -73 -2 -88 -8 -7 -24 -10 -35
-7 -16 4 -20 0 -20 -19 0 -13 -4 -24 -10 -24 -6 0 -10 31 -10 73 l0 74 32 1
c18 0 38 -4 45 -10z m5399 -613 c68 -28 65 14 64 -975 l-1 -890 -980 0 -979 0
-64 65 c-35 35 -60 68 -57 71 3 4 1 4 -5 1 -7 -4 -22 2 -35 12 -13 10 -58 35
-99 55 -41 21 -86 43 -100 50 -14 7 -45 19 -70 26 -25 7 -52 19 -60 26 -8 6
-26 15 -40 19 -53 14 -270 129 -328 174 -34 25 -74 64 -90 86 -35 49 -101 83
-184 96 -35 5 -229 8 -439 7 l-376 -3 -35 -35 c-100 -97 -303 -237 -408 -280
-19 -8 -39 -18 -45 -22 -5 -5 -68 -38 -139 -74 -176 -89 -289 -163 -378 -246
l-30 -28 -1049 0 -1049 0 0 890 c0 985 -2 947 62 975 50 22 6861 22 6914 0z
m7640 0 c68 -28 65 14 64 -975 l-1 -890 -980 0 -979 0 -64 65 c-35 35 -60 68
-57 71 3 4 1 4 -5 1 -7 -4 -22 2 -35 12 -13 10 -58 35 -99 55 -41 21 -86 43
-100 50 -14 7 -45 19 -70 26 -25 7 -52 19 -60 26 -8 6 -33 17 -54 24 -45 14
-235 111 -281 143 -52 36 -99 79 -126 116 -31 44 -99 79 -176 91 -87 15 -789
13 -816 -2 -12 -6 -34 -23 -48 -37 -99 -97 -381 -283 -426 -280 -3 1 -9 -3
-12 -8 -3 -4 -42 -26 -86 -48 -203 -101 -344 -190 -435 -275 l-32 -30 -1049 0
-1049 0 0 890 c0 985 -2 947 62 975 50 22 6861 22 6914 0z m-13043 -1882
c-287 -2 -759 -2 -1050 0 -290 1 -55 2 522 2 578 0 815 -1 528 -2z m4979 0
c-270 -2 -714 -2 -985 0 -270 1 -49 2 493 2 542 0 763 -1 492 -2z m2661 0
c-287 -2 -759 -2 -1050 0 -290 1 -55 2 522 2 578 0 815 -1 528 -2z m4980 0
c-271 -2 -715 -2 -985 0 -271 1 -50 2 492 2 542 0 763 -1 493 -2z m-12645 -20
c-285 -2 -751 -2 -1035 0 -285 1 -52 2 517 2 569 0 802 -1 518 -2z m5004 0
c-272 -2 -713 -2 -980 0 -268 1 -46 2 493 2 539 0 758 -1 487 -2z m2636 0
c-285 -2 -751 -2 -1035 0 -285 1 -52 2 517 2 569 0 802 -1 518 -2z m5010 0
c-269 -2 -707 -2 -975 0 -269 1 -49 2 487 2 536 0 756 -1 488 -2z m-14168 -63
c0 -5 8 -10 18 -10 14 0 15 2 2 10 -13 8 -12 10 3 10 9 0 17 -4 17 -10 0 -5 8
-10 18 -10 14 0 15 2 2 10 -13 8 -12 10 3 10 9 0 17 -4 17 -10 0 -5 8 -10 18
-10 14 0 15 2 2 10 -13 8 -12 10 3 10 9 0 17 -4 17 -10 0 -5 8 -10 18 -10 14
0 15 2 2 10 -13 8 -12 10 3 10 9 0 17 -4 17 -10 0 -5 8 -10 18 -10 14 0 15 2
2 10 -13 8 -12 10 3 10 9 0 17 -4 17 -10 0 -5 8 -10 18 -10 14 0 15 2 2 10
-13 8 -12 10 3 10 9 0 17 -4 17 -10 0 -5 8 -10 18 -10 14 0 15 2 2 10 -13 8
-12 10 3 10 9 0 17 -4 17 -10 0 -5 8 -10 18 -10 14 0 15 2 2 10 -13 8 -12 10
3 10 9 0 17 -4 17 -10 0 -5 8 -10 18 -10 14 0 15 2 2 10 -13 8 -12 10 3 10 9
0 17 -4 17 -10 0 -5 8 -10 18 -10 14 0 15 2 2 10 -13 8 -12 10 3 10 9 0 17 -4
17 -10 0 -5 8 -10 18 -10 14 0 15 2 2 10 -13 8 -12 10 3 10 9 0 17 -4 17 -10
0 -5 8 -10 18 -10 14 0 15 2 2 10 -13 8 -12 10 3 10 9 0 17 -4 17 -10 0 -5 8
-10 18 -10 14 0 15 2 2 10 -13 8 -12 10 3 10 9 0 17 -4 17 -10 0 -5 8 -10 18
-10 14 0 15 2 2 10 -13 8 -12 10 3 10 9 0 17 -4 17 -10 0 -5 8 -10 18 -10 14
0 15 2 2 10 -13 8 -12 10 3 10 9 0 17 -4 17 -10 0 -5 8 -10 18 -10 14 0 15 2
2 10 -13 8 -12 10 3 10 9 0 17 -4 17 -10 0 -5 8 -10 18 -10 14 0 15 2 2 10
-13 8 -12 10 3 10 9 0 17 -4 17 -10 0 -5 8 -10 18 -10 14 0 15 2 2 10 -13 8
-12 10 3 10 9 0 17 -4 17 -10 0 -5 8 -10 18 -10 14 0 15 2 2 10 -13 8 -12 10
3 10 9 0 17 -4 17 -10 0 -5 8 -10 18 -10 14 0 15 2 2 10 -13 8 -12 10 3 10 9
0 17 -4 17 -10 0 -5 8 -10 18 -10 14 0 15 2 2 10 -13 8 -12 10 3 10 9 0 17 -4
17 -10 0 -5 8 -10 18 -10 14 0 15 2 2 10 -13 8 -12 10 3 10 9 0 17 -4 17 -10
0 -5 8 -10 18 -10 14 0 15 2 2 10 -13 8 -12 10 3 10 9 0 17 -4 17 -10 0 -5 8
-10 18 -10 14 0 15 2 2 10 -13 8 -12 10 3 10 9 0 17 -4 17 -10 0 -5 8 -10 18
-10 14 0 15 2 2 10 -13 8 -12 10 3 10 9 0 17 -4 17 -10 0 -5 8 -10 18 -10 14
0 15 2 2 10 -13 8 -12 10 3 10 9 0 17 -4 17 -10 0 -5 8 -10 18 -10 14 0 15 2
2 10 -13 8 -12 10 3 10 9 0 17 -4 17 -10 0 -5 8 -10 18 -10 14 0 15 2 2 10
-13 8 -12 10 3 10 9 0 17 -4 17 -10 0 -5 8 -10 18 -10 14 0 15 2 2 10 -13 8
-12 10 3 10 9 0 17 -4 17 -10 0 -5 8 -10 18 -10 14 0 15 2 2 10 -13 8 -12 10
3 10 9 0 17 -4 17 -10 0 -5 8 -10 18 -10 14 0 15 2 2 10 -13 8 -12 10 3 10 9
0 17 -4 17 -10 0 -5 8 -10 18 -10 14 0 15 2 2 10 -13 8 -12 10 3 10 9 0 17 -4
17 -10 0 -5 8 -10 18 -10 14 0 15 2 2 10 -13 8 -12 10 3 10 9 0 17 -4 17 -10
0 -5 8 -10 18 -10 14 0 15 2 2 10 -13 8 -12 10 3 10 9 0 17 -4 17 -10 0 -5 8
-10 18 -10 14 0 15 2 2 10 -13 8 -12 10 3 10 9 0 17 -4 17 -10 0 -5 8 -10 18
-10 14 0 15 2 2 10 -13 8 -12 10 3 10 9 0 17 -4 17 -10 0 -5 8 -10 18 -10 14
0 15 2 2 10 -13 8 -12 10 3 10 9 0 17 -4 17 -10 0 -5 8 -10 18 -10 14 0 15 2
2 10 -13 8 -12 10 3 10 9 0 17 -4 17 -10 0 -5 8 -10 18 -10 14 0 15 2 2 10
-13 8 -12 10 3 10 9 0 17 -4 17 -10 0 -5 8 -10 18 -10 14 0 15 2 2 10 -13 8
-12 10 3 10 9 0 17 -4 17 -10 0 -5 8 -10 18 -10 14 0 15 2 2 10 -13 8 -12 10
3 10 9 0 17 -4 17 -10 0 -5 8 -10 18 -10 14 0 15 2 2 10 -13 8 -12 10 3 10 9
0 17 -4 17 -10 0 -5 8 -10 18 -10 14 0 15 2 2 10 -13 8 -12 10 3 10 9 0 17 -4
17 -10 0 -5 8 -10 18 -10 14 0 15 2 2 10 -13 8 -12 10 3 10 9 0 17 -4 17 -10
0 -5 8 -10 18 -10 14 0 15 2 2 10 -13 8 -12 10 3 10 9 0 17 -4 17 -10 0 -5 8
-10 18 -10 14 0 15 2 2 10 -13 8 -12 10 3 10 9 0 17 -4 17 -10 0 -5 8 -10 18
-10 14 0 15 2 2 10 -13 8 -12 10 3 10 9 0 17 -4 17 -10 0 -5 8 -10 18 -10 14
0 15 2 2 10 -13 8 -12 10 3 10 9 0 17 -4 17 -10 0 -5 8 -10 18 -10 14 0 15 2
2 10 -13 8 -13 10 1 10 9 0 19 -7 23 -15 5 -13 -110 -15 -997 -14 -551 0 -996
3 -988 6 11 5 11 7 0 14 -11 7 -10 9 4 9 9 0 17 -4 17 -10z m5120 0 c0 -5 8
-10 18 -10 14 0 15 2 2 10 -13 8 -12 10 3 10 9 0 17 -4 17 -10 0 -5 8 -10 18
-10 14 0 15 2 2 10 -13 8 -12 10 3 10 9 0 17 -4 17 -10 0 -5 8 -10 18 -10 14
0 15 2 2 10 -13 8 -12 10 3 10 9 0 17 -4 17 -10 0 -5 8 -10 18 -10 14 0 15 2
2 10 -13 8 -12 10 3 10 9 0 17 -4 17 -10 0 -5 8 -10 18 -10 14 0 15 2 2 10
-13 8 -12 10 3 10 9 0 17 -4 17 -10 0 -5 8 -10 18 -10 14 0 15 2 2 10 -13 8
-12 10 3 10 9 0 17 -4 17 -10 0 -5 8 -10 18 -10 14 0 15 2 2 10 -13 8 -12 10
3 10 9 0 17 -4 17 -10 0 -5 8 -10 18 -10 14 0 15 2 2 10 -13 8 -12 10 3 10 9
0 17 -4 17 -10 0 -5 8 -10 18 -10 14 0 15 2 2 10 -13 8 -12 10 3 10 9 0 17 -4
17 -10 0 -5 8 -10 18 -10 14 0 15 2 2 10 -13 8 -12 10 3 10 9 0 17 -4 17 -10
0 -5 8 -10 18 -10 14 0 15 2 2 10 -13 8 -12 10 3 10 9 0 17 -4 17 -10 0 -5 8
-10 18 -10 14 0 15 2 2 10 -13 8 -12 10 3 10 9 0 17 -4 17 -10 0 -5 8 -10 18
-10 14 0 15 2 2 10 -13 8 -12 10 3 10 9 0 17 -4 17 -10 0 -5 8 -10 18 -10 14
0 15 2 2 10 -13 8 -12 10 3 10 9 0 17 -4 17 -10 0 -5 8 -10 18 -10 14 0 15 2
2 10 -13 8 -12 10 3 10 9 0 17 -4 17 -10 0 -5 8 -10 18 -10 14 0 15 2 2 10
-13 8 -12 10 3 10 9 0 17 -4 17 -10 0 -5 8 -10 18 -10 14 0 15 2 2 10 -13 8
-12 10 3 10 9 0 17 -4 17 -10 0 -5 8 -10 18 -10 14 0 15 2 2 10 -13 8 -12 10
3 10 9 0 17 -4 17 -10 0 -5 8 -10 18 -10 14 0 15 2 2 10 -13 8 -12 10 3 10 9
0 17 -4 17 -10 0 -5 8 -10 18 -10 14 0 15 2 2 10 -13 8 -12 10 3 10 9 0 17 -4
17 -10 0 -5 8 -10 18 -10 14 0 15 2 2 10 -13 8 -12 10 3 10 9 0 17 -4 17 -10
0 -5 8 -10 18 -10 14 0 15 2 2 10 -13 8 -12 10 3 10 9 0 17 -4 17 -10 0 -5 8
-10 18 -10 14 0 15 2 2 10 -13 8 -12 10 3 10 9 0 17 -4 17 -10 0 -5 8 -10 18
-10 14 0 15 2 2 10 -13 8 -12 10 3 10 9 0 17 -4 17 -10 0 -5 8 -10 18 -10 14
0 15 2 2 10 -13 8 -12 10 3 10 9 0 17 -4 17 -10 0 -5 8 -10 18 -10 14 0 15 2
2 10 -13 8 -12 10 3 10 9 0 17 -4 17 -10 0 -5 8 -10 18 -10 14 0 15 2 2 10
-13 8 -12 10 3 10 9 0 17 -4 17 -10 0 -5 8 -10 18 -10 14 0 15 2 2 10 -13 8
-12 10 3 10 9 0 17 -4 17 -10 0 -5 8 -10 18 -10 14 0 15 2 2 10 -13 8 -12 10
3 10 9 0 17 -4 17 -10 0 -5 8 -10 18 -10 14 0 15 2 2 10 -13 8 -12 10 3 10 9
0 17 -4 17 -10 0 -5 8 -10 18 -10 14 0 15 2 2 10 -13 8 -12 10 3 10 9 0 17 -4
17 -10 0 -5 8 -10 18 -10 14 0 15 2 2 10 -13 8 -12 10 3 10 9 0 17 -4 17 -10
0 -5 8 -10 18 -10 14 0 15 2 2 10 -13 8 -12 10 3 10 9 0 17 -4 17 -10 0 -5 8
-10 18 -10 14 0 15 2 2 10 -13 8 -12 10 3 10 9 0 17 -4 17 -10 0 -5 8 -10 18
-10 14 0 15 2 2 10 -13 8 -12 10 3 10 9 0 17 -4 17 -10 0 -5 8 -10 18 -10 14
0 15 2 2 10 -13 8 -12 10 3 10 9 0 17 -4 17 -10 0 -5 8 -10 18 -10 14 0 15 2
2 10 -13 8 -12 10 3 10 9 0 17 -4 17 -10 0 -5 8 -10 18 -10 14 0 15 2 2 10
-13 8 -12 10 3 10 9 0 17 -4 17 -10 0 -5 8 -10 18 -10 14 0 15 2 2 10 -13 8
-12 10 3 10 9 0 17 -4 17 -10 0 -5 8 -10 18 -10 14 0 15 2 2 10 -13 8 -12 10
3 10 9 0 17 -4 17 -10 0 -5 8 -10 18 -10 14 0 15 2 2 10 -13 8 -12 10 3 10 9
0 17 -4 17 -10 0 -5 8 -10 18 -10 14 0 15 2 2 10 -13 8 -12 10 3 10 9 0 17 -4
17 -10 0 -5 8 -10 18 -10 14 0 15 2 2 10 -13 8 -12 10 3 10 9 0 17 -4 17 -10
0 -5 8 -10 18 -10 14 0 15 2 2 10 -13 8 -12 10 3 10 9 0 17 -4 17 -10 0 -5 8
-10 18 -10 14 0 15 2 2 10 -13 8 -12 10 3 10 9 0 17 -4 17 -10 0 -5 8 -10 18
-10 14 0 15 2 2 10 -13 8 -12 10 3 10 9 0 17 -4 17 -10 0 -5 8 -10 18 -10 14
0 15 2 2 10 -13 8 -13 10 1 10 9 0 19 -7 23 -15 5 -13 -104 -15 -943 -15 -834
0 -950 2 -955 15 -3 8 -1 15 4 15 6 0 10 -4 10 -10z m2520 0 c0 -5 8 -10 18
-10 14 0 15 2 2 10 -13 8 -12 10 3 10 9 0 17 -4 17 -10 0 -5 8 -10 18 -10 14
0 15 2 2 10 -13 8 -12 10 3 10 9 0 17 -4 17 -10 0 -5 8 -10 18 -10 14 0 15 2
2 10 -13 8 -12 10 3 10 9 0 17 -4 17 -10 0 -5 8 -10 18 -10 14 0 15 2 2 10
-13 8 -12 10 3 10 9 0 17 -4 17 -10 0 -5 8 -10 18 -10 14 0 15 2 2 10 -13 8
-12 10 3 10 9 0 17 -4 17 -10 0 -5 8 -10 18 -10 14 0 15 2 2 10 -13 8 -12 10
3 10 9 0 17 -4 17 -10 0 -5 8 -10 18 -10 14 0 15 2 2 10 -13 8 -12 10 3 10 9
0 17 -4 17 -10 0 -5 8 -10 18 -10 14 0 15 2 2 10 -13 8 -12 10 3 10 9 0 17 -4
17 -10 0 -5 8 -10 18 -10 14 0 15 2 2 10 -13 8 -12 10 3 10 9 0 17 -4 17 -10
0 -5 8 -10 18 -10 14 0 15 2 2 10 -13 8 -12 10 3 10 9 0 17 -4 17 -10 0 -5 8
-10 18 -10 14 0 15 2 2 10 -13 8 -12 10 3 10 9 0 17 -4 17 -10 0 -5 8 -10 18
-10 14 0 15 2 2 10 -13 8 -12 10 3 10 9 0 17 -4 17 -10 0 -5 8 -10 18 -10 14
0 15 2 2 10 -13 8 -12 10 3 10 9 0 17 -4 17 -10 0 -5 8 -10 18 -10 14 0 15 2
2 10 -13 8 -12 10 3 10 9 0 17 -4 17 -10 0 -5 8 -10 18 -10 14 0 15 2 2 10
-13 8 -12 10 3 10 9 0 17 -4 17 -10 0 -5 8 -10 18 -10 14 0 15 2 2 10 -13 8
-12 10 3 10 9 0 17 -4 17 -10 0 -5 8 -10 18 -10 14 0 15 2 2 10 -13 8 -12 10
3 10 9 0 17 -4 17 -10 0 -5 8 -10 18 -10 14 0 15 2 2 10 -13 8 -12 10 3 10 9
0 17 -4 17 -10 0 -5 8 -10 18 -10 14 0 15 2 2 10 -13 8 -12 10 3 10 9 0 17 -4
17 -10 0 -5 8 -10 18 -10 14 0 15 2 2 10 -13 8 -12 10 3 10 9 0 17 -4 17 -10
0 -5 8 -10 18 -10 14 0 15 2 2 10 -13 8 -12 10 3 10 9 0 17 -4 17 -10 0 -5 8
-10 18 -10 14 0 15 2 2 10 -13 8 -12 10 3 10 9 0 17 -4 17 -10 0 -5 8 -10 18
-10 14 0 15 2 2 10 -13 8 -12 10 3 10 9 0 17 -4 17 -10 0 -5 8 -10 18 -10 14
0 15 2 2 10 -13 8 -12 10 3 10 9 0 17 -4 17 -10 0 -5 8 -10 18 -10 14 0 15 2
2 10 -13 8 -12 10 3 10 9 0 17 -4 17 -10 0 -5 8 -10 18 -10 14 0 15 2 2 10
-13 8 -12 10 3 10 9 0 17 -4 17 -10 0 -5 8 -10 18 -10 14 0 15 2 2 10 -13 8
-12 10 3 10 9 0 17 -4 17 -10 0 -5 8 -10 18 -10 14 0 15 2 2 10 -13 8 -12 10
3 10 9 0 17 -4 17 -10 0 -5 8 -10 18 -10 14 0 15 2 2 10 -13 8 -12 10 3 10 9
0 17 -4 17 -10 0 -5 8 -10 18 -10 14 0 15 2 2 10 -13 8 -12 10 3 10 9 0 17 -4
17 -10 0 -5 8 -10 18 -10 14 0 15 2 2 10 -13 8 -12 10 3 10 9 0 17 -4 17 -10
0 -5 8 -10 18 -10 14 0 15 2 2 10 -13 8 -12 10 3 10 9 0 17 -4 17 -10 0 -5 8
-10 18 -10 14 0 15 2 2 10 -13 8 -12 10 3 10 9 0 17 -4 17 -10 0 -5 8 -10 18
-10 14 0 15 2 2 10 -13 8 -12 10 3 10 9 0 17 -4 17 -10 0 -5 8 -10 18 -10 14
0 15 2 2 10 -13 8 -12 10 3 10 9 0 17 -4 17 -10 0 -5 8 -10 18 -10 14 0 15 2
2 10 -13 8 -12 10 3 10 9 0 17 -4 17 -10 0 -5 8 -10 18 -10 14 0 15 2 2 10
-13 8 -12 10 3 10 9 0 17 -4 17 -10 0 -5 8 -10 18 -10 14 0 15 2 2 10 -13 8
-12 10 3 10 9 0 17 -4 17 -10 0 -5 8 -10 18 -10 14 0 15 2 2 10 -13 8 -12 10
3 10 9 0 17 -4 17 -10 0 -5 8 -10 18 -10 14 0 15 2 2 10 -13 8 -12 10 3 10 9
0 17 -4 17 -10 0 -5 8 -10 18 -10 14 0 15 2 2 10 -13 8 -12 10 3 10 9 0 17 -4
17 -10 0 -5 8 -10 18 -10 14 0 15 2 2 10 -13 8 -12 10 3 10 9 0 17 -4 17 -10
0 -5 8 -10 18 -10 14 0 15 2 2 10 -13 8 -12 10 3 10 9 0 17 -4 17 -10 0 -5 8
-10 18 -10 14 0 15 2 2 10 -13 8 -12 10 3 10 9 0 17 -4 17 -10 0 -5 8 -10 18
-10 14 0 15 2 2 10 -13 8 -12 10 3 10 9 0 17 -4 17 -10 0 -5 8 -10 18 -10 14
0 15 2 2 10 -13 8 -12 10 3 10 9 0 17 -4 17 -10 0 -5 8 -10 18 -10 14 0 15 2
2 10 -13 8 -12 10 3 10 9 0 17 -4 17 -10 0 -5 8 -10 18 -10 14 0 15 2 2 10
-13 8 -12 10 3 10 9 0 17 -4 17 -10 0 -5 8 -10 18 -10 14 0 15 2 2 10 -13 8
-13 10 1 10 9 0 19 -7 23 -15 5 -13 -110 -15 -997 -14 -551 0 -996 3 -988 6
11 5 11 7 0 14 -11 7 -10 9 4 9 9 0 17 -4 17 -10z m5120 0 c0 -5 8 -10 18 -10
14 0 15 2 2 10 -13 8 -12 10 3 10 9 0 17 -4 17 -10 0 -5 8 -10 18 -10 14 0 15
2 2 10 -13 8 -12 10 3 10 9 0 17 -4 17 -10 0 -5 8 -10 18 -10 14 0 15 2 2 10
-13 8 -12 10 3 10 9 0 17 -4 17 -10 0 -5 8 -10 18 -10 14 0 15 2 2 10 -13 8
-12 10 3 10 9 0 17 -4 17 -10 0 -5 8 -10 18 -10 14 0 15 2 2 10 -13 8 -12 10
3 10 9 0 17 -4 17 -10 0 -5 8 -10 18 -10 14 0 15 2 2 10 -13 8 -12 10 3 10 9
0 17 -4 17 -10 0 -5 8 -10 18 -10 14 0 15 2 2 10 -13 8 -12 10 3 10 9 0 17 -4
17 -10 0 -5 8 -10 18 -10 14 0 15 2 2 10 -13 8 -12 10 3 10 9 0 17 -4 17 -10
0 -5 8 -10 18 -10 14 0 15 2 2 10 -13 8 -12 10 3 10 9 0 17 -4 17 -10 0 -5 8
-10 18 -10 14 0 15 2 2 10 -13 8 -12 10 3 10 9 0 17 -4 17 -10 0 -5 8 -10 18
-10 14 0 15 2 2 10 -13 8 -12 10 3 10 9 0 17 -4 17 -10 0 -5 8 -10 18 -10 14
0 15 2 2 10 -13 8 -12 10 3 10 9 0 17 -4 17 -10 0 -5 8 -10 18 -10 14 0 15 2
2 10 -13 8 -12 10 3 10 9 0 17 -4 17 -10 0 -5 8 -10 18 -10 14 0 15 2 2 10
-13 8 -12 10 3 10 9 0 17 -4 17 -10 0 -5 8 -10 18 -10 14 0 15 2 2 10 -13 8
-12 10 3 10 9 0 17 -4 17 -10 0 -5 8 -10 18 -10 14 0 15 2 2 10 -13 8 -12 10
3 10 9 0 17 -4 17 -10 0 -5 8 -10 18 -10 14 0 15 2 2 10 -13 8 -12 10 3 10 9
0 17 -4 17 -10 0 -5 8 -10 18 -10 14 0 15 2 2 10 -13 8 -12 10 3 10 9 0 17 -4
17 -10 0 -5 8 -10 18 -10 14 0 15 2 2 10 -13 8 -12 10 3 10 9 0 17 -4 17 -10
0 -5 8 -10 18 -10 14 0 15 2 2 10 -13 8 -12 10 3 10 9 0 17 -4 17 -10 0 -5 8
-10 18 -10 14 0 15 2 2 10 -13 8 -12 10 3 10 9 0 17 -4 17 -10 0 -5 8 -10 18
-10 14 0 15 2 2 10 -13 8 -12 10 3 10 9 0 17 -4 17 -10 0 -5 8 -10 18 -10 14
0 15 2 2 10 -13 8 -12 10 3 10 9 0 17 -4 17 -10 0 -5 8 -10 18 -10 14 0 15 2
2 10 -13 8 -12 10 3 10 9 0 17 -4 17 -10 0 -5 8 -10 18 -10 14 0 15 2 2 10
-13 8 -12 10 3 10 9 0 17 -4 17 -10 0 -5 8 -10 18 -10 14 0 15 2 2 10 -13 8
-12 10 3 10 9 0 17 -4 17 -10 0 -5 8 -10 18 -10 14 0 15 2 2 10 -13 8 -12 10
3 10 9 0 17 -4 17 -10 0 -5 8 -10 18 -10 14 0 15 2 2 10 -13 8 -12 10 3 10 9
0 17 -4 17 -10 0 -5 8 -10 18 -10 14 0 15 2 2 10 -13 8 -12 10 3 10 9 0 17 -4
17 -10 0 -5 8 -10 18 -10 14 0 15 2 2 10 -13 8 -12 10 3 10 9 0 17 -4 17 -10
0 -5 8 -10 18 -10 14 0 15 2 2 10 -13 8 -12 10 3 10 9 0 17 -4 17 -10 0 -5 8
-10 18 -10 14 0 15 2 2 10 -13 8 -12 10 3 10 9 0 17 -4 17 -10 0 -5 8 -10 18
-10 14 0 15 2 2 10 -13 8 -12 10 3 10 9 0 17 -4 17 -10 0 -5 8 -10 18 -10 14
0 15 2 2 10 -13 8 -12 10 3 10 9 0 17 -4 17 -10 0 -5 8 -10 18 -10 14 0 15 2
2 10 -13 8 -12 10 3 10 9 0 17 -4 17 -10 0 -5 8 -10 18 -10 14 0 15 2 2 10
-13 8 -12 10 3 10 9 0 17 -4 17 -10 0 -5 8 -10 18 -10 14 0 15 2 2 10 -13 8
-12 10 3 10 9 0 17 -4 17 -10 0 -5 8 -10 18 -10 14 0 15 2 2 10 -13 8 -12 10
3 10 9 0 17 -4 17 -10 0 -5 8 -10 18 -10 14 0 15 2 2 10 -13 8 -12 10 3 10 9
0 17 -4 17 -10 0 -5 8 -10 18 -10 14 0 15 2 2 10 -13 8 -12 10 3 10 9 0 17 -4
17 -10 0 -5 8 -10 18 -10 14 0 15 2 2 10 -13 8 -12 10 3 10 9 0 17 -4 17 -10
0 -5 8 -10 18 -10 14 0 15 2 2 10 -13 8 -12 10 3 10 9 0 17 -4 17 -10 0 -5 8
-10 18 -10 14 0 15 2 2 10 -13 8 -12 10 3 10 9 0 17 -4 17 -10 0 -5 8 -10 18
-10 14 0 15 2 2 10 -13 8 -12 10 3 10 9 0 17 -4 17 -10 0 -5 8 -10 18 -10 14
0 15 2 2 10 -13 8 -12 10 3 10 9 0 17 -4 17 -10 0 -5 8 -10 18 -10 14 0 15 2
2 10 -13 8 -12 10 3 10 9 0 17 -4 17 -10 0 -5 8 -10 18 -10 14 0 15 2 2 10
-13 8 -13 10 1 10 9 0 19 -7 23 -15 5 -13 -104 -15 -943 -15 -834 0 -950 2
-955 15 -3 8 -1 15 4 15 6 0 10 -4 10 -10z m-12732 -37 c-10 -2 -28 -2 -40 0
-13 2 -5 4 17 4 22 1 32 -1 23 -4z m80 0 c-10 -2 -28 -2 -40 0 -13 2 -5 4 17
4 22 1 32 -1 23 -4z m80 0 c-10 -2 -28 -2 -40 0 -13 2 -5 4 17 4 22 1 32 -1
23 -4z m80 0 c-10 -2 -28 -2 -40 0 -13 2 -5 4 17 4 22 1 32 -1 23 -4z m80 0
c-10 -2 -28 -2 -40 0 -13 2 -5 4 17 4 22 1 32 -1 23 -4z m80 0 c-10 -2 -28 -2
-40 0 -13 2 -5 4 17 4 22 1 32 -1 23 -4z m80 0 c-10 -2 -28 -2 -40 0 -13 2 -5
4 17 4 22 1 32 -1 23 -4z m80 0 c-10 -2 -28 -2 -40 0 -13 2 -5 4 17 4 22 1 32
-1 23 -4z m80 0 c-10 -2 -28 -2 -40 0 -13 2 -5 4 17 4 22 1 32 -1 23 -4z m80
0 c-10 -2 -28 -2 -40 0 -13 2 -5 4 17 4 22 1 32 -1 23 -4z m80 0 c-10 -2 -28
-2 -40 0 -13 2 -5 4 17 4 22 1 32 -1 23 -4z m80 0 c-10 -2 -28 -2 -40 0 -13 2
-5 4 17 4 22 1 32 -1 23 -4z m80 0 c-10 -2 -28 -2 -40 0 -13 2 -5 4 17 4 22 1
32 -1 23 -4z m80 0 c-10 -2 -28 -2 -40 0 -13 2 -5 4 17 4 22 1 32 -1 23 -4z
m80 0 c-10 -2 -28 -2 -40 0 -13 2 -5 4 17 4 22 1 32 -1 23 -4z m80 0 c-10 -2
-28 -2 -40 0 -13 2 -5 4 17 4 22 1 32 -1 23 -4z m80 0 c-10 -2 -28 -2 -40 0
-13 2 -5 4 17 4 22 1 32 -1 23 -4z m80 0 c-10 -2 -28 -2 -40 0 -13 2 -5 4 17
4 22 1 32 -1 23 -4z m80 0 c-10 -2 -28 -2 -40 0 -13 2 -5 4 17 4 22 1 32 -1
23 -4z m80 0 c-10 -2 -28 -2 -40 0 -13 2 -5 4 17 4 22 1 32 -1 23 -4z m80 0
c-10 -2 -28 -2 -40 0 -13 2 -5 4 17 4 22 1 32 -1 23 -4z m80 0 c-10 -2 -28 -2
-40 0 -13 2 -5 4 17 4 22 1 32 -1 23 -4z m80 0 c-10 -2 -28 -2 -40 0 -13 2 -5
4 17 4 22 1 32 -1 23 -4z m80 0 c-10 -2 -28 -2 -40 0 -13 2 -5 4 17 4 22 1 32
-1 23 -4z m80 0 c-10 -2 -28 -2 -40 0 -13 2 -5 4 17 4 22 1 32 -1 23 -4z
m3205 0 c-7 -2 -19 -2 -25 0 -7 3 -2 5 12 5 14 0 19 -2 13 -5z m75 0 c-10 -2
-28 -2 -40 0 -13 2 -5 4 17 4 22 1 32 -1 23 -4z m80 0 c-10 -2 -28 -2 -40 0
-13 2 -5 4 17 4 22 1 32 -1 23 -4z m80 0 c-10 -2 -28 -2 -40 0 -13 2 -5 4 17
4 22 1 32 -1 23 -4z m80 0 c-10 -2 -28 -2 -40 0 -13 2 -5 4 17 4 22 1 32 -1
23 -4z m80 0 c-10 -2 -28 -2 -40 0 -13 2 -5 4 17 4 22 1 32 -1 23 -4z m80 0
c-10 -2 -28 -2 -40 0 -13 2 -5 4 17 4 22 1 32 -1 23 -4z m80 0 c-10 -2 -28 -2
-40 0 -13 2 -5 4 17 4 22 1 32 -1 23 -4z m80 0 c-10 -2 -28 -2 -40 0 -13 2 -5
4 17 4 22 1 32 -1 23 -4z m80 0 c-10 -2 -28 -2 -40 0 -13 2 -5 4 17 4 22 1 32
-1 23 -4z m80 0 c-10 -2 -28 -2 -40 0 -13 2 -5 4 17 4 22 1 32 -1 23 -4z m80
0 c-10 -2 -28 -2 -40 0 -13 2 -5 4 17 4 22 1 32 -1 23 -4z m80 0 c-10 -2 -28
-2 -40 0 -13 2 -5 4 17 4 22 1 32 -1 23 -4z m80 0 c-10 -2 -28 -2 -40 0 -13 2
-5 4 17 4 22 1 32 -1 23 -4z m80 0 c-10 -2 -28 -2 -40 0 -13 2 -5 4 17 4 22 1
32 -1 23 -4z m80 0 c-10 -2 -28 -2 -40 0 -13 2 -5 4 17 4 22 1 32 -1 23 -4z
m80 0 c-10 -2 -28 -2 -40 0 -13 2 -5 4 17 4 22 1 32 -1 23 -4z m80 0 c-10 -2
-28 -2 -40 0 -13 2 -5 4 17 4 22 1 32 -1 23 -4z m80 0 c-10 -2 -28 -2 -40 0
-13 2 -5 4 17 4 22 1 32 -1 23 -4z m80 0 c-10 -2 -28 -2 -40 0 -13 2 -5 4 17
4 22 1 32 -1 23 -4z m80 0 c-10 -2 -28 -2 -40 0 -13 2 -5 4 17 4 22 1 32 -1
23 -4z m80 0 c-10 -2 -28 -2 -40 0 -13 2 -5 4 17 4 22 1 32 -1 23 -4z m80 0
c-10 -2 -28 -2 -40 0 -13 2 -5 4 17 4 22 1 32 -1 23 -4z m80 0 c-10 -2 -28 -2
-40 0 -13 2 -5 4 17 4 22 1 32 -1 23 -4z m680 0 c-10 -2 -28 -2 -40 0 -13 2
-5 4 17 4 22 1 32 -1 23 -4z m80 0 c-10 -2 -28 -2 -40 0 -13 2 -5 4 17 4 22 1
32 -1 23 -4z m80 0 c-10 -2 -28 -2 -40 0 -13 2 -5 4 17 4 22 1 32 -1 23 -4z
m80 0 c-10 -2 -28 -2 -40 0 -13 2 -5 4 17 4 22 1 32 -1 23 -4z m80 0 c-10 -2
-28 -2 -40 0 -13 2 -5 4 17 4 22 1 32 -1 23 -4z m80 0 c-10 -2 -28 -2 -40 0
-13 2 -5 4 17 4 22 1 32 -1 23 -4z m80 0 c-10 -2 -28 -2 -40 0 -13 2 -5 4 17
4 22 1 32 -1 23 -4z m80 0 c-10 -2 -28 -2 -40 0 -13 2 -5 4 17 4 22 1 32 -1
23 -4z m80 0 c-10 -2 -28 -2 -40 0 -13 2 -5 4 17 4 22 1 32 -1 23 -4z m80 0
c-10 -2 -28 -2 -40 0 -13 2 -5 4 17 4 22 1 32 -1 23 -4z m80 0 c-10 -2 -28 -2
-40 0 -13 2 -5 4 17 4 22 1 32 -1 23 -4z m80 0 c-10 -2 -28 -2 -40 0 -13 2 -5
4 17 4 22 1 32 -1 23 -4z m80 0 c-10 -2 -28 -2 -40 0 -13 2 -5 4 17 4 22 1 32
-1 23 -4z m80 0 c-10 -2 -28 -2 -40 0 -13 2 -5 4 17 4 22 1 32 -1 23 -4z m80
0 c-10 -2 -28 -2 -40 0 -13 2 -5 4 17 4 22 1 32 -1 23 -4z m80 0 c-10 -2 -28
-2 -40 0 -13 2 -5 4 17 4 22 1 32 -1 23 -4z m80 0 c-10 -2 -28 -2 -40 0 -13 2
-5 4 17 4 22 1 32 -1 23 -4z m80 0 c-10 -2 -28 -2 -40 0 -13 2 -5 4 17 4 22 1
32 -1 23 -4z m80 0 c-10 -2 -28 -2 -40 0 -13 2 -5 4 17 4 22 1 32 -1 23 -4z
m80 0 c-10 -2 -28 -2 -40 0 -13 2 -5 4 17 4 22 1 32 -1 23 -4z m80 0 c-10 -2
-28 -2 -40 0 -13 2 -5 4 17 4 22 1 32 -1 23 -4z m80 0 c-10 -2 -28 -2 -40 0
-13 2 -5 4 17 4 22 1 32 -1 23 -4z m80 0 c-10 -2 -28 -2 -40 0 -13 2 -5 4 17
4 22 1 32 -1 23 -4z m80 0 c-10 -2 -28 -2 -40 0 -13 2 -5 4 17 4 22 1 32 -1
23 -4z m80 0 c-10 -2 -28 -2 -40 0 -13 2 -5 4 17 4 22 1 32 -1 23 -4z m3205 0
c-7 -2 -19 -2 -25 0 -7 3 -2 5 12 5 14 0 19 -2 13 -5z m75 0 c-10 -2 -28 -2
-40 0 -13 2 -5 4 17 4 22 1 32 -1 23 -4z m80 0 c-10 -2 -28 -2 -40 0 -13 2 -5
4 17 4 22 1 32 -1 23 -4z m80 0 c-10 -2 -28 -2 -40 0 -13 2 -5 4 17 4 22 1 32
-1 23 -4z m80 0 c-10 -2 -28 -2 -40 0 -13 2 -5 4 17 4 22 1 32 -1 23 -4z m80
0 c-10 -2 -28 -2 -40 0 -13 2 -5 4 17 4 22 1 32 -1 23 -4z m80 0 c-10 -2 -28
-2 -40 0 -13 2 -5 4 17 4 22 1 32 -1 23 -4z m80 0 c-10 -2 -28 -2 -40 0 -13 2
-5 4 17 4 22 1 32 -1 23 -4z m80 0 c-10 -2 -28 -2 -40 0 -13 2 -5 4 17 4 22 1
32 -1 23 -4z m80 0 c-10 -2 -28 -2 -40 0 -13 2 -5 4 17 4 22 1 32 -1 23 -4z
m80 0 c-10 -2 -28 -2 -40 0 -13 2 -5 4 17 4 22 1 32 -1 23 -4z m80 0 c-10 -2
-28 -2 -40 0 -13 2 -5 4 17 4 22 1 32 -1 23 -4z m80 0 c-10 -2 -28 -2 -40 0
-13 2 -5 4 17 4 22 1 32 -1 23 -4z m80 0 c-10 -2 -28 -2 -40 0 -13 2 -5 4 17
4 22 1 32 -1 23 -4z m80 0 c-10 -2 -28 -2 -40 0 -13 2 -5 4 17 4 22 1 32 -1
23 -4z m80 0 c-10 -2 -28 -2 -40 0 -13 2 -5 4 17 4 22 1 32 -1 23 -4z m80 0
c-10 -2 -28 -2 -40 0 -13 2 -5 4 17 4 22 1 32 -1 23 -4z m80 0 c-10 -2 -28 -2
-40 0 -13 2 -5 4 17 4 22 1 32 -1 23 -4z m80 0 c-10 -2 -28 -2 -40 0 -13 2 -5
4 17 4 22 1 32 -1 23 -4z m80 0 c-10 -2 -28 -2 -40 0 -13 2 -5 4 17 4 22 1 32
-1 23 -4z m80 0 c-10 -2 -28 -2 -40 0 -13 2 -5 4 17 4 22 1 32 -1 23 -4z m80
0 c-10 -2 -28 -2 -40 0 -13 2 -5 4 17 4 22 1 32 -1 23 -4z m80 0 c-10 -2 -28
-2 -40 0 -13 2 -5 4 17 4 22 1 32 -1 23 -4z m80 0 c-10 -2 -28 -2 -40 0 -13 2
-5 4 17 4 22 1 32 -1 23 -4z m680 0 c-10 -2 -28 -2 -40 0 -13 2 -5 4 17 4 22
1 32 -1 23 -4z m80 0 c-10 -2 -28 -2 -40 0 -13 2 -5 4 17 4 22 1 32 -1 23 -4z
m80 0 c-10 -2 -28 -2 -40 0 -13 2 -5 4 17 4 22 1 32 -1 23 -4z m80 0 c-10 -2
-28 -2 -40 0 -13 2 -5 4 17 4 22 1 32 -1 23 -4z m80 0 c-10 -2 -28 -2 -40 0
-13 2 -5 4 17 4 22 1 32 -1 23 -4z m80 0 c-10 -2 -28 -2 -40 0 -13 2 -5 4 17
4 22 1 32 -1 23 -4z m80 0 c-10 -2 -28 -2 -40 0 -13 2 -5 4 17 4 22 1 32 -1
23 -4z m80 0 c-10 -2 -28 -2 -40 0 -13 2 -5 4 17 4 22 1 32 -1 23 -4z m80 0
c-10 -2 -28 -2 -40 0 -13 2 -5 4 17 4 22 1 32 -1 23 -4z m80 0 c-10 -2 -28 -2
-40 0 -13 2 -5 4 17 4 22 1 32 -1 23 -4z m80 0 c-10 -2 -28 -2 -40 0 -13 2 -5
4 17 4 22 1 32 -1 23 -4z m80 0 c-10 -2 -28 -2 -40 0 -13 2 -5 4 17 4 22 1 32
-1 23 -4z m80 0 c-10 -2 -28 -2 -40 0 -13 2 -5 4 17 4 22 1 32 -1 23 -4z m80
0 c-10 -2 -28 -2 -40 0 -13 2 -5 4 17 4 22 1 32 -1 23 -4z m80 0 c-10 -2 -28
-2 -40 0 -13 2 -5 4 17 4 22 1 32 -1 23 -4z m80 0 c-10 -2 -28 -2 -40 0 -13 2
-5 4 17 4 22 1 32 -1 23 -4z m80 0 c-10 -2 -28 -2 -40 0 -13 2 -5 4 17 4 22 1
32 -1 23 -4z m80 0 c-10 -2 -28 -2 -40 0 -13 2 -5 4 17 4 22 1 32 -1 23 -4z
m80 0 c-10 -2 -28 -2 -40 0 -13 2 -5 4 17 4 22 1 32 -1 23 -4z m-16751 -19
c-3 -3 -12 -4 -19 -1 -8 3 -5 6 6 6 11 1 17 -2 13 -5z m40 0 c-3 -3 -12 -4
-19 -1 -8 3 -5 6 6 6 11 1 17 -2 13 -5z m40 0 c-3 -3 -12 -4 -19 -1 -8 3 -5 6
6 6 11 1 17 -2 13 -5z m40 0 c-3 -3 -12 -4 -19 -1 -8 3 -5 6 6 6 11 1 17 -2
13 -5z m40 0 c-3 -3 -12 -4 -19 -1 -8 3 -5 6 6 6 11 1 17 -2 13 -5z m40 0 c-3
-3 -12 -4 -19 -1 -8 3 -5 6 6 6 11 1 17 -2 13 -5z m40 0 c-3 -3 -12 -4 -19 -1
-8 3 -5 6 6 6 11 1 17 -2 13 -5z m40 0 c-3 -3 -12 -4 -19 -1 -8 3 -5 6 6 6 11
1 17 -2 13 -5z m40 0 c-3 -3 -12 -4 -19 -1 -8 3 -5 6 6 6 11 1 17 -2 13 -5z
m40 0 c-3 -3 -12 -4 -19 -1 -8 3 -5 6 6 6 11 1 17 -2 13 -5z m40 0 c-3 -3 -12
-4 -19 -1 -8 3 -5 6 6 6 11 1 17 -2 13 -5z m40 0 c-3 -3 -12 -4 -19 -1 -8 3
-5 6 6 6 11 1 17 -2 13 -5z m40 0 c-3 -3 -12 -4 -19 -1 -8 3 -5 6 6 6 11 1 17
-2 13 -5z m40 0 c-3 -3 -12 -4 -19 -1 -8 3 -5 6 6 6 11 1 17 -2 13 -5z m40 0
c-3 -3 -12 -4 -19 -1 -8 3 -5 6 6 6 11 1 17 -2 13 -5z m40 0 c-3 -3 -12 -4
-19 -1 -8 3 -5 6 6 6 11 1 17 -2 13 -5z m40 0 c-3 -3 -12 -4 -19 -1 -8 3 -5 6
6 6 11 1 17 -2 13 -5z m40 0 c-3 -3 -12 -4 -19 -1 -8 3 -5 6 6 6 11 1 17 -2
13 -5z m40 0 c-3 -3 -12 -4 -19 -1 -8 3 -5 6 6 6 11 1 17 -2 13 -5z m40 0 c-3
-3 -12 -4 -19 -1 -8 3 -5 6 6 6 11 1 17 -2 13 -5z m40 0 c-3 -3 -12 -4 -19 -1
-8 3 -5 6 6 6 11 1 17 -2 13 -5z m40 0 c-3 -3 -12 -4 -19 -1 -8 3 -5 6 6 6 11
1 17 -2 13 -5z m40 0 c-3 -3 -12 -4 -19 -1 -8 3 -5 6 6 6 11 1 17 -2 13 -5z
m40 0 c-3 -3 -12 -4 -19 -1 -8 3 -5 6 6 6 11 1 17 -2 13 -5z m40 0 c-3 -3 -12
-4 -19 -1 -8 3 -5 6 6 6 11 1 17 -2 13 -5z m40 0 c-3 -3 -12 -4 -19 -1 -8 3
-5 6 6 6 11 1 17 -2 13 -5z m40 0 c-3 -3 -12 -4 -19 -1 -8 3 -5 6 6 6 11 1 17
-2 13 -5z m40 0 c-3 -3 -12 -4 -19 -1 -8 3 -5 6 6 6 11 1 17 -2 13 -5z m40 0
c-3 -3 -12 -4 -19 -1 -8 3 -5 6 6 6 11 1 17 -2 13 -5z m40 0 c-3 -3 -12 -4
-19 -1 -8 3 -5 6 6 6 11 1 17 -2 13 -5z m40 0 c-3 -3 -12 -4 -19 -1 -8 3 -5 6
6 6 11 1 17 -2 13 -5z m40 0 c-3 -3 -12 -4 -19 -1 -8 3 -5 6 6 6 11 1 17 -2
13 -5z m40 0 c-3 -3 -12 -4 -19 -1 -8 3 -5 6 6 6 11 1 17 -2 13 -5z m40 0 c-3
-3 -12 -4 -19 -1 -8 3 -5 6 6 6 11 1 17 -2 13 -5z m40 0 c-3 -3 -12 -4 -19 -1
-8 3 -5 6 6 6 11 1 17 -2 13 -5z m40 0 c-3 -3 -12 -4 -19 -1 -8 3 -5 6 6 6 11
1 17 -2 13 -5z m40 0 c-3 -3 -12 -4 -19 -1 -8 3 -5 6 6 6 11 1 17 -2 13 -5z
m40 0 c-3 -3 -12 -4 -19 -1 -8 3 -5 6 6 6 11 1 17 -2 13 -5z m40 0 c-3 -3 -12
-4 -19 -1 -8 3 -5 6 6 6 11 1 17 -2 13 -5z m40 0 c-3 -3 -12 -4 -19 -1 -8 3
-5 6 6 6 11 1 17 -2 13 -5z m40 0 c-3 -3 -12 -4 -19 -1 -8 3 -5 6 6 6 11 1 17
-2 13 -5z m40 0 c-3 -3 -12 -4 -19 -1 -8 3 -5 6 6 6 11 1 17 -2 13 -5z m40 0
c-3 -3 -12 -4 -19 -1 -8 3 -5 6 6 6 11 1 17 -2 13 -5z m40 0 c-3 -3 -12 -4
-19 -1 -8 3 -5 6 6 6 11 1 17 -2 13 -5z m40 0 c-3 -3 -12 -4 -19 -1 -8 3 -5 6
6 6 11 1 17 -2 13 -5z m40 0 c-3 -3 -12 -4 -19 -1 -8 3 -5 6 6 6 11 1 17 -2
13 -5z m40 0 c-3 -3 -12 -4 -19 -1 -8 3 -5 6 6 6 11 1 17 -2 13 -5z m40 0 c-3
-3 -12 -4 -19 -1 -8 3 -5 6 6 6 11 1 17 -2 13 -5z m40 0 c-3 -3 -12 -4 -19 -1
-8 3 -5 6 6 6 11 1 17 -2 13 -5z m3240 0 c-3 -3 -12 -4 -19 -1 -8 3 -5 6 6 6
11 1 17 -2 13 -5z m40 0 c-3 -3 -12 -4 -19 -1 -8 3 -5 6 6 6 11 1 17 -2 13 -5z
m40 0 c-3 -3 -12 -4 -19 -1 -8 3 -5 6 6 6 11 1 17 -2 13 -5z m40 0 c-3 -3 -12
-4 -19 -1 -8 3 -5 6 6 6 11 1 17 -2 13 -5z m40 0 c-3 -3 -12 -4 -19 -1 -8 3
-5 6 6 6 11 1 17 -2 13 -5z m40 0 c-3 -3 -12 -4 -19 -1 -8 3 -5 6 6 6 11 1 17
-2 13 -5z m40 0 c-3 -3 -12 -4 -19 -1 -8 3 -5 6 6 6 11 1 17 -2 13 -5z m40 0
c-3 -3 -12 -4 -19 -1 -8 3 -5 6 6 6 11 1 17 -2 13 -5z m40 0 c-3 -3 -12 -4
-19 -1 -8 3 -5 6 6 6 11 1 17 -2 13 -5z m40 0 c-3 -3 -12 -4 -19 -1 -8 3 -5 6
6 6 11 1 17 -2 13 -5z m40 0 c-3 -3 -12 -4 -19 -1 -8 3 -5 6 6 6 11 1 17 -2
13 -5z m40 0 c-3 -3 -12 -4 -19 -1 -8 3 -5 6 6 6 11 1 17 -2 13 -5z m40 0 c-3
-3 -12 -4 -19 -1 -8 3 -5 6 6 6 11 1 17 -2 13 -5z m40 0 c-3 -3 -12 -4 -19 -1
-8 3 -5 6 6 6 11 1 17 -2 13 -5z m40 0 c-3 -3 -12 -4 -19 -1 -8 3 -5 6 6 6 11
1 17 -2 13 -5z m40 0 c-3 -3 -12 -4 -19 -1 -8 3 -5 6 6 6 11 1 17 -2 13 -5z
m40 0 c-3 -3 -12 -4 -19 -1 -8 3 -5 6 6 6 11 1 17 -2 13 -5z m40 0 c-3 -3 -12
-4 -19 -1 -8 3 -5 6 6 6 11 1 17 -2 13 -5z m40 0 c-3 -3 -12 -4 -19 -1 -8 3
-5 6 6 6 11 1 17 -2 13 -5z m40 0 c-3 -3 -12 -4 -19 -1 -8 3 -5 6 6 6 11 1 17
-2 13 -5z m40 0 c-3 -3 -12 -4 -19 -1 -8 3 -5 6 6 6 11 1 17 -2 13 -5z m40 0
c-3 -3 -12 -4 -19 -1 -8 3 -5 6 6 6 11 1 17 -2 13 -5z m40 0 c-3 -3 -12 -4
-19 -1 -8 3 -5 6 6 6 11 1 17 -2 13 -5z m40 0 c-3 -3 -12 -4 -19 -1 -8 3 -5 6
6 6 11 1 17 -2 13 -5z m40 0 c-3 -3 -12 -4 -19 -1 -8 3 -5 6 6 6 11 1 17 -2
13 -5z m40 0 c-3 -3 -12 -4 -19 -1 -8 3 -5 6 6 6 11 1 17 -2 13 -5z m40 0 c-3
-3 -12 -4 -19 -1 -8 3 -5 6 6 6 11 1 17 -2 13 -5z m40 0 c-3 -3 -12 -4 -19 -1
-8 3 -5 6 6 6 11 1 17 -2 13 -5z m40 0 c-3 -3 -12 -4 -19 -1 -8 3 -5 6 6 6 11
1 17 -2 13 -5z m40 0 c-3 -3 -12 -4 -19 -1 -8 3 -5 6 6 6 11 1 17 -2 13 -5z
m40 0 c-3 -3 -12 -4 -19 -1 -8 3 -5 6 6 6 11 1 17 -2 13 -5z m40 0 c-3 -3 -12
-4 -19 -1 -8 3 -5 6 6 6 11 1 17 -2 13 -5z m40 0 c-3 -3 -12 -4 -19 -1 -8 3
-5 6 6 6 11 1 17 -2 13 -5z m40 0 c-3 -3 -12 -4 -19 -1 -8 3 -5 6 6 6 11 1 17
-2 13 -5z m40 0 c-3 -3 -12 -4 -19 -1 -8 3 -5 6 6 6 11 1 17 -2 13 -5z m40 0
c-3 -3 -12 -4 -19 -1 -8 3 -5 6 6 6 11 1 17 -2 13 -5z m40 0 c-3 -3 -12 -4
-19 -1 -8 3 -5 6 6 6 11 1 17 -2 13 -5z m40 0 c-3 -3 -12 -4 -19 -1 -8 3 -5 6
6 6 11 1 17 -2 13 -5z m40 0 c-3 -3 -12 -4 -19 -1 -8 3 -5 6 6 6 11 1 17 -2
13 -5z m40 0 c-3 -3 -12 -4 -19 -1 -8 3 -5 6 6 6 11 1 17 -2 13 -5z m40 0 c-3
-3 -12 -4 -19 -1 -8 3 -5 6 6 6 11 1 17 -2 13 -5z m40 0 c-3 -3 -12 -4 -19 -1
-8 3 -5 6 6 6 11 1 17 -2 13 -5z m40 0 c-3 -3 -12 -4 -19 -1 -8 3 -5 6 6 6 11
1 17 -2 13 -5z m40 0 c-3 -3 -12 -4 -19 -1 -8 3 -5 6 6 6 11 1 17 -2 13 -5z
m40 0 c-3 -3 -12 -4 -19 -1 -8 3 -5 6 6 6 11 1 17 -2 13 -5z m40 0 c-3 -3 -12
-4 -19 -1 -8 3 -5 6 6 6 11 1 17 -2 13 -5z m40 0 c-3 -3 -12 -4 -19 -1 -8 3
-5 6 6 6 11 1 17 -2 13 -5z m640 0 c-3 -3 -12 -4 -19 -1 -8 3 -5 6 6 6 11 1
17 -2 13 -5z m40 0 c-3 -3 -12 -4 -19 -1 -8 3 -5 6 6 6 11 1 17 -2 13 -5z m40
0 c-3 -3 -12 -4 -19 -1 -8 3 -5 6 6 6 11 1 17 -2 13 -5z m40 0 c-3 -3 -12 -4
-19 -1 -8 3 -5 6 6 6 11 1 17 -2 13 -5z m40 0 c-3 -3 -12 -4 -19 -1 -8 3 -5 6
6 6 11 1 17 -2 13 -5z m40 0 c-3 -3 -12 -4 -19 -1 -8 3 -5 6 6 6 11 1 17 -2
13 -5z m40 0 c-3 -3 -12 -4 -19 -1 -8 3 -5 6 6 6 11 1 17 -2 13 -5z m40 0 c-3
-3 -12 -4 -19 -1 -8 3 -5 6 6 6 11 1 17 -2 13 -5z m40 0 c-3 -3 -12 -4 -19 -1
-8 3 -5 6 6 6 11 1 17 -2 13 -5z m40 0 c-3 -3 -12 -4 -19 -1 -8 3 -5 6 6 6 11
1 17 -2 13 -5z m40 0 c-3 -3 -12 -4 -19 -1 -8 3 -5 6 6 6 11 1 17 -2 13 -5z
m40 0 c-3 -3 -12 -4 -19 -1 -8 3 -5 6 6 6 11 1 17 -2 13 -5z m40 0 c-3 -3 -12
-4 -19 -1 -8 3 -5 6 6 6 11 1 17 -2 13 -5z m40 0 c-3 -3 -12 -4 -19 -1 -8 3
-5 6 6 6 11 1 17 -2 13 -5z m40 0 c-3 -3 -12 -4 -19 -1 -8 3 -5 6 6 6 11 1 17
-2 13 -5z m40 0 c-3 -3 -12 -4 -19 -1 -8 3 -5 6 6 6 11 1 17 -2 13 -5z m40 0
c-3 -3 -12 -4 -19 -1 -8 3 -5 6 6 6 11 1 17 -2 13 -5z m40 0 c-3 -3 -12 -4
-19 -1 -8 3 -5 6 6 6 11 1 17 -2 13 -5z m40 0 c-3 -3 -12 -4 -19 -1 -8 3 -5 6
6 6 11 1 17 -2 13 -5z m40 0 c-3 -3 -12 -4 -19 -1 -8 3 -5 6 6 6 11 1 17 -2
13 -5z m40 0 c-3 -3 -12 -4 -19 -1 -8 3 -5 6 6 6 11 1 17 -2 13 -5z m40 0 c-3
-3 -12 -4 -19 -1 -8 3 -5 6 6 6 11 1 17 -2 13 -5z m40 0 c-3 -3 -12 -4 -19 -1
-8 3 -5 6 6 6 11 1 17 -2 13 -5z m40 0 c-3 -3 -12 -4 -19 -1 -8 3 -5 6 6 6 11
1 17 -2 13 -5z m40 0 c-3 -3 -12 -4 -19 -1 -8 3 -5 6 6 6 11 1 17 -2 13 -5z
m40 0 c-3 -3 -12 -4 -19 -1 -8 3 -5 6 6 6 11 1 17 -2 13 -5z m40 0 c-3 -3 -12
-4 -19 -1 -8 3 -5 6 6 6 11 1 17 -2 13 -5z m40 0 c-3 -3 -12 -4 -19 -1 -8 3
-5 6 6 6 11 1 17 -2 13 -5z m40 0 c-3 -3 -12 -4 -19 -1 -8 3 -5 6 6 6 11 1 17
-2 13 -5z m40 0 c-3 -3 -12 -4 -19 -1 -8 3 -5 6 6 6 11 1 17 -2 13 -5z m40 0
c-3 -3 -12 -4 -19 -1 -8 3 -5 6 6 6 11 1 17 -2 13 -5z m40 0 c-3 -3 -12 -4
-19 -1 -8 3 -5 6 6 6 11 1 17 -2 13 -5z m40 0 c-3 -3 -12 -4 -19 -1 -8 3 -5 6
6 6 11 1 17 -2 13 -5z m40 0 c-3 -3 -12 -4 -19 -1 -8 3 -5 6 6 6 11 1 17 -2
13 -5z m40 0 c-3 -3 -12 -4 -19 -1 -8 3 -5 6 6 6 11 1 17 -2 13 -5z m40 0 c-3
-3 -12 -4 -19 -1 -8 3 -5 6 6 6 11 1 17 -2 13 -5z m40 0 c-3 -3 -12 -4 -19 -1
-8 3 -5 6 6 6 11 1 17 -2 13 -5z m40 0 c-3 -3 -12 -4 -19 -1 -8 3 -5 6 6 6 11
1 17 -2 13 -5z m40 0 c-3 -3 -12 -4 -19 -1 -8 3 -5 6 6 6 11 1 17 -2 13 -5z
m40 0 c-3 -3 -12 -4 -19 -1 -8 3 -5 6 6 6 11 1 17 -2 13 -5z m40 0 c-3 -3 -12
-4 -19 -1 -8 3 -5 6 6 6 11 1 17 -2 13 -5z m40 0 c-3 -3 -12 -4 -19 -1 -8 3
-5 6 6 6 11 1 17 -2 13 -5z m40 0 c-3 -3 -12 -4 -19 -1 -8 3 -5 6 6 6 11 1 17
-2 13 -5z m40 0 c-3 -3 -12 -4 -19 -1 -8 3 -5 6 6 6 11 1 17 -2 13 -5z m40 0
c-3 -3 -12 -4 -19 -1 -8 3 -5 6 6 6 11 1 17 -2 13 -5z m40 0 c-3 -3 -12 -4
-19 -1 -8 3 -5 6 6 6 11 1 17 -2 13 -5z m40 0 c-3 -3 -12 -4 -19 -1 -8 3 -5 6
6 6 11 1 17 -2 13 -5z m40 0 c-3 -3 -12 -4 -19 -1 -8 3 -5 6 6 6 11 1 17 -2
13 -5z m40 0 c-3 -3 -12 -4 -19 -1 -8 3 -5 6 6 6 11 1 17 -2 13 -5z m3240 0
c-3 -3 -12 -4 -19 -1 -8 3 -5 6 6 6 11 1 17 -2 13 -5z m40 0 c-3 -3 -12 -4
-19 -1 -8 3 -5 6 6 6 11 1 17 -2 13 -5z m40 0 c-3 -3 -12 -4 -19 -1 -8 3 -5 6
6 6 11 1 17 -2 13 -5z m40 0 c-3 -3 -12 -4 -19 -1 -8 3 -5 6 6 6 11 1 17 -2
13 -5z m40 0 c-3 -3 -12 -4 -19 -1 -8 3 -5 6 6 6 11 1 17 -2 13 -5z m40 0 c-3
-3 -12 -4 -19 -1 -8 3 -5 6 6 6 11 1 17 -2 13 -5z m40 0 c-3 -3 -12 -4 -19 -1
-8 3 -5 6 6 6 11 1 17 -2 13 -5z m40 0 c-3 -3 -12 -4 -19 -1 -8 3 -5 6 6 6 11
1 17 -2 13 -5z m40 0 c-3 -3 -12 -4 -19 -1 -8 3 -5 6 6 6 11 1 17 -2 13 -5z
m40 0 c-3 -3 -12 -4 -19 -1 -8 3 -5 6 6 6 11 1 17 -2 13 -5z m40 0 c-3 -3 -12
-4 -19 -1 -8 3 -5 6 6 6 11 1 17 -2 13 -5z m40 0 c-3 -3 -12 -4 -19 -1 -8 3
-5 6 6 6 11 1 17 -2 13 -5z m40 0 c-3 -3 -12 -4 -19 -1 -8 3 -5 6 6 6 11 1 17
-2 13 -5z m40 0 c-3 -3 -12 -4 -19 -1 -8 3 -5 6 6 6 11 1 17 -2 13 -5z m40 0
c-3 -3 -12 -4 -19 -1 -8 3 -5 6 6 6 11 1 17 -2 13 -5z m40 0 c-3 -3 -12 -4
-19 -1 -8 3 -5 6 6 6 11 1 17 -2 13 -5z m40 0 c-3 -3 -12 -4 -19 -1 -8 3 -5 6
6 6 11 1 17 -2 13 -5z m40 0 c-3 -3 -12 -4 -19 -1 -8 3 -5 6 6 6 11 1 17 -2
13 -5z m40 0 c-3 -3 -12 -4 -19 -1 -8 3 -5 6 6 6 11 1 17 -2 13 -5z m40 0 c-3
-3 -12 -4 -19 -1 -8 3 -5 6 6 6 11 1 17 -2 13 -5z m40 0 c-3 -3 -12 -4 -19 -1
-8 3 -5 6 6 6 11 1 17 -2 13 -5z m40 0 c-3 -3 -12 -4 -19 -1 -8 3 -5 6 6 6 11
1 17 -2 13 -5z m40 0 c-3 -3 -12 -4 -19 -1 -8 3 -5 6 6 6 11 1 17 -2 13 -5z
m40 0 c-3 -3 -12 -4 -19 -1 -8 3 -5 6 6 6 11 1 17 -2 13 -5z m40 0 c-3 -3 -12
-4 -19 -1 -8 3 -5 6 6 6 11 1 17 -2 13 -5z m40 0 c-3 -3 -12 -4 -19 -1 -8 3
-5 6 6 6 11 1 17 -2 13 -5z m40 0 c-3 -3 -12 -4 -19 -1 -8 3 -5 6 6 6 11 1 17
-2 13 -5z m40 0 c-3 -3 -12 -4 -19 -1 -8 3 -5 6 6 6 11 1 17 -2 13 -5z m40 0
c-3 -3 -12 -4 -19 -1 -8 3 -5 6 6 6 11 1 17 -2 13 -5z m40 0 c-3 -3 -12 -4
-19 -1 -8 3 -5 6 6 6 11 1 17 -2 13 -5z m40 0 c-3 -3 -12 -4 -19 -1 -8 3 -5 6
6 6 11 1 17 -2 13 -5z m40 0 c-3 -3 -12 -4 -19 -1 -8 3 -5 6 6 6 11 1 17 -2
13 -5z m40 0 c-3 -3 -12 -4 -19 -1 -8 3 -5 6 6 6 11 1 17 -2 13 -5z m40 0 c-3
-3 -12 -4 -19 -1 -8 3 -5 6 6 6 11 1 17 -2 13 -5z m40 0 c-3 -3 -12 -4 -19 -1
-8 3 -5 6 6 6 11 1 17 -2 13 -5z m40 0 c-3 -3 -12 -4 -19 -1 -8 3 -5 6 6 6 11
1 17 -2 13 -5z m40 0 c-3 -3 -12 -4 -19 -1 -8 3 -5 6 6 6 11 1 17 -2 13 -5z
m40 0 c-3 -3 -12 -4 -19 -1 -8 3 -5 6 6 6 11 1 17 -2 13 -5z m40 0 c-3 -3 -12
-4 -19 -1 -8 3 -5 6 6 6 11 1 17 -2 13 -5z m40 0 c-3 -3 -12 -4 -19 -1 -8 3
-5 6 6 6 11 1 17 -2 13 -5z m40 0 c-3 -3 -12 -4 -19 -1 -8 3 -5 6 6 6 11 1 17
-2 13 -5z m40 0 c-3 -3 -12 -4 -19 -1 -8 3 -5 6 6 6 11 1 17 -2 13 -5z m40 0
c-3 -3 -12 -4 -19 -1 -8 3 -5 6 6 6 11 1 17 -2 13 -5z m40 0 c-3 -3 -12 -4
-19 -1 -8 3 -5 6 6 6 11 1 17 -2 13 -5z m40 0 c-3 -3 -12 -4 -19 -1 -8 3 -5 6
6 6 11 1 17 -2 13 -5z m40 0 c-3 -3 -12 -4 -19 -1 -8 3 -5 6 6 6 11 1 17 -2
13 -5z m40 0 c-3 -3 -12 -4 -19 -1 -8 3 -5 6 6 6 11 1 17 -2 13 -5z m640 0
c-3 -3 -12 -4 -19 -1 -8 3 -5 6 6 6 11 1 17 -2 13 -5z m40 0 c-3 -3 -12 -4
-19 -1 -8 3 -5 6 6 6 11 1 17 -2 13 -5z m40 0 c-3 -3 -12 -4 -19 -1 -8 3 -5 6
6 6 11 1 17 -2 13 -5z m40 0 c-3 -3 -12 -4 -19 -1 -8 3 -5 6 6 6 11 1 17 -2
13 -5z m40 0 c-3 -3 -12 -4 -19 -1 -8 3 -5 6 6 6 11 1 17 -2 13 -5z m40 0 c-3
-3 -12 -4 -19 -1 -8 3 -5 6 6 6 11 1 17 -2 13 -5z m40 0 c-3 -3 -12 -4 -19 -1
-8 3 -5 6 6 6 11 1 17 -2 13 -5z m40 0 c-3 -3 -12 -4 -19 -1 -8 3 -5 6 6 6 11
1 17 -2 13 -5z m40 0 c-3 -3 -12 -4 -19 -1 -8 3 -5 6 6 6 11 1 17 -2 13 -5z
m40 0 c-3 -3 -12 -4 -19 -1 -8 3 -5 6 6 6 11 1 17 -2 13 -5z m40 0 c-3 -3 -12
-4 -19 -1 -8 3 -5 6 6 6 11 1 17 -2 13 -5z m40 0 c-3 -3 -12 -4 -19 -1 -8 3
-5 6 6 6 11 1 17 -2 13 -5z m40 0 c-3 -3 -12 -4 -19 -1 -8 3 -5 6 6 6 11 1 17
-2 13 -5z m40 0 c-3 -3 -12 -4 -19 -1 -8 3 -5 6 6 6 11 1 17 -2 13 -5z m40 0
c-3 -3 -12 -4 -19 -1 -8 3 -5 6 6 6 11 1 17 -2 13 -5z m40 0 c-3 -3 -12 -4
-19 -1 -8 3 -5 6 6 6 11 1 17 -2 13 -5z m40 0 c-3 -3 -12 -4 -19 -1 -8 3 -5 6
6 6 11 1 17 -2 13 -5z m40 0 c-3 -3 -12 -4 -19 -1 -8 3 -5 6 6 6 11 1 17 -2
13 -5z m40 0 c-3 -3 -12 -4 -19 -1 -8 3 -5 6 6 6 11 1 17 -2 13 -5z m40 0 c-3
-3 -12 -4 -19 -1 -8 3 -5 6 6 6 11 1 17 -2 13 -5z m40 0 c-3 -3 -12 -4 -19 -1
-8 3 -5 6 6 6 11 1 17 -2 13 -5z m40 0 c-3 -3 -12 -4 -19 -1 -8 3 -5 6 6 6 11
1 17 -2 13 -5z m40 0 c-3 -3 -12 -4 -19 -1 -8 3 -5 6 6 6 11 1 17 -2 13 -5z
m40 0 c-3 -3 -12 -4 -19 -1 -8 3 -5 6 6 6 11 1 17 -2 13 -5z m40 0 c-3 -3 -12
-4 -19 -1 -8 3 -5 6 6 6 11 1 17 -2 13 -5z m40 0 c-3 -3 -12 -4 -19 -1 -8 3
-5 6 6 6 11 1 17 -2 13 -5z m40 0 c-3 -3 -12 -4 -19 -1 -8 3 -5 6 6 6 11 1 17
-2 13 -5z m40 0 c-3 -3 -12 -4 -19 -1 -8 3 -5 6 6 6 11 1 17 -2 13 -5z m40 0
c-3 -3 -12 -4 -19 -1 -8 3 -5 6 6 6 11 1 17 -2 13 -5z m40 0 c-3 -3 -12 -4
-19 -1 -8 3 -5 6 6 6 11 1 17 -2 13 -5z m40 0 c-3 -3 -12 -4 -19 -1 -8 3 -5 6
6 6 11 1 17 -2 13 -5z m40 0 c-3 -3 -12 -4 -19 -1 -8 3 -5 6 6 6 11 1 17 -2
13 -5z m40 0 c-3 -3 -12 -4 -19 -1 -8 3 -5 6 6 6 11 1 17 -2 13 -5z m40 0 c-3
-3 -12 -4 -19 -1 -8 3 -5 6 6 6 11 1 17 -2 13 -5z m40 0 c-3 -3 -12 -4 -19 -1
-8 3 -5 6 6 6 11 1 17 -2 13 -5z m40 0 c-3 -3 -12 -4 -19 -1 -8 3 -5 6 6 6 11
1 17 -2 13 -5z m40 0 c-3 -3 -12 -4 -19 -1 -8 3 -5 6 6 6 11 1 17 -2 13 -5z
m40 0 c-3 -3 -12 -4 -19 -1 -8 3 -5 6 6 6 11 1 17 -2 13 -5z m40 0 c-3 -3 -12
-4 -19 -1 -8 3 -5 6 6 6 11 1 17 -2 13 -5z m-5407 -130 c0 -19 -51 -15 -58 5
-3 9 2 11 17 6 13 -4 21 -2 21 5 0 6 5 8 10 5 6 -3 10 -13 10 -21z m44 10 c9
-22 8 -24 -9 -24 -8 0 -15 9 -15 20 0 24 15 27 24 4z m56 -2 c0 -11 -8 -18
-20 -19 -19 -2 -27 16 -13 30 13 13 33 7 33 -11z m50 -2 c9 -17 8 -20 -14 -20
-19 0 -23 4 -19 20 3 11 9 20 14 20 4 0 13 -9 19 -20z m40 0 c0 -11 -2 -20 -4
-20 -2 0 -6 9 -9 20 -3 11 -1 20 4 20 5 0 9 -9 9 -20z m60 0 c0 -11 -7 -20
-15 -20 -8 0 -15 2 -15 4 0 2 -3 11 -6 20 -4 12 0 16 15 16 14 0 21 -6 21 -20z
m50 -1 c0 -22 -34 -18 -38 4 -2 11 3 15 17 14 13 -1 21 -8 21 -18z m46 10 c7
-12 -15 -31 -28 -23 -9 6 1 34 12 34 5 0 12 -5 16 -11z m-11699 -5 c-3 -3 -12
-4 -19 -1 -8 3 -5 6 6 6 11 1 17 -2 13 -5z m80 0 c-3 -3 -12 -4 -19 -1 -8 3
-5 6 6 6 11 1 17 -2 13 -5z m80 0 c-3 -3 -12 -4 -19 -1 -8 3 -5 6 6 6 11 1 17
-2 13 -5z m80 0 c-3 -3 -12 -4 -19 -1 -8 3 -5 6 6 6 11 1 17 -2 13 -5z m80 0
c-3 -3 -12 -4 -19 -1 -8 3 -5 6 6 6 11 1 17 -2 13 -5z m80 0 c-3 -3 -12 -4
-19 -1 -8 3 -5 6 6 6 11 1 17 -2 13 -5z m80 0 c-3 -3 -12 -4 -19 -1 -8 3 -5 6
6 6 11 1 17 -2 13 -5z m80 0 c-3 -3 -12 -4 -19 -1 -8 3 -5 6 6 6 11 1 17 -2
13 -5z m80 0 c-3 -3 -12 -4 -19 -1 -8 3 -5 6 6 6 11 1 17 -2 13 -5z m80 0 c-3
-3 -12 -4 -19 -1 -8 3 -5 6 6 6 11 1 17 -2 13 -5z m80 0 c-3 -3 -12 -4 -19 -1
-8 3 -5 6 6 6 11 1 17 -2 13 -5z m80 0 c-3 -3 -12 -4 -19 -1 -8 3 -5 6 6 6 11
1 17 -2 13 -5z m80 0 c-3 -3 -12 -4 -19 -1 -8 3 -5 6 6 6 11 1 17 -2 13 -5z
m80 0 c-3 -3 -12 -4 -19 -1 -8 3 -5 6 6 6 11 1 17 -2 13 -5z m80 0 c-3 -3 -12
-4 -19 -1 -8 3 -5 6 6 6 11 1 17 -2 13 -5z m80 0 c-3 -3 -12 -4 -19 -1 -8 3
-5 6 6 6 11 1 17 -2 13 -5z m80 0 c-3 -3 -12 -4 -19 -1 -8 3 -5 6 6 6 11 1 17
-2 13 -5z m80 0 c-3 -3 -12 -4 -19 -1 -8 3 -5 6 6 6 11 1 17 -2 13 -5z m80 0
c-3 -3 -12 -4 -19 -1 -8 3 -5 6 6 6 11 1 17 -2 13 -5z m80 0 c-3 -3 -12 -4
-19 -1 -8 3 -5 6 6 6 11 1 17 -2 13 -5z m80 0 c-3 -3 -12 -4 -19 -1 -8 3 -5 6
6 6 11 1 17 -2 13 -5z m80 0 c-3 -3 -12 -4 -19 -1 -8 3 -5 6 6 6 11 1 17 -2
13 -5z m80 0 c-3 -3 -12 -4 -19 -1 -8 3 -5 6 6 6 11 1 17 -2 13 -5z m3440 0
c-3 -3 -12 -4 -19 -1 -8 3 -5 6 6 6 11 1 17 -2 13 -5z m80 0 c-3 -3 -12 -4
-19 -1 -8 3 -5 6 6 6 11 1 17 -2 13 -5z m80 0 c-3 -3 -12 -4 -19 -1 -8 3 -5 6
6 6 11 1 17 -2 13 -5z m80 0 c-3 -3 -12 -4 -19 -1 -8 3 -5 6 6 6 11 1 17 -2
13 -5z m80 0 c-3 -3 -12 -4 -19 -1 -8 3 -5 6 6 6 11 1 17 -2 13 -5z m80 0 c-3
-3 -12 -4 -19 -1 -8 3 -5 6 6 6 11 1 17 -2 13 -5z m80 0 c-3 -3 -12 -4 -19 -1
-8 3 -5 6 6 6 11 1 17 -2 13 -5z m80 0 c-3 -3 -12 -4 -19 -1 -8 3 -5 6 6 6 11
1 17 -2 13 -5z m80 0 c-3 -3 -12 -4 -19 -1 -8 3 -5 6 6 6 11 1 17 -2 13 -5z
m80 0 c-3 -3 -12 -4 -19 -1 -8 3 -5 6 6 6 11 1 17 -2 13 -5z m80 0 c-3 -3 -12
-4 -19 -1 -8 3 -5 6 6 6 11 1 17 -2 13 -5z m80 0 c-3 -3 -12 -4 -19 -1 -8 3
-5 6 6 6 11 1 17 -2 13 -5z m80 0 c-3 -3 -12 -4 -19 -1 -8 3 -5 6 6 6 11 1 17
-2 13 -5z m80 0 c-3 -3 -12 -4 -19 -1 -8 3 -5 6 6 6 11 1 17 -2 13 -5z m80 0
c-3 -3 -12 -4 -19 -1 -8 3 -5 6 6 6 11 1 17 -2 13 -5z m80 0 c-3 -3 -12 -4
-19 -1 -8 3 -5 6 6 6 11 1 17 -2 13 -5z m80 0 c-3 -3 -12 -4 -19 -1 -8 3 -5 6
6 6 11 1 17 -2 13 -5z m80 0 c-3 -3 -12 -4 -19 -1 -8 3 -5 6 6 6 11 1 17 -2
13 -5z m80 0 c-3 -3 -12 -4 -19 -1 -8 3 -5 6 6 6 11 1 17 -2 13 -5z m80 0 c-3
-3 -12 -4 -19 -1 -8 3 -5 6 6 6 11 1 17 -2 13 -5z m80 0 c-3 -3 -12 -4 -19 -1
-8 3 -5 6 6 6 11 1 17 -2 13 -5z m80 0 c-3 -3 -12 -4 -19 -1 -8 3 -5 6 6 6 11
1 17 -2 13 -5z m80 0 c-3 -3 -12 -4 -19 -1 -8 3 -5 6 6 6 11 1 17 -2 13 -5z
m680 0 c-3 -3 -12 -4 -19 -1 -8 3 -5 6 6 6 11 1 17 -2 13 -5z m80 0 c-3 -3
-12 -4 -19 -1 -8 3 -5 6 6 6 11 1 17 -2 13 -5z m80 0 c-3 -3 -12 -4 -19 -1 -8
3 -5 6 6 6 11 1 17 -2 13 -5z m80 0 c-3 -3 -12 -4 -19 -1 -8 3 -5 6 6 6 11 1
17 -2 13 -5z m80 0 c-3 -3 -12 -4 -19 -1 -8 3 -5 6 6 6 11 1 17 -2 13 -5z m80
0 c-3 -3 -12 -4 -19 -1 -8 3 -5 6 6 6 11 1 17 -2 13 -5z m80 0 c-3 -3 -12 -4
-19 -1 -8 3 -5 6 6 6 11 1 17 -2 13 -5z m80 0 c-3 -3 -12 -4 -19 -1 -8 3 -5 6
6 6 11 1 17 -2 13 -5z m80 0 c-3 -3 -12 -4 -19 -1 -8 3 -5 6 6 6 11 1 17 -2
13 -5z m80 0 c-3 -3 -12 -4 -19 -1 -8 3 -5 6 6 6 11 1 17 -2 13 -5z m80 0 c-3
-3 -12 -4 -19 -1 -8 3 -5 6 6 6 11 1 17 -2 13 -5z m80 0 c-3 -3 -12 -4 -19 -1
-8 3 -5 6 6 6 11 1 17 -2 13 -5z m80 0 c-3 -3 -12 -4 -19 -1 -8 3 -5 6 6 6 11
1 17 -2 13 -5z m80 0 c-3 -3 -12 -4 -19 -1 -8 3 -5 6 6 6 11 1 17 -2 13 -5z
m80 0 c-3 -3 -12 -4 -19 -1 -8 3 -5 6 6 6 11 1 17 -2 13 -5z m80 0 c-3 -3 -12
-4 -19 -1 -8 3 -5 6 6 6 11 1 17 -2 13 -5z m80 0 c-3 -3 -12 -4 -19 -1 -8 3
-5 6 6 6 11 1 17 -2 13 -5z m80 0 c-3 -3 -12 -4 -19 -1 -8 3 -5 6 6 6 11 1 17
-2 13 -5z m80 0 c-3 -3 -12 -4 -19 -1 -8 3 -5 6 6 6 11 1 17 -2 13 -5z m80 0
c-3 -3 -12 -4 -19 -1 -8 3 -5 6 6 6 11 1 17 -2 13 -5z m80 0 c-3 -3 -12 -4
-19 -1 -8 3 -5 6 6 6 11 1 17 -2 13 -5z m80 0 c-3 -3 -12 -4 -19 -1 -8 3 -5 6
6 6 11 1 17 -2 13 -5z m80 0 c-3 -3 -12 -4 -19 -1 -8 3 -5 6 6 6 11 1 17 -2
13 -5z m3440 0 c-3 -3 -12 -4 -19 -1 -8 3 -5 6 6 6 11 1 17 -2 13 -5z m80 0
c-3 -3 -12 -4 -19 -1 -8 3 -5 6 6 6 11 1 17 -2 13 -5z m80 0 c-3 -3 -12 -4
-19 -1 -8 3 -5 6 6 6 11 1 17 -2 13 -5z m80 0 c-3 -3 -12 -4 -19 -1 -8 3 -5 6
6 6 11 1 17 -2 13 -5z m80 0 c-3 -3 -12 -4 -19 -1 -8 3 -5 6 6 6 11 1 17 -2
13 -5z m80 0 c-3 -3 -12 -4 -19 -1 -8 3 -5 6 6 6 11 1 17 -2 13 -5z m80 0 c-3
-3 -12 -4 -19 -1 -8 3 -5 6 6 6 11 1 17 -2 13 -5z m80 0 c-3 -3 -12 -4 -19 -1
-8 3 -5 6 6 6 11 1 17 -2 13 -5z m80 0 c-3 -3 -12 -4 -19 -1 -8 3 -5 6 6 6 11
1 17 -2 13 -5z m80 0 c-3 -3 -12 -4 -19 -1 -8 3 -5 6 6 6 11 1 17 -2 13 -5z
m80 0 c-3 -3 -12 -4 -19 -1 -8 3 -5 6 6 6 11 1 17 -2 13 -5z m80 0 c-3 -3 -12
-4 -19 -1 -8 3 -5 6 6 6 11 1 17 -2 13 -5z m80 0 c-3 -3 -12 -4 -19 -1 -8 3
-5 6 6 6 11 1 17 -2 13 -5z m80 0 c-3 -3 -12 -4 -19 -1 -8 3 -5 6 6 6 11 1 17
-2 13 -5z m80 0 c-3 -3 -12 -4 -19 -1 -8 3 -5 6 6 6 11 1 17 -2 13 -5z m80 0
c-3 -3 -12 -4 -19 -1 -8 3 -5 6 6 6 11 1 17 -2 13 -5z m80 0 c-3 -3 -12 -4
-19 -1 -8 3 -5 6 6 6 11 1 17 -2 13 -5z m80 0 c-3 -3 -12 -4 -19 -1 -8 3 -5 6
6 6 11 1 17 -2 13 -5z m80 0 c-3 -3 -12 -4 -19 -1 -8 3 -5 6 6 6 11 1 17 -2
13 -5z m80 0 c-3 -3 -12 -4 -19 -1 -8 3 -5 6 6 6 11 1 17 -2 13 -5z m80 0 c-3
-3 -12 -4 -19 -1 -8 3 -5 6 6 6 11 1 17 -2 13 -5z m80 0 c-3 -3 -12 -4 -19 -1
-8 3 -5 6 6 6 11 1 17 -2 13 -5z m80 0 c-3 -3 -12 -4 -19 -1 -8 3 -5 6 6 6 11
1 17 -2 13 -5z m680 0 c-3 -3 -12 -4 -19 -1 -8 3 -5 6 6 6 11 1 17 -2 13 -5z
m80 0 c-3 -3 -12 -4 -19 -1 -8 3 -5 6 6 6 11 1 17 -2 13 -5z m80 0 c-3 -3 -12
-4 -19 -1 -8 3 -5 6 6 6 11 1 17 -2 13 -5z m80 0 c-3 -3 -12 -4 -19 -1 -8 3
-5 6 6 6 11 1 17 -2 13 -5z m80 0 c-3 -3 -12 -4 -19 -1 -8 3 -5 6 6 6 11 1 17
-2 13 -5z m80 0 c-3 -3 -12 -4 -19 -1 -8 3 -5 6 6 6 11 1 17 -2 13 -5z m80 0
c-3 -3 -12 -4 -19 -1 -8 3 -5 6 6 6 11 1 17 -2 13 -5z m80 0 c-3 -3 -12 -4
-19 -1 -8 3 -5 6 6 6 11 1 17 -2 13 -5z m80 0 c-3 -3 -12 -4 -19 -1 -8 3 -5 6
6 6 11 1 17 -2 13 -5z m80 0 c-3 -3 -12 -4 -19 -1 -8 3 -5 6 6 6 11 1 17 -2
13 -5z m80 0 c-3 -3 -12 -4 -19 -1 -8 3 -5 6 6 6 11 1 17 -2 13 -5z m80 0 c-3
-3 -12 -4 -19 -1 -8 3 -5 6 6 6 11 1 17 -2 13 -5z m80 0 c-3 -3 -12 -4 -19 -1
-8 3 -5 6 6 6 11 1 17 -2 13 -5z m80 0 c-3 -3 -12 -4 -19 -1 -8 3 -5 6 6 6 11
1 17 -2 13 -5z m80 0 c-3 -3 -12 -4 -19 -1 -8 3 -5 6 6 6 11 1 17 -2 13 -5z
m80 0 c-3 -3 -12 -4 -19 -1 -8 3 -5 6 6 6 11 1 17 -2 13 -5z m80 0 c-3 -3 -12
-4 -19 -1 -8 3 -5 6 6 6 11 1 17 -2 13 -5z m80 0 c-3 -3 -12 -4 -19 -1 -8 3
-5 6 6 6 11 1 17 -2 13 -5z m80 0 c-3 -3 -12 -4 -19 -1 -8 3 -5 6 6 6 11 1 17
-2 13 -5z m-5116 -58 c5 3 9 -2 9 -10 0 -10 -6 -13 -15 -10 -8 4 -15 14 -14
23 0 10 2 11 6 3 2 -6 9 -10 14 -6z m-156 -18 c6 -4 2 -8 -7 -8 -10 0 -18 7
-18 17 0 9 3 12 8 7 4 -5 12 -12 17 -16z m210 13 c3 -5 1 -12 -4 -15 -5 -3
-11 1 -15 9 -6 16 9 21 19 6z m65 -6 c0 -8 -7 -15 -15 -15 -8 0 -15 7 -15 15
0 8 7 15 15 15 8 0 15 -7 15 -15z m-327 -8 c3 -8 -1 -14 -9 -14 -8 0 -14 6
-14 14 0 7 4 13 9 13 5 0 11 -6 14 -13z m164 -9 c-3 -8 -6 -5 -6 6 -1 11 2 17
5 13 3 -3 4 -12 1 -19z m-217 2 c0 -5 -7 -10 -15 -10 -8 0 -15 5 -15 10 0 6 7
10 15 10 8 0 15 -4 15 -10z m-7483 -130 l53 -27 52 33 c101 65 162 30 170 -96
2 -46 8 -53 60 -69 39 -13 88 -53 88 -72 0 -6 -15 2 -34 19 -36 31 -99 58
-115 48 -5 -3 -12 -22 -15 -41 -4 -20 -13 -35 -21 -35 -7 0 -31 22 -52 50 -42
55 -71 65 -141 53 -39 -7 -46 -13 -71 -57 -15 -27 -32 -51 -38 -53 -7 -3 -22
14 -35 36 -15 27 -30 41 -44 41 -23 0 -80 -39 -106 -73 -21 -27 -32 -18 -19
16 7 18 29 35 71 54 44 20 58 32 54 43 -15 37 -24 96 -19 122 5 21 15 30 38
36 39 10 57 6 124 -28z m7663 3 c21 -22 22 -25 5 -18 -11 4 -36 9 -55 11 -30
3 -27 1 16 -12 28 -9 56 -24 62 -34 11 -18 10 -18 -23 -4 -41 17 -79 18 -108
3 -36 -19 -77 -62 -77 -81 0 -11 -7 -18 -19 -18 -11 0 -21 -8 -24 -17 -4 -17
-4 -17 -12 1 -5 11 -3 21 5 26 10 6 39 70 40 88 0 1 -10 -2 -22 -9 -17 -9 -20
-9 -15 4 4 11 0 13 -14 10 -10 -3 -17 -9 -14 -13 3 -5 1 -11 -5 -15 -16 -10
-12 -25 8 -26 15 -1 15 -2 -2 -6 -14 -4 -17 -11 -13 -36 3 -18 9 -40 13 -51 5
-14 3 -17 -7 -14 -14 5 -29 54 -30 98 0 23 -5 25 -45 26 -29 1 -44 -3 -44 -12
0 -7 7 -14 16 -16 15 -3 43 -61 48 -100 1 -10 10 -26 20 -37 12 -13 16 -32 14
-62 -2 -36 -7 -44 -23 -44 -14 0 -23 10 -30 33 -5 17 -13 32 -17 32 -10 0 -11
-34 -1 -44 4 -3 7 -14 8 -24 1 -9 5 -28 8 -42 l7 -25 -11 25 c-7 14 -23 48
-36 75 l-24 50 31 26 c19 17 27 29 21 33 -6 4 -11 16 -11 27 0 11 -4 18 -9 15
-5 -4 -7 2 -4 12 2 10 -5 28 -16 41 -27 31 -27 48 2 49 37 0 51 6 62 26 20 37
189 89 260 79 24 -3 50 -15 65 -30z m-3 -89 c3 -8 -4 -29 -16 -45 -21 -29 -21
-29 -1 -29 25 0 26 -14 0 -40 -27 -27 -46 -25 -67 6 -35 54 -4 124 53 124 14
0 27 -7 31 -16z m-141 -61 c-11 -11 -19 6 -11 24 8 17 8 17 12 0 3 -10 2 -21
-1 -24z m283 -25 c5 -13 12 -38 16 -55 5 -26 3 -33 -9 -33 -8 0 -20 9 -26 19
-16 31 -12 91 7 91 2 0 7 -10 12 -22z m-7671 -40 c24 -20 11 -28 -43 -28 -43
0 -55 3 -55 15 0 31 64 39 98 13z m7359 -3 c-2 -14 -2 -23 1 -21 3 3 13 -3 22
-14 9 -11 32 -26 51 -34 34 -15 34 -15 7 -16 -16 0 -28 -4 -28 -10 0 -5 -7 -7
-15 -4 -8 4 -15 12 -15 20 0 8 -6 14 -12 14 -7 0 -21 14 -30 30 -15 27 -15 31
-2 45 22 21 27 19 21 -10z m269 -72 c-1 -11 9 -17 33 -20 31 -4 33 -3 21 11
-7 9 -10 20 -6 24 4 4 14 -2 22 -12 12 -17 11 -21 -3 -31 -14 -10 -15 -17 -6
-41 7 -16 14 -58 18 -94 6 -60 5 -63 -9 -45 -13 17 -15 17 -16 4 0 -9 -10 -20
-22 -24 -20 -6 -20 -8 -5 -12 23 -6 22 -23 -2 -23 -25 0 -36 -16 -16 -24 22
-8 18 -25 -5 -19 -11 3 -20 10 -20 15 0 5 -4 7 -8 4 -4 -2 -8 6 -7 20 0 14 7
29 15 34 13 9 13 11 0 19 -8 5 -18 7 -22 5 -4 -3 -8 4 -8 14 0 12 -11 24 -31
32 -32 14 -44 8 -52 -25 -4 -16 -5 -14 -6 6 0 15 6 32 14 39 15 13 55 5 55
-11 0 -6 8 -5 20 1 11 6 24 9 29 6 5 -3 14 1 21 9 10 12 6 13 -27 9 -31 -4
-34 -3 -15 5 12 6 22 16 22 22 0 8 -4 8 -15 -1 -8 -6 -20 -10 -27 -7 -8 4 -7
6 5 6 10 1 17 9 17 21 0 17 -3 18 -26 9 -42 -15 -46 -20 -33 -35 9 -11 7 -14
-14 -14 -14 0 -29 -5 -32 -10 -4 -6 -16 -8 -27 -4 -18 5 -20 3 -14 -17 3 -13
9 -44 13 -69 6 -40 5 -44 -9 -32 -9 7 -14 21 -11 32 7 27 -17 82 -32 76 -7 -2
-20 3 -29 13 -21 23 -20 32 2 25 14 -5 14 -3 -3 11 -11 8 -21 12 -23 7 -3 -10
-52 -4 -52 7 0 11 78 31 95 24 10 -3 12 -8 7 -12 -7 -4 -5 -15 4 -31 l14 -25
6 23 c5 17 14 22 40 22 40 0 84 16 84 30 0 14 -33 13 -47 -1 -14 -14 -47 -4
-38 12 4 6 13 8 21 5 8 -3 14 -1 14 5 0 7 14 10 34 7 20 -2 32 0 29 6 -4 5 6
6 23 3 16 -3 23 -4 16 -1 -10 5 -10 9 -1 20 15 19 27 18 25 -3z m-83 -10 c-7
-2 -19 -2 -25 0 -7 3 -2 5 12 5 14 0 19 -2 13 -5z m-423 -36 c0 -5 -4 -5 -10
-2 -5 3 -10 14 -10 23 0 15 2 15 10 2 5 -8 10 -19 10 -23z m625 3 c3 -11 12
-20 18 -20 7 0 29 -16 49 -35 20 -19 42 -35 48 -35 6 0 10 -5 8 -11 -2 -6 -7
-10 -11 -10 -4 1 -16 -8 -27 -19 -12 -12 -26 -17 -37 -13 -11 4 -13 8 -5 11 8
2 0 15 -18 32 -16 15 -30 37 -30 49 0 25 -17 28 -23 4 -3 -12 -5 -8 -6 9 -2
52 21 78 34 38z m-7875 -53 c0 -37 -3 -48 -10 -37 -13 20 -13 103 0 95 6 -3
10 -30 10 -58z m126 49 c3 -8 17 -17 30 -20 21 -6 25 -12 22 -39 -3 -27 -7
-32 -31 -33 -33 -1 -33 -1 -41 59 -4 30 -3 47 4 47 6 0 13 -6 16 -14z m-341
-6 c3 -5 -1 -10 -10 -10 -9 0 -13 5 -10 10 3 6 8 10 10 10 2 0 7 -4 10 -10z
m455 -27 c0 -21 3 -48 6 -60 4 -13 2 -23 -4 -23 -6 0 -12 27 -14 60 -1 33 0
60 5 60 4 0 7 -17 7 -37z m-683 5 c0 -7 4 -30 8 -50 7 -38 -7 -54 -19 -22 -9
23 -7 84 2 84 5 0 9 -6 9 -12z m278 4 c13 -9 15 -84 3 -80 -12 4 -38 75 -30
83 7 7 15 6 27 -3z m239 2 c10 -4 16 -18 16 -41 0 -33 -2 -34 -32 -31 -37 4
-50 27 -19 35 12 3 21 10 21 15 0 6 -7 8 -15 4 -15 -5 -20 5 -8 17 8 9 17 9
37 1z m7196 -29 c0 -5 -5 -3 -10 5 -5 8 -10 20 -10 25 0 6 5 3 10 -5 5 -8 10
-19 10 -25z m-7478 -11 c4 -34 -3 -50 -16 -37 -9 10 -7 73 3 73 5 0 11 -16 13
-36z m143 11 c0 -12 -9 -22 -25 -26 -25 -7 -25 -7 3 -8 34 -1 27 -21 -7 -21
-32 0 -50 24 -42 55 6 22 11 26 39 23 24 -2 32 -8 32 -23z m-273 -27 c6 -50
-5 -68 -38 -68 -30 0 -31 17 -1 23 19 4 19 4 -5 6 -29 1 -44 28 -33 61 5 15
15 20 40 20 31 0 33 -2 37 -42z m86 -2 c2 -25 0 -36 -7 -31 -6 3 -11 17 -11
31 0 15 -6 24 -15 24 -10 0 -15 -10 -15 -30 0 -16 -4 -30 -10 -30 -5 0 -10 18
-10 41 0 39 1 40 33 37 29 -3 32 -6 35 -42z m7542 -5 c0 -11 5 -23 10 -26 6
-3 10 -11 10 -18 0 -17 -27 14 -35 41 -4 13 -2 22 4 22 6 0 11 -9 11 -19z
m202 -8 c8 -10 18 -30 22 -44 4 -21 2 -28 -14 -32 -16 -4 -18 -1 -14 23 6 28
-16 56 -24 32 -2 -7 -10 -12 -17 -12 -21 0 -5 -41 19 -50 11 -4 27 -5 35 -2 9
3 12 0 9 -9 -3 -8 -10 -14 -16 -13 -7 1 -21 2 -33 3 -11 0 -17 6 -14 12 4 6 1
10 -6 8 -29 -3 -59 1 -59 9 0 5 10 14 23 20 12 6 16 11 10 11 -20 1 -15 21 10
42 28 23 50 24 69 2z m566 -63 c13 -17 21 -34 17 -40 -9 -15 -25 -12 -25 5 0
8 -9 15 -20 15 -18 0 -19 -3 -10 -21 7 -11 9 -23 6 -26 -10 -10 -37 20 -32 34
3 7 -1 13 -9 13 -17 0 -20 26 -5 35 6 3 7 -1 4 -9 -3 -9 -1 -16 5 -16 6 0 11
9 11 20 0 30 31 24 58 -10z m-513 11 c3 -5 1 -12 -5 -16 -5 -3 -10 1 -10 9 0
18 6 21 15 7z m97 -23 c-8 -8 -9 -4 -5 13 4 13 8 18 11 10 2 -7 -1 -18 -6 -23z
m271 -18 c42 -39 22 -39 -22 0 -18 17 -28 30 -22 30 7 0 26 -13 44 -30z m-206
4 c-3 -3 -12 -4 -19 -1 -8 3 -5 6 6 6 11 1 17 -2 13 -5z m161 -16 c-5 -14 -48
-31 -48 -18 0 6 7 10 15 10 8 0 15 5 15 10 0 6 5 10 11 10 6 0 9 -5 7 -12z
m-7886 -30 c-7 -7 -12 -8 -12 -2 0 6 3 14 7 17 3 4 9 5 12 2 2 -3 -1 -11 -7
-17z m7488 2 c0 -5 -7 -10 -16 -10 -8 0 -12 5 -9 10 3 6 10 10 16 10 5 0 9 -4
9 -10z m520 -11 c0 -14 -17 -10 -23 5 -4 10 -1 13 9 9 7 -3 14 -9 14 -14z
m132 14 c-10 -4 -10 -8 -1 -19 7 -8 8 -18 4 -22 -4 -4 -10 -1 -12 6 -3 6 -15
12 -28 12 -27 0 -42 16 -23 23 7 3 27 5 43 5 17 0 24 -2 17 -5z m-722 -17 c0
-15 -18 -31 -26 -23 -7 7 7 37 17 37 5 0 9 -6 9 -14z m205 4 c-3 -5 -14 -10
-23 -10 -15 0 -15 2 -2 10 20 13 33 13 25 0z m240 -23 c28 -6 -5 -161 -38
-181 -16 -9 -23 -5 -48 24 -32 37 -33 53 -3 59 15 3 16 1 6 -12 -17 -20 -1
-30 35 -21 32 8 43 20 43 49 0 18 -3 17 -25 -8 -31 -32 -30 -32 -32 -7 -1 11
4 20 10 20 7 0 -4 8 -23 18 -21 11 -40 15 -47 9 -8 -6 -10 -2 -6 12 3 12 9 18
15 15 5 -3 28 -7 53 -9 43 -3 43 -2 39 29 -2 19 0 26 5 18 4 -8 12 -14 16 -15z
m-153 -32 c-7 -38 -22 -30 -22 11 0 30 3 34 14 25 7 -6 11 -22 8 -36z m-186
22 c4 -4 3 -7 -3 -7 -6 0 -9 -9 -6 -20 4 -15 11 -18 29 -14 45 12 48 -9 3 -26
-64 -24 -99 -11 -64 23 11 12 12 17 2 25 -8 7 -18 7 -27 2 -17 -10 -30 -4 -30
14 0 14 83 16 96 3z m664 3 c0 -5 -4 -10 -9 -10 -6 0 -13 5 -16 10 -3 6 1 10
9 10 9 0 16 -4 16 -10z m-546 -32 c9 -12 14 -24 11 -26 -7 -7 -55 27 -55 38 0
18 29 10 44 -12z m371 -10 c25 -7 55 -22 66 -35 l21 -22 -33 -9 c-25 -6 -35
-5 -37 4 -3 11 -32 25 -57 28 -5 1 -13 7 -16 15 -4 11 -12 7 -32 -15 -30 -32
-34 -27 -12 16 17 33 32 36 100 18z m-250 -28 c-3 -5 -11 -10 -16 -10 -6 0 -7
5 -4 10 3 6 11 10 16 10 6 0 7 -4 4 -10z m-145 -6 c0 -5 -64 -34 -76 -34 -4 0
1 9 11 20 16 18 65 29 65 14z m40 -4 c0 -5 -5 -10 -11 -10 -5 0 -7 5 -4 10 3
6 8 10 11 10 2 0 4 -4 4 -10z m300 -18 c0 -5 12 -14 26 -20 14 -7 23 -16 20
-21 -9 -13 -54 11 -60 31 -2 10 0 18 5 18 5 0 9 -4 9 -8z m-333 -8 c-3 -3 -12
-4 -19 -1 -8 3 -5 6 6 6 11 1 17 -2 13 -5z m140 -67 c-1 -7 5 -11 14 -9 24 4
26 -12 18 -128 -4 -57 -5 -108 -2 -113 3 -4 -3 -17 -12 -27 -9 -10 -15 -22
-12 -27 3 -4 -10 -9 -28 -10 -19 -2 -37 2 -40 7 -3 6 2 10 12 10 20 0 63 26
63 38 0 4 -18 7 -39 7 -22 0 -37 3 -35 7 3 5 14 8 25 8 10 0 19 5 19 11 0 6
-7 8 -16 5 -8 -3 -32 5 -52 19 -36 25 -36 28 3 27 17 -1 17 0 3 4 -23 7 -23
30 -2 42 19 11 11 32 -12 32 -19 0 -15 42 5 48 10 3 12 0 8 -12 -5 -12 0 -16
17 -16 35 0 57 -10 49 -24 -4 -6 1 -5 11 3 9 8 16 24 14 35 -2 17 -9 20 -31
18 -28 -3 -28 -2 -14 19 9 12 13 28 10 35 -4 10 0 12 11 8 8 -3 14 -11 13 -17z
m463 -128 c0 -5 4 -8 9 -5 5 3 8 -6 7 -22 0 -15 2 -29 6 -30 22 -12 96 -91
102 -109 15 -46 -40 -85 -94 -68 -28 9 -16 23 14 18 13 -3 32 0 43 6 16 9 16
10 -6 11 -30 0 -61 27 -61 52 0 11 -4 17 -9 13 -16 -9 -24 15 -11 30 10 12 9
15 -4 15 -9 0 -16 7 -16 16 0 9 -9 18 -20 21 -24 6 -25 20 -3 45 18 20 43 24
43 7z m-460 -226 c0 -26 -51 -66 -58 -45 -2 6 -10 12 -18 12 -16 0 -20 47 -4
52 6 2 26 3 45 4 30 0 35 -3 35 -23z m-10 -103 c0 -22 -5 -40 -11 -40 -5 0 -8
-4 -5 -9 9 -15 -22 -33 -44 -26 -31 10 -44 41 -30 75 12 29 25 37 68 39 19 1
22 -4 22 -39z m-130 -170 c0 -12 -35 -31 -44 -23 -3 3 2 12 12 19 20 16 32 17
32 4z"/>
<path d="M2296 8605 c-20 -53 4 -103 44 -90 18 6 21 13 18 53 -3 42 -6 47 -29
50 -17 2 -29 -3 -33 -13z"/>
<path d="M2886 8605 c-4 -12 3 -15 29 -15 26 0 33 3 29 15 -4 8 -16 15 -29 15
-13 0 -25 -7 -29 -15z"/>
<path d="M2390 8245 c0 -32 3 -36 23 -33 17 2 22 10 22 33 0 23 -5 31 -22 33
-20 3 -23 -1 -23 -33z"/>
<path d="M2507 8274 c-4 -4 -7 -20 -7 -36 0 -25 4 -29 23 -26 17 2 22 10 22
33 0 29 -22 45 -38 29z"/>
<path d="M4782 5322 c-16 -16 -18 -27 -12 -66 10 -64 24 -77 77 -67 41 8 92
51 93 78 0 14 -73 59 -112 68 -19 5 -32 1 -46 -13z"/>
<path d="M5060 5332 c-33 -15 -70 -45 -70 -56 0 -7 15 -26 33 -44 25 -24 44
-32 86 -37 l54 -6 -5 55 c-7 80 -43 113 -98 88z"/>
<path d="M4946 5234 c-11 -28 -7 -34 23 -34 36 0 48 15 27 35 -19 20 -42 19
-50 -1z"/>
<path d="M5096 5172 c-9 -8 35 -63 45 -57 5 4 9 17 9 29 0 17 -7 25 -25 28
-13 3 -27 3 -29 0z"/>
<path d="M4821 5161 c-10 -7 -11 -13 -2 -30 7 -11 14 -21 18 -21 9 0 32 34 33
48 0 14 -28 16 -49 3z"/>
<path d="M12657 4984 c-13 -14 -7 -36 8 -30 8 3 21 -4 30 -17 11 -16 15 -17
15 -6 0 9 -3 19 -7 23 -5 4 -8 13 -8 19 0 13 -28 21 -38 11z"/>
<path d="M12480 4926 c0 -18 45 -23 55 -6 3 6 0 10 -9 10 -8 0 -21 3 -30 6
-11 4 -16 1 -16 -10z"/>
<path d="M12700 4879 c0 -11 5 -17 10 -14 6 3 10 13 10 21 0 8 -4 14 -10 14
-5 0 -10 -9 -10 -21z"/>
<path d="M12665 4870 c-3 -5 1 -10 9 -10 9 0 16 5 16 10 0 6 -4 10 -9 10 -6 0
-13 -4 -16 -10z"/>
<path d="M12797 4943 c-4 -3 -7 -11 -7 -17 0 -6 5 -5 12 2 6 6 9 14 7 17 -3 3
-9 2 -12 -2z"/>
<path d="M5040 4930 c0 -11 7 -20 15 -20 8 0 15 9 15 20 0 11 -7 20 -15 20 -8
0 -15 -9 -15 -20z"/>
<path d="M4955 4910 c4 -6 11 -8 16 -5 14 9 11 15 -7 15 -8 0 -12 -5 -9 -10z"/>
<path d="M4800 4940 c0 -5 5 -10 10 -10 6 0 10 5 10 10 0 6 -4 10 -10 10 -5 0
-10 -4 -10 -10z"/>
<path d="M4515 4921 c-8 -15 3 -31 21 -31 9 0 14 7 12 17 -4 20 -24 28 -33 14z"/>
<path d="M12690 4680 c0 -5 5 -10 11 -10 5 0 7 5 4 10 -3 6 -8 10 -11 10 -2 0
-4 -4 -4 -10z"/>
<path d="M12905 4652 c17 -10 32 -15 34 -10 4 13 0 15 -34 23 l-30 7 30 -20z"/>
<path d="M12590 4456 c0 -2 9 -6 20 -9 11 -3 20 -1 20 4 0 5 -9 9 -20 9 -11 0
-20 -2 -20 -4z"/>
<path d="M12598 4168 c9 -9 15 -9 24 0 9 9 7 12 -12 12 -19 0 -21 -3 -12 -12z"/>
</g>
</svg>
