<svg width="25" height="24" viewBox="0 0 25 24" fill="none" xmlns="http://www.w3.org/2000/svg">
<path fill-rule="evenodd" clip-rule="evenodd" d="M19.7148 4.53517C18.8951 3.71539 17.7842 3.25331 16.6248 3.24984H7.87516C6.71582 3.25331 5.60495 3.71539 4.78517 4.53517C3.96539 5.35495 3.50331 6.46582 3.49984 7.62516V16.3748C3.50331 17.5342 3.96539 18.6451 4.78517 19.4648C5.60495 20.2846 6.71582 20.7467 7.87516 20.7502H16.6248C17.7842 20.7467 18.8951 20.2846 19.7148 19.4648C20.5346 18.6451 20.9967 17.5342 21.0002 16.3748V7.62516C20.9967 6.46582 20.5346 5.35495 19.7148 4.53517ZM7.87516 1.5H16.6248C19.9937 1.5 22.75 4.25625 22.75 7.62516V16.3748C22.75 19.7437 19.9937 22.5 16.6248 22.5H7.87516C4.50625 22.5 1.75 19.7437 1.75 16.3748V7.62516C1.75 4.25625 4.50625 1.5 7.87516 1.5ZM17.2082 7.40396C17.424 7.54818 17.6778 7.62515 17.9373 7.62515C18.1098 7.62552 18.2806 7.59183 18.4401 7.526C18.5995 7.46017 18.7443 7.36351 18.8663 7.24156C18.9882 7.11961 19.0849 6.97477 19.1507 6.81536C19.2165 6.65596 19.2502 6.48512 19.2498 6.31265C19.2498 6.05306 19.1729 5.79931 19.0286 5.58347C18.8844 5.36763 18.6794 5.1994 18.4396 5.10006C18.1998 5.00072 17.9359 4.97473 17.6813 5.02537C17.4267 5.07602 17.1928 5.20102 17.0093 5.38458C16.8257 5.56813 16.7007 5.802 16.6501 6.0566C16.5994 6.3112 16.6254 6.5751 16.7248 6.81492C16.8241 7.05475 16.9923 7.25974 17.2082 7.40396ZM14.1946 9.08972C13.619 8.70512 12.9423 8.49984 12.25 8.49984C11.322 8.50083 10.4323 8.86992 9.77611 9.52611C9.11992 10.1823 8.75084 11.072 8.74985 12C8.74985 12.6923 8.95513 13.369 9.33973 13.9446C9.72433 14.5202 10.271 14.9688 10.9106 15.2337C11.5501 15.4986 12.2539 15.568 12.9328 15.4329C13.6118 15.2978 14.2355 14.9645 14.725 14.475C15.2145 13.9855 15.5478 13.3618 15.6829 12.6828C15.818 12.0039 15.7486 11.3001 15.4837 10.6605C15.2188 10.021 14.7702 9.47433 14.1946 9.08972ZM9.33326 7.63478C10.1966 7.0579 11.2117 6.75 12.25 6.75C13.6424 6.75 14.9777 7.30312 15.9623 8.28769C16.9469 9.27225 17.5 10.6076 17.5 12C17.5 13.0383 17.1921 14.0534 16.6152 14.9167C16.0383 15.7801 15.2184 16.453 14.2591 16.8504C13.2998 17.2477 12.2442 17.3517 11.2258 17.1491C10.2074 16.9465 9.27192 16.4465 8.53769 15.7123C7.80347 14.9781 7.30345 14.0426 7.10088 13.0242C6.89831 12.0058 7.00227 10.9502 7.39963 9.99091C7.79699 9.0316 8.4699 8.21166 9.33326 7.63478Z" fill="white"/>
</svg>
