<svg width="25" height="24" viewBox="0 0 25 24" fill="none" xmlns="http://www.w3.org/2000/svg">
<path d="M21.0705 1.5H3.54437C2.58672 1.5 1.75 2.18906 1.75 3.13547V20.7005C1.75 21.652 2.58672 22.5 3.54437 22.5H21.0653C22.0281 22.5 22.75 21.6464 22.75 20.7005V3.13547C22.7556 2.18906 22.0281 1.5 21.0705 1.5ZM8.25953 19.0045H5.25109V9.65063H8.25953V19.0045ZM6.85938 8.22844H6.83781C5.875 8.22844 5.25156 7.51172 5.25156 6.61453C5.25156 5.70094 5.89141 5.00109 6.87578 5.00109C7.86016 5.00109 8.4625 5.69578 8.48406 6.61453C8.48359 7.51172 7.86016 8.22844 6.85938 8.22844ZM19.2545 19.0045H16.2461V13.89C16.2461 12.6647 15.8083 11.8275 14.7198 11.8275C13.8883 11.8275 13.3961 12.39 13.1772 12.938C13.0952 13.1348 13.0731 13.403 13.0731 13.6767V19.0045H10.0647V9.65063H13.0731V10.9523C13.5109 10.3289 14.1948 9.43172 15.7863 9.43172C17.7611 9.43172 19.255 10.7334 19.255 13.5398L19.2545 19.0045Z" fill="white"/>
</svg>
